solid OpenSCAD_Model
  facet normal -1 0 0
    outer loop
      vertex 0 6.32699 10.4998
      vertex 0 22 0
      vertex 0 5.80248 10.81
    endloop
  endfacet
  facet normal -1 0 0
    outer loop
      vertex 0 2.22318 14.8699
      vertex 0 0 15
      vertex 0 2.1669 15
    endloop
  endfacet
  facet normal -1 0 0
    outer loop
      vertex 0 2.49982 14.327
      vertex 0 0 15
      vertex 0 2.22318 14.8699
    endloop
  endfacet
  facet normal -1 0 0
    outer loop
      vertex 0 2.81002 13.8025
      vertex 0 0 15
      vertex 0 2.49982 14.327
    endloop
  endfacet
  facet normal -1 0 0
    outer loop
      vertex 0 3.15254 13.2985
      vertex 0 0 15
      vertex 0 2.81002 13.8025
    endloop
  endfacet
  facet normal -1 0 0
    outer loop
      vertex 0 3.52602 12.817
      vertex 0 0 15
      vertex 0 3.15254 13.2985
    endloop
  endfacet
  facet normal -1 0 0
    outer loop
      vertex 0 3.929 12.3599
      vertex 0 0 15
      vertex 0 3.52602 12.817
    endloop
  endfacet
  facet normal -1 0 0
    outer loop
      vertex 0 0 0
      vertex 0 0 15
      vertex 0 4.35989 11.929
    endloop
  endfacet
  facet normal -1 0 0
    outer loop
      vertex 0 0 0
      vertex 0 4.35989 11.929
      vertex 0 4.81699 11.526
    endloop
  endfacet
  facet normal -1 0 0
    outer loop
      vertex 0 0 0
      vertex 0 4.81699 11.526
      vertex 0 5.29848 11.1525
    endloop
  endfacet
  facet normal -1 0 0
    outer loop
      vertex 0 0 0
      vertex 0 5.29848 11.1525
      vertex 0 5.80248 10.81
    endloop
  endfacet
  facet normal -1 0 0
    outer loop
      vertex 0 0 0
      vertex 0 5.80248 10.81
      vertex 0 22 0
    endloop
  endfacet
  facet normal -1 0 0
    outer loop
      vertex 0 6.86994 10.2232
      vertex 0 22 0
      vertex 0 6.32699 10.4998
    endloop
  endfacet
  facet normal -1 0 0
    outer loop
      vertex 0 7.42919 9.98117
      vertex 0 22 0
      vertex 0 6.86994 10.2232
    endloop
  endfacet
  facet normal -1 0 0
    outer loop
      vertex 0 8.00254 9.77475
      vertex 0 22 0
      vertex 0 7.42919 9.98117
    endloop
  endfacet
  facet normal -1 0 0
    outer loop
      vertex 0 8.58771 9.60474
      vertex 0 22 0
      vertex 0 8.00254 9.77475
    endloop
  endfacet
  facet normal -1 0 0
    outer loop
      vertex 0 9.1824 9.47181
      vertex 0 22 0
      vertex 0 8.58771 9.60474
    endloop
  endfacet
  facet normal -1 0 0
    outer loop
      vertex 0 9.78427 9.37649
      vertex 0 22 0
      vertex 0 9.1824 9.47181
    endloop
  endfacet
  facet normal -1 0 0
    outer loop
      vertex 0 22 0
      vertex 0 9.78427 9.37649
      vertex 0 10.3909 9.31914
    endloop
  endfacet
  facet normal -1 0 0
    outer loop
      vertex 0 10.3909 9.31914
      vertex 0 11 9.3
      vertex 0 22 0
    endloop
  endfacet
  facet normal -1 0 0
    outer loop
      vertex 0 11 9.3
      vertex 0 11.6091 9.31914
      vertex 0 22 0
    endloop
  endfacet
  facet normal -1 0 0
    outer loop
      vertex 0 11.6091 9.31914
      vertex 0 12.2157 9.37649
      vertex 0 22 0
    endloop
  endfacet
  facet normal -1 0 0
    outer loop
      vertex 0 12.2157 9.37649
      vertex 0 12.8176 9.47181
      vertex 0 22 0
    endloop
  endfacet
  facet normal -1 0 0
    outer loop
      vertex 0 12.8176 9.47181
      vertex 0 13.4123 9.60474
      vertex 0 22 0
    endloop
  endfacet
  facet normal -1 0 0
    outer loop
      vertex 0 13.4123 9.60474
      vertex 0 13.9975 9.77475
      vertex 0 22 0
    endloop
  endfacet
  facet normal -1 0 0
    outer loop
      vertex 0 13.9975 9.77475
      vertex 0 14.5708 9.98117
      vertex 0 22 0
    endloop
  endfacet
  facet normal -1 0 0
    outer loop
      vertex 0 14.5708 9.98117
      vertex 0 15.1301 10.2232
      vertex 0 22 0
    endloop
  endfacet
  facet normal -1 0 0
    outer loop
      vertex 0 15.1301 10.2232
      vertex 0 15.673 10.4998
      vertex 0 22 0
    endloop
  endfacet
  facet normal -1 0 0
    outer loop
      vertex 0 15.673 10.4998
      vertex 0 16.1975 10.81
      vertex 0 22 0
    endloop
  endfacet
  facet normal -1 0 0
    outer loop
      vertex 0 16.1975 10.81
      vertex 0 16.7015 11.1525
      vertex 0 22 0
    endloop
  endfacet
  facet normal -1 0 0
    outer loop
      vertex 0 16.7015 11.1525
      vertex 0 17.183 11.526
      vertex 0 22 0
    endloop
  endfacet
  facet normal -1 0 0
    outer loop
      vertex 0 17.183 11.526
      vertex 0 17.6401 11.929
      vertex 0 22 0
    endloop
  endfacet
  facet normal -1 0 0
    outer loop
      vertex 0 17.6401 11.929
      vertex 0 18.071 12.3599
      vertex 0 22 0
    endloop
  endfacet
  facet normal -1 0 0
    outer loop
      vertex 0 18.071 12.3599
      vertex 0 18.474 12.817
      vertex 0 22 0
    endloop
  endfacet
  facet normal -1 0 0
    outer loop
      vertex 0 18.474 12.817
      vertex 0 18.8475 13.2985
      vertex 0 22 0
    endloop
  endfacet
  facet normal -1 0 0
    outer loop
      vertex 0 18.8475 13.2985
      vertex 0 19.19 13.8025
      vertex 0 22 0
    endloop
  endfacet
  facet normal -1 0 0
    outer loop
      vertex 0 19.19 13.8025
      vertex 0 19.5002 14.327
      vertex 0 22 0
    endloop
  endfacet
  facet normal -1 0 0
    outer loop
      vertex 0 19.5002 14.327
      vertex 0 19.7768 14.8699
      vertex 0 22 0
    endloop
  endfacet
  facet normal -1 0 0
    outer loop
      vertex 0 19.7768 14.8699
      vertex 0 19.8331 15
      vertex 0 22 0
    endloop
  endfacet
  facet normal -1 0 0
    outer loop
      vertex 0 22 0
      vertex 0 19.8331 15
      vertex 0 22 15
    endloop
  endfacet
  facet normal -1 0 0
    outer loop
      vertex 0 4.35989 11.929
      vertex 0 0 15
      vertex 0 3.929 12.3599
    endloop
  endfacet
  facet normal 0 -1 0
    outer loop
      vertex 0 0 15
      vertex 0 0 0
      vertex 3 0 0
    endloop
  endfacet
  facet normal 0 -1 0
    outer loop
      vertex 3 0 15
      vertex 0 0 15
      vertex 3 0 0
    endloop
  endfacet
  facet normal 0 0 -1
    outer loop
      vertex 0 0 0
      vertex 0 22 0
      vertex 3 0 0
    endloop
  endfacet
  facet normal 0 0 -1
    outer loop
      vertex 3 0 0
      vertex 0 22 0
      vertex 3 22 0
    endloop
  endfacet
  facet normal 0 1 0
    outer loop
      vertex 0 22 0
      vertex 0 22 15
      vertex 3 22 0
    endloop
  endfacet
  facet normal 0 1 0
    outer loop
      vertex 3 22 0
      vertex 0 22 15
      vertex 3 22 15
    endloop
  endfacet
  facet normal 0 0 1
    outer loop
      vertex 7 21 15
      vertex 0 19.8331 15
      vertex 29 19.8331 15
    endloop
  endfacet
  facet normal 0 0 1
    outer loop
      vertex 3 21 15
      vertex 3 22 15
      vertex 0 22 15
    endloop
  endfacet
  facet normal 0 0 1
    outer loop
      vertex 29 22 15
      vertex 26 22 15
      vertex 29 19.8331 15
    endloop
  endfacet
  facet normal 0 0 1
    outer loop
      vertex 26 22 15
      vertex 26 21 15
      vertex 29 19.8331 15
    endloop
  endfacet
  facet normal 0 0 1
    outer loop
      vertex 7 22 15
      vertex 29 19.8331 15
      vertex 22 21 15
    endloop
  endfacet
  facet normal 0 0 1
    outer loop
      vertex 26 21 15
      vertex 22 21 15
      vertex 29 19.8331 15
    endloop
  endfacet
  facet normal 0 0 1
    outer loop
      vertex 7 22 15
      vertex 7 21 15
      vertex 29 19.8331 15
    endloop
  endfacet
  facet normal 0 0 1
    outer loop
      vertex 3 21 15
      vertex 0 19.8331 15
      vertex 7 21 15
    endloop
  endfacet
  facet normal 0 0 1
    outer loop
      vertex 0 22 15
      vertex 0 19.8331 15
      vertex 3 21 15
    endloop
  endfacet
  facet normal 0 0 1
    outer loop
      vertex 22 21 15
      vertex 22 22 15
      vertex 7 22 15
    endloop
  endfacet
  facet normal -8.81847e-017 -0.917754 0.397149
    outer loop
      vertex 29 19.7768 14.8699
      vertex 29 19.8331 15
      vertex 0 19.8331 15
    endloop
  endfacet
  facet normal -8.81847e-017 -0.917754 0.397149
    outer loop
      vertex 0 19.7768 14.8699
      vertex 29 19.7768 14.8699
      vertex 0 19.8331 15
    endloop
  endfacet
  facet normal -1.00806e-016 -0.891007 0.453989
    outer loop
      vertex 29 19.5002 14.327
      vertex 29 19.7768 14.8699
      vertex 0 19.7768 14.8699
    endloop
  endfacet
  facet normal -1.00806e-016 -0.891007 0.453989
    outer loop
      vertex 0 19.5002 14.327
      vertex 29 19.5002 14.327
      vertex 0 19.7768 14.8699
    endloop
  endfacet
  facet normal -1.1303e-016 -0.860742 0.509042
    outer loop
      vertex 29 19.19 13.8025
      vertex 29 19.5002 14.327
      vertex 0 19.5002 14.327
    endloop
  endfacet
  facet normal -1.1303e-016 -0.860742 0.509042
    outer loop
      vertex 0 19.19 13.8025
      vertex 29 19.19 13.8025
      vertex 0 19.5002 14.327
    endloop
  endfacet
  facet normal -1.24808e-016 -0.827081 0.562083
    outer loop
      vertex 29 18.8475 13.2985
      vertex 29 19.19 13.8025
      vertex 0 19.19 13.8025
    endloop
  endfacet
  facet normal -1.24808e-016 -0.827081 0.562083
    outer loop
      vertex 0 18.8475 13.2985
      vertex 29 18.8475 13.2985
      vertex 0 19.19 13.8025
    endloop
  endfacet
  facet normal -1.36093e-016 -0.790155 0.612907
    outer loop
      vertex 29 18.474 12.817
      vertex 29 18.8475 13.2985
      vertex 0 18.8475 13.2985
    endloop
  endfacet
  facet normal -1.36093e-016 -0.790155 0.612907
    outer loop
      vertex 0 18.474 12.817
      vertex 29 18.474 12.817
      vertex 0 18.8475 13.2985
    endloop
  endfacet
  facet normal -1.46841e-016 -0.750112 0.661311
    outer loop
      vertex 29 18.071 12.3599
      vertex 29 18.474 12.817
      vertex 0 18.474 12.817
    endloop
  endfacet
  facet normal -1.46841e-016 -0.750112 0.661311
    outer loop
      vertex 0 18.071 12.3599
      vertex 29 18.071 12.3599
      vertex 0 18.474 12.817
    endloop
  endfacet
  facet normal -1.57009e-016 -0.707107 0.707107
    outer loop
      vertex 29 17.6401 11.929
      vertex 29 18.071 12.3599
      vertex 0 18.071 12.3599
    endloop
  endfacet
  facet normal -1.57009e-016 -0.707107 0.707107
    outer loop
      vertex 0 17.6401 11.929
      vertex 29 17.6401 11.929
      vertex 0 18.071 12.3599
    endloop
  endfacet
  facet normal -1.66558e-016 -0.661311 0.750112
    outer loop
      vertex 29 17.183 11.526
      vertex 29 17.6401 11.929
      vertex 0 17.6401 11.929
    endloop
  endfacet
  facet normal -1.66558e-016 -0.661311 0.750112
    outer loop
      vertex 0 17.183 11.526
      vertex 29 17.183 11.526
      vertex 0 17.6401 11.929
    endloop
  endfacet
  facet normal -1.7545e-016 -0.612907 0.790155
    outer loop
      vertex 29 16.7015 11.1525
      vertex 29 17.183 11.526
      vertex 0 17.183 11.526
    endloop
  endfacet
  facet normal -1.7545e-016 -0.612907 0.790155
    outer loop
      vertex 0 16.7015 11.1525
      vertex 29 16.7015 11.1525
      vertex 0 17.183 11.526
    endloop
  endfacet
  facet normal -1.83649e-016 -0.562083 0.827081
    outer loop
      vertex 29 16.1975 10.81
      vertex 29 16.7015 11.1525
      vertex 0 16.7015 11.1525
    endloop
  endfacet
  facet normal -1.83649e-016 -0.562083 0.827081
    outer loop
      vertex 0 16.1975 10.81
      vertex 29 16.1975 10.81
      vertex 0 16.7015 11.1525
    endloop
  endfacet
  facet normal -1.91123e-016 -0.509042 0.860742
    outer loop
      vertex 29 15.673 10.4998
      vertex 29 16.1975 10.81
      vertex 0 16.1975 10.81
    endloop
  endfacet
  facet normal -1.91123e-016 -0.509042 0.860742
    outer loop
      vertex 0 15.673 10.4998
      vertex 29 15.673 10.4998
      vertex 0 16.1975 10.81
    endloop
  endfacet
  facet normal -1.97843e-016 -0.453989 0.891007
    outer loop
      vertex 29 15.1301 10.2232
      vertex 29 15.673 10.4998
      vertex 0 15.673 10.4998
    endloop
  endfacet
  facet normal -1.97843e-016 -0.453989 0.891007
    outer loop
      vertex 0 15.1301 10.2232
      vertex 29 15.1301 10.2232
      vertex 0 15.673 10.4998
    endloop
  endfacet
  facet normal -2.03782e-016 -0.397149 0.917754
    outer loop
      vertex 29 14.5708 9.98117
      vertex 29 15.1301 10.2232
      vertex 0 15.1301 10.2232
    endloop
  endfacet
  facet normal -2.03782e-016 -0.397149 0.917754
    outer loop
      vertex 0 14.5708 9.98117
      vertex 29 14.5708 9.98117
      vertex 0 15.1301 10.2232
    endloop
  endfacet
  facet normal -2.08918e-016 -0.338738 0.940881
    outer loop
      vertex 29 13.9975 9.77475
      vertex 29 14.5708 9.98117
      vertex 0 14.5708 9.98117
    endloop
  endfacet
  facet normal -2.08918e-016 -0.338738 0.940881
    outer loop
      vertex 0 13.9975 9.77475
      vertex 29 13.9975 9.77475
      vertex 0 14.5708 9.98117
    endloop
  endfacet
  facet normal -2.13228e-016 -0.278992 0.960293
    outer loop
      vertex 29 13.9975 9.77475
      vertex 12.85 13.8579 9.7342
      vertex 16.15 13.8579 9.7342
    endloop
  endfacet
  facet normal -2.13228e-016 -0.278992 0.960293
    outer loop
      vertex 12.5927 13.4123 9.60474
      vertex 12.85 13.8579 9.7342
      vertex 0 13.9975 9.77475
    endloop
  endfacet
  facet normal -2.13228e-016 -0.278992 0.960293
    outer loop
      vertex 16.4073 13.4123 9.60474
      vertex 29 13.4123 9.60474
      vertex 16.15 13.8579 9.7342
    endloop
  endfacet
  facet normal -2.13228e-016 -0.278992 0.960293
    outer loop
      vertex 29 13.4123 9.60474
      vertex 29 13.9975 9.77475
      vertex 16.15 13.8579 9.7342
    endloop
  endfacet
  facet normal -2.13228e-016 -0.278992 0.960293
    outer loop
      vertex 29 13.9975 9.77475
      vertex 0 13.9975 9.77475
      vertex 12.85 13.8579 9.7342
    endloop
  endfacet
  facet normal -2.13228e-016 -0.278992 0.960293
    outer loop
      vertex 0 13.9975 9.77475
      vertex 0 13.4123 9.60474
      vertex 12.5927 13.4123 9.60474
    endloop
  endfacet
  facet normal -2.16697e-016 -0.218142 0.975917
    outer loop
      vertex 12.2494 12.8176 9.47181
      vertex 12.5927 13.4123 9.60474
      vertex 0 13.4123 9.60474
    endloop
  endfacet
  facet normal -2.16697e-016 -0.218142 0.975917
    outer loop
      vertex 0 12.8176 9.47181
      vertex 12.2494 12.8176 9.47181
      vertex 0 13.4123 9.60474
    endloop
  endfacet
  facet normal -2.19311e-016 -0.156435 0.987688
    outer loop
      vertex 11.9019 12.2157 9.37649
      vertex 12.2494 12.8176 9.47181
      vertex 0 12.8176 9.47181
    endloop
  endfacet
  facet normal -2.19311e-016 -0.156435 0.987688
    outer loop
      vertex 0 12.2157 9.37649
      vertex 11.9019 12.2157 9.37649
      vertex 0 12.8176 9.47181
    endloop
  endfacet
  facet normal -2.21059e-016 -0.0941073 0.995562
    outer loop
      vertex 11.5516 11.6091 9.31914
      vertex 11.9019 12.2157 9.37649
      vertex 0 12.2157 9.37649
    endloop
  endfacet
  facet normal -2.21059e-016 -0.0941073 0.995562
    outer loop
      vertex 0 11.6091 9.31914
      vertex 11.5516 11.6091 9.31914
      vertex 0 12.2157 9.37649
    endloop
  endfacet
  facet normal -2.21935e-016 -0.0314112 0.999507
    outer loop
      vertex 11.2 11 9.3
      vertex 11.5516 11.6091 9.31914
      vertex 0 11.6091 9.31914
    endloop
  endfacet
  facet normal -2.21935e-016 -0.0314112 0.999507
    outer loop
      vertex 0 11 9.3
      vertex 11.2 11 9.3
      vertex 0 11.6091 9.31914
    endloop
  endfacet
  facet normal -2.21935e-016 0.0314112 0.999507
    outer loop
      vertex 11.5516 10.3909 9.31914
      vertex 11.2 11 9.3
      vertex 0 11 9.3
    endloop
  endfacet
  facet normal -2.21935e-016 0.0314112 0.999507
    outer loop
      vertex 0 10.3909 9.31914
      vertex 11.5516 10.3909 9.31914
      vertex 0 11 9.3
    endloop
  endfacet
  facet normal -2.21059e-016 0.0941073 0.995562
    outer loop
      vertex 11.9019 9.78427 9.37649
      vertex 11.5516 10.3909 9.31914
      vertex 0 10.3909 9.31914
    endloop
  endfacet
  facet normal -2.21059e-016 0.0941073 0.995562
    outer loop
      vertex 0 9.78427 9.37649
      vertex 11.9019 9.78427 9.37649
      vertex 0 10.3909 9.31914
    endloop
  endfacet
  facet normal -2.19311e-016 0.156435 0.987688
    outer loop
      vertex 12.2494 9.1824 9.47181
      vertex 11.9019 9.78427 9.37649
      vertex 0 9.78427 9.37649
    endloop
  endfacet
  facet normal -2.19311e-016 0.156435 0.987688
    outer loop
      vertex 0 9.1824 9.47181
      vertex 12.2494 9.1824 9.47181
      vertex 0 9.78427 9.37649
    endloop
  endfacet
  facet normal -2.16697e-016 0.218142 0.975917
    outer loop
      vertex 12.5927 8.58771 9.60474
      vertex 12.2494 9.1824 9.47181
      vertex 0 9.1824 9.47181
    endloop
  endfacet
  facet normal -2.16697e-016 0.218142 0.975917
    outer loop
      vertex 0 8.58771 9.60474
      vertex 12.5927 8.58771 9.60474
      vertex 0 9.1824 9.47181
    endloop
  endfacet
  facet normal -2.13228e-016 0.278992 0.960293
    outer loop
      vertex 29 8.00254 9.77475
      vertex 29 8.58771 9.60474
      vertex 16.4073 8.58771 9.60474
    endloop
  endfacet
  facet normal -2.13228e-016 0.278992 0.960293
    outer loop
      vertex 12.85 8.14212 9.7342
      vertex 29 8.00254 9.77475
      vertex 16.15 8.14212 9.7342
    endloop
  endfacet
  facet normal -2.13228e-016 0.278992 0.960293
    outer loop
      vertex 16.15 8.14212 9.7342
      vertex 29 8.00254 9.77475
      vertex 16.4073 8.58771 9.60474
    endloop
  endfacet
  facet normal -2.13228e-016 0.278992 0.960293
    outer loop
      vertex 0 8.00254 9.77475
      vertex 29 8.00254 9.77475
      vertex 12.85 8.14212 9.7342
    endloop
  endfacet
  facet normal -2.13228e-016 0.278992 0.960293
    outer loop
      vertex 0 8.58771 9.60474
      vertex 12.85 8.14212 9.7342
      vertex 12.5927 8.58771 9.60474
    endloop
  endfacet
  facet normal -2.13228e-016 0.278992 0.960293
    outer loop
      vertex 0 8.00254 9.77475
      vertex 12.85 8.14212 9.7342
      vertex 0 8.58771 9.60474
    endloop
  endfacet
  facet normal -2.08918e-016 0.338738 0.940881
    outer loop
      vertex 29 7.42919 9.98117
      vertex 29 8.00254 9.77475
      vertex 0 8.00254 9.77475
    endloop
  endfacet
  facet normal -2.08918e-016 0.338738 0.940881
    outer loop
      vertex 0 7.42919 9.98117
      vertex 29 7.42919 9.98117
      vertex 0 8.00254 9.77475
    endloop
  endfacet
  facet normal -2.03782e-016 0.397149 0.917754
    outer loop
      vertex 29 6.86994 10.2232
      vertex 29 7.42919 9.98117
      vertex 0 7.42919 9.98117
    endloop
  endfacet
  facet normal -2.03782e-016 0.397149 0.917754
    outer loop
      vertex 0 6.86994 10.2232
      vertex 29 6.86994 10.2232
      vertex 0 7.42919 9.98117
    endloop
  endfacet
  facet normal -1.97843e-016 0.453989 0.891007
    outer loop
      vertex 29 6.32699 10.4998
      vertex 29 6.86994 10.2232
      vertex 0 6.86994 10.2232
    endloop
  endfacet
  facet normal -1.97843e-016 0.453989 0.891007
    outer loop
      vertex 0 6.32699 10.4998
      vertex 29 6.32699 10.4998
      vertex 0 6.86994 10.2232
    endloop
  endfacet
  facet normal -1.91123e-016 0.509042 0.860742
    outer loop
      vertex 29 5.80248 10.81
      vertex 29 6.32699 10.4998
      vertex 0 6.32699 10.4998
    endloop
  endfacet
  facet normal -1.91123e-016 0.509042 0.860742
    outer loop
      vertex 0 5.80248 10.81
      vertex 29 5.80248 10.81
      vertex 0 6.32699 10.4998
    endloop
  endfacet
  facet normal -1.83649e-016 0.562083 0.827081
    outer loop
      vertex 29 5.29848 11.1525
      vertex 29 5.80248 10.81
      vertex 0 5.80248 10.81
    endloop
  endfacet
  facet normal -1.83649e-016 0.562083 0.827081
    outer loop
      vertex 0 5.29848 11.1525
      vertex 29 5.29848 11.1525
      vertex 0 5.80248 10.81
    endloop
  endfacet
  facet normal -1.7545e-016 0.612907 0.790155
    outer loop
      vertex 29 4.81699 11.526
      vertex 29 5.29848 11.1525
      vertex 0 5.29848 11.1525
    endloop
  endfacet
  facet normal -1.7545e-016 0.612907 0.790155
    outer loop
      vertex 0 4.81699 11.526
      vertex 29 4.81699 11.526
      vertex 0 5.29848 11.1525
    endloop
  endfacet
  facet normal -1.66558e-016 0.661311 0.750112
    outer loop
      vertex 29 4.35989 11.929
      vertex 29 4.81699 11.526
      vertex 0 4.81699 11.526
    endloop
  endfacet
  facet normal -1.66558e-016 0.661311 0.750112
    outer loop
      vertex 0 4.35989 11.929
      vertex 29 4.35989 11.929
      vertex 0 4.81699 11.526
    endloop
  endfacet
  facet normal -1.57009e-016 0.707107 0.707107
    outer loop
      vertex 29 4.35989 11.929
      vertex 0 4.35989 11.929
      vertex 29 3.929 12.3599
    endloop
  endfacet
  facet normal -1.57009e-016 0.707107 0.707107
    outer loop
      vertex 29 3.929 12.3599
      vertex 0 4.35989 11.929
      vertex 0 3.929 12.3599
    endloop
  endfacet
  facet normal -1.46841e-016 0.750112 0.661311
    outer loop
      vertex 29 3.929 12.3599
      vertex 0 3.929 12.3599
      vertex 29 3.52602 12.817
    endloop
  endfacet
  facet normal -1.46841e-016 0.750112 0.661311
    outer loop
      vertex 29 3.52602 12.817
      vertex 0 3.929 12.3599
      vertex 0 3.52602 12.817
    endloop
  endfacet
  facet normal -1.36093e-016 0.790155 0.612907
    outer loop
      vertex 29 3.52602 12.817
      vertex 0 3.52602 12.817
      vertex 29 3.15254 13.2985
    endloop
  endfacet
  facet normal -1.36093e-016 0.790155 0.612907
    outer loop
      vertex 29 3.15254 13.2985
      vertex 0 3.52602 12.817
      vertex 0 3.15254 13.2985
    endloop
  endfacet
  facet normal -1.24808e-016 0.827081 0.562083
    outer loop
      vertex 29 3.15254 13.2985
      vertex 0 3.15254 13.2985
      vertex 29 2.81002 13.8025
    endloop
  endfacet
  facet normal -1.24808e-016 0.827081 0.562083
    outer loop
      vertex 29 2.81002 13.8025
      vertex 0 3.15254 13.2985
      vertex 0 2.81002 13.8025
    endloop
  endfacet
  facet normal -1.1303e-016 0.860742 0.509042
    outer loop
      vertex 29 2.81002 13.8025
      vertex 0 2.81002 13.8025
      vertex 29 2.49982 14.327
    endloop
  endfacet
  facet normal -1.1303e-016 0.860742 0.509042
    outer loop
      vertex 29 2.49982 14.327
      vertex 0 2.81002 13.8025
      vertex 0 2.49982 14.327
    endloop
  endfacet
  facet normal -1.00806e-016 0.891007 0.453989
    outer loop
      vertex 29 2.49982 14.327
      vertex 0 2.49982 14.327
      vertex 29 2.22318 14.8699
    endloop
  endfacet
  facet normal -1.00806e-016 0.891007 0.453989
    outer loop
      vertex 29 2.22318 14.8699
      vertex 0 2.49982 14.327
      vertex 0 2.22318 14.8699
    endloop
  endfacet
  facet normal -8.81847e-017 0.917754 0.397149
    outer loop
      vertex 29 2.22318 14.8699
      vertex 0 2.22318 14.8699
      vertex 29 2.1669 15
    endloop
  endfacet
  facet normal -8.81847e-017 0.917754 0.397149
    outer loop
      vertex 29 2.1669 15
      vertex 0 2.22318 14.8699
      vertex 0 2.1669 15
    endloop
  endfacet
  facet normal 0 0 1
    outer loop
      vertex 0 2.1669 15
      vertex 0 0 15
      vertex 3 0 15
    endloop
  endfacet
  facet normal 0 0 1
    outer loop
      vertex 7 1 15
      vertex 0 2.1669 15
      vertex 3 1 15
    endloop
  endfacet
  facet normal 0 0 1
    outer loop
      vertex 3 1 15
      vertex 0 2.1669 15
      vertex 3 0 15
    endloop
  endfacet
  facet normal 0 0 1
    outer loop
      vertex 22 0 15
      vertex 0 2.1669 15
      vertex 7 1 15
    endloop
  endfacet
  facet normal 0 0 1
    outer loop
      vertex 22 0 15
      vertex 7 1 15
      vertex 7 0 15
    endloop
  endfacet
  facet normal 0 0 1
    outer loop
      vertex 22 1 15
      vertex 0 2.1669 15
      vertex 22 0 15
    endloop
  endfacet
  facet normal 0 0 1
    outer loop
      vertex 26 1 15
      vertex 0 2.1669 15
      vertex 22 1 15
    endloop
  endfacet
  facet normal 0 0 1
    outer loop
      vertex 29 2.1669 15
      vertex 0 2.1669 15
      vertex 26 1 15
    endloop
  endfacet
  facet normal 0 0 1
    outer loop
      vertex 29 0 15
      vertex 26 1 15
      vertex 26 0 15
    endloop
  endfacet
  facet normal 0 0 1
    outer loop
      vertex 29 2.1669 15
      vertex 26 1 15
      vertex 29 0 15
    endloop
  endfacet
  facet normal 1 0 0
    outer loop
      vertex 3 22 0
      vertex 3 22 15
      vertex 3 21 15
    endloop
  endfacet
  facet normal 1 0 0
    outer loop
      vertex 3 1 4
      vertex 3 22 0
      vertex 3 21 4
    endloop
  endfacet
  facet normal 1 0 0
    outer loop
      vertex 3 21 4
      vertex 3 22 0
      vertex 3 21 15
    endloop
  endfacet
  facet normal 1 0 0
    outer loop
      vertex 3 0 0
      vertex 3 22 0
      vertex 3 1 4
    endloop
  endfacet
  facet normal 1 0 0
    outer loop
      vertex 3 0 15
      vertex 3 1 4
      vertex 3 1 15
    endloop
  endfacet
  facet normal 1 0 0
    outer loop
      vertex 3 0 0
      vertex 3 1 4
      vertex 3 0 15
    endloop
  endfacet
  facet normal 0 1 0
    outer loop
      vertex 7 21 15
      vertex 7 21 4
      vertex 3 21 15
    endloop
  endfacet
  facet normal 0 1 0
    outer loop
      vertex 3 21 15
      vertex 7 21 4
      vertex 3 21 4
    endloop
  endfacet
  facet normal -1 0 0
    outer loop
      vertex 7 1 15
      vertex 7 1 4
      vertex 7 0 15
    endloop
  endfacet
  facet normal -1 0 0
    outer loop
      vertex 7 0 0
      vertex 7 1 4
      vertex 7 22 0
    endloop
  endfacet
  facet normal -1 0 0
    outer loop
      vertex 7 22 15
      vertex 7 21 4
      vertex 7 21 15
    endloop
  endfacet
  facet normal -1 0 0
    outer loop
      vertex 7 22 0
      vertex 7 21 4
      vertex 7 22 15
    endloop
  endfacet
  facet normal -1 0 0
    outer loop
      vertex 7 1 4
      vertex 7 21 4
      vertex 7 22 0
    endloop
  endfacet
  facet normal -1 0 0
    outer loop
      vertex 7 0 15
      vertex 7 1 4
      vertex 7 0 0
    endloop
  endfacet
  facet normal 0 1 0
    outer loop
      vertex 7 22 0
      vertex 7 22 15
      vertex 22 22 0
    endloop
  endfacet
  facet normal 0 1 0
    outer loop
      vertex 22 22 0
      vertex 7 22 15
      vertex 22 22 15
    endloop
  endfacet
  facet normal 1 0 0
    outer loop
      vertex 22 22 0
      vertex 22 22 15
      vertex 22 21 15
    endloop
  endfacet
  facet normal 1 0 0
    outer loop
      vertex 22 1 4
      vertex 22 22 0
      vertex 22 21 4
    endloop
  endfacet
  facet normal 1 0 0
    outer loop
      vertex 22 21 4
      vertex 22 22 0
      vertex 22 21 15
    endloop
  endfacet
  facet normal 1 0 0
    outer loop
      vertex 22 0 0
      vertex 22 22 0
      vertex 22 1 4
    endloop
  endfacet
  facet normal 1 0 0
    outer loop
      vertex 22 0 15
      vertex 22 1 4
      vertex 22 1 15
    endloop
  endfacet
  facet normal 1 0 0
    outer loop
      vertex 22 0 0
      vertex 22 1 4
      vertex 22 0 15
    endloop
  endfacet
  facet normal 0 1 0
    outer loop
      vertex 26 21 15
      vertex 26 21 4
      vertex 22 21 15
    endloop
  endfacet
  facet normal 0 1 0
    outer loop
      vertex 22 21 15
      vertex 26 21 4
      vertex 22 21 4
    endloop
  endfacet
  facet normal -1 0 0
    outer loop
      vertex 26 1 15
      vertex 26 1 4
      vertex 26 0 15
    endloop
  endfacet
  facet normal -1 0 0
    outer loop
      vertex 26 0 0
      vertex 26 1 4
      vertex 26 22 0
    endloop
  endfacet
  facet normal -1 0 0
    outer loop
      vertex 26 22 15
      vertex 26 21 4
      vertex 26 21 15
    endloop
  endfacet
  facet normal -1 0 0
    outer loop
      vertex 26 22 0
      vertex 26 21 4
      vertex 26 22 15
    endloop
  endfacet
  facet normal -1 0 0
    outer loop
      vertex 26 1 4
      vertex 26 21 4
      vertex 26 22 0
    endloop
  endfacet
  facet normal -1 0 0
    outer loop
      vertex 26 0 15
      vertex 26 1 4
      vertex 26 0 0
    endloop
  endfacet
  facet normal 0 1 0
    outer loop
      vertex 26 22 0
      vertex 26 22 15
      vertex 29 22 0
    endloop
  endfacet
  facet normal 0 1 0
    outer loop
      vertex 29 22 0
      vertex 26 22 15
      vertex 29 22 15
    endloop
  endfacet
  facet normal 1 0 0
    outer loop
      vertex 29 6.86994 10.2232
      vertex 29 0 0
      vertex 29 22 0
    endloop
  endfacet
  facet normal 1 0 0
    outer loop
      vertex 29 5.29848 11.1525
      vertex 29 4.81699 11.526
      vertex 29 0 15
    endloop
  endfacet
  facet normal 1 0 0
    outer loop
      vertex 29 22 15
      vertex 29 19.8331 15
      vertex 29 22 0
    endloop
  endfacet
  facet normal 1 0 0
    outer loop
      vertex 29 19.8331 15
      vertex 29 19.7768 14.8699
      vertex 29 22 0
    endloop
  endfacet
  facet normal 1 0 0
    outer loop
      vertex 29 19.7768 14.8699
      vertex 29 19.5002 14.327
      vertex 29 22 0
    endloop
  endfacet
  facet normal 1 0 0
    outer loop
      vertex 29 19.5002 14.327
      vertex 29 19.19 13.8025
      vertex 29 22 0
    endloop
  endfacet
  facet normal 1 0 0
    outer loop
      vertex 29 19.19 13.8025
      vertex 29 18.8475 13.2985
      vertex 29 22 0
    endloop
  endfacet
  facet normal 1 0 0
    outer loop
      vertex 29 18.8475 13.2985
      vertex 29 18.474 12.817
      vertex 29 22 0
    endloop
  endfacet
  facet normal 1 0 0
    outer loop
      vertex 29 2.22318 14.8699
      vertex 29 2.1669 15
      vertex 29 0 15
    endloop
  endfacet
  facet normal 1 0 0
    outer loop
      vertex 29 18.474 12.817
      vertex 29 18.071 12.3599
      vertex 29 22 0
    endloop
  endfacet
  facet normal 1 0 0
    outer loop
      vertex 29 18.071 12.3599
      vertex 29 17.6401 11.929
      vertex 29 22 0
    endloop
  endfacet
  facet normal 1 0 0
    outer loop
      vertex 29 17.6401 11.929
      vertex 29 17.183 11.526
      vertex 29 22 0
    endloop
  endfacet
  facet normal 1 0 0
    outer loop
      vertex 29 17.183 11.526
      vertex 29 16.7015 11.1525
      vertex 29 22 0
    endloop
  endfacet
  facet normal 1 0 0
    outer loop
      vertex 29 16.7015 11.1525
      vertex 29 16.1975 10.81
      vertex 29 22 0
    endloop
  endfacet
  facet normal 1 0 0
    outer loop
      vertex 29 16.1975 10.81
      vertex 29 15.673 10.4998
      vertex 29 22 0
    endloop
  endfacet
  facet normal 1 0 0
    outer loop
      vertex 29 15.673 10.4998
      vertex 29 15.1301 10.2232
      vertex 29 22 0
    endloop
  endfacet
  facet normal 1 0 0
    outer loop
      vertex 29 15.1301 10.2232
      vertex 29 14.5708 9.98117
      vertex 29 22 0
    endloop
  endfacet
  facet normal 1 0 0
    outer loop
      vertex 29 14.5708 9.98117
      vertex 29 13.9975 9.77475
      vertex 29 22 0
    endloop
  endfacet
  facet normal 1 0 0
    outer loop
      vertex 29 13.9975 9.77475
      vertex 29 13.4123 9.60474
      vertex 29 22 0
    endloop
  endfacet
  facet normal 1 0 0
    outer loop
      vertex 29 13.4123 9.60474
      vertex 29 12.8176 9.47181
      vertex 29 22 0
    endloop
  endfacet
  facet normal 1 0 0
    outer loop
      vertex 29 12.8176 9.47181
      vertex 29 12.2157 9.37649
      vertex 29 22 0
    endloop
  endfacet
  facet normal 1 0 0
    outer loop
      vertex 29 12.2157 9.37649
      vertex 29 11.6091 9.31914
      vertex 29 22 0
    endloop
  endfacet
  facet normal 1 0 0
    outer loop
      vertex 29 11.6091 9.31914
      vertex 29 11 9.3
      vertex 29 22 0
    endloop
  endfacet
  facet normal 1 0 0
    outer loop
      vertex 29 11 9.3
      vertex 29 10.3909 9.31914
      vertex 29 22 0
    endloop
  endfacet
  facet normal 1 0 0
    outer loop
      vertex 29 10.3909 9.31914
      vertex 29 9.78427 9.37649
      vertex 29 22 0
    endloop
  endfacet
  facet normal 1 0 0
    outer loop
      vertex 29 9.78427 9.37649
      vertex 29 9.1824 9.47181
      vertex 29 22 0
    endloop
  endfacet
  facet normal 1 0 0
    outer loop
      vertex 29 9.1824 9.47181
      vertex 29 8.58771 9.60474
      vertex 29 22 0
    endloop
  endfacet
  facet normal 1 0 0
    outer loop
      vertex 29 8.58771 9.60474
      vertex 29 8.00254 9.77475
      vertex 29 22 0
    endloop
  endfacet
  facet normal 1 0 0
    outer loop
      vertex 29 8.00254 9.77475
      vertex 29 7.42919 9.98117
      vertex 29 22 0
    endloop
  endfacet
  facet normal 1 0 0
    outer loop
      vertex 29 6.32699 10.4998
      vertex 29 0 0
      vertex 29 6.86994 10.2232
    endloop
  endfacet
  facet normal 1 0 0
    outer loop
      vertex 29 5.80248 10.81
      vertex 29 0 0
      vertex 29 6.32699 10.4998
    endloop
  endfacet
  facet normal 1 0 0
    outer loop
      vertex 29 5.29848 11.1525
      vertex 29 0 0
      vertex 29 5.80248 10.81
    endloop
  endfacet
  facet normal 1 0 0
    outer loop
      vertex 29 4.81699 11.526
      vertex 29 4.35989 11.929
      vertex 29 0 15
    endloop
  endfacet
  facet normal 1 0 0
    outer loop
      vertex 29 0 15
      vertex 29 0 0
      vertex 29 5.29848 11.1525
    endloop
  endfacet
  facet normal 1 0 0
    outer loop
      vertex 29 3.929 12.3599
      vertex 29 3.52602 12.817
      vertex 29 0 15
    endloop
  endfacet
  facet normal 1 0 0
    outer loop
      vertex 29 7.42919 9.98117
      vertex 29 6.86994 10.2232
      vertex 29 22 0
    endloop
  endfacet
  facet normal 1 0 0
    outer loop
      vertex 29 4.35989 11.929
      vertex 29 3.929 12.3599
      vertex 29 0 15
    endloop
  endfacet
  facet normal 1 0 0
    outer loop
      vertex 29 3.52602 12.817
      vertex 29 3.15254 13.2985
      vertex 29 0 15
    endloop
  endfacet
  facet normal 1 0 0
    outer loop
      vertex 29 3.15254 13.2985
      vertex 29 2.81002 13.8025
      vertex 29 0 15
    endloop
  endfacet
  facet normal 1 0 0
    outer loop
      vertex 29 2.81002 13.8025
      vertex 29 2.49982 14.327
      vertex 29 0 15
    endloop
  endfacet
  facet normal 1 0 0
    outer loop
      vertex 29 2.49982 14.327
      vertex 29 2.22318 14.8699
      vertex 29 0 15
    endloop
  endfacet
  facet normal 0.866025 -0.5 0
    outer loop
      vertex 11.9019 12.2157 9.37649
      vertex 11.5516 11.6091 9.31914
      vertex 12.85 13.8579 4
    endloop
  endfacet
  facet normal 0.866025 -0.5 0
    outer loop
      vertex 12.85 13.8579 4
      vertex 12.85 13.8579 9.7342
      vertex 12.5927 13.4123 9.60474
    endloop
  endfacet
  facet normal 0.866025 -0.5 0
    outer loop
      vertex 11.5516 11.6091 9.31914
      vertex 11.2 11 9.3
      vertex 12.85 13.8579 4
    endloop
  endfacet
  facet normal 0.866025 -0.5 0
    outer loop
      vertex 12.2494 12.8176 9.47181
      vertex 12.85 13.8579 4
      vertex 12.5927 13.4123 9.60474
    endloop
  endfacet
  facet normal 0.866025 -0.5 0
    outer loop
      vertex 12.2494 12.8176 9.47181
      vertex 11.9019 12.2157 9.37649
      vertex 12.85 13.8579 4
    endloop
  endfacet
  facet normal 0.866025 -0.5 0
    outer loop
      vertex 11.2 11 9.3
      vertex 11.2 11 4
      vertex 12.85 13.8579 4
    endloop
  endfacet
  facet normal -2.16697e-016 -0.218142 0.975917
    outer loop
      vertex 16.7506 12.8176 9.47181
      vertex 29 12.8176 9.47181
      vertex 29 13.4123 9.60474
    endloop
  endfacet
  facet normal -2.16697e-016 -0.218142 0.975917
    outer loop
      vertex 16.4073 13.4123 9.60474
      vertex 16.7506 12.8176 9.47181
      vertex 29 13.4123 9.60474
    endloop
  endfacet
  facet normal -0.866025 -0.5 0
    outer loop
      vertex 17.8 11 9.3
      vertex 17.4484 11.6091 9.31914
      vertex 17.8 11 4
    endloop
  endfacet
  facet normal -0.866025 -0.5 0
    outer loop
      vertex 17.8 11 4
      vertex 17.4484 11.6091 9.31914
      vertex 17.0981 12.2157 9.37649
    endloop
  endfacet
  facet normal -0.866025 -0.5 0
    outer loop
      vertex 17.0981 12.2157 9.37649
      vertex 16.7506 12.8176 9.47181
      vertex 17.8 11 4
    endloop
  endfacet
  facet normal -0.866025 -0.5 0
    outer loop
      vertex 16.7506 12.8176 9.47181
      vertex 16.4073 13.4123 9.60474
      vertex 17.8 11 4
    endloop
  endfacet
  facet normal -0.866025 -0.5 0
    outer loop
      vertex 16.4073 13.4123 9.60474
      vertex 16.15 13.8579 9.7342
      vertex 17.8 11 4
    endloop
  endfacet
  facet normal -0.866025 -0.5 0
    outer loop
      vertex 17.8 11 4
      vertex 16.15 13.8579 9.7342
      vertex 16.15 13.8579 4
    endloop
  endfacet
  facet normal 0 -1 0
    outer loop
      vertex 16.15 13.8579 4
      vertex 16.15 13.8579 9.7342
      vertex 12.85 13.8579 9.7342
    endloop
  endfacet
  facet normal 0 -1 0
    outer loop
      vertex 12.85 13.8579 4
      vertex 16.15 13.8579 4
      vertex 12.85 13.8579 9.7342
    endloop
  endfacet
  facet normal 0.866025 0.5 0
    outer loop
      vertex 12.85 8.14212 4
      vertex 11.5516 10.3909 9.31914
      vertex 11.9019 9.78427 9.37649
    endloop
  endfacet
  facet normal 0.866025 0.5 0
    outer loop
      vertex 12.5927 8.58771 9.60474
      vertex 12.85 8.14212 4
      vertex 12.2494 9.1824 9.47181
    endloop
  endfacet
  facet normal 0.866025 0.5 0
    outer loop
      vertex 12.2494 9.1824 9.47181
      vertex 12.85 8.14212 4
      vertex 11.9019 9.78427 9.37649
    endloop
  endfacet
  facet normal 0.866025 0.5 0
    outer loop
      vertex 11.2 11 9.3
      vertex 11.5516 10.3909 9.31914
      vertex 12.85 8.14212 4
    endloop
  endfacet
  facet normal 0.866025 0.5 0
    outer loop
      vertex 12.85 8.14212 9.7342
      vertex 12.85 8.14212 4
      vertex 12.5927 8.58771 9.60474
    endloop
  endfacet
  facet normal 0.866025 0.5 0
    outer loop
      vertex 12.85 8.14212 4
      vertex 11.2 11 4
      vertex 11.2 11 9.3
    endloop
  endfacet
  facet normal 0 1 0
    outer loop
      vertex 16.15 8.14212 9.7342
      vertex 16.15 8.14212 4
      vertex 12.85 8.14212 9.7342
    endloop
  endfacet
  facet normal 0 1 0
    outer loop
      vertex 12.85 8.14212 9.7342
      vertex 16.15 8.14212 4
      vertex 12.85 8.14212 4
    endloop
  endfacet
  facet normal -0.866025 0.5 0
    outer loop
      vertex 16.4073 8.58771 9.60474
      vertex 17.8 11 4
      vertex 16.15 8.14212 9.7342
    endloop
  endfacet
  facet normal -0.866025 0.5 0
    outer loop
      vertex 16.4073 8.58771 9.60474
      vertex 16.7506 9.1824 9.47181
      vertex 17.8 11 4
    endloop
  endfacet
  facet normal -0.866025 0.5 0
    outer loop
      vertex 17.8 11 4
      vertex 17.0981 9.78427 9.37649
      vertex 17.4484 10.3909 9.31914
    endloop
  endfacet
  facet normal -0.866025 0.5 0
    outer loop
      vertex 17.8 11 4
      vertex 17.4484 10.3909 9.31914
      vertex 17.8 11 9.3
    endloop
  endfacet
  facet normal -0.866025 0.5 0
    outer loop
      vertex 16.7506 9.1824 9.47181
      vertex 17.0981 9.78427 9.37649
      vertex 17.8 11 4
    endloop
  endfacet
  facet normal -0.866025 0.5 0
    outer loop
      vertex 17.8 11 4
      vertex 16.15 8.14212 4
      vertex 16.15 8.14212 9.7342
    endloop
  endfacet
  facet normal -2.16697e-016 0.218142 0.975917
    outer loop
      vertex 29 8.58771 9.60474
      vertex 29 9.1824 9.47181
      vertex 16.7506 9.1824 9.47181
    endloop
  endfacet
  facet normal -2.16697e-016 0.218142 0.975917
    outer loop
      vertex 16.4073 8.58771 9.60474
      vertex 29 8.58771 9.60474
      vertex 16.7506 9.1824 9.47181
    endloop
  endfacet
  facet normal 0 -1 0
    outer loop
      vertex 26 0 15
      vertex 26 0 0
      vertex 29 0 0
    endloop
  endfacet
  facet normal 0 -1 0
    outer loop
      vertex 29 0 15
      vertex 26 0 15
      vertex 29 0 0
    endloop
  endfacet
  facet normal 0 -1 0
    outer loop
      vertex 26 1 4
      vertex 26 1 15
      vertex 22 1 15
    endloop
  endfacet
  facet normal 0 -1 0
    outer loop
      vertex 22 1 4
      vertex 26 1 4
      vertex 22 1 15
    endloop
  endfacet
  facet normal 0 -1 0
    outer loop
      vertex 7 0 15
      vertex 7 0 0
      vertex 22 0 0
    endloop
  endfacet
  facet normal 0 -1 0
    outer loop
      vertex 22 0 15
      vertex 7 0 15
      vertex 22 0 0
    endloop
  endfacet
  facet normal 0 -1 0
    outer loop
      vertex 7 1 4
      vertex 7 1 15
      vertex 3 1 15
    endloop
  endfacet
  facet normal 0 -1 0
    outer loop
      vertex 3 1 4
      vertex 7 1 4
      vertex 3 1 15
    endloop
  endfacet
  facet normal 0 0 -1
    outer loop
      vertex 7 21 4
      vertex 7 1 4
      vertex 3 21 4
    endloop
  endfacet
  facet normal 0 0 -1
    outer loop
      vertex 3 21 4
      vertex 7 1 4
      vertex 3 1 4
    endloop
  endfacet
  facet normal 0 0 -1
    outer loop
      vertex 15.9579 12.3691 0
      vertex 7 22 0
      vertex 22 22 0
    endloop
  endfacet
  facet normal 0 0 -1
    outer loop
      vertex 7 0 0
      vertex 7 22 0
      vertex 12.5 11 0
    endloop
  endfacet
  facet normal 0 0 -1
    outer loop
      vertex 7 0 0
      vertex 12.5 11 0
      vertex 12.5158 10.7493 0
    endloop
  endfacet
  facet normal 0 0 -1
    outer loop
      vertex 7 0 0
      vertex 12.5158 10.7493 0
      vertex 12.5628 10.5026 0
    endloop
  endfacet
  facet normal 0 0 -1
    outer loop
      vertex 7 0 0
      vertex 12.5628 10.5026 0
      vertex 12.6404 10.2638 0
    endloop
  endfacet
  facet normal 0 0 -1
    outer loop
      vertex 7 0 0
      vertex 12.6404 10.2638 0
      vertex 12.7474 10.0365 0
    endloop
  endfacet
  facet normal 0 0 -1
    outer loop
      vertex 7 0 0
      vertex 12.7474 10.0365 0
      vertex 12.882 9.82443 0
    endloop
  endfacet
  facet normal 0 0 -1
    outer loop
      vertex 7 0 0
      vertex 12.882 9.82443 0
      vertex 13.0421 9.63091 0
    endloop
  endfacet
  facet normal 0 0 -1
    outer loop
      vertex 7 0 0
      vertex 13.0421 9.63091 0
      vertex 22 0 0
    endloop
  endfacet
  facet normal 0 0 -1
    outer loop
      vertex 13.4283 9.31134 0
      vertex 22 0 0
      vertex 13.2252 9.45897 0
    endloop
  endfacet
  facet normal 0 0 -1
    outer loop
      vertex 13.6484 9.19035 0
      vertex 22 0 0
      vertex 13.4283 9.31134 0
    endloop
  endfacet
  facet normal 0 0 -1
    outer loop
      vertex 13.882 9.09789 0
      vertex 22 0 0
      vertex 13.6484 9.19035 0
    endloop
  endfacet
  facet normal 0 0 -1
    outer loop
      vertex 14.1252 9.03543 0
      vertex 22 0 0
      vertex 13.882 9.09789 0
    endloop
  endfacet
  facet normal 0 0 -1
    outer loop
      vertex 14.3744 9.00395 0
      vertex 22 0 0
      vertex 14.1252 9.03543 0
    endloop
  endfacet
  facet normal 0 0 -1
    outer loop
      vertex 15.7748 9.45897 0
      vertex 22 0 0
      vertex 15.5717 9.31134 0
    endloop
  endfacet
  facet normal 0 0 -1
    outer loop
      vertex 12.6404 11.7362 0
      vertex 7 22 0
      vertex 12.7474 11.9635 0
    endloop
  endfacet
  facet normal 0 0 -1
    outer loop
      vertex 14.3744 9.00395 0
      vertex 14.6256 9.00395 0
      vertex 22 0 0
    endloop
  endfacet
  facet normal 0 0 -1
    outer loop
      vertex 12.7474 11.9635 0
      vertex 7 22 0
      vertex 12.882 12.1756 0
    endloop
  endfacet
  facet normal 0 0 -1
    outer loop
      vertex 14.6256 9.00395 0
      vertex 14.8748 9.03543 0
      vertex 22 0 0
    endloop
  endfacet
  facet normal 0 0 -1
    outer loop
      vertex 12.882 12.1756 0
      vertex 7 22 0
      vertex 13.0421 12.3691 0
    endloop
  endfacet
  facet normal 0 0 -1
    outer loop
      vertex 14.8748 9.03543 0
      vertex 15.118 9.09789 0
      vertex 22 0 0
    endloop
  endfacet
  facet normal 0 0 -1
    outer loop
      vertex 15.118 9.09789 0
      vertex 15.3516 9.19035 0
      vertex 22 0 0
    endloop
  endfacet
  facet normal 0 0 -1
    outer loop
      vertex 13.0421 12.3691 0
      vertex 7 22 0
      vertex 13.2252 12.541 0
    endloop
  endfacet
  facet normal 0 0 -1
    outer loop
      vertex 15.3516 9.19035 0
      vertex 15.5717 9.31134 0
      vertex 22 0 0
    endloop
  endfacet
  facet normal 0 0 -1
    outer loop
      vertex 13.2252 12.541 0
      vertex 7 22 0
      vertex 13.4283 12.6887 0
    endloop
  endfacet
  facet normal 0 0 -1
    outer loop
      vertex 22 0 0
      vertex 15.7748 9.45897 0
      vertex 15.9579 9.63091 0
    endloop
  endfacet
  facet normal 0 0 -1
    outer loop
      vertex 22 0 0
      vertex 15.9579 9.63091 0
      vertex 16.118 9.82443 0
    endloop
  endfacet
  facet normal 0 0 -1
    outer loop
      vertex 22 0 0
      vertex 16.118 9.82443 0
      vertex 16.2526 10.0365 0
    endloop
  endfacet
  facet normal 0 0 -1
    outer loop
      vertex 22 0 0
      vertex 16.2526 10.0365 0
      vertex 22 22 0
    endloop
  endfacet
  facet normal 0 0 -1
    outer loop
      vertex 16.2526 10.0365 0
      vertex 16.3596 10.2638 0
      vertex 22 22 0
    endloop
  endfacet
  facet normal 0 0 -1
    outer loop
      vertex 16.4842 10.7493 0
      vertex 22 22 0
      vertex 16.4372 10.5026 0
    endloop
  endfacet
  facet normal 0 0 -1
    outer loop
      vertex 16.5 11 0
      vertex 22 22 0
      vertex 16.4842 10.7493 0
    endloop
  endfacet
  facet normal 0 0 -1
    outer loop
      vertex 13.4283 12.6887 0
      vertex 7 22 0
      vertex 13.6484 12.8097 0
    endloop
  endfacet
  facet normal 0 0 -1
    outer loop
      vertex 15.7748 12.541 0
      vertex 7 22 0
      vertex 15.9579 12.3691 0
    endloop
  endfacet
  facet normal 0 0 -1
    outer loop
      vertex 14.6256 12.9961 0
      vertex 7 22 0
      vertex 14.8748 12.9646 0
    endloop
  endfacet
  facet normal 0 0 -1
    outer loop
      vertex 16.5 11 0
      vertex 16.4842 11.2507 0
      vertex 22 22 0
    endloop
  endfacet
  facet normal 0 0 -1
    outer loop
      vertex 14.8748 12.9646 0
      vertex 7 22 0
      vertex 15.118 12.9021 0
    endloop
  endfacet
  facet normal 0 0 -1
    outer loop
      vertex 16.4842 11.2507 0
      vertex 16.4372 11.4974 0
      vertex 22 22 0
    endloop
  endfacet
  facet normal 0 0 -1
    outer loop
      vertex 15.118 12.9021 0
      vertex 7 22 0
      vertex 15.3516 12.8097 0
    endloop
  endfacet
  facet normal 0 0 -1
    outer loop
      vertex 16.4372 11.4974 0
      vertex 16.3596 11.7362 0
      vertex 22 22 0
    endloop
  endfacet
  facet normal 0 0 -1
    outer loop
      vertex 15.3516 12.8097 0
      vertex 7 22 0
      vertex 15.5717 12.6887 0
    endloop
  endfacet
  facet normal 0 0 -1
    outer loop
      vertex 16.3596 11.7362 0
      vertex 16.2526 11.9635 0
      vertex 22 22 0
    endloop
  endfacet
  facet normal 0 0 -1
    outer loop
      vertex 15.5717 12.6887 0
      vertex 7 22 0
      vertex 15.7748 12.541 0
    endloop
  endfacet
  facet normal 0 0 -1
    outer loop
      vertex 16.2526 11.9635 0
      vertex 16.118 12.1756 0
      vertex 22 22 0
    endloop
  endfacet
  facet normal 0 0 -1
    outer loop
      vertex 16.118 12.1756 0
      vertex 15.9579 12.3691 0
      vertex 22 22 0
    endloop
  endfacet
  facet normal 0 0 -1
    outer loop
      vertex 14.3744 12.9961 0
      vertex 7 22 0
      vertex 14.6256 12.9961 0
    endloop
  endfacet
  facet normal 0 0 -1
    outer loop
      vertex 14.1252 12.9646 0
      vertex 7 22 0
      vertex 14.3744 12.9961 0
    endloop
  endfacet
  facet normal 0 0 -1
    outer loop
      vertex 13.882 12.9021 0
      vertex 7 22 0
      vertex 14.1252 12.9646 0
    endloop
  endfacet
  facet normal 0 0 -1
    outer loop
      vertex 13.6484 12.8097 0
      vertex 7 22 0
      vertex 13.882 12.9021 0
    endloop
  endfacet
  facet normal 0 0 -1
    outer loop
      vertex 16.4372 10.5026 0
      vertex 22 22 0
      vertex 16.3596 10.2638 0
    endloop
  endfacet
  facet normal 0 0 -1
    outer loop
      vertex 12.5628 11.4974 0
      vertex 7 22 0
      vertex 12.6404 11.7362 0
    endloop
  endfacet
  facet normal 0 0 -1
    outer loop
      vertex 12.5158 11.2507 0
      vertex 7 22 0
      vertex 12.5628 11.4974 0
    endloop
  endfacet
  facet normal 0 0 -1
    outer loop
      vertex 12.5 11 0
      vertex 7 22 0
      vertex 12.5158 11.2507 0
    endloop
  endfacet
  facet normal 0 0 -1
    outer loop
      vertex 13.2252 9.45897 0
      vertex 22 0 0
      vertex 13.0421 9.63091 0
    endloop
  endfacet
  facet normal 0 0 -1
    outer loop
      vertex 26 21 4
      vertex 26 1 4
      vertex 22 21 4
    endloop
  endfacet
  facet normal 0 0 -1
    outer loop
      vertex 22 21 4
      vertex 26 1 4
      vertex 22 1 4
    endloop
  endfacet
  facet normal 0 0 -1
    outer loop
      vertex 26 0 0
      vertex 26 22 0
      vertex 29 0 0
    endloop
  endfacet
  facet normal 0 0 -1
    outer loop
      vertex 29 0 0
      vertex 26 22 0
      vertex 29 22 0
    endloop
  endfacet
  facet normal -2.19311e-016 0.156435 0.987688
    outer loop
      vertex 29 9.1824 9.47181
      vertex 29 9.78427 9.37649
      vertex 17.0981 9.78427 9.37649
    endloop
  endfacet
  facet normal -2.19311e-016 0.156435 0.987688
    outer loop
      vertex 16.7506 9.1824 9.47181
      vertex 29 9.1824 9.47181
      vertex 17.0981 9.78427 9.37649
    endloop
  endfacet
  facet normal -2.21059e-016 0.0941073 0.995562
    outer loop
      vertex 29 9.78427 9.37649
      vertex 29 10.3909 9.31914
      vertex 17.4484 10.3909 9.31914
    endloop
  endfacet
  facet normal -2.21059e-016 0.0941073 0.995562
    outer loop
      vertex 17.0981 9.78427 9.37649
      vertex 29 9.78427 9.37649
      vertex 17.4484 10.3909 9.31914
    endloop
  endfacet
  facet normal -2.21935e-016 0.0314112 0.999507
    outer loop
      vertex 29 10.3909 9.31914
      vertex 29 11 9.3
      vertex 17.8 11 9.3
    endloop
  endfacet
  facet normal -2.21935e-016 0.0314112 0.999507
    outer loop
      vertex 17.4484 10.3909 9.31914
      vertex 29 10.3909 9.31914
      vertex 17.8 11 9.3
    endloop
  endfacet
  facet normal -2.21935e-016 -0.0314112 0.999507
    outer loop
      vertex 17.8 11 9.3
      vertex 29 11 9.3
      vertex 29 11.6091 9.31914
    endloop
  endfacet
  facet normal -2.21935e-016 -0.0314112 0.999507
    outer loop
      vertex 17.4484 11.6091 9.31914
      vertex 17.8 11 9.3
      vertex 29 11.6091 9.31914
    endloop
  endfacet
  facet normal -2.21059e-016 -0.0941073 0.995562
    outer loop
      vertex 17.4484 11.6091 9.31914
      vertex 29 11.6091 9.31914
      vertex 29 12.2157 9.37649
    endloop
  endfacet
  facet normal -2.21059e-016 -0.0941073 0.995562
    outer loop
      vertex 17.0981 12.2157 9.37649
      vertex 17.4484 11.6091 9.31914
      vertex 29 12.2157 9.37649
    endloop
  endfacet
  facet normal -2.19311e-016 -0.156435 0.987688
    outer loop
      vertex 17.0981 12.2157 9.37649
      vertex 29 12.2157 9.37649
      vertex 29 12.8176 9.47181
    endloop
  endfacet
  facet normal -2.19311e-016 -0.156435 0.987688
    outer loop
      vertex 16.7506 12.8176 9.47181
      vertex 17.0981 12.2157 9.37649
      vertex 29 12.8176 9.47181
    endloop
  endfacet
  facet normal 0 0 1
    outer loop
      vertex 16.2526 10.0365 4
      vertex 16.15 8.14212 4
      vertex 17.8 11 4
    endloop
  endfacet
  facet normal 0 0 1
    outer loop
      vertex 15.7748 12.541 4
      vertex 15.9579 12.3691 4
      vertex 17.8 11 4
    endloop
  endfacet
  facet normal 0 0 1
    outer loop
      vertex 14.8748 9.03543 4
      vertex 14.6256 9.00395 4
      vertex 12.85 8.14212 4
    endloop
  endfacet
  facet normal 0 0 1
    outer loop
      vertex 13.882 12.9021 4
      vertex 14.1252 12.9646 4
      vertex 16.15 13.8579 4
    endloop
  endfacet
  facet normal 0 0 1
    outer loop
      vertex 12.7474 11.9635 4
      vertex 12.882 12.1756 4
      vertex 12.85 13.8579 4
    endloop
  endfacet
  facet normal 0 0 1
    outer loop
      vertex 11.2 11 4
      vertex 12.5158 11.2507 4
      vertex 12.85 13.8579 4
    endloop
  endfacet
  facet normal 0 0 1
    outer loop
      vertex 11.2 11 4
      vertex 12.5 11 4
      vertex 12.5158 11.2507 4
    endloop
  endfacet
  facet normal 0 0 1
    outer loop
      vertex 12.5628 11.4974 4
      vertex 12.6404 11.7362 4
      vertex 12.85 13.8579 4
    endloop
  endfacet
  facet normal 0 0 1
    outer loop
      vertex 12.5628 10.5026 4
      vertex 12.5158 10.7493 4
      vertex 12.85 8.14212 4
    endloop
  endfacet
  facet normal 0 0 1
    outer loop
      vertex 12.6404 11.7362 4
      vertex 12.7474 11.9635 4
      vertex 12.85 13.8579 4
    endloop
  endfacet
  facet normal 0 0 1
    outer loop
      vertex 15.3516 12.8097 4
      vertex 15.5717 12.6887 4
      vertex 16.15 13.8579 4
    endloop
  endfacet
  facet normal 0 0 1
    outer loop
      vertex 14.3744 12.9961 4
      vertex 14.6256 12.9961 4
      vertex 16.15 13.8579 4
    endloop
  endfacet
  facet normal 0 0 1
    outer loop
      vertex 12.85 13.8579 4
      vertex 12.882 12.1756 4
      vertex 13.0421 12.3691 4
    endloop
  endfacet
  facet normal 0 0 1
    outer loop
      vertex 16.3596 10.2638 4
      vertex 16.2526 10.0365 4
      vertex 17.8 11 4
    endloop
  endfacet
  facet normal 0 0 1
    outer loop
      vertex 12.85 13.8579 4
      vertex 13.0421 12.3691 4
      vertex 13.2252 12.541 4
    endloop
  endfacet
  facet normal 0 0 1
    outer loop
      vertex 12.85 13.8579 4
      vertex 13.2252 12.541 4
      vertex 13.4283 12.6887 4
    endloop
  endfacet
  facet normal 0 0 1
    outer loop
      vertex 12.85 13.8579 4
      vertex 13.6484 12.8097 4
      vertex 16.15 13.8579 4
    endloop
  endfacet
  facet normal 0 0 1
    outer loop
      vertex 12.85 13.8579 4
      vertex 13.4283 12.6887 4
      vertex 13.6484 12.8097 4
    endloop
  endfacet
  facet normal 0 0 1
    outer loop
      vertex 13.6484 12.8097 4
      vertex 13.882 12.9021 4
      vertex 16.15 13.8579 4
    endloop
  endfacet
  facet normal 0 0 1
    outer loop
      vertex 14.6256 12.9961 4
      vertex 14.8748 12.9646 4
      vertex 16.15 13.8579 4
    endloop
  endfacet
  facet normal 0 0 1
    outer loop
      vertex 14.8748 12.9646 4
      vertex 15.118 12.9021 4
      vertex 16.15 13.8579 4
    endloop
  endfacet
  facet normal 0 0 1
    outer loop
      vertex 12.882 9.82443 4
      vertex 12.7474 10.0365 4
      vertex 12.85 8.14212 4
    endloop
  endfacet
  facet normal 0 0 1
    outer loop
      vertex 15.118 12.9021 4
      vertex 15.3516 12.8097 4
      vertex 16.15 13.8579 4
    endloop
  endfacet
  facet normal 0 0 1
    outer loop
      vertex 16.15 13.8579 4
      vertex 15.7748 12.541 4
      vertex 17.8 11 4
    endloop
  endfacet
  facet normal 0 0 1
    outer loop
      vertex 16.15 13.8579 4
      vertex 15.5717 12.6887 4
      vertex 15.7748 12.541 4
    endloop
  endfacet
  facet normal 0 0 1
    outer loop
      vertex 15.9579 12.3691 4
      vertex 16.118 12.1756 4
      vertex 17.8 11 4
    endloop
  endfacet
  facet normal 0 0 1
    outer loop
      vertex 16.118 12.1756 4
      vertex 16.2526 11.9635 4
      vertex 17.8 11 4
    endloop
  endfacet
  facet normal 0 0 1
    outer loop
      vertex 16.2526 11.9635 4
      vertex 16.3596 11.7362 4
      vertex 17.8 11 4
    endloop
  endfacet
  facet normal 0 0 1
    outer loop
      vertex 16.3596 11.7362 4
      vertex 16.4372 11.4974 4
      vertex 17.8 11 4
    endloop
  endfacet
  facet normal 0 0 1
    outer loop
      vertex 13.6484 9.19035 4
      vertex 13.4283 9.31134 4
      vertex 12.85 8.14212 4
    endloop
  endfacet
  facet normal 0 0 1
    outer loop
      vertex 16.4372 11.4974 4
      vertex 16.4842 11.2507 4
      vertex 17.8 11 4
    endloop
  endfacet
  facet normal 0 0 1
    outer loop
      vertex 16.4842 11.2507 4
      vertex 16.5 11 4
      vertex 17.8 11 4
    endloop
  endfacet
  facet normal 0 0 1
    outer loop
      vertex 16.5 11 4
      vertex 16.4842 10.7493 4
      vertex 17.8 11 4
    endloop
  endfacet
  facet normal 0 0 1
    outer loop
      vertex 16.4842 10.7493 4
      vertex 16.4372 10.5026 4
      vertex 17.8 11 4
    endloop
  endfacet
  facet normal 0 0 1
    outer loop
      vertex 16.4372 10.5026 4
      vertex 16.3596 10.2638 4
      vertex 17.8 11 4
    endloop
  endfacet
  facet normal 0 0 1
    outer loop
      vertex 16.118 9.82443 4
      vertex 16.15 8.14212 4
      vertex 16.2526 10.0365 4
    endloop
  endfacet
  facet normal 0 0 1
    outer loop
      vertex 15.9579 9.63091 4
      vertex 16.15 8.14212 4
      vertex 16.118 9.82443 4
    endloop
  endfacet
  facet normal 0 0 1
    outer loop
      vertex 15.7748 9.45897 4
      vertex 16.15 8.14212 4
      vertex 15.9579 9.63091 4
    endloop
  endfacet
  facet normal 0 0 1
    outer loop
      vertex 15.5717 9.31134 4
      vertex 16.15 8.14212 4
      vertex 15.7748 9.45897 4
    endloop
  endfacet
  facet normal 0 0 1
    outer loop
      vertex 15.3516 9.19035 4
      vertex 16.15 8.14212 4
      vertex 15.5717 9.31134 4
    endloop
  endfacet
  facet normal 0 0 1
    outer loop
      vertex 12.85 8.14212 4
      vertex 16.15 8.14212 4
      vertex 15.3516 9.19035 4
    endloop
  endfacet
  facet normal 0 0 1
    outer loop
      vertex 12.85 8.14212 4
      vertex 15.3516 9.19035 4
      vertex 15.118 9.09789 4
    endloop
  endfacet
  facet normal 0 0 1
    outer loop
      vertex 14.6256 9.00395 4
      vertex 14.3744 9.00395 4
      vertex 12.85 8.14212 4
    endloop
  endfacet
  facet normal 0 0 1
    outer loop
      vertex 14.3744 9.00395 4
      vertex 14.1252 9.03543 4
      vertex 12.85 8.14212 4
    endloop
  endfacet
  facet normal 0 0 1
    outer loop
      vertex 15.118 9.09789 4
      vertex 14.8748 9.03543 4
      vertex 12.85 8.14212 4
    endloop
  endfacet
  facet normal 0 0 1
    outer loop
      vertex 13.4283 9.31134 4
      vertex 13.2252 9.45897 4
      vertex 12.85 8.14212 4
    endloop
  endfacet
  facet normal 0 0 1
    outer loop
      vertex 13.0421 9.63091 4
      vertex 12.85 8.14212 4
      vertex 13.2252 9.45897 4
    endloop
  endfacet
  facet normal 0 0 1
    outer loop
      vertex 12.882 9.82443 4
      vertex 12.85 8.14212 4
      vertex 13.0421 9.63091 4
    endloop
  endfacet
  facet normal 0 0 1
    outer loop
      vertex 12.7474 10.0365 4
      vertex 12.6404 10.2638 4
      vertex 12.85 8.14212 4
    endloop
  endfacet
  facet normal 0 0 1
    outer loop
      vertex 12.5628 10.5026 4
      vertex 12.85 8.14212 4
      vertex 12.6404 10.2638 4
    endloop
  endfacet
  facet normal 0 0 1
    outer loop
      vertex 11.2 11 4
      vertex 12.5158 10.7493 4
      vertex 12.5 11 4
    endloop
  endfacet
  facet normal 0 0 1
    outer loop
      vertex 11.2 11 4
      vertex 12.85 8.14212 4
      vertex 12.5158 10.7493 4
    endloop
  endfacet
  facet normal 0 0 1
    outer loop
      vertex 12.5158 11.2507 4
      vertex 12.5628 11.4974 4
      vertex 12.85 13.8579 4
    endloop
  endfacet
  facet normal 0 0 1
    outer loop
      vertex 14.1252 12.9646 4
      vertex 14.3744 12.9961 4
      vertex 16.15 13.8579 4
    endloop
  endfacet
  facet normal 0 0 1
    outer loop
      vertex 14.1252 9.03543 4
      vertex 13.882 9.09789 4
      vertex 12.85 8.14212 4
    endloop
  endfacet
  facet normal 0 0 1
    outer loop
      vertex 13.882 9.09789 4
      vertex 13.6484 9.19035 4
      vertex 12.85 8.14212 4
    endloop
  endfacet
  facet normal 0.998027 -0.0627922 0
    outer loop
      vertex 12.5158 11.2507 0
      vertex 12.5158 11.2507 4
      vertex 12.5 11 4
    endloop
  endfacet
  facet normal 0.998027 -0.0627922 0
    outer loop
      vertex 12.5 11 0
      vertex 12.5158 11.2507 0
      vertex 12.5 11 4
    endloop
  endfacet
  facet normal 0.998027 0.0627922 0
    outer loop
      vertex 12.5 11 4
      vertex 12.5158 10.7493 4
      vertex 12.5158 10.7493 0
    endloop
  endfacet
  facet normal 0.998027 0.0627922 0
    outer loop
      vertex 12.5 11 0
      vertex 12.5 11 4
      vertex 12.5158 10.7493 0
    endloop
  endfacet
  facet normal 0.982287 -0.18738 0
    outer loop
      vertex 12.5628 11.4974 0
      vertex 12.5628 11.4974 4
      vertex 12.5158 11.2507 4
    endloop
  endfacet
  facet normal 0.982287 -0.18738 0
    outer loop
      vertex 12.5158 11.2507 0
      vertex 12.5628 11.4974 0
      vertex 12.5158 11.2507 4
    endloop
  endfacet
  facet normal 0.951057 -0.309016 0
    outer loop
      vertex 12.6404 11.7362 0
      vertex 12.6404 11.7362 4
      vertex 12.5628 11.4974 4
    endloop
  endfacet
  facet normal 0.951057 -0.309016 0
    outer loop
      vertex 12.5628 11.4974 0
      vertex 12.6404 11.7362 0
      vertex 12.5628 11.4974 4
    endloop
  endfacet
  facet normal 0.904826 -0.425781 0
    outer loop
      vertex 12.7474 11.9635 0
      vertex 12.7474 11.9635 4
      vertex 12.6404 11.7362 4
    endloop
  endfacet
  facet normal 0.904826 -0.425781 0
    outer loop
      vertex 12.6404 11.7362 0
      vertex 12.7474 11.9635 0
      vertex 12.6404 11.7362 4
    endloop
  endfacet
  facet normal 0.84433 -0.535824 0
    outer loop
      vertex 12.882 12.1756 0
      vertex 12.882 12.1756 4
      vertex 12.7474 11.9635 4
    endloop
  endfacet
  facet normal 0.84433 -0.535824 0
    outer loop
      vertex 12.7474 11.9635 0
      vertex 12.882 12.1756 0
      vertex 12.7474 11.9635 4
    endloop
  endfacet
  facet normal 0.770512 -0.637426 0
    outer loop
      vertex 13.0421 12.3691 0
      vertex 13.0421 12.3691 4
      vertex 12.882 12.1756 4
    endloop
  endfacet
  facet normal 0.770512 -0.637426 0
    outer loop
      vertex 12.882 12.1756 0
      vertex 13.0421 12.3691 0
      vertex 12.882 12.1756 4
    endloop
  endfacet
  facet normal 0.684547 -0.728969 0
    outer loop
      vertex 13.2252 12.541 0
      vertex 13.2252 12.541 4
      vertex 13.0421 12.3691 4
    endloop
  endfacet
  facet normal 0.684547 -0.728969 0
    outer loop
      vertex 13.0421 12.3691 0
      vertex 13.2252 12.541 0
      vertex 13.0421 12.3691 4
    endloop
  endfacet
  facet normal 0.587788 -0.809015 0
    outer loop
      vertex 13.4283 12.6887 0
      vertex 13.4283 12.6887 4
      vertex 13.2252 12.541 4
    endloop
  endfacet
  facet normal 0.587788 -0.809015 0
    outer loop
      vertex 13.2252 12.541 0
      vertex 13.4283 12.6887 0
      vertex 13.2252 12.541 4
    endloop
  endfacet
  facet normal 0.481753 -0.876307 0
    outer loop
      vertex 13.6484 12.8097 0
      vertex 13.6484 12.8097 4
      vertex 13.4283 12.6887 4
    endloop
  endfacet
  facet normal 0.481753 -0.876307 0
    outer loop
      vertex 13.4283 12.6887 0
      vertex 13.6484 12.8097 0
      vertex 13.4283 12.6887 4
    endloop
  endfacet
  facet normal 0.368124 -0.929777 0
    outer loop
      vertex 13.882 12.9021 0
      vertex 13.882 12.9021 4
      vertex 13.6484 12.8097 4
    endloop
  endfacet
  facet normal 0.368124 -0.929777 0
    outer loop
      vertex 13.6484 12.8097 0
      vertex 13.882 12.9021 0
      vertex 13.6484 12.8097 4
    endloop
  endfacet
  facet normal 0.248692 -0.968583 0
    outer loop
      vertex 14.1252 12.9646 0
      vertex 14.1252 12.9646 4
      vertex 13.882 12.9021 4
    endloop
  endfacet
  facet normal 0.248692 -0.968583 0
    outer loop
      vertex 13.882 12.9021 0
      vertex 14.1252 12.9646 0
      vertex 13.882 12.9021 4
    endloop
  endfacet
  facet normal 0.125329 -0.992115 0
    outer loop
      vertex 14.3744 12.9961 0
      vertex 14.3744 12.9961 4
      vertex 14.1252 12.9646 4
    endloop
  endfacet
  facet normal 0.125329 -0.992115 0
    outer loop
      vertex 14.1252 12.9646 0
      vertex 14.3744 12.9961 0
      vertex 14.1252 12.9646 4
    endloop
  endfacet
  facet normal 0 -1 0
    outer loop
      vertex 14.6256 12.9961 0
      vertex 14.6256 12.9961 4
      vertex 14.3744 12.9961 4
    endloop
  endfacet
  facet normal 0 -1 0
    outer loop
      vertex 14.3744 12.9961 0
      vertex 14.6256 12.9961 0
      vertex 14.3744 12.9961 4
    endloop
  endfacet
  facet normal -0.125329 -0.992115 0
    outer loop
      vertex 14.8748 12.9646 0
      vertex 14.8748 12.9646 4
      vertex 14.6256 12.9961 4
    endloop
  endfacet
  facet normal -0.125329 -0.992115 0
    outer loop
      vertex 14.6256 12.9961 0
      vertex 14.8748 12.9646 0
      vertex 14.6256 12.9961 4
    endloop
  endfacet
  facet normal -0.248692 -0.968583 0
    outer loop
      vertex 15.118 12.9021 0
      vertex 15.118 12.9021 4
      vertex 14.8748 12.9646 4
    endloop
  endfacet
  facet normal -0.248692 -0.968583 0
    outer loop
      vertex 14.8748 12.9646 0
      vertex 15.118 12.9021 0
      vertex 14.8748 12.9646 4
    endloop
  endfacet
  facet normal -0.368124 -0.929777 0
    outer loop
      vertex 15.3516 12.8097 0
      vertex 15.3516 12.8097 4
      vertex 15.118 12.9021 4
    endloop
  endfacet
  facet normal -0.368124 -0.929777 0
    outer loop
      vertex 15.118 12.9021 0
      vertex 15.3516 12.8097 0
      vertex 15.118 12.9021 4
    endloop
  endfacet
  facet normal -0.481753 -0.876307 0
    outer loop
      vertex 15.5717 12.6887 0
      vertex 15.5717 12.6887 4
      vertex 15.3516 12.8097 4
    endloop
  endfacet
  facet normal -0.481753 -0.876307 0
    outer loop
      vertex 15.3516 12.8097 0
      vertex 15.5717 12.6887 0
      vertex 15.3516 12.8097 4
    endloop
  endfacet
  facet normal -0.587788 -0.809015 0
    outer loop
      vertex 15.7748 12.541 0
      vertex 15.7748 12.541 4
      vertex 15.5717 12.6887 4
    endloop
  endfacet
  facet normal -0.587788 -0.809015 0
    outer loop
      vertex 15.5717 12.6887 0
      vertex 15.7748 12.541 0
      vertex 15.5717 12.6887 4
    endloop
  endfacet
  facet normal -0.684547 -0.728969 0
    outer loop
      vertex 15.9579 12.3691 0
      vertex 15.9579 12.3691 4
      vertex 15.7748 12.541 4
    endloop
  endfacet
  facet normal -0.684547 -0.728969 0
    outer loop
      vertex 15.7748 12.541 0
      vertex 15.9579 12.3691 0
      vertex 15.7748 12.541 4
    endloop
  endfacet
  facet normal -0.770512 -0.637426 0
    outer loop
      vertex 16.118 12.1756 4
      vertex 15.9579 12.3691 4
      vertex 16.118 12.1756 0
    endloop
  endfacet
  facet normal -0.770512 -0.637426 0
    outer loop
      vertex 16.118 12.1756 0
      vertex 15.9579 12.3691 4
      vertex 15.9579 12.3691 0
    endloop
  endfacet
  facet normal -0.84433 -0.535824 0
    outer loop
      vertex 16.2526 11.9635 4
      vertex 16.118 12.1756 4
      vertex 16.2526 11.9635 0
    endloop
  endfacet
  facet normal -0.84433 -0.535824 0
    outer loop
      vertex 16.2526 11.9635 0
      vertex 16.118 12.1756 4
      vertex 16.118 12.1756 0
    endloop
  endfacet
  facet normal -0.904826 -0.425781 0
    outer loop
      vertex 16.3596 11.7362 4
      vertex 16.2526 11.9635 4
      vertex 16.3596 11.7362 0
    endloop
  endfacet
  facet normal -0.904826 -0.425781 0
    outer loop
      vertex 16.3596 11.7362 0
      vertex 16.2526 11.9635 4
      vertex 16.2526 11.9635 0
    endloop
  endfacet
  facet normal -0.951057 -0.309016 0
    outer loop
      vertex 16.4372 11.4974 4
      vertex 16.3596 11.7362 4
      vertex 16.4372 11.4974 0
    endloop
  endfacet
  facet normal -0.951057 -0.309016 0
    outer loop
      vertex 16.4372 11.4974 0
      vertex 16.3596 11.7362 4
      vertex 16.3596 11.7362 0
    endloop
  endfacet
  facet normal -0.982287 -0.18738 0
    outer loop
      vertex 16.4842 11.2507 4
      vertex 16.4372 11.4974 4
      vertex 16.4842 11.2507 0
    endloop
  endfacet
  facet normal -0.982287 -0.18738 0
    outer loop
      vertex 16.4842 11.2507 0
      vertex 16.4372 11.4974 4
      vertex 16.4372 11.4974 0
    endloop
  endfacet
  facet normal -0.998027 -0.0627922 0
    outer loop
      vertex 16.5 11 4
      vertex 16.4842 11.2507 4
      vertex 16.5 11 0
    endloop
  endfacet
  facet normal -0.998027 -0.0627922 0
    outer loop
      vertex 16.5 11 0
      vertex 16.4842 11.2507 4
      vertex 16.4842 11.2507 0
    endloop
  endfacet
  facet normal -0.998027 0.0627922 0
    outer loop
      vertex 16.5 11 4
      vertex 16.5 11 0
      vertex 16.4842 10.7493 4
    endloop
  endfacet
  facet normal -0.998027 0.0627922 0
    outer loop
      vertex 16.4842 10.7493 4
      vertex 16.5 11 0
      vertex 16.4842 10.7493 0
    endloop
  endfacet
  facet normal -0.982287 0.18738 0
    outer loop
      vertex 16.4842 10.7493 4
      vertex 16.4842 10.7493 0
      vertex 16.4372 10.5026 4
    endloop
  endfacet
  facet normal -0.982287 0.18738 0
    outer loop
      vertex 16.4372 10.5026 4
      vertex 16.4842 10.7493 0
      vertex 16.4372 10.5026 0
    endloop
  endfacet
  facet normal -0.951057 0.309016 0
    outer loop
      vertex 16.4372 10.5026 4
      vertex 16.4372 10.5026 0
      vertex 16.3596 10.2638 4
    endloop
  endfacet
  facet normal -0.951057 0.309016 0
    outer loop
      vertex 16.3596 10.2638 4
      vertex 16.4372 10.5026 0
      vertex 16.3596 10.2638 0
    endloop
  endfacet
  facet normal -0.904826 0.425781 0
    outer loop
      vertex 16.3596 10.2638 4
      vertex 16.3596 10.2638 0
      vertex 16.2526 10.0365 4
    endloop
  endfacet
  facet normal -0.904826 0.425781 0
    outer loop
      vertex 16.2526 10.0365 4
      vertex 16.3596 10.2638 0
      vertex 16.2526 10.0365 0
    endloop
  endfacet
  facet normal -0.84433 0.535824 0
    outer loop
      vertex 16.2526 10.0365 4
      vertex 16.2526 10.0365 0
      vertex 16.118 9.82443 4
    endloop
  endfacet
  facet normal -0.84433 0.535824 0
    outer loop
      vertex 16.118 9.82443 4
      vertex 16.2526 10.0365 0
      vertex 16.118 9.82443 0
    endloop
  endfacet
  facet normal -0.770512 0.637426 0
    outer loop
      vertex 16.118 9.82443 4
      vertex 16.118 9.82443 0
      vertex 15.9579 9.63091 4
    endloop
  endfacet
  facet normal -0.770512 0.637426 0
    outer loop
      vertex 15.9579 9.63091 4
      vertex 16.118 9.82443 0
      vertex 15.9579 9.63091 0
    endloop
  endfacet
  facet normal -0.684547 0.728969 0
    outer loop
      vertex 15.9579 9.63091 4
      vertex 15.9579 9.63091 0
      vertex 15.7748 9.45897 4
    endloop
  endfacet
  facet normal -0.684547 0.728969 0
    outer loop
      vertex 15.7748 9.45897 4
      vertex 15.9579 9.63091 0
      vertex 15.7748 9.45897 0
    endloop
  endfacet
  facet normal -0.587788 0.809015 0
    outer loop
      vertex 15.7748 9.45897 4
      vertex 15.7748 9.45897 0
      vertex 15.5717 9.31134 4
    endloop
  endfacet
  facet normal -0.587788 0.809015 0
    outer loop
      vertex 15.5717 9.31134 4
      vertex 15.7748 9.45897 0
      vertex 15.5717 9.31134 0
    endloop
  endfacet
  facet normal -0.481753 0.876307 0
    outer loop
      vertex 15.5717 9.31134 4
      vertex 15.5717 9.31134 0
      vertex 15.3516 9.19035 4
    endloop
  endfacet
  facet normal -0.481753 0.876307 0
    outer loop
      vertex 15.3516 9.19035 4
      vertex 15.5717 9.31134 0
      vertex 15.3516 9.19035 0
    endloop
  endfacet
  facet normal -0.368124 0.929777 0
    outer loop
      vertex 15.3516 9.19035 4
      vertex 15.3516 9.19035 0
      vertex 15.118 9.09789 4
    endloop
  endfacet
  facet normal -0.368124 0.929777 0
    outer loop
      vertex 15.118 9.09789 4
      vertex 15.3516 9.19035 0
      vertex 15.118 9.09789 0
    endloop
  endfacet
  facet normal -0.248692 0.968583 0
    outer loop
      vertex 15.118 9.09789 4
      vertex 15.118 9.09789 0
      vertex 14.8748 9.03543 4
    endloop
  endfacet
  facet normal -0.248692 0.968583 0
    outer loop
      vertex 14.8748 9.03543 4
      vertex 15.118 9.09789 0
      vertex 14.8748 9.03543 0
    endloop
  endfacet
  facet normal -0.125329 0.992115 0
    outer loop
      vertex 14.8748 9.03543 4
      vertex 14.8748 9.03543 0
      vertex 14.6256 9.00395 4
    endloop
  endfacet
  facet normal -0.125329 0.992115 0
    outer loop
      vertex 14.6256 9.00395 4
      vertex 14.8748 9.03543 0
      vertex 14.6256 9.00395 0
    endloop
  endfacet
  facet normal 0 1 0
    outer loop
      vertex 14.6256 9.00395 4
      vertex 14.6256 9.00395 0
      vertex 14.3744 9.00395 4
    endloop
  endfacet
  facet normal 0 1 0
    outer loop
      vertex 14.3744 9.00395 4
      vertex 14.6256 9.00395 0
      vertex 14.3744 9.00395 0
    endloop
  endfacet
  facet normal 0.125329 0.992115 0
    outer loop
      vertex 14.3744 9.00395 4
      vertex 14.3744 9.00395 0
      vertex 14.1252 9.03543 4
    endloop
  endfacet
  facet normal 0.125329 0.992115 0
    outer loop
      vertex 14.1252 9.03543 4
      vertex 14.3744 9.00395 0
      vertex 14.1252 9.03543 0
    endloop
  endfacet
  facet normal 0.248692 0.968583 0
    outer loop
      vertex 14.1252 9.03543 4
      vertex 14.1252 9.03543 0
      vertex 13.882 9.09789 4
    endloop
  endfacet
  facet normal 0.248692 0.968583 0
    outer loop
      vertex 13.882 9.09789 4
      vertex 14.1252 9.03543 0
      vertex 13.882 9.09789 0
    endloop
  endfacet
  facet normal 0.368124 0.929777 0
    outer loop
      vertex 13.882 9.09789 4
      vertex 13.882 9.09789 0
      vertex 13.6484 9.19035 4
    endloop
  endfacet
  facet normal 0.368124 0.929777 0
    outer loop
      vertex 13.6484 9.19035 4
      vertex 13.882 9.09789 0
      vertex 13.6484 9.19035 0
    endloop
  endfacet
  facet normal 0.481753 0.876307 0
    outer loop
      vertex 13.6484 9.19035 4
      vertex 13.6484 9.19035 0
      vertex 13.4283 9.31134 4
    endloop
  endfacet
  facet normal 0.481753 0.876307 0
    outer loop
      vertex 13.4283 9.31134 4
      vertex 13.6484 9.19035 0
      vertex 13.4283 9.31134 0
    endloop
  endfacet
  facet normal 0.587788 0.809015 0
    outer loop
      vertex 13.4283 9.31134 4
      vertex 13.4283 9.31134 0
      vertex 13.2252 9.45897 4
    endloop
  endfacet
  facet normal 0.587788 0.809015 0
    outer loop
      vertex 13.2252 9.45897 4
      vertex 13.4283 9.31134 0
      vertex 13.2252 9.45897 0
    endloop
  endfacet
  facet normal 0.684547 0.728969 0
    outer loop
      vertex 13.2252 9.45897 4
      vertex 13.2252 9.45897 0
      vertex 13.0421 9.63091 4
    endloop
  endfacet
  facet normal 0.684547 0.728969 0
    outer loop
      vertex 13.0421 9.63091 4
      vertex 13.2252 9.45897 0
      vertex 13.0421 9.63091 0
    endloop
  endfacet
  facet normal 0.770512 0.637426 0
    outer loop
      vertex 12.882 9.82443 4
      vertex 13.0421 9.63091 4
      vertex 13.0421 9.63091 0
    endloop
  endfacet
  facet normal 0.770512 0.637426 0
    outer loop
      vertex 12.882 9.82443 0
      vertex 12.882 9.82443 4
      vertex 13.0421 9.63091 0
    endloop
  endfacet
  facet normal 0.84433 0.535824 0
    outer loop
      vertex 12.7474 10.0365 4
      vertex 12.882 9.82443 4
      vertex 12.882 9.82443 0
    endloop
  endfacet
  facet normal 0.84433 0.535824 0
    outer loop
      vertex 12.7474 10.0365 0
      vertex 12.7474 10.0365 4
      vertex 12.882 9.82443 0
    endloop
  endfacet
  facet normal 0.904826 0.425781 0
    outer loop
      vertex 12.6404 10.2638 4
      vertex 12.7474 10.0365 4
      vertex 12.7474 10.0365 0
    endloop
  endfacet
  facet normal 0.904826 0.425781 0
    outer loop
      vertex 12.6404 10.2638 0
      vertex 12.6404 10.2638 4
      vertex 12.7474 10.0365 0
    endloop
  endfacet
  facet normal 0.951057 0.309016 0
    outer loop
      vertex 12.5628 10.5026 4
      vertex 12.6404 10.2638 4
      vertex 12.6404 10.2638 0
    endloop
  endfacet
  facet normal 0.951057 0.309016 0
    outer loop
      vertex 12.5628 10.5026 0
      vertex 12.5628 10.5026 4
      vertex 12.6404 10.2638 0
    endloop
  endfacet
  facet normal 0.982287 0.18738 0
    outer loop
      vertex 12.5158 10.7493 4
      vertex 12.5628 10.5026 4
      vertex 12.5628 10.5026 0
    endloop
  endfacet
  facet normal 0.982287 0.18738 0
    outer loop
      vertex 12.5158 10.7493 0
      vertex 12.5158 10.7493 4
      vertex 12.5628 10.5026 0
    endloop
  endfacet
endsolid OpenSCAD_Model
