solid CLIP_PLATEAU
facet normal 0.0 0.0 -1.0
outer loop
vertex 35.0 12.0 0.0
vertex 22.5 10.0 0.0
vertex 22.5 12.0 0.0
endloop
endfacet
facet normal 0.0 0.0 -1.0
outer loop
vertex 22.5 10.0 0.0
vertex 35.0 12.0 0.0
vertex 24.8683475024126 9.0 0.0
endloop
endfacet
facet normal 0.0 0.0 -1.0
outer loop
vertex 22.5 10.0 0.0
vertex 24.8683475024126 9.0 0.0
vertex 22.5 5.66987298107781 0.0
endloop
endfacet
facet normal 0.0 0.0 -1.0
outer loop
vertex 22.5 5.66987298107781 0.0
vertex 24.8683475024126 9.0 0.0
vertex 23.5355339059327 6.46446609406726 0.0
endloop
endfacet
facet normal 0.0 0.0 -1.0
outer loop
vertex 23.5355339059327 6.46446609406726 0.0
vertex 24.8683475024126 9.0 0.0
vertex 24.3301270189222 7.5 0.0
endloop
endfacet
facet normal 0.0 0.0 -1.0
outer loop
vertex 24.3301270189222 7.5 0.0
vertex 24.8683475024126 9.0 0.0
vertex 24.8296291314453 8.7059047744874 0.0
endloop
endfacet
facet normal 0.0 0.0 -1.0
outer loop
vertex 24.8683475024126 9.0 0.0
vertex 35.0 12.0 0.0
vertex 35.0 9.0 0.0
endloop
endfacet
facet normal 0.0 0.0 -1.0
outer loop
vertex 17.5 12.0 0.0
vertex 5.0 9.00000000000001 0.0
vertex 5.0 12.0 0.0
endloop
endfacet
facet normal 0.0 0.0 -1.0
outer loop
vertex 5.0 9.00000000000001 0.0
vertex 17.5 12.0 0.0
vertex 15.1316524975874 9.00000000000001 0.0
endloop
endfacet
facet normal 0.0 0.0 -1.0
outer loop
vertex 15.1316524975874 9.00000000000001 0.0
vertex 17.5 12.0 0.0
vertex 15.1703708685547 8.7059047744874 0.0
endloop
endfacet
facet normal 0.0 0.0 -1.0
outer loop
vertex 15.1703708685547 8.7059047744874 0.0
vertex 17.5 12.0 0.0
vertex 15.6698729810778 7.5 0.0
endloop
endfacet
facet normal 0.0 0.0 -1.0
outer loop
vertex 15.6698729810778 7.5 0.0
vertex 17.5 12.0 0.0
vertex 16.4644660940673 6.46446609406726 0.0
endloop
endfacet
facet normal 0.0 0.0 -1.0
outer loop
vertex 16.4644660940673 6.46446609406726 0.0
vertex 17.5 12.0 0.0
vertex 17.5 5.66987298107781 0.0
endloop
endfacet
facet normal 0.0 0.0 -1.0
outer loop
vertex 17.5 5.66987298107781 0.0
vertex 17.5 12.0 0.0
vertex 17.5 10.0 0.0
endloop
endfacet
facet normal 0.0 0.0 -1.0
outer loop
vertex 17.5 5.66987298107781 0.0
vertex 17.5 10.0 0.0
vertex 17.5851854342773 9.3529523872437 0.0
endloop
endfacet
facet normal 0.0 0.0 -1.0
outer loop
vertex 17.5 5.66987298107781 0.0
vertex 17.5851854342773 9.3529523872437 0.0
vertex 18.7059047744874 5.17037086855466 0.0
endloop
endfacet
facet normal 0.0 0.0 -1.0
outer loop
vertex 18.7059047744874 5.17037086855466 0.0
vertex 17.5851854342773 9.3529523872437 0.0
vertex 17.7313830999456 9.00000000000001 0.0
endloop
endfacet
facet normal 0.0 0.0 -1.0
outer loop
vertex 18.7059047744874 5.17037086855466 0.0
vertex 17.7313830999456 9.00000000000001 0.0
vertex 17.8349364905389 8.75 0.0
endloop
endfacet
facet normal 0.0 0.0 -1.0
outer loop
vertex 18.7059047744874 5.17037086855466 0.0
vertex 17.8349364905389 8.75 0.0
vertex 18.2322330470336 8.23223304703363 0.0
endloop
endfacet
facet normal 0.0 0.0 -1.0
outer loop
vertex 18.7059047744874 5.17037086855466 0.0
vertex 18.2322330470336 8.23223304703363 0.0
vertex 18.75 7.8349364905389 0.0
endloop
endfacet
facet normal 0.0 0.0 -1.0
outer loop
vertex 18.7059047744874 5.17037086855466 0.0
vertex 18.75 7.8349364905389 0.0
vertex 20.0 5.0 0.0
endloop
endfacet
facet normal 0.0 0.0 -1.0
outer loop
vertex 20.0 5.0 0.0
vertex 18.75 7.8349364905389 0.0
vertex 19.3529523872437 7.58518543427733 0.0
endloop
endfacet
facet normal 0.0 0.0 -1.0
outer loop
vertex 20.0 5.0 0.0
vertex 19.3529523872437 7.58518543427733 0.0
vertex 20.0 7.5 0.0
endloop
endfacet
facet normal 0.0 0.0 -1.0
outer loop
vertex 20.0 5.0 0.0
vertex 20.0 7.5 0.0
vertex 20.6470476127563 7.58518543427733 0.0
endloop
endfacet
facet normal 0.0 0.0 -1.0
outer loop
vertex 20.0 5.0 0.0
vertex 20.6470476127563 7.58518543427733 0.0
vertex 21.2940952255126 5.17037086855466 0.0
endloop
endfacet
facet normal 0.0 0.0 -1.0
outer loop
vertex 21.2940952255126 5.17037086855466 0.0
vertex 20.6470476127563 7.58518543427733 0.0
vertex 21.25 7.8349364905389 0.0
endloop
endfacet
facet normal 0.0 0.0 -1.0
outer loop
vertex 21.2940952255126 5.17037086855466 0.0
vertex 21.25 7.8349364905389 0.0
vertex 21.7677669529664 8.23223304703363 0.0
endloop
endfacet
facet normal 0.0 0.0 -1.0
outer loop
vertex 21.2940952255126 5.17037086855466 0.0
vertex 21.7677669529664 8.23223304703363 0.0
vertex 22.5 5.66987298107781 0.0
endloop
endfacet
facet normal 0.0 0.0 -1.0
outer loop
vertex 22.5 5.66987298107781 0.0
vertex 21.7677669529664 8.23223304703363 0.0
vertex 22.1650635094611 8.75 0.0
endloop
endfacet
facet normal 0.0 0.0 -1.0
outer loop
vertex 22.5 5.66987298107781 0.0
vertex 22.1650635094611 8.75 0.0
vertex 22.2686169000544 9.0 0.0
endloop
endfacet
facet normal 0.0 0.0 -1.0
outer loop
vertex 22.5 5.66987298107781 0.0
vertex 22.2686169000544 9.0 0.0
vertex 22.4148145657227 9.3529523872437 0.0
endloop
endfacet
facet normal 0.0 0.0 -1.0
outer loop
vertex 22.5 5.66987298107781 0.0
vertex 22.4148145657227 9.3529523872437 0.0
vertex 22.5 10.0 0.0
endloop
endfacet
facet normal -1.0 0.0 0.0
outer loop
vertex 5.0 12.0 15.0
vertex 5.0 9.00000000000001 0.0
vertex 5.0 9.00000000000001 15.0
endloop
endfacet
facet normal -1.0 0.0 0.0
outer loop
vertex 5.0 9.00000000000001 0.0
vertex 5.0 12.0 15.0
vertex 5.0 12.0 0.0
endloop
endfacet
facet normal 1.0 0.0 0.0
outer loop
vertex 35.0 12.0 0.0
vertex 35.0 9.0 15.0
vertex 35.0 9.0 0.0
endloop
endfacet
facet normal 1.0 0.0 0.0
outer loop
vertex 35.0 9.0 15.0
vertex 35.0 12.0 0.0
vertex 35.0 12.0 15.0
endloop
endfacet
facet normal -3.38370746276856e-032 5.47144639288351e-032 1.0
outer loop
vertex 17.5 5.66987298107781 15.0
vertex 17.5851854342773 9.3529523872437 15.0
vertex 17.5 10.0 15.0
endloop
endfacet
facet normal -3.38370746276856e-032 5.47144639288351e-032 1.0
outer loop
vertex 17.5851854342773 9.3529523872437 15.0
vertex 17.5 5.66987298107781 15.0
vertex 18.7059047744874 5.17037086855466 15.0
endloop
endfacet
facet normal -3.38370746276856e-032 5.47144639288351e-032 1.0
outer loop
vertex 17.5851854342773 9.3529523872437 15.0
vertex 18.7059047744874 5.17037086855466 15.0
vertex 17.7313830999456 9.00000000000001 15.0
endloop
endfacet
facet normal -3.38370746276856e-032 5.47144639288351e-032 1.0
outer loop
vertex 17.7313830999456 9.00000000000001 15.0
vertex 18.7059047744874 5.17037086855466 15.0
vertex 17.8349364905389 8.75 15.0
endloop
endfacet
facet normal -3.38370746276856e-032 5.47144639288351e-032 1.0
outer loop
vertex 17.8349364905389 8.75 15.0
vertex 18.7059047744874 5.17037086855466 15.0
vertex 18.2322330470336 8.23223304703363 15.0
endloop
endfacet
facet normal -3.38370746276856e-032 5.47144639288351e-032 1.0
outer loop
vertex 18.2322330470336 8.23223304703363 15.0
vertex 18.7059047744874 5.17037086855466 15.0
vertex 18.75 7.8349364905389 15.0
endloop
endfacet
facet normal -3.38370746276856e-032 5.47144639288351e-032 1.0
outer loop
vertex 18.75 7.8349364905389 15.0
vertex 18.7059047744874 5.17037086855466 15.0
vertex 20.0 5.0 15.0
endloop
endfacet
facet normal -3.38370746276856e-032 5.47144639288351e-032 1.0
outer loop
vertex 18.75 7.8349364905389 15.0
vertex 20.0 5.0 15.0
vertex 19.3529523872437 7.58518543427733 15.0
endloop
endfacet
facet normal -3.38370746276856e-032 5.47144639288351e-032 1.0
outer loop
vertex 19.3529523872437 7.58518543427733 15.0
vertex 20.0 5.0 15.0
vertex 20.0 7.5 15.0
endloop
endfacet
facet normal -3.38370746276856e-032 5.47144639288351e-032 1.0
outer loop
vertex 20.0 7.5 15.0
vertex 20.0 5.0 15.0
vertex 21.2940952255126 5.17037086855466 15.0
endloop
endfacet
facet normal -3.38370746276856e-032 5.47144639288351e-032 1.0
outer loop
vertex 20.0 7.5 15.0
vertex 21.2940952255126 5.17037086855466 15.0
vertex 20.6470476127563 7.58518543427733 15.0
endloop
endfacet
facet normal -3.38370746276856e-032 5.47144639288351e-032 1.0
outer loop
vertex 20.6470476127563 7.58518543427733 15.0
vertex 21.2940952255126 5.17037086855466 15.0
vertex 21.25 7.8349364905389 15.0
endloop
endfacet
facet normal -3.38370746276856e-032 5.47144639288351e-032 1.0
outer loop
vertex 21.25 7.8349364905389 15.0
vertex 21.2940952255126 5.17037086855466 15.0
vertex 21.7677669529664 8.23223304703363 15.0
endloop
endfacet
facet normal -3.38370746276856e-032 5.47144639288351e-032 1.0
outer loop
vertex 21.7677669529664 8.23223304703363 15.0
vertex 21.2940952255126 5.17037086855466 15.0
vertex 22.5 5.66987298107781 15.0
endloop
endfacet
facet normal -3.38370746276856e-032 5.47144639288351e-032 1.0
outer loop
vertex 21.7677669529664 8.23223304703363 15.0
vertex 22.5 5.66987298107781 15.0
vertex 22.1650635094611 8.75 15.0
endloop
endfacet
facet normal -3.38370746276856e-032 5.47144639288351e-032 1.0
outer loop
vertex 22.1650635094611 8.75 15.0
vertex 22.5 5.66987298107781 15.0
vertex 22.2686169000544 9.0 15.0
endloop
endfacet
facet normal -3.38370746276856e-032 5.47144639288351e-032 1.0
outer loop
vertex 22.2686169000544 9.0 15.0
vertex 22.5 5.66987298107781 15.0
vertex 22.4148145657227 9.3529523872437 15.0
endloop
endfacet
facet normal -3.38370746276856e-032 5.47144639288351e-032 1.0
outer loop
vertex 22.4148145657227 9.3529523872437 15.0
vertex 22.5 5.66987298107781 15.0
vertex 22.5 10.0 15.0
endloop
endfacet
facet normal -3.38370746276856e-032 5.47144639288351e-032 1.0
outer loop
vertex 22.5 10.0 15.0
vertex 22.5 5.66987298107781 15.0
vertex 22.5 12.0 15.0
endloop
endfacet
facet normal -3.38370746276856e-032 5.47144639288351e-032 1.0
outer loop
vertex 22.5 12.0 15.0
vertex 22.5 5.66987298107781 15.0
vertex 24.8683475024126 9.0 15.0
endloop
endfacet
facet normal -3.38370746276856e-032 5.47144639288351e-032 1.0
outer loop
vertex 22.5 12.0 15.0
vertex 24.8683475024126 9.0 15.0
vertex 35.0 12.0 15.0
endloop
endfacet
facet normal -3.38370746276856e-032 5.47144639288351e-032 1.0
outer loop
vertex 24.8683475024126 9.0 15.0
vertex 22.5 5.66987298107781 15.0
vertex 23.5355339059327 6.46446609406726 15.0
endloop
endfacet
facet normal -3.38370746276856e-032 5.47144639288351e-032 1.0
outer loop
vertex 24.8683475024126 9.0 15.0
vertex 23.5355339059327 6.46446609406726 15.0
vertex 24.3301270189222 7.5 15.0
endloop
endfacet
facet normal -3.38370746276856e-032 5.47144639288351e-032 1.0
outer loop
vertex 24.8683475024126 9.0 15.0
vertex 24.3301270189222 7.5 15.0
vertex 24.8296291314453 8.7059047744874 15.0
endloop
endfacet
facet normal -3.38370746276856e-032 5.47144639288351e-032 1.0
outer loop
vertex 35.0 12.0 15.0
vertex 24.8683475024126 9.0 15.0
vertex 35.0 9.0 15.0
endloop
endfacet
facet normal -3.38370746276856e-032 5.47144639288351e-032 1.0
outer loop
vertex 15.1316524975874 9.00000000000001 15.0
vertex 5.0 12.0 15.0
vertex 5.0 9.00000000000001 15.0
endloop
endfacet
facet normal -3.38370746276856e-032 5.47144639288351e-032 1.0
outer loop
vertex 5.0 12.0 15.0
vertex 15.1316524975874 9.00000000000001 15.0
vertex 17.5 12.0 15.0
endloop
endfacet
facet normal -3.38370746276856e-032 5.47144639288351e-032 1.0
outer loop
vertex 17.5 12.0 15.0
vertex 15.1316524975874 9.00000000000001 15.0
vertex 15.1703708685547 8.7059047744874 15.0
endloop
endfacet
facet normal -3.38370746276856e-032 5.47144639288351e-032 1.0
outer loop
vertex 17.5 12.0 15.0
vertex 15.1703708685547 8.7059047744874 15.0
vertex 15.6698729810778 7.5 15.0
endloop
endfacet
facet normal -3.38370746276856e-032 5.47144639288351e-032 1.0
outer loop
vertex 17.5 12.0 15.0
vertex 15.6698729810778 7.5 15.0
vertex 16.4644660940673 6.46446609406726 15.0
endloop
endfacet
facet normal -3.38370746276856e-032 5.47144639288351e-032 1.0
outer loop
vertex 17.5 12.0 15.0
vertex 16.4644660940673 6.46446609406726 15.0
vertex 17.5 5.66987298107781 15.0
endloop
endfacet
facet normal -3.38370746276856e-032 5.47144639288351e-032 1.0
outer loop
vertex 17.5 12.0 15.0
vertex 17.5 5.66987298107781 15.0
vertex 17.5 10.0 15.0
endloop
endfacet
facet normal 1.6114094185988e-016 1.0 -0.0
outer loop
vertex 5.0 12.0 0.0
vertex 9.0 12.0 5.76794919243112
vertex 17.5 12.0 0.0
endloop
endfacet
facet normal 1.6114094185988e-016 1.0 -0.0
outer loop
vertex 9.0 12.0 5.76794919243112
vertex 5.0 12.0 0.0
vertex 8.58578643762691 12.0 6.08578643762691
endloop
endfacet
facet normal 1.6114094185988e-016 1.0 -0.0
outer loop
vertex 8.58578643762691 12.0 6.08578643762691
vertex 5.0 12.0 0.0
vertex 8.26794919243113 12.0 6.5
endloop
endfacet
facet normal 1.6114094185988e-016 1.0 -0.0
outer loop
vertex 8.26794919243113 12.0 6.5
vertex 5.0 12.0 0.0
vertex 8.06814834742186 12.0 6.98236190979496
endloop
endfacet
facet normal 1.6114094185988e-016 1.0 -0.0
outer loop
vertex 8.06814834742186 12.0 6.98236190979496
vertex 5.0 12.0 0.0
vertex 5.0 12.0 15.0
endloop
endfacet
facet normal 1.6114094185988e-016 1.0 -0.0
outer loop
vertex 17.5 12.0 0.0
vertex 9.0 12.0 5.76794919243112
vertex 9.48236190979496 12.0 5.56814834742186
endloop
endfacet
facet normal 1.6114094185988e-016 1.0 -0.0
outer loop
vertex 17.5 12.0 0.0
vertex 9.48236190979496 12.0 5.56814834742186
vertex 10.0 12.0 5.5
endloop
endfacet
facet normal 1.6114094185988e-016 1.0 -0.0
outer loop
vertex 8.06814834742186 12.0 6.98236190979496
vertex 5.0 12.0 15.0
vertex 8.0 12.0 7.5
endloop
endfacet
facet normal 1.6114094185988e-016 1.0 -0.0
outer loop
vertex 8.0 12.0 7.5
vertex 5.0 12.0 15.0
vertex 8.06814834742186 12.0 8.01763809020504
endloop
endfacet
facet normal 1.6114094185988e-016 1.0 -0.0
outer loop
vertex 8.06814834742186 12.0 8.01763809020504
vertex 5.0 12.0 15.0
vertex 8.26794919243112 12.0 8.5
endloop
endfacet
facet normal 1.6114094185988e-016 1.0 -0.0
outer loop
vertex 8.26794919243112 12.0 8.5
vertex 5.0 12.0 15.0
vertex 8.58578643762691 12.0 8.91421356237309
endloop
endfacet
facet normal 1.6114094185988e-016 1.0 -0.0
outer loop
vertex 8.58578643762691 12.0 8.91421356237309
vertex 5.0 12.0 15.0
vertex 9.0 12.0 9.23205080756888
endloop
endfacet
facet normal 1.6114094185988e-016 1.0 -0.0
outer loop
vertex 9.0 12.0 9.23205080756888
vertex 5.0 12.0 15.0
vertex 9.48236190979496 12.0 9.43185165257814
endloop
endfacet
facet normal 1.6114094185988e-016 1.0 -0.0
outer loop
vertex 9.48236190979496 12.0 9.43185165257814
vertex 5.0 12.0 15.0
vertex 10.0 12.0 9.5
endloop
endfacet
facet normal 1.6114094185988e-016 1.0 -0.0
outer loop
vertex 17.5 12.0 0.0
vertex 11.7320508075689 12.0 6.5
vertex 17.5 12.0 15.0
endloop
endfacet
facet normal 1.6114094185988e-016 1.0 -0.0
outer loop
vertex 11.7320508075689 12.0 6.5
vertex 17.5 12.0 0.0
vertex 11.4142135623731 12.0 6.08578643762691
endloop
endfacet
facet normal 1.6114094185988e-016 1.0 -0.0
outer loop
vertex 11.4142135623731 12.0 6.08578643762691
vertex 17.5 12.0 0.0
vertex 11.0 12.0 5.76794919243112
endloop
endfacet
facet normal 1.6114094185988e-016 1.0 -0.0
outer loop
vertex 11.0 12.0 5.76794919243112
vertex 17.5 12.0 0.0
vertex 10.517638090205 12.0 5.56814834742186
endloop
endfacet
facet normal 1.6114094185988e-016 1.0 -0.0
outer loop
vertex 10.517638090205 12.0 5.56814834742186
vertex 17.5 12.0 0.0
vertex 10.0 12.0 5.5
endloop
endfacet
facet normal 1.6114094185988e-016 1.0 -0.0
outer loop
vertex 17.5 12.0 15.0
vertex 11.7320508075689 12.0 6.5
vertex 11.9318516525781 12.0 6.98236190979496
endloop
endfacet
facet normal 1.6114094185988e-016 1.0 -0.0
outer loop
vertex 17.5 12.0 15.0
vertex 11.9318516525781 12.0 6.98236190979496
vertex 12.0 12.0 7.5
endloop
endfacet
facet normal 1.6114094185988e-016 1.0 -0.0
outer loop
vertex 17.5 12.0 15.0
vertex 12.0 12.0 7.5
vertex 11.9318516525781 12.0 8.01763809020504
endloop
endfacet
facet normal 1.6114094185988e-016 1.0 -0.0
outer loop
vertex 17.5 12.0 15.0
vertex 11.9318516525781 12.0 8.01763809020504
vertex 11.7320508075689 12.0 8.5
endloop
endfacet
facet normal 1.6114094185988e-016 1.0 -0.0
outer loop
vertex 17.5 12.0 15.0
vertex 11.7320508075689 12.0 8.5
vertex 11.4142135623731 12.0 8.91421356237309
endloop
endfacet
facet normal 1.6114094185988e-016 1.0 -0.0
outer loop
vertex 17.5 12.0 15.0
vertex 11.4142135623731 12.0 8.91421356237309
vertex 11.0 12.0 9.23205080756888
endloop
endfacet
facet normal 1.6114094185988e-016 1.0 -0.0
outer loop
vertex 17.5 12.0 15.0
vertex 11.0 12.0 9.23205080756888
vertex 10.517638090205 12.0 9.43185165257814
endloop
endfacet
facet normal 1.6114094185988e-016 1.0 -0.0
outer loop
vertex 17.5 12.0 15.0
vertex 10.517638090205 12.0 9.43185165257814
vertex 10.0 12.0 9.5
endloop
endfacet
facet normal 1.6114094185988e-016 1.0 -0.0
outer loop
vertex 17.5 12.0 15.0
vertex 10.0 12.0 9.5
vertex 5.0 12.0 15.0
endloop
endfacet
facet normal 1.0 0.0 0.0
outer loop
vertex 17.5 12.0 0.0
vertex 17.5 10.0 15.0
vertex 17.5 10.0 0.0
endloop
endfacet
facet normal 1.0 0.0 0.0
outer loop
vertex 17.5 10.0 15.0
vertex 17.5 12.0 0.0
vertex 17.5 12.0 15.0
endloop
endfacet
facet normal 0.99144486137381 0.130526192220051 0.0
outer loop
vertex 17.5 10.0 0.0
vertex 17.5851854342773 9.3529523872437 15.0
vertex 17.5851854342773 9.3529523872437 0.0
endloop
endfacet
facet normal 0.99144486137381 0.130526192220051 0.0
outer loop
vertex 17.5851854342773 9.3529523872437 15.0
vertex 17.5 10.0 0.0
vertex 17.5 10.0 15.0
endloop
endfacet
facet normal 0.923879532511288 0.382683432365086 0.0
outer loop
vertex 17.5851854342773 9.3529523872437 0.0
vertex 17.7313830999456 9.00000000000001 15.0
vertex 17.7313830999456 9.00000000000001 0.0
endloop
endfacet
facet normal 0.923879532511288 0.382683432365086 0.0
outer loop
vertex 17.7313830999456 9.00000000000001 15.0
vertex 17.5851854342773 9.3529523872437 0.0
vertex 17.5851854342773 9.3529523872437 15.0
endloop
endfacet
facet normal 0.923879532511284 0.382683432365096 0.0
outer loop
vertex 17.7313830999456 9.00000000000001 0.0
vertex 17.8349364905389 8.75 15.0
vertex 17.8349364905389 8.75 0.0
endloop
endfacet
facet normal 0.923879532511284 0.382683432365096 0.0
outer loop
vertex 17.8349364905389 8.75 15.0
vertex 17.7313830999456 9.00000000000001 0.0
vertex 17.7313830999456 9.00000000000001 15.0
endloop
endfacet
facet normal 0.793353340291235 0.608761429008721 0.0
outer loop
vertex 17.8349364905389 8.75 0.0
vertex 18.2322330470336 8.23223304703363 15.0
vertex 18.2322330470336 8.23223304703363 0.0
endloop
endfacet
facet normal 0.793353340291235 0.608761429008721 0.0
outer loop
vertex 18.2322330470336 8.23223304703363 15.0
vertex 17.8349364905389 8.75 0.0
vertex 17.8349364905389 8.75 15.0
endloop
endfacet
facet normal 0.608761429008722 0.793353340291234 0.0
outer loop
vertex 18.2322330470336 8.23223304703363 15.0
vertex 18.75 7.8349364905389 0.0
vertex 18.2322330470336 8.23223304703363 0.0
endloop
endfacet
facet normal 0.608761429008722 0.793353340291234 0.0
outer loop
vertex 18.75 7.8349364905389 0.0
vertex 18.2322330470336 8.23223304703363 15.0
vertex 18.75 7.8349364905389 15.0
endloop
endfacet
facet normal 0.382683432365089 0.923879532511287 0.0
outer loop
vertex 18.75 7.8349364905389 15.0
vertex 19.3529523872437 7.58518543427733 0.0
vertex 18.75 7.8349364905389 0.0
endloop
endfacet
facet normal 0.382683432365089 0.923879532511287 0.0
outer loop
vertex 19.3529523872437 7.58518543427733 0.0
vertex 18.75 7.8349364905389 15.0
vertex 19.3529523872437 7.58518543427733 15.0
endloop
endfacet
facet normal 0.130526192220052 0.99144486137381 0.0
outer loop
vertex 19.3529523872437 7.58518543427733 15.0
vertex 20.0 7.5 0.0
vertex 19.3529523872437 7.58518543427733 0.0
endloop
endfacet
facet normal 0.130526192220052 0.99144486137381 0.0
outer loop
vertex 20.0 7.5 0.0
vertex 19.3529523872437 7.58518543427733 15.0
vertex 20.0 7.5 15.0
endloop
endfacet
facet normal -0.130526192220052 0.99144486137381 -0.0
outer loop
vertex 20.0 7.5 15.0
vertex 20.6470476127563 7.58518543427733 0.0
vertex 20.0 7.5 0.0
endloop
endfacet
facet normal -0.130526192220052 0.99144486137381 -0.0
outer loop
vertex 20.6470476127563 7.58518543427733 0.0
vertex 20.0 7.5 15.0
vertex 20.6470476127563 7.58518543427733 15.0
endloop
endfacet
facet normal -0.382683432365091 0.923879532511286 -0.0
outer loop
vertex 20.6470476127563 7.58518543427733 15.0
vertex 21.25 7.8349364905389 0.0
vertex 20.6470476127563 7.58518543427733 0.0
endloop
endfacet
facet normal -0.382683432365091 0.923879532511286 -0.0
outer loop
vertex 21.25 7.8349364905389 0.0
vertex 20.6470476127563 7.58518543427733 15.0
vertex 21.25 7.8349364905389 15.0
endloop
endfacet
facet normal -0.608761429008722 0.793353340291234 -0.0
outer loop
vertex 21.25 7.8349364905389 15.0
vertex 21.7677669529664 8.23223304703363 0.0
vertex 21.25 7.8349364905389 0.0
endloop
endfacet
facet normal -0.608761429008722 0.793353340291234 -0.0
outer loop
vertex 21.7677669529664 8.23223304703363 0.0
vertex 21.25 7.8349364905389 15.0
vertex 21.7677669529664 8.23223304703363 15.0
endloop
endfacet
facet normal -0.793353340291233 0.608761429008723 -0.0
outer loop
vertex 22.1650635094611 8.75 15.0
vertex 21.7677669529664 8.23223304703363 0.0
vertex 21.7677669529664 8.23223304703363 15.0
endloop
endfacet
facet normal -0.793353340291233 0.608761429008723 -0.0
outer loop
vertex 21.7677669529664 8.23223304703363 0.0
vertex 22.1650635094611 8.75 15.0
vertex 22.1650635094611 8.75 0.0
endloop
endfacet
facet normal -0.923879532511286 0.382683432365091 -0.0
outer loop
vertex 22.2686169000544 9.0 15.0
vertex 22.1650635094611 8.75 0.0
vertex 22.1650635094611 8.75 15.0
endloop
endfacet
facet normal -0.923879532511286 0.382683432365091 -0.0
outer loop
vertex 22.1650635094611 8.75 0.0
vertex 22.2686169000544 9.0 15.0
vertex 22.2686169000544 9.0 0.0
endloop
endfacet
facet normal -0.923879532511287 0.382683432365088 -0.0
outer loop
vertex 22.4148145657227 9.3529523872437 15.0
vertex 22.2686169000544 9.0 0.0
vertex 22.2686169000544 9.0 15.0
endloop
endfacet
facet normal -0.923879532511287 0.382683432365088 -0.0
outer loop
vertex 22.2686169000544 9.0 0.0
vertex 22.4148145657227 9.3529523872437 15.0
vertex 22.4148145657227 9.3529523872437 0.0
endloop
endfacet
facet normal -0.991444861373811 0.130526192220048 -0.0
outer loop
vertex 22.5 10.0 15.0
vertex 22.4148145657227 9.3529523872437 0.0
vertex 22.4148145657227 9.3529523872437 15.0
endloop
endfacet
facet normal -0.991444861373811 0.130526192220048 -0.0
outer loop
vertex 22.4148145657227 9.3529523872437 0.0
vertex 22.5 10.0 15.0
vertex 22.5 10.0 0.0
endloop
endfacet
facet normal -1.0 0.0 -0.0
outer loop
vertex 22.5 12.0 15.0
vertex 22.5 10.0 0.0
vertex 22.5 10.0 15.0
endloop
endfacet
facet normal -1.0 0.0 -0.0
outer loop
vertex 22.5 10.0 0.0
vertex 22.5 12.0 15.0
vertex 22.5 12.0 0.0
endloop
endfacet
facet normal -8.05704709299399e-017 1.0 -0.0
outer loop
vertex 22.5 12.0 0.0
vertex 28.5857864376269 12.0 6.08578643762691
vertex 35.0 12.0 0.0
endloop
endfacet
facet normal -8.05704709299399e-017 1.0 -0.0
outer loop
vertex 28.5857864376269 12.0 6.08578643762691
vertex 22.5 12.0 0.0
vertex 28.2679491924311 12.0 6.5
endloop
endfacet
facet normal -8.05704709299399e-017 1.0 -0.0
outer loop
vertex 28.2679491924311 12.0 6.5
vertex 22.5 12.0 0.0
vertex 22.5 12.0 15.0
endloop
endfacet
facet normal -8.05704709299399e-017 1.0 -0.0
outer loop
vertex 35.0 12.0 0.0
vertex 28.5857864376269 12.0 6.08578643762691
vertex 29.0 12.0 5.76794919243112
endloop
endfacet
facet normal -8.05704709299399e-017 1.0 -0.0
outer loop
vertex 35.0 12.0 0.0
vertex 29.0 12.0 5.76794919243112
vertex 29.482361909795 12.0 5.56814834742186
endloop
endfacet
facet normal -8.05704709299399e-017 1.0 -0.0
outer loop
vertex 35.0 12.0 0.0
vertex 29.482361909795 12.0 5.56814834742186
vertex 30.0 12.0 5.5
endloop
endfacet
facet normal -8.05704709299399e-017 1.0 -0.0
outer loop
vertex 28.2679491924311 12.0 6.5
vertex 22.5 12.0 15.0
vertex 28.0681483474219 12.0 6.98236190979496
endloop
endfacet
facet normal -8.05704709299399e-017 1.0 -0.0
outer loop
vertex 28.0681483474219 12.0 6.98236190979496
vertex 22.5 12.0 15.0
vertex 28.0 12.0 7.5
endloop
endfacet
facet normal -8.05704709299399e-017 1.0 -0.0
outer loop
vertex 28.0 12.0 7.5
vertex 22.5 12.0 15.0
vertex 28.0681483474219 12.0 8.01763809020504
endloop
endfacet
facet normal -8.05704709299399e-017 1.0 -0.0
outer loop
vertex 28.0681483474219 12.0 8.01763809020504
vertex 22.5 12.0 15.0
vertex 28.2679491924311 12.0 8.5
endloop
endfacet
facet normal -8.05704709299399e-017 1.0 -0.0
outer loop
vertex 28.2679491924311 12.0 8.5
vertex 22.5 12.0 15.0
vertex 28.5857864376269 12.0 8.91421356237309
endloop
endfacet
facet normal -8.05704709299399e-017 1.0 -0.0
outer loop
vertex 28.5857864376269 12.0 8.91421356237309
vertex 22.5 12.0 15.0
vertex 29.0 12.0 9.23205080756888
endloop
endfacet
facet normal -8.05704709299399e-017 1.0 -0.0
outer loop
vertex 29.0 12.0 9.23205080756888
vertex 22.5 12.0 15.0
vertex 29.482361909795 12.0 9.43185165257814
endloop
endfacet
facet normal -8.05704709299399e-017 1.0 -0.0
outer loop
vertex 29.482361909795 12.0 9.43185165257814
vertex 22.5 12.0 15.0
vertex 30.0 12.0 9.5
endloop
endfacet
facet normal -8.05704709299399e-017 1.0 -0.0
outer loop
vertex 35.0 12.0 0.0
vertex 31.9318516525781 12.0 6.98236190979496
vertex 35.0 12.0 15.0
endloop
endfacet
facet normal -8.05704709299399e-017 1.0 -0.0
outer loop
vertex 31.9318516525781 12.0 6.98236190979496
vertex 35.0 12.0 0.0
vertex 31.7320508075689 12.0 6.5
endloop
endfacet
facet normal -8.05704709299399e-017 1.0 -0.0
outer loop
vertex 31.7320508075689 12.0 6.5
vertex 35.0 12.0 0.0
vertex 31.4142135623731 12.0 6.08578643762691
endloop
endfacet
facet normal -8.05704709299399e-017 1.0 -0.0
outer loop
vertex 31.4142135623731 12.0 6.08578643762691
vertex 35.0 12.0 0.0
vertex 31.0 12.0 5.76794919243112
endloop
endfacet
facet normal -8.05704709299399e-017 1.0 -0.0
outer loop
vertex 31.0 12.0 5.76794919243112
vertex 35.0 12.0 0.0
vertex 30.517638090205 12.0 5.56814834742186
endloop
endfacet
facet normal -8.05704709299399e-017 1.0 -0.0
outer loop
vertex 30.517638090205 12.0 5.56814834742186
vertex 35.0 12.0 0.0
vertex 30.0 12.0 5.5
endloop
endfacet
facet normal -8.05704709299399e-017 1.0 -0.0
outer loop
vertex 35.0 12.0 15.0
vertex 31.9318516525781 12.0 6.98236190979496
vertex 32.0 12.0 7.5
endloop
endfacet
facet normal -8.05704709299399e-017 1.0 -0.0
outer loop
vertex 35.0 12.0 15.0
vertex 32.0 12.0 7.5
vertex 31.9318516525781 12.0 8.01763809020504
endloop
endfacet
facet normal -8.05704709299399e-017 1.0 -0.0
outer loop
vertex 35.0 12.0 15.0
vertex 31.9318516525781 12.0 8.01763809020504
vertex 31.7320508075689 12.0 8.5
endloop
endfacet
facet normal -8.05704709299399e-017 1.0 -0.0
outer loop
vertex 35.0 12.0 15.0
vertex 31.7320508075689 12.0 8.5
vertex 31.4142135623731 12.0 8.91421356237309
endloop
endfacet
facet normal -8.05704709299399e-017 1.0 -0.0
outer loop
vertex 35.0 12.0 15.0
vertex 31.4142135623731 12.0 8.91421356237309
vertex 31.0 12.0 9.23205080756888
endloop
endfacet
facet normal -8.05704709299399e-017 1.0 -0.0
outer loop
vertex 35.0 12.0 15.0
vertex 31.0 12.0 9.23205080756888
vertex 30.517638090205 12.0 9.43185165257814
endloop
endfacet
facet normal -8.05704709299399e-017 1.0 -0.0
outer loop
vertex 35.0 12.0 15.0
vertex 30.517638090205 12.0 9.43185165257814
vertex 30.0 12.0 9.5
endloop
endfacet
facet normal -8.05704709299399e-017 1.0 -0.0
outer loop
vertex 35.0 12.0 15.0
vertex 30.0 12.0 9.5
vertex 22.5 12.0 15.0
endloop
endfacet
facet normal 0.0 -1.0 0.0
outer loop
vertex 35.0 9.0 0.0
vertex 31.4142135623731 9.0 6.08578643762691
vertex 24.8683475024126 9.0 0.0
endloop
endfacet
facet normal 0.0 -1.0 0.0
outer loop
vertex 31.4142135623731 9.0 6.08578643762691
vertex 35.0 9.0 0.0
vertex 31.7320508075689 9.0 6.5
endloop
endfacet
facet normal 0.0 -1.0 0.0
outer loop
vertex 31.7320508075689 9.0 6.5
vertex 35.0 9.0 0.0
vertex 31.9318516525781 9.0 6.98236190979496
endloop
endfacet
facet normal 0.0 -1.0 0.0
outer loop
vertex 31.9318516525781 9.0 6.98236190979496
vertex 35.0 9.0 0.0
vertex 35.0 9.0 15.0
endloop
endfacet
facet normal 0.0 -1.0 0.0
outer loop
vertex 24.8683475024126 9.0 0.0
vertex 31.4142135623731 9.0 6.08578643762691
vertex 31.0 9.0 5.76794919243112
endloop
endfacet
facet normal 0.0 -1.0 0.0
outer loop
vertex 24.8683475024126 9.0 0.0
vertex 31.0 9.0 5.76794919243112
vertex 30.517638090205 9.0 5.56814834742186
endloop
endfacet
facet normal 0.0 -1.0 0.0
outer loop
vertex 24.8683475024126 9.0 0.0
vertex 30.517638090205 9.0 5.56814834742186
vertex 30.0 9.0 5.5
endloop
endfacet
facet normal 0.0 -1.0 0.0
outer loop
vertex 31.9318516525781 9.0 6.98236190979496
vertex 35.0 9.0 15.0
vertex 32.0 9.0 7.5
endloop
endfacet
facet normal 0.0 -1.0 0.0
outer loop
vertex 32.0 9.0 7.5
vertex 35.0 9.0 15.0
vertex 31.9318516525781 9.0 8.01763809020504
endloop
endfacet
facet normal 0.0 -1.0 0.0
outer loop
vertex 31.9318516525781 9.0 8.01763809020504
vertex 35.0 9.0 15.0
vertex 31.7320508075689 9.0 8.5
endloop
endfacet
facet normal 0.0 -1.0 0.0
outer loop
vertex 31.7320508075689 9.0 8.5
vertex 35.0 9.0 15.0
vertex 31.4142135623731 9.0 8.91421356237309
endloop
endfacet
facet normal 0.0 -1.0 0.0
outer loop
vertex 31.4142135623731 9.0 8.91421356237309
vertex 35.0 9.0 15.0
vertex 31.0 9.0 9.23205080756888
endloop
endfacet
facet normal 0.0 -1.0 0.0
outer loop
vertex 31.0 9.0 9.23205080756888
vertex 35.0 9.0 15.0
vertex 30.517638090205 9.0 9.43185165257814
endloop
endfacet
facet normal 0.0 -1.0 0.0
outer loop
vertex 30.517638090205 9.0 9.43185165257814
vertex 35.0 9.0 15.0
vertex 30.0 9.0 9.5
endloop
endfacet
facet normal 0.0 -1.0 0.0
outer loop
vertex 24.8683475024126 9.0 0.0
vertex 28.0681483474219 9.0 6.98236190979496
vertex 24.8683475024126 9.0 15.0
endloop
endfacet
facet normal 0.0 -1.0 0.0
outer loop
vertex 28.0681483474219 9.0 6.98236190979496
vertex 24.8683475024126 9.0 0.0
vertex 28.2679491924311 9.0 6.5
endloop
endfacet
facet normal 0.0 -1.0 0.0
outer loop
vertex 28.2679491924311 9.0 6.5
vertex 24.8683475024126 9.0 0.0
vertex 28.5857864376269 9.0 6.08578643762691
endloop
endfacet
facet normal 0.0 -1.0 0.0
outer loop
vertex 28.5857864376269 9.0 6.08578643762691
vertex 24.8683475024126 9.0 0.0
vertex 29.0 9.0 5.76794919243112
endloop
endfacet
facet normal 0.0 -1.0 0.0
outer loop
vertex 29.0 9.0 5.76794919243112
vertex 24.8683475024126 9.0 0.0
vertex 29.482361909795 9.0 5.56814834742186
endloop
endfacet
facet normal 0.0 -1.0 0.0
outer loop
vertex 29.482361909795 9.0 5.56814834742186
vertex 24.8683475024126 9.0 0.0
vertex 30.0 9.0 5.5
endloop
endfacet
facet normal 0.0 -1.0 0.0
outer loop
vertex 24.8683475024126 9.0 15.0
vertex 28.0681483474219 9.0 6.98236190979496
vertex 28.0 9.0 7.5
endloop
endfacet
facet normal 0.0 -1.0 0.0
outer loop
vertex 24.8683475024126 9.0 15.0
vertex 28.0 9.0 7.5
vertex 28.0681483474219 9.0 8.01763809020504
endloop
endfacet
facet normal 0.0 -1.0 0.0
outer loop
vertex 24.8683475024126 9.0 15.0
vertex 28.0681483474219 9.0 8.01763809020504
vertex 28.2679491924311 9.0 8.5
endloop
endfacet
facet normal 0.0 -1.0 0.0
outer loop
vertex 24.8683475024126 9.0 15.0
vertex 28.2679491924311 9.0 8.5
vertex 28.5857864376269 9.0 8.91421356237309
endloop
endfacet
facet normal 0.0 -1.0 0.0
outer loop
vertex 24.8683475024126 9.0 15.0
vertex 28.5857864376269 9.0 8.91421356237309
vertex 29.0 9.0 9.23205080756888
endloop
endfacet
facet normal 0.0 -1.0 0.0
outer loop
vertex 24.8683475024126 9.0 15.0
vertex 29.0 9.0 9.23205080756888
vertex 29.482361909795 9.0 9.43185165257814
endloop
endfacet
facet normal 0.0 -1.0 0.0
outer loop
vertex 24.8683475024126 9.0 15.0
vertex 29.482361909795 9.0 9.43185165257814
vertex 30.0 9.0 9.5
endloop
endfacet
facet normal 0.0 -1.0 0.0
outer loop
vertex 24.8683475024126 9.0 15.0
vertex 30.0 9.0 9.5
vertex 35.0 9.0 15.0
endloop
endfacet
facet normal 0.991444861373811 -0.130526192220049 -0.0
outer loop
vertex 24.8683475024126 9.0 0.0
vertex 24.8296291314453 8.7059047744874 15.0
vertex 24.8296291314453 8.7059047744874 0.0
endloop
endfacet
facet normal 0.991444861373811 -0.130526192220049 -0.0
outer loop
vertex 24.8296291314453 8.7059047744874 15.0
vertex 24.8683475024126 9.0 0.0
vertex 24.8683475024126 9.0 15.0
endloop
endfacet
facet normal 0.923879532511288 -0.382683432365088 -0.0
outer loop
vertex 24.8296291314453 8.7059047744874 0.0
vertex 24.3301270189222 7.5 15.0
vertex 24.3301270189222 7.5 0.0
endloop
endfacet
facet normal 0.923879532511288 -0.382683432365088 -0.0
outer loop
vertex 24.3301270189222 7.5 15.0
vertex 24.8296291314453 8.7059047744874 0.0
vertex 24.8296291314453 8.7059047744874 15.0
endloop
endfacet
facet normal 0.793353340291235 -0.608761429008721 -0.0
outer loop
vertex 24.3301270189222 7.5 0.0
vertex 23.5355339059327 6.46446609406726 15.0
vertex 23.5355339059327 6.46446609406726 0.0
endloop
endfacet
facet normal 0.793353340291235 -0.608761429008721 -0.0
outer loop
vertex 23.5355339059327 6.46446609406726 15.0
vertex 24.3301270189222 7.5 0.0
vertex 24.3301270189222 7.5 15.0
endloop
endfacet
facet normal 0.608761429008721 -0.793353340291235 -0.0
outer loop
vertex 23.5355339059327 6.46446609406726 15.0
vertex 22.5 5.66987298107781 0.0
vertex 23.5355339059327 6.46446609406726 0.0
endloop
endfacet
facet normal 0.608761429008721 -0.793353340291235 -0.0
outer loop
vertex 22.5 5.66987298107781 0.0
vertex 23.5355339059327 6.46446609406726 15.0
vertex 22.5 5.66987298107781 15.0
endloop
endfacet
facet normal 0.382683432365091 -0.923879532511286 -0.0
outer loop
vertex 22.5 5.66987298107781 15.0
vertex 21.2940952255126 5.17037086855466 0.0
vertex 22.5 5.66987298107781 0.0
endloop
endfacet
facet normal 0.382683432365091 -0.923879532511286 -0.0
outer loop
vertex 21.2940952255126 5.17037086855466 0.0
vertex 22.5 5.66987298107781 15.0
vertex 21.2940952255126 5.17037086855466 15.0
endloop
endfacet
facet normal 0.130526192220052 -0.99144486137381 -0.0
outer loop
vertex 21.2940952255126 5.17037086855466 15.0
vertex 20.0 5.0 0.0
vertex 21.2940952255126 5.17037086855466 0.0
endloop
endfacet
facet normal 0.130526192220052 -0.99144486137381 -0.0
outer loop
vertex 20.0 5.0 0.0
vertex 21.2940952255126 5.17037086855466 15.0
vertex 20.0 5.0 15.0
endloop
endfacet
facet normal -0.130526192220052 -0.99144486137381 -0.0
outer loop
vertex 20.0 5.0 15.0
vertex 18.7059047744874 5.17037086855466 0.0
vertex 20.0 5.0 0.0
endloop
endfacet
facet normal -0.130526192220052 -0.99144486137381 -0.0
outer loop
vertex 18.7059047744874 5.17037086855466 0.0
vertex 20.0 5.0 15.0
vertex 18.7059047744874 5.17037086855466 15.0
endloop
endfacet
facet normal -0.382683432365089 -0.923879532511287 -0.0
outer loop
vertex 18.7059047744874 5.17037086855466 15.0
vertex 17.5 5.66987298107781 0.0
vertex 18.7059047744874 5.17037086855466 0.0
endloop
endfacet
facet normal -0.382683432365089 -0.923879532511287 -0.0
outer loop
vertex 17.5 5.66987298107781 0.0
vertex 18.7059047744874 5.17037086855466 15.0
vertex 17.5 5.66987298107781 15.0
endloop
endfacet
facet normal -0.60876142900872 -0.793353340291236 -0.0
outer loop
vertex 17.5 5.66987298107781 15.0
vertex 16.4644660940673 6.46446609406726 0.0
vertex 17.5 5.66987298107781 0.0
endloop
endfacet
facet normal -0.60876142900872 -0.793353340291236 -0.0
outer loop
vertex 16.4644660940673 6.46446609406726 0.0
vertex 17.5 5.66987298107781 15.0
vertex 16.4644660940673 6.46446609406726 15.0
endloop
endfacet
facet normal -0.793353340291235 -0.608761429008721 -0.0
outer loop
vertex 15.6698729810778 7.5 15.0
vertex 16.4644660940673 6.46446609406726 0.0
vertex 16.4644660940673 6.46446609406726 15.0
endloop
endfacet
facet normal -0.793353340291235 -0.608761429008721 -0.0
outer loop
vertex 16.4644660940673 6.46446609406726 0.0
vertex 15.6698729810778 7.5 15.0
vertex 15.6698729810778 7.5 0.0
endloop
endfacet
facet normal -0.923879532511287 -0.382683432365089 -0.0
outer loop
vertex 15.1703708685547 8.7059047744874 15.0
vertex 15.6698729810778 7.5 0.0
vertex 15.6698729810778 7.5 15.0
endloop
endfacet
facet normal -0.923879532511287 -0.382683432365089 -0.0
outer loop
vertex 15.6698729810778 7.5 0.0
vertex 15.1703708685547 8.7059047744874 15.0
vertex 15.1703708685547 8.7059047744874 0.0
endloop
endfacet
facet normal -0.991444861373811 -0.130526192220047 -0.0
outer loop
vertex 15.1316524975874 9.00000000000001 15.0
vertex 15.1703708685547 8.7059047744874 0.0
vertex 15.1703708685547 8.7059047744874 15.0
endloop
endfacet
facet normal -0.991444861373811 -0.130526192220047 -0.0
outer loop
vertex 15.1703708685547 8.7059047744874 0.0
vertex 15.1316524975874 9.00000000000001 15.0
vertex 15.1316524975874 9.00000000000001 0.0
endloop
endfacet
facet normal 0.0 -1.0 0.0
outer loop
vertex 15.1316524975874 9.00000000000001 0.0
vertex 11.4142135623731 9.00000000000001 6.08578643762691
vertex 5.0 9.00000000000001 0.0
endloop
endfacet
facet normal 0.0 -1.0 0.0
outer loop
vertex 11.4142135623731 9.00000000000001 6.08578643762691
vertex 15.1316524975874 9.00000000000001 0.0
vertex 11.7320508075689 9.00000000000001 6.5
endloop
endfacet
facet normal 0.0 -1.0 0.0
outer loop
vertex 11.7320508075689 9.00000000000001 6.5
vertex 15.1316524975874 9.00000000000001 0.0
vertex 11.9318516525781 9.00000000000001 6.98236190979496
endloop
endfacet
facet normal 0.0 -1.0 0.0
outer loop
vertex 11.9318516525781 9.00000000000001 6.98236190979496
vertex 15.1316524975874 9.00000000000001 0.0
vertex 15.1316524975874 9.00000000000001 15.0
endloop
endfacet
facet normal 0.0 -1.0 0.0
outer loop
vertex 5.0 9.00000000000001 0.0
vertex 11.4142135623731 9.00000000000001 6.08578643762691
vertex 11.0 9.00000000000001 5.76794919243112
endloop
endfacet
facet normal 0.0 -1.0 0.0
outer loop
vertex 5.0 9.00000000000001 0.0
vertex 11.0 9.00000000000001 5.76794919243112
vertex 10.517638090205 9.00000000000001 5.56814834742186
endloop
endfacet
facet normal 0.0 -1.0 0.0
outer loop
vertex 5.0 9.00000000000001 0.0
vertex 10.517638090205 9.00000000000001 5.56814834742186
vertex 10.0 9.00000000000001 5.5
endloop
endfacet
facet normal 0.0 -1.0 0.0
outer loop
vertex 11.9318516525781 9.00000000000001 6.98236190979496
vertex 15.1316524975874 9.00000000000001 15.0
vertex 12.0 9.00000000000001 7.5
endloop
endfacet
facet normal 0.0 -1.0 0.0
outer loop
vertex 12.0 9.00000000000001 7.5
vertex 15.1316524975874 9.00000000000001 15.0
vertex 11.9318516525781 9.00000000000001 8.01763809020504
endloop
endfacet
facet normal 0.0 -1.0 0.0
outer loop
vertex 11.9318516525781 9.00000000000001 8.01763809020504
vertex 15.1316524975874 9.00000000000001 15.0
vertex 11.7320508075689 9.00000000000001 8.5
endloop
endfacet
facet normal 0.0 -1.0 0.0
outer loop
vertex 11.7320508075689 9.00000000000001 8.5
vertex 15.1316524975874 9.00000000000001 15.0
vertex 11.4142135623731 9.00000000000001 8.91421356237309
endloop
endfacet
facet normal 0.0 -1.0 0.0
outer loop
vertex 11.4142135623731 9.00000000000001 8.91421356237309
vertex 15.1316524975874 9.00000000000001 15.0
vertex 11.0 9.00000000000001 9.23205080756888
endloop
endfacet
facet normal 0.0 -1.0 0.0
outer loop
vertex 11.0 9.00000000000001 9.23205080756888
vertex 15.1316524975874 9.00000000000001 15.0
vertex 10.517638090205 9.00000000000001 9.43185165257814
endloop
endfacet
facet normal 0.0 -1.0 0.0
outer loop
vertex 10.517638090205 9.00000000000001 9.43185165257814
vertex 15.1316524975874 9.00000000000001 15.0
vertex 10.0 9.00000000000001 9.5
endloop
endfacet
facet normal 0.0 -1.0 0.0
outer loop
vertex 5.0 9.00000000000001 0.0
vertex 8.06814834742186 9.00000000000001 6.98236190979496
vertex 5.0 9.00000000000001 15.0
endloop
endfacet
facet normal 0.0 -1.0 0.0
outer loop
vertex 8.06814834742186 9.00000000000001 6.98236190979496
vertex 5.0 9.00000000000001 0.0
vertex 8.26794919243113 9.00000000000001 6.5
endloop
endfacet
facet normal 0.0 -1.0 0.0
outer loop
vertex 8.26794919243113 9.00000000000001 6.5
vertex 5.0 9.00000000000001 0.0
vertex 8.58578643762691 9.00000000000001 6.08578643762691
endloop
endfacet
facet normal 0.0 -1.0 0.0
outer loop
vertex 8.58578643762691 9.00000000000001 6.08578643762691
vertex 5.0 9.00000000000001 0.0
vertex 9.0 9.00000000000001 5.76794919243112
endloop
endfacet
facet normal 0.0 -1.0 0.0
outer loop
vertex 9.0 9.00000000000001 5.76794919243112
vertex 5.0 9.00000000000001 0.0
vertex 9.48236190979496 9.00000000000001 5.56814834742186
endloop
endfacet
facet normal 0.0 -1.0 0.0
outer loop
vertex 9.48236190979496 9.00000000000001 5.56814834742186
vertex 5.0 9.00000000000001 0.0
vertex 10.0 9.00000000000001 5.5
endloop
endfacet
facet normal 0.0 -1.0 0.0
outer loop
vertex 5.0 9.00000000000001 15.0
vertex 8.06814834742186 9.00000000000001 6.98236190979496
vertex 8.0 9.00000000000001 7.5
endloop
endfacet
facet normal 0.0 -1.0 0.0
outer loop
vertex 5.0 9.00000000000001 15.0
vertex 8.0 9.00000000000001 7.5
vertex 8.06814834742186 9.00000000000001 8.01763809020504
endloop
endfacet
facet normal 0.0 -1.0 0.0
outer loop
vertex 5.0 9.00000000000001 15.0
vertex 8.06814834742186 9.00000000000001 8.01763809020504
vertex 8.26794919243112 9.00000000000001 8.5
endloop
endfacet
facet normal 0.0 -1.0 0.0
outer loop
vertex 5.0 9.00000000000001 15.0
vertex 8.26794919243112 9.00000000000001 8.5
vertex 8.58578643762691 9.00000000000001 8.91421356237309
endloop
endfacet
facet normal 0.0 -1.0 0.0
outer loop
vertex 5.0 9.00000000000001 15.0
vertex 8.58578643762691 9.00000000000001 8.91421356237309
vertex 9.0 9.00000000000001 9.23205080756888
endloop
endfacet
facet normal 0.0 -1.0 0.0
outer loop
vertex 5.0 9.00000000000001 15.0
vertex 9.0 9.00000000000001 9.23205080756888
vertex 9.48236190979496 9.00000000000001 9.43185165257814
endloop
endfacet
facet normal 0.0 -1.0 0.0
outer loop
vertex 5.0 9.00000000000001 15.0
vertex 9.48236190979496 9.00000000000001 9.43185165257814
vertex 10.0 9.00000000000001 9.5
endloop
endfacet
facet normal 0.0 -1.0 0.0
outer loop
vertex 5.0 9.00000000000001 15.0
vertex 10.0 9.00000000000001 9.5
vertex 15.1316524975874 9.00000000000001 15.0
endloop
endfacet
facet normal 0.130526192220051 -0.0 -0.99144486137381
outer loop
vertex 10.0 12.0 9.5
vertex 9.48236190979496 9.00000000000001 9.43185165257814
vertex 9.48236190979496 12.0 9.43185165257814
endloop
endfacet
facet normal 0.130526192220051 -0.0 -0.99144486137381
outer loop
vertex 9.48236190979496 9.00000000000001 9.43185165257814
vertex 10.0 12.0 9.5
vertex 10.0 9.00000000000001 9.5
endloop
endfacet
facet normal 0.382683432365091 -0.0 -0.923879532511286
outer loop
vertex 9.48236190979496 12.0 9.43185165257814
vertex 9.0 9.00000000000001 9.23205080756888
vertex 9.0 12.0 9.23205080756888
endloop
endfacet
facet normal 0.382683432365091 -0.0 -0.923879532511286
outer loop
vertex 9.0 9.00000000000001 9.23205080756888
vertex 9.48236190979496 12.0 9.43185165257814
vertex 9.48236190979496 9.00000000000001 9.43185165257814
endloop
endfacet
facet normal 0.608761429008721 -0.0 -0.793353340291235
outer loop
vertex 9.0 12.0 9.23205080756888
vertex 8.58578643762691 9.00000000000001 8.91421356237309
vertex 8.58578643762691 12.0 8.91421356237309
endloop
endfacet
facet normal 0.608761429008721 -0.0 -0.793353340291235
outer loop
vertex 8.58578643762691 9.00000000000001 8.91421356237309
vertex 9.0 12.0 9.23205080756888
vertex 9.0 9.00000000000001 9.23205080756888
endloop
endfacet
facet normal 0.793353340291236 -0.0 -0.60876142900872
outer loop
vertex 8.26794919243112 12.0 8.5
vertex 8.58578643762691 9.00000000000001 8.91421356237309
vertex 8.26794919243112 9.00000000000001 8.5
endloop
endfacet
facet normal 0.793353340291236 -0.0 -0.60876142900872
outer loop
vertex 8.58578643762691 9.00000000000001 8.91421356237309
vertex 8.26794919243112 12.0 8.5
vertex 8.58578643762691 12.0 8.91421356237309
endloop
endfacet
facet normal 0.923879532511287 -0.0 -0.382683432365089
outer loop
vertex 8.06814834742186 12.0 8.01763809020504
vertex 8.26794919243112 9.00000000000001 8.5
vertex 8.06814834742186 9.00000000000001 8.01763809020504
endloop
endfacet
facet normal 0.923879532511287 -0.0 -0.382683432365089
outer loop
vertex 8.26794919243112 9.00000000000001 8.5
vertex 8.06814834742186 12.0 8.01763809020504
vertex 8.26794919243112 12.0 8.5
endloop
endfacet
facet normal 0.99144486137381 -0.0 -0.130526192220052
outer loop
vertex 8.0 12.0 7.5
vertex 8.06814834742186 9.00000000000001 8.01763809020504
vertex 8.0 9.00000000000001 7.5
endloop
endfacet
facet normal 0.99144486137381 -0.0 -0.130526192220052
outer loop
vertex 8.06814834742186 9.00000000000001 8.01763809020504
vertex 8.0 12.0 7.5
vertex 8.06814834742186 12.0 8.01763809020504
endloop
endfacet
facet normal 0.99144486137381 0.0 0.130526192220051
outer loop
vertex 8.06814834742186 12.0 6.98236190979496
vertex 8.0 9.00000000000001 7.5
vertex 8.06814834742186 9.00000000000001 6.98236190979496
endloop
endfacet
facet normal 0.99144486137381 0.0 0.130526192220051
outer loop
vertex 8.0 9.00000000000001 7.5
vertex 8.06814834742186 12.0 6.98236190979496
vertex 8.0 12.0 7.5
endloop
endfacet
facet normal 0.923879532511286 0.0 0.382683432365091
outer loop
vertex 8.26794919243113 12.0 6.5
vertex 8.06814834742186 9.00000000000001 6.98236190979496
vertex 8.26794919243113 9.00000000000001 6.5
endloop
endfacet
facet normal 0.923879532511286 0.0 0.382683432365091
outer loop
vertex 8.06814834742186 9.00000000000001 6.98236190979496
vertex 8.26794919243113 12.0 6.5
vertex 8.06814834742186 12.0 6.98236190979496
endloop
endfacet
facet normal 0.793353340291235 0.0 0.60876142900872
outer loop
vertex 8.58578643762691 12.0 6.08578643762691
vertex 8.26794919243113 9.00000000000001 6.5
vertex 8.58578643762691 9.00000000000001 6.08578643762691
endloop
endfacet
facet normal 0.793353340291235 0.0 0.60876142900872
outer loop
vertex 8.26794919243113 9.00000000000001 6.5
vertex 8.58578643762691 12.0 6.08578643762691
vertex 8.26794919243113 12.0 6.5
endloop
endfacet
facet normal 0.608761429008721 0.0 0.793353340291235
outer loop
vertex 9.0 9.00000000000001 5.76794919243112
vertex 8.58578643762691 12.0 6.08578643762691
vertex 8.58578643762691 9.00000000000001 6.08578643762691
endloop
endfacet
facet normal 0.608761429008721 0.0 0.793353340291235
outer loop
vertex 8.58578643762691 12.0 6.08578643762691
vertex 9.0 9.00000000000001 5.76794919243112
vertex 9.0 12.0 5.76794919243112
endloop
endfacet
facet normal 0.382683432365088 0.0 0.923879532511288
outer loop
vertex 9.48236190979496 9.00000000000001 5.56814834742186
vertex 9.0 12.0 5.76794919243112
vertex 9.0 9.00000000000001 5.76794919243112
endloop
endfacet
facet normal 0.382683432365088 0.0 0.923879532511288
outer loop
vertex 9.0 12.0 5.76794919243112
vertex 9.48236190979496 9.00000000000001 5.56814834742186
vertex 9.48236190979496 12.0 5.56814834742186
endloop
endfacet
facet normal 0.130526192220052 0.0 0.99144486137381
outer loop
vertex 10.0 9.00000000000001 5.5
vertex 9.48236190979496 12.0 5.56814834742186
vertex 9.48236190979496 9.00000000000001 5.56814834742186
endloop
endfacet
facet normal 0.130526192220052 0.0 0.99144486137381
outer loop
vertex 9.48236190979496 12.0 5.56814834742186
vertex 10.0 9.00000000000001 5.5
vertex 10.0 12.0 5.5
endloop
endfacet
facet normal -0.130526192220052 -0.0 0.99144486137381
outer loop
vertex 10.517638090205 9.00000000000001 5.56814834742186
vertex 10.0 12.0 5.5
vertex 10.0 9.00000000000001 5.5
endloop
endfacet
facet normal -0.130526192220052 -0.0 0.99144486137381
outer loop
vertex 10.0 12.0 5.5
vertex 10.517638090205 9.00000000000001 5.56814834742186
vertex 10.517638090205 12.0 5.56814834742186
endloop
endfacet
facet normal -0.38268343236509 -0.0 0.923879532511287
outer loop
vertex 11.0 9.00000000000001 5.76794919243112
vertex 10.517638090205 12.0 5.56814834742186
vertex 10.517638090205 9.00000000000001 5.56814834742186
endloop
endfacet
facet normal -0.38268343236509 -0.0 0.923879532511287
outer loop
vertex 10.517638090205 12.0 5.56814834742186
vertex 11.0 9.00000000000001 5.76794919243112
vertex 11.0 12.0 5.76794919243112
endloop
endfacet
facet normal -0.608761429008721 -0.0 0.793353340291235
outer loop
vertex 11.4142135623731 9.00000000000001 6.08578643762691
vertex 11.0 12.0 5.76794919243112
vertex 11.0 9.00000000000001 5.76794919243112
endloop
endfacet
facet normal -0.608761429008721 -0.0 0.793353340291235
outer loop
vertex 11.0 12.0 5.76794919243112
vertex 11.4142135623731 9.00000000000001 6.08578643762691
vertex 11.4142135623731 12.0 6.08578643762691
endloop
endfacet
facet normal -0.793353340291235 -0.0 0.608761429008721
outer loop
vertex 11.7320508075689 12.0 6.5
vertex 11.4142135623731 9.00000000000001 6.08578643762691
vertex 11.7320508075689 9.00000000000001 6.5
endloop
endfacet
facet normal -0.793353340291235 -0.0 0.608761429008721
outer loop
vertex 11.4142135623731 9.00000000000001 6.08578643762691
vertex 11.7320508075689 12.0 6.5
vertex 11.4142135623731 12.0 6.08578643762691
endloop
endfacet
facet normal -0.923879532511287 -0.0 0.382683432365089
outer loop
vertex 11.9318516525781 12.0 6.98236190979496
vertex 11.7320508075689 9.00000000000001 6.5
vertex 11.9318516525781 9.00000000000001 6.98236190979496
endloop
endfacet
facet normal -0.923879532511287 -0.0 0.382683432365089
outer loop
vertex 11.7320508075689 9.00000000000001 6.5
vertex 11.9318516525781 12.0 6.98236190979496
vertex 11.7320508075689 12.0 6.5
endloop
endfacet
facet normal -0.99144486137381 -0.0 0.130526192220052
outer loop
vertex 12.0 12.0 7.5
vertex 11.9318516525781 9.00000000000001 6.98236190979496
vertex 12.0 9.00000000000001 7.5
endloop
endfacet
facet normal -0.99144486137381 -0.0 0.130526192220052
outer loop
vertex 11.9318516525781 9.00000000000001 6.98236190979496
vertex 12.0 12.0 7.5
vertex 11.9318516525781 12.0 6.98236190979496
endloop
endfacet
facet normal -0.99144486137381 -0.0 -0.130526192220052
outer loop
vertex 11.9318516525781 12.0 8.01763809020504
vertex 12.0 9.00000000000001 7.5
vertex 11.9318516525781 9.00000000000001 8.01763809020504
endloop
endfacet
facet normal -0.99144486137381 -0.0 -0.130526192220052
outer loop
vertex 12.0 9.00000000000001 7.5
vertex 11.9318516525781 12.0 8.01763809020504
vertex 12.0 12.0 7.5
endloop
endfacet
facet normal -0.923879532511287 -0.0 -0.382683432365089
outer loop
vertex 11.7320508075689 12.0 8.5
vertex 11.9318516525781 9.00000000000001 8.01763809020504
vertex 11.7320508075689 9.00000000000001 8.5
endloop
endfacet
facet normal -0.923879532511287 -0.0 -0.382683432365089
outer loop
vertex 11.9318516525781 9.00000000000001 8.01763809020504
vertex 11.7320508075689 12.0 8.5
vertex 11.9318516525781 12.0 8.01763809020504
endloop
endfacet
facet normal -0.793353340291235 -0.0 -0.608761429008721
outer loop
vertex 11.4142135623731 12.0 8.91421356237309
vertex 11.7320508075689 9.00000000000001 8.5
vertex 11.4142135623731 9.00000000000001 8.91421356237309
endloop
endfacet
facet normal -0.793353340291235 -0.0 -0.608761429008721
outer loop
vertex 11.7320508075689 9.00000000000001 8.5
vertex 11.4142135623731 12.0 8.91421356237309
vertex 11.7320508075689 12.0 8.5
endloop
endfacet
facet normal -0.608761429008721 -0.0 -0.793353340291235
outer loop
vertex 11.4142135623731 12.0 8.91421356237309
vertex 11.0 9.00000000000001 9.23205080756888
vertex 11.0 12.0 9.23205080756888
endloop
endfacet
facet normal -0.608761429008721 -0.0 -0.793353340291235
outer loop
vertex 11.0 9.00000000000001 9.23205080756888
vertex 11.4142135623731 12.0 8.91421356237309
vertex 11.4142135623731 9.00000000000001 8.91421356237309
endloop
endfacet
facet normal -0.382683432365089 -0.0 -0.923879532511287
outer loop
vertex 11.0 12.0 9.23205080756888
vertex 10.517638090205 9.00000000000001 9.43185165257814
vertex 10.517638090205 12.0 9.43185165257814
endloop
endfacet
facet normal -0.382683432365089 -0.0 -0.923879532511287
outer loop
vertex 10.517638090205 9.00000000000001 9.43185165257814
vertex 11.0 12.0 9.23205080756888
vertex 11.0 9.00000000000001 9.23205080756888
endloop
endfacet
facet normal -0.130526192220052 -0.0 -0.99144486137381
outer loop
vertex 10.517638090205 12.0 9.43185165257814
vertex 10.0 9.00000000000001 9.5
vertex 10.0 12.0 9.5
endloop
endfacet
facet normal -0.130526192220052 -0.0 -0.99144486137381
outer loop
vertex 10.0 9.00000000000001 9.5
vertex 10.517638090205 12.0 9.43185165257814
vertex 10.517638090205 9.00000000000001 9.43185165257814
endloop
endfacet
facet normal -0.130526192220052 -0.0 0.99144486137381
outer loop
vertex 30.517638090205 9.0 5.56814834742186
vertex 30.0 12.0 5.5
vertex 30.0 9.0 5.5
endloop
endfacet
facet normal -0.130526192220052 -0.0 0.99144486137381
outer loop
vertex 30.0 12.0 5.5
vertex 30.517638090205 9.0 5.56814834742186
vertex 30.517638090205 12.0 5.56814834742186
endloop
endfacet
facet normal -0.38268343236509 -0.0 0.923879532511287
outer loop
vertex 31.0 9.0 5.76794919243112
vertex 30.517638090205 12.0 5.56814834742186
vertex 30.517638090205 9.0 5.56814834742186
endloop
endfacet
facet normal -0.38268343236509 -0.0 0.923879532511287
outer loop
vertex 30.517638090205 12.0 5.56814834742186
vertex 31.0 9.0 5.76794919243112
vertex 31.0 12.0 5.76794919243112
endloop
endfacet
facet normal -0.608761429008721 -0.0 0.793353340291235
outer loop
vertex 31.4142135623731 9.0 6.08578643762691
vertex 31.0 12.0 5.76794919243112
vertex 31.0 9.0 5.76794919243112
endloop
endfacet
facet normal -0.608761429008721 -0.0 0.793353340291235
outer loop
vertex 31.0 12.0 5.76794919243112
vertex 31.4142135623731 9.0 6.08578643762691
vertex 31.4142135623731 12.0 6.08578643762691
endloop
endfacet
facet normal -0.793353340291232 -0.0 0.608761429008725
outer loop
vertex 31.7320508075689 12.0 6.5
vertex 31.4142135623731 9.0 6.08578643762691
vertex 31.7320508075689 9.0 6.5
endloop
endfacet
facet normal -0.793353340291232 -0.0 0.608761429008725
outer loop
vertex 31.4142135623731 9.0 6.08578643762691
vertex 31.7320508075689 12.0 6.5
vertex 31.4142135623731 12.0 6.08578643762691
endloop
endfacet
facet normal -0.92387953251129 -0.0 0.382683432365082
outer loop
vertex 31.9318516525781 12.0 6.98236190979496
vertex 31.7320508075689 9.0 6.5
vertex 31.9318516525781 9.0 6.98236190979496
endloop
endfacet
facet normal -0.92387953251129 -0.0 0.382683432365082
outer loop
vertex 31.7320508075689 9.0 6.5
vertex 31.9318516525781 12.0 6.98236190979496
vertex 31.7320508075689 12.0 6.5
endloop
endfacet
facet normal -0.99144486137381 -0.0 0.130526192220052
outer loop
vertex 32.0 12.0 7.5
vertex 31.9318516525781 9.0 6.98236190979496
vertex 32.0 9.0 7.5
endloop
endfacet
facet normal -0.99144486137381 -0.0 0.130526192220052
outer loop
vertex 31.9318516525781 9.0 6.98236190979496
vertex 32.0 12.0 7.5
vertex 31.9318516525781 12.0 6.98236190979496
endloop
endfacet
facet normal -0.99144486137381 -0.0 -0.130526192220052
outer loop
vertex 31.9318516525781 12.0 8.01763809020504
vertex 32.0 9.0 7.5
vertex 31.9318516525781 9.0 8.01763809020504
endloop
endfacet
facet normal -0.99144486137381 -0.0 -0.130526192220052
outer loop
vertex 32.0 9.0 7.5
vertex 31.9318516525781 12.0 8.01763809020504
vertex 32.0 12.0 7.5
endloop
endfacet
facet normal -0.92387953251129 -0.0 -0.382683432365082
outer loop
vertex 31.7320508075689 12.0 8.5
vertex 31.9318516525781 9.0 8.01763809020504
vertex 31.7320508075689 9.0 8.5
endloop
endfacet
facet normal -0.92387953251129 -0.0 -0.382683432365082
outer loop
vertex 31.9318516525781 9.0 8.01763809020504
vertex 31.7320508075689 12.0 8.5
vertex 31.9318516525781 12.0 8.01763809020504
endloop
endfacet
facet normal -0.793353340291232 -0.0 -0.608761429008725
outer loop
vertex 31.4142135623731 12.0 8.91421356237309
vertex 31.7320508075689 9.0 8.5
vertex 31.4142135623731 9.0 8.91421356237309
endloop
endfacet
facet normal -0.793353340291232 -0.0 -0.608761429008725
outer loop
vertex 31.7320508075689 9.0 8.5
vertex 31.4142135623731 12.0 8.91421356237309
vertex 31.7320508075689 12.0 8.5
endloop
endfacet
facet normal -0.608761429008721 -0.0 -0.793353340291235
outer loop
vertex 31.4142135623731 12.0 8.91421356237309
vertex 31.0 9.0 9.23205080756888
vertex 31.0 12.0 9.23205080756888
endloop
endfacet
facet normal -0.608761429008721 -0.0 -0.793353340291235
outer loop
vertex 31.0 9.0 9.23205080756888
vertex 31.4142135623731 12.0 8.91421356237309
vertex 31.4142135623731 9.0 8.91421356237309
endloop
endfacet
facet normal -0.382683432365089 -0.0 -0.923879532511287
outer loop
vertex 31.0 12.0 9.23205080756888
vertex 30.517638090205 9.0 9.43185165257814
vertex 30.517638090205 12.0 9.43185165257814
endloop
endfacet
facet normal -0.382683432365089 -0.0 -0.923879532511287
outer loop
vertex 30.517638090205 9.0 9.43185165257814
vertex 31.0 12.0 9.23205080756888
vertex 31.0 9.0 9.23205080756888
endloop
endfacet
facet normal -0.130526192220052 -0.0 -0.99144486137381
outer loop
vertex 30.517638090205 12.0 9.43185165257814
vertex 30.0 9.0 9.5
vertex 30.0 12.0 9.5
endloop
endfacet
facet normal -0.130526192220052 -0.0 -0.99144486137381
outer loop
vertex 30.0 9.0 9.5
vertex 30.517638090205 12.0 9.43185165257814
vertex 30.517638090205 9.0 9.43185165257814
endloop
endfacet
facet normal 0.130526192220051 -0.0 -0.991444861373811
outer loop
vertex 30.0 12.0 9.5
vertex 29.482361909795 9.0 9.43185165257814
vertex 29.482361909795 12.0 9.43185165257814
endloop
endfacet
facet normal 0.130526192220051 -0.0 -0.991444861373811
outer loop
vertex 29.482361909795 9.0 9.43185165257814
vertex 30.0 12.0 9.5
vertex 30.0 9.0 9.5
endloop
endfacet
facet normal 0.382683432365095 -0.0 -0.923879532511285
outer loop
vertex 29.482361909795 12.0 9.43185165257814
vertex 29.0 9.0 9.23205080756888
vertex 29.0 12.0 9.23205080756888
endloop
endfacet
facet normal 0.382683432365095 -0.0 -0.923879532511285
outer loop
vertex 29.0 9.0 9.23205080756888
vertex 29.482361909795 12.0 9.43185165257814
vertex 29.482361909795 9.0 9.43185165257814
endloop
endfacet
facet normal 0.60876142900872 -0.0 -0.793353340291236
outer loop
vertex 29.0 12.0 9.23205080756888
vertex 28.5857864376269 9.0 8.91421356237309
vertex 28.5857864376269 12.0 8.91421356237309
endloop
endfacet
facet normal 0.60876142900872 -0.0 -0.793353340291236
outer loop
vertex 28.5857864376269 9.0 8.91421356237309
vertex 29.0 12.0 9.23205080756888
vertex 29.0 9.0 9.23205080756888
endloop
endfacet
facet normal 0.793353340291233 -0.0 -0.608761429008723
outer loop
vertex 28.2679491924311 12.0 8.5
vertex 28.5857864376269 9.0 8.91421356237309
vertex 28.2679491924311 9.0 8.5
endloop
endfacet
facet normal 0.793353340291233 -0.0 -0.608761429008723
outer loop
vertex 28.5857864376269 9.0 8.91421356237309
vertex 28.2679491924311 12.0 8.5
vertex 28.5857864376269 12.0 8.91421356237309
endloop
endfacet
facet normal 0.923879532511286 -0.0 -0.382683432365091
outer loop
vertex 28.0681483474219 12.0 8.01763809020504
vertex 28.2679491924311 9.0 8.5
vertex 28.0681483474219 9.0 8.01763809020504
endloop
endfacet
facet normal 0.923879532511286 -0.0 -0.382683432365091
outer loop
vertex 28.2679491924311 9.0 8.5
vertex 28.0681483474219 12.0 8.01763809020504
vertex 28.2679491924311 12.0 8.5
endloop
endfacet
facet normal 0.991444861373812 -0.0 -0.130526192220042
outer loop
vertex 28.0 12.0 7.5
vertex 28.0681483474219 9.0 8.01763809020504
vertex 28.0 9.0 7.5
endloop
endfacet
facet normal 0.991444861373812 -0.0 -0.130526192220042
outer loop
vertex 28.0681483474219 9.0 8.01763809020504
vertex 28.0 12.0 7.5
vertex 28.0681483474219 12.0 8.01763809020504
endloop
endfacet
facet normal 0.99144486137381 0.0 0.130526192220051
outer loop
vertex 28.0681483474219 12.0 6.98236190979496
vertex 28.0 9.0 7.5
vertex 28.0681483474219 9.0 6.98236190979496
endloop
endfacet
facet normal 0.99144486137381 0.0 0.130526192220051
outer loop
vertex 28.0 9.0 7.5
vertex 28.0681483474219 12.0 6.98236190979496
vertex 28.0 12.0 7.5
endloop
endfacet
facet normal 0.92387953251129 0.0 0.382683432365082
outer loop
vertex 28.2679491924311 12.0 6.5
vertex 28.0681483474219 9.0 6.98236190979496
vertex 28.2679491924311 9.0 6.5
endloop
endfacet
facet normal 0.92387953251129 0.0 0.382683432365082
outer loop
vertex 28.0681483474219 9.0 6.98236190979496
vertex 28.2679491924311 12.0 6.5
vertex 28.0681483474219 12.0 6.98236190979496
endloop
endfacet
facet normal 0.793353340291232 0.0 0.608761429008725
outer loop
vertex 28.5857864376269 12.0 6.08578643762691
vertex 28.2679491924311 9.0 6.5
vertex 28.5857864376269 9.0 6.08578643762691
endloop
endfacet
facet normal 0.793353340291232 0.0 0.608761429008725
outer loop
vertex 28.2679491924311 9.0 6.5
vertex 28.5857864376269 12.0 6.08578643762691
vertex 28.2679491924311 12.0 6.5
endloop
endfacet
facet normal 0.608761429008721 0.0 0.793353340291235
outer loop
vertex 29.0 9.0 5.76794919243112
vertex 28.5857864376269 12.0 6.08578643762691
vertex 28.5857864376269 9.0 6.08578643762691
endloop
endfacet
facet normal 0.608761429008721 0.0 0.793353340291235
outer loop
vertex 28.5857864376269 12.0 6.08578643762691
vertex 29.0 9.0 5.76794919243112
vertex 29.0 12.0 5.76794919243112
endloop
endfacet
facet normal 0.382683432365089 0.0 0.923879532511287
outer loop
vertex 29.482361909795 9.0 5.56814834742186
vertex 29.0 12.0 5.76794919243112
vertex 29.0 9.0 5.76794919243112
endloop
endfacet
facet normal 0.382683432365089 0.0 0.923879532511287
outer loop
vertex 29.0 12.0 5.76794919243112
vertex 29.482361909795 9.0 5.56814834742186
vertex 29.482361909795 12.0 5.56814834742186
endloop
endfacet
facet normal 0.130526192220052 0.0 0.99144486137381
outer loop
vertex 30.0 9.0 5.5
vertex 29.482361909795 12.0 5.56814834742186
vertex 29.482361909795 9.0 5.56814834742186
endloop
endfacet
facet normal 0.130526192220052 0.0 0.99144486137381
outer loop
vertex 29.482361909795 12.0 5.56814834742186
vertex 30.0 9.0 5.5
vertex 30.0 12.0 5.5
endloop
endfacet
endsolid CLIP_PLATEAU
