solid CLIP_ENDSTOP_Y
facet normal 0.0 0.0 -1.0
outer loop
vertex -5.63993296509579e-015 20.0 0.0
vertex 3.06814834742186 10.517638090205 0.0
vertex 0.0 0.0 0.0
endloop
endfacet
facet normal 0.0 0.0 -1.0
outer loop
vertex 3.06814834742186 10.517638090205 0.0
vertex -5.63993296509579e-015 20.0 0.0
vertex 3.26794919243112 11.0 0.0
endloop
endfacet
facet normal 0.0 0.0 -1.0
outer loop
vertex 3.26794919243112 11.0 0.0
vertex -5.63993296509579e-015 20.0 0.0
vertex 3.5857864376269 11.4142135623731 0.0
endloop
endfacet
facet normal 0.0 0.0 -1.0
outer loop
vertex 3.5857864376269 11.4142135623731 0.0
vertex -5.63993296509579e-015 20.0 0.0
vertex 4.0 11.7320508075689 0.0
endloop
endfacet
facet normal 0.0 0.0 -1.0
outer loop
vertex 4.0 11.7320508075689 0.0
vertex -5.63993296509579e-015 20.0 0.0
vertex 4.48236190979495 11.9318516525781 0.0
endloop
endfacet
facet normal 0.0 0.0 -1.0
outer loop
vertex 4.48236190979495 11.9318516525781 0.0
vertex -5.63993296509579e-015 20.0 0.0
vertex 40.0 20.0 0.0
endloop
endfacet
facet normal 0.0 0.0 -1.0
outer loop
vertex 0.0 0.0 0.0
vertex 3.06814834742186 10.517638090205 0.0
vertex 3.0 10.0 0.0
endloop
endfacet
facet normal 0.0 0.0 -1.0
outer loop
vertex 4.48236190979495 11.9318516525781 0.0
vertex 40.0 20.0 0.0
vertex 5.0 12.0 0.0
endloop
endfacet
facet normal 0.0 0.0 -1.0
outer loop
vertex 5.0 12.0 0.0
vertex 40.0 20.0 0.0
vertex 5.51763809020504 11.9318516525781 0.0
endloop
endfacet
facet normal 0.0 0.0 -1.0
outer loop
vertex 5.51763809020504 11.9318516525781 0.0
vertex 40.0 20.0 0.0
vertex 6.0 11.7320508075689 0.0
endloop
endfacet
facet normal 0.0 0.0 -1.0
outer loop
vertex 6.0 11.7320508075689 0.0
vertex 40.0 20.0 0.0
vertex 6.41421356237309 11.4142135623731 0.0
endloop
endfacet
facet normal 0.0 0.0 -1.0
outer loop
vertex 6.41421356237309 11.4142135623731 0.0
vertex 40.0 20.0 0.0
vertex 6.73205080756887 11.0 0.0
endloop
endfacet
facet normal 0.0 0.0 -1.0
outer loop
vertex 6.73205080756887 11.0 0.0
vertex 40.0 20.0 0.0
vertex 6.93185165257813 10.517638090205 0.0
endloop
endfacet
facet normal 0.0 0.0 -1.0
outer loop
vertex 6.93185165257813 10.517638090205 0.0
vertex 40.0 20.0 0.0
vertex 7.0 10.0 0.0
endloop
endfacet
facet normal 0.0 0.0 -1.0
outer loop
vertex 7.0 10.0 0.0
vertex 40.0 20.0 0.0
vertex 33.2679491924311 11.0 0.0
endloop
endfacet
facet normal 0.0 0.0 -1.0
outer loop
vertex 7.0 10.0 0.0
vertex 33.2679491924311 11.0 0.0
vertex 33.0681483474219 10.517638090205 0.0
endloop
endfacet
facet normal 0.0 0.0 -1.0
outer loop
vertex 7.0 10.0 0.0
vertex 33.0681483474219 10.517638090205 0.0
vertex 33.0 10.0 0.0
endloop
endfacet
facet normal 0.0 0.0 -1.0
outer loop
vertex 33.2679491924311 11.0 0.0
vertex 40.0 20.0 0.0
vertex 33.5857864376269 11.4142135623731 0.0
endloop
endfacet
facet normal 0.0 0.0 -1.0
outer loop
vertex 33.5857864376269 11.4142135623731 0.0
vertex 40.0 20.0 0.0
vertex 34.0 11.7320508075689 0.0
endloop
endfacet
facet normal 0.0 0.0 -1.0
outer loop
vertex 34.0 11.7320508075689 0.0
vertex 40.0 20.0 0.0
vertex 34.4823619097949 11.9318516525781 0.0
endloop
endfacet
facet normal 0.0 0.0 -1.0
outer loop
vertex 34.4823619097949 11.9318516525781 0.0
vertex 40.0 20.0 0.0
vertex 35.0 12.0 0.0
endloop
endfacet
facet normal 0.0 0.0 -1.0
outer loop
vertex 35.0 12.0 0.0
vertex 40.0 20.0 0.0
vertex 35.517638090205 11.9318516525781 0.0
endloop
endfacet
facet normal 0.0 0.0 -1.0
outer loop
vertex 35.517638090205 11.9318516525781 0.0
vertex 40.0 20.0 0.0
vertex 36.0 11.7320508075689 0.0
endloop
endfacet
facet normal 0.0 0.0 -1.0
outer loop
vertex 36.0 11.7320508075689 0.0
vertex 40.0 20.0 0.0
vertex 36.4142135623731 11.4142135623731 0.0
endloop
endfacet
facet normal 0.0 0.0 -1.0
outer loop
vertex 36.4142135623731 11.4142135623731 0.0
vertex 40.0 20.0 0.0
vertex 36.7320508075689 11.0 0.0
endloop
endfacet
facet normal 0.0 0.0 -1.0
outer loop
vertex 36.7320508075689 11.0 0.0
vertex 40.0 20.0 0.0
vertex 36.9318516525781 10.517638090205 0.0
endloop
endfacet
facet normal 0.0 0.0 -1.0
outer loop
vertex 36.9318516525781 10.517638090205 0.0
vertex 40.0 20.0 0.0
vertex 37.0 10.0 0.0
endloop
endfacet
facet normal 0.0 0.0 -1.0
outer loop
vertex 0.0 0.0 0.0
vertex 4.48236190979496 8.06814834742186 0.0
vertex 40.0 0.0 0.0
endloop
endfacet
facet normal 0.0 0.0 -1.0
outer loop
vertex 4.48236190979496 8.06814834742186 0.0
vertex 0.0 0.0 0.0
vertex 4.0 8.26794919243112 0.0
endloop
endfacet
facet normal 0.0 0.0 -1.0
outer loop
vertex 4.0 8.26794919243112 0.0
vertex 0.0 0.0 0.0
vertex 3.5857864376269 8.5857864376269 0.0
endloop
endfacet
facet normal 0.0 0.0 -1.0
outer loop
vertex 3.5857864376269 8.5857864376269 0.0
vertex 0.0 0.0 0.0
vertex 3.26794919243112 9.0 0.0
endloop
endfacet
facet normal 0.0 0.0 -1.0
outer loop
vertex 3.26794919243112 9.0 0.0
vertex 0.0 0.0 0.0
vertex 3.06814834742186 9.48236190979496 0.0
endloop
endfacet
facet normal 0.0 0.0 -1.0
outer loop
vertex 3.06814834742186 9.48236190979496 0.0
vertex 0.0 0.0 0.0
vertex 3.0 10.0 0.0
endloop
endfacet
facet normal 0.0 0.0 -1.0
outer loop
vertex 40.0 0.0 0.0
vertex 4.48236190979496 8.06814834742186 0.0
vertex 5.0 8.0 0.0
endloop
endfacet
facet normal 0.0 0.0 -1.0
outer loop
vertex 40.0 0.0 0.0
vertex 5.0 8.0 0.0
vertex 5.51763809020504 8.06814834742186 0.0
endloop
endfacet
facet normal 0.0 0.0 -1.0
outer loop
vertex 40.0 0.0 0.0
vertex 5.51763809020504 8.06814834742186 0.0
vertex 6.0 8.26794919243112 0.0
endloop
endfacet
facet normal 0.0 0.0 -1.0
outer loop
vertex 40.0 0.0 0.0
vertex 6.0 8.26794919243112 0.0
vertex 6.41421356237309 8.5857864376269 0.0
endloop
endfacet
facet normal 0.0 0.0 -1.0
outer loop
vertex 40.0 0.0 0.0
vertex 6.41421356237309 8.5857864376269 0.0
vertex 6.73205080756887 9.0 0.0
endloop
endfacet
facet normal 0.0 0.0 -1.0
outer loop
vertex 40.0 0.0 0.0
vertex 6.73205080756887 9.0 0.0
vertex 6.93185165257813 9.48236190979496 0.0
endloop
endfacet
facet normal 0.0 0.0 -1.0
outer loop
vertex 40.0 0.0 0.0
vertex 6.93185165257813 9.48236190979496 0.0
vertex 7.0 10.0 0.0
endloop
endfacet
facet normal 0.0 0.0 -1.0
outer loop
vertex 40.0 0.0 0.0
vertex 7.0 10.0 0.0
vertex 33.2679491924311 9.0 0.0
endloop
endfacet
facet normal 0.0 0.0 -1.0
outer loop
vertex 33.2679491924311 9.0 0.0
vertex 7.0 10.0 0.0
vertex 33.0681483474219 9.48236190979496 0.0
endloop
endfacet
facet normal 0.0 0.0 -1.0
outer loop
vertex 33.0681483474219 9.48236190979496 0.0
vertex 7.0 10.0 0.0
vertex 33.0 10.0 0.0
endloop
endfacet
facet normal 0.0 0.0 -1.0
outer loop
vertex 40.0 0.0 0.0
vertex 33.2679491924311 9.0 0.0
vertex 33.5857864376269 8.5857864376269 0.0
endloop
endfacet
facet normal 0.0 0.0 -1.0
outer loop
vertex 40.0 0.0 0.0
vertex 33.5857864376269 8.5857864376269 0.0
vertex 34.0 8.26794919243112 0.0
endloop
endfacet
facet normal 0.0 0.0 -1.0
outer loop
vertex 40.0 0.0 0.0
vertex 34.0 8.26794919243112 0.0
vertex 34.482361909795 8.06814834742186 0.0
endloop
endfacet
facet normal 0.0 0.0 -1.0
outer loop
vertex 40.0 0.0 0.0
vertex 34.482361909795 8.06814834742186 0.0
vertex 35.0 8.0 0.0
endloop
endfacet
facet normal 0.0 0.0 -1.0
outer loop
vertex 40.0 0.0 0.0
vertex 35.0 8.0 0.0
vertex 35.517638090205 8.06814834742186 0.0
endloop
endfacet
facet normal 0.0 0.0 -1.0
outer loop
vertex 40.0 0.0 0.0
vertex 35.517638090205 8.06814834742186 0.0
vertex 36.0 8.26794919243112 0.0
endloop
endfacet
facet normal 0.0 0.0 -1.0
outer loop
vertex 40.0 0.0 0.0
vertex 36.0 8.26794919243112 0.0
vertex 36.4142135623731 8.5857864376269 0.0
endloop
endfacet
facet normal 0.0 0.0 -1.0
outer loop
vertex 40.0 0.0 0.0
vertex 36.4142135623731 8.5857864376269 0.0
vertex 36.7320508075689 9.0 0.0
endloop
endfacet
facet normal 0.0 0.0 -1.0
outer loop
vertex 40.0 0.0 0.0
vertex 36.7320508075689 9.0 0.0
vertex 36.9318516525781 9.48236190979496 0.0
endloop
endfacet
facet normal 0.0 0.0 -1.0
outer loop
vertex 40.0 0.0 0.0
vertex 36.9318516525781 9.48236190979496 0.0
vertex 37.0 10.0 0.0
endloop
endfacet
facet normal 0.0 0.0 -1.0
outer loop
vertex 40.0 0.0 0.0
vertex 37.0 10.0 0.0
vertex 40.0 20.0 0.0
endloop
endfacet
facet normal -1.0 -2.8199664825479e-016 -0.0
outer loop
vertex -5.63993296509579e-015 20.0 8.0
vertex 0.0 0.0 0.0
vertex 0.0 0.0 8.0
endloop
endfacet
facet normal -1.0 -2.8199664825479e-016 -0.0
outer loop
vertex 0.0 0.0 0.0
vertex -5.63993296509579e-015 20.0 8.0
vertex -5.63993296509579e-015 20.0 0.0
endloop
endfacet
facet normal -0.0 1.0 0.0
outer loop
vertex -5.63993296509579e-015 20.0 0.0
vertex 9.99999999999999 20.0 3.0
vertex 40.0 20.0 0.0
endloop
endfacet
facet normal -0.0 1.0 0.0
outer loop
vertex 9.99999999999999 20.0 3.0
vertex -5.63993296509579e-015 20.0 0.0
vertex -5.63993296509579e-015 20.0 8.0
endloop
endfacet
facet normal -0.0 1.0 0.0
outer loop
vertex 9.99999999999999 20.0 3.0
vertex -5.63993296509579e-015 20.0 8.0
vertex 9.99999999999999 20.0 8.0
endloop
endfacet
facet normal -0.0 1.0 0.0
outer loop
vertex 40.0 20.0 0.0
vertex 30.0 20.0 3.0
vertex 40.0 20.0 8.0
endloop
endfacet
facet normal -0.0 1.0 0.0
outer loop
vertex 30.0 20.0 3.0
vertex 40.0 20.0 0.0
vertex 9.99999999999999 20.0 3.0
endloop
endfacet
facet normal -0.0 1.0 0.0
outer loop
vertex 40.0 20.0 8.0
vertex 30.0 20.0 3.0
vertex 30.0 20.0 8.0
endloop
endfacet
facet normal 1.0 0.0 0.0
outer loop
vertex 40.0 20.0 0.0
vertex 40.0 0.0 8.0
vertex 40.0 0.0 0.0
endloop
endfacet
facet normal 1.0 0.0 0.0
outer loop
vertex 40.0 0.0 8.0
vertex 40.0 20.0 0.0
vertex 40.0 20.0 8.0
endloop
endfacet
facet normal -0.0 -1.0 -0.0
outer loop
vertex 40.0 0.0 0.0
vertex 30.0 0.0 3.0
vertex 0.0 0.0 0.0
endloop
endfacet
facet normal -0.0 -1.0 -0.0
outer loop
vertex 30.0 0.0 3.0
vertex 40.0 0.0 0.0
vertex 40.0 0.0 8.0
endloop
endfacet
facet normal -0.0 -1.0 -0.0
outer loop
vertex 30.0 0.0 3.0
vertex 40.0 0.0 8.0
vertex 30.0 0.0 8.0
endloop
endfacet
facet normal -0.0 -1.0 -0.0
outer loop
vertex 0.0 0.0 0.0
vertex 9.99999999999999 0.0 3.0
vertex 0.0 0.0 8.0
endloop
endfacet
facet normal -0.0 -1.0 -0.0
outer loop
vertex 9.99999999999999 0.0 3.0
vertex 0.0 0.0 0.0
vertex 30.0 0.0 3.0
endloop
endfacet
facet normal -0.0 -1.0 -0.0
outer loop
vertex 0.0 0.0 8.0
vertex 9.99999999999999 0.0 3.0
vertex 9.99999999999999 0.0 8.0
endloop
endfacet
facet normal -0.0 -0.0 1.0
outer loop
vertex 30.0 0.0 3.0
vertex 9.99999999999999 20.0 3.0
vertex 9.99999999999999 0.0 3.0
endloop
endfacet
facet normal -0.0 -0.0 1.0
outer loop
vertex 9.99999999999999 20.0 3.0
vertex 30.0 0.0 3.0
vertex 30.0 20.0 3.0
endloop
endfacet
facet normal 0.0 0.0 1.0
outer loop
vertex 0.0 0.0 8.0
vertex 3.06814834742186 9.48236190979496 8.0
vertex 3.0 10.0 8.0
endloop
endfacet
facet normal 0.0 0.0 1.0
outer loop
vertex 3.06814834742186 9.48236190979496 8.0
vertex 0.0 0.0 8.0
vertex 3.26794919243112 9.0 8.0
endloop
endfacet
facet normal 0.0 0.0 1.0
outer loop
vertex 3.26794919243112 9.0 8.0
vertex 0.0 0.0 8.0
vertex 9.99999999999999 0.0 8.0
endloop
endfacet
facet normal 0.0 0.0 1.0
outer loop
vertex 3.26794919243112 9.0 8.0
vertex 9.99999999999999 0.0 8.0
vertex 3.5857864376269 8.5857864376269 8.0
endloop
endfacet
facet normal 0.0 0.0 1.0
outer loop
vertex 3.5857864376269 8.5857864376269 8.0
vertex 9.99999999999999 0.0 8.0
vertex 4.0 8.26794919243112 8.0
endloop
endfacet
facet normal 0.0 0.0 1.0
outer loop
vertex 4.0 8.26794919243112 8.0
vertex 9.99999999999999 0.0 8.0
vertex 4.48236190979496 8.06814834742186 8.0
endloop
endfacet
facet normal 0.0 0.0 1.0
outer loop
vertex 4.48236190979496 8.06814834742186 8.0
vertex 9.99999999999999 0.0 8.0
vertex 5.0 8.0 8.0
endloop
endfacet
facet normal 0.0 0.0 1.0
outer loop
vertex 5.0 8.0 8.0
vertex 9.99999999999999 0.0 8.0
vertex 5.51763809020504 8.06814834742186 8.0
endloop
endfacet
facet normal 0.0 0.0 1.0
outer loop
vertex 5.51763809020504 8.06814834742186 8.0
vertex 9.99999999999999 0.0 8.0
vertex 6.0 8.26794919243112 8.0
endloop
endfacet
facet normal 0.0 0.0 1.0
outer loop
vertex 6.0 8.26794919243112 8.0
vertex 9.99999999999999 0.0 8.0
vertex 6.41421356237309 8.5857864376269 8.0
endloop
endfacet
facet normal 0.0 0.0 1.0
outer loop
vertex 6.41421356237309 8.5857864376269 8.0
vertex 9.99999999999999 0.0 8.0
vertex 6.73205080756887 9.0 8.0
endloop
endfacet
facet normal 0.0 0.0 1.0
outer loop
vertex 6.73205080756887 9.0 8.0
vertex 9.99999999999999 0.0 8.0
vertex 6.93185165257813 9.48236190979496 8.0
endloop
endfacet
facet normal 0.0 0.0 1.0
outer loop
vertex 6.93185165257813 9.48236190979496 8.0
vertex 9.99999999999999 0.0 8.0
vertex 7.0 10.0 8.0
endloop
endfacet
facet normal 0.0 0.0 1.0
outer loop
vertex -5.63993296509579e-015 20.0 8.0
vertex 3.26794919243112 11.0 8.0
vertex 9.99999999999999 20.0 8.0
endloop
endfacet
facet normal 0.0 0.0 1.0
outer loop
vertex 3.26794919243112 11.0 8.0
vertex -5.63993296509579e-015 20.0 8.0
vertex 3.06814834742186 10.517638090205 8.0
endloop
endfacet
facet normal 0.0 0.0 1.0
outer loop
vertex 3.06814834742186 10.517638090205 8.0
vertex -5.63993296509579e-015 20.0 8.0
vertex 0.0 0.0 8.0
endloop
endfacet
facet normal 0.0 0.0 1.0
outer loop
vertex 3.06814834742186 10.517638090205 8.0
vertex 0.0 0.0 8.0
vertex 3.0 10.0 8.0
endloop
endfacet
facet normal 0.0 0.0 1.0
outer loop
vertex 9.99999999999999 20.0 8.0
vertex 3.26794919243112 11.0 8.0
vertex 3.5857864376269 11.4142135623731 8.0
endloop
endfacet
facet normal 0.0 0.0 1.0
outer loop
vertex 9.99999999999999 20.0 8.0
vertex 3.5857864376269 11.4142135623731 8.0
vertex 4.0 11.7320508075689 8.0
endloop
endfacet
facet normal 0.0 0.0 1.0
outer loop
vertex 9.99999999999999 20.0 8.0
vertex 4.0 11.7320508075689 8.0
vertex 4.48236190979495 11.9318516525781 8.0
endloop
endfacet
facet normal 0.0 0.0 1.0
outer loop
vertex 9.99999999999999 20.0 8.0
vertex 4.48236190979495 11.9318516525781 8.0
vertex 5.0 12.0 8.0
endloop
endfacet
facet normal 0.0 0.0 1.0
outer loop
vertex 9.99999999999999 20.0 8.0
vertex 5.0 12.0 8.0
vertex 5.51763809020504 11.9318516525781 8.0
endloop
endfacet
facet normal 0.0 0.0 1.0
outer loop
vertex 9.99999999999999 20.0 8.0
vertex 5.51763809020504 11.9318516525781 8.0
vertex 6.0 11.7320508075689 8.0
endloop
endfacet
facet normal 0.0 0.0 1.0
outer loop
vertex 9.99999999999999 20.0 8.0
vertex 6.0 11.7320508075689 8.0
vertex 6.41421356237309 11.4142135623731 8.0
endloop
endfacet
facet normal 0.0 0.0 1.0
outer loop
vertex 9.99999999999999 20.0 8.0
vertex 6.41421356237309 11.4142135623731 8.0
vertex 6.73205080756887 11.0 8.0
endloop
endfacet
facet normal 0.0 0.0 1.0
outer loop
vertex 9.99999999999999 20.0 8.0
vertex 6.73205080756887 11.0 8.0
vertex 6.93185165257813 10.517638090205 8.0
endloop
endfacet
facet normal 0.0 0.0 1.0
outer loop
vertex 9.99999999999999 20.0 8.0
vertex 6.93185165257813 10.517638090205 8.0
vertex 7.0 10.0 8.0
endloop
endfacet
facet normal 0.0 0.0 1.0
outer loop
vertex 9.99999999999999 20.0 8.0
vertex 7.0 10.0 8.0
vertex 9.99999999999999 0.0 8.0
endloop
endfacet
facet normal 1.0 -7.04991620636975e-017 0.0
outer loop
vertex 9.99999999999999 20.0 3.0
vertex 9.99999999999999 0.0 8.0
vertex 9.99999999999999 0.0 3.0
endloop
endfacet
facet normal 1.0 -7.04991620636975e-017 0.0
outer loop
vertex 9.99999999999999 0.0 8.0
vertex 9.99999999999999 20.0 3.0
vertex 9.99999999999999 20.0 8.0
endloop
endfacet
facet normal 0.0 0.0 1.0
outer loop
vertex 30.0 0.0 8.0
vertex 33.0681483474219 9.48236190979496 8.0
vertex 30.0 20.0 8.0
endloop
endfacet
facet normal 0.0 0.0 1.0
outer loop
vertex 33.0681483474219 9.48236190979496 8.0
vertex 30.0 0.0 8.0
vertex 33.2679491924311 9.0 8.0
endloop
endfacet
facet normal 0.0 0.0 1.0
outer loop
vertex 33.2679491924311 9.0 8.0
vertex 30.0 0.0 8.0
vertex 40.0 0.0 8.0
endloop
endfacet
facet normal 0.0 0.0 1.0
outer loop
vertex 30.0 20.0 8.0
vertex 33.0681483474219 9.48236190979496 8.0
vertex 33.0 10.0 8.0
endloop
endfacet
facet normal 0.0 0.0 1.0
outer loop
vertex 33.2679491924311 9.0 8.0
vertex 40.0 0.0 8.0
vertex 33.5857864376269 8.5857864376269 8.0
endloop
endfacet
facet normal 0.0 0.0 1.0
outer loop
vertex 33.5857864376269 8.5857864376269 8.0
vertex 40.0 0.0 8.0
vertex 34.0 8.26794919243112 8.0
endloop
endfacet
facet normal 0.0 0.0 1.0
outer loop
vertex 34.0 8.26794919243112 8.0
vertex 40.0 0.0 8.0
vertex 34.482361909795 8.06814834742186 8.0
endloop
endfacet
facet normal 0.0 0.0 1.0
outer loop
vertex 34.482361909795 8.06814834742186 8.0
vertex 40.0 0.0 8.0
vertex 35.0 8.0 8.0
endloop
endfacet
facet normal 0.0 0.0 1.0
outer loop
vertex 35.0 8.0 8.0
vertex 40.0 0.0 8.0
vertex 35.517638090205 8.06814834742186 8.0
endloop
endfacet
facet normal 0.0 0.0 1.0
outer loop
vertex 35.517638090205 8.06814834742186 8.0
vertex 40.0 0.0 8.0
vertex 36.0 8.26794919243112 8.0
endloop
endfacet
facet normal 0.0 0.0 1.0
outer loop
vertex 36.0 8.26794919243112 8.0
vertex 40.0 0.0 8.0
vertex 36.4142135623731 8.5857864376269 8.0
endloop
endfacet
facet normal 0.0 0.0 1.0
outer loop
vertex 36.4142135623731 8.5857864376269 8.0
vertex 40.0 0.0 8.0
vertex 36.7320508075689 9.0 8.0
endloop
endfacet
facet normal 0.0 0.0 1.0
outer loop
vertex 36.7320508075689 9.0 8.0
vertex 40.0 0.0 8.0
vertex 36.9318516525781 9.48236190979496 8.0
endloop
endfacet
facet normal 0.0 0.0 1.0
outer loop
vertex 36.9318516525781 9.48236190979496 8.0
vertex 40.0 0.0 8.0
vertex 37.0 10.0 8.0
endloop
endfacet
facet normal 0.0 0.0 1.0
outer loop
vertex 30.0 20.0 8.0
vertex 33.2679491924311 11.0 8.0
vertex 40.0 20.0 8.0
endloop
endfacet
facet normal 0.0 0.0 1.0
outer loop
vertex 33.2679491924311 11.0 8.0
vertex 30.0 20.0 8.0
vertex 33.0681483474219 10.517638090205 8.0
endloop
endfacet
facet normal 0.0 0.0 1.0
outer loop
vertex 33.0681483474219 10.517638090205 8.0
vertex 30.0 20.0 8.0
vertex 33.0 10.0 8.0
endloop
endfacet
facet normal 0.0 0.0 1.0
outer loop
vertex 40.0 20.0 8.0
vertex 33.2679491924311 11.0 8.0
vertex 33.5857864376269 11.4142135623731 8.0
endloop
endfacet
facet normal 0.0 0.0 1.0
outer loop
vertex 40.0 20.0 8.0
vertex 33.5857864376269 11.4142135623731 8.0
vertex 34.0 11.7320508075689 8.0
endloop
endfacet
facet normal 0.0 0.0 1.0
outer loop
vertex 40.0 20.0 8.0
vertex 34.0 11.7320508075689 8.0
vertex 34.4823619097949 11.9318516525781 8.0
endloop
endfacet
facet normal 0.0 0.0 1.0
outer loop
vertex 40.0 20.0 8.0
vertex 34.4823619097949 11.9318516525781 8.0
vertex 35.0 12.0 8.0
endloop
endfacet
facet normal 0.0 0.0 1.0
outer loop
vertex 40.0 20.0 8.0
vertex 35.0 12.0 8.0
vertex 35.517638090205 11.9318516525781 8.0
endloop
endfacet
facet normal 0.0 0.0 1.0
outer loop
vertex 40.0 20.0 8.0
vertex 35.517638090205 11.9318516525781 8.0
vertex 36.0 11.7320508075689 8.0
endloop
endfacet
facet normal 0.0 0.0 1.0
outer loop
vertex 40.0 20.0 8.0
vertex 36.0 11.7320508075689 8.0
vertex 36.4142135623731 11.4142135623731 8.0
endloop
endfacet
facet normal 0.0 0.0 1.0
outer loop
vertex 40.0 20.0 8.0
vertex 36.4142135623731 11.4142135623731 8.0
vertex 36.7320508075689 11.0 8.0
endloop
endfacet
facet normal 0.0 0.0 1.0
outer loop
vertex 40.0 20.0 8.0
vertex 36.7320508075689 11.0 8.0
vertex 36.9318516525781 10.517638090205 8.0
endloop
endfacet
facet normal 0.0 0.0 1.0
outer loop
vertex 40.0 20.0 8.0
vertex 36.9318516525781 10.517638090205 8.0
vertex 37.0 10.0 8.0
endloop
endfacet
facet normal 0.0 0.0 1.0
outer loop
vertex 40.0 20.0 8.0
vertex 37.0 10.0 8.0
vertex 40.0 0.0 8.0
endloop
endfacet
facet normal -1.0 -0.0 -0.0
outer loop
vertex 30.0 20.0 8.0
vertex 30.0 0.0 3.0
vertex 30.0 0.0 8.0
endloop
endfacet
facet normal -1.0 -0.0 -0.0
outer loop
vertex 30.0 0.0 3.0
vertex 30.0 20.0 8.0
vertex 30.0 20.0 3.0
endloop
endfacet
facet normal -0.923879532511287 -0.382683432365089 -0.0
outer loop
vertex 6.73205080756887 11.0 8.0
vertex 6.93185165257813 10.517638090205 0.0
vertex 6.93185165257813 10.517638090205 8.0
endloop
endfacet
facet normal -0.923879532511287 -0.382683432365089 -0.0
outer loop
vertex 6.93185165257813 10.517638090205 0.0
vertex 6.73205080756887 11.0 8.0
vertex 6.73205080756887 11.0 0.0
endloop
endfacet
facet normal -0.793353340291236 -0.60876142900872 -0.0
outer loop
vertex 6.41421356237309 11.4142135623731 8.0
vertex 6.73205080756887 11.0 0.0
vertex 6.73205080756887 11.0 8.0
endloop
endfacet
facet normal -0.793353340291236 -0.60876142900872 -0.0
outer loop
vertex 6.73205080756887 11.0 0.0
vertex 6.41421356237309 11.4142135623731 8.0
vertex 6.41421356237309 11.4142135623731 0.0
endloop
endfacet
facet normal -0.608761429008721 -0.793353340291235 -0.0
outer loop
vertex 6.41421356237309 11.4142135623731 8.0
vertex 6.0 11.7320508075689 0.0
vertex 6.41421356237309 11.4142135623731 0.0
endloop
endfacet
facet normal -0.608761429008721 -0.793353340291235 -0.0
outer loop
vertex 6.0 11.7320508075689 0.0
vertex 6.41421356237309 11.4142135623731 8.0
vertex 6.0 11.7320508075689 8.0
endloop
endfacet
facet normal -0.382683432365089 -0.923879532511287 -0.0
outer loop
vertex 6.0 11.7320508075689 8.0
vertex 5.51763809020504 11.9318516525781 0.0
vertex 6.0 11.7320508075689 0.0
endloop
endfacet
facet normal -0.382683432365089 -0.923879532511287 -0.0
outer loop
vertex 5.51763809020504 11.9318516525781 0.0
vertex 6.0 11.7320508075689 8.0
vertex 5.51763809020504 11.9318516525781 8.0
endloop
endfacet
facet normal -0.130526192220052 -0.99144486137381 -0.0
outer loop
vertex 5.51763809020504 11.9318516525781 8.0
vertex 5.0 12.0 0.0
vertex 5.51763809020504 11.9318516525781 0.0
endloop
endfacet
facet normal -0.130526192220052 -0.99144486137381 -0.0
outer loop
vertex 5.0 12.0 0.0
vertex 5.51763809020504 11.9318516525781 8.0
vertex 5.0 12.0 8.0
endloop
endfacet
facet normal 0.130526192220051 -0.99144486137381 -0.0
outer loop
vertex 5.0 12.0 8.0
vertex 4.48236190979495 11.9318516525781 0.0
vertex 5.0 12.0 0.0
endloop
endfacet
facet normal 0.130526192220051 -0.99144486137381 -0.0
outer loop
vertex 4.48236190979495 11.9318516525781 0.0
vertex 5.0 12.0 8.0
vertex 4.48236190979495 11.9318516525781 8.0
endloop
endfacet
facet normal 0.382683432365092 -0.923879532511286 -0.0
outer loop
vertex 4.48236190979495 11.9318516525781 8.0
vertex 4.0 11.7320508075689 0.0
vertex 4.48236190979495 11.9318516525781 0.0
endloop
endfacet
facet normal 0.382683432365092 -0.923879532511286 -0.0
outer loop
vertex 4.0 11.7320508075689 0.0
vertex 4.48236190979495 11.9318516525781 8.0
vertex 4.0 11.7320508075689 8.0
endloop
endfacet
facet normal 0.60876142900872 -0.793353340291236 -0.0
outer loop
vertex 4.0 11.7320508075689 8.0
vertex 3.5857864376269 11.4142135623731 0.0
vertex 4.0 11.7320508075689 0.0
endloop
endfacet
facet normal 0.60876142900872 -0.793353340291236 -0.0
outer loop
vertex 3.5857864376269 11.4142135623731 0.0
vertex 4.0 11.7320508075689 8.0
vertex 3.5857864376269 11.4142135623731 8.0
endloop
endfacet
facet normal 0.793353340291236 -0.60876142900872 -0.0
outer loop
vertex 3.5857864376269 11.4142135623731 0.0
vertex 3.26794919243112 11.0 8.0
vertex 3.26794919243112 11.0 0.0
endloop
endfacet
facet normal 0.793353340291236 -0.60876142900872 -0.0
outer loop
vertex 3.26794919243112 11.0 8.0
vertex 3.5857864376269 11.4142135623731 0.0
vertex 3.5857864376269 11.4142135623731 8.0
endloop
endfacet
facet normal 0.923879532511287 -0.382683432365088 -0.0
outer loop
vertex 3.26794919243112 11.0 0.0
vertex 3.06814834742186 10.517638090205 8.0
vertex 3.06814834742186 10.517638090205 0.0
endloop
endfacet
facet normal 0.923879532511287 -0.382683432365088 -0.0
outer loop
vertex 3.06814834742186 10.517638090205 8.0
vertex 3.26794919243112 11.0 0.0
vertex 3.26794919243112 11.0 8.0
endloop
endfacet
facet normal 0.991444861373811 -0.130526192220052 -0.0
outer loop
vertex 3.06814834742186 10.517638090205 0.0
vertex 3.0 10.0 8.0
vertex 3.0 10.0 0.0
endloop
endfacet
facet normal 0.991444861373811 -0.130526192220052 -0.0
outer loop
vertex 3.0 10.0 8.0
vertex 3.06814834742186 10.517638090205 0.0
vertex 3.06814834742186 10.517638090205 8.0
endloop
endfacet
facet normal 0.99144486137381 0.130526192220052 0.0
outer loop
vertex 3.0 10.0 0.0
vertex 3.06814834742186 9.48236190979496 8.0
vertex 3.06814834742186 9.48236190979496 0.0
endloop
endfacet
facet normal 0.99144486137381 0.130526192220052 0.0
outer loop
vertex 3.06814834742186 9.48236190979496 8.0
vertex 3.0 10.0 0.0
vertex 3.0 10.0 8.0
endloop
endfacet
facet normal 0.923879532511287 0.38268343236509 0.0
outer loop
vertex 3.06814834742186 9.48236190979496 0.0
vertex 3.26794919243112 9.0 8.0
vertex 3.26794919243112 9.0 0.0
endloop
endfacet
facet normal 0.923879532511287 0.38268343236509 0.0
outer loop
vertex 3.26794919243112 9.0 8.0
vertex 3.06814834742186 9.48236190979496 0.0
vertex 3.06814834742186 9.48236190979496 8.0
endloop
endfacet
facet normal 0.793353340291235 0.608761429008721 0.0
outer loop
vertex 3.26794919243112 9.0 0.0
vertex 3.5857864376269 8.5857864376269 8.0
vertex 3.5857864376269 8.5857864376269 0.0
endloop
endfacet
facet normal 0.793353340291235 0.608761429008721 0.0
outer loop
vertex 3.5857864376269 8.5857864376269 8.0
vertex 3.26794919243112 9.0 0.0
vertex 3.26794919243112 9.0 8.0
endloop
endfacet
facet normal 0.60876142900872 0.793353340291236 0.0
outer loop
vertex 3.5857864376269 8.5857864376269 8.0
vertex 4.0 8.26794919243112 0.0
vertex 3.5857864376269 8.5857864376269 0.0
endloop
endfacet
facet normal 0.60876142900872 0.793353340291236 0.0
outer loop
vertex 4.0 8.26794919243112 0.0
vertex 3.5857864376269 8.5857864376269 8.0
vertex 4.0 8.26794919243112 8.0
endloop
endfacet
facet normal 0.382683432365089 0.923879532511287 0.0
outer loop
vertex 4.0 8.26794919243112 8.0
vertex 4.48236190979496 8.06814834742186 0.0
vertex 4.0 8.26794919243112 0.0
endloop
endfacet
facet normal 0.382683432365089 0.923879532511287 0.0
outer loop
vertex 4.48236190979496 8.06814834742186 0.0
vertex 4.0 8.26794919243112 8.0
vertex 4.48236190979496 8.06814834742186 8.0
endloop
endfacet
facet normal 0.130526192220052 0.99144486137381 0.0
outer loop
vertex 4.48236190979496 8.06814834742186 8.0
vertex 5.0 8.0 0.0
vertex 4.48236190979496 8.06814834742186 0.0
endloop
endfacet
facet normal 0.130526192220052 0.99144486137381 0.0
outer loop
vertex 5.0 8.0 0.0
vertex 4.48236190979496 8.06814834742186 8.0
vertex 5.0 8.0 8.0
endloop
endfacet
facet normal -0.130526192220052 0.99144486137381 -0.0
outer loop
vertex 5.0 8.0 8.0
vertex 5.51763809020504 8.06814834742186 0.0
vertex 5.0 8.0 0.0
endloop
endfacet
facet normal -0.130526192220052 0.99144486137381 -0.0
outer loop
vertex 5.51763809020504 8.06814834742186 0.0
vertex 5.0 8.0 8.0
vertex 5.51763809020504 8.06814834742186 8.0
endloop
endfacet
facet normal -0.382683432365091 0.923879532511286 -0.0
outer loop
vertex 5.51763809020504 8.06814834742186 8.0
vertex 6.0 8.26794919243112 0.0
vertex 5.51763809020504 8.06814834742186 0.0
endloop
endfacet
facet normal -0.382683432365091 0.923879532511286 -0.0
outer loop
vertex 6.0 8.26794919243112 0.0
vertex 5.51763809020504 8.06814834742186 8.0
vertex 6.0 8.26794919243112 8.0
endloop
endfacet
facet normal -0.60876142900872 0.793353340291236 -0.0
outer loop
vertex 6.0 8.26794919243112 8.0
vertex 6.41421356237309 8.5857864376269 0.0
vertex 6.0 8.26794919243112 0.0
endloop
endfacet
facet normal -0.60876142900872 0.793353340291236 -0.0
outer loop
vertex 6.41421356237309 8.5857864376269 0.0
vertex 6.0 8.26794919243112 8.0
vertex 6.41421356237309 8.5857864376269 8.0
endloop
endfacet
facet normal -0.793353340291236 0.60876142900872 -0.0
outer loop
vertex 6.73205080756887 9.0 8.0
vertex 6.41421356237309 8.5857864376269 0.0
vertex 6.41421356237309 8.5857864376269 8.0
endloop
endfacet
facet normal -0.793353340291236 0.60876142900872 -0.0
outer loop
vertex 6.41421356237309 8.5857864376269 0.0
vertex 6.73205080756887 9.0 8.0
vertex 6.73205080756887 9.0 0.0
endloop
endfacet
facet normal -0.923879532511287 0.382683432365089 -0.0
outer loop
vertex 6.93185165257813 9.48236190979496 8.0
vertex 6.73205080756887 9.0 0.0
vertex 6.73205080756887 9.0 8.0
endloop
endfacet
facet normal -0.923879532511287 0.382683432365089 -0.0
outer loop
vertex 6.73205080756887 9.0 0.0
vertex 6.93185165257813 9.48236190979496 8.0
vertex 6.93185165257813 9.48236190979496 0.0
endloop
endfacet
facet normal -0.99144486137381 0.130526192220052 -0.0
outer loop
vertex 7.0 10.0 8.0
vertex 6.93185165257813 9.48236190979496 0.0
vertex 6.93185165257813 9.48236190979496 8.0
endloop
endfacet
facet normal -0.99144486137381 0.130526192220052 -0.0
outer loop
vertex 6.93185165257813 9.48236190979496 0.0
vertex 7.0 10.0 8.0
vertex 7.0 10.0 0.0
endloop
endfacet
facet normal -0.99144486137381 -0.130526192220052 -0.0
outer loop
vertex 6.93185165257813 10.517638090205 8.0
vertex 7.0 10.0 0.0
vertex 7.0 10.0 8.0
endloop
endfacet
facet normal -0.99144486137381 -0.130526192220052 -0.0
outer loop
vertex 7.0 10.0 0.0
vertex 6.93185165257813 10.517638090205 8.0
vertex 6.93185165257813 10.517638090205 0.0
endloop
endfacet
facet normal -0.99144486137381 0.130526192220052 -0.0
outer loop
vertex 37.0 10.0 8.0
vertex 36.9318516525781 9.48236190979496 0.0
vertex 36.9318516525781 9.48236190979496 8.0
endloop
endfacet
facet normal -0.99144486137381 0.130526192220052 -0.0
outer loop
vertex 36.9318516525781 9.48236190979496 0.0
vertex 37.0 10.0 8.0
vertex 37.0 10.0 0.0
endloop
endfacet
facet normal -0.99144486137381 -0.130526192220051 -0.0
outer loop
vertex 36.9318516525781 10.517638090205 8.0
vertex 37.0 10.0 0.0
vertex 37.0 10.0 8.0
endloop
endfacet
facet normal -0.99144486137381 -0.130526192220051 -0.0
outer loop
vertex 37.0 10.0 0.0
vertex 36.9318516525781 10.517638090205 8.0
vertex 36.9318516525781 10.517638090205 0.0
endloop
endfacet
facet normal -0.923879532511286 -0.382683432365091 -0.0
outer loop
vertex 36.7320508075689 11.0 8.0
vertex 36.9318516525781 10.517638090205 0.0
vertex 36.9318516525781 10.517638090205 8.0
endloop
endfacet
facet normal -0.923879532511286 -0.382683432365091 -0.0
outer loop
vertex 36.9318516525781 10.517638090205 0.0
vertex 36.7320508075689 11.0 8.0
vertex 36.7320508075689 11.0 0.0
endloop
endfacet
facet normal -0.793353340291232 -0.608761429008725 -0.0
outer loop
vertex 36.4142135623731 11.4142135623731 8.0
vertex 36.7320508075689 11.0 0.0
vertex 36.7320508075689 11.0 8.0
endloop
endfacet
facet normal -0.793353340291232 -0.608761429008725 -0.0
outer loop
vertex 36.7320508075689 11.0 0.0
vertex 36.4142135623731 11.4142135623731 8.0
vertex 36.4142135623731 11.4142135623731 0.0
endloop
endfacet
facet normal -0.608761429008721 -0.793353340291235 -0.0
outer loop
vertex 36.4142135623731 11.4142135623731 8.0
vertex 36.0 11.7320508075689 0.0
vertex 36.4142135623731 11.4142135623731 0.0
endloop
endfacet
facet normal -0.608761429008721 -0.793353340291235 -0.0
outer loop
vertex 36.0 11.7320508075689 0.0
vertex 36.4142135623731 11.4142135623731 8.0
vertex 36.0 11.7320508075689 8.0
endloop
endfacet
facet normal -0.382683432365089 -0.923879532511287 -0.0
outer loop
vertex 36.0 11.7320508075689 8.0
vertex 35.517638090205 11.9318516525781 0.0
vertex 36.0 11.7320508075689 0.0
endloop
endfacet
facet normal -0.382683432365089 -0.923879532511287 -0.0
outer loop
vertex 35.517638090205 11.9318516525781 0.0
vertex 36.0 11.7320508075689 8.0
vertex 35.517638090205 11.9318516525781 8.0
endloop
endfacet
facet normal -0.130526192220052 -0.99144486137381 -0.0
outer loop
vertex 35.517638090205 11.9318516525781 8.0
vertex 35.0 12.0 0.0
vertex 35.517638090205 11.9318516525781 0.0
endloop
endfacet
facet normal -0.130526192220052 -0.99144486137381 -0.0
outer loop
vertex 35.0 12.0 0.0
vertex 35.517638090205 11.9318516525781 8.0
vertex 35.0 12.0 8.0
endloop
endfacet
facet normal 0.130526192220051 -0.991444861373811 -0.0
outer loop
vertex 35.0 12.0 8.0
vertex 34.4823619097949 11.9318516525781 0.0
vertex 35.0 12.0 0.0
endloop
endfacet
facet normal 0.130526192220051 -0.991444861373811 -0.0
outer loop
vertex 34.4823619097949 11.9318516525781 0.0
vertex 35.0 12.0 8.0
vertex 34.4823619097949 11.9318516525781 8.0
endloop
endfacet
facet normal 0.382683432365091 -0.923879532511286 -0.0
outer loop
vertex 34.4823619097949 11.9318516525781 8.0
vertex 34.0 11.7320508075689 0.0
vertex 34.4823619097949 11.9318516525781 0.0
endloop
endfacet
facet normal 0.382683432365091 -0.923879532511286 -0.0
outer loop
vertex 34.0 11.7320508075689 0.0
vertex 34.4823619097949 11.9318516525781 8.0
vertex 34.0 11.7320508075689 8.0
endloop
endfacet
facet normal 0.608761429008721 -0.793353340291235 -0.0
outer loop
vertex 34.0 11.7320508075689 8.0
vertex 33.5857864376269 11.4142135623731 0.0
vertex 34.0 11.7320508075689 0.0
endloop
endfacet
facet normal 0.608761429008721 -0.793353340291235 -0.0
outer loop
vertex 33.5857864376269 11.4142135623731 0.0
vertex 34.0 11.7320508075689 8.0
vertex 33.5857864376269 11.4142135623731 8.0
endloop
endfacet
facet normal 0.793353340291237 -0.608761429008718 -0.0
outer loop
vertex 33.5857864376269 11.4142135623731 0.0
vertex 33.2679491924311 11.0 8.0
vertex 33.2679491924311 11.0 0.0
endloop
endfacet
facet normal 0.793353340291237 -0.608761429008718 -0.0
outer loop
vertex 33.2679491924311 11.0 8.0
vertex 33.5857864376269 11.4142135623731 0.0
vertex 33.5857864376269 11.4142135623731 8.0
endloop
endfacet
facet normal 0.923879532511286 -0.382683432365091 -0.0
outer loop
vertex 33.2679491924311 11.0 0.0
vertex 33.0681483474219 10.517638090205 8.0
vertex 33.0681483474219 10.517638090205 0.0
endloop
endfacet
facet normal 0.923879532511286 -0.382683432365091 -0.0
outer loop
vertex 33.0681483474219 10.517638090205 8.0
vertex 33.2679491924311 11.0 0.0
vertex 33.2679491924311 11.0 8.0
endloop
endfacet
facet normal 0.99144486137381 -0.130526192220052 -0.0
outer loop
vertex 33.0681483474219 10.517638090205 0.0
vertex 33.0 10.0 8.0
vertex 33.0 10.0 0.0
endloop
endfacet
facet normal 0.99144486137381 -0.130526192220052 -0.0
outer loop
vertex 33.0 10.0 8.0
vertex 33.0681483474219 10.517638090205 0.0
vertex 33.0681483474219 10.517638090205 8.0
endloop
endfacet
facet normal 0.99144486137381 0.130526192220051 0.0
outer loop
vertex 33.0 10.0 0.0
vertex 33.0681483474219 9.48236190979496 8.0
vertex 33.0681483474219 9.48236190979496 0.0
endloop
endfacet
facet normal 0.99144486137381 0.130526192220051 0.0
outer loop
vertex 33.0681483474219 9.48236190979496 8.0
vertex 33.0 10.0 0.0
vertex 33.0 10.0 8.0
endloop
endfacet
facet normal 0.923879532511286 0.382683432365091 0.0
outer loop
vertex 33.0681483474219 9.48236190979496 0.0
vertex 33.2679491924311 9.0 8.0
vertex 33.2679491924311 9.0 0.0
endloop
endfacet
facet normal 0.923879532511286 0.382683432365091 0.0
outer loop
vertex 33.2679491924311 9.0 8.0
vertex 33.0681483474219 9.48236190979496 0.0
vertex 33.0681483474219 9.48236190979496 8.0
endloop
endfacet
facet normal 0.793353340291232 0.608761429008725 0.0
outer loop
vertex 33.2679491924311 9.0 0.0
vertex 33.5857864376269 8.5857864376269 8.0
vertex 33.5857864376269 8.5857864376269 0.0
endloop
endfacet
facet normal 0.793353340291232 0.608761429008725 0.0
outer loop
vertex 33.5857864376269 8.5857864376269 8.0
vertex 33.2679491924311 9.0 0.0
vertex 33.2679491924311 9.0 8.0
endloop
endfacet
facet normal 0.608761429008721 0.793353340291235 0.0
outer loop
vertex 33.5857864376269 8.5857864376269 8.0
vertex 34.0 8.26794919243112 0.0
vertex 33.5857864376269 8.5857864376269 0.0
endloop
endfacet
facet normal 0.608761429008721 0.793353340291235 0.0
outer loop
vertex 34.0 8.26794919243112 0.0
vertex 33.5857864376269 8.5857864376269 8.0
vertex 34.0 8.26794919243112 8.0
endloop
endfacet
facet normal 0.382683432365089 0.923879532511287 0.0
outer loop
vertex 34.0 8.26794919243112 8.0
vertex 34.482361909795 8.06814834742186 0.0
vertex 34.0 8.26794919243112 0.0
endloop
endfacet
facet normal 0.382683432365089 0.923879532511287 0.0
outer loop
vertex 34.482361909795 8.06814834742186 0.0
vertex 34.0 8.26794919243112 8.0
vertex 34.482361909795 8.06814834742186 8.0
endloop
endfacet
facet normal 0.130526192220052 0.99144486137381 0.0
outer loop
vertex 34.482361909795 8.06814834742186 8.0
vertex 35.0 8.0 0.0
vertex 34.482361909795 8.06814834742186 0.0
endloop
endfacet
facet normal 0.130526192220052 0.99144486137381 0.0
outer loop
vertex 35.0 8.0 0.0
vertex 34.482361909795 8.06814834742186 8.0
vertex 35.0 8.0 8.0
endloop
endfacet
facet normal -0.130526192220052 0.99144486137381 -0.0
outer loop
vertex 35.0 8.0 8.0
vertex 35.517638090205 8.06814834742186 0.0
vertex 35.0 8.0 0.0
endloop
endfacet
facet normal -0.130526192220052 0.99144486137381 -0.0
outer loop
vertex 35.517638090205 8.06814834742186 0.0
vertex 35.0 8.0 8.0
vertex 35.517638090205 8.06814834742186 8.0
endloop
endfacet
facet normal -0.382683432365091 0.923879532511286 -0.0
outer loop
vertex 35.517638090205 8.06814834742186 8.0
vertex 36.0 8.26794919243112 0.0
vertex 35.517638090205 8.06814834742186 0.0
endloop
endfacet
facet normal -0.382683432365091 0.923879532511286 -0.0
outer loop
vertex 36.0 8.26794919243112 0.0
vertex 35.517638090205 8.06814834742186 8.0
vertex 36.0 8.26794919243112 8.0
endloop
endfacet
facet normal -0.60876142900872 0.793353340291236 -0.0
outer loop
vertex 36.0 8.26794919243112 8.0
vertex 36.4142135623731 8.5857864376269 0.0
vertex 36.0 8.26794919243112 0.0
endloop
endfacet
facet normal -0.60876142900872 0.793353340291236 -0.0
outer loop
vertex 36.4142135623731 8.5857864376269 0.0
vertex 36.0 8.26794919243112 8.0
vertex 36.4142135623731 8.5857864376269 8.0
endloop
endfacet
facet normal -0.793353340291233 0.608761429008723 -0.0
outer loop
vertex 36.7320508075689 9.0 8.0
vertex 36.4142135623731 8.5857864376269 0.0
vertex 36.4142135623731 8.5857864376269 8.0
endloop
endfacet
facet normal -0.793353340291233 0.608761429008723 -0.0
outer loop
vertex 36.4142135623731 8.5857864376269 0.0
vertex 36.7320508075689 9.0 8.0
vertex 36.7320508075689 9.0 0.0
endloop
endfacet
facet normal -0.923879532511286 0.382683432365091 -0.0
outer loop
vertex 36.9318516525781 9.48236190979496 8.0
vertex 36.7320508075689 9.0 0.0
vertex 36.7320508075689 9.0 8.0
endloop
endfacet
facet normal -0.923879532511286 0.382683432365091 -0.0
outer loop
vertex 36.7320508075689 9.0 0.0
vertex 36.9318516525781 9.48236190979496 8.0
vertex 36.9318516525781 9.48236190979496 0.0
endloop
endfacet
endsolid CLIP_ENDSTOP_Y
