solid COIN_15MM
facet normal 0.0 -1.0 0.0
outer loop
vertex 40.0890293291316 0.0 15.6344238408238
vertex 40.0 0.0 20.0
vertex 40.0 0.0 15.0
endloop
endfacet
facet normal 0.0 -1.0 0.0
outer loop
vertex 40.0 0.0 20.0
vertex 40.0890293291316 0.0 15.6344238408238
vertex 40.2517874859479 0.0 16.2540443808651
endloop
endfacet
facet normal 0.0 -1.0 0.0
outer loop
vertex 40.0 0.0 20.0
vertex 40.2517874859479 0.0 16.2540443808651
vertex 40.4860318643163 0.0 16.8503240153102
endloop
endfacet
facet normal 0.0 -1.0 0.0
outer loop
vertex 40.0 0.0 20.0
vertex 40.4860318643163 0.0 16.8503240153102
vertex 40.7885348663715 0.0 17.4150467481614
endloop
endfacet
facet normal 0.0 -1.0 0.0
outer loop
vertex 40.0 0.0 20.0
vertex 40.7885348663715 0.0 17.4150467481614
vertex 41.1551283748232 0.0 17.9404313985009
endloop
endfacet
facet normal 0.0 -1.0 0.0
outer loop
vertex 40.0 0.0 20.0
vertex 41.1551283748232 0.0 17.9404313985009
vertex 41.5807611844575 0.0 18.4192388155425
endloop
endfacet
facet normal 0.0 -1.0 0.0
outer loop
vertex 40.0 0.0 20.0
vertex 41.5807611844575 0.0 18.4192388155425
vertex 42.0595686014991 0.0 18.8448716251768
endloop
endfacet
facet normal 0.0 -1.0 0.0
outer loop
vertex 40.0 0.0 20.0
vertex 42.0595686014991 0.0 18.8448716251768
vertex 42.5849532518386 0.0 19.2114651336285
endloop
endfacet
facet normal 0.0 -1.0 0.0
outer loop
vertex 40.0 0.0 20.0
vertex 42.5849532518386 0.0 19.2114651336285
vertex 43.1496759846898 0.0 19.5139681356837
endloop
endfacet
facet normal 0.0 -1.0 0.0
outer loop
vertex 40.0 0.0 20.0
vertex 43.1496759846898 0.0 19.5139681356837
vertex 43.7459556191349 0.0 19.7482125140521
endloop
endfacet
facet normal 0.0 -1.0 0.0
outer loop
vertex 40.0 0.0 20.0
vertex 43.7459556191349 0.0 19.7482125140521
vertex 44.3655761591762 0.0 19.9109706708684
endloop
endfacet
facet normal 0.0 -1.0 0.0
outer loop
vertex 40.0 0.0 20.0
vertex 44.3655761591762 0.0 19.9109706708684
vertex 45.0 0.0 20.0
endloop
endfacet
facet normal 0.472188624454214 0.0 -0.881497534276777
outer loop
vertex 43.1496759846898 5.00000000000001 19.5139681356837
vertex 42.5849532518386 0.0 19.2114651336285
vertex 42.5849532518386 5.00000000000001 19.2114651336285
endloop
endfacet
facet normal 0.472188624454214 0.0 -0.881497534276777
outer loop
vertex 42.5849532518386 0.0 19.2114651336285
vertex 43.1496759846898 5.00000000000001 19.5139681356837
vertex 43.1496759846898 0.0 19.5139681356837
endloop
endfacet
facet normal -1.0 1.12798659301916e-015 0.0
outer loop
vertex 20.0 5.00000000000001 45.0
vertex 20.0 0.0 40.0
vertex 20.0 0.0 45.0
endloop
endfacet
facet normal -1.0 1.12798659301916e-015 0.0
outer loop
vertex 20.0 0.0 40.0
vertex 20.0 5.00000000000001 45.0
vertex 20.0 5.00000000000001 40.0
endloop
endfacet
facet normal 0.0 0.0 -1.0
outer loop
vertex 45.0 5.00000000000001 20.0
vertex 40.0 0.0 20.0
vertex 40.0 5.00000000000001 20.0
endloop
endfacet
facet normal 0.0 0.0 -1.0
outer loop
vertex 40.0 0.0 20.0
vertex 45.0 5.00000000000001 20.0
vertex 45.0 0.0 20.0
endloop
endfacet
facet normal 0.707106781186548 0.707106781186547 -1.26620106330553e-016
outer loop
vertex 25.0 45.0 -10.0
vertex 45.0 25.0 5.0
vertex 45.0 25.0 -10.0
endloop
endfacet
facet normal 0.707106781186548 0.707106781186547 -1.26620106330553e-016
outer loop
vertex 45.0 25.0 5.0
vertex 25.0 45.0 -10.0
vertex 25.0 45.0 5.0
endloop
endfacet
facet normal -1.0 0.0 0.0
outer loop
vertex 0.0 40.0 20.0
vertex 0.0 40.1823725421879 17.0225424859374
vertex 0.0 40.0172140955654 16.3604943991027
endloop
endfacet
facet normal -1.0 0.0 0.0
outer loop
vertex 0.0 40.1823725421879 17.0225424859374
vertex 0.0 40.0 20.0
vertex 0.0 40.4474746369907 17.6512760233786
endloop
endfacet
facet normal -1.0 0.0 0.0
outer loop
vertex 0.0 40.4474746369907 17.6512760233786
vertex 0.0 40.0 20.0
vertex 0.0 40.8062008892104 18.2317072921268
endloop
endfacet
facet normal -1.0 0.0 0.0
outer loop
vertex 0.0 40.8062008892104 18.2317072921268
vertex 0.0 40.0 20.0
vertex 0.0 41.25 18.75
endloop
endfacet
facet normal -1.0 0.0 0.0
outer loop
vertex 0.0 41.25 18.75
vertex 0.0 40.0 20.0
vertex 0.0 41.7682927078732 19.1937991107897
endloop
endfacet
facet normal -1.0 0.0 0.0
outer loop
vertex 0.0 41.7682927078732 19.1937991107897
vertex 0.0 40.0 20.0
vertex 0.0 42.3487239766214 19.5525253630093
endloop
endfacet
facet normal -1.0 0.0 0.0
outer loop
vertex 0.0 42.3487239766214 19.5525253630093
vertex 0.0 40.0 20.0
vertex 0.0 42.9774575140626 19.8176274578121
endloop
endfacet
facet normal -1.0 0.0 0.0
outer loop
vertex 0.0 42.9774575140626 19.8176274578121
vertex 0.0 40.0 20.0
vertex 0.0 43.6395056008973 19.9827859044346
endloop
endfacet
facet normal 0.0 -0.00472973664800409 -0.999988814733065
outer loop
vertex 5.0 43.6395056008973 19.9827859044346
vertex 0.0 40.0 20.0
vertex 0.0 43.6395056008973 19.9827859044346
endloop
endfacet
facet normal 0.0 -0.00472973664800409 -0.999988814733065
outer loop
vertex 0.0 40.0 20.0
vertex 5.0 43.6395056008973 19.9827859044346
vertex 5.0 40.0 20.0
endloop
endfacet
facet normal -1.0 0.0 0.0
outer loop
vertex 20.0 45.0 5.0
vertex 20.0 40.0 -10.0
vertex 20.0 40.0 5.0
endloop
endfacet
facet normal -1.0 0.0 0.0
outer loop
vertex 20.0 40.0 -10.0
vertex 20.0 45.0 5.0
vertex 20.0 45.0 -10.0
endloop
endfacet
facet normal 0.0 1.0 0.0
outer loop
vertex 20.0 45.0 5.0
vertex 25.0 45.0 -10.0
vertex 20.0 45.0 -10.0
endloop
endfacet
facet normal 0.0 1.0 0.0
outer loop
vertex 25.0 45.0 -10.0
vertex 20.0 45.0 5.0
vertex 25.0 45.0 5.0
endloop
endfacet
facet normal 0.747388998110107 0.0 -0.664386698771108
outer loop
vertex 41.1551283748232 5.00000000000001 17.9404313985009
vertex 41.5807611844575 0.0 18.4192388155425
vertex 41.1551283748232 0.0 17.9404313985009
endloop
endfacet
facet normal 0.747388998110107 0.0 -0.664386698771108
outer loop
vertex 41.5807611844575 0.0 18.4192388155425
vertex 41.1551283748232 5.00000000000001 17.9404313985009
vertex 41.5807611844575 5.00000000000001 18.4192388155425
endloop
endfacet
facet normal -1.0 0.0 0.0
outer loop
vertex 0.0 45.0 20.0
vertex 0.0 43.8304128461459 20.0
vertex 0.0 44.3190863672277 20.0440636639078
endloop
endfacet
facet normal 0.664386698771103 0.0 -0.747388998110111
outer loop
vertex 42.0595686014991 5.00000000000001 18.8448716251768
vertex 41.5807611844575 0.0 18.4192388155425
vertex 41.5807611844575 5.00000000000001 18.4192388155425
endloop
endfacet
facet normal 0.664386698771103 0.0 -0.747388998110111
outer loop
vertex 41.5807611844575 0.0 18.4192388155425
vertex 42.0595686014991 5.00000000000001 18.8448716251768
vertex 42.0595686014991 0.0 18.8448716251768
endloop
endfacet
facet normal -1.0 0.0 0.0
outer loop
vertex 0.0 40.0 15.0
vertex 0.0 39.9559363360922 15.6809136327723
vertex 0.0 40.0 16.1695871538541
endloop
endfacet
facet normal 0.967189642740298 0.0 -0.254055495858474
outer loop
vertex 40.0890293291316 5.00000000000001 15.6344238408238
vertex 40.2517874859479 0.0 16.2540443808651
vertex 40.0890293291316 0.0 15.6344238408238
endloop
endfacet
facet normal 0.967189642740298 0.0 -0.254055495858474
outer loop
vertex 40.2517874859479 0.0 16.2540443808651
vertex 40.0890293291316 5.00000000000001 15.6344238408238
vertex 40.2517874859479 5.00000000000001 16.2540443808651
endloop
endfacet
facet normal 0.572229972309551 0.0 -0.820093201283007
outer loop
vertex 42.5849532518386 5.00000000000001 19.2114651336285
vertex 42.0595686014991 0.0 18.8448716251768
vertex 42.0595686014991 5.00000000000001 18.8448716251768
endloop
endfacet
facet normal 0.572229972309551 0.0 -0.820093201283007
outer loop
vertex 42.0595686014991 0.0 18.8448716251768
vertex 42.5849532518386 5.00000000000001 19.2114651336285
vertex 42.5849532518386 0.0 19.2114651336285
endloop
endfacet
facet normal 0.820093201283007 0.0 -0.57222997230955
outer loop
vertex 40.7885348663715 5.00000000000001 17.4150467481614
vertex 41.1551283748232 0.0 17.9404313985009
vertex 40.7885348663715 0.0 17.4150467481614
endloop
endfacet
facet normal 0.820093201283007 0.0 -0.57222997230955
outer loop
vertex 41.1551283748232 0.0 17.9404313985009
vertex 40.7885348663715 5.00000000000001 17.4150467481614
vertex 41.1551283748232 5.00000000000001 17.9404313985009
endloop
endfacet
facet normal 0.0 -1.0 0.0
outer loop
vertex 5.0 20.0 45.0
vertex 0.0 20.0 40.0
vertex 5.0 20.0 40.0
endloop
endfacet
facet normal 0.0 -1.0 0.0
outer loop
vertex 0.0 20.0 40.0
vertex 5.0 20.0 45.0
vertex 0.0 20.0 45.0
endloop
endfacet
facet normal 0.0 0.0 1.0
outer loop
vertex 25.0 0.0 45.0
vertex 20.0 5.00000000000001 45.0
vertex 20.0 0.0 45.0
endloop
endfacet
facet normal 0.0 0.0 1.0
outer loop
vertex 20.0 5.00000000000001 45.0
vertex 25.0 0.0 45.0
vertex 25.0 5.00000000000001 45.0
endloop
endfacet
facet normal 0.0 0.0 1.0
outer loop
vertex 0.0 0.0 40.0
vertex 5.0 5.00000000000001 40.0
vertex 0.0 20.0 40.0
endloop
endfacet
facet normal 0.0 0.0 1.0
outer loop
vertex 5.0 5.00000000000001 40.0
vertex 0.0 0.0 40.0
vertex 20.0 0.0 40.0
endloop
endfacet
facet normal 0.0 0.0 1.0
outer loop
vertex 0.0 20.0 40.0
vertex 5.0 5.00000000000001 40.0
vertex 5.0 20.0 40.0
endloop
endfacet
facet normal 0.0 0.0 1.0
outer loop
vertex 5.0 5.00000000000001 40.0
vertex 20.0 0.0 40.0
vertex 20.0 5.00000000000001 40.0
endloop
endfacet
facet normal -8.51856224504454e-005 0.999999761198453 -0.000685818085688868
outer loop
vertex 3.0583549311845e-016 40.0 -10.0
vertex 5.0 40.0 5.0
vertex 20.0 40.0 -10.0
endloop
endfacet
facet normal -8.51856224504454e-005 0.999999761198453 -0.000685818085688868
outer loop
vertex 5.0 40.0 5.0
vertex 3.0583549311845e-016 40.0 -10.0
vertex 0.0 40.0 15.0
endloop
endfacet
facet normal -8.51856224504454e-005 0.999999761198453 -0.000685818085688868
outer loop
vertex 5.0 40.0 5.0
vertex 0.0 40.0 15.0
vertex 5.0 40.0172140955654 16.3604943991027
endloop
endfacet
facet normal -8.51856224504454e-005 0.999999761198453 -0.000685818085688868
outer loop
vertex 5.0 40.0172140955654 16.3604943991027
vertex 0.0 40.0 15.0
vertex 0.0 40.0 16.1695871538541
endloop
endfacet
facet normal -8.51856224504454e-005 0.999999761198453 -0.000685818085688868
outer loop
vertex 5.0 40.0172140955654 16.3604943991027
vertex 0.0 40.0 16.1695871538541
vertex 0.0 40.0172140955654 16.3604943991027
endloop
endfacet
facet normal -8.51856224504454e-005 0.999999761198453 -0.000685818085688868
outer loop
vertex 20.0 40.0 5.0
vertex 20.0 40.0 -10.0
vertex 5.0 40.0 5.0
endloop
endfacet
facet normal 0.0 -1.0 0.0
outer loop
vertex 45.0 20.0 5.0
vertex 40.0 20.0 -10.0
vertex 45.0 20.0 -10.0
endloop
endfacet
facet normal 0.0 -1.0 0.0
outer loop
vertex 40.0 20.0 -10.0
vertex 45.0 20.0 5.0
vertex 40.0 20.0 5.0
endloop
endfacet
facet normal 0.707106781186547 0.0 0.707106781186548
outer loop
vertex 45.0 0.0 25.0
vertex 25.0 5.00000000000001 45.0
vertex 25.0 0.0 45.0
endloop
endfacet
facet normal 0.707106781186547 0.0 0.707106781186548
outer loop
vertex 25.0 5.00000000000001 45.0
vertex 45.0 0.0 25.0
vertex 45.0 5.00000000000001 25.0
endloop
endfacet
facet normal 1.0 0.0 0.0
outer loop
vertex 40.0 20.0 -10.0
vertex 40.0 5.00000000000001 5.0
vertex 40.0 3.10211145801227e-016 -10.0
endloop
endfacet
facet normal 1.0 0.0 0.0
outer loop
vertex 40.0 5.00000000000001 5.0
vertex 40.0 20.0 -10.0
vertex 40.0 20.0 5.0
endloop
endfacet
facet normal 1.0 0.0 0.0
outer loop
vertex 40.0 3.10211145801227e-016 -10.0
vertex 40.0 5.00000000000001 15.0
vertex 40.0 0.0 15.0
endloop
endfacet
facet normal 1.0 0.0 0.0
outer loop
vertex 40.0 5.00000000000001 15.0
vertex 40.0 3.10211145801227e-016 -10.0
vertex 40.0 5.00000000000001 5.0
endloop
endfacet
facet normal 1.0 0.0 0.0
outer loop
vertex 45.0 5.00000000000001 20.0
vertex 45.0 0.0 25.0
vertex 45.0 0.0 20.0
endloop
endfacet
facet normal 1.0 0.0 0.0
outer loop
vertex 45.0 0.0 25.0
vertex 45.0 5.00000000000001 20.0
vertex 45.0 5.00000000000001 25.0
endloop
endfacet
facet normal -0.382683432365087 0.0 -0.923879532511288
outer loop
vertex 25.2132034355964 5.00000000000001 28.1414066658719
vertex 23.2837557964166 0.0 28.940610045909
vertex 23.2837557964166 5.00000000000001 28.940610045909
endloop
endfacet
facet normal -0.382683432365087 0.0 -0.923879532511288
outer loop
vertex 23.2837557964166 0.0 28.940610045909
vertex 25.2132034355964 5.00000000000001 28.1414066658719
vertex 25.2132034355964 0.0 28.1414066658719
endloop
endfacet
facet normal -0.608761429008718 0.0 -0.793353340291237
outer loop
vertex 26.8700576850888 5.00000000000001 26.8700576850888
vertex 25.2132034355964 0.0 28.1414066658719
vertex 25.2132034355964 5.00000000000001 28.1414066658719
endloop
endfacet
facet normal -0.608761429008718 0.0 -0.793353340291237
outer loop
vertex 25.2132034355964 0.0 28.1414066658719
vertex 26.8700576850888 5.00000000000001 26.8700576850888
vertex 26.8700576850888 0.0 26.8700576850888
endloop
endfacet
facet normal -2.93185265504376e-018 -1.0 -5.87648455049508e-018
outer loop
vertex 45.0 0.0 25.0
vertex 40.0 0.0 20.0
vertex 45.0 0.0 20.0
endloop
endfacet
facet normal -2.93185265504376e-018 -1.0 -5.87648455049508e-018
outer loop
vertex 40.0 0.0 20.0
vertex 45.0 0.0 25.0
vertex 29.2132034355964 0.0 21.2132034355964
endloop
endfacet
facet normal -2.93185265504376e-018 -1.0 -5.87648455049508e-018
outer loop
vertex 29.2132034355964 0.0 21.2132034355964
vertex 45.0 0.0 25.0
vertex 28.940610045909 0.0 23.2837557964166
endloop
endfacet
facet normal -2.93185265504376e-018 -1.0 -5.87648455049508e-018
outer loop
vertex 28.940610045909 0.0 23.2837557964166
vertex 45.0 0.0 25.0
vertex 28.1414066658719 0.0 25.2132034355964
endloop
endfacet
facet normal -2.93185265504376e-018 -1.0 -5.87648455049508e-018
outer loop
vertex 28.1414066658719 0.0 25.2132034355964
vertex 45.0 0.0 25.0
vertex 25.0 0.0 45.0
endloop
endfacet
facet normal -2.93185265504376e-018 -1.0 -5.87648455049508e-018
outer loop
vertex 28.1414066658719 0.0 25.2132034355964
vertex 25.0 0.0 45.0
vertex 26.8700576850888 0.0 26.8700576850888
endloop
endfacet
facet normal -2.93185265504376e-018 -1.0 -5.87648455049508e-018
outer loop
vertex 26.8700576850888 0.0 26.8700576850888
vertex 25.0 0.0 45.0
vertex 25.2132034355964 0.0 28.1414066658719
endloop
endfacet
facet normal -2.93185265504376e-018 -1.0 -5.87648455049508e-018
outer loop
vertex 25.2132034355964 0.0 28.1414066658719
vertex 25.0 0.0 45.0
vertex 23.2837557964166 0.0 28.940610045909
endloop
endfacet
facet normal -2.93185265504376e-018 -1.0 -5.87648455049508e-018
outer loop
vertex 23.2837557964166 0.0 28.940610045909
vertex 25.0 0.0 45.0
vertex 21.2132034355964 0.0 29.2132034355964
endloop
endfacet
facet normal -2.93185265504376e-018 -1.0 -5.87648455049508e-018
outer loop
vertex 21.2132034355964 0.0 29.2132034355964
vertex 25.0 0.0 45.0
vertex 20.0 0.0 40.0
endloop
endfacet
facet normal -2.93185265504376e-018 -1.0 -5.87648455049508e-018
outer loop
vertex 20.0 0.0 40.0
vertex 25.0 0.0 45.0
vertex 20.0 0.0 45.0
endloop
endfacet
facet normal -2.93185265504376e-018 -1.0 -5.87648455049508e-018
outer loop
vertex 9.19238815542512 0.0 9.19238815542512
vertex 0.0 0.0 40.0
vertex 3.0583549311845e-016 3.10211145801227e-016 -5.0
endloop
endfacet
facet normal -2.93185265504376e-018 -1.0 -5.87648455049508e-018
outer loop
vertex 0.0 0.0 40.0
vertex 9.19238815542512 0.0 9.19238815542512
vertex 13.4857968252839 0.0 23.2837557964166
endloop
endfacet
facet normal -2.93185265504376e-018 -1.0 -5.87648455049508e-018
outer loop
vertex 0.0 0.0 40.0
vertex 13.4857968252839 0.0 23.2837557964166
vertex 14.2850002053209 0.0 25.2132034355964
endloop
endfacet
facet normal -2.93185265504376e-018 -1.0 -5.87648455049508e-018
outer loop
vertex 0.0 0.0 40.0
vertex 14.2850002053209 0.0 25.2132034355964
vertex 15.556349186104 0.0 26.8700576850888
endloop
endfacet
facet normal -2.93185265504376e-018 -1.0 -5.87648455049508e-018
outer loop
vertex 0.0 0.0 40.0
vertex 15.556349186104 0.0 26.8700576850888
vertex 17.2132034355964 0.0 28.1414066658719
endloop
endfacet
facet normal -2.93185265504376e-018 -1.0 -5.87648455049508e-018
outer loop
vertex 0.0 0.0 40.0
vertex 17.2132034355964 0.0 28.1414066658719
vertex 19.1426510747763 0.0 28.940610045909
endloop
endfacet
facet normal -2.93185265504376e-018 -1.0 -5.87648455049508e-018
outer loop
vertex 0.0 0.0 40.0
vertex 19.1426510747763 0.0 28.940610045909
vertex 21.2132034355964 0.0 29.2132034355964
endloop
endfacet
facet normal -2.93185265504376e-018 -1.0 -5.87648455049508e-018
outer loop
vertex 0.0 0.0 40.0
vertex 21.2132034355964 0.0 29.2132034355964
vertex 20.0 0.0 40.0
endloop
endfacet
facet normal -2.93185265504376e-018 -1.0 -5.87648455049508e-018
outer loop
vertex 40.0 0.0 15.0
vertex 5.0 3.10211145801227e-016 -10.0
vertex 40.0 3.10211145801227e-016 -10.0
endloop
endfacet
facet normal -2.93185265504376e-018 -1.0 -5.87648455049508e-018
outer loop
vertex 5.0 3.10211145801227e-016 -10.0
vertex 40.0 0.0 15.0
vertex 3.0583549311845e-016 3.10211145801227e-016 -5.0
endloop
endfacet
facet normal -2.93185265504376e-018 -1.0 -5.87648455049508e-018
outer loop
vertex 3.0583549311845e-016 3.10211145801227e-016 -5.0
vertex 40.0 0.0 15.0
vertex 9.19238815542512 0.0 9.19238815542512
endloop
endfacet
facet normal -2.93185265504376e-018 -1.0 -5.87648455049508e-018
outer loop
vertex 9.19238815542512 0.0 9.19238815542512
vertex 40.0 0.0 15.0
vertex 23.2837557964166 0.0 13.4857968252839
endloop
endfacet
facet normal -2.93185265504376e-018 -1.0 -5.87648455049508e-018
outer loop
vertex 23.2837557964166 0.0 13.4857968252839
vertex 40.0 0.0 15.0
vertex 25.2132034355964 0.0 14.2850002053209
endloop
endfacet
facet normal -2.93185265504376e-018 -1.0 -5.87648455049508e-018
outer loop
vertex 25.2132034355964 0.0 14.2850002053209
vertex 40.0 0.0 15.0
vertex 26.8700576850888 0.0 15.5563491861041
endloop
endfacet
facet normal -2.93185265504376e-018 -1.0 -5.87648455049508e-018
outer loop
vertex 26.8700576850888 0.0 15.5563491861041
vertex 40.0 0.0 15.0
vertex 40.0 0.0 20.0
endloop
endfacet
facet normal -2.93185265504376e-018 -1.0 -5.87648455049508e-018
outer loop
vertex 26.8700576850888 0.0 15.5563491861041
vertex 40.0 0.0 20.0
vertex 28.141406665872 0.0 17.2132034355964
endloop
endfacet
facet normal -2.93185265504376e-018 -1.0 -5.87648455049508e-018
outer loop
vertex 28.141406665872 0.0 17.2132034355964
vertex 40.0 0.0 20.0
vertex 28.940610045909 0.0 19.1426510747763
endloop
endfacet
facet normal -2.93185265504376e-018 -1.0 -5.87648455049508e-018
outer loop
vertex 28.940610045909 0.0 19.1426510747763
vertex 40.0 0.0 20.0
vertex 29.2132034355964 0.0 21.2132034355964
endloop
endfacet
facet normal 0.0 1.0 0.0
outer loop
vertex 0.0 45.0 25.0
vertex 5.0 45.0 20.0
vertex 0.0 45.0 20.0
endloop
endfacet
facet normal 0.0 1.0 0.0
outer loop
vertex 5.0 45.0 20.0
vertex 0.0 45.0 25.0
vertex 5.0 45.0 25.0
endloop
endfacet
facet normal -0.99144486137381 0.0 0.130526192220052
outer loop
vertex 29.2132034355964 5.00000000000001 21.2132034355964
vertex 28.940610045909 0.0 19.1426510747763
vertex 29.2132034355964 0.0 21.2132034355964
endloop
endfacet
facet normal -0.99144486137381 0.0 0.130526192220052
outer loop
vertex 28.940610045909 0.0 19.1426510747763
vertex 29.2132034355964 5.00000000000001 21.2132034355964
vertex 28.940610045909 5.00000000000001 19.1426510747763
endloop
endfacet
facet normal -0.923879532511288 0.0 0.382683432365087
outer loop
vertex 28.940610045909 5.00000000000001 19.1426510747763
vertex 28.141406665872 0.0 17.2132034355964
vertex 28.940610045909 0.0 19.1426510747763
endloop
endfacet
facet normal -0.923879532511288 0.0 0.382683432365087
outer loop
vertex 28.141406665872 0.0 17.2132034355964
vertex 28.940610045909 5.00000000000001 19.1426510747763
vertex 28.141406665872 5.00000000000001 17.2132034355964
endloop
endfacet
facet normal 0.608761429008721 0.0 -0.793353340291235
outer loop
vertex 17.2132034355964 5.00000000000001 28.1414066658719
vertex 15.556349186104 0.0 26.8700576850888
vertex 15.556349186104 5.00000000000001 26.8700576850888
endloop
endfacet
facet normal 0.608761429008721 0.0 -0.793353340291235
outer loop
vertex 15.556349186104 0.0 26.8700576850888
vertex 17.2132034355964 5.00000000000001 28.1414066658719
vertex 17.2132034355964 0.0 28.1414066658719
endloop
endfacet
facet normal 0.793353340291236 0.0 -0.60876142900872
outer loop
vertex 14.2850002053209 5.00000000000001 25.2132034355964
vertex 15.556349186104 0.0 26.8700576850888
vertex 14.2850002053209 0.0 25.2132034355964
endloop
endfacet
facet normal 0.793353340291236 0.0 -0.60876142900872
outer loop
vertex 15.556349186104 0.0 26.8700576850888
vertex 14.2850002053209 5.00000000000001 25.2132034355964
vertex 15.556349186104 5.00000000000001 26.8700576850888
endloop
endfacet
facet normal -0.60876142900872 0.0 0.793353340291236
outer loop
vertex 26.8700576850888 0.0 15.5563491861041
vertex 25.2132034355964 5.00000000000001 14.2850002053209
vertex 25.2132034355964 0.0 14.2850002053209
endloop
endfacet
facet normal -0.60876142900872 0.0 0.793353340291236
outer loop
vertex 25.2132034355964 5.00000000000001 14.2850002053209
vertex 26.8700576850888 0.0 15.5563491861041
vertex 26.8700576850888 5.00000000000001 15.5563491861041
endloop
endfacet
facet normal 0.956584366242731 0.0 -0.291455571674299
outer loop
vertex 9.19238815542512 5.00000000000001 9.19238815542512
vertex 13.4857968252839 0.0 23.2837557964166
vertex 9.19238815542512 0.0 9.19238815542512
endloop
endfacet
facet normal 0.956584366242731 0.0 -0.291455571674299
outer loop
vertex 13.4857968252839 0.0 23.2837557964166
vertex 9.19238815542512 5.00000000000001 9.19238815542512
vertex 13.4857968252839 5.00000000000001 23.2837557964166
endloop
endfacet
facet normal -0.291455571674299 0.0 0.956584366242731
outer loop
vertex 23.2837557964166 0.0 13.4857968252839
vertex 9.19238815542512 5.00000000000001 9.19238815542512
vertex 9.19238815542512 0.0 9.19238815542512
endloop
endfacet
facet normal -0.291455571674299 0.0 0.956584366242731
outer loop
vertex 9.19238815542512 5.00000000000001 9.19238815542512
vertex 23.2837557964166 0.0 13.4857968252839
vertex 23.2837557964166 5.00000000000001 13.4857968252839
endloop
endfacet
facet normal -0.793353340291236 0.0 0.60876142900872
outer loop
vertex 28.141406665872 5.00000000000001 17.2132034355964
vertex 26.8700576850888 0.0 15.5563491861041
vertex 28.141406665872 0.0 17.2132034355964
endloop
endfacet
facet normal -0.793353340291236 0.0 0.60876142900872
outer loop
vertex 26.8700576850888 0.0 15.5563491861041
vertex 28.141406665872 5.00000000000001 17.2132034355964
vertex 26.8700576850888 5.00000000000001 15.5563491861041
endloop
endfacet
facet normal 0.923879532511286 0.0 -0.382683432365091
outer loop
vertex 13.4857968252839 5.00000000000001 23.2837557964166
vertex 14.2850002053209 0.0 25.2132034355964
vertex 13.4857968252839 0.0 23.2837557964166
endloop
endfacet
facet normal 0.923879532511286 0.0 -0.382683432365091
outer loop
vertex 14.2850002053209 0.0 25.2132034355964
vertex 13.4857968252839 5.00000000000001 23.2837557964166
vertex 14.2850002053209 5.00000000000001 25.2132034355964
endloop
endfacet
facet normal 0.130526192220051 0.0 -0.99144486137381
outer loop
vertex 21.2132034355964 5.00000000000001 29.2132034355964
vertex 19.1426510747763 0.0 28.940610045909
vertex 19.1426510747763 5.00000000000001 28.940610045909
endloop
endfacet
facet normal 0.130526192220051 0.0 -0.99144486137381
outer loop
vertex 19.1426510747763 0.0 28.940610045909
vertex 21.2132034355964 5.00000000000001 29.2132034355964
vertex 21.2132034355964 0.0 29.2132034355964
endloop
endfacet
facet normal 1.0 6.58411130295875e-017 5.84326473471634e-017
outer loop
vertex 5.0 5.00000000000001 5.0
vertex 5.0 9.19238815542512 9.19238815542512
vertex 5.0 5.00000000000001 40.0
endloop
endfacet
facet normal 1.0 6.58411130295875e-017 5.84326473471634e-017
outer loop
vertex 5.0 9.19238815542512 9.19238815542512
vertex 5.0 5.00000000000001 5.0
vertex 5.0 40.0 5.0
endloop
endfacet
facet normal 1.0 6.58411130295875e-017 5.84326473471634e-017
outer loop
vertex 5.0 9.19238815542512 9.19238815542512
vertex 5.0 40.0 5.0
vertex 5.0 23.0249367513141 14.451722651573
endloop
endfacet
facet normal 1.0 6.58411130295875e-017 5.84326473471634e-017
outer loop
vertex 5.0 23.0249367513141 14.451722651573
vertex 5.0 40.0 5.0
vertex 5.0 24.7132034355964 15.1510256091054
endloop
endfacet
facet normal 1.0 6.58411130295875e-017 5.84326473471634e-017
outer loop
vertex 5.0 24.7132034355964 15.1510256091054
vertex 5.0 40.0 5.0
vertex 5.0 26.1629509039023 16.2634559672906
endloop
endfacet
facet normal 1.0 6.58411130295875e-017 5.84326473471634e-017
outer loop
vertex 5.0 26.1629509039023 16.2634559672906
vertex 5.0 40.0 5.0
vertex 5.0 27.2753812620875 17.7132034355964
endloop
endfacet
facet normal 1.0 6.58411130295875e-017 5.84326473471634e-017
outer loop
vertex 5.0 27.2753812620875 17.7132034355964
vertex 5.0 40.0 5.0
vertex 5.0 27.9746842196199 19.4014701198788
endloop
endfacet
facet normal 1.0 6.58411130295875e-017 5.84326473471634e-017
outer loop
vertex 5.0 27.9746842196199 19.4014701198788
vertex 5.0 40.0 5.0
vertex 5.0 28.2132034355964 21.2132034355965
endloop
endfacet
facet normal 1.0 6.58411130295875e-017 5.84326473471634e-017
outer loop
vertex 5.0 40.0172140955654 16.3604943991027
vertex 5.0 40.0 20.0
vertex 5.0 40.0 5.0
endloop
endfacet
facet normal 1.0 6.58411130295875e-017 5.84326473471634e-017
outer loop
vertex 5.0 9.19238815542512 9.19238815542512
vertex 5.0 20.0 40.0
vertex 5.0 5.00000000000001 40.0
endloop
endfacet
facet normal 1.0 6.58411130295875e-017 5.84326473471634e-017
outer loop
vertex 5.0 20.0 40.0
vertex 5.0 9.19238815542512 9.19238815542512
vertex 5.0 14.4517226515729 23.0249367513141
endloop
endfacet
facet normal 1.0 6.58411130295875e-017 5.84326473471634e-017
outer loop
vertex 5.0 20.0 40.0
vertex 5.0 14.4517226515729 23.0249367513141
vertex 5.0 15.1510256091054 24.7132034355964
endloop
endfacet
facet normal 1.0 6.58411130295875e-017 5.84326473471634e-017
outer loop
vertex 5.0 20.0 40.0
vertex 5.0 15.1510256091054 24.7132034355964
vertex 5.0 16.2634559672906 26.1629509039023
endloop
endfacet
facet normal 1.0 6.58411130295875e-017 5.84326473471634e-017
outer loop
vertex 5.0 20.0 40.0
vertex 5.0 16.2634559672906 26.1629509039023
vertex 5.0 17.7132034355964 27.2753812620875
endloop
endfacet
facet normal 1.0 6.58411130295875e-017 5.84326473471634e-017
outer loop
vertex 5.0 20.0 40.0
vertex 5.0 17.7132034355964 27.2753812620875
vertex 5.0 19.4014701198788 27.9746842196199
endloop
endfacet
facet normal 1.0 6.58411130295875e-017 5.84326473471634e-017
outer loop
vertex 5.0 20.0 40.0
vertex 5.0 19.4014701198788 27.9746842196199
vertex 5.0 21.2132034355964 28.2132034355964
endloop
endfacet
facet normal 1.0 6.58411130295875e-017 5.84326473471634e-017
outer loop
vertex 5.0 20.0 40.0
vertex 5.0 21.2132034355964 28.2132034355964
vertex 5.0 20.0 45.0
endloop
endfacet
facet normal 1.0 6.58411130295875e-017 5.84326473471634e-017
outer loop
vertex 5.0 20.0 45.0
vertex 5.0 21.2132034355964 28.2132034355964
vertex 5.0 25.0 45.0
endloop
endfacet
facet normal 1.0 6.58411130295875e-017 5.84326473471634e-017
outer loop
vertex 5.0 25.0 45.0
vertex 5.0 21.2132034355964 28.2132034355964
vertex 5.0 23.024936751314 27.9746842196199
endloop
endfacet
facet normal 1.0 6.58411130295875e-017 5.84326473471634e-017
outer loop
vertex 5.0 25.0 45.0
vertex 5.0 23.024936751314 27.9746842196199
vertex 5.0 24.7132034355964 27.2753812620875
endloop
endfacet
facet normal 1.0 6.58411130295875e-017 5.84326473471634e-017
outer loop
vertex 5.0 25.0 45.0
vertex 5.0 24.7132034355964 27.2753812620875
vertex 5.0 26.1629509039022 26.1629509039023
endloop
endfacet
facet normal 1.0 6.58411130295875e-017 5.84326473471634e-017
outer loop
vertex 5.0 25.0 45.0
vertex 5.0 26.1629509039022 26.1629509039023
vertex 5.0 45.0 25.0
endloop
endfacet
facet normal 1.0 6.58411130295875e-017 5.84326473471634e-017
outer loop
vertex 5.0 45.0 25.0
vertex 5.0 26.1629509039022 26.1629509039023
vertex 5.0 27.2753812620875 24.7132034355964
endloop
endfacet
facet normal 1.0 6.58411130295875e-017 5.84326473471634e-017
outer loop
vertex 5.0 45.0 25.0
vertex 5.0 27.2753812620875 24.7132034355964
vertex 5.0 27.9746842196199 23.0249367513141
endloop
endfacet
facet normal 1.0 6.58411130295875e-017 5.84326473471634e-017
outer loop
vertex 5.0 45.0 25.0
vertex 5.0 27.9746842196199 23.0249367513141
vertex 5.0 28.2132034355964 21.2132034355965
endloop
endfacet
facet normal 1.0 6.58411130295875e-017 5.84326473471634e-017
outer loop
vertex 5.0 45.0 25.0
vertex 5.0 28.2132034355964 21.2132034355965
vertex 5.0 40.0 20.0
endloop
endfacet
facet normal 1.0 6.58411130295875e-017 5.84326473471634e-017
outer loop
vertex 5.0 40.0 20.0
vertex 5.0 28.2132034355964 21.2132034355965
vertex 5.0 40.0 5.0
endloop
endfacet
facet normal 1.0 6.58411130295875e-017 5.84326473471634e-017
outer loop
vertex 5.0 45.0 25.0
vertex 5.0 40.0 20.0
vertex 5.0 43.6395056008973 19.9827859044346
endloop
endfacet
facet normal 1.0 6.58411130295875e-017 5.84326473471634e-017
outer loop
vertex 5.0 45.0 25.0
vertex 5.0 43.6395056008973 19.9827859044346
vertex 5.0 45.0 20.0
endloop
endfacet
facet normal -0.577350269189626 -0.577350269189626 -0.577350269189626
outer loop
vertex 3.0583549311845e-016 5.0 -10.0
vertex 5.0 3.10211145801227e-016 -10.0
vertex 3.0583549311845e-016 3.10211145801227e-016 -5.0
endloop
endfacet
facet normal 1.0 0.0 0.0
outer loop
vertex 45.0 25.0 -10.0
vertex 45.0 20.0 5.0
vertex 45.0 20.0 -10.0
endloop
endfacet
facet normal 1.0 0.0 0.0
outer loop
vertex 45.0 20.0 5.0
vertex 45.0 25.0 -10.0
vertex 45.0 25.0 5.0
endloop
endfacet
facet normal 0.0 0.0 1.0
outer loop
vertex 5.0 5.00000000000001 5.0
vertex 9.19238815542512 9.19238815542512 5.0
vertex 5.0 40.0 5.0
endloop
endfacet
facet normal 0.0 0.0 1.0
outer loop
vertex 9.19238815542512 9.19238815542512 5.0
vertex 5.0 5.00000000000001 5.0
vertex 40.0 5.00000000000001 5.0
endloop
endfacet
facet normal 0.0 0.0 1.0
outer loop
vertex 9.19238815542512 9.19238815542512 5.0
vertex 40.0 5.00000000000001 5.0
vertex 23.2837557964166 13.4857968252839 5.0
endloop
endfacet
facet normal 0.0 0.0 1.0
outer loop
vertex 23.2837557964166 13.4857968252839 5.0
vertex 40.0 5.00000000000001 5.0
vertex 25.2132034355964 14.2850002053209 5.0
endloop
endfacet
facet normal 0.0 0.0 1.0
outer loop
vertex 25.2132034355964 14.2850002053209 5.0
vertex 40.0 5.00000000000001 5.0
vertex 26.8700576850888 15.556349186104 5.0
endloop
endfacet
facet normal 0.0 0.0 1.0
outer loop
vertex 26.8700576850888 15.556349186104 5.0
vertex 40.0 5.00000000000001 5.0
vertex 28.141406665872 17.2132034355964 5.0
endloop
endfacet
facet normal 0.0 0.0 1.0
outer loop
vertex 28.141406665872 17.2132034355964 5.0
vertex 40.0 5.00000000000001 5.0
vertex 28.940610045909 19.1426510747763 5.0
endloop
endfacet
facet normal 0.0 0.0 1.0
outer loop
vertex 28.940610045909 19.1426510747763 5.0
vertex 40.0 5.00000000000001 5.0
vertex 29.2132034355965 21.2132034355964 5.0
endloop
endfacet
facet normal 0.0 0.0 1.0
outer loop
vertex 5.0 40.0 5.0
vertex 13.4857968252839 23.2837557964166 5.0
vertex 20.0 40.0 5.0
endloop
endfacet
facet normal 0.0 0.0 1.0
outer loop
vertex 13.4857968252839 23.2837557964166 5.0
vertex 5.0 40.0 5.0
vertex 9.19238815542512 9.19238815542512 5.0
endloop
endfacet
facet normal 0.0 0.0 1.0
outer loop
vertex 20.0 40.0 5.0
vertex 13.4857968252839 23.2837557964166 5.0
vertex 14.2850002053209 25.2132034355964 5.0
endloop
endfacet
facet normal 0.0 0.0 1.0
outer loop
vertex 20.0 40.0 5.0
vertex 14.2850002053209 25.2132034355964 5.0
vertex 15.5563491861041 26.8700576850888 5.0
endloop
endfacet
facet normal 0.0 0.0 1.0
outer loop
vertex 20.0 40.0 5.0
vertex 15.5563491861041 26.8700576850888 5.0
vertex 17.2132034355965 28.1414066658719 5.0
endloop
endfacet
facet normal 0.0 0.0 1.0
outer loop
vertex 20.0 40.0 5.0
vertex 17.2132034355965 28.1414066658719 5.0
vertex 19.1426510747763 28.940610045909 5.0
endloop
endfacet
facet normal 0.0 0.0 1.0
outer loop
vertex 20.0 40.0 5.0
vertex 19.1426510747763 28.940610045909 5.0
vertex 21.2132034355965 29.2132034355964 5.0
endloop
endfacet
facet normal 0.0 0.0 1.0
outer loop
vertex 20.0 40.0 5.0
vertex 21.2132034355965 29.2132034355964 5.0
vertex 20.0 45.0 5.0
endloop
endfacet
facet normal 0.0 0.0 1.0
outer loop
vertex 20.0 45.0 5.0
vertex 21.2132034355965 29.2132034355964 5.0
vertex 25.0 45.0 5.0
endloop
endfacet
facet normal 0.0 0.0 1.0
outer loop
vertex 25.0 45.0 5.0
vertex 21.2132034355965 29.2132034355964 5.0
vertex 23.2837557964166 28.940610045909 5.0
endloop
endfacet
facet normal 0.0 0.0 1.0
outer loop
vertex 25.0 45.0 5.0
vertex 23.2837557964166 28.940610045909 5.0
vertex 25.2132034355965 28.1414066658719 5.0
endloop
endfacet
facet normal 0.0 0.0 1.0
outer loop
vertex 25.0 45.0 5.0
vertex 25.2132034355965 28.1414066658719 5.0
vertex 45.0 25.0 5.0
endloop
endfacet
facet normal 0.0 0.0 1.0
outer loop
vertex 45.0 25.0 5.0
vertex 25.2132034355965 28.1414066658719 5.0
vertex 26.8700576850888 26.8700576850888 5.0
endloop
endfacet
facet normal 0.0 0.0 1.0
outer loop
vertex 45.0 25.0 5.0
vertex 26.8700576850888 26.8700576850888 5.0
vertex 28.141406665872 25.2132034355964 5.0
endloop
endfacet
facet normal 0.0 0.0 1.0
outer loop
vertex 45.0 25.0 5.0
vertex 28.141406665872 25.2132034355964 5.0
vertex 28.940610045909 23.2837557964166 5.0
endloop
endfacet
facet normal 0.0 0.0 1.0
outer loop
vertex 45.0 25.0 5.0
vertex 28.940610045909 23.2837557964166 5.0
vertex 29.2132034355965 21.2132034355964 5.0
endloop
endfacet
facet normal 0.0 0.0 1.0
outer loop
vertex 45.0 25.0 5.0
vertex 29.2132034355965 21.2132034355964 5.0
vertex 40.0 20.0 5.0
endloop
endfacet
facet normal 0.0 0.0 1.0
outer loop
vertex 40.0 20.0 5.0
vertex 29.2132034355965 21.2132034355964 5.0
vertex 40.0 5.00000000000001 5.0
endloop
endfacet
facet normal 0.0 0.0 1.0
outer loop
vertex 45.0 25.0 5.0
vertex 40.0 20.0 5.0
vertex 45.0 20.0 5.0
endloop
endfacet
facet normal 0.0 1.0 0.0
outer loop
vertex 5.0 5.00000000000001 5.0
vertex 9.19238815542512 5.00000000000001 9.19238815542512
vertex 40.0 5.00000000000001 5.0
endloop
endfacet
facet normal 0.0 1.0 0.0
outer loop
vertex 9.19238815542512 5.00000000000001 9.19238815542512
vertex 5.0 5.00000000000001 5.0
vertex 5.0 5.00000000000001 40.0
endloop
endfacet
facet normal 0.0 1.0 0.0
outer loop
vertex 9.19238815542512 5.00000000000001 9.19238815542512
vertex 5.0 5.00000000000001 40.0
vertex 13.4857968252839 5.00000000000001 23.2837557964166
endloop
endfacet
facet normal 0.0 1.0 0.0
outer loop
vertex 13.4857968252839 5.00000000000001 23.2837557964166
vertex 5.0 5.00000000000001 40.0
vertex 14.2850002053209 5.00000000000001 25.2132034355964
endloop
endfacet
facet normal 0.0 1.0 0.0
outer loop
vertex 14.2850002053209 5.00000000000001 25.2132034355964
vertex 5.0 5.00000000000001 40.0
vertex 15.556349186104 5.00000000000001 26.8700576850888
endloop
endfacet
facet normal 0.0 1.0 0.0
outer loop
vertex 15.556349186104 5.00000000000001 26.8700576850888
vertex 5.0 5.00000000000001 40.0
vertex 17.2132034355964 5.00000000000001 28.1414066658719
endloop
endfacet
facet normal 0.0 1.0 0.0
outer loop
vertex 17.2132034355964 5.00000000000001 28.1414066658719
vertex 5.0 5.00000000000001 40.0
vertex 19.1426510747763 5.00000000000001 28.940610045909
endloop
endfacet
facet normal 0.0 1.0 0.0
outer loop
vertex 19.1426510747763 5.00000000000001 28.940610045909
vertex 5.0 5.00000000000001 40.0
vertex 21.2132034355964 5.00000000000001 29.2132034355964
endloop
endfacet
facet normal 0.0 1.0 0.0
outer loop
vertex 9.19238815542512 5.00000000000001 9.19238815542512
vertex 40.0 5.00000000000001 15.0
vertex 40.0 5.00000000000001 5.0
endloop
endfacet
facet normal 0.0 1.0 0.0
outer loop
vertex 40.0 5.00000000000001 15.0
vertex 9.19238815542512 5.00000000000001 9.19238815542512
vertex 23.2837557964166 5.00000000000001 13.4857968252839
endloop
endfacet
facet normal 0.0 1.0 0.0
outer loop
vertex 40.0 5.00000000000001 15.0
vertex 23.2837557964166 5.00000000000001 13.4857968252839
vertex 25.2132034355964 5.00000000000001 14.2850002053209
endloop
endfacet
facet normal 0.0 1.0 0.0
outer loop
vertex 40.0 5.00000000000001 15.0
vertex 25.2132034355964 5.00000000000001 14.2850002053209
vertex 26.8700576850888 5.00000000000001 15.5563491861041
endloop
endfacet
facet normal 0.0 1.0 0.0
outer loop
vertex 40.0 5.00000000000001 15.0
vertex 26.8700576850888 5.00000000000001 15.5563491861041
vertex 40.0 5.00000000000001 20.0
endloop
endfacet
facet normal 0.0 1.0 0.0
outer loop
vertex 40.0 5.00000000000001 20.0
vertex 26.8700576850888 5.00000000000001 15.5563491861041
vertex 28.141406665872 5.00000000000001 17.2132034355964
endloop
endfacet
facet normal 0.0 1.0 0.0
outer loop
vertex 40.0 5.00000000000001 20.0
vertex 28.141406665872 5.00000000000001 17.2132034355964
vertex 28.940610045909 5.00000000000001 19.1426510747763
endloop
endfacet
facet normal 0.0 1.0 0.0
outer loop
vertex 40.0 5.00000000000001 20.0
vertex 28.940610045909 5.00000000000001 19.1426510747763
vertex 29.2132034355964 5.00000000000001 21.2132034355964
endloop
endfacet
facet normal 0.0 1.0 0.0
outer loop
vertex 40.0 5.00000000000001 20.0
vertex 29.2132034355964 5.00000000000001 21.2132034355964
vertex 45.0 5.00000000000001 20.0
endloop
endfacet
facet normal 0.0 1.0 0.0
outer loop
vertex 45.0 5.00000000000001 20.0
vertex 29.2132034355964 5.00000000000001 21.2132034355964
vertex 45.0 5.00000000000001 25.0
endloop
endfacet
facet normal 0.0 1.0 0.0
outer loop
vertex 45.0 5.00000000000001 25.0
vertex 29.2132034355964 5.00000000000001 21.2132034355964
vertex 28.940610045909 5.00000000000001 23.2837557964166
endloop
endfacet
facet normal 0.0 1.0 0.0
outer loop
vertex 45.0 5.00000000000001 25.0
vertex 28.940610045909 5.00000000000001 23.2837557964166
vertex 28.1414066658719 5.00000000000001 25.2132034355964
endloop
endfacet
facet normal 0.0 1.0 0.0
outer loop
vertex 45.0 5.00000000000001 25.0
vertex 28.1414066658719 5.00000000000001 25.2132034355964
vertex 25.0 5.00000000000001 45.0
endloop
endfacet
facet normal 0.0 1.0 0.0
outer loop
vertex 25.0 5.00000000000001 45.0
vertex 28.1414066658719 5.00000000000001 25.2132034355964
vertex 26.8700576850888 5.00000000000001 26.8700576850888
endloop
endfacet
facet normal 0.0 1.0 0.0
outer loop
vertex 25.0 5.00000000000001 45.0
vertex 26.8700576850888 5.00000000000001 26.8700576850888
vertex 25.2132034355964 5.00000000000001 28.1414066658719
endloop
endfacet
facet normal 0.0 1.0 0.0
outer loop
vertex 25.0 5.00000000000001 45.0
vertex 25.2132034355964 5.00000000000001 28.1414066658719
vertex 23.2837557964166 5.00000000000001 28.940610045909
endloop
endfacet
facet normal 0.0 1.0 0.0
outer loop
vertex 25.0 5.00000000000001 45.0
vertex 23.2837557964166 5.00000000000001 28.940610045909
vertex 21.2132034355964 5.00000000000001 29.2132034355964
endloop
endfacet
facet normal 0.0 1.0 0.0
outer loop
vertex 25.0 5.00000000000001 45.0
vertex 21.2132034355964 5.00000000000001 29.2132034355964
vertex 20.0 5.00000000000001 40.0
endloop
endfacet
facet normal 0.0 1.0 0.0
outer loop
vertex 20.0 5.00000000000001 40.0
vertex 21.2132034355964 5.00000000000001 29.2132034355964
vertex 5.0 5.00000000000001 40.0
endloop
endfacet
facet normal 0.0 1.0 0.0
outer loop
vertex 25.0 5.00000000000001 45.0
vertex 20.0 5.00000000000001 40.0
vertex 20.0 5.00000000000001 45.0
endloop
endfacet
facet normal 0.0 0.707106781186547 0.707106781186548
outer loop
vertex 5.0 25.0 45.0
vertex 0.0 45.0 25.0
vertex 0.0 25.0 45.0
endloop
endfacet
facet normal 0.0 0.707106781186547 0.707106781186548
outer loop
vertex 0.0 45.0 25.0
vertex 5.0 25.0 45.0
vertex 5.0 45.0 25.0
endloop
endfacet
facet normal 0.0 0.0 1.0
outer loop
vertex 5.0 20.0 45.0
vertex 0.0 25.0 45.0
vertex 0.0 20.0 45.0
endloop
endfacet
facet normal 0.0 0.0 1.0
outer loop
vertex 0.0 25.0 45.0
vertex 5.0 20.0 45.0
vertex 5.0 25.0 45.0
endloop
endfacet
facet normal -0.99144486137381 0.0 -0.130526192220052
outer loop
vertex 28.940610045909 5.00000000000001 23.2837557964166
vertex 29.2132034355964 0.0 21.2132034355964
vertex 28.940610045909 0.0 23.2837557964166
endloop
endfacet
facet normal -0.99144486137381 0.0 -0.130526192220052
outer loop
vertex 29.2132034355964 0.0 21.2132034355964
vertex 28.940610045909 5.00000000000001 23.2837557964166
vertex 29.2132034355964 5.00000000000001 21.2132034355964
endloop
endfacet
facet normal -0.130526192220052 0.0 -0.99144486137381
outer loop
vertex 23.2837557964166 5.00000000000001 28.940610045909
vertex 21.2132034355964 0.0 29.2132034355964
vertex 21.2132034355964 5.00000000000001 29.2132034355964
endloop
endfacet
facet normal -0.130526192220052 0.0 -0.99144486137381
outer loop
vertex 21.2132034355964 0.0 29.2132034355964
vertex 23.2837557964166 5.00000000000001 28.940610045909
vertex 23.2837557964166 0.0 28.940610045909
endloop
endfacet
facet normal -0.793353340291237 0.0 -0.608761429008719
outer loop
vertex 26.8700576850888 5.00000000000001 26.8700576850888
vertex 28.1414066658719 0.0 25.2132034355964
vertex 26.8700576850888 0.0 26.8700576850888
endloop
endfacet
facet normal -0.793353340291237 0.0 -0.608761429008719
outer loop
vertex 28.1414066658719 0.0 25.2132034355964
vertex 26.8700576850888 5.00000000000001 26.8700576850888
vertex 28.1414066658719 5.00000000000001 25.2132034355964
endloop
endfacet
facet normal 0.382683432365091 0.0 -0.923879532511286
outer loop
vertex 19.1426510747763 5.00000000000001 28.940610045909
vertex 17.2132034355964 0.0 28.1414066658719
vertex 17.2132034355964 5.00000000000001 28.1414066658719
endloop
endfacet
facet normal 0.382683432365091 0.0 -0.923879532511286
outer loop
vertex 17.2132034355964 0.0 28.1414066658719
vertex 19.1426510747763 5.00000000000001 28.940610045909
vertex 19.1426510747763 0.0 28.940610045909
endloop
endfacet
facet normal -0.923879532511286 0.0 -0.382683432365091
outer loop
vertex 28.1414066658719 5.00000000000001 25.2132034355964
vertex 28.940610045909 0.0 23.2837557964166
vertex 28.1414066658719 0.0 25.2132034355964
endloop
endfacet
facet normal -0.923879532511286 0.0 -0.382683432365091
outer loop
vertex 28.940610045909 0.0 23.2837557964166
vertex 28.1414066658719 5.00000000000001 25.2132034355964
vertex 28.940610045909 5.00000000000001 23.2837557964166
endloop
endfacet
facet normal -0.382683432365088 0.0 0.923879532511288
outer loop
vertex 25.2132034355964 0.0 14.2850002053209
vertex 23.2837557964166 5.00000000000001 13.4857968252839
vertex 23.2837557964166 0.0 13.4857968252839
endloop
endfacet
facet normal -0.382683432365088 0.0 0.923879532511288
outer loop
vertex 23.2837557964166 5.00000000000001 13.4857968252839
vertex 25.2132034355964 0.0 14.2850002053209
vertex 25.2132034355964 5.00000000000001 14.2850002053209
endloop
endfacet
facet normal 0.365641101266564 0.0 -0.930755921315881
outer loop
vertex 43.7459556191349 5.00000000000001 19.7482125140521
vertex 43.1496759846898 0.0 19.5139681356837
vertex 43.1496759846898 5.00000000000001 19.5139681356837
endloop
endfacet
facet normal 0.365641101266564 0.0 -0.930755921315881
outer loop
vertex 43.1496759846898 0.0 19.5139681356837
vertex 43.7459556191349 5.00000000000001 19.7482125140521
vertex 43.7459556191349 0.0 19.7482125140521
endloop
endfacet
facet normal 1.0 0.0 0.0
outer loop
vertex 40.0 5.00000000000001 15.0
vertex 40.0 0.0 20.0
vertex 40.0 0.0 15.0
endloop
endfacet
facet normal 1.0 0.0 0.0
outer loop
vertex 40.0 0.0 20.0
vertex 40.0 5.00000000000001 15.0
vertex 40.0 5.00000000000001 20.0
endloop
endfacet
facet normal 0.254055495858476 0.0 -0.967189642740297
outer loop
vertex 44.3655761591762 5.00000000000001 19.9109706708684
vertex 43.7459556191349 0.0 19.7482125140521
vertex 43.7459556191349 5.00000000000001 19.7482125140521
endloop
endfacet
facet normal 0.254055495858476 0.0 -0.967189642740297
outer loop
vertex 43.7459556191349 0.0 19.7482125140521
vertex 44.3655761591762 5.00000000000001 19.9109706708684
vertex 44.3655761591762 0.0 19.9109706708684
endloop
endfacet
facet normal 0.138969319884754 0.0 -0.99029668692305
outer loop
vertex 45.0 5.00000000000001 20.0
vertex 44.3655761591762 0.0 19.9109706708684
vertex 44.3655761591762 5.00000000000001 19.9109706708684
endloop
endfacet
facet normal 0.138969319884754 0.0 -0.99029668692305
outer loop
vertex 44.3655761591762 0.0 19.9109706708684
vertex 45.0 5.00000000000001 20.0
vertex 45.0 0.0 20.0
endloop
endfacet
facet normal 0.930755921315881 0.0 -0.365641101266565
outer loop
vertex 40.2517874859479 5.00000000000001 16.2540443808651
vertex 40.4860318643163 0.0 16.8503240153102
vertex 40.2517874859479 0.0 16.2540443808651
endloop
endfacet
facet normal 0.930755921315881 0.0 -0.365641101266565
outer loop
vertex 40.4860318643163 0.0 16.8503240153102
vertex 40.2517874859479 5.00000000000001 16.2540443808651
vertex 40.4860318643163 5.00000000000001 16.8503240153102
endloop
endfacet
facet normal 0.881497534276777 0.0 -0.472188624454214
outer loop
vertex 40.4860318643163 5.00000000000001 16.8503240153102
vertex 40.7885348663715 0.0 17.4150467481614
vertex 40.4860318643163 0.0 16.8503240153102
endloop
endfacet
facet normal 0.881497534276777 0.0 -0.472188624454214
outer loop
vertex 40.7885348663715 0.0 17.4150467481614
vertex 40.4860318643163 5.00000000000001 16.8503240153102
vertex 40.7885348663715 5.00000000000001 17.4150467481614
endloop
endfacet
facet normal 0.990296686923049 0.0 -0.138969319884757
outer loop
vertex 40.0 5.00000000000001 15.0
vertex 40.0890293291316 0.0 15.6344238408238
vertex 40.0 0.0 15.0
endloop
endfacet
facet normal 0.990296686923049 0.0 -0.138969319884757
outer loop
vertex 40.0890293291316 0.0 15.6344238408238
vertex 40.0 5.00000000000001 15.0
vertex 40.0890293291316 5.00000000000001 15.6344238408238
endloop
endfacet
facet normal 0.0 1.0 0.0
outer loop
vertex 40.0 5.00000000000001 20.0
vertex 40.0890293291316 5.00000000000001 15.6344238408238
vertex 40.0 5.00000000000001 15.0
endloop
endfacet
facet normal 0.0 1.0 0.0
outer loop
vertex 40.0890293291316 5.00000000000001 15.6344238408238
vertex 40.0 5.00000000000001 20.0
vertex 40.2517874859479 5.00000000000001 16.2540443808651
endloop
endfacet
facet normal 0.0 1.0 0.0
outer loop
vertex 40.2517874859479 5.00000000000001 16.2540443808651
vertex 40.0 5.00000000000001 20.0
vertex 40.4860318643163 5.00000000000001 16.8503240153102
endloop
endfacet
facet normal 0.0 1.0 0.0
outer loop
vertex 40.4860318643163 5.00000000000001 16.8503240153102
vertex 40.0 5.00000000000001 20.0
vertex 40.7885348663715 5.00000000000001 17.4150467481614
endloop
endfacet
facet normal 0.0 1.0 0.0
outer loop
vertex 40.7885348663715 5.00000000000001 17.4150467481614
vertex 40.0 5.00000000000001 20.0
vertex 41.1551283748232 5.00000000000001 17.9404313985009
endloop
endfacet
facet normal 0.0 1.0 0.0
outer loop
vertex 41.1551283748232 5.00000000000001 17.9404313985009
vertex 40.0 5.00000000000001 20.0
vertex 41.5807611844575 5.00000000000001 18.4192388155425
endloop
endfacet
facet normal 0.0 1.0 0.0
outer loop
vertex 41.5807611844575 5.00000000000001 18.4192388155425
vertex 40.0 5.00000000000001 20.0
vertex 42.0595686014991 5.00000000000001 18.8448716251768
endloop
endfacet
facet normal 0.0 1.0 0.0
outer loop
vertex 42.0595686014991 5.00000000000001 18.8448716251768
vertex 40.0 5.00000000000001 20.0
vertex 42.5849532518386 5.00000000000001 19.2114651336285
endloop
endfacet
facet normal 0.0 1.0 0.0
outer loop
vertex 42.5849532518386 5.00000000000001 19.2114651336285
vertex 40.0 5.00000000000001 20.0
vertex 43.1496759846898 5.00000000000001 19.5139681356837
endloop
endfacet
facet normal 0.0 1.0 0.0
outer loop
vertex 43.1496759846898 5.00000000000001 19.5139681356837
vertex 40.0 5.00000000000001 20.0
vertex 43.7459556191349 5.00000000000001 19.7482125140521
endloop
endfacet
facet normal 0.0 1.0 0.0
outer loop
vertex 43.7459556191349 5.00000000000001 19.7482125140521
vertex 40.0 5.00000000000001 20.0
vertex 44.3655761591762 5.00000000000001 19.9109706708684
endloop
endfacet
facet normal 0.0 1.0 0.0
outer loop
vertex 44.3655761591762 5.00000000000001 19.9109706708684
vertex 40.0 5.00000000000001 20.0
vertex 45.0 5.00000000000001 20.0
endloop
endfacet
facet normal 0.0 0.388520266535945 -0.921440178465666
outer loop
vertex 5.0 42.9774575140626 19.8176274578121
vertex 0.0 42.3487239766214 19.5525253630093
vertex 0.0 42.9774575140626 19.8176274578121
endloop
endfacet
facet normal 0.0 0.388520266535945 -0.921440178465666
outer loop
vertex 0.0 42.3487239766214 19.5525253630093
vertex 5.0 42.9774575140626 19.8176274578121
vertex 5.0 42.3487239766214 19.5525253630093
endloop
endfacet
facet normal 0.0 0.242047893850636 -0.970264302694102
outer loop
vertex 5.0 43.6395056008973 19.9827859044346
vertex 0.0 42.9774575140626 19.8176274578121
vertex 0.0 43.6395056008973 19.9827859044346
endloop
endfacet
facet normal 0.0 0.242047893850636 -0.970264302694102
outer loop
vertex 0.0 42.9774575140626 19.8176274578121
vertex 5.0 43.6395056008973 19.9827859044346
vertex 5.0 42.9774575140626 19.8176274578121
endloop
endfacet
facet normal 1.0 0.0 0.0
outer loop
vertex 5.0 40.0 20.0
vertex 5.0 42.9774575140626 19.8176274578121
vertex 5.0 43.6395056008973 19.9827859044346
endloop
endfacet
facet normal 1.0 0.0 0.0
outer loop
vertex 5.0 42.9774575140626 19.8176274578121
vertex 5.0 40.0 20.0
vertex 5.0 42.3487239766214 19.5525253630093
endloop
endfacet
facet normal 1.0 0.0 0.0
outer loop
vertex 5.0 42.3487239766214 19.5525253630093
vertex 5.0 40.0 20.0
vertex 5.0 41.7682927078732 19.1937991107897
endloop
endfacet
facet normal 1.0 0.0 0.0
outer loop
vertex 5.0 41.7682927078732 19.1937991107897
vertex 5.0 40.0 20.0
vertex 5.0 41.25 18.75
endloop
endfacet
facet normal 1.0 0.0 0.0
outer loop
vertex 5.0 41.25 18.75
vertex 5.0 40.0 20.0
vertex 5.0 40.8062008892104 18.2317072921268
endloop
endfacet
facet normal 1.0 0.0 0.0
outer loop
vertex 5.0 40.8062008892104 18.2317072921268
vertex 5.0 40.0 20.0
vertex 5.0 40.4474746369907 17.6512760233786
endloop
endfacet
facet normal 1.0 0.0 0.0
outer loop
vertex 5.0 40.4474746369907 17.6512760233786
vertex 5.0 40.0 20.0
vertex 5.0 40.1823725421879 17.0225424859374
endloop
endfacet
facet normal 1.0 0.0 0.0
outer loop
vertex 5.0 40.1823725421879 17.0225424859374
vertex 5.0 40.0 20.0
vertex 5.0 40.0172140955654 16.3604943991027
endloop
endfacet
facet normal 0.0 0.525731112119153 -0.850650808352028
outer loop
vertex 5.0 42.3487239766214 19.5525253630093
vertex 0.0 41.7682927078732 19.1937991107897
vertex 0.0 42.3487239766214 19.5525253630093
endloop
endfacet
facet normal 0.0 0.525731112119153 -0.850650808352028
outer loop
vertex 0.0 41.7682927078732 19.1937991107897
vertex 5.0 42.3487239766214 19.5525253630093
vertex 5.0 41.7682927078732 19.1937991107897
endloop
endfacet
facet normal 0.0 0.650409605177338 -0.75958366589406
outer loop
vertex 5.0 41.7682927078732 19.1937991107897
vertex 0.0 41.25 18.75
vertex 0.0 41.7682927078732 19.1937991107897
endloop
endfacet
facet normal 0.0 0.650409605177338 -0.75958366589406
outer loop
vertex 0.0 41.25 18.75
vertex 5.0 41.7682927078732 19.1937991107897
vertex 5.0 41.25 18.75
endloop
endfacet
facet normal 0.0 0.921440178465684 -0.388520266535903
outer loop
vertex 0.0 40.4474746369907 17.6512760233786
vertex 5.0 40.1823725421879 17.0225424859374
vertex 0.0 40.1823725421879 17.0225424859374
endloop
endfacet
facet normal 0.0 0.921440178465684 -0.388520266535903
outer loop
vertex 5.0 40.1823725421879 17.0225424859374
vertex 0.0 40.4474746369907 17.6512760233786
vertex 5.0 40.4474746369907 17.6512760233786
endloop
endfacet
facet normal 0.0 0.999988814733065 0.00472973664800022
outer loop
vertex 0.0 40.0 20.0
vertex 5.0 40.0172140955654 16.3604943991027
vertex 0.0 40.0172140955654 16.3604943991027
endloop
endfacet
facet normal 0.0 0.999988814733065 0.00472973664800022
outer loop
vertex 5.0 40.0172140955654 16.3604943991027
vertex 0.0 40.0 20.0
vertex 5.0 40.0 20.0
endloop
endfacet
facet normal -0.000908192229107373 0.0102511381113449 -0.999947043274941
outer loop
vertex 5.0 45.0 20.0
vertex 0.0 43.8304128461459 20.0
vertex 0.0 45.0 20.0
endloop
endfacet
facet normal -0.000908192229107373 0.0102511381113449 -0.999947043274941
outer loop
vertex 0.0 43.8304128461459 20.0
vertex 5.0 45.0 20.0
vertex 0.0 43.6395056008973 19.9827859044346
endloop
endfacet
facet normal -0.000908192229107373 0.0102511381113449 -0.999947043274941
outer loop
vertex 0.0 43.6395056008973 19.9827859044346
vertex 5.0 45.0 20.0
vertex 5.0 43.6395056008973 19.9827859044346
endloop
endfacet
facet normal 0.0 0.970264302694088 -0.242047893850692
outer loop
vertex 0.0 40.1823725421879 17.0225424859374
vertex 5.0 40.0172140955654 16.3604943991027
vertex 0.0 40.0172140955654 16.3604943991027
endloop
endfacet
facet normal 0.0 0.970264302694088 -0.242047893850692
outer loop
vertex 5.0 40.0172140955654 16.3604943991027
vertex 0.0 40.1823725421879 17.0225424859374
vertex 5.0 40.1823725421879 17.0225424859374
endloop
endfacet
facet normal 0.0 0.850650808352033 -0.525731112119145
outer loop
vertex 0.0 40.8062008892104 18.2317072921268
vertex 5.0 40.4474746369907 17.6512760233786
vertex 0.0 40.4474746369907 17.6512760233786
endloop
endfacet
facet normal 0.0 0.850650808352033 -0.525731112119145
outer loop
vertex 5.0 40.4474746369907 17.6512760233786
vertex 0.0 40.8062008892104 18.2317072921268
vertex 5.0 40.8062008892104 18.2317072921268
endloop
endfacet
facet normal 0.0 0.759583665894047 -0.650409605177353
outer loop
vertex 0.0 41.25 18.75
vertex 5.0 40.8062008892104 18.2317072921268
vertex 0.0 40.8062008892104 18.2317072921268
endloop
endfacet
facet normal 0.0 0.759583665894047 -0.650409605177353
outer loop
vertex 5.0 40.8062008892104 18.2317072921268
vertex 0.0 41.25 18.75
vertex 5.0 41.25 18.75
endloop
endfacet
facet normal 0.0 -0.793353340291236 -0.608761429008719
outer loop
vertex 5.0 26.1629509039022 26.1629509039023
vertex 0.0 27.2753812620875 24.7132034355964
vertex 5.0 27.2753812620875 24.7132034355964
endloop
endfacet
facet normal 0.0 -0.793353340291236 -0.608761429008719
outer loop
vertex 0.0 27.2753812620875 24.7132034355964
vertex 5.0 26.1629509039022 26.1629509039023
vertex 0.0 26.1629509039022 26.1629509039023
endloop
endfacet
facet normal 0.0 -0.923879532511285 -0.382683432365093
outer loop
vertex 5.0 27.2753812620875 24.7132034355964
vertex 0.0 27.9746842196199 23.0249367513141
vertex 5.0 27.9746842196199 23.0249367513141
endloop
endfacet
facet normal 0.0 -0.923879532511285 -0.382683432365093
outer loop
vertex 0.0 27.9746842196199 23.0249367513141
vertex 5.0 27.2753812620875 24.7132034355964
vertex 0.0 27.2753812620875 24.7132034355964
endloop
endfacet
facet normal 0.0 -0.608761429008721 -0.793353340291235
outer loop
vertex 5.0 26.1629509039022 26.1629509039023
vertex 0.0 24.7132034355964 27.2753812620875
vertex 0.0 26.1629509039022 26.1629509039023
endloop
endfacet
facet normal 0.0 -0.608761429008721 -0.793353340291235
outer loop
vertex 0.0 24.7132034355964 27.2753812620875
vertex 5.0 26.1629509039022 26.1629509039023
vertex 5.0 24.7132034355964 27.2753812620875
endloop
endfacet
facet normal 0.0 -0.608761429008711 0.793353340291243
outer loop
vertex 5.0 24.7132034355964 15.1510256091054
vertex 0.0 26.1629509039023 16.2634559672906
vertex 0.0 24.7132034355964 15.1510256091054
endloop
endfacet
facet normal 0.0 -0.608761429008711 0.793353340291243
outer loop
vertex 0.0 26.1629509039023 16.2634559672906
vertex 5.0 24.7132034355964 15.1510256091054
vertex 5.0 26.1629509039023 16.2634559672906
endloop
endfacet
facet normal 0.0 -0.793353340291236 0.60876142900872
outer loop
vertex 5.0 27.2753812620875 17.7132034355964
vertex 0.0 26.1629509039023 16.2634559672906
vertex 5.0 26.1629509039023 16.2634559672906
endloop
endfacet
facet normal 0.0 -0.793353340291236 0.60876142900872
outer loop
vertex 0.0 26.1629509039023 16.2634559672906
vertex 5.0 27.2753812620875 17.7132034355964
vertex 0.0 27.2753812620875 17.7132034355964
endloop
endfacet
facet normal 0.0 -0.923879532511294 0.382683432365072
outer loop
vertex 5.0 27.9746842196199 19.4014701198788
vertex 0.0 27.2753812620875 17.7132034355964
vertex 5.0 27.2753812620875 17.7132034355964
endloop
endfacet
facet normal 0.0 -0.923879532511294 0.382683432365072
outer loop
vertex 0.0 27.2753812620875 17.7132034355964
vertex 5.0 27.9746842196199 19.4014701198788
vertex 0.0 27.9746842196199 19.4014701198788
endloop
endfacet
facet normal 0.0 0.38268343236509 -0.923879532511287
outer loop
vertex 5.0 19.4014701198788 27.9746842196199
vertex 0.0 17.7132034355964 27.2753812620875
vertex 0.0 19.4014701198788 27.9746842196199
endloop
endfacet
facet normal 0.0 0.38268343236509 -0.923879532511287
outer loop
vertex 0.0 17.7132034355964 27.2753812620875
vertex 5.0 19.4014701198788 27.9746842196199
vertex 5.0 17.7132034355964 27.2753812620875
endloop
endfacet
facet normal 0.0 0.608761429008721 -0.793353340291235
outer loop
vertex 5.0 17.7132034355964 27.2753812620875
vertex 0.0 16.2634559672906 26.1629509039023
vertex 0.0 17.7132034355964 27.2753812620875
endloop
endfacet
facet normal 0.0 0.608761429008721 -0.793353340291235
outer loop
vertex 0.0 16.2634559672906 26.1629509039023
vertex 5.0 17.7132034355964 27.2753812620875
vertex 5.0 16.2634559672906 26.1629509039023
endloop
endfacet
facet normal 0.0 0.793353340291236 -0.608761429008719
outer loop
vertex 0.0 16.2634559672906 26.1629509039023
vertex 5.0 15.1510256091054 24.7132034355964
vertex 0.0 15.1510256091054 24.7132034355964
endloop
endfacet
facet normal 0.0 0.793353340291236 -0.608761429008719
outer loop
vertex 5.0 15.1510256091054 24.7132034355964
vertex 0.0 16.2634559672906 26.1629509039023
vertex 5.0 16.2634559672906 26.1629509039023
endloop
endfacet
facet normal 0.0 0.923879532511286 -0.382683432365093
outer loop
vertex 0.0 15.1510256091054 24.7132034355964
vertex 5.0 14.4517226515729 23.0249367513141
vertex 0.0 14.4517226515729 23.0249367513141
endloop
endfacet
facet normal 0.0 0.923879532511286 -0.382683432365093
outer loop
vertex 5.0 14.4517226515729 23.0249367513141
vertex 0.0 15.1510256091054 24.7132034355964
vertex 5.0 15.1510256091054 24.7132034355964
endloop
endfacet
facet normal 0.0 0.934717012476949 -0.355392890455291
outer loop
vertex 0.0 14.4517226515729 23.0249367513141
vertex 5.0 9.19238815542512 9.19238815542512
vertex 0.0 9.19238815542512 9.19238815542512
endloop
endfacet
facet normal 0.0 0.934717012476949 -0.355392890455291
outer loop
vertex 5.0 9.19238815542512 9.19238815542512
vertex 0.0 14.4517226515729 23.0249367513141
vertex 5.0 14.4517226515729 23.0249367513141
endloop
endfacet
facet normal 0.0 -0.382683432365085 -0.923879532511289
outer loop
vertex 5.0 24.7132034355964 27.2753812620875
vertex 0.0 23.024936751314 27.9746842196199
vertex 0.0 24.7132034355964 27.2753812620875
endloop
endfacet
facet normal 0.0 -0.382683432365085 -0.923879532511289
outer loop
vertex 0.0 23.024936751314 27.9746842196199
vertex 5.0 24.7132034355964 27.2753812620875
vertex 5.0 23.024936751314 27.9746842196199
endloop
endfacet
facet normal 0.0 -0.130526192220055 -0.99144486137381
outer loop
vertex 5.0 23.024936751314 27.9746842196199
vertex 0.0 21.2132034355964 28.2132034355964
vertex 0.0 23.024936751314 27.9746842196199
endloop
endfacet
facet normal 0.0 -0.130526192220055 -0.99144486137381
outer loop
vertex 0.0 21.2132034355964 28.2132034355964
vertex 5.0 23.024936751314 27.9746842196199
vertex 5.0 21.2132034355964 28.2132034355964
endloop
endfacet
facet normal 0.0 0.130526192220052 -0.99144486137381
outer loop
vertex 5.0 21.2132034355964 28.2132034355964
vertex 0.0 19.4014701198788 27.9746842196199
vertex 0.0 21.2132034355964 28.2132034355964
endloop
endfacet
facet normal 0.0 0.130526192220052 -0.99144486137381
outer loop
vertex 0.0 19.4014701198788 27.9746842196199
vertex 5.0 21.2132034355964 28.2132034355964
vertex 5.0 19.4014701198788 27.9746842196199
endloop
endfacet
facet normal 0.0 -0.382683432365096 0.923879532511284
outer loop
vertex 5.0 23.0249367513141 14.451722651573
vertex 0.0 24.7132034355964 15.1510256091054
vertex 0.0 23.0249367513141 14.451722651573
endloop
endfacet
facet normal 0.0 -0.382683432365096 0.923879532511284
outer loop
vertex 0.0 24.7132034355964 15.1510256091054
vertex 5.0 23.0249367513141 14.451722651573
vertex 5.0 24.7132034355964 15.1510256091054
endloop
endfacet
facet normal 0.0 -0.355392890455292 0.934717012476949
outer loop
vertex 5.0 9.19238815542512 9.19238815542512
vertex 0.0 23.0249367513141 14.451722651573
vertex 0.0 9.19238815542512 9.19238815542512
endloop
endfacet
facet normal 0.0 -0.355392890455292 0.934717012476949
outer loop
vertex 0.0 23.0249367513141 14.451722651573
vertex 5.0 9.19238815542512 9.19238815542512
vertex 5.0 23.0249367513141 14.451722651573
endloop
endfacet
facet normal 0.0 -0.991444861373809 -0.130526192220061
outer loop
vertex 5.0 27.9746842196199 23.0249367513141
vertex 0.0 28.2132034355964 21.2132034355965
vertex 5.0 28.2132034355964 21.2132034355965
endloop
endfacet
facet normal 0.0 -0.991444861373809 -0.130526192220061
outer loop
vertex 0.0 28.2132034355964 21.2132034355965
vertex 5.0 27.9746842196199 23.0249367513141
vertex 0.0 27.9746842196199 23.0249367513141
endloop
endfacet
facet normal 0.0 -0.991444861373809 0.130526192220061
outer loop
vertex 5.0 28.2132034355964 21.2132034355965
vertex 0.0 27.9746842196199 19.4014701198788
vertex 5.0 27.9746842196199 19.4014701198788
endloop
endfacet
facet normal 0.0 -0.991444861373809 0.130526192220061
outer loop
vertex 0.0 27.9746842196199 19.4014701198788
vertex 5.0 28.2132034355964 21.2132034355965
vertex 0.0 28.2132034355964 21.2132034355965
endloop
endfacet
facet normal 0.382683432365082 -0.92387953251129 0.0
outer loop
vertex 19.1426510747763 28.940610045909 5.0
vertex 17.2132034355965 28.1414066658719 -10.0
vertex 19.1426510747763 28.940610045909 -10.0
endloop
endfacet
facet normal 0.382683432365082 -0.92387953251129 0.0
outer loop
vertex 17.2132034355965 28.1414066658719 -10.0
vertex 19.1426510747763 28.940610045909 5.0
vertex 17.2132034355965 28.1414066658719 5.0
endloop
endfacet
facet normal 0.608761429008717 -0.793353340291238 0.0
outer loop
vertex 17.2132034355965 28.1414066658719 5.0
vertex 15.5563491861041 26.8700576850888 -10.0
vertex 17.2132034355965 28.1414066658719 -10.0
endloop
endfacet
facet normal 0.608761429008717 -0.793353340291238 0.0
outer loop
vertex 15.5563491861041 26.8700576850888 -10.0
vertex 17.2132034355965 28.1414066658719 5.0
vertex 15.5563491861041 26.8700576850888 5.0
endloop
endfacet
facet normal 0.793353340291239 -0.608761429008716 -2.06590504222823e-018
outer loop
vertex 15.5563491861041 26.8700576850888 -10.0
vertex 14.2850002053209 25.2132034355964 5.0
vertex 14.2850002053209 25.2132034355964 -10.0
endloop
endfacet
facet normal 0.793353340291239 -0.608761429008716 -2.06590504222823e-018
outer loop
vertex 14.2850002053209 25.2132034355964 5.0
vertex 15.5563491861041 26.8700576850888 -10.0
vertex 15.5563491861041 26.8700576850888 5.0
endloop
endfacet
facet normal 0.923879532511285 -0.382683432365095 0.0
outer loop
vertex 14.2850002053209 25.2132034355964 -10.0
vertex 13.4857968252839 23.2837557964166 5.0
vertex 13.4857968252839 23.2837557964166 -10.0
endloop
endfacet
facet normal 0.923879532511285 -0.382683432365095 0.0
outer loop
vertex 13.4857968252839 23.2837557964166 5.0
vertex 14.2850002053209 25.2132034355964 -10.0
vertex 14.2850002053209 25.2132034355964 5.0
endloop
endfacet
facet normal 0.956584366242731 -0.2914555716743 -5.01846515348857e-017
outer loop
vertex 13.4857968252839 23.2837557964166 -10.0
vertex 9.19238815542512 9.19238815542512 5.0
vertex 9.19238815542512 9.19238815542512 -10.0
endloop
endfacet
facet normal 0.956584366242731 -0.2914555716743 -5.01846515348857e-017
outer loop
vertex 9.19238815542512 9.19238815542512 5.0
vertex 13.4857968252839 23.2837557964166 -10.0
vertex 13.4857968252839 23.2837557964166 5.0
endloop
endfacet
facet normal -0.382683432365099 -0.923879532511283 0.0
outer loop
vertex 25.2132034355965 28.1414066658719 5.0
vertex 23.2837557964166 28.940610045909 -10.0
vertex 25.2132034355965 28.1414066658719 -10.0
endloop
endfacet
facet normal -0.382683432365099 -0.923879532511283 0.0
outer loop
vertex 23.2837557964166 28.940610045909 -10.0
vertex 25.2132034355965 28.1414066658719 5.0
vertex 23.2837557964166 28.940610045909 5.0
endloop
endfacet
facet normal -0.130526192220052 -0.99144486137381 2.92163092929401e-018
outer loop
vertex 23.2837557964166 28.940610045909 5.0
vertex 21.2132034355965 29.2132034355964 -10.0
vertex 23.2837557964166 28.940610045909 -10.0
endloop
endfacet
facet normal -0.130526192220052 -0.99144486137381 2.92163092929401e-018
outer loop
vertex 21.2132034355965 29.2132034355964 -10.0
vertex 23.2837557964166 28.940610045909 5.0
vertex 21.2132034355965 29.2132034355964 5.0
endloop
endfacet
facet normal 0.130526192220051 -0.99144486137381 0.0
outer loop
vertex 21.2132034355965 29.2132034355964 5.0
vertex 19.1426510747763 28.940610045909 -10.0
vertex 21.2132034355965 29.2132034355964 -10.0
endloop
endfacet
facet normal 0.130526192220051 -0.99144486137381 0.0
outer loop
vertex 19.1426510747763 28.940610045909 -10.0
vertex 21.2132034355965 29.2132034355964 5.0
vertex 19.1426510747763 28.940610045909 5.0
endloop
endfacet
facet normal -0.291455571674298 0.956584366242731 -5.01846515348863e-017
outer loop
vertex 9.19238815542512 9.19238815542512 5.0
vertex 23.2837557964166 13.4857968252839 -10.0
vertex 9.19238815542512 9.19238815542512 -10.0
endloop
endfacet
facet normal -0.291455571674298 0.956584366242731 -5.01846515348863e-017
outer loop
vertex 23.2837557964166 13.4857968252839 -10.0
vertex 9.19238815542512 9.19238815542512 5.0
vertex 23.2837557964166 13.4857968252839 5.0
endloop
endfacet
facet normal -0.382683432365099 0.923879532511283 0.0
outer loop
vertex 23.2837557964166 13.4857968252839 5.0
vertex 25.2132034355964 14.2850002053209 -10.0
vertex 23.2837557964166 13.4857968252839 -10.0
endloop
endfacet
facet normal -0.382683432365099 0.923879532511283 0.0
outer loop
vertex 25.2132034355964 14.2850002053209 -10.0
vertex 23.2837557964166 13.4857968252839 5.0
vertex 25.2132034355964 14.2850002053209 5.0
endloop
endfacet
facet normal -0.99144486137381 0.130526192220051 0.0
outer loop
vertex 29.2132034355965 21.2132034355964 5.0
vertex 28.940610045909 19.1426510747763 -10.0
vertex 28.940610045909 19.1426510747763 5.0
endloop
endfacet
facet normal -0.99144486137381 0.130526192220051 0.0
outer loop
vertex 28.940610045909 19.1426510747763 -10.0
vertex 29.2132034355965 21.2132034355964 5.0
vertex 29.2132034355965 21.2132034355964 -10.0
endloop
endfacet
facet normal -0.99144486137381 -0.130526192220054 0.0
outer loop
vertex 28.940610045909 23.2837557964166 5.0
vertex 29.2132034355965 21.2132034355964 -10.0
vertex 29.2132034355965 21.2132034355964 5.0
endloop
endfacet
facet normal -0.99144486137381 -0.130526192220054 0.0
outer loop
vertex 29.2132034355965 21.2132034355964 -10.0
vertex 28.940610045909 23.2837557964166 5.0
vertex 28.940610045909 23.2837557964166 -10.0
endloop
endfacet
facet normal -0.92387953251129 -0.382683432365083 0.0
outer loop
vertex 28.141406665872 25.2132034355964 5.0
vertex 28.940610045909 23.2837557964166 -10.0
vertex 28.940610045909 23.2837557964166 5.0
endloop
endfacet
facet normal -0.92387953251129 -0.382683432365083 0.0
outer loop
vertex 28.940610045909 23.2837557964166 -10.0
vertex 28.141406665872 25.2132034355964 5.0
vertex 28.141406665872 25.2132034355964 -10.0
endloop
endfacet
facet normal -0.793353340291231 -0.608761429008727 0.0
outer loop
vertex 26.8700576850888 26.8700576850888 5.0
vertex 28.141406665872 25.2132034355964 -10.0
vertex 28.141406665872 25.2132034355964 5.0
endloop
endfacet
facet normal -0.793353340291231 -0.608761429008727 0.0
outer loop
vertex 28.141406665872 25.2132034355964 -10.0
vertex 26.8700576850888 26.8700576850888 5.0
vertex 26.8700576850888 26.8700576850888 -10.0
endloop
endfacet
facet normal -0.608761429008717 -0.793353340291238 -2.42049965471406e-032
outer loop
vertex 26.8700576850888 26.8700576850888 5.0
vertex 25.2132034355965 28.1414066658719 -10.0
vertex 26.8700576850888 26.8700576850888 -10.0
endloop
endfacet
facet normal -0.608761429008717 -0.793353340291238 -2.42049965471406e-032
outer loop
vertex 25.2132034355965 28.1414066658719 -10.0
vertex 26.8700576850888 26.8700576850888 5.0
vertex 25.2132034355965 28.1414066658719 5.0
endloop
endfacet
facet normal -0.608761429008715 0.79335334029124 4.74719579715967e-018
outer loop
vertex 25.2132034355964 14.2850002053209 5.0
vertex 26.8700576850888 15.556349186104 -10.0
vertex 25.2132034355964 14.2850002053209 -10.0
endloop
endfacet
facet normal -0.608761429008715 0.79335334029124 4.74719579715967e-018
outer loop
vertex 26.8700576850888 15.556349186104 -10.0
vertex 25.2132034355964 14.2850002053209 5.0
vertex 26.8700576850888 15.556349186104 5.0
endloop
endfacet
facet normal -0.793353340291231 0.608761429008727 0.0
outer loop
vertex 28.141406665872 17.2132034355964 5.0
vertex 26.8700576850888 15.556349186104 -10.0
vertex 26.8700576850888 15.556349186104 5.0
endloop
endfacet
facet normal -0.793353340291231 0.608761429008727 0.0
outer loop
vertex 26.8700576850888 15.556349186104 -10.0
vertex 28.141406665872 17.2132034355964 5.0
vertex 28.141406665872 17.2132034355964 -10.0
endloop
endfacet
facet normal -0.923879532511288 0.382683432365088 0.0
outer loop
vertex 28.940610045909 19.1426510747763 5.0
vertex 28.141406665872 17.2132034355964 -10.0
vertex 28.141406665872 17.2132034355964 5.0
endloop
endfacet
facet normal -0.923879532511288 0.382683432365088 0.0
outer loop
vertex 28.141406665872 17.2132034355964 -10.0
vertex 28.940610045909 19.1426510747763 5.0
vertex 28.940610045909 19.1426510747763 -10.0
endloop
endfacet
facet normal 2.54095919805553e-017 2.54095919805552e-017 -1.0
outer loop
vertex 25.0 45.0 -10.0
vertex 20.0 40.0 -10.0
vertex 20.0 45.0 -10.0
endloop
endfacet
facet normal 2.54095919805553e-017 2.54095919805552e-017 -1.0
outer loop
vertex 20.0 40.0 -10.0
vertex 25.0 45.0 -10.0
vertex 21.2132034355965 29.2132034355964 -10.0
endloop
endfacet
facet normal 2.54095919805553e-017 2.54095919805552e-017 -1.0
outer loop
vertex 21.2132034355965 29.2132034355964 -10.0
vertex 25.0 45.0 -10.0
vertex 23.2837557964166 28.940610045909 -10.0
endloop
endfacet
facet normal 2.54095919805553e-017 2.54095919805552e-017 -1.0
outer loop
vertex 23.2837557964166 28.940610045909 -10.0
vertex 25.0 45.0 -10.0
vertex 25.2132034355965 28.1414066658719 -10.0
endloop
endfacet
facet normal 2.54095919805553e-017 2.54095919805552e-017 -1.0
outer loop
vertex 25.2132034355965 28.1414066658719 -10.0
vertex 25.0 45.0 -10.0
vertex 45.0 25.0 -10.0
endloop
endfacet
facet normal 2.54095919805553e-017 2.54095919805552e-017 -1.0
outer loop
vertex 25.2132034355965 28.1414066658719 -10.0
vertex 45.0 25.0 -10.0
vertex 26.8700576850888 26.8700576850888 -10.0
endloop
endfacet
facet normal 2.54095919805553e-017 2.54095919805552e-017 -1.0
outer loop
vertex 26.8700576850888 26.8700576850888 -10.0
vertex 45.0 25.0 -10.0
vertex 28.141406665872 25.2132034355964 -10.0
endloop
endfacet
facet normal 2.54095919805553e-017 2.54095919805552e-017 -1.0
outer loop
vertex 28.141406665872 25.2132034355964 -10.0
vertex 45.0 25.0 -10.0
vertex 28.940610045909 23.2837557964166 -10.0
endloop
endfacet
facet normal 2.54095919805553e-017 2.54095919805552e-017 -1.0
outer loop
vertex 28.940610045909 23.2837557964166 -10.0
vertex 45.0 25.0 -10.0
vertex 29.2132034355965 21.2132034355964 -10.0
endloop
endfacet
facet normal 2.54095919805553e-017 2.54095919805552e-017 -1.0
outer loop
vertex 29.2132034355965 21.2132034355964 -10.0
vertex 45.0 25.0 -10.0
vertex 40.0 20.0 -10.0
endloop
endfacet
facet normal 2.54095919805553e-017 2.54095919805552e-017 -1.0
outer loop
vertex 40.0 20.0 -10.0
vertex 45.0 25.0 -10.0
vertex 45.0 20.0 -10.0
endloop
endfacet
facet normal 2.54095919805553e-017 2.54095919805552e-017 -1.0
outer loop
vertex 9.19238815542512 9.19238815542512 -10.0
vertex 40.0 3.10211145801227e-016 -10.0
vertex 5.0 3.10211145801227e-016 -10.0
endloop
endfacet
facet normal 2.54095919805553e-017 2.54095919805552e-017 -1.0
outer loop
vertex 40.0 3.10211145801227e-016 -10.0
vertex 9.19238815542512 9.19238815542512 -10.0
vertex 23.2837557964166 13.4857968252839 -10.0
endloop
endfacet
facet normal 2.54095919805553e-017 2.54095919805552e-017 -1.0
outer loop
vertex 40.0 3.10211145801227e-016 -10.0
vertex 23.2837557964166 13.4857968252839 -10.0
vertex 25.2132034355964 14.2850002053209 -10.0
endloop
endfacet
facet normal 2.54095919805553e-017 2.54095919805552e-017 -1.0
outer loop
vertex 40.0 3.10211145801227e-016 -10.0
vertex 25.2132034355964 14.2850002053209 -10.0
vertex 26.8700576850888 15.556349186104 -10.0
endloop
endfacet
facet normal 2.54095919805553e-017 2.54095919805552e-017 -1.0
outer loop
vertex 40.0 3.10211145801227e-016 -10.0
vertex 26.8700576850888 15.556349186104 -10.0
vertex 28.141406665872 17.2132034355964 -10.0
endloop
endfacet
facet normal 2.54095919805553e-017 2.54095919805552e-017 -1.0
outer loop
vertex 40.0 3.10211145801227e-016 -10.0
vertex 28.141406665872 17.2132034355964 -10.0
vertex 28.940610045909 19.1426510747763 -10.0
endloop
endfacet
facet normal 2.54095919805553e-017 2.54095919805552e-017 -1.0
outer loop
vertex 40.0 3.10211145801227e-016 -10.0
vertex 28.940610045909 19.1426510747763 -10.0
vertex 29.2132034355965 21.2132034355964 -10.0
endloop
endfacet
facet normal 2.54095919805553e-017 2.54095919805552e-017 -1.0
outer loop
vertex 40.0 3.10211145801227e-016 -10.0
vertex 29.2132034355965 21.2132034355964 -10.0
vertex 40.0 20.0 -10.0
endloop
endfacet
facet normal 2.54095919805553e-017 2.54095919805552e-017 -1.0
outer loop
vertex 20.0 40.0 -10.0
vertex 3.0583549311845e-016 5.0 -10.0
vertex 3.0583549311845e-016 40.0 -10.0
endloop
endfacet
facet normal 2.54095919805553e-017 2.54095919805552e-017 -1.0
outer loop
vertex 3.0583549311845e-016 5.0 -10.0
vertex 20.0 40.0 -10.0
vertex 13.4857968252839 23.2837557964166 -10.0
endloop
endfacet
facet normal 2.54095919805553e-017 2.54095919805552e-017 -1.0
outer loop
vertex 3.0583549311845e-016 5.0 -10.0
vertex 13.4857968252839 23.2837557964166 -10.0
vertex 5.0 3.10211145801227e-016 -10.0
endloop
endfacet
facet normal 2.54095919805553e-017 2.54095919805552e-017 -1.0
outer loop
vertex 5.0 3.10211145801227e-016 -10.0
vertex 13.4857968252839 23.2837557964166 -10.0
vertex 9.19238815542512 9.19238815542512 -10.0
endloop
endfacet
facet normal 2.54095919805553e-017 2.54095919805552e-017 -1.0
outer loop
vertex 13.4857968252839 23.2837557964166 -10.0
vertex 20.0 40.0 -10.0
vertex 14.2850002053209 25.2132034355964 -10.0
endloop
endfacet
facet normal 2.54095919805553e-017 2.54095919805552e-017 -1.0
outer loop
vertex 14.2850002053209 25.2132034355964 -10.0
vertex 20.0 40.0 -10.0
vertex 15.5563491861041 26.8700576850888 -10.0
endloop
endfacet
facet normal 2.54095919805553e-017 2.54095919805552e-017 -1.0
outer loop
vertex 15.5563491861041 26.8700576850888 -10.0
vertex 20.0 40.0 -10.0
vertex 17.2132034355965 28.1414066658719 -10.0
endloop
endfacet
facet normal 2.54095919805553e-017 2.54095919805552e-017 -1.0
outer loop
vertex 17.2132034355965 28.1414066658719 -10.0
vertex 20.0 40.0 -10.0
vertex 19.1426510747763 28.940610045909 -10.0
endloop
endfacet
facet normal 2.54095919805553e-017 2.54095919805552e-017 -1.0
outer loop
vertex 19.1426510747763 28.940610045909 -10.0
vertex 20.0 40.0 -10.0
vertex 21.2132034355965 29.2132034355964 -10.0
endloop
endfacet
facet normal -1.0 -3.58940568357044e-018 -5.6560386529731e-018
outer loop
vertex 0.0 25.0 45.0
vertex 0.0 20.0 40.0
vertex 0.0 20.0 45.0
endloop
endfacet
facet normal -1.0 -3.58940568357044e-018 -5.6560386529731e-018
outer loop
vertex 0.0 20.0 40.0
vertex 0.0 25.0 45.0
vertex 0.0 21.2132034355964 28.2132034355964
endloop
endfacet
facet normal -1.0 -3.58940568357044e-018 -5.6560386529731e-018
outer loop
vertex 0.0 21.2132034355964 28.2132034355964
vertex 0.0 25.0 45.0
vertex 0.0 23.024936751314 27.9746842196199
endloop
endfacet
facet normal -1.0 -3.58940568357044e-018 -5.6560386529731e-018
outer loop
vertex 0.0 23.024936751314 27.9746842196199
vertex 0.0 25.0 45.0
vertex 0.0 24.7132034355964 27.2753812620875
endloop
endfacet
facet normal -1.0 -3.58940568357044e-018 -5.6560386529731e-018
outer loop
vertex 0.0 24.7132034355964 27.2753812620875
vertex 0.0 25.0 45.0
vertex 0.0 26.1629509039022 26.1629509039023
endloop
endfacet
facet normal -1.0 -3.58940568357044e-018 -5.6560386529731e-018
outer loop
vertex 0.0 26.1629509039022 26.1629509039023
vertex 0.0 25.0 45.0
vertex 0.0 45.0 25.0
endloop
endfacet
facet normal -1.0 -3.58940568357044e-018 -5.6560386529731e-018
outer loop
vertex 0.0 26.1629509039022 26.1629509039023
vertex 0.0 45.0 25.0
vertex 0.0 27.2753812620875 24.7132034355964
endloop
endfacet
facet normal -1.0 -3.58940568357044e-018 -5.6560386529731e-018
outer loop
vertex 0.0 27.2753812620875 24.7132034355964
vertex 0.0 45.0 25.0
vertex 0.0 27.9746842196199 23.0249367513141
endloop
endfacet
facet normal -1.0 -3.58940568357044e-018 -5.6560386529731e-018
outer loop
vertex 0.0 27.9746842196199 23.0249367513141
vertex 0.0 45.0 25.0
vertex 0.0 28.2132034355964 21.2132034355965
endloop
endfacet
facet normal -1.0 -3.58940568357044e-018 -5.6560386529731e-018
outer loop
vertex 0.0 28.2132034355964 21.2132034355965
vertex 0.0 45.0 25.0
vertex 0.0 40.0 20.0
endloop
endfacet
facet normal -1.0 -3.58940568357044e-018 -5.6560386529731e-018
outer loop
vertex 0.0 28.2132034355964 21.2132034355965
vertex 0.0 40.0 20.0
vertex 0.0 39.9559363360922 15.6809136327723
endloop
endfacet
facet normal -1.0 -3.58940568357044e-018 -5.6560386529731e-018
outer loop
vertex 0.0 40.0 20.0
vertex 0.0 45.0 25.0
vertex 0.0 43.6395056008973 19.9827859044346
endloop
endfacet
facet normal -1.0 -3.58940568357044e-018 -5.6560386529731e-018
outer loop
vertex 0.0 43.6395056008973 19.9827859044346
vertex 0.0 45.0 25.0
vertex 0.0 43.8304128461459 20.0
endloop
endfacet
facet normal -1.0 -3.58940568357044e-018 -5.6560386529731e-018
outer loop
vertex 0.0 43.8304128461459 20.0
vertex 0.0 45.0 25.0
vertex 0.0 44.3190863672277 20.0440636639078
endloop
endfacet
facet normal -1.0 -3.58940568357044e-018 -5.6560386529731e-018
outer loop
vertex 0.0 44.3190863672277 20.0440636639078
vertex 0.0 45.0 25.0
vertex 0.0 45.0 20.0
endloop
endfacet
facet normal -1.0 -3.58940568357044e-018 -5.6560386529731e-018
outer loop
vertex 0.0 40.0 20.0
vertex 0.0 40.0 16.1695871538541
vertex 0.0 39.9559363360922 15.6809136327723
endloop
endfacet
facet normal -1.0 -3.58940568357044e-018 -5.6560386529731e-018
outer loop
vertex 0.0 40.0 16.1695871538541
vertex 0.0 40.0 20.0
vertex 0.0 40.0172140955654 16.3604943991027
endloop
endfacet
facet normal -1.0 -3.58940568357044e-018 -5.6560386529731e-018
outer loop
vertex 0.0 9.19238815542512 9.19238815542512
vertex 3.0583549311845e-016 40.0 -10.0
vertex 3.0583549311845e-016 5.0 -10.0
endloop
endfacet
facet normal -1.0 -3.58940568357044e-018 -5.6560386529731e-018
outer loop
vertex 3.0583549311845e-016 40.0 -10.0
vertex 0.0 9.19238815542512 9.19238815542512
vertex 0.0 23.0249367513141 14.451722651573
endloop
endfacet
facet normal -1.0 -3.58940568357044e-018 -5.6560386529731e-018
outer loop
vertex 3.0583549311845e-016 40.0 -10.0
vertex 0.0 23.0249367513141 14.451722651573
vertex 0.0 24.7132034355964 15.1510256091054
endloop
endfacet
facet normal -1.0 -3.58940568357044e-018 -5.6560386529731e-018
outer loop
vertex 3.0583549311845e-016 40.0 -10.0
vertex 0.0 24.7132034355964 15.1510256091054
vertex 0.0 26.1629509039023 16.2634559672906
endloop
endfacet
facet normal -1.0 -3.58940568357044e-018 -5.6560386529731e-018
outer loop
vertex 3.0583549311845e-016 40.0 -10.0
vertex 0.0 26.1629509039023 16.2634559672906
vertex 0.0 27.2753812620875 17.7132034355964
endloop
endfacet
facet normal -1.0 -3.58940568357044e-018 -5.6560386529731e-018
outer loop
vertex 3.0583549311845e-016 40.0 -10.0
vertex 0.0 27.2753812620875 17.7132034355964
vertex 0.0 27.9746842196199 19.4014701198788
endloop
endfacet
facet normal -1.0 -3.58940568357044e-018 -5.6560386529731e-018
outer loop
vertex 3.0583549311845e-016 40.0 -10.0
vertex 0.0 27.9746842196199 19.4014701198788
vertex 0.0 28.2132034355964 21.2132034355965
endloop
endfacet
facet normal -1.0 -3.58940568357044e-018 -5.6560386529731e-018
outer loop
vertex 3.0583549311845e-016 40.0 -10.0
vertex 0.0 28.2132034355964 21.2132034355965
vertex 0.0 39.9559363360922 15.6809136327723
endloop
endfacet
facet normal -1.0 -3.58940568357044e-018 -5.6560386529731e-018
outer loop
vertex 3.0583549311845e-016 40.0 -10.0
vertex 0.0 39.9559363360922 15.6809136327723
vertex 0.0 40.0 15.0
endloop
endfacet
facet normal -1.0 -3.58940568357044e-018 -5.6560386529731e-018
outer loop
vertex 0.0 20.0 40.0
vertex 3.0583549311845e-016 3.10211145801227e-016 -5.0
vertex 0.0 0.0 40.0
endloop
endfacet
facet normal -1.0 -3.58940568357044e-018 -5.6560386529731e-018
outer loop
vertex 3.0583549311845e-016 3.10211145801227e-016 -5.0
vertex 0.0 20.0 40.0
vertex 0.0 9.19238815542512 9.19238815542512
endloop
endfacet
facet normal -1.0 -3.58940568357044e-018 -5.6560386529731e-018
outer loop
vertex 3.0583549311845e-016 3.10211145801227e-016 -5.0
vertex 0.0 9.19238815542512 9.19238815542512
vertex 3.0583549311845e-016 5.0 -10.0
endloop
endfacet
facet normal -1.0 -3.58940568357044e-018 -5.6560386529731e-018
outer loop
vertex 0.0 9.19238815542512 9.19238815542512
vertex 0.0 20.0 40.0
vertex 0.0 14.4517226515729 23.0249367513141
endloop
endfacet
facet normal -1.0 -3.58940568357044e-018 -5.6560386529731e-018
outer loop
vertex 0.0 14.4517226515729 23.0249367513141
vertex 0.0 20.0 40.0
vertex 0.0 15.1510256091054 24.7132034355964
endloop
endfacet
facet normal -1.0 -3.58940568357044e-018 -5.6560386529731e-018
outer loop
vertex 0.0 15.1510256091054 24.7132034355964
vertex 0.0 20.0 40.0
vertex 0.0 16.2634559672906 26.1629509039023
endloop
endfacet
facet normal -1.0 -3.58940568357044e-018 -5.6560386529731e-018
outer loop
vertex 0.0 16.2634559672906 26.1629509039023
vertex 0.0 20.0 40.0
vertex 0.0 17.7132034355964 27.2753812620875
endloop
endfacet
facet normal -1.0 -3.58940568357044e-018 -5.6560386529731e-018
outer loop
vertex 0.0 17.7132034355964 27.2753812620875
vertex 0.0 20.0 40.0
vertex 0.0 19.4014701198788 27.9746842196199
endloop
endfacet
facet normal -1.0 -3.58940568357044e-018 -5.6560386529731e-018
outer loop
vertex 0.0 19.4014701198788 27.9746842196199
vertex 0.0 20.0 40.0
vertex 0.0 21.2132034355964 28.2132034355964
endloop
endfacet
endsolid COIN_15MM
