solid JOUE_608ZZ
facet normal 0.0 0.0 -1.0
outer loop
vertex -3.88228567653781 14.488887394336 0.0
vertex -4.25 -7.80712334456438e-016 0.0
vertex -7.5 12.9903810567666 0.0
endloop
endfacet
facet normal 0.0 0.0 -1.0
outer loop
vertex -4.25 -7.80712334456438e-016 0.0
vertex -3.88228567653781 14.488887394336 0.0
vertex -4.10518476172854 1.09998094168571 0.0
endloop
endfacet
facet normal 0.0 0.0 -1.0
outer loop
vertex -4.10518476172854 1.09998094168571 0.0
vertex -3.88228567653781 14.488887394336 0.0
vertex -3.68060796608387 2.125 0.0
endloop
endfacet
facet normal 0.0 0.0 -1.0
outer loop
vertex -3.68060796608387 2.125 0.0
vertex -3.88228567653781 14.488887394336 0.0
vertex 0.0 15.0 0.0
endloop
endfacet
facet normal 0.0 0.0 -1.0
outer loop
vertex -3.68060796608387 2.125 0.0
vertex 0.0 15.0 0.0
vertex -3.00520382004283 3.00520382004283 0.0
endloop
endfacet
facet normal 0.0 0.0 -1.0
outer loop
vertex -3.00520382004283 3.00520382004283 0.0
vertex 0.0 15.0 0.0
vertex -2.125 3.68060796608386 0.0
endloop
endfacet
facet normal 0.0 0.0 -1.0
outer loop
vertex -2.125 3.68060796608386 0.0
vertex 0.0 15.0 0.0
vertex -1.09998094168572 4.10518476172854 0.0
endloop
endfacet
facet normal 0.0 0.0 -1.0
outer loop
vertex -1.09998094168572 4.10518476172854 0.0
vertex 0.0 15.0 0.0
vertex 1.53059423806169e-031 4.25 0.0
endloop
endfacet
facet normal 0.0 0.0 -1.0
outer loop
vertex 1.53059423806169e-031 4.25 0.0
vertex 0.0 15.0 0.0
vertex 3.88228567653782 14.488887394336 0.0
endloop
endfacet
facet normal 0.0 0.0 -1.0
outer loop
vertex 1.53059423806169e-031 4.25 0.0
vertex 3.88228567653782 14.488887394336 0.0
vertex 1.09998094168571 4.10518476172854 0.0
endloop
endfacet
facet normal 0.0 0.0 -1.0
outer loop
vertex 1.09998094168571 4.10518476172854 0.0
vertex 3.88228567653782 14.488887394336 0.0
vertex 2.125 3.68060796608386 0.0
endloop
endfacet
facet normal 0.0 0.0 -1.0
outer loop
vertex 2.125 3.68060796608386 0.0
vertex 3.88228567653782 14.488887394336 0.0
vertex 3.00520382004283 3.00520382004283 0.0
endloop
endfacet
facet normal 0.0 0.0 -1.0
outer loop
vertex 3.00520382004283 3.00520382004283 0.0
vertex 3.88228567653782 14.488887394336 0.0
vertex 3.68060796608386 2.125 0.0
endloop
endfacet
facet normal 0.0 0.0 -1.0
outer loop
vertex 3.68060796608386 2.125 0.0
vertex 3.88228567653782 14.488887394336 0.0
vertex 4.10518476172854 1.09998094168571 0.0
endloop
endfacet
facet normal 0.0 0.0 -1.0
outer loop
vertex 4.10518476172854 1.09998094168571 0.0
vertex 3.88228567653782 14.488887394336 0.0
vertex 7.50000000000001 12.9903810567666 0.0
endloop
endfacet
facet normal 0.0 0.0 -1.0
outer loop
vertex 4.10518476172854 1.09998094168571 0.0
vertex 7.50000000000001 12.9903810567666 0.0
vertex 4.25 2.60237444818813e-016 0.0
endloop
endfacet
facet normal 0.0 0.0 -1.0
outer loop
vertex 4.25 2.60237444818813e-016 0.0
vertex 7.50000000000001 12.9903810567666 0.0
vertex 7.5 -12.9903810567666 0.0
endloop
endfacet
facet normal 0.0 0.0 -1.0
outer loop
vertex 7.5 -12.9903810567666 0.0
vertex 7.50000000000001 12.9903810567666 0.0
vertex 10.6066017177982 -10.6066017177982 0.0
endloop
endfacet
facet normal 0.0 0.0 -1.0
outer loop
vertex 10.6066017177982 -10.6066017177982 0.0
vertex 7.50000000000001 12.9903810567666 0.0
vertex 10.6066017177982 10.6066017177982 0.0
endloop
endfacet
facet normal 0.0 0.0 -1.0
outer loop
vertex 10.6066017177982 -10.6066017177982 0.0
vertex 10.6066017177982 10.6066017177982 0.0
vertex 12.9903810567666 -7.50000000000001 0.0
endloop
endfacet
facet normal 0.0 0.0 -1.0
outer loop
vertex 12.9903810567666 -7.50000000000001 0.0
vertex 10.6066017177982 10.6066017177982 0.0
vertex 12.9903810567666 7.49999999999999 0.0
endloop
endfacet
facet normal 0.0 0.0 -1.0
outer loop
vertex 12.9903810567666 -7.50000000000001 0.0
vertex 12.9903810567666 7.49999999999999 0.0
vertex 14.488887394336 -3.88228567653782 0.0
endloop
endfacet
facet normal 0.0 0.0 -1.0
outer loop
vertex 14.488887394336 -3.88228567653782 0.0
vertex 12.9903810567666 7.49999999999999 0.0
vertex 14.488887394336 3.8822856765378 0.0
endloop
endfacet
facet normal 0.0 0.0 -1.0
outer loop
vertex 14.488887394336 -3.88228567653782 0.0
vertex 14.488887394336 3.8822856765378 0.0
vertex 15.0 -2.75545529808154e-015 0.0
endloop
endfacet
facet normal 0.0 0.0 -1.0
outer loop
vertex -14.488887394336 3.88228567653781 0.0
vertex -14.488887394336 -3.88228567653781 0.0
vertex -15.0 9.18485099360515e-016 0.0
endloop
endfacet
facet normal 0.0 0.0 -1.0
outer loop
vertex -14.488887394336 -3.88228567653781 0.0
vertex -14.488887394336 3.88228567653781 0.0
vertex -12.9903810567666 7.5 0.0
endloop
endfacet
facet normal 0.0 0.0 -1.0
outer loop
vertex -14.488887394336 -3.88228567653781 0.0
vertex -12.9903810567666 7.5 0.0
vertex -12.9903810567666 -7.5 0.0
endloop
endfacet
facet normal 0.0 0.0 -1.0
outer loop
vertex -12.9903810567666 -7.5 0.0
vertex -12.9903810567666 7.5 0.0
vertex -10.6066017177982 -10.6066017177982 0.0
endloop
endfacet
facet normal 0.0 0.0 -1.0
outer loop
vertex -10.6066017177982 -10.6066017177982 0.0
vertex -12.9903810567666 7.5 0.0
vertex -10.6066017177982 10.6066017177982 0.0
endloop
endfacet
facet normal 0.0 0.0 -1.0
outer loop
vertex -10.6066017177982 -10.6066017177982 0.0
vertex -10.6066017177982 10.6066017177982 0.0
vertex -7.50000000000001 -12.9903810567666 0.0
endloop
endfacet
facet normal 0.0 0.0 -1.0
outer loop
vertex -7.50000000000001 -12.9903810567666 0.0
vertex -10.6066017177982 10.6066017177982 0.0
vertex -7.5 12.9903810567666 0.0
endloop
endfacet
facet normal 0.0 0.0 -1.0
outer loop
vertex -7.50000000000001 -12.9903810567666 0.0
vertex -7.5 12.9903810567666 0.0
vertex -3.88228567653782 -14.488887394336 0.0
endloop
endfacet
facet normal 0.0 0.0 -1.0
outer loop
vertex -3.88228567653782 -14.488887394336 0.0
vertex -7.5 12.9903810567666 0.0
vertex -4.25 -7.80712334456438e-016 0.0
endloop
endfacet
facet normal 0.0 0.0 -1.0
outer loop
vertex -3.88228567653782 -14.488887394336 0.0
vertex -4.25 -7.80712334456438e-016 0.0
vertex -4.10518476172854 -1.09998094168572 0.0
endloop
endfacet
facet normal 0.0 0.0 -1.0
outer loop
vertex -3.88228567653782 -14.488887394336 0.0
vertex -4.10518476172854 -1.09998094168572 0.0
vertex -3.68060796608386 -2.125 0.0
endloop
endfacet
facet normal 0.0 0.0 -1.0
outer loop
vertex -3.88228567653782 -14.488887394336 0.0
vertex -3.68060796608386 -2.125 0.0
vertex -1.83697019872103e-015 -15.0 0.0
endloop
endfacet
facet normal 0.0 0.0 -1.0
outer loop
vertex -1.83697019872103e-015 -15.0 0.0
vertex -3.68060796608386 -2.125 0.0
vertex -3.00520382004283 -3.00520382004283 0.0
endloop
endfacet
facet normal 0.0 0.0 -1.0
outer loop
vertex -1.83697019872103e-015 -15.0 0.0
vertex -3.00520382004283 -3.00520382004283 0.0
vertex -2.125 -3.68060796608387 0.0
endloop
endfacet
facet normal 0.0 0.0 -1.0
outer loop
vertex -1.83697019872103e-015 -15.0 0.0
vertex -2.125 -3.68060796608387 0.0
vertex -1.09998094168571 -4.10518476172854 0.0
endloop
endfacet
facet normal 0.0 0.0 -1.0
outer loop
vertex -1.83697019872103e-015 -15.0 0.0
vertex -1.09998094168571 -4.10518476172854 0.0
vertex 5.20474889637625e-016 -4.25 0.0
endloop
endfacet
facet normal 0.0 0.0 -1.0
outer loop
vertex -1.83697019872103e-015 -15.0 0.0
vertex 5.20474889637625e-016 -4.25 0.0
vertex 3.88228567653781 -14.488887394336 0.0
endloop
endfacet
facet normal 0.0 0.0 -1.0
outer loop
vertex 3.88228567653781 -14.488887394336 0.0
vertex 5.20474889637625e-016 -4.25 0.0
vertex 1.09998094168571 -4.10518476172854 0.0
endloop
endfacet
facet normal 0.0 0.0 -1.0
outer loop
vertex 3.88228567653781 -14.488887394336 0.0
vertex 1.09998094168571 -4.10518476172854 0.0
vertex 2.125 -3.68060796608386 0.0
endloop
endfacet
facet normal 0.0 0.0 -1.0
outer loop
vertex 3.88228567653781 -14.488887394336 0.0
vertex 2.125 -3.68060796608386 0.0
vertex 3.00520382004283 -3.00520382004283 0.0
endloop
endfacet
facet normal 0.0 0.0 -1.0
outer loop
vertex 3.88228567653781 -14.488887394336 0.0
vertex 3.00520382004283 -3.00520382004283 0.0
vertex 3.68060796608386 -2.125 0.0
endloop
endfacet
facet normal 0.0 0.0 -1.0
outer loop
vertex 3.88228567653781 -14.488887394336 0.0
vertex 3.68060796608386 -2.125 0.0
vertex 4.10518476172854 -1.09998094168571 0.0
endloop
endfacet
facet normal 0.0 0.0 -1.0
outer loop
vertex 3.88228567653781 -14.488887394336 0.0
vertex 4.10518476172854 -1.09998094168571 0.0
vertex 7.5 -12.9903810567666 0.0
endloop
endfacet
facet normal 0.0 0.0 -1.0
outer loop
vertex 7.5 -12.9903810567666 0.0
vertex 4.10518476172854 -1.09998094168571 0.0
vertex 4.25 2.60237444818813e-016 0.0
endloop
endfacet
facet normal -0.0 -0.0 1.0
outer loop
vertex -14.488887394336 -3.88228567653781 3.0
vertex -14.488887394336 3.88228567653781 3.0
vertex -15.0 9.18485099360515e-016 3.0
endloop
endfacet
facet normal -0.0 -0.0 1.0
outer loop
vertex -14.488887394336 3.88228567653781 3.0
vertex -14.488887394336 -3.88228567653781 3.0
vertex -12.9903810567666 -7.5 3.0
endloop
endfacet
facet normal -0.0 -0.0 1.0
outer loop
vertex -14.488887394336 3.88228567653781 3.0
vertex -12.9903810567666 -7.5 3.0
vertex -12.9903810567666 7.5 3.0
endloop
endfacet
facet normal -0.0 -0.0 1.0
outer loop
vertex -12.9903810567666 7.5 3.0
vertex -12.9903810567666 -7.5 3.0
vertex -10.6066017177982 -10.6066017177982 3.0
endloop
endfacet
facet normal -0.0 -0.0 1.0
outer loop
vertex -12.9903810567666 7.5 3.0
vertex -10.6066017177982 -10.6066017177982 3.0
vertex -10.6066017177982 10.6066017177982 3.0
endloop
endfacet
facet normal -0.0 -0.0 1.0
outer loop
vertex -10.6066017177982 10.6066017177982 3.0
vertex -10.6066017177982 -10.6066017177982 3.0
vertex -7.50000000000001 -12.9903810567666 3.0
endloop
endfacet
facet normal -0.0 -0.0 1.0
outer loop
vertex -10.6066017177982 10.6066017177982 3.0
vertex -7.50000000000001 -12.9903810567666 3.0
vertex -7.5 12.9903810567666 3.0
endloop
endfacet
facet normal -0.0 -0.0 1.0
outer loop
vertex -7.5 12.9903810567666 3.0
vertex -7.50000000000001 -12.9903810567666 3.0
vertex -6.0 -1.10218211923262e-015 3.0
endloop
endfacet
facet normal -0.0 -0.0 1.0
outer loop
vertex -6.0 -1.10218211923262e-015 3.0
vertex -7.50000000000001 -12.9903810567666 3.0
vertex -5.79555495773441 -1.55291427061513 3.0
endloop
endfacet
facet normal -0.0 -0.0 1.0
outer loop
vertex -5.79555495773441 -1.55291427061513 3.0
vertex -7.50000000000001 -12.9903810567666 3.0
vertex -3.88228567653782 -14.488887394336 3.0
endloop
endfacet
facet normal -0.0 -0.0 1.0
outer loop
vertex -5.79555495773441 -1.55291427061513 3.0
vertex -3.88228567653782 -14.488887394336 3.0
vertex -5.19615242270663 -3.0 3.0
endloop
endfacet
facet normal -0.0 -0.0 1.0
outer loop
vertex -5.19615242270663 -3.0 3.0
vertex -3.88228567653782 -14.488887394336 3.0
vertex -4.24264068711928 -4.24264068711929 3.0
endloop
endfacet
facet normal -0.0 -0.0 1.0
outer loop
vertex -4.24264068711928 -4.24264068711929 3.0
vertex -3.88228567653782 -14.488887394336 3.0
vertex -3.0 -5.19615242270663 3.0
endloop
endfacet
facet normal -0.0 -0.0 1.0
outer loop
vertex -3.0 -5.19615242270663 3.0
vertex -3.88228567653782 -14.488887394336 3.0
vertex -1.83697019872103e-015 -15.0 3.0
endloop
endfacet
facet normal -0.0 -0.0 1.0
outer loop
vertex -3.0 -5.19615242270663 3.0
vertex -1.83697019872103e-015 -15.0 3.0
vertex -1.55291427061512 -5.79555495773441 3.0
endloop
endfacet
facet normal -0.0 -0.0 1.0
outer loop
vertex -1.55291427061512 -5.79555495773441 3.0
vertex -1.83697019872103e-015 -15.0 3.0
vertex 7.34788079488412e-016 -6.0 3.0
endloop
endfacet
facet normal -0.0 -0.0 1.0
outer loop
vertex 7.34788079488412e-016 -6.0 3.0
vertex -1.83697019872103e-015 -15.0 3.0
vertex 3.88228567653781 -14.488887394336 3.0
endloop
endfacet
facet normal -0.0 -0.0 1.0
outer loop
vertex 7.34788079488412e-016 -6.0 3.0
vertex 3.88228567653781 -14.488887394336 3.0
vertex 1.55291427061513 -5.79555495773441 3.0
endloop
endfacet
facet normal -0.0 -0.0 1.0
outer loop
vertex 1.55291427061513 -5.79555495773441 3.0
vertex 3.88228567653781 -14.488887394336 3.0
vertex 3.0 -5.19615242270663 3.0
endloop
endfacet
facet normal -0.0 -0.0 1.0
outer loop
vertex 3.0 -5.19615242270663 3.0
vertex 3.88228567653781 -14.488887394336 3.0
vertex 4.24264068711929 -4.24264068711928 3.0
endloop
endfacet
facet normal -0.0 -0.0 1.0
outer loop
vertex 4.24264068711929 -4.24264068711928 3.0
vertex 3.88228567653781 -14.488887394336 3.0
vertex 7.5 -12.9903810567666 3.0
endloop
endfacet
facet normal -0.0 -0.0 1.0
outer loop
vertex 4.24264068711929 -4.24264068711928 3.0
vertex 7.5 -12.9903810567666 3.0
vertex 5.19615242270663 -3.0 3.0
endloop
endfacet
facet normal -0.0 -0.0 1.0
outer loop
vertex 5.19615242270663 -3.0 3.0
vertex 7.5 -12.9903810567666 3.0
vertex 5.79555495773441 -1.55291427061512 3.0
endloop
endfacet
facet normal -0.0 -0.0 1.0
outer loop
vertex 5.79555495773441 -1.55291427061512 3.0
vertex 7.5 -12.9903810567666 3.0
vertex 6.0 3.67394039744206e-016 3.0
endloop
endfacet
facet normal -0.0 -0.0 1.0
outer loop
vertex -7.5 12.9903810567666 3.0
vertex -5.79555495773441 1.55291427061512 3.0
vertex -3.88228567653781 14.488887394336 3.0
endloop
endfacet
facet normal -0.0 -0.0 1.0
outer loop
vertex -5.79555495773441 1.55291427061512 3.0
vertex -7.5 12.9903810567666 3.0
vertex -6.0 -1.10218211923262e-015 3.0
endloop
endfacet
facet normal -0.0 -0.0 1.0
outer loop
vertex -3.88228567653781 14.488887394336 3.0
vertex -5.79555495773441 1.55291427061512 3.0
vertex -5.19615242270663 3.0 3.0
endloop
endfacet
facet normal -0.0 -0.0 1.0
outer loop
vertex -3.88228567653781 14.488887394336 3.0
vertex -5.19615242270663 3.0 3.0
vertex -4.24264068711929 4.24264068711928 3.0
endloop
endfacet
facet normal -0.0 -0.0 1.0
outer loop
vertex -3.88228567653781 14.488887394336 3.0
vertex -4.24264068711929 4.24264068711928 3.0
vertex -3.0 5.19615242270663 3.0
endloop
endfacet
facet normal -0.0 -0.0 1.0
outer loop
vertex -3.88228567653781 14.488887394336 3.0
vertex -3.0 5.19615242270663 3.0
vertex 0.0 15.0 3.0
endloop
endfacet
facet normal -0.0 -0.0 1.0
outer loop
vertex 0.0 15.0 3.0
vertex -3.0 5.19615242270663 3.0
vertex -1.55291427061513 5.79555495773441 3.0
endloop
endfacet
facet normal -0.0 -0.0 1.0
outer loop
vertex 0.0 15.0 3.0
vertex -1.55291427061513 5.79555495773441 3.0
vertex 0.0 6.0 3.0
endloop
endfacet
facet normal -0.0 -0.0 1.0
outer loop
vertex 0.0 15.0 3.0
vertex 0.0 6.0 3.0
vertex 1.55291427061512 5.79555495773441 3.0
endloop
endfacet
facet normal -0.0 -0.0 1.0
outer loop
vertex 0.0 15.0 3.0
vertex 1.55291427061512 5.79555495773441 3.0
vertex 3.88228567653782 14.488887394336 3.0
endloop
endfacet
facet normal -0.0 -0.0 1.0
outer loop
vertex 3.88228567653782 14.488887394336 3.0
vertex 1.55291427061512 5.79555495773441 3.0
vertex 3.0 5.19615242270663 3.0
endloop
endfacet
facet normal -0.0 -0.0 1.0
outer loop
vertex 3.88228567653782 14.488887394336 3.0
vertex 3.0 5.19615242270663 3.0
vertex 4.24264068711928 4.24264068711928 3.0
endloop
endfacet
facet normal -0.0 -0.0 1.0
outer loop
vertex 3.88228567653782 14.488887394336 3.0
vertex 4.24264068711928 4.24264068711928 3.0
vertex 7.50000000000001 12.9903810567666 3.0
endloop
endfacet
facet normal -0.0 -0.0 1.0
outer loop
vertex 7.50000000000001 12.9903810567666 3.0
vertex 4.24264068711928 4.24264068711928 3.0
vertex 5.19615242270663 3.0 3.0
endloop
endfacet
facet normal -0.0 -0.0 1.0
outer loop
vertex 7.50000000000001 12.9903810567666 3.0
vertex 5.19615242270663 3.0 3.0
vertex 5.79555495773441 1.55291427061513 3.0
endloop
endfacet
facet normal -0.0 -0.0 1.0
outer loop
vertex 7.50000000000001 12.9903810567666 3.0
vertex 5.79555495773441 1.55291427061513 3.0
vertex 6.0 3.67394039744206e-016 3.0
endloop
endfacet
facet normal -0.0 -0.0 1.0
outer loop
vertex 7.50000000000001 12.9903810567666 3.0
vertex 6.0 3.67394039744206e-016 3.0
vertex 7.5 -12.9903810567666 3.0
endloop
endfacet
facet normal -0.0 -0.0 1.0
outer loop
vertex 7.50000000000001 12.9903810567666 3.0
vertex 7.5 -12.9903810567666 3.0
vertex 10.6066017177982 -10.6066017177982 3.0
endloop
endfacet
facet normal -0.0 -0.0 1.0
outer loop
vertex 7.50000000000001 12.9903810567666 3.0
vertex 10.6066017177982 -10.6066017177982 3.0
vertex 10.6066017177982 10.6066017177982 3.0
endloop
endfacet
facet normal -0.0 -0.0 1.0
outer loop
vertex 10.6066017177982 10.6066017177982 3.0
vertex 10.6066017177982 -10.6066017177982 3.0
vertex 12.9903810567666 -7.50000000000001 3.0
endloop
endfacet
facet normal -0.0 -0.0 1.0
outer loop
vertex 10.6066017177982 10.6066017177982 3.0
vertex 12.9903810567666 -7.50000000000001 3.0
vertex 12.9903810567666 7.49999999999999 3.0
endloop
endfacet
facet normal -0.0 -0.0 1.0
outer loop
vertex 12.9903810567666 7.49999999999999 3.0
vertex 12.9903810567666 -7.50000000000001 3.0
vertex 14.488887394336 -3.88228567653782 3.0
endloop
endfacet
facet normal -0.0 -0.0 1.0
outer loop
vertex 12.9903810567666 7.49999999999999 3.0
vertex 14.488887394336 -3.88228567653782 3.0
vertex 14.488887394336 3.8822856765378 3.0
endloop
endfacet
facet normal -0.0 -0.0 1.0
outer loop
vertex 14.488887394336 3.8822856765378 3.0
vertex 14.488887394336 -3.88228567653782 3.0
vertex 15.0 -2.75545529808154e-015 3.0
endloop
endfacet
facet normal -0.130526192220052 0.99144486137381 0.0
outer loop
vertex -3.88228567653781 14.488887394336 3.0
vertex 0.0 15.0 0.0
vertex -3.88228567653781 14.488887394336 0.0
endloop
endfacet
facet normal -0.130526192220052 0.99144486137381 0.0
outer loop
vertex 0.0 15.0 0.0
vertex -3.88228567653781 14.488887394336 3.0
vertex 0.0 15.0 3.0
endloop
endfacet
facet normal 0.130526192220052 0.99144486137381 0.0
outer loop
vertex 0.0 15.0 3.0
vertex 3.88228567653782 14.488887394336 0.0
vertex 0.0 15.0 0.0
endloop
endfacet
facet normal 0.130526192220052 0.99144486137381 0.0
outer loop
vertex 3.88228567653782 14.488887394336 0.0
vertex 0.0 15.0 3.0
vertex 3.88228567653782 14.488887394336 3.0
endloop
endfacet
facet normal 0.38268343236509 0.923879532511287 0.0
outer loop
vertex 3.88228567653782 14.488887394336 3.0
vertex 7.50000000000001 12.9903810567666 0.0
vertex 3.88228567653782 14.488887394336 0.0
endloop
endfacet
facet normal 0.38268343236509 0.923879532511287 0.0
outer loop
vertex 7.50000000000001 12.9903810567666 0.0
vertex 3.88228567653782 14.488887394336 3.0
vertex 7.50000000000001 12.9903810567666 3.0
endloop
endfacet
facet normal 0.608761429008721 0.793353340291235 0.0
outer loop
vertex 7.50000000000001 12.9903810567666 3.0
vertex 10.6066017177982 10.6066017177982 0.0
vertex 7.50000000000001 12.9903810567666 0.0
endloop
endfacet
facet normal 0.608761429008721 0.793353340291235 0.0
outer loop
vertex 10.6066017177982 10.6066017177982 0.0
vertex 7.50000000000001 12.9903810567666 3.0
vertex 10.6066017177982 10.6066017177982 3.0
endloop
endfacet
facet normal 0.793353340291235 0.608761429008721 0.0
outer loop
vertex 10.6066017177982 10.6066017177982 0.0
vertex 12.9903810567666 7.49999999999999 3.0
vertex 12.9903810567666 7.49999999999999 0.0
endloop
endfacet
facet normal 0.793353340291235 0.608761429008721 0.0
outer loop
vertex 12.9903810567666 7.49999999999999 3.0
vertex 10.6066017177982 10.6066017177982 0.0
vertex 10.6066017177982 10.6066017177982 3.0
endloop
endfacet
facet normal 0.923879532511287 0.382683432365089 0.0
outer loop
vertex 12.9903810567666 7.49999999999999 0.0
vertex 14.488887394336 3.8822856765378 3.0
vertex 14.488887394336 3.8822856765378 0.0
endloop
endfacet
facet normal 0.923879532511287 0.382683432365089 0.0
outer loop
vertex 14.488887394336 3.8822856765378 3.0
vertex 12.9903810567666 7.49999999999999 0.0
vertex 12.9903810567666 7.49999999999999 3.0
endloop
endfacet
facet normal 0.991444861373811 0.130526192220051 0.0
outer loop
vertex 14.488887394336 3.8822856765378 0.0
vertex 15.0 -2.75545529808154e-015 3.0
vertex 15.0 -2.75545529808154e-015 0.0
endloop
endfacet
facet normal 0.991444861373811 0.130526192220051 0.0
outer loop
vertex 15.0 -2.75545529808154e-015 3.0
vertex 14.488887394336 3.8822856765378 0.0
vertex 14.488887394336 3.8822856765378 3.0
endloop
endfacet
facet normal 0.99144486137381 -0.130526192220052 0.0
outer loop
vertex 15.0 -2.75545529808154e-015 0.0
vertex 14.488887394336 -3.88228567653782 3.0
vertex 14.488887394336 -3.88228567653782 0.0
endloop
endfacet
facet normal 0.99144486137381 -0.130526192220052 0.0
outer loop
vertex 14.488887394336 -3.88228567653782 3.0
vertex 15.0 -2.75545529808154e-015 0.0
vertex 15.0 -2.75545529808154e-015 3.0
endloop
endfacet
facet normal 0.923879532511287 -0.38268343236509 0.0
outer loop
vertex 14.488887394336 -3.88228567653782 0.0
vertex 12.9903810567666 -7.50000000000001 3.0
vertex 12.9903810567666 -7.50000000000001 0.0
endloop
endfacet
facet normal 0.923879532511287 -0.38268343236509 0.0
outer loop
vertex 12.9903810567666 -7.50000000000001 3.0
vertex 14.488887394336 -3.88228567653782 0.0
vertex 14.488887394336 -3.88228567653782 3.0
endloop
endfacet
facet normal 0.793353340291235 -0.608761429008721 0.0
outer loop
vertex 12.9903810567666 -7.50000000000001 0.0
vertex 10.6066017177982 -10.6066017177982 3.0
vertex 10.6066017177982 -10.6066017177982 0.0
endloop
endfacet
facet normal 0.793353340291235 -0.608761429008721 0.0
outer loop
vertex 10.6066017177982 -10.6066017177982 3.0
vertex 12.9903810567666 -7.50000000000001 0.0
vertex 12.9903810567666 -7.50000000000001 3.0
endloop
endfacet
facet normal 0.60876142900872 -0.793353340291236 0.0
outer loop
vertex 10.6066017177982 -10.6066017177982 3.0
vertex 7.5 -12.9903810567666 0.0
vertex 10.6066017177982 -10.6066017177982 0.0
endloop
endfacet
facet normal 0.60876142900872 -0.793353340291236 0.0
outer loop
vertex 7.5 -12.9903810567666 0.0
vertex 10.6066017177982 -10.6066017177982 3.0
vertex 7.5 -12.9903810567666 3.0
endloop
endfacet
facet normal 0.38268343236509 -0.923879532511287 0.0
outer loop
vertex 7.5 -12.9903810567666 3.0
vertex 3.88228567653781 -14.488887394336 0.0
vertex 7.5 -12.9903810567666 0.0
endloop
endfacet
facet normal 0.38268343236509 -0.923879532511287 0.0
outer loop
vertex 3.88228567653781 -14.488887394336 0.0
vertex 7.5 -12.9903810567666 3.0
vertex 3.88228567653781 -14.488887394336 3.0
endloop
endfacet
facet normal 0.130526192220051 -0.991444861373811 0.0
outer loop
vertex 3.88228567653781 -14.488887394336 3.0
vertex -1.83697019872103e-015 -15.0 0.0
vertex 3.88228567653781 -14.488887394336 0.0
endloop
endfacet
facet normal 0.130526192220051 -0.991444861373811 0.0
outer loop
vertex -1.83697019872103e-015 -15.0 0.0
vertex 3.88228567653781 -14.488887394336 3.0
vertex -1.83697019872103e-015 -15.0 3.0
endloop
endfacet
facet normal -0.130526192220052 -0.99144486137381 -0.0
outer loop
vertex -1.83697019872103e-015 -15.0 3.0
vertex -3.88228567653782 -14.488887394336 0.0
vertex -1.83697019872103e-015 -15.0 0.0
endloop
endfacet
facet normal -0.130526192220052 -0.99144486137381 -0.0
outer loop
vertex -3.88228567653782 -14.488887394336 0.0
vertex -1.83697019872103e-015 -15.0 3.0
vertex -3.88228567653782 -14.488887394336 3.0
endloop
endfacet
facet normal -0.38268343236509 -0.923879532511287 -0.0
outer loop
vertex -3.88228567653782 -14.488887394336 3.0
vertex -7.50000000000001 -12.9903810567666 0.0
vertex -3.88228567653782 -14.488887394336 0.0
endloop
endfacet
facet normal -0.38268343236509 -0.923879532511287 -0.0
outer loop
vertex -7.50000000000001 -12.9903810567666 0.0
vertex -3.88228567653782 -14.488887394336 3.0
vertex -7.50000000000001 -12.9903810567666 3.0
endloop
endfacet
facet normal -0.608761429008721 -0.793353340291235 -0.0
outer loop
vertex -7.50000000000001 -12.9903810567666 3.0
vertex -10.6066017177982 -10.6066017177982 0.0
vertex -7.50000000000001 -12.9903810567666 0.0
endloop
endfacet
facet normal -0.608761429008721 -0.793353340291235 -0.0
outer loop
vertex -10.6066017177982 -10.6066017177982 0.0
vertex -7.50000000000001 -12.9903810567666 3.0
vertex -10.6066017177982 -10.6066017177982 3.0
endloop
endfacet
facet normal -0.793353340291235 -0.608761429008721 -0.0
outer loop
vertex -12.9903810567666 -7.5 3.0
vertex -10.6066017177982 -10.6066017177982 0.0
vertex -10.6066017177982 -10.6066017177982 3.0
endloop
endfacet
facet normal -0.793353340291235 -0.608761429008721 -0.0
outer loop
vertex -10.6066017177982 -10.6066017177982 0.0
vertex -12.9903810567666 -7.5 3.0
vertex -12.9903810567666 -7.5 0.0
endloop
endfacet
facet normal -0.923879532511287 -0.382683432365089 -0.0
outer loop
vertex -14.488887394336 -3.88228567653781 3.0
vertex -12.9903810567666 -7.5 0.0
vertex -12.9903810567666 -7.5 3.0
endloop
endfacet
facet normal -0.923879532511287 -0.382683432365089 -0.0
outer loop
vertex -12.9903810567666 -7.5 0.0
vertex -14.488887394336 -3.88228567653781 3.0
vertex -14.488887394336 -3.88228567653781 0.0
endloop
endfacet
facet normal -0.99144486137381 -0.130526192220052 -0.0
outer loop
vertex -15.0 9.18485099360515e-016 3.0
vertex -14.488887394336 -3.88228567653781 0.0
vertex -14.488887394336 -3.88228567653781 3.0
endloop
endfacet
facet normal -0.99144486137381 -0.130526192220052 -0.0
outer loop
vertex -14.488887394336 -3.88228567653781 0.0
vertex -15.0 9.18485099360515e-016 3.0
vertex -15.0 9.18485099360515e-016 0.0
endloop
endfacet
facet normal -0.99144486137381 0.130526192220052 0.0
outer loop
vertex -14.488887394336 3.88228567653781 3.0
vertex -15.0 9.18485099360515e-016 0.0
vertex -15.0 9.18485099360515e-016 3.0
endloop
endfacet
facet normal -0.99144486137381 0.130526192220052 0.0
outer loop
vertex -15.0 9.18485099360515e-016 0.0
vertex -14.488887394336 3.88228567653781 3.0
vertex -14.488887394336 3.88228567653781 0.0
endloop
endfacet
facet normal -0.923879532511287 0.38268343236509 0.0
outer loop
vertex -12.9903810567666 7.5 3.0
vertex -14.488887394336 3.88228567653781 0.0
vertex -14.488887394336 3.88228567653781 3.0
endloop
endfacet
facet normal -0.923879532511287 0.38268343236509 0.0
outer loop
vertex -14.488887394336 3.88228567653781 0.0
vertex -12.9903810567666 7.5 3.0
vertex -12.9903810567666 7.5 0.0
endloop
endfacet
facet normal -0.793353340291235 0.608761429008721 0.0
outer loop
vertex -10.6066017177982 10.6066017177982 3.0
vertex -12.9903810567666 7.5 0.0
vertex -12.9903810567666 7.5 3.0
endloop
endfacet
facet normal -0.793353340291235 0.608761429008721 0.0
outer loop
vertex -12.9903810567666 7.5 0.0
vertex -10.6066017177982 10.6066017177982 3.0
vertex -10.6066017177982 10.6066017177982 0.0
endloop
endfacet
facet normal -0.608761429008721 0.793353340291235 0.0
outer loop
vertex -10.6066017177982 10.6066017177982 3.0
vertex -7.5 12.9903810567666 0.0
vertex -10.6066017177982 10.6066017177982 0.0
endloop
endfacet
facet normal -0.608761429008721 0.793353340291235 0.0
outer loop
vertex -7.5 12.9903810567666 0.0
vertex -10.6066017177982 10.6066017177982 3.0
vertex -7.5 12.9903810567666 3.0
endloop
endfacet
facet normal -0.382683432365089 0.923879532511287 0.0
outer loop
vertex -7.5 12.9903810567666 3.0
vertex -3.88228567653781 14.488887394336 0.0
vertex -7.5 12.9903810567666 0.0
endloop
endfacet
facet normal -0.382683432365089 0.923879532511287 0.0
outer loop
vertex -3.88228567653781 14.488887394336 0.0
vertex -7.5 12.9903810567666 3.0
vertex -3.88228567653781 14.488887394336 3.0
endloop
endfacet
facet normal -0.130526192220052 -0.99144486137381 -8.93282918595631e-033
outer loop
vertex 1.09998094168571 4.10518476172854 4.0
vertex 1.53059423806169e-031 4.25 0.0
vertex 1.09998094168571 4.10518476172854 0.0
endloop
endfacet
facet normal -0.130526192220052 -0.99144486137381 -8.93282918595631e-033
outer loop
vertex 1.53059423806169e-031 4.25 0.0
vertex 1.09998094168571 4.10518476172854 4.0
vertex -9.34775955901116e-032 4.25 4.0
endloop
endfacet
facet normal 0.130526192220052 -0.99144486137381 4.38601332925332e-033
outer loop
vertex -9.34775955901116e-032 4.25 4.0
vertex -1.09998094168572 4.10518476172854 0.0
vertex 1.53059423806169e-031 4.25 0.0
endloop
endfacet
facet normal 0.130526192220052 -0.99144486137381 4.38601332925332e-033
outer loop
vertex -1.09998094168572 4.10518476172854 0.0
vertex -9.34775955901116e-032 4.25 4.0
vertex -1.09998094168572 4.10518476172854 4.0
endloop
endfacet
facet normal 0.382683432365091 -0.923879532511286 1.74059562843041e-032
outer loop
vertex -1.09998094168572 4.10518476172854 4.0
vertex -2.125 3.68060796608386 0.0
vertex -1.09998094168572 4.10518476172854 0.0
endloop
endfacet
facet normal 0.382683432365091 -0.923879532511286 1.74059562843041e-032
outer loop
vertex -2.125 3.68060796608386 0.0
vertex -1.09998094168572 4.10518476172854 4.0
vertex -2.125 3.68060796608386 4.0
endloop
endfacet
facet normal 0.608761429008721 -0.793353340291235 2.92397120832822e-032
outer loop
vertex -2.125 3.68060796608386 4.0
vertex -3.00520382004283 3.00520382004283 0.0
vertex -2.125 3.68060796608386 0.0
endloop
endfacet
facet normal 0.608761429008721 -0.793353340291235 2.92397120832822e-032
outer loop
vertex -3.00520382004283 3.00520382004283 0.0
vertex -2.125 3.68060796608386 4.0
vertex -3.00520382004283 3.00520382004283 4.0
endloop
endfacet
facet normal 0.793353340291236 -0.60876142900872 3.90808298246937e-032
outer loop
vertex -3.00520382004283 3.00520382004283 0.0
vertex -3.68060796608387 2.125 4.0
vertex -3.68060796608387 2.125 0.0
endloop
endfacet
facet normal 0.793353340291236 -0.60876142900872 3.90808298246937e-032
outer loop
vertex -3.68060796608387 2.125 4.0
vertex -3.00520382004283 3.00520382004283 0.0
vertex -3.00520382004283 3.00520382004283 4.0
endloop
endfacet
facet normal 0.923879532511287 -0.382683432365089 4.62586535976771e-032
outer loop
vertex -3.68060796608387 2.125 0.0
vertex -4.10518476172854 1.09998094168571 4.0
vertex -4.10518476172854 1.09998094168571 0.0
endloop
endfacet
facet normal 0.923879532511287 -0.382683432365089 4.62586535976771e-032
outer loop
vertex -4.10518476172854 1.09998094168571 4.0
vertex -3.68060796608387 2.125 0.0
vertex -3.68060796608387 2.125 4.0
endloop
endfacet
facet normal 0.99144486137381 -0.130526192220051 5.02840265740185e-032
outer loop
vertex -4.10518476172854 1.09998094168571 0.0
vertex -4.25 -7.80712334456438e-016 4.0
vertex -4.25 -7.80712334456438e-016 0.0
endloop
endfacet
facet normal 0.99144486137381 -0.130526192220051 5.02840265740185e-032
outer loop
vertex -4.25 -7.80712334456438e-016 4.0
vertex -4.10518476172854 1.09998094168571 0.0
vertex -4.10518476172854 1.09998094168571 4.0
endloop
endfacet
facet normal 0.99144486137381 0.130526192220052 5.08826262376234e-032
outer loop
vertex -4.25 -7.80712334456438e-016 0.0
vertex -4.10518476172854 -1.09998094168572 4.0
vertex -4.10518476172854 -1.09998094168572 0.0
endloop
endfacet
facet normal 0.99144486137381 0.130526192220052 5.08826262376234e-032
outer loop
vertex -4.10518476172854 -1.09998094168572 4.0
vertex -4.25 -7.80712334456438e-016 0.0
vertex -4.25 -7.80712334456438e-016 4.0
endloop
endfacet
facet normal 0.923879532511287 0.382683432365091 4.80136590106499e-032
outer loop
vertex -4.10518476172854 -1.09998094168572 0.0
vertex -3.68060796608386 -2.125 4.0
vertex -3.68060796608386 -2.125 0.0
endloop
endfacet
facet normal 0.923879532511287 0.382683432365091 4.80136590106499e-032
outer loop
vertex -3.68060796608386 -2.125 4.0
vertex -4.10518476172854 -1.09998094168572 0.0
vertex -4.10518476172854 -1.09998094168572 4.0
endloop
endfacet
facet normal 0.793353340291235 0.608761429008721 4.18726402684238e-032
outer loop
vertex -3.68060796608386 -2.125 0.0
vertex -3.00520382004283 -3.00520382004283 4.0
vertex -3.00520382004283 -3.00520382004283 0.0
endloop
endfacet
facet normal 0.793353340291235 0.608761429008721 4.18726402684238e-032
outer loop
vertex -3.00520382004283 -3.00520382004283 4.0
vertex -3.68060796608386 -2.125 0.0
vertex -3.68060796608386 -2.125 4.0
endloop
endfacet
facet normal 0.608761429008721 0.793353340291235 3.28780702897145e-032
outer loop
vertex -3.00520382004283 -3.00520382004283 4.0
vertex -2.125 -3.68060796608387 0.0
vertex -3.00520382004283 -3.00520382004283 0.0
endloop
endfacet
facet normal 0.608761429008721 0.793353340291235 3.28780702897145e-032
outer loop
vertex -2.125 -3.68060796608387 0.0
vertex -3.00520382004283 -3.00520382004283 4.0
vertex -2.125 -3.68060796608387 4.0
endloop
endfacet
facet normal 0.382683432365089 0.923879532511287 2.16429141543412e-032
outer loop
vertex -2.125 -3.68060796608387 4.0
vertex -1.09998094168571 -4.10518476172854 0.0
vertex -2.125 -3.68060796608387 0.0
endloop
endfacet
facet normal 0.382683432365089 0.923879532511287 2.16429141543412e-032
outer loop
vertex -1.09998094168571 -4.10518476172854 0.0
vertex -2.125 -3.68060796608387 4.0
vertex -1.09998094168571 -4.10518476172854 4.0
endloop
endfacet
facet normal 0.130526192220051 0.991444861373811 8.93282918595628e-033
outer loop
vertex -1.09998094168571 -4.10518476172854 4.0
vertex 5.20474889637625e-016 -4.25 0.0
vertex -1.09998094168571 -4.10518476172854 0.0
endloop
endfacet
facet normal 0.130526192220051 0.991444861373811 8.93282918595628e-033
outer loop
vertex 5.20474889637625e-016 -4.25 0.0
vertex -1.09998094168571 -4.10518476172854 4.0
vertex 5.20474889637625e-016 -4.25 4.0
endloop
endfacet
facet normal -0.130526192220052 0.99144486137381 -4.3860133292533e-033
outer loop
vertex 5.20474889637625e-016 -4.25 4.0
vertex 1.09998094168571 -4.10518476172854 0.0
vertex 5.20474889637625e-016 -4.25 0.0
endloop
endfacet
facet normal -0.130526192220052 0.99144486137381 -4.3860133292533e-033
outer loop
vertex 1.09998094168571 -4.10518476172854 0.0
vertex 5.20474889637625e-016 -4.25 4.0
vertex 1.09998094168571 -4.10518476172854 4.0
endloop
endfacet
facet normal -0.38268343236509 0.923879532511287 -1.7405956284304e-032
outer loop
vertex 1.09998094168571 -4.10518476172854 4.0
vertex 2.125 -3.68060796608386 0.0
vertex 1.09998094168571 -4.10518476172854 0.0
endloop
endfacet
facet normal -0.38268343236509 0.923879532511287 -1.7405956284304e-032
outer loop
vertex 2.125 -3.68060796608386 0.0
vertex 1.09998094168571 -4.10518476172854 4.0
vertex 2.125 -3.68060796608386 4.0
endloop
endfacet
facet normal -0.608761429008721 0.793353340291235 -2.92397120832822e-032
outer loop
vertex 2.125 -3.68060796608386 4.0
vertex 3.00520382004283 -3.00520382004283 0.0
vertex 2.125 -3.68060796608386 0.0
endloop
endfacet
facet normal -0.608761429008721 0.793353340291235 -2.92397120832822e-032
outer loop
vertex 3.00520382004283 -3.00520382004283 0.0
vertex 2.125 -3.68060796608386 4.0
vertex 3.00520382004283 -3.00520382004283 4.0
endloop
endfacet
facet normal -0.793353340291236 0.60876142900872 -3.90808298246937e-032
outer loop
vertex 3.68060796608386 -2.125 4.0
vertex 3.00520382004283 -3.00520382004283 0.0
vertex 3.00520382004283 -3.00520382004283 4.0
endloop
endfacet
facet normal -0.793353340291236 0.60876142900872 -3.90808298246937e-032
outer loop
vertex 3.00520382004283 -3.00520382004283 0.0
vertex 3.68060796608386 -2.125 4.0
vertex 3.68060796608386 -2.125 0.0
endloop
endfacet
facet normal -0.923879532511287 0.38268343236509 -4.62586535976771e-032
outer loop
vertex 4.10518476172854 -1.09998094168571 4.0
vertex 3.68060796608386 -2.125 0.0
vertex 3.68060796608386 -2.125 4.0
endloop
endfacet
facet normal -0.923879532511287 0.38268343236509 -4.62586535976771e-032
outer loop
vertex 3.68060796608386 -2.125 0.0
vertex 4.10518476172854 -1.09998094168571 4.0
vertex 4.10518476172854 -1.09998094168571 0.0
endloop
endfacet
facet normal -0.99144486137381 0.130526192220052 -5.02840265740185e-032
outer loop
vertex 4.25 2.60237444818813e-016 4.0
vertex 4.10518476172854 -1.09998094168571 0.0
vertex 4.10518476172854 -1.09998094168571 4.0
endloop
endfacet
facet normal -0.99144486137381 0.130526192220052 -5.02840265740185e-032
outer loop
vertex 4.10518476172854 -1.09998094168571 0.0
vertex 4.25 2.60237444818813e-016 4.0
vertex 4.25 2.60237444818813e-016 0.0
endloop
endfacet
facet normal -0.99144486137381 -0.130526192220052 -5.08826262376234e-032
outer loop
vertex 4.10518476172854 1.09998094168571 4.0
vertex 4.25 2.60237444818813e-016 0.0
vertex 4.25 2.60237444818813e-016 4.0
endloop
endfacet
facet normal -0.99144486137381 -0.130526192220052 -5.08826262376234e-032
outer loop
vertex 4.25 2.60237444818813e-016 0.0
vertex 4.10518476172854 1.09998094168571 4.0
vertex 4.10518476172854 1.09998094168571 0.0
endloop
endfacet
facet normal -0.923879532511287 -0.38268343236509 -4.801365901065e-032
outer loop
vertex 3.68060796608386 2.125 4.0
vertex 4.10518476172854 1.09998094168571 0.0
vertex 4.10518476172854 1.09998094168571 4.0
endloop
endfacet
facet normal -0.923879532511287 -0.38268343236509 -4.801365901065e-032
outer loop
vertex 4.10518476172854 1.09998094168571 0.0
vertex 3.68060796608386 2.125 4.0
vertex 3.68060796608386 2.125 0.0
endloop
endfacet
facet normal -0.793353340291235 -0.608761429008721 -4.18726402684238e-032
outer loop
vertex 3.00520382004283 3.00520382004283 4.0
vertex 3.68060796608386 2.125 0.0
vertex 3.68060796608386 2.125 4.0
endloop
endfacet
facet normal -0.793353340291235 -0.608761429008721 -4.18726402684238e-032
outer loop
vertex 3.68060796608386 2.125 0.0
vertex 3.00520382004283 3.00520382004283 4.0
vertex 3.00520382004283 3.00520382004283 0.0
endloop
endfacet
facet normal -0.608761429008721 -0.793353340291235 -3.28780702897145e-032
outer loop
vertex 3.00520382004283 3.00520382004283 4.0
vertex 2.125 3.68060796608386 0.0
vertex 3.00520382004283 3.00520382004283 0.0
endloop
endfacet
facet normal -0.608761429008721 -0.793353340291235 -3.28780702897145e-032
outer loop
vertex 2.125 3.68060796608386 0.0
vertex 3.00520382004283 3.00520382004283 4.0
vertex 2.125 3.68060796608386 4.0
endloop
endfacet
facet normal -0.38268343236509 -0.923879532511287 -2.16429141543412e-032
outer loop
vertex 2.125 3.68060796608386 4.0
vertex 1.09998094168571 4.10518476172854 0.0
vertex 2.125 3.68060796608386 0.0
endloop
endfacet
facet normal -0.38268343236509 -0.923879532511287 -2.16429141543412e-032
outer loop
vertex 1.09998094168571 4.10518476172854 0.0
vertex 2.125 3.68060796608386 4.0
vertex 1.09998094168571 4.10518476172854 4.0
endloop
endfacet
facet normal -9.34775955901117e-032 -1.95583892311618e-032 1.0
outer loop
vertex -4.24264068711928 -4.24264068711929 4.0
vertex -4.25 -7.80712334456438e-016 4.0
vertex -5.19615242270663 -3.0 4.0
endloop
endfacet
facet normal -9.34775955901117e-032 -1.95583892311618e-032 1.0
outer loop
vertex -4.25 -7.80712334456438e-016 4.0
vertex -4.24264068711928 -4.24264068711929 4.0
vertex -4.10518476172854 -1.09998094168572 4.0
endloop
endfacet
facet normal -9.34775955901117e-032 -1.95583892311618e-032 1.0
outer loop
vertex -4.10518476172854 -1.09998094168572 4.0
vertex -4.24264068711928 -4.24264068711929 4.0
vertex -3.0 -5.19615242270663 4.0
endloop
endfacet
facet normal -9.34775955901117e-032 -1.95583892311618e-032 1.0
outer loop
vertex -4.10518476172854 -1.09998094168572 4.0
vertex -3.0 -5.19615242270663 4.0
vertex -3.68060796608386 -2.125 4.0
endloop
endfacet
facet normal -9.34775955901117e-032 -1.95583892311618e-032 1.0
outer loop
vertex -3.68060796608386 -2.125 4.0
vertex -3.0 -5.19615242270663 4.0
vertex -3.00520382004283 -3.00520382004283 4.0
endloop
endfacet
facet normal -9.34775955901117e-032 -1.95583892311618e-032 1.0
outer loop
vertex -3.00520382004283 -3.00520382004283 4.0
vertex -3.0 -5.19615242270663 4.0
vertex -2.125 -3.68060796608387 4.0
endloop
endfacet
facet normal -9.34775955901117e-032 -1.95583892311618e-032 1.0
outer loop
vertex -2.125 -3.68060796608387 4.0
vertex -3.0 -5.19615242270663 4.0
vertex -1.55291427061512 -5.79555495773441 4.0
endloop
endfacet
facet normal -9.34775955901117e-032 -1.95583892311618e-032 1.0
outer loop
vertex -2.125 -3.68060796608387 4.0
vertex -1.55291427061512 -5.79555495773441 4.0
vertex -1.09998094168571 -4.10518476172854 4.0
endloop
endfacet
facet normal -9.34775955901117e-032 -1.95583892311618e-032 1.0
outer loop
vertex -1.09998094168571 -4.10518476172854 4.0
vertex -1.55291427061512 -5.79555495773441 4.0
vertex 7.34788079488412e-016 -6.0 4.0
endloop
endfacet
facet normal -9.34775955901117e-032 -1.95583892311618e-032 1.0
outer loop
vertex -1.09998094168571 -4.10518476172854 4.0
vertex 7.34788079488412e-016 -6.0 4.0
vertex 5.20474889637625e-016 -4.25 4.0
endloop
endfacet
facet normal -9.34775955901117e-032 -1.95583892311618e-032 1.0
outer loop
vertex 5.20474889637625e-016 -4.25 4.0
vertex 7.34788079488412e-016 -6.0 4.0
vertex 1.09998094168571 -4.10518476172854 4.0
endloop
endfacet
facet normal -9.34775955901117e-032 -1.95583892311618e-032 1.0
outer loop
vertex 1.09998094168571 -4.10518476172854 4.0
vertex 7.34788079488412e-016 -6.0 4.0
vertex 1.55291427061513 -5.79555495773441 4.0
endloop
endfacet
facet normal -9.34775955901117e-032 -1.95583892311618e-032 1.0
outer loop
vertex 1.09998094168571 -4.10518476172854 4.0
vertex 1.55291427061513 -5.79555495773441 4.0
vertex 2.125 -3.68060796608386 4.0
endloop
endfacet
facet normal -9.34775955901117e-032 -1.95583892311618e-032 1.0
outer loop
vertex 2.125 -3.68060796608386 4.0
vertex 1.55291427061513 -5.79555495773441 4.0
vertex 3.0 -5.19615242270663 4.0
endloop
endfacet
facet normal -9.34775955901117e-032 -1.95583892311618e-032 1.0
outer loop
vertex 2.125 -3.68060796608386 4.0
vertex 3.0 -5.19615242270663 4.0
vertex 3.00520382004283 -3.00520382004283 4.0
endloop
endfacet
facet normal -9.34775955901117e-032 -1.95583892311618e-032 1.0
outer loop
vertex 3.00520382004283 -3.00520382004283 4.0
vertex 3.0 -5.19615242270663 4.0
vertex 4.24264068711929 -4.24264068711928 4.0
endloop
endfacet
facet normal -9.34775955901117e-032 -1.95583892311618e-032 1.0
outer loop
vertex 3.00520382004283 -3.00520382004283 4.0
vertex 4.24264068711929 -4.24264068711928 4.0
vertex 3.68060796608386 -2.125 4.0
endloop
endfacet
facet normal -9.34775955901117e-032 -1.95583892311618e-032 1.0
outer loop
vertex 3.68060796608386 -2.125 4.0
vertex 4.24264068711929 -4.24264068711928 4.0
vertex 4.10518476172854 -1.09998094168571 4.0
endloop
endfacet
facet normal -9.34775955901117e-032 -1.95583892311618e-032 1.0
outer loop
vertex 4.10518476172854 -1.09998094168571 4.0
vertex 4.24264068711929 -4.24264068711928 4.0
vertex 4.25 2.60237444818813e-016 4.0
endloop
endfacet
facet normal -9.34775955901117e-032 -1.95583892311618e-032 1.0
outer loop
vertex 4.25 2.60237444818813e-016 4.0
vertex 4.24264068711929 -4.24264068711928 4.0
vertex 5.19615242270663 -3.0 4.0
endloop
endfacet
facet normal -9.34775955901117e-032 -1.95583892311618e-032 1.0
outer loop
vertex 4.25 2.60237444818813e-016 4.0
vertex 5.19615242270663 -3.0 4.0
vertex 5.19615242270663 3.0 4.0
endloop
endfacet
facet normal -9.34775955901117e-032 -1.95583892311618e-032 1.0
outer loop
vertex 5.19615242270663 3.0 4.0
vertex 5.19615242270663 -3.0 4.0
vertex 5.79555495773441 1.55291427061513 4.0
endloop
endfacet
facet normal -9.34775955901117e-032 -1.95583892311618e-032 1.0
outer loop
vertex 5.79555495773441 1.55291427061513 4.0
vertex 5.19615242270663 -3.0 4.0
vertex 5.79555495773441 -1.55291427061512 4.0
endloop
endfacet
facet normal -9.34775955901117e-032 -1.95583892311618e-032 1.0
outer loop
vertex 5.79555495773441 1.55291427061513 4.0
vertex 5.79555495773441 -1.55291427061512 4.0
vertex 6.0 3.67394039744206e-016 4.0
endloop
endfacet
facet normal -9.34775955901117e-032 -1.95583892311618e-032 1.0
outer loop
vertex -5.79555495773441 -1.55291427061513 4.0
vertex -5.79555495773441 1.55291427061512 4.0
vertex -6.0 -1.10218211923262e-015 4.0
endloop
endfacet
facet normal -9.34775955901117e-032 -1.95583892311618e-032 1.0
outer loop
vertex -5.79555495773441 1.55291427061512 4.0
vertex -5.79555495773441 -1.55291427061513 4.0
vertex -5.19615242270663 3.0 4.0
endloop
endfacet
facet normal -9.34775955901117e-032 -1.95583892311618e-032 1.0
outer loop
vertex -5.19615242270663 3.0 4.0
vertex -5.79555495773441 -1.55291427061513 4.0
vertex -5.19615242270663 -3.0 4.0
endloop
endfacet
facet normal -9.34775955901117e-032 -1.95583892311618e-032 1.0
outer loop
vertex -5.19615242270663 3.0 4.0
vertex -5.19615242270663 -3.0 4.0
vertex -4.24264068711929 4.24264068711928 4.0
endloop
endfacet
facet normal -9.34775955901117e-032 -1.95583892311618e-032 1.0
outer loop
vertex -4.24264068711929 4.24264068711928 4.0
vertex -5.19615242270663 -3.0 4.0
vertex -4.25 -7.80712334456438e-016 4.0
endloop
endfacet
facet normal -9.34775955901117e-032 -1.95583892311618e-032 1.0
outer loop
vertex -4.24264068711929 4.24264068711928 4.0
vertex -4.25 -7.80712334456438e-016 4.0
vertex -4.10518476172854 1.09998094168571 4.0
endloop
endfacet
facet normal -9.34775955901117e-032 -1.95583892311618e-032 1.0
outer loop
vertex -4.24264068711929 4.24264068711928 4.0
vertex -4.10518476172854 1.09998094168571 4.0
vertex -3.0 5.19615242270663 4.0
endloop
endfacet
facet normal -9.34775955901117e-032 -1.95583892311618e-032 1.0
outer loop
vertex -3.0 5.19615242270663 4.0
vertex -4.10518476172854 1.09998094168571 4.0
vertex -3.68060796608387 2.125 4.0
endloop
endfacet
facet normal -9.34775955901117e-032 -1.95583892311618e-032 1.0
outer loop
vertex -3.0 5.19615242270663 4.0
vertex -3.68060796608387 2.125 4.0
vertex -3.00520382004283 3.00520382004283 4.0
endloop
endfacet
facet normal -9.34775955901117e-032 -1.95583892311618e-032 1.0
outer loop
vertex -3.0 5.19615242270663 4.0
vertex -3.00520382004283 3.00520382004283 4.0
vertex -2.125 3.68060796608386 4.0
endloop
endfacet
facet normal -9.34775955901117e-032 -1.95583892311618e-032 1.0
outer loop
vertex -3.0 5.19615242270663 4.0
vertex -2.125 3.68060796608386 4.0
vertex -1.55291427061513 5.79555495773441 4.0
endloop
endfacet
facet normal -9.34775955901117e-032 -1.95583892311618e-032 1.0
outer loop
vertex -1.55291427061513 5.79555495773441 4.0
vertex -2.125 3.68060796608386 4.0
vertex -1.09998094168572 4.10518476172854 4.0
endloop
endfacet
facet normal -9.34775955901117e-032 -1.95583892311618e-032 1.0
outer loop
vertex -1.55291427061513 5.79555495773441 4.0
vertex -1.09998094168572 4.10518476172854 4.0
vertex -9.34775955901116e-032 6.0 4.0
endloop
endfacet
facet normal -9.34775955901117e-032 -1.95583892311618e-032 1.0
outer loop
vertex -9.34775955901116e-032 6.0 4.0
vertex -1.09998094168572 4.10518476172854 4.0
vertex -9.34775955901116e-032 4.25 4.0
endloop
endfacet
facet normal -9.34775955901117e-032 -1.95583892311618e-032 1.0
outer loop
vertex -9.34775955901116e-032 6.0 4.0
vertex -9.34775955901116e-032 4.25 4.0
vertex 1.09998094168571 4.10518476172854 4.0
endloop
endfacet
facet normal -9.34775955901117e-032 -1.95583892311618e-032 1.0
outer loop
vertex -9.34775955901116e-032 6.0 4.0
vertex 1.09998094168571 4.10518476172854 4.0
vertex 1.55291427061512 5.79555495773441 4.0
endloop
endfacet
facet normal -9.34775955901117e-032 -1.95583892311618e-032 1.0
outer loop
vertex 1.55291427061512 5.79555495773441 4.0
vertex 1.09998094168571 4.10518476172854 4.0
vertex 2.125 3.68060796608386 4.0
endloop
endfacet
facet normal -9.34775955901117e-032 -1.95583892311618e-032 1.0
outer loop
vertex 1.55291427061512 5.79555495773441 4.0
vertex 2.125 3.68060796608386 4.0
vertex 3.0 5.19615242270663 4.0
endloop
endfacet
facet normal -9.34775955901117e-032 -1.95583892311618e-032 1.0
outer loop
vertex 3.0 5.19615242270663 4.0
vertex 2.125 3.68060796608386 4.0
vertex 3.00520382004283 3.00520382004283 4.0
endloop
endfacet
facet normal -9.34775955901117e-032 -1.95583892311618e-032 1.0
outer loop
vertex 3.0 5.19615242270663 4.0
vertex 3.00520382004283 3.00520382004283 4.0
vertex 4.24264068711928 4.24264068711928 4.0
endloop
endfacet
facet normal -9.34775955901117e-032 -1.95583892311618e-032 1.0
outer loop
vertex 4.24264068711928 4.24264068711928 4.0
vertex 3.00520382004283 3.00520382004283 4.0
vertex 3.68060796608386 2.125 4.0
endloop
endfacet
facet normal -9.34775955901117e-032 -1.95583892311618e-032 1.0
outer loop
vertex 4.24264068711928 4.24264068711928 4.0
vertex 3.68060796608386 2.125 4.0
vertex 4.10518476172854 1.09998094168571 4.0
endloop
endfacet
facet normal -9.34775955901117e-032 -1.95583892311618e-032 1.0
outer loop
vertex 4.24264068711928 4.24264068711928 4.0
vertex 4.10518476172854 1.09998094168571 4.0
vertex 4.25 2.60237444818813e-016 4.0
endloop
endfacet
facet normal -9.34775955901117e-032 -1.95583892311618e-032 1.0
outer loop
vertex 4.24264068711928 4.24264068711928 4.0
vertex 4.25 2.60237444818813e-016 4.0
vertex 5.19615242270663 3.0 4.0
endloop
endfacet
facet normal 0.38268343236509 0.923879532511287 5.38419226292193e-032
outer loop
vertex 1.55291427061512 5.79555495773441 4.0
vertex 3.0 5.19615242270663 3.0
vertex 1.55291427061512 5.79555495773441 3.0
endloop
endfacet
facet normal 0.38268343236509 0.923879532511287 5.38419226292193e-032
outer loop
vertex 3.0 5.19615242270663 3.0
vertex 1.55291427061512 5.79555495773441 4.0
vertex 3.0 5.19615242270663 4.0
endloop
endfacet
facet normal 0.130526192220051 0.99144486137381 3.15923391102474e-032
outer loop
vertex -9.34775955901116e-032 6.0 4.0
vertex 1.55291427061512 5.79555495773441 3.0
vertex 0.0 6.0 3.0
endloop
endfacet
facet normal 0.130526192220051 0.99144486137381 3.15923391102474e-032
outer loop
vertex 1.55291427061512 5.79555495773441 3.0
vertex -9.34775955901116e-032 6.0 4.0
vertex 1.55291427061512 5.79555495773441 4.0
endloop
endfacet
facet normal -0.130526192220052 0.99144486137381 7.18978988972108e-033
outer loop
vertex -1.55291427061513 5.79555495773441 4.0
vertex 0.0 6.0 3.0
vertex -1.55291427061513 5.79555495773441 3.0
endloop
endfacet
facet normal -0.130526192220052 0.99144486137381 7.18978988972108e-033
outer loop
vertex 0.0 6.0 3.0
vertex -1.55291427061513 5.79555495773441 4.0
vertex -9.34775955901116e-032 6.0 4.0
endloop
endfacet
facet normal -0.38268343236509 0.923879532511287 -1.77027316301002e-032
outer loop
vertex -3.0 5.19615242270663 4.0
vertex -1.55291427061513 5.79555495773441 3.0
vertex -3.0 5.19615242270663 3.0
endloop
endfacet
facet normal -0.38268343236509 0.923879532511287 -1.77027316301002e-032
outer loop
vertex -1.55291427061513 5.79555495773441 3.0
vertex -3.0 5.19615242270663 4.0
vertex -1.55291427061513 5.79555495773441 4.0
endloop
endfacet
facet normal -0.608761429008721 0.793353340291235 -4.13888412444773e-032
outer loop
vertex -4.24264068711929 4.24264068711928 4.0
vertex -3.0 5.19615242270663 3.0
vertex -4.24264068711929 4.24264068711928 3.0
endloop
endfacet
facet normal -0.608761429008721 0.793353340291235 -4.13888412444773e-032
outer loop
vertex -3.0 5.19615242270663 3.0
vertex -4.24264068711929 4.24264068711928 4.0
vertex -3.0 5.19615242270663 4.0
endloop
endfacet
facet normal -0.793353340291236 0.60876142900872 -6.22543697263375e-032
outer loop
vertex -4.24264068711929 4.24264068711928 4.0
vertex -5.19615242270663 3.0 3.0
vertex -5.19615242270663 3.0 4.0
endloop
endfacet
facet normal -0.793353340291236 0.60876142900872 -6.22543697263375e-032
outer loop
vertex -5.19615242270663 3.0 3.0
vertex -4.24264068711929 4.24264068711928 4.0
vertex -4.24264068711929 4.24264068711928 3.0
endloop
endfacet
facet normal -0.923879532511287 0.382683432365089 -7.88773657915581e-032
outer loop
vertex -5.19615242270663 3.0 4.0
vertex -5.79555495773441 1.55291427061512 3.0
vertex -5.79555495773441 1.55291427061512 4.0
endloop
endfacet
facet normal -0.923879532511287 0.382683432365089 -7.88773657915581e-032
outer loop
vertex -5.79555495773441 1.55291427061512 3.0
vertex -5.19615242270663 3.0 4.0
vertex -5.19615242270663 3.0 3.0
endloop
endfacet
facet normal -0.99144486137381 0.130526192220051 -9.01249997290942e-032
outer loop
vertex -5.79555495773441 1.55291427061512 4.0
vertex -6.0 -1.10218211923262e-015 3.0
vertex -6.0 -1.10218211923262e-015 4.0
endloop
endfacet
facet normal -0.99144486137381 0.130526192220051 -9.01249997290942e-032
outer loop
vertex -6.0 -1.10218211923262e-015 3.0
vertex -5.79555495773441 1.55291427061512 4.0
vertex -5.79555495773441 1.55291427061512 3.0
endloop
endfacet
facet normal -0.99144486137381 -0.130526192220052 -9.52307638736966e-032
outer loop
vertex -6.0 -1.10218211923262e-015 4.0
vertex -5.79555495773441 -1.55291427061513 3.0
vertex -5.79555495773441 -1.55291427061513 4.0
endloop
endfacet
facet normal -0.99144486137381 -0.130526192220052 -9.52307638736966e-032
outer loop
vertex -5.79555495773441 -1.55291427061513 3.0
vertex -6.0 -1.10218211923262e-015 4.0
vertex -6.0 -1.10218211923262e-015 3.0
endloop
endfacet
facet normal -0.923879532511287 -0.38268343236509 -9.38467088365849e-032
outer loop
vertex -5.79555495773441 -1.55291427061513 4.0
vertex -5.19615242270663 -3.0 3.0
vertex -5.19615242270663 -3.0 4.0
endloop
endfacet
facet normal -0.923879532511287 -0.38268343236509 -9.38467088365849e-032
outer loop
vertex -5.19615242270663 -3.0 3.0
vertex -5.79555495773441 -1.55291427061513 4.0
vertex -5.79555495773441 -1.55291427061513 3.0
endloop
endfacet
facet normal -0.793353340291235 -0.608761429008721 -8.60671556812791e-032
outer loop
vertex -5.19615242270663 -3.0 4.0
vertex -4.24264068711928 -4.24264068711929 3.0
vertex -4.24264068711928 -4.24264068711929 4.0
endloop
endfacet
facet normal -0.793353340291235 -0.608761429008721 -8.60671556812791e-032
outer loop
vertex -4.24264068711928 -4.24264068711929 3.0
vertex -5.19615242270663 -3.0 4.0
vertex -5.19615242270663 -3.0 3.0
endloop
endfacet
facet normal -0.60876142900872 -0.793353340291236 -7.2422268098994e-032
outer loop
vertex -3.0 -5.19615242270663 4.0
vertex -4.24264068711928 -4.24264068711929 3.0
vertex -3.0 -5.19615242270663 3.0
endloop
endfacet
facet normal -0.60876142900872 -0.793353340291236 -7.2422268098994e-032
outer loop
vertex -4.24264068711928 -4.24264068711929 3.0
vertex -3.0 -5.19615242270663 4.0
vertex -4.24264068711928 -4.24264068711929 4.0
endloop
endfacet
facet normal -0.382683432365089 -0.923879532511287 -5.38419226292193e-032
outer loop
vertex -1.55291427061512 -5.79555495773441 4.0
vertex -3.0 -5.19615242270663 3.0
vertex -1.55291427061512 -5.79555495773441 3.0
endloop
endfacet
facet normal -0.382683432365089 -0.923879532511287 -5.38419226292193e-032
outer loop
vertex -3.0 -5.19615242270663 3.0
vertex -1.55291427061512 -5.79555495773441 4.0
vertex -3.0 -5.19615242270663 4.0
endloop
endfacet
facet normal -0.130526192220051 -0.991444861373811 -3.15923391102474e-032
outer loop
vertex 7.34788079488412e-016 -6.0 4.0
vertex -1.55291427061512 -5.79555495773441 3.0
vertex 7.34788079488412e-016 -6.0 3.0
endloop
endfacet
facet normal -0.130526192220051 -0.991444861373811 -3.15923391102474e-032
outer loop
vertex -1.55291427061512 -5.79555495773441 3.0
vertex 7.34788079488412e-016 -6.0 4.0
vertex -1.55291427061512 -5.79555495773441 4.0
endloop
endfacet
facet normal 0.130526192220052 -0.99144486137381 -7.1897898897211e-033
outer loop
vertex 1.55291427061513 -5.79555495773441 4.0
vertex 7.34788079488412e-016 -6.0 3.0
vertex 1.55291427061513 -5.79555495773441 3.0
endloop
endfacet
facet normal 0.130526192220052 -0.99144486137381 -7.1897898897211e-033
outer loop
vertex 7.34788079488412e-016 -6.0 3.0
vertex 1.55291427061513 -5.79555495773441 4.0
vertex 7.34788079488412e-016 -6.0 4.0
endloop
endfacet
facet normal 0.38268343236509 -0.923879532511287 1.77027316301001e-032
outer loop
vertex 3.0 -5.19615242270663 4.0
vertex 1.55291427061513 -5.79555495773441 3.0
vertex 3.0 -5.19615242270663 3.0
endloop
endfacet
facet normal 0.38268343236509 -0.923879532511287 1.77027316301001e-032
outer loop
vertex 1.55291427061513 -5.79555495773441 3.0
vertex 3.0 -5.19615242270663 4.0
vertex 1.55291427061513 -5.79555495773441 4.0
endloop
endfacet
facet normal 0.608761429008721 -0.793353340291235 4.13888412444773e-032
outer loop
vertex 4.24264068711929 -4.24264068711928 4.0
vertex 3.0 -5.19615242270663 3.0
vertex 4.24264068711929 -4.24264068711928 3.0
endloop
endfacet
facet normal 0.608761429008721 -0.793353340291235 4.13888412444773e-032
outer loop
vertex 3.0 -5.19615242270663 3.0
vertex 4.24264068711929 -4.24264068711928 4.0
vertex 3.0 -5.19615242270663 4.0
endloop
endfacet
facet normal 0.793353340291236 -0.60876142900872 6.22543697263375e-032
outer loop
vertex 5.19615242270663 -3.0 3.0
vertex 4.24264068711929 -4.24264068711928 4.0
vertex 4.24264068711929 -4.24264068711928 3.0
endloop
endfacet
facet normal 0.793353340291236 -0.60876142900872 6.22543697263375e-032
outer loop
vertex 4.24264068711929 -4.24264068711928 4.0
vertex 5.19615242270663 -3.0 3.0
vertex 5.19615242270663 -3.0 4.0
endloop
endfacet
facet normal 0.923879532511287 -0.38268343236509 7.8877365791558e-032
outer loop
vertex 5.79555495773441 -1.55291427061512 3.0
vertex 5.19615242270663 -3.0 4.0
vertex 5.19615242270663 -3.0 3.0
endloop
endfacet
facet normal 0.923879532511287 -0.38268343236509 7.8877365791558e-032
outer loop
vertex 5.19615242270663 -3.0 4.0
vertex 5.79555495773441 -1.55291427061512 3.0
vertex 5.79555495773441 -1.55291427061512 4.0
endloop
endfacet
facet normal 0.99144486137381 -0.130526192220051 9.01249997290942e-032
outer loop
vertex 6.0 3.67394039744206e-016 3.0
vertex 5.79555495773441 -1.55291427061512 4.0
vertex 5.79555495773441 -1.55291427061512 3.0
endloop
endfacet
facet normal 0.99144486137381 -0.130526192220051 9.01249997290942e-032
outer loop
vertex 5.79555495773441 -1.55291427061512 4.0
vertex 6.0 3.67394039744206e-016 3.0
vertex 6.0 3.67394039744206e-016 4.0
endloop
endfacet
facet normal 0.99144486137381 0.130526192220052 9.52307638736966e-032
outer loop
vertex 5.79555495773441 1.55291427061513 3.0
vertex 6.0 3.67394039744206e-016 4.0
vertex 6.0 3.67394039744206e-016 3.0
endloop
endfacet
facet normal 0.99144486137381 0.130526192220052 9.52307638736966e-032
outer loop
vertex 6.0 3.67394039744206e-016 4.0
vertex 5.79555495773441 1.55291427061513 3.0
vertex 5.79555495773441 1.55291427061513 4.0
endloop
endfacet
facet normal 0.923879532511287 0.38268343236509 9.38467088365849e-032
outer loop
vertex 5.19615242270663 3.0 3.0
vertex 5.79555495773441 1.55291427061513 4.0
vertex 5.79555495773441 1.55291427061513 3.0
endloop
endfacet
facet normal 0.923879532511287 0.38268343236509 9.38467088365849e-032
outer loop
vertex 5.79555495773441 1.55291427061513 4.0
vertex 5.19615242270663 3.0 3.0
vertex 5.19615242270663 3.0 4.0
endloop
endfacet
facet normal 0.793353340291235 0.608761429008721 8.60671556812792e-032
outer loop
vertex 4.24264068711928 4.24264068711928 3.0
vertex 5.19615242270663 3.0 4.0
vertex 5.19615242270663 3.0 3.0
endloop
endfacet
facet normal 0.793353340291235 0.608761429008721 8.60671556812792e-032
outer loop
vertex 5.19615242270663 3.0 4.0
vertex 4.24264068711928 4.24264068711928 3.0
vertex 4.24264068711928 4.24264068711928 4.0
endloop
endfacet
facet normal 0.60876142900872 0.793353340291235 7.2422268098994e-032
outer loop
vertex 3.0 5.19615242270663 4.0
vertex 4.24264068711928 4.24264068711928 3.0
vertex 3.0 5.19615242270663 3.0
endloop
endfacet
facet normal 0.60876142900872 0.793353340291235 7.2422268098994e-032
outer loop
vertex 4.24264068711928 4.24264068711928 3.0
vertex 3.0 5.19615242270663 4.0
vertex 4.24264068711928 4.24264068711928 4.0
endloop
endfacet
endsolid JOUE_608ZZ
