solid MOLETTE
facet normal 0.130526192220051 0.99144486137381 -0.0
outer loop
vertex 9.0723279346207 2.47580512393408 3.5
vertex 9.58996602482575 2.40765677651222 1.0
vertex 9.0723279346207 2.47580512393408 1.0
endloop
endfacet
facet normal 0.130526192220051 0.99144486137381 -0.0
outer loop
vertex 9.58996602482575 2.40765677651222 1.0
vertex 9.0723279346207 2.47580512393408 3.5
vertex 9.58996602482575 2.40765677651222 3.5
endloop
endfacet
facet normal -0.130526192220051 0.99144486137381 -0.0
outer loop
vertex 9.58996602482575 2.40765677651222 3.5
vertex 10.1076041150308 2.47580512393408 1.0
vertex 9.58996602482575 2.40765677651222 1.0
endloop
endfacet
facet normal -0.130526192220051 0.99144486137381 -0.0
outer loop
vertex 10.1076041150308 2.47580512393408 1.0
vertex 9.58996602482575 2.40765677651222 3.5
vertex 10.1076041150308 2.47580512393408 3.5
endloop
endfacet
facet normal -0.382683432365095 0.923879532511285 -0.0
outer loop
vertex 10.1076041150308 2.47580512393408 3.5
vertex 10.5899660248257 2.67560596894334 1.0
vertex 10.1076041150308 2.47580512393408 1.0
endloop
endfacet
facet normal -0.382683432365095 0.923879532511285 -0.0
outer loop
vertex 10.5899660248257 2.67560596894334 1.0
vertex 10.1076041150308 2.47580512393408 3.5
vertex 10.5899660248257 2.67560596894334 3.5
endloop
endfacet
facet normal -0.608761429008713 0.793353340291241 -0.0
outer loop
vertex 10.5899660248257 2.67560596894334 3.5
vertex 11.0041795871988 2.99344321413912 1.0
vertex 10.5899660248257 2.67560596894334 1.0
endloop
endfacet
facet normal -0.608761429008713 0.793353340291241 -0.0
outer loop
vertex 11.0041795871988 2.99344321413912 1.0
vertex 10.5899660248257 2.67560596894334 3.5
vertex 11.0041795871988 2.99344321413912 3.5
endloop
endfacet
facet normal -0.793353340291249 0.608761429008703 0.0
outer loop
vertex 11.3220168323946 3.40765677651222 3.5
vertex 11.0041795871988 2.99344321413912 1.0
vertex 11.0041795871988 2.99344321413912 3.5
endloop
endfacet
facet normal -0.793353340291249 0.608761429008703 0.0
outer loop
vertex 11.0041795871988 2.99344321413912 1.0
vertex 11.3220168323946 3.40765677651222 3.5
vertex 11.3220168323946 3.40765677651222 1.0
endloop
endfacet
facet normal -0.923879532511294 0.382683432365073 0.0
outer loop
vertex 11.5218176774039 3.89001868630718 3.5
vertex 11.3220168323946 3.40765677651222 1.0
vertex 11.3220168323946 3.40765677651222 3.5
endloop
endfacet
facet normal -0.923879532511294 0.382683432365073 0.0
outer loop
vertex 11.3220168323946 3.40765677651222 1.0
vertex 11.5218176774039 3.89001868630718 3.5
vertex 11.5218176774039 3.89001868630718 1.0
endloop
endfacet
facet normal -0.991444861373808 0.130526192220073 0.0
outer loop
vertex 11.5899660248257 4.40765677651222 3.5
vertex 11.5218176774039 3.89001868630718 1.0
vertex 11.5218176774039 3.89001868630718 3.5
endloop
endfacet
facet normal -0.991444861373808 0.130526192220073 0.0
outer loop
vertex 11.5218176774039 3.89001868630718 1.0
vertex 11.5899660248257 4.40765677651222 3.5
vertex 11.5899660248257 4.40765677651222 1.0
endloop
endfacet
facet normal -0.991444861373808 -0.130526192220073 0.0
outer loop
vertex 11.5218176774039 4.92529486671726 3.5
vertex 11.5899660248257 4.40765677651222 1.0
vertex 11.5899660248257 4.40765677651222 3.5
endloop
endfacet
facet normal -0.991444861373808 -0.130526192220073 0.0
outer loop
vertex 11.5899660248257 4.40765677651222 1.0
vertex 11.5218176774039 4.92529486671726 3.5
vertex 11.5218176774039 4.92529486671726 1.0
endloop
endfacet
facet normal -0.923879532511294 -0.382683432365073 0.0
outer loop
vertex 11.3220168323946 5.40765677651222 3.5
vertex 11.5218176774039 4.92529486671726 1.0
vertex 11.5218176774039 4.92529486671726 3.5
endloop
endfacet
facet normal -0.923879532511294 -0.382683432365073 0.0
outer loop
vertex 11.5218176774039 4.92529486671726 1.0
vertex 11.3220168323946 5.40765677651222 3.5
vertex 11.3220168323946 5.40765677651222 1.0
endloop
endfacet
facet normal -0.793353340291249 -0.608761429008702 -3.40655041969391e-018
outer loop
vertex 11.0041795871988 5.82187033888532 3.5
vertex 11.3220168323946 5.40765677651222 1.0
vertex 11.3220168323946 5.40765677651222 3.5
endloop
endfacet
facet normal -0.793353340291249 -0.608761429008702 -3.40655041969391e-018
outer loop
vertex 11.3220168323946 5.40765677651222 1.0
vertex 11.0041795871988 5.82187033888532 3.5
vertex 11.0041795871988 5.82187033888532 1.0
endloop
endfacet
facet normal -0.608761429008713 -0.793353340291241 -4.43950294080801e-018
outer loop
vertex 11.0041795871988 5.82187033888532 3.5
vertex 10.5899660248257 6.1397075840811 1.0
vertex 11.0041795871988 5.82187033888532 1.0
endloop
endfacet
facet normal -0.608761429008713 -0.793353340291241 -4.43950294080801e-018
outer loop
vertex 10.5899660248257 6.1397075840811 1.0
vertex 11.0041795871988 5.82187033888532 3.5
vertex 10.5899660248257 6.1397075840811 3.5
endloop
endfacet
facet normal -0.382683432365095 -0.923879532511285 0.0
outer loop
vertex 10.5899660248257 6.1397075840811 3.5
vertex 10.1076041150308 6.33950842909036 1.0
vertex 10.5899660248257 6.1397075840811 1.0
endloop
endfacet
facet normal -0.382683432365095 -0.923879532511285 0.0
outer loop
vertex 10.1076041150308 6.33950842909036 1.0
vertex 10.5899660248257 6.1397075840811 3.5
vertex 10.1076041150308 6.33950842909036 3.5
endloop
endfacet
facet normal -0.130526192220051 -0.99144486137381 0.0
outer loop
vertex 10.1076041150308 6.33950842909036 3.5
vertex 9.58996602482575 6.40765677651222 1.0
vertex 10.1076041150308 6.33950842909036 1.0
endloop
endfacet
facet normal -0.130526192220051 -0.99144486137381 0.0
outer loop
vertex 9.58996602482575 6.40765677651222 1.0
vertex 10.1076041150308 6.33950842909036 3.5
vertex 9.58996602482575 6.40765677651222 3.5
endloop
endfacet
facet normal 0.130526192220051 -0.99144486137381 0.0
outer loop
vertex 9.58996602482575 6.40765677651222 3.5
vertex 9.0723279346207 6.33950842909036 1.0
vertex 9.58996602482575 6.40765677651222 1.0
endloop
endfacet
facet normal 0.130526192220051 -0.99144486137381 0.0
outer loop
vertex 9.0723279346207 6.33950842909036 1.0
vertex 9.58996602482575 6.40765677651222 3.5
vertex 9.0723279346207 6.33950842909036 3.5
endloop
endfacet
facet normal 0.382683432365091 -0.923879532511286 0.0
outer loop
vertex 9.0723279346207 6.33950842909036 3.5
vertex 8.58996602482574 6.1397075840811 1.0
vertex 9.0723279346207 6.33950842909036 1.0
endloop
endfacet
facet normal 0.382683432365091 -0.923879532511286 0.0
outer loop
vertex 8.58996602482574 6.1397075840811 1.0
vertex 9.0723279346207 6.33950842909036 3.5
vertex 8.58996602482574 6.1397075840811 3.5
endloop
endfacet
facet normal 0.608761429008717 -0.793353340291238 -4.43950294080812e-018
outer loop
vertex 8.58996602482574 6.1397075840811 3.5
vertex 8.17575246245264 5.82187033888531 1.0
vertex 8.58996602482574 6.1397075840811 1.0
endloop
endfacet
facet normal 0.608761429008717 -0.793353340291238 -4.43950294080812e-018
outer loop
vertex 8.17575246245264 5.82187033888531 1.0
vertex 8.58996602482574 6.1397075840811 3.5
vertex 8.17575246245264 5.82187033888531 3.5
endloop
endfacet
facet normal 0.793353340291228 -0.60876142900873 3.40655041969407e-018
outer loop
vertex 8.17575246245264 5.82187033888531 1.0
vertex 7.85791521725685 5.40765677651222 3.5
vertex 7.85791521725685 5.40765677651222 1.0
endloop
endfacet
facet normal 0.793353340291228 -0.60876142900873 3.40655041969407e-018
outer loop
vertex 7.85791521725685 5.40765677651222 3.5
vertex 8.17575246245264 5.82187033888531 1.0
vertex 8.17575246245264 5.82187033888531 3.5
endloop
endfacet
facet normal 0.92387953251129 -0.382683432365082 -0.0
outer loop
vertex 7.85791521725685 5.40765677651222 1.0
vertex 7.6581143722476 4.92529486671726 3.5
vertex 7.6581143722476 4.92529486671726 1.0
endloop
endfacet
facet normal 0.92387953251129 -0.382683432365082 -0.0
outer loop
vertex 7.6581143722476 4.92529486671726 3.5
vertex 7.85791521725685 5.40765677651222 1.0
vertex 7.85791521725685 5.40765677651222 3.5
endloop
endfacet
facet normal 0.991444861373813 -0.130526192220031 -0.0
outer loop
vertex 7.6581143722476 4.92529486671726 1.0
vertex 7.58996602482574 4.40765677651222 3.5
vertex 7.58996602482574 4.40765677651222 1.0
endloop
endfacet
facet normal 0.991444861373813 -0.130526192220031 -0.0
outer loop
vertex 7.58996602482574 4.40765677651222 3.5
vertex 7.6581143722476 4.92529486671726 1.0
vertex 7.6581143722476 4.92529486671726 3.5
endloop
endfacet
facet normal 0.991444861373813 0.13052619222003 -0.0
outer loop
vertex 7.58996602482574 4.40765677651222 1.0
vertex 7.6581143722476 3.89001868630718 3.5
vertex 7.6581143722476 3.89001868630718 1.0
endloop
endfacet
facet normal 0.991444861373813 0.13052619222003 -0.0
outer loop
vertex 7.6581143722476 3.89001868630718 3.5
vertex 7.58996602482574 4.40765677651222 1.0
vertex 7.58996602482574 4.40765677651222 3.5
endloop
endfacet
facet normal 0.92387953251129 0.382683432365082 -0.0
outer loop
vertex 7.6581143722476 3.89001868630718 1.0
vertex 7.85791521725685 3.40765677651222 3.5
vertex 7.85791521725685 3.40765677651222 1.0
endloop
endfacet
facet normal 0.92387953251129 0.382683432365082 -0.0
outer loop
vertex 7.85791521725685 3.40765677651222 3.5
vertex 7.6581143722476 3.89001868630718 1.0
vertex 7.6581143722476 3.89001868630718 3.5
endloop
endfacet
facet normal 0.793353340291228 0.60876142900873 -0.0
outer loop
vertex 7.85791521725685 3.40765677651222 1.0
vertex 8.17575246245264 2.99344321413912 3.5
vertex 8.17575246245264 2.99344321413912 1.0
endloop
endfacet
facet normal 0.793353340291228 0.60876142900873 -0.0
outer loop
vertex 8.17575246245264 2.99344321413912 3.5
vertex 7.85791521725685 3.40765677651222 1.0
vertex 7.85791521725685 3.40765677651222 3.5
endloop
endfacet
facet normal 0.608761429008713 0.793353340291241 -0.0
outer loop
vertex 8.17575246245264 2.99344321413912 3.5
vertex 8.58996602482574 2.67560596894334 1.0
vertex 8.17575246245264 2.99344321413912 1.0
endloop
endfacet
facet normal 0.608761429008713 0.793353340291241 -0.0
outer loop
vertex 8.58996602482574 2.67560596894334 1.0
vertex 8.17575246245264 2.99344321413912 3.5
vertex 8.58996602482574 2.67560596894334 3.5
endloop
endfacet
facet normal 0.382683432365087 0.923879532511288 -0.0
outer loop
vertex 8.58996602482574 2.67560596894334 3.5
vertex 9.0723279346207 2.47580512393408 1.0
vertex 8.58996602482574 2.67560596894334 1.0
endloop
endfacet
facet normal 0.382683432365087 0.923879532511288 -0.0
outer loop
vertex 9.0723279346207 2.47580512393408 1.0
vertex 8.58996602482574 2.67560596894334 3.5
vertex 9.0723279346207 2.47580512393408 3.5
endloop
endfacet
facet normal -0.0 -0.0 1.0
outer loop
vertex 6.73208219233709 2.75765677651222 3.5
vertex 7.85791521725685 3.40765677651222 3.5
vertex 6.73208219233709 6.05765677651222 3.5
endloop
endfacet
facet normal -0.0 -0.0 1.0
outer loop
vertex 7.85791521725685 3.40765677651222 3.5
vertex 6.73208219233709 2.75765677651222 3.5
vertex 9.58996602482575 1.10765677651222 3.5
endloop
endfacet
facet normal -0.0 -0.0 1.0
outer loop
vertex 6.73208219233709 6.05765677651222 3.5
vertex 7.85791521725685 3.40765677651222 3.5
vertex 7.6581143722476 3.89001868630718 3.5
endloop
endfacet
facet normal -0.0 -0.0 1.0
outer loop
vertex 6.73208219233709 6.05765677651222 3.5
vertex 7.6581143722476 3.89001868630718 3.5
vertex 7.58996602482574 4.40765677651222 3.5
endloop
endfacet
facet normal -0.0 -0.0 1.0
outer loop
vertex 7.85791521725685 3.40765677651222 3.5
vertex 9.58996602482575 1.10765677651222 3.5
vertex 8.17575246245264 2.99344321413912 3.5
endloop
endfacet
facet normal -0.0 -0.0 1.0
outer loop
vertex 8.17575246245264 2.99344321413912 3.5
vertex 9.58996602482575 1.10765677651222 3.5
vertex 8.58996602482574 2.67560596894334 3.5
endloop
endfacet
facet normal -0.0 -0.0 1.0
outer loop
vertex 8.58996602482574 2.67560596894334 3.5
vertex 9.58996602482575 1.10765677651222 3.5
vertex 9.0723279346207 2.47580512393408 3.5
endloop
endfacet
facet normal -0.0 -0.0 1.0
outer loop
vertex 9.0723279346207 2.47580512393408 3.5
vertex 9.58996602482575 1.10765677651222 3.5
vertex 9.58996602482575 2.40765677651222 3.5
endloop
endfacet
facet normal -0.0 -0.0 1.0
outer loop
vertex 9.58996602482575 2.40765677651222 3.5
vertex 9.58996602482575 1.10765677651222 3.5
vertex 12.4478498573144 2.75765677651222 3.5
endloop
endfacet
facet normal -0.0 -0.0 1.0
outer loop
vertex 9.58996602482575 2.40765677651222 3.5
vertex 12.4478498573144 2.75765677651222 3.5
vertex 10.1076041150308 2.47580512393408 3.5
endloop
endfacet
facet normal -0.0 -0.0 1.0
outer loop
vertex 10.1076041150308 2.47580512393408 3.5
vertex 12.4478498573144 2.75765677651222 3.5
vertex 10.5899660248257 2.67560596894334 3.5
endloop
endfacet
facet normal -0.0 -0.0 1.0
outer loop
vertex 10.5899660248257 2.67560596894334 3.5
vertex 12.4478498573144 2.75765677651222 3.5
vertex 11.0041795871988 2.99344321413912 3.5
endloop
endfacet
facet normal -0.0 -0.0 1.0
outer loop
vertex 11.0041795871988 2.99344321413912 3.5
vertex 12.4478498573144 2.75765677651222 3.5
vertex 11.3220168323946 3.40765677651222 3.5
endloop
endfacet
facet normal -0.0 -0.0 1.0
outer loop
vertex 11.3220168323946 3.40765677651222 3.5
vertex 12.4478498573144 2.75765677651222 3.5
vertex 11.5218176774039 3.89001868630718 3.5
endloop
endfacet
facet normal -0.0 -0.0 1.0
outer loop
vertex 11.5218176774039 3.89001868630718 3.5
vertex 12.4478498573144 2.75765677651222 3.5
vertex 11.5899660248257 4.40765677651222 3.5
endloop
endfacet
facet normal -0.0 -0.0 1.0
outer loop
vertex 6.73208219233709 6.05765677651222 3.5
vertex 7.85791521725685 5.40765677651222 3.5
vertex 9.58996602482575 7.70765677651222 3.5
endloop
endfacet
facet normal -0.0 -0.0 1.0
outer loop
vertex 7.85791521725685 5.40765677651222 3.5
vertex 6.73208219233709 6.05765677651222 3.5
vertex 7.6581143722476 4.92529486671726 3.5
endloop
endfacet
facet normal -0.0 -0.0 1.0
outer loop
vertex 7.6581143722476 4.92529486671726 3.5
vertex 6.73208219233709 6.05765677651222 3.5
vertex 7.58996602482574 4.40765677651222 3.5
endloop
endfacet
facet normal -0.0 -0.0 1.0
outer loop
vertex 9.58996602482575 7.70765677651222 3.5
vertex 7.85791521725685 5.40765677651222 3.5
vertex 8.17575246245264 5.82187033888531 3.5
endloop
endfacet
facet normal -0.0 -0.0 1.0
outer loop
vertex 9.58996602482575 7.70765677651222 3.5
vertex 8.17575246245264 5.82187033888531 3.5
vertex 8.58996602482574 6.1397075840811 3.5
endloop
endfacet
facet normal -0.0 -0.0 1.0
outer loop
vertex 9.58996602482575 7.70765677651222 3.5
vertex 8.58996602482574 6.1397075840811 3.5
vertex 9.0723279346207 6.33950842909036 3.5
endloop
endfacet
facet normal -0.0 -0.0 1.0
outer loop
vertex 9.58996602482575 7.70765677651222 3.5
vertex 9.0723279346207 6.33950842909036 3.5
vertex 9.58996602482575 6.40765677651222 3.5
endloop
endfacet
facet normal -0.0 -0.0 1.0
outer loop
vertex 9.58996602482575 7.70765677651222 3.5
vertex 9.58996602482575 6.40765677651222 3.5
vertex 10.1076041150308 6.33950842909036 3.5
endloop
endfacet
facet normal -0.0 -0.0 1.0
outer loop
vertex 9.58996602482575 7.70765677651222 3.5
vertex 10.1076041150308 6.33950842909036 3.5
vertex 12.4478498573144 6.05765677651222 3.5
endloop
endfacet
facet normal -0.0 -0.0 1.0
outer loop
vertex 12.4478498573144 6.05765677651222 3.5
vertex 10.1076041150308 6.33950842909036 3.5
vertex 10.5899660248257 6.1397075840811 3.5
endloop
endfacet
facet normal -0.0 -0.0 1.0
outer loop
vertex 12.4478498573144 6.05765677651222 3.5
vertex 10.5899660248257 6.1397075840811 3.5
vertex 11.0041795871988 5.82187033888532 3.5
endloop
endfacet
facet normal -0.0 -0.0 1.0
outer loop
vertex 12.4478498573144 6.05765677651222 3.5
vertex 11.0041795871988 5.82187033888532 3.5
vertex 11.3220168323946 5.40765677651222 3.5
endloop
endfacet
facet normal -0.0 -0.0 1.0
outer loop
vertex 12.4478498573144 6.05765677651222 3.5
vertex 11.3220168323946 5.40765677651222 3.5
vertex 11.5218176774039 4.92529486671726 3.5
endloop
endfacet
facet normal -0.0 -0.0 1.0
outer loop
vertex 12.4478498573144 6.05765677651222 3.5
vertex 11.5218176774039 4.92529486671726 3.5
vertex 11.5899660248257 4.40765677651222 3.5
endloop
endfacet
facet normal -0.0 -0.0 1.0
outer loop
vertex 12.4478498573144 6.05765677651222 3.5
vertex 11.5899660248257 4.40765677651222 3.5
vertex 12.4478498573144 2.75765677651222 3.5
endloop
endfacet
facet normal 1.0 -0.0 -0.0
outer loop
vertex 6.73208219233709 6.05765677651222 3.5
vertex 6.73208219233709 2.75765677651222 6.0
vertex 6.73208219233709 2.75765677651222 3.5
endloop
endfacet
facet normal 1.0 -0.0 -0.0
outer loop
vertex 6.73208219233709 2.75765677651222 6.0
vertex 6.73208219233709 6.05765677651222 3.5
vertex 6.73208219233709 6.05765677651222 6.0
endloop
endfacet
facet normal 0.499999999999999 0.866025403784439 -0.0
outer loop
vertex 6.73208219233709 2.75765677651222 6.0
vertex 9.58996602482575 1.10765677651222 3.5
vertex 6.73208219233709 2.75765677651222 3.5
endloop
endfacet
facet normal 0.499999999999999 0.866025403784439 -0.0
outer loop
vertex 9.58996602482575 1.10765677651222 3.5
vertex 6.73208219233709 2.75765677651222 6.0
vertex 9.58996602482575 1.10765677651222 6.0
endloop
endfacet
facet normal -0.500000000000001 0.866025403784438 -0.0
outer loop
vertex 9.58996602482575 1.10765677651222 6.0
vertex 12.4478498573144 2.75765677651222 3.5
vertex 9.58996602482575 1.10765677651222 3.5
endloop
endfacet
facet normal -0.500000000000001 0.866025403784438 -0.0
outer loop
vertex 12.4478498573144 2.75765677651222 3.5
vertex 9.58996602482575 1.10765677651222 6.0
vertex 12.4478498573144 2.75765677651222 6.0
endloop
endfacet
facet normal -1.0 0.0 0.0
outer loop
vertex 12.4478498573144 6.05765677651222 6.0
vertex 12.4478498573144 2.75765677651222 3.5
vertex 12.4478498573144 2.75765677651222 6.0
endloop
endfacet
facet normal -1.0 0.0 0.0
outer loop
vertex 12.4478498573144 2.75765677651222 3.5
vertex 12.4478498573144 6.05765677651222 6.0
vertex 12.4478498573144 6.05765677651222 3.5
endloop
endfacet
facet normal -0.5 -0.866025403784438 0.0
outer loop
vertex 12.4478498573144 6.05765677651222 6.0
vertex 9.58996602482575 7.70765677651222 3.5
vertex 12.4478498573144 6.05765677651222 3.5
endloop
endfacet
facet normal -0.5 -0.866025403784438 0.0
outer loop
vertex 9.58996602482575 7.70765677651222 3.5
vertex 12.4478498573144 6.05765677651222 6.0
vertex 9.58996602482575 7.70765677651222 6.0
endloop
endfacet
facet normal 0.5 -0.866025403784438 0.0
outer loop
vertex 9.58996602482575 7.70765677651222 6.0
vertex 6.73208219233709 6.05765677651222 3.5
vertex 9.58996602482575 7.70765677651222 3.5
endloop
endfacet
facet normal 0.5 -0.866025403784438 0.0
outer loop
vertex 6.73208219233709 6.05765677651222 3.5
vertex 9.58996602482575 7.70765677651222 6.0
vertex 6.73208219233709 6.05765677651222 6.0
endloop
endfacet
facet normal -0.0 -0.0 1.0
outer loop
vertex 0.89663358822413 2.07828537058953 6.0
vertex 0.589966024825739 4.40765677651222 6.0
vertex -0.238976287951005 3.10834464527297 6.0
endloop
endfacet
facet normal -0.0 -0.0 1.0
outer loop
vertex 1.7957373907658 -0.0923432234877808 6.0
vertex 0.89663358822413 2.07828537058953 6.0
vertex 0.432223524906741 0.608700168776893 6.0
endloop
endfacet
facet normal -0.0 -0.0 1.0
outer loop
vertex 0.89663358822413 2.07828537058953 6.0
vertex 1.7957373907658 -0.0923432234877808 6.0
vertex 0.89663358822413 6.73702818243491 6.0
endloop
endfacet
facet normal -0.0 -0.0 1.0
outer loop
vertex 3.22600499414681 -1.9563042541667 6.0
vertex 1.7957373907658 -0.0923432234877808 6.0
vertex 1.72750835524893 -1.63205169297465 6.0
endloop
endfacet
facet normal -0.0 -0.0 1.0
outer loop
vertex 1.7957373907658 -0.0923432234877808 6.0
vertex 3.22600499414681 -1.9563042541667 6.0
vertex 1.7957373907658 8.90765677651222 6.0
endloop
endfacet
facet normal -0.0 -0.0 1.0
outer loop
vertex 1.7957373907658 8.90765677651222 6.0
vertex 3.22600499414682 10.7716178071912 6.0
vertex 1.7211018446927 10.4390161188908 6.0
endloop
endfacet
facet normal -0.0 -0.0 1.0
outer loop
vertex 3.22600499414682 10.7716178071912 6.0
vertex 1.7957373907658 8.90765677651222 6.0
vertex 3.22600499414681 -1.9563042541667 6.0
endloop
endfacet
facet normal -0.0 -0.0 1.0
outer loop
vertex 3.22600499414682 10.7716178071912 6.0
vertex 3.22600499414681 -1.9563042541667 6.0
vertex 3.55860668244712 -3.46120740362082 6.0
endloop
endfacet
facet normal -0.0 -0.0 1.0
outer loop
vertex 3.22600499414682 10.7716178071912 6.0
vertex 3.55860668244712 -3.46120740362082 6.0
vertex 3.55025755533888 12.270114446089 6.0
endloop
endfacet
facet normal -0.0 -0.0 1.0
outer loop
vertex 3.55025755533888 12.270114446089 6.0
vertex 3.55860668244712 -3.46120740362082 6.0
vertex 5.08996602482574 12.2018854105722 6.0
endloop
endfacet
facet normal -0.0 -0.0 1.0
outer loop
vertex 5.08996602482574 12.2018854105722 6.0
vertex 3.55860668244712 -3.46120740362082 6.0
vertex 5.08996602482573 -3.38657185754772 6.0
endloop
endfacet
facet normal -0.0 -0.0 1.0
outer loop
vertex 5.08996602482574 12.2018854105722 6.0
vertex 5.08996602482573 -3.38657185754772 6.0
vertex 5.80073218153586 -4.75411302430384 6.0
endloop
endfacet
facet normal -0.0 -0.0 1.0
outer loop
vertex 5.08996602482574 12.2018854105722 6.0
vertex 5.80073218153586 -4.75411302430384 6.0
vertex 5.79100941709041 13.5653992764312 6.0
endloop
endfacet
facet normal -0.0 -0.0 1.0
outer loop
vertex 5.79100941709041 13.5653992764312 6.0
vertex 5.80073218153586 -4.75411302430384 6.0
vertex 7.26059461890305 13.1009892131138 6.0
endloop
endfacet
facet normal -0.0 -0.0 1.0
outer loop
vertex 7.26059461890305 13.1009892131138 6.0
vertex 5.80073218153586 -4.75411302430384 6.0
vertex 6.73208219233709 6.05765677651222 6.0
endloop
endfacet
facet normal -0.0 -0.0 1.0
outer loop
vertex 6.73208219233709 6.05765677651222 6.0
vertex 5.80073218153586 -4.75411302430384 6.0
vertex 6.73208219233709 2.75765677651222 6.0
endloop
endfacet
facet normal -0.0 -0.0 1.0
outer loop
vertex 7.26059461890305 13.1009892131138 6.0
vertex 6.73208219233709 6.05765677651222 6.0
vertex 9.58996602482575 7.70765677651222 6.0
endloop
endfacet
facet normal -0.0 -0.0 1.0
outer loop
vertex 7.26059461890305 13.1009892131138 6.0
vertex 9.58996602482575 7.70765677651222 6.0
vertex 8.2906538935865 14.236599089289 6.0
endloop
endfacet
facet normal -0.0 -0.0 1.0
outer loop
vertex 8.2906538935865 14.236599089289 6.0
vertex 9.58996602482575 7.70765677651222 6.0
vertex 9.58996602482575 13.4076567765122 6.0
endloop
endfacet
facet normal -0.0 -0.0 1.0
outer loop
vertex 9.58996602482575 13.4076567765122 6.0
vertex 9.58996602482575 7.70765677651222 6.0
vertex 12.4478498573144 6.05765677651222 6.0
endloop
endfacet
facet normal -0.0 -0.0 1.0
outer loop
vertex 9.58996602482575 13.4076567765122 6.0
vertex 12.4478498573144 6.05765677651222 6.0
vertex 10.8788443446117 14.2379727266262 6.0
endloop
endfacet
facet normal -0.0 -0.0 1.0
outer loop
vertex 10.8788443446117 14.2379727266262 6.0
vertex 12.4478498573144 6.05765677651222 6.0
vertex 11.9193374307484 13.1009892131138 6.0
endloop
endfacet
facet normal -0.0 -0.0 1.0
outer loop
vertex 11.9193374307484 13.1009892131138 6.0
vertex 12.4478498573144 6.05765677651222 6.0
vertex 13.3791998681156 13.5694265773283 6.0
endloop
endfacet
facet normal -0.0 -0.0 1.0
outer loop
vertex 0.89663358822413 6.73702818243491 6.0
vertex 1.7957373907658 8.90765677651222 6.0
vertex 0.42819622400967 8.1968906198021 6.0
endloop
endfacet
facet normal -0.0 -0.0 1.0
outer loop
vertex 1.7957373907658 8.90765677651222 6.0
vertex 0.89663358822413 6.73702818243491 6.0
vertex 1.7957373907658 -0.0923432234877808 6.0
endloop
endfacet
facet normal -0.0 -0.0 1.0
outer loop
vertex 0.589966024825739 4.40765677651222 6.0
vertex 0.89663358822413 6.73702818243491 6.0
vertex -0.240349925288196 5.69653509629817 6.0
endloop
endfacet
facet normal -0.0 -0.0 1.0
outer loop
vertex 0.89663358822413 6.73702818243491 6.0
vertex 0.589966024825739 4.40765677651222 6.0
vertex 0.89663358822413 2.07828537058953 6.0
endloop
endfacet
facet normal -0.0 -0.0 1.0
outer loop
vertex 7.26059461890305 -4.28567566008939 6.0
vertex 6.73208219233709 2.75765677651222 6.0
vertex 5.80073218153586 -4.75411302430384 6.0
endloop
endfacet
facet normal -0.0 -0.0 1.0
outer loop
vertex 6.73208219233709 2.75765677651222 6.0
vertex 7.26059461890305 -4.28567566008939 6.0
vertex 9.58996602482575 1.10765677651222 6.0
endloop
endfacet
facet normal -0.0 -0.0 1.0
outer loop
vertex 9.58996602482575 1.10765677651222 6.0
vertex 7.26059461890305 -4.28567566008939 6.0
vertex 8.30108770503979 -5.42265917360171 6.0
endloop
endfacet
facet normal -0.0 -0.0 1.0
outer loop
vertex 9.58996602482575 1.10765677651222 6.0
vertex 8.30108770503979 -5.42265917360171 6.0
vertex 9.58996602482575 -4.59234322348778 6.0
endloop
endfacet
facet normal -0.0 -0.0 1.0
outer loop
vertex 9.58996602482575 1.10765677651222 6.0
vertex 9.58996602482575 -4.59234322348778 6.0
vertex 10.889278156065 -5.42128553626453 6.0
endloop
endfacet
facet normal -0.0 -0.0 1.0
outer loop
vertex 9.58996602482575 1.10765677651222 6.0
vertex 10.889278156065 -5.42128553626453 6.0
vertex 12.4478498573144 2.75765677651222 6.0
endloop
endfacet
facet normal -0.0 -0.0 1.0
outer loop
vertex 12.4478498573144 2.75765677651222 6.0
vertex 10.889278156065 -5.42128553626453 6.0
vertex 11.9193374307484 -4.28567566008939 6.0
endloop
endfacet
facet normal -0.0 -0.0 1.0
outer loop
vertex 12.4478498573144 2.75765677651222 6.0
vertex 11.9193374307484 -4.28567566008939 6.0
vertex 13.3889226325611 -4.75008572340678 6.0
endloop
endfacet
facet normal -0.0 -0.0 1.0
outer loop
vertex 12.4478498573144 2.75765677651222 6.0
vertex 13.3889226325611 -4.75008572340678 6.0
vertex 12.4478498573144 6.05765677651222 6.0
endloop
endfacet
facet normal -0.0 -0.0 1.0
outer loop
vertex 12.4478498573144 6.05765677651222 6.0
vertex 13.3889226325611 -4.75008572340678 6.0
vertex 13.3791998681156 13.5694265773283 6.0
endloop
endfacet
facet normal -0.0 -0.0 1.0
outer loop
vertex 13.3791998681156 13.5694265773283 6.0
vertex 13.3889226325611 -4.75008572340678 6.0
vertex 14.0899660248257 12.2018854105722 6.0
endloop
endfacet
facet normal -0.0 -0.0 1.0
outer loop
vertex 14.0899660248257 12.2018854105722 6.0
vertex 13.3889226325611 -4.75008572340678 6.0
vertex 14.0899660248257 -3.38657185754773 6.0
endloop
endfacet
facet normal -0.0 -0.0 1.0
outer loop
vertex 14.0899660248257 12.2018854105722 6.0
vertex 14.0899660248257 -3.38657185754773 6.0
vertex 15.6296744943126 -3.45480089306459 6.0
endloop
endfacet
facet normal -0.0 -0.0 1.0
outer loop
vertex 14.0899660248257 12.2018854105722 6.0
vertex 15.6296744943126 -3.45480089306459 6.0
vertex 15.6213253672043 12.2765209566453 6.0
endloop
endfacet
facet normal -0.0 -0.0 1.0
outer loop
vertex 15.6213253672043 12.2765209566453 6.0
vertex 15.6296744943126 -3.45480089306459 6.0
vertex 15.9539270555047 10.7716178071911 6.0
endloop
endfacet
facet normal -0.0 -0.0 1.0
outer loop
vertex 15.9539270555047 10.7716178071911 6.0
vertex 15.6296744943126 -3.45480089306459 6.0
vertex 15.9539270555047 -1.95630425416671 6.0
endloop
endfacet
facet normal -0.0 -0.0 1.0
outer loop
vertex 15.9539270555047 10.7716178071911 6.0
vertex 15.9539270555047 -1.95630425416671 6.0
vertex 17.4588302049588 -1.62370256586639 6.0
endloop
endfacet
facet normal -0.0 -0.0 1.0
outer loop
vertex 15.9539270555047 10.7716178071911 6.0
vertex 17.4588302049588 -1.62370256586639 6.0
vertex 17.3841946588857 -0.0923432234877851 6.0
endloop
endfacet
facet normal -0.0 -0.0 1.0
outer loop
vertex 17.3841946588857 -0.0923432234877851 6.0
vertex 18.2832984614273 2.07828537058953 6.0
vertex 17.3841946588857 8.90765677651222 6.0
endloop
endfacet
facet normal -0.0 -0.0 1.0
outer loop
vertex 18.2832984614273 2.07828537058953 6.0
vertex 17.3841946588857 -0.0923432234877851 6.0
vertex 18.7517358256418 0.618422933222336 6.0
endloop
endfacet
facet normal -0.0 -0.0 1.0
outer loop
vertex 18.2832984614273 2.07828537058953 6.0
vertex 18.5899660248258 4.40765677651221 6.0
vertex 18.2832984614274 6.7370281824349 6.0
endloop
endfacet
facet normal -0.0 -0.0 1.0
outer loop
vertex 18.5899660248258 4.40765677651221 6.0
vertex 18.2832984614273 2.07828537058953 6.0
vertex 19.4202819749397 3.11877845672626 6.0
endloop
endfacet
facet normal -0.0 -0.0 1.0
outer loop
vertex 19.4189083376025 5.70696890775147 6.0
vertex 18.2832984614274 6.7370281824349 6.0
vertex 18.5899660248258 4.40765677651221 6.0
endloop
endfacet
facet normal -0.0 -0.0 1.0
outer loop
vertex 17.3841946588857 8.90765677651222 6.0
vertex 18.2832984614274 6.7370281824349 6.0
vertex 18.7477085247448 8.20661338424754 6.0
endloop
endfacet
facet normal -0.0 -0.0 1.0
outer loop
vertex 18.2832984614274 6.7370281824349 6.0
vertex 17.3841946588857 8.90765677651222 6.0
vertex 18.2832984614273 2.07828537058953 6.0
endloop
endfacet
facet normal -0.0 -0.0 1.0
outer loop
vertex 15.9539270555047 10.7716178071911 6.0
vertex 17.3841946588857 8.90765677651222 6.0
vertex 17.4524236944026 10.4473652459991 6.0
endloop
endfacet
facet normal -0.0 -0.0 1.0
outer loop
vertex 17.3841946588857 8.90765677651222 6.0
vertex 15.9539270555047 10.7716178071911 6.0
vertex 17.3841946588857 -0.0923432234877851 6.0
endloop
endfacet
facet normal 0.675110277568709 -0.737716824480166 0.0
outer loop
vertex 19.4202819749397 3.11877845672626 6.0
vertex 18.2832984614273 2.07828537058953 1.0
vertex 19.4202819749397 3.11877845672626 1.0
endloop
endfacet
facet normal 0.675110277568709 -0.737716824480166 0.0
outer loop
vertex 18.2832984614273 2.07828537058953 1.0
vertex 19.4202819749397 3.11877845672626 6.0
vertex 18.2832984614273 2.07828537058953 6.0
endloop
endfacet
facet normal 0.952181241520264 0.305533767850509 -0.0
outer loop
vertex 18.2832984614273 2.07828537058953 1.0
vertex 18.7517358256418 0.618422933222336 6.0
vertex 18.7517358256418 0.618422933222336 1.0
endloop
endfacet
facet normal 0.952181241520264 0.305533767850509 -0.0
outer loop
vertex 18.7517358256418 0.618422933222336 6.0
vertex 18.2832984614273 2.07828537058953 1.0
vertex 18.2832984614273 2.07828537058953 6.0
endloop
endfacet
facet normal 0.843041616764824 -0.537848335874112 -0.0
outer loop
vertex 19.4189083376025 5.70696890775147 1.0
vertex 18.5899660248258 4.40765677651221 6.0
vertex 18.5899660248258 4.40765677651221 1.0
endloop
endfacet
facet normal 0.843041616764824 -0.537848335874112 -0.0
outer loop
vertex 18.5899660248258 4.40765677651221 6.0
vertex 19.4189083376025 5.70696890775147 1.0
vertex 19.4189083376025 5.70696890775147 6.0
endloop
endfacet
facet normal 0.840658494450781 0.541565596865003 -0.0
outer loop
vertex 18.5899660248258 4.40765677651221 1.0
vertex 19.4202819749397 3.11877845672626 6.0
vertex 19.4202819749397 3.11877845672626 1.0
endloop
endfacet
facet normal 0.840658494450781 0.541565596865003 -0.0
outer loop
vertex 19.4202819749397 3.11877845672626 6.0
vertex 18.5899660248258 4.40765677651221 1.0
vertex 18.5899660248258 4.40765677651221 6.0
endloop
endfacet
facet normal 0.953521062970551 -0.301326372014648 -0.0
outer loop
vertex 18.7477085247448 8.20661338424754 1.0
vertex 18.2832984614274 6.7370281824349 6.0
vertex 18.2832984614274 6.7370281824349 1.0
endloop
endfacet
facet normal 0.953521062970551 -0.301326372014648 -0.0
outer loop
vertex 18.2832984614274 6.7370281824349 6.0
vertex 18.7477085247448 8.20661338424754 1.0
vertex 18.7477085247448 8.20661338424754 6.0
endloop
endfacet
facet normal 0.671846260238315 0.740690625432636 -0.0
outer loop
vertex 18.2832984614274 6.7370281824349 6.0
vertex 19.4189083376025 5.70696890775147 1.0
vertex 18.2832984614274 6.7370281824349 1.0
endloop
endfacet
facet normal 0.671846260238315 0.740690625432636 -0.0
outer loop
vertex 19.4189083376025 5.70696890775147 1.0
vertex 18.2832984614274 6.7370281824349 6.0
vertex 19.4189083376025 5.70696890775147 6.0
endloop
endfacet
facet normal 0.999019624502898 -0.0442695138677637 -0.0
outer loop
vertex 17.4524236944026 10.4473652459991 1.0
vertex 17.3841946588857 8.90765677651222 6.0
vertex 17.3841946588857 8.90765677651222 1.0
endloop
endfacet
facet normal 0.999019624502898 -0.0442695138677637 -0.0
outer loop
vertex 17.3841946588857 8.90765677651222 6.0
vertex 17.4524236944026 10.4473652459991 1.0
vertex 17.4524236944026 10.4473652459991 6.0
endloop
endfacet
facet normal 0.457248813669048 0.889338811926168 -0.0
outer loop
vertex 17.3841946588857 8.90765677651222 6.0
vertex 18.7477085247448 8.20661338424754 1.0
vertex 17.3841946588857 8.90765677651222 1.0
endloop
endfacet
facet normal 0.457248813669048 0.889338811926168 -0.0
outer loop
vertex 18.7477085247448 8.20661338424754 1.0
vertex 17.3841946588857 8.90765677651222 6.0
vertex 18.7477085247448 8.20661338424754 6.0
endloop
endfacet
facet normal 0.976436649583363 0.21580423849039 -0.0
outer loop
vertex 15.6213253672043 12.2765209566453 1.0
vertex 15.9539270555047 10.7716178071911 6.0
vertex 15.9539270555047 10.7716178071911 1.0
endloop
endfacet
facet normal 0.976436649583363 0.21580423849039 -0.0
outer loop
vertex 15.9539270555047 10.7716178071911 6.0
vertex 15.6213253672043 12.2765209566453 1.0
vertex 15.6213253672043 12.2765209566453 6.0
endloop
endfacet
facet normal 0.211490616087631 0.977380028088805 -0.0
outer loop
vertex 15.9539270555047 10.7716178071911 6.0
vertex 17.4524236944026 10.4473652459991 1.0
vertex 15.9539270555047 10.7716178071911 1.0
endloop
endfacet
facet normal 0.211490616087631 0.977380028088805 -0.0
outer loop
vertex 17.4524236944026 10.4473652459991 1.0
vertex 15.9539270555047 10.7716178071911 6.0
vertex 17.4524236944026 10.4473652459991 6.0
endloop
endfacet
facet normal 0.887311130632584 0.461171288628776 -0.0
outer loop
vertex 13.3791998681156 13.5694265773283 1.0
vertex 14.0899660248257 12.2018854105722 6.0
vertex 14.0899660248257 12.2018854105722 1.0
endloop
endfacet
facet normal 0.887311130632584 0.461171288628776 -0.0
outer loop
vertex 14.0899660248257 12.2018854105722 6.0
vertex 13.3791998681156 13.5694265773283 1.0
vertex 13.3791998681156 13.5694265773283 6.0
endloop
endfacet
facet normal -0.0486803174753909 0.998814410534057 -0.0
outer loop
vertex 14.0899660248257 12.2018854105722 6.0
vertex 15.6213253672043 12.2765209566453 1.0
vertex 14.0899660248257 12.2018854105722 1.0
endloop
endfacet
facet normal -0.0486803174753909 0.998814410534057 -0.0
outer loop
vertex 15.6213253672043 12.2765209566453 1.0
vertex 14.0899660248257 12.2018854105722 6.0
vertex 15.6213253672043 12.2765209566453 6.0
endloop
endfacet
facet normal 0.73771682448017 0.675110277568706 -0.0
outer loop
vertex 10.8788443446117 14.2379727266262 1.0
vertex 11.9193374307484 13.1009892131138 6.0
vertex 11.9193374307484 13.1009892131138 1.0
endloop
endfacet
facet normal 0.73771682448017 0.675110277568706 -0.0
outer loop
vertex 11.9193374307484 13.1009892131138 6.0
vertex 10.8788443446117 14.2379727266262 1.0
vertex 10.8788443446117 14.2379727266262 6.0
endloop
endfacet
facet normal -0.305533767850491 0.95218124152027 -0.0
outer loop
vertex 11.9193374307484 13.1009892131138 6.0
vertex 13.3791998681156 13.5694265773283 1.0
vertex 11.9193374307484 13.1009892131138 1.0
endloop
endfacet
facet normal -0.305533767850491 0.95218124152027 -0.0
outer loop
vertex 13.3791998681156 13.5694265773283 1.0
vertex 11.9193374307484 13.1009892131138 6.0
vertex 13.3791998681156 13.5694265773283 6.0
endloop
endfacet
facet normal 0.537848335874123 0.843041616764817 -0.0
outer loop
vertex 8.2906538935865 14.236599089289 6.0
vertex 9.58996602482575 13.4076567765122 1.0
vertex 8.2906538935865 14.236599089289 1.0
endloop
endfacet
facet normal 0.537848335874123 0.843041616764817 -0.0
outer loop
vertex 9.58996602482575 13.4076567765122 1.0
vertex 8.2906538935865 14.236599089289 6.0
vertex 9.58996602482575 13.4076567765122 6.0
endloop
endfacet
facet normal -0.541565596865006 0.840658494450779 -0.0
outer loop
vertex 9.58996602482575 13.4076567765122 6.0
vertex 10.8788443446117 14.2379727266262 1.0
vertex 9.58996602482575 13.4076567765122 1.0
endloop
endfacet
facet normal -0.541565596865006 0.840658494450779 -0.0
outer loop
vertex 10.8788443446117 14.2379727266262 1.0
vertex 9.58996602482575 13.4076567765122 6.0
vertex 10.8788443446117 14.2379727266262 6.0
endloop
endfacet
facet normal 0.301326372014657 0.953521062970549 -0.0
outer loop
vertex 5.79100941709041 13.5653992764312 6.0
vertex 7.26059461890305 13.1009892131138 1.0
vertex 5.79100941709041 13.5653992764312 1.0
endloop
endfacet
facet normal 0.301326372014657 0.953521062970549 -0.0
outer loop
vertex 7.26059461890305 13.1009892131138 1.0
vertex 5.79100941709041 13.5653992764312 6.0
vertex 7.26059461890305 13.1009892131138 6.0
endloop
endfacet
facet normal -0.740690625432634 0.671846260238318 0.0
outer loop
vertex 8.2906538935865 14.236599089289 6.0
vertex 7.26059461890305 13.1009892131138 1.0
vertex 7.26059461890305 13.1009892131138 6.0
endloop
endfacet
facet normal -0.740690625432634 0.671846260238318 0.0
outer loop
vertex 7.26059461890305 13.1009892131138 1.0
vertex 8.2906538935865 14.236599089289 6.0
vertex 8.2906538935865 14.236599089289 1.0
endloop
endfacet
facet normal 0.0442695138677567 0.999019624502899 -0.0
outer loop
vertex 3.55025755533888 12.270114446089 6.0
vertex 5.08996602482574 12.2018854105722 1.0
vertex 3.55025755533888 12.270114446089 1.0
endloop
endfacet
facet normal 0.0442695138677567 0.999019624502899 -0.0
outer loop
vertex 5.08996602482574 12.2018854105722 1.0
vertex 3.55025755533888 12.270114446089 6.0
vertex 5.08996602482574 12.2018854105722 6.0
endloop
endfacet
facet normal -0.889338811926167 0.45724881366905 0.0
outer loop
vertex 5.79100941709041 13.5653992764312 6.0
vertex 5.08996602482574 12.2018854105722 1.0
vertex 5.08996602482574 12.2018854105722 6.0
endloop
endfacet
facet normal -0.889338811926167 0.45724881366905 0.0
outer loop
vertex 5.08996602482574 12.2018854105722 1.0
vertex 5.79100941709041 13.5653992764312 6.0
vertex 5.79100941709041 13.5653992764312 1.0
endloop
endfacet
facet normal -0.215804238490393 0.976436649583362 -0.0
outer loop
vertex 1.7211018446927 10.4390161188908 6.0
vertex 3.22600499414682 10.7716178071912 1.0
vertex 1.7211018446927 10.4390161188908 1.0
endloop
endfacet
facet normal -0.215804238490393 0.976436649583362 -0.0
outer loop
vertex 3.22600499414682 10.7716178071912 1.0
vertex 1.7211018446927 10.4390161188908 6.0
vertex 3.22600499414682 10.7716178071912 6.0
endloop
endfacet
facet normal -0.977380028088805 0.211490616087634 0.0
outer loop
vertex 3.55025755533888 12.270114446089 6.0
vertex 3.22600499414682 10.7716178071912 1.0
vertex 3.22600499414682 10.7716178071912 6.0
endloop
endfacet
facet normal -0.977380028088805 0.211490616087634 0.0
outer loop
vertex 3.22600499414682 10.7716178071912 1.0
vertex 3.55025755533888 12.270114446089 6.0
vertex 3.55025755533888 12.270114446089 1.0
endloop
endfacet
facet normal -0.461171288628782 0.887311130632581 -0.0
outer loop
vertex 0.42819622400967 8.1968906198021 6.0
vertex 1.7957373907658 8.90765677651222 1.0
vertex 0.42819622400967 8.1968906198021 1.0
endloop
endfacet
facet normal -0.461171288628782 0.887311130632581 -0.0
outer loop
vertex 1.7957373907658 8.90765677651222 1.0
vertex 0.42819622400967 8.1968906198021 6.0
vertex 1.7957373907658 8.90765677651222 6.0
endloop
endfacet
facet normal -0.998814410534057 -0.0486803174753874 0.0
outer loop
vertex 1.7211018446927 10.4390161188908 6.0
vertex 1.7957373907658 8.90765677651222 1.0
vertex 1.7957373907658 8.90765677651222 6.0
endloop
endfacet
facet normal -0.998814410534057 -0.0486803174753874 0.0
outer loop
vertex 1.7957373907658 8.90765677651222 1.0
vertex 1.7211018446927 10.4390161188908 6.0
vertex 1.7211018446927 10.4390161188908 1.0
endloop
endfacet
facet normal -0.675110277568713 0.737716824480163 -0.0
outer loop
vertex -0.240349925288196 5.69653509629817 6.0
vertex 0.89663358822413 6.73702818243491 1.0
vertex -0.240349925288196 5.69653509629817 1.0
endloop
endfacet
facet normal -0.675110277568713 0.737716824480163 -0.0
outer loop
vertex 0.89663358822413 6.73702818243491 1.0
vertex -0.240349925288196 5.69653509629817 6.0
vertex 0.89663358822413 6.73702818243491 6.0
endloop
endfacet
facet normal -0.952181241520268 -0.305533767850496 0.0
outer loop
vertex 0.42819622400967 8.1968906198021 6.0
vertex 0.89663358822413 6.73702818243491 1.0
vertex 0.89663358822413 6.73702818243491 6.0
endloop
endfacet
facet normal -0.952181241520268 -0.305533767850496 0.0
outer loop
vertex 0.89663358822413 6.73702818243491 1.0
vertex 0.42819622400967 8.1968906198021 6.0
vertex 0.42819622400967 8.1968906198021 1.0
endloop
endfacet
facet normal -0.843041616764824 0.537848335874113 0.0
outer loop
vertex 0.589966024825739 4.40765677651222 6.0
vertex -0.238976287951005 3.10834464527297 1.0
vertex -0.238976287951005 3.10834464527297 6.0
endloop
endfacet
facet normal -0.843041616764824 0.537848335874113 0.0
outer loop
vertex -0.238976287951005 3.10834464527297 1.0
vertex 0.589966024825739 4.40765677651222 6.0
vertex 0.589966024825739 4.40765677651222 1.0
endloop
endfacet
facet normal -0.840658494450778 -0.541565596865007 0.0
outer loop
vertex -0.240349925288196 5.69653509629817 6.0
vertex 0.589966024825739 4.40765677651222 1.0
vertex 0.589966024825739 4.40765677651222 6.0
endloop
endfacet
facet normal -0.840658494450778 -0.541565596865007 0.0
outer loop
vertex 0.589966024825739 4.40765677651222 1.0
vertex -0.240349925288196 5.69653509629817 6.0
vertex -0.240349925288196 5.69653509629817 1.0
endloop
endfacet
facet normal -0.953521062970551 0.301326372014648 0.0
outer loop
vertex 0.89663358822413 2.07828537058953 6.0
vertex 0.432223524906741 0.608700168776893 1.0
vertex 0.432223524906741 0.608700168776893 6.0
endloop
endfacet
facet normal -0.953521062970551 0.301326372014648 0.0
outer loop
vertex 0.432223524906741 0.608700168776893 1.0
vertex 0.89663358822413 2.07828537058953 6.0
vertex 0.89663358822413 2.07828537058953 1.0
endloop
endfacet
facet normal -0.671846260238315 -0.740690625432637 0.0
outer loop
vertex 0.89663358822413 2.07828537058953 6.0
vertex -0.238976287951005 3.10834464527297 1.0
vertex 0.89663358822413 2.07828537058953 1.0
endloop
endfacet
facet normal -0.671846260238315 -0.740690625432637 0.0
outer loop
vertex -0.238976287951005 3.10834464527297 1.0
vertex 0.89663358822413 2.07828537058953 6.0
vertex -0.238976287951005 3.10834464527297 6.0
endloop
endfacet
facet normal -0.999019624502899 0.0442695138677602 0.0
outer loop
vertex 1.7957373907658 -0.0923432234877808 6.0
vertex 1.72750835524893 -1.63205169297465 1.0
vertex 1.72750835524893 -1.63205169297465 6.0
endloop
endfacet
facet normal -0.999019624502899 0.0442695138677602 0.0
outer loop
vertex 1.72750835524893 -1.63205169297465 1.0
vertex 1.7957373907658 -0.0923432234877808 6.0
vertex 1.7957373907658 -0.0923432234877808 1.0
endloop
endfacet
facet normal -0.457248813669051 -0.889338811926167 0.0
outer loop
vertex 1.7957373907658 -0.0923432234877808 6.0
vertex 0.432223524906741 0.608700168776893 1.0
vertex 1.7957373907658 -0.0923432234877808 1.0
endloop
endfacet
facet normal -0.457248813669051 -0.889338811926167 0.0
outer loop
vertex 0.432223524906741 0.608700168776893 1.0
vertex 1.7957373907658 -0.0923432234877808 6.0
vertex 0.432223524906741 0.608700168776893 6.0
endloop
endfacet
facet normal -0.976436649583364 -0.215804238490383 0.0
outer loop
vertex 3.22600499414681 -1.9563042541667 6.0
vertex 3.55860668244712 -3.46120740362082 1.0
vertex 3.55860668244712 -3.46120740362082 6.0
endloop
endfacet
facet normal -0.976436649583364 -0.215804238490383 0.0
outer loop
vertex 3.55860668244712 -3.46120740362082 1.0
vertex 3.22600499414681 -1.9563042541667 6.0
vertex 3.22600499414681 -1.9563042541667 1.0
endloop
endfacet
facet normal -0.211490616087633 -0.977380028088805 0.0
outer loop
vertex 3.22600499414681 -1.9563042541667 6.0
vertex 1.72750835524893 -1.63205169297465 1.0
vertex 3.22600499414681 -1.9563042541667 1.0
endloop
endfacet
facet normal -0.211490616087633 -0.977380028088805 0.0
outer loop
vertex 1.72750835524893 -1.63205169297465 1.0
vertex 3.22600499414681 -1.9563042541667 6.0
vertex 1.72750835524893 -1.63205169297465 6.0
endloop
endfacet
facet normal -0.887311130632578 -0.461171288628787 0.0
outer loop
vertex 5.08996602482573 -3.38657185754772 6.0
vertex 5.80073218153586 -4.75411302430384 1.0
vertex 5.80073218153586 -4.75411302430384 6.0
endloop
endfacet
facet normal -0.887311130632578 -0.461171288628787 0.0
outer loop
vertex 5.80073218153586 -4.75411302430384 1.0
vertex 5.08996602482573 -3.38657185754772 6.0
vertex 5.08996602482573 -3.38657185754772 1.0
endloop
endfacet
facet normal 0.0486803174753873 -0.998814410534057 0.0
outer loop
vertex 5.08996602482573 -3.38657185754772 6.0
vertex 3.55860668244712 -3.46120740362082 1.0
vertex 5.08996602482573 -3.38657185754772 1.0
endloop
endfacet
facet normal 0.0486803174753873 -0.998814410534057 0.0
outer loop
vertex 3.55860668244712 -3.46120740362082 1.0
vertex 5.08996602482573 -3.38657185754772 6.0
vertex 3.55860668244712 -3.46120740362082 6.0
endloop
endfacet
facet normal -0.737716824480156 -0.67511027756872 0.0
outer loop
vertex 7.26059461890305 -4.28567566008939 6.0
vertex 8.30108770503979 -5.42265917360171 1.0
vertex 8.30108770503979 -5.42265917360171 6.0
endloop
endfacet
facet normal -0.737716824480156 -0.67511027756872 0.0
outer loop
vertex 8.30108770503979 -5.42265917360171 1.0
vertex 7.26059461890305 -4.28567566008939 6.0
vertex 7.26059461890305 -4.28567566008939 1.0
endloop
endfacet
facet normal 0.305533767850492 -0.95218124152027 0.0
outer loop
vertex 7.26059461890305 -4.28567566008939 6.0
vertex 5.80073218153586 -4.75411302430384 1.0
vertex 7.26059461890305 -4.28567566008939 1.0
endloop
endfacet
facet normal 0.305533767850492 -0.95218124152027 0.0
outer loop
vertex 5.80073218153586 -4.75411302430384 1.0
vertex 7.26059461890305 -4.28567566008939 6.0
vertex 5.80073218153586 -4.75411302430384 6.0
endloop
endfacet
facet normal -0.537848335874113 -0.843041616764823 0.0
outer loop
vertex 10.889278156065 -5.42128553626453 6.0
vertex 9.58996602482575 -4.59234322348778 1.0
vertex 10.889278156065 -5.42128553626453 1.0
endloop
endfacet
facet normal -0.537848335874113 -0.843041616764823 0.0
outer loop
vertex 9.58996602482575 -4.59234322348778 1.0
vertex 10.889278156065 -5.42128553626453 6.0
vertex 9.58996602482575 -4.59234322348778 6.0
endloop
endfacet
facet normal 0.541565596865007 -0.840658494450778 0.0
outer loop
vertex 9.58996602482575 -4.59234322348778 6.0
vertex 8.30108770503979 -5.42265917360171 1.0
vertex 9.58996602482575 -4.59234322348778 1.0
endloop
endfacet
facet normal 0.541565596865007 -0.840658494450778 0.0
outer loop
vertex 8.30108770503979 -5.42265917360171 1.0
vertex 9.58996602482575 -4.59234322348778 6.0
vertex 8.30108770503979 -5.42265917360171 6.0
endloop
endfacet
facet normal 0.740690625432645 -0.671846260238306 -0.0
outer loop
vertex 11.9193374307484 -4.28567566008939 1.0
vertex 10.889278156065 -5.42128553626453 6.0
vertex 10.889278156065 -5.42128553626453 1.0
endloop
endfacet
facet normal 0.740690625432645 -0.671846260238306 -0.0
outer loop
vertex 10.889278156065 -5.42128553626453 6.0
vertex 11.9193374307484 -4.28567566008939 1.0
vertex 11.9193374307484 -4.28567566008939 6.0
endloop
endfacet
facet normal -0.0442695138677578 -0.999019624502899 0.0
outer loop
vertex 15.6296744943126 -3.45480089306459 6.0
vertex 14.0899660248257 -3.38657185754773 1.0
vertex 15.6296744943126 -3.45480089306459 1.0
endloop
endfacet
facet normal -0.0442695138677578 -0.999019624502899 0.0
outer loop
vertex 14.0899660248257 -3.38657185754773 1.0
vertex 15.6296744943126 -3.45480089306459 6.0
vertex 14.0899660248257 -3.38657185754773 6.0
endloop
endfacet
facet normal 0.215804238490385 -0.976436649583364 0.0
outer loop
vertex 17.4588302049588 -1.62370256586639 6.0
vertex 15.9539270555047 -1.95630425416671 1.0
vertex 17.4588302049588 -1.62370256586639 1.0
endloop
endfacet
facet normal 0.215804238490385 -0.976436649583364 0.0
outer loop
vertex 15.9539270555047 -1.95630425416671 1.0
vertex 17.4588302049588 -1.62370256586639 6.0
vertex 15.9539270555047 -1.95630425416671 6.0
endloop
endfacet
facet normal 0.977380028088805 -0.211490616087634 -0.0
outer loop
vertex 15.9539270555047 -1.95630425416671 1.0
vertex 15.6296744943126 -3.45480089306459 6.0
vertex 15.6296744943126 -3.45480089306459 1.0
endloop
endfacet
facet normal 0.977380028088805 -0.211490616087634 -0.0
outer loop
vertex 15.6296744943126 -3.45480089306459 6.0
vertex 15.9539270555047 -1.95630425416671 1.0
vertex 15.9539270555047 -1.95630425416671 6.0
endloop
endfacet
facet normal 0.46117128862878 -0.887311130632581 0.0
outer loop
vertex 18.7517358256418 0.618422933222336 6.0
vertex 17.3841946588857 -0.0923432234877851 1.0
vertex 18.7517358256418 0.618422933222336 1.0
endloop
endfacet
facet normal 0.46117128862878 -0.887311130632581 0.0
outer loop
vertex 17.3841946588857 -0.0923432234877851 1.0
vertex 18.7517358256418 0.618422933222336 6.0
vertex 17.3841946588857 -0.0923432234877851 6.0
endloop
endfacet
facet normal 0.998814410534056 0.0486803174753984 -0.0
outer loop
vertex 17.3841946588857 -0.0923432234877851 1.0
vertex 17.4588302049588 -1.62370256586639 6.0
vertex 17.4588302049588 -1.62370256586639 1.0
endloop
endfacet
facet normal 0.998814410534056 0.0486803174753984 -0.0
outer loop
vertex 17.4588302049588 -1.62370256586639 6.0
vertex 17.3841946588857 -0.0923432234877851 1.0
vertex 17.3841946588857 -0.0923432234877851 6.0
endloop
endfacet
facet normal 0.88933881192617 -0.457248813669044 -0.0
outer loop
vertex 14.0899660248257 -3.38657185754773 1.0
vertex 13.3889226325611 -4.75008572340678 6.0
vertex 13.3889226325611 -4.75008572340678 1.0
endloop
endfacet
facet normal 0.88933881192617 -0.457248813669044 -0.0
outer loop
vertex 13.3889226325611 -4.75008572340678 6.0
vertex 14.0899660248257 -3.38657185754773 1.0
vertex 14.0899660248257 -3.38657185754773 6.0
endloop
endfacet
facet normal -0.301326372014645 -0.953521062970552 0.0
outer loop
vertex 13.3889226325611 -4.75008572340678 6.0
vertex 11.9193374307484 -4.28567566008939 1.0
vertex 13.3889226325611 -4.75008572340678 1.0
endloop
endfacet
facet normal -0.301326372014645 -0.953521062970552 0.0
outer loop
vertex 11.9193374307484 -4.28567566008939 1.0
vertex 13.3889226325611 -4.75008572340678 6.0
vertex 11.9193374307484 -4.28567566008939 6.0
endloop
endfacet
facet normal 1.38601056601176e-033 -2.43706857857068e-032 -1.0
outer loop
vertex 7.58996602482574 4.40765677651222 1.0
vertex 8.30108770503979 -5.42265917360171 1.0
vertex 7.26059461890305 -4.28567566008939 1.0
endloop
endfacet
facet normal 1.38601056601176e-033 -2.43706857857068e-032 -1.0
outer loop
vertex 8.30108770503979 -5.42265917360171 1.0
vertex 7.58996602482574 4.40765677651222 1.0
vertex 7.6581143722476 3.89001868630718 1.0
endloop
endfacet
facet normal 1.38601056601176e-033 -2.43706857857068e-032 -1.0
outer loop
vertex 8.30108770503979 -5.42265917360171 1.0
vertex 7.6581143722476 3.89001868630718 1.0
vertex 7.85791521725685 3.40765677651222 1.0
endloop
endfacet
facet normal 1.38601056601176e-033 -2.43706857857068e-032 -1.0
outer loop
vertex 8.30108770503979 -5.42265917360171 1.0
vertex 7.85791521725685 3.40765677651222 1.0
vertex 8.17575246245264 2.99344321413912 1.0
endloop
endfacet
facet normal 1.38601056601176e-033 -2.43706857857068e-032 -1.0
outer loop
vertex 8.30108770503979 -5.42265917360171 1.0
vertex 8.17575246245264 2.99344321413912 1.0
vertex 8.58996602482574 2.67560596894334 1.0
endloop
endfacet
facet normal 1.38601056601176e-033 -2.43706857857068e-032 -1.0
outer loop
vertex 8.30108770503979 -5.42265917360171 1.0
vertex 8.58996602482574 2.67560596894334 1.0
vertex 9.58996602482575 -4.59234322348778 1.0
endloop
endfacet
facet normal 1.38601056601176e-033 -2.43706857857068e-032 -1.0
outer loop
vertex 9.58996602482575 -4.59234322348778 1.0
vertex 8.58996602482574 2.67560596894334 1.0
vertex 9.0723279346207 2.47580512393408 1.0
endloop
endfacet
facet normal 1.38601056601176e-033 -2.43706857857068e-032 -1.0
outer loop
vertex 9.58996602482575 -4.59234322348778 1.0
vertex 9.0723279346207 2.47580512393408 1.0
vertex 9.58996602482575 2.40765677651222 1.0
endloop
endfacet
facet normal 1.38601056601176e-033 -2.43706857857068e-032 -1.0
outer loop
vertex 9.58996602482575 -4.59234322348778 1.0
vertex 9.58996602482575 2.40765677651222 1.0
vertex 10.1076041150308 2.47580512393408 1.0
endloop
endfacet
facet normal 1.38601056601176e-033 -2.43706857857068e-032 -1.0
outer loop
vertex 9.58996602482575 -4.59234322348778 1.0
vertex 10.1076041150308 2.47580512393408 1.0
vertex 10.889278156065 -5.42128553626453 1.0
endloop
endfacet
facet normal 1.38601056601176e-033 -2.43706857857068e-032 -1.0
outer loop
vertex 10.889278156065 -5.42128553626453 1.0
vertex 10.1076041150308 2.47580512393408 1.0
vertex 10.5899660248257 2.67560596894334 1.0
endloop
endfacet
facet normal 1.38601056601176e-033 -2.43706857857068e-032 -1.0
outer loop
vertex 10.889278156065 -5.42128553626453 1.0
vertex 10.5899660248257 2.67560596894334 1.0
vertex 11.0041795871988 2.99344321413912 1.0
endloop
endfacet
facet normal 1.38601056601176e-033 -2.43706857857068e-032 -1.0
outer loop
vertex 10.889278156065 -5.42128553626453 1.0
vertex 11.0041795871988 2.99344321413912 1.0
vertex 11.9193374307484 -4.28567566008939 1.0
endloop
endfacet
facet normal 1.38601056601176e-033 -2.43706857857068e-032 -1.0
outer loop
vertex 11.9193374307484 -4.28567566008939 1.0
vertex 11.0041795871988 2.99344321413912 1.0
vertex 11.3220168323946 3.40765677651222 1.0
endloop
endfacet
facet normal 1.38601056601176e-033 -2.43706857857068e-032 -1.0
outer loop
vertex 11.9193374307484 -4.28567566008939 1.0
vertex 11.3220168323946 3.40765677651222 1.0
vertex 11.5218176774039 3.89001868630718 1.0
endloop
endfacet
facet normal 1.38601056601176e-033 -2.43706857857068e-032 -1.0
outer loop
vertex 11.9193374307484 -4.28567566008939 1.0
vertex 11.5218176774039 3.89001868630718 1.0
vertex 11.5899660248257 4.40765677651222 1.0
endloop
endfacet
facet normal 1.38601056601176e-033 -2.43706857857068e-032 -1.0
outer loop
vertex 0.89663358822413 6.73702818243491 1.0
vertex 0.589966024825739 4.40765677651222 1.0
vertex -0.240349925288196 5.69653509629817 1.0
endloop
endfacet
facet normal 1.38601056601176e-033 -2.43706857857068e-032 -1.0
outer loop
vertex 1.7957373907658 8.90765677651222 1.0
vertex 0.89663358822413 6.73702818243491 1.0
vertex 0.42819622400967 8.1968906198021 1.0
endloop
endfacet
facet normal 1.38601056601176e-033 -2.43706857857068e-032 -1.0
outer loop
vertex 0.89663358822413 6.73702818243491 1.0
vertex 1.7957373907658 8.90765677651222 1.0
vertex 0.89663358822413 2.07828537058953 1.0
endloop
endfacet
facet normal 1.38601056601176e-033 -2.43706857857068e-032 -1.0
outer loop
vertex 3.22600499414681 -1.9563042541667 1.0
vertex 1.72750835524893 -1.63205169297465 1.0
vertex 1.7957373907658 -0.0923432234877808 1.0
endloop
endfacet
facet normal 1.38601056601176e-033 -2.43706857857068e-032 -1.0
outer loop
vertex 0.89663358822413 2.07828537058953 1.0
vertex 1.7957373907658 -0.0923432234877808 1.0
vertex 0.432223524906741 0.608700168776893 1.0
endloop
endfacet
facet normal 1.38601056601176e-033 -2.43706857857068e-032 -1.0
outer loop
vertex 1.7957373907658 -0.0923432234877808 1.0
vertex 0.89663358822413 2.07828537058953 1.0
vertex 1.7957373907658 8.90765677651222 1.0
endloop
endfacet
facet normal 1.38601056601176e-033 -2.43706857857068e-032 -1.0
outer loop
vertex 0.589966024825739 4.40765677651222 1.0
vertex 0.89663358822413 2.07828537058953 1.0
vertex -0.238976287951005 3.10834464527297 1.0
endloop
endfacet
facet normal 1.38601056601176e-033 -2.43706857857068e-032 -1.0
outer loop
vertex 0.89663358822413 2.07828537058953 1.0
vertex 0.589966024825739 4.40765677651222 1.0
vertex 0.89663358822413 6.73702818243491 1.0
endloop
endfacet
facet normal 1.38601056601176e-033 -2.43706857857068e-032 -1.0
outer loop
vertex 3.22600499414682 10.7716178071912 1.0
vertex 1.7957373907658 8.90765677651222 1.0
vertex 1.7211018446927 10.4390161188908 1.0
endloop
endfacet
facet normal 1.38601056601176e-033 -2.43706857857068e-032 -1.0
outer loop
vertex 1.7957373907658 8.90765677651222 1.0
vertex 3.22600499414682 10.7716178071912 1.0
vertex 1.7957373907658 -0.0923432234877808 1.0
endloop
endfacet
facet normal 1.38601056601176e-033 -2.43706857857068e-032 -1.0
outer loop
vertex 1.7957373907658 -0.0923432234877808 1.0
vertex 3.22600499414682 10.7716178071912 1.0
vertex 3.22600499414681 -1.9563042541667 1.0
endloop
endfacet
facet normal 1.38601056601176e-033 -2.43706857857068e-032 -1.0
outer loop
vertex 3.22600499414681 -1.9563042541667 1.0
vertex 3.22600499414682 10.7716178071912 1.0
vertex 3.55860668244712 -3.46120740362082 1.0
endloop
endfacet
facet normal 1.38601056601176e-033 -2.43706857857068e-032 -1.0
outer loop
vertex 3.55860668244712 -3.46120740362082 1.0
vertex 3.22600499414682 10.7716178071912 1.0
vertex 3.55025755533888 12.270114446089 1.0
endloop
endfacet
facet normal 1.38601056601176e-033 -2.43706857857068e-032 -1.0
outer loop
vertex 3.55860668244712 -3.46120740362082 1.0
vertex 3.55025755533888 12.270114446089 1.0
vertex 5.08996602482574 12.2018854105722 1.0
endloop
endfacet
facet normal 1.38601056601176e-033 -2.43706857857068e-032 -1.0
outer loop
vertex 3.55860668244712 -3.46120740362082 1.0
vertex 5.08996602482574 12.2018854105722 1.0
vertex 5.08996602482573 -3.38657185754772 1.0
endloop
endfacet
facet normal 1.38601056601176e-033 -2.43706857857068e-032 -1.0
outer loop
vertex 5.08996602482573 -3.38657185754772 1.0
vertex 5.08996602482574 12.2018854105722 1.0
vertex 5.80073218153586 -4.75411302430384 1.0
endloop
endfacet
facet normal 1.38601056601176e-033 -2.43706857857068e-032 -1.0
outer loop
vertex 5.80073218153586 -4.75411302430384 1.0
vertex 5.08996602482574 12.2018854105722 1.0
vertex 5.79100941709041 13.5653992764312 1.0
endloop
endfacet
facet normal 1.38601056601176e-033 -2.43706857857068e-032 -1.0
outer loop
vertex 5.80073218153586 -4.75411302430384 1.0
vertex 5.79100941709041 13.5653992764312 1.0
vertex 7.26059461890305 13.1009892131138 1.0
endloop
endfacet
facet normal 1.38601056601176e-033 -2.43706857857068e-032 -1.0
outer loop
vertex 5.80073218153586 -4.75411302430384 1.0
vertex 7.26059461890305 13.1009892131138 1.0
vertex 7.26059461890305 -4.28567566008939 1.0
endloop
endfacet
facet normal 1.38601056601176e-033 -2.43706857857068e-032 -1.0
outer loop
vertex 7.26059461890305 -4.28567566008939 1.0
vertex 7.26059461890305 13.1009892131138 1.0
vertex 7.58996602482574 4.40765677651222 1.0
endloop
endfacet
facet normal 1.38601056601176e-033 -2.43706857857068e-032 -1.0
outer loop
vertex 7.58996602482574 4.40765677651222 1.0
vertex 7.26059461890305 13.1009892131138 1.0
vertex 8.2906538935865 14.236599089289 1.0
endloop
endfacet
facet normal 1.38601056601176e-033 -2.43706857857068e-032 -1.0
outer loop
vertex 7.58996602482574 4.40765677651222 1.0
vertex 8.2906538935865 14.236599089289 1.0
vertex 7.6581143722476 4.92529486671726 1.0
endloop
endfacet
facet normal 1.38601056601176e-033 -2.43706857857068e-032 -1.0
outer loop
vertex 7.6581143722476 4.92529486671726 1.0
vertex 8.2906538935865 14.236599089289 1.0
vertex 7.85791521725685 5.40765677651222 1.0
endloop
endfacet
facet normal 1.38601056601176e-033 -2.43706857857068e-032 -1.0
outer loop
vertex 7.85791521725685 5.40765677651222 1.0
vertex 8.2906538935865 14.236599089289 1.0
vertex 8.17575246245264 5.82187033888531 1.0
endloop
endfacet
facet normal 1.38601056601176e-033 -2.43706857857068e-032 -1.0
outer loop
vertex 8.17575246245264 5.82187033888531 1.0
vertex 8.2906538935865 14.236599089289 1.0
vertex 8.58996602482574 6.1397075840811 1.0
endloop
endfacet
facet normal 1.38601056601176e-033 -2.43706857857068e-032 -1.0
outer loop
vertex 8.58996602482574 6.1397075840811 1.0
vertex 8.2906538935865 14.236599089289 1.0
vertex 9.58996602482575 13.4076567765122 1.0
endloop
endfacet
facet normal 1.38601056601176e-033 -2.43706857857068e-032 -1.0
outer loop
vertex 8.58996602482574 6.1397075840811 1.0
vertex 9.58996602482575 13.4076567765122 1.0
vertex 9.0723279346207 6.33950842909036 1.0
endloop
endfacet
facet normal 1.38601056601176e-033 -2.43706857857068e-032 -1.0
outer loop
vertex 9.0723279346207 6.33950842909036 1.0
vertex 9.58996602482575 13.4076567765122 1.0
vertex 9.58996602482575 6.40765677651222 1.0
endloop
endfacet
facet normal 1.38601056601176e-033 -2.43706857857068e-032 -1.0
outer loop
vertex 9.58996602482575 6.40765677651222 1.0
vertex 9.58996602482575 13.4076567765122 1.0
vertex 10.8788443446117 14.2379727266262 1.0
endloop
endfacet
facet normal 1.38601056601176e-033 -2.43706857857068e-032 -1.0
outer loop
vertex 9.58996602482575 6.40765677651222 1.0
vertex 10.8788443446117 14.2379727266262 1.0
vertex 10.1076041150308 6.33950842909036 1.0
endloop
endfacet
facet normal 1.38601056601176e-033 -2.43706857857068e-032 -1.0
outer loop
vertex 10.1076041150308 6.33950842909036 1.0
vertex 10.8788443446117 14.2379727266262 1.0
vertex 10.5899660248257 6.1397075840811 1.0
endloop
endfacet
facet normal 1.38601056601176e-033 -2.43706857857068e-032 -1.0
outer loop
vertex 10.5899660248257 6.1397075840811 1.0
vertex 10.8788443446117 14.2379727266262 1.0
vertex 11.0041795871988 5.82187033888532 1.0
endloop
endfacet
facet normal 1.38601056601176e-033 -2.43706857857068e-032 -1.0
outer loop
vertex 11.0041795871988 5.82187033888532 1.0
vertex 10.8788443446117 14.2379727266262 1.0
vertex 11.9193374307484 13.1009892131138 1.0
endloop
endfacet
facet normal 1.38601056601176e-033 -2.43706857857068e-032 -1.0
outer loop
vertex 11.0041795871988 5.82187033888532 1.0
vertex 11.9193374307484 13.1009892131138 1.0
vertex 11.3220168323946 5.40765677651222 1.0
endloop
endfacet
facet normal 1.38601056601176e-033 -2.43706857857068e-032 -1.0
outer loop
vertex 11.3220168323946 5.40765677651222 1.0
vertex 11.9193374307484 13.1009892131138 1.0
vertex 11.5218176774039 4.92529486671726 1.0
endloop
endfacet
facet normal 1.38601056601176e-033 -2.43706857857068e-032 -1.0
outer loop
vertex 11.5218176774039 4.92529486671726 1.0
vertex 11.9193374307484 13.1009892131138 1.0
vertex 11.5899660248257 4.40765677651222 1.0
endloop
endfacet
facet normal 1.38601056601176e-033 -2.43706857857068e-032 -1.0
outer loop
vertex 11.5899660248257 4.40765677651222 1.0
vertex 11.9193374307484 13.1009892131138 1.0
vertex 11.9193374307484 -4.28567566008939 1.0
endloop
endfacet
facet normal 1.38601056601176e-033 -2.43706857857068e-032 -1.0
outer loop
vertex 11.9193374307484 -4.28567566008939 1.0
vertex 11.9193374307484 13.1009892131138 1.0
vertex 13.3889226325611 -4.75008572340678 1.0
endloop
endfacet
facet normal 1.38601056601176e-033 -2.43706857857068e-032 -1.0
outer loop
vertex 13.3889226325611 -4.75008572340678 1.0
vertex 11.9193374307484 13.1009892131138 1.0
vertex 13.3791998681156 13.5694265773283 1.0
endloop
endfacet
facet normal 1.38601056601176e-033 -2.43706857857068e-032 -1.0
outer loop
vertex 13.3889226325611 -4.75008572340678 1.0
vertex 13.3791998681156 13.5694265773283 1.0
vertex 14.0899660248257 12.2018854105722 1.0
endloop
endfacet
facet normal 1.38601056601176e-033 -2.43706857857068e-032 -1.0
outer loop
vertex 13.3889226325611 -4.75008572340678 1.0
vertex 14.0899660248257 12.2018854105722 1.0
vertex 14.0899660248257 -3.38657185754773 1.0
endloop
endfacet
facet normal 1.38601056601176e-033 -2.43706857857068e-032 -1.0
outer loop
vertex 14.0899660248257 -3.38657185754773 1.0
vertex 14.0899660248257 12.2018854105722 1.0
vertex 15.6213253672043 12.2765209566453 1.0
endloop
endfacet
facet normal 1.38601056601176e-033 -2.43706857857068e-032 -1.0
outer loop
vertex 14.0899660248257 -3.38657185754773 1.0
vertex 15.6213253672043 12.2765209566453 1.0
vertex 15.6296744943126 -3.45480089306459 1.0
endloop
endfacet
facet normal 1.38601056601176e-033 -2.43706857857068e-032 -1.0
outer loop
vertex 15.6296744943126 -3.45480089306459 1.0
vertex 15.6213253672043 12.2765209566453 1.0
vertex 15.9539270555047 10.7716178071911 1.0
endloop
endfacet
facet normal 1.38601056601176e-033 -2.43706857857068e-032 -1.0
outer loop
vertex 15.6296744943126 -3.45480089306459 1.0
vertex 15.9539270555047 10.7716178071911 1.0
vertex 15.9539270555047 -1.95630425416671 1.0
endloop
endfacet
facet normal 1.38601056601176e-033 -2.43706857857068e-032 -1.0
outer loop
vertex 15.9539270555047 -1.95630425416671 1.0
vertex 15.9539270555047 10.7716178071911 1.0
vertex 17.4524236944026 10.4473652459991 1.0
endloop
endfacet
facet normal 1.38601056601176e-033 -2.43706857857068e-032 -1.0
outer loop
vertex 15.9539270555047 -1.95630425416671 1.0
vertex 17.4524236944026 10.4473652459991 1.0
vertex 17.3841946588857 8.90765677651222 1.0
endloop
endfacet
facet normal 1.38601056601176e-033 -2.43706857857068e-032 -1.0
outer loop
vertex 17.3841946588857 8.90765677651222 1.0
vertex 18.2832984614274 6.7370281824349 1.0
vertex 17.3841946588857 -0.0923432234877851 1.0
endloop
endfacet
facet normal 1.38601056601176e-033 -2.43706857857068e-032 -1.0
outer loop
vertex 18.2832984614274 6.7370281824349 1.0
vertex 17.3841946588857 8.90765677651222 1.0
vertex 18.7477085247448 8.20661338424754 1.0
endloop
endfacet
facet normal 1.38601056601176e-033 -2.43706857857068e-032 -1.0
outer loop
vertex 17.3841946588857 -0.0923432234877851 1.0
vertex 18.2832984614274 6.7370281824349 1.0
vertex 18.2832984614273 2.07828537058953 1.0
endloop
endfacet
facet normal 1.38601056601176e-033 -2.43706857857068e-032 -1.0
outer loop
vertex 19.4189083376025 5.70696890775147 1.0
vertex 18.5899660248258 4.40765677651221 1.0
vertex 18.2832984614274 6.7370281824349 1.0
endloop
endfacet
facet normal 1.38601056601176e-033 -2.43706857857068e-032 -1.0
outer loop
vertex 18.2832984614273 2.07828537058953 1.0
vertex 18.5899660248258 4.40765677651221 1.0
vertex 19.4202819749397 3.11877845672626 1.0
endloop
endfacet
facet normal 1.38601056601176e-033 -2.43706857857068e-032 -1.0
outer loop
vertex 18.5899660248258 4.40765677651221 1.0
vertex 18.2832984614273 2.07828537058953 1.0
vertex 18.2832984614274 6.7370281824349 1.0
endloop
endfacet
facet normal 1.38601056601176e-033 -2.43706857857068e-032 -1.0
outer loop
vertex 18.7517358256418 0.618422933222336 1.0
vertex 17.3841946588857 -0.0923432234877851 1.0
vertex 18.2832984614273 2.07828537058953 1.0
endloop
endfacet
facet normal 1.38601056601176e-033 -2.43706857857068e-032 -1.0
outer loop
vertex 15.9539270555047 -1.95630425416671 1.0
vertex 17.3841946588857 -0.0923432234877851 1.0
vertex 17.4588302049588 -1.62370256586639 1.0
endloop
endfacet
facet normal 1.38601056601176e-033 -2.43706857857068e-032 -1.0
outer loop
vertex 17.3841946588857 -0.0923432234877851 1.0
vertex 15.9539270555047 -1.95630425416671 1.0
vertex 17.3841946588857 8.90765677651222 1.0
endloop
endfacet
endsolid MOLETTE
