solid RANGEMENT_PORTIQUE
facet normal -0.0 1.0 -0.0
outer loop
vertex 0.0 30.0 20.0
vertex 14.5 30.0 0.0
vertex 0.0 30.0 0.0
endloop
endfacet
facet normal -0.0 1.0 -0.0
outer loop
vertex 14.5 30.0 0.0
vertex 0.0 30.0 20.0
vertex 14.5 30.0 20.0
endloop
endfacet
facet normal 1.0 -0.0 -0.0
outer loop
vertex 25.5 19.0 0.0
vertex 25.5 10.0 20.0
vertex 25.5 10.0 0.0
endloop
endfacet
facet normal 1.0 -0.0 -0.0
outer loop
vertex 25.5 10.0 20.0
vertex 25.5 19.0 0.0
vertex 25.5 19.0 20.0
endloop
endfacet
facet normal 0.0 -1.0 0.0
outer loop
vertex 25.5 10.0 20.0
vertex 21.5 10.0 0.0
vertex 25.5 10.0 0.0
endloop
endfacet
facet normal 0.0 -1.0 0.0
outer loop
vertex 21.5 10.0 0.0
vertex 25.5 10.0 20.0
vertex 21.5 10.0 20.0
endloop
endfacet
facet normal 0.991444861373811 -0.130526192220045 -0.0
outer loop
vertex 8.7044450422656 20.5529142706151 0.0
vertex 8.50000000000002 19.0 20.0
vertex 8.50000000000002 19.0 0.0
endloop
endfacet
facet normal 0.991444861373811 -0.130526192220045 -0.0
outer loop
vertex 8.50000000000002 19.0 20.0
vertex 8.7044450422656 20.5529142706151 0.0
vertex 8.7044450422656 20.5529142706151 20.0
endloop
endfacet
facet normal 1.0 -0.0 -0.0
outer loop
vertex 8.50000000000002 -10.0 0.0
vertex 8.50000000000002 2.14211616751136 3.35
vertex 8.50000000000002 -10.0 20.0
endloop
endfacet
facet normal 1.0 -0.0 -0.0
outer loop
vertex 8.50000000000002 2.14211616751136 3.35
vertex 8.50000000000002 -10.0 0.0
vertex 8.50000000000002 5.00000000000001 1.7
endloop
endfacet
facet normal 1.0 -0.0 -0.0
outer loop
vertex 8.50000000000002 5.00000000000001 1.7
vertex 8.50000000000002 -10.0 0.0
vertex 8.50000000000002 19.0 0.0
endloop
endfacet
facet normal 1.0 -0.0 -0.0
outer loop
vertex 8.50000000000002 -10.0 20.0
vertex 8.50000000000002 2.14211616751136 3.35
vertex 8.50000000000002 2.14211616751136 6.65
endloop
endfacet
facet normal 1.0 -0.0 -0.0
outer loop
vertex 8.50000000000002 5.00000000000001 1.7
vertex 8.50000000000002 19.0 0.0
vertex 8.50000000000002 7.85788383248866 3.35
endloop
endfacet
facet normal 1.0 -0.0 -0.0
outer loop
vertex 8.50000000000002 7.85788383248866 3.35
vertex 8.50000000000002 19.0 0.0
vertex 8.50000000000002 7.85788383248866 6.65
endloop
endfacet
facet normal 1.0 -0.0 -0.0
outer loop
vertex 8.50000000000002 7.85788383248866 6.65
vertex 8.50000000000002 19.0 0.0
vertex 8.50000000000002 7.85788383248866 13.35
endloop
endfacet
facet normal 1.0 -0.0 -0.0
outer loop
vertex 8.50000000000002 -10.0 20.0
vertex 8.50000000000002 5.00000000000001 18.3
vertex 8.50000000000002 19.0 20.0
endloop
endfacet
facet normal 1.0 -0.0 -0.0
outer loop
vertex 8.50000000000002 5.00000000000001 18.3
vertex 8.50000000000002 -10.0 20.0
vertex 8.50000000000002 2.14211616751136 16.65
endloop
endfacet
facet normal 1.0 -0.0 -0.0
outer loop
vertex 8.50000000000002 2.14211616751136 16.65
vertex 8.50000000000002 -10.0 20.0
vertex 8.50000000000002 2.14211616751136 6.65
endloop
endfacet
facet normal 1.0 -0.0 -0.0
outer loop
vertex 8.50000000000002 19.0 20.0
vertex 8.50000000000002 5.00000000000001 18.3
vertex 8.50000000000002 7.85788383248865 16.65
endloop
endfacet
facet normal 1.0 -0.0 -0.0
outer loop
vertex 8.50000000000002 19.0 20.0
vertex 8.50000000000002 7.85788383248865 16.65
vertex 8.50000000000002 7.85788383248866 13.35
endloop
endfacet
facet normal 1.0 -0.0 -0.0
outer loop
vertex 8.50000000000002 19.0 20.0
vertex 8.50000000000002 7.85788383248866 13.35
vertex 8.50000000000002 19.0 0.0
endloop
endfacet
facet normal 1.0 -0.0 -0.0
outer loop
vertex 8.50000000000002 2.14211616751136 6.65
vertex 8.50000000000002 2.14211616751136 13.35
vertex 8.50000000000002 2.14211616751136 16.65
endloop
endfacet
facet normal 1.0 -0.0 -0.0
outer loop
vertex 8.50000000000002 2.14211616751136 13.35
vertex 8.50000000000002 2.14211616751136 6.65
vertex 8.50000000000002 5.00000000000001 8.3
endloop
endfacet
facet normal 1.0 -0.0 -0.0
outer loop
vertex 8.50000000000002 2.14211616751136 13.35
vertex 8.50000000000002 5.00000000000001 8.3
vertex 8.50000000000002 5.00000000000001 11.7
endloop
endfacet
facet normal 1.0 -0.0 -0.0
outer loop
vertex 8.50000000000002 5.00000000000001 11.7
vertex 8.50000000000002 5.00000000000001 8.3
vertex 8.50000000000002 7.85788383248866 6.65
endloop
endfacet
facet normal 1.0 -0.0 -0.0
outer loop
vertex 8.50000000000002 5.00000000000001 11.7
vertex 8.50000000000002 7.85788383248866 6.65
vertex 8.50000000000002 7.85788383248866 13.35
endloop
endfacet
facet normal 0.0 -1.0 0.0
outer loop
vertex 8.50000000000002 -10.0 20.0
vertex 0.0 -10.0 0.0
vertex 8.50000000000002 -10.0 0.0
endloop
endfacet
facet normal 0.0 -1.0 0.0
outer loop
vertex 0.0 -10.0 0.0
vertex 8.50000000000002 -10.0 20.0
vertex 0.0 -10.0 20.0
endloop
endfacet
facet normal -1.0 0.0 0.0
outer loop
vertex 0.0 -10.0 20.0
vertex 5.63993296509579e-015 3.58578643762691 16.4142135623731
vertex 0.0 -10.0 0.0
endloop
endfacet
facet normal -1.0 0.0 0.0
outer loop
vertex 5.63993296509579e-015 3.58578643762691 16.4142135623731
vertex 0.0 -10.0 20.0
vertex 5.63993296509579e-015 4.0 16.7320508075689
endloop
endfacet
facet normal -1.0 0.0 0.0
outer loop
vertex 5.63993296509579e-015 4.0 16.7320508075689
vertex 0.0 -10.0 20.0
vertex 5.63993296509579e-015 4.48236190979496 16.9318516525781
endloop
endfacet
facet normal -1.0 0.0 0.0
outer loop
vertex 5.63993296509579e-015 4.48236190979496 16.9318516525781
vertex 0.0 -10.0 20.0
vertex 5.63993296509579e-015 5.00000000000001 17.0
endloop
endfacet
facet normal -1.0 0.0 0.0
outer loop
vertex 5.63993296509579e-015 5.00000000000001 17.0
vertex 0.0 -10.0 20.0
vertex 0.0 30.0 20.0
endloop
endfacet
facet normal -1.0 0.0 0.0
outer loop
vertex 0.0 -10.0 0.0
vertex 5.63993296509579e-015 3.58578643762691 16.4142135623731
vertex 5.63993296509579e-015 3.26794919243113 16.0
endloop
endfacet
facet normal -1.0 0.0 0.0
outer loop
vertex 0.0 -10.0 0.0
vertex 5.63993296509579e-015 3.26794919243113 16.0
vertex 5.63993296509579e-015 3.06814834742187 15.517638090205
endloop
endfacet
facet normal -1.0 0.0 0.0
outer loop
vertex 0.0 -10.0 0.0
vertex 5.63993296509579e-015 3.06814834742187 15.517638090205
vertex 5.63993296509579e-015 3.00000000000001 15.0
endloop
endfacet
facet normal -1.0 0.0 0.0
outer loop
vertex 5.63993296509579e-015 5.00000000000001 17.0
vertex 0.0 30.0 20.0
vertex 5.63993296509579e-015 5.51763809020505 16.9318516525781
endloop
endfacet
facet normal -1.0 0.0 0.0
outer loop
vertex 5.63993296509579e-015 5.51763809020505 16.9318516525781
vertex 0.0 30.0 20.0
vertex 5.63993296509579e-015 6.00000000000001 16.7320508075689
endloop
endfacet
facet normal -1.0 0.0 0.0
outer loop
vertex 5.63993296509579e-015 6.00000000000001 16.7320508075689
vertex 0.0 30.0 20.0
vertex 5.63993296509579e-015 6.4142135623731 16.4142135623731
endloop
endfacet
facet normal -1.0 0.0 0.0
outer loop
vertex 5.63993296509579e-015 6.4142135623731 16.4142135623731
vertex 0.0 30.0 20.0
vertex 5.63993296509579e-015 6.73205080756888 16.0
endloop
endfacet
facet normal -1.0 0.0 0.0
outer loop
vertex 5.63993296509579e-015 6.73205080756888 16.0
vertex 0.0 30.0 20.0
vertex 5.63993296509579e-015 6.93185165257814 15.517638090205
endloop
endfacet
facet normal -1.0 0.0 0.0
outer loop
vertex 5.63993296509579e-015 6.93185165257814 15.517638090205
vertex 0.0 30.0 20.0
vertex 5.63993296509579e-015 7.00000000000001 15.0
endloop
endfacet
facet normal -1.0 0.0 0.0
outer loop
vertex 5.63993296509579e-015 7.00000000000001 15.0
vertex 0.0 30.0 20.0
vertex 5.63993296509579e-015 7.00000000000001 5.0
endloop
endfacet
facet normal -1.0 0.0 0.0
outer loop
vertex 0.0 -10.0 0.0
vertex 5.63993296509579e-015 5.00000000000001 3.0
vertex 0.0 30.0 0.0
endloop
endfacet
facet normal -1.0 0.0 0.0
outer loop
vertex 5.63993296509579e-015 5.00000000000001 3.0
vertex 0.0 -10.0 0.0
vertex 5.63993296509579e-015 4.48236190979496 3.06814834742186
endloop
endfacet
facet normal -1.0 0.0 0.0
outer loop
vertex 5.63993296509579e-015 4.48236190979496 3.06814834742186
vertex 0.0 -10.0 0.0
vertex 5.63993296509579e-015 4.00000000000001 3.26794919243112
endloop
endfacet
facet normal -1.0 0.0 0.0
outer loop
vertex 5.63993296509579e-015 4.00000000000001 3.26794919243112
vertex 0.0 -10.0 0.0
vertex 5.63993296509579e-015 3.58578643762691 3.5857864376269
endloop
endfacet
facet normal -1.0 0.0 0.0
outer loop
vertex 5.63993296509579e-015 3.58578643762691 3.5857864376269
vertex 0.0 -10.0 0.0
vertex 5.63993296509579e-015 3.26794919243113 4.0
endloop
endfacet
facet normal -1.0 0.0 0.0
outer loop
vertex 5.63993296509579e-015 3.26794919243113 4.0
vertex 0.0 -10.0 0.0
vertex 5.63993296509579e-015 3.06814834742187 4.48236190979496
endloop
endfacet
facet normal -1.0 0.0 0.0
outer loop
vertex 5.63993296509579e-015 3.06814834742187 4.48236190979496
vertex 0.0 -10.0 0.0
vertex 5.63993296509579e-015 3.00000000000001 5.0
endloop
endfacet
facet normal -1.0 0.0 0.0
outer loop
vertex 5.63993296509579e-015 3.00000000000001 5.0
vertex 0.0 -10.0 0.0
vertex 5.63993296509579e-015 3.00000000000001 15.0
endloop
endfacet
facet normal -1.0 0.0 0.0
outer loop
vertex 0.0 30.0 0.0
vertex 5.63993296509579e-015 5.00000000000001 3.0
vertex 5.63993296509579e-015 5.51763809020505 3.06814834742186
endloop
endfacet
facet normal -1.0 0.0 0.0
outer loop
vertex 0.0 30.0 0.0
vertex 5.63993296509579e-015 5.51763809020505 3.06814834742186
vertex 5.63993296509579e-015 6.00000000000001 3.26794919243112
endloop
endfacet
facet normal -1.0 0.0 0.0
outer loop
vertex 0.0 30.0 0.0
vertex 5.63993296509579e-015 6.00000000000001 3.26794919243112
vertex 5.63993296509579e-015 6.4142135623731 3.58578643762691
endloop
endfacet
facet normal -1.0 0.0 0.0
outer loop
vertex 0.0 30.0 0.0
vertex 5.63993296509579e-015 6.4142135623731 3.58578643762691
vertex 5.63993296509579e-015 6.73205080756889 4.0
endloop
endfacet
facet normal -1.0 0.0 0.0
outer loop
vertex 0.0 30.0 0.0
vertex 5.63993296509579e-015 6.73205080756889 4.0
vertex 5.63993296509579e-015 6.93185165257815 4.48236190979496
endloop
endfacet
facet normal -1.0 0.0 0.0
outer loop
vertex 0.0 30.0 0.0
vertex 5.63993296509579e-015 6.93185165257815 4.48236190979496
vertex 5.63993296509579e-015 7.00000000000001 5.0
endloop
endfacet
facet normal -1.0 0.0 0.0
outer loop
vertex 0.0 30.0 0.0
vertex 5.63993296509579e-015 7.00000000000001 5.0
vertex 0.0 30.0 20.0
endloop
endfacet
facet normal -1.0 0.0 0.0
outer loop
vertex 5.63993296509579e-015 3.06814834742187 14.482361909795
vertex 5.63993296509579e-015 3.00000000000001 5.0
vertex 5.63993296509579e-015 3.00000000000001 15.0
endloop
endfacet
facet normal -1.0 0.0 0.0
outer loop
vertex 5.63993296509579e-015 3.00000000000001 5.0
vertex 5.63993296509579e-015 3.06814834742187 14.482361909795
vertex 5.63993296509579e-015 3.06814834742187 5.51763809020504
endloop
endfacet
facet normal -1.0 0.0 0.0
outer loop
vertex 5.63993296509579e-015 3.06814834742187 5.51763809020504
vertex 5.63993296509579e-015 3.06814834742187 14.482361909795
vertex 5.63993296509579e-015 3.26794919243113 6.0
endloop
endfacet
facet normal -1.0 0.0 0.0
outer loop
vertex 5.63993296509579e-015 3.26794919243113 6.0
vertex 5.63993296509579e-015 3.06814834742187 14.482361909795
vertex 5.63993296509579e-015 3.26794919243113 14.0
endloop
endfacet
facet normal -1.0 0.0 0.0
outer loop
vertex 5.63993296509579e-015 3.26794919243113 6.0
vertex 5.63993296509579e-015 3.26794919243113 14.0
vertex 5.63993296509579e-015 3.58578643762691 6.41421356237309
endloop
endfacet
facet normal -1.0 0.0 0.0
outer loop
vertex 5.63993296509579e-015 3.58578643762691 6.41421356237309
vertex 5.63993296509579e-015 3.26794919243113 14.0
vertex 5.63993296509579e-015 3.58578643762691 13.5857864376269
endloop
endfacet
facet normal -1.0 0.0 0.0
outer loop
vertex 5.63993296509579e-015 3.58578643762691 6.41421356237309
vertex 5.63993296509579e-015 3.58578643762691 13.5857864376269
vertex 5.63993296509579e-015 4.00000000000001 13.2679491924311
endloop
endfacet
facet normal -1.0 0.0 0.0
outer loop
vertex 5.63993296509579e-015 3.58578643762691 6.41421356237309
vertex 5.63993296509579e-015 4.00000000000001 13.2679491924311
vertex 5.63993296509579e-015 4.0 6.73205080756888
endloop
endfacet
facet normal -1.0 0.0 0.0
outer loop
vertex 5.63993296509579e-015 4.0 6.73205080756888
vertex 5.63993296509579e-015 4.00000000000001 13.2679491924311
vertex 5.63993296509579e-015 4.48236190979496 6.93185165257813
endloop
endfacet
facet normal -1.0 0.0 0.0
outer loop
vertex 5.63993296509579e-015 4.48236190979496 6.93185165257813
vertex 5.63993296509579e-015 4.00000000000001 13.2679491924311
vertex 5.63993296509579e-015 4.48236190979496 13.0681483474219
endloop
endfacet
facet normal -1.0 0.0 0.0
outer loop
vertex 5.63993296509579e-015 4.48236190979496 6.93185165257813
vertex 5.63993296509579e-015 4.48236190979496 13.0681483474219
vertex 5.63993296509579e-015 5.00000000000001 7.0
endloop
endfacet
facet normal -1.0 0.0 0.0
outer loop
vertex 5.63993296509579e-015 5.00000000000001 7.0
vertex 5.63993296509579e-015 4.48236190979496 13.0681483474219
vertex 5.63993296509579e-015 5.00000000000001 13.0
endloop
endfacet
facet normal -1.0 0.0 0.0
outer loop
vertex 5.63993296509579e-015 5.00000000000001 7.0
vertex 5.63993296509579e-015 5.00000000000001 13.0
vertex 5.63993296509579e-015 5.51763809020505 13.0681483474219
endloop
endfacet
facet normal -1.0 0.0 0.0
outer loop
vertex 5.63993296509579e-015 5.00000000000001 7.0
vertex 5.63993296509579e-015 5.51763809020505 13.0681483474219
vertex 5.63993296509579e-015 5.51763809020505 6.93185165257814
endloop
endfacet
facet normal -1.0 0.0 0.0
outer loop
vertex 5.63993296509579e-015 5.51763809020505 6.93185165257814
vertex 5.63993296509579e-015 5.51763809020505 13.0681483474219
vertex 5.63993296509579e-015 6.00000000000001 13.2679491924311
endloop
endfacet
facet normal -1.0 0.0 0.0
outer loop
vertex 5.63993296509579e-015 5.51763809020505 6.93185165257814
vertex 5.63993296509579e-015 6.00000000000001 13.2679491924311
vertex 5.63993296509579e-015 6.00000000000001 6.73205080756888
endloop
endfacet
facet normal -1.0 0.0 0.0
outer loop
vertex 5.63993296509579e-015 6.00000000000001 6.73205080756888
vertex 5.63993296509579e-015 6.00000000000001 13.2679491924311
vertex 5.63993296509579e-015 6.4142135623731 13.5857864376269
endloop
endfacet
facet normal -1.0 0.0 0.0
outer loop
vertex 5.63993296509579e-015 6.00000000000001 6.73205080756888
vertex 5.63993296509579e-015 6.4142135623731 13.5857864376269
vertex 5.63993296509579e-015 6.4142135623731 6.41421356237309
endloop
endfacet
facet normal -1.0 0.0 0.0
outer loop
vertex 5.63993296509579e-015 6.4142135623731 6.41421356237309
vertex 5.63993296509579e-015 6.4142135623731 13.5857864376269
vertex 5.63993296509579e-015 6.73205080756888 14.0
endloop
endfacet
facet normal -1.0 0.0 0.0
outer loop
vertex 5.63993296509579e-015 6.4142135623731 6.41421356237309
vertex 5.63993296509579e-015 6.73205080756888 14.0
vertex 5.63993296509579e-015 6.73205080756889 6.0
endloop
endfacet
facet normal -1.0 0.0 0.0
outer loop
vertex 5.63993296509579e-015 6.73205080756889 6.0
vertex 5.63993296509579e-015 6.73205080756888 14.0
vertex 5.63993296509579e-015 6.93185165257814 14.482361909795
endloop
endfacet
facet normal -1.0 0.0 0.0
outer loop
vertex 5.63993296509579e-015 6.73205080756889 6.0
vertex 5.63993296509579e-015 6.93185165257814 14.482361909795
vertex 5.63993296509579e-015 6.93185165257815 5.51763809020504
endloop
endfacet
facet normal -1.0 0.0 0.0
outer loop
vertex 5.63993296509579e-015 6.93185165257815 5.51763809020504
vertex 5.63993296509579e-015 6.93185165257814 14.482361909795
vertex 5.63993296509579e-015 7.00000000000001 15.0
endloop
endfacet
facet normal -1.0 0.0 0.0
outer loop
vertex 5.63993296509579e-015 6.93185165257815 5.51763809020504
vertex 5.63993296509579e-015 7.00000000000001 15.0
vertex 5.63993296509579e-015 7.00000000000001 5.0
endloop
endfacet
facet normal -0.0 -0.0 1.0
outer loop
vertex 25.5 10.0 20.0
vertex 21.5 19.0 20.0
vertex 21.5 10.0 20.0
endloop
endfacet
facet normal -0.0 -0.0 1.0
outer loop
vertex 21.5 19.0 20.0
vertex 25.5 10.0 20.0
vertex 22.278174593052 26.7781745930521 20.0
endloop
endfacet
facet normal -0.0 -0.0 1.0
outer loop
vertex 22.278174593052 26.7781745930521 20.0
vertex 25.5 10.0 20.0
vertex 24.0262794416288 24.5 20.0
endloop
endfacet
facet normal -0.0 -0.0 1.0
outer loop
vertex 24.0262794416288 24.5 20.0
vertex 25.5 10.0 20.0
vertex 25.1251840891798 21.8470094961278 20.0
endloop
endfacet
facet normal -0.0 -0.0 1.0
outer loop
vertex 25.1251840891798 21.8470094961278 20.0
vertex 25.5 10.0 20.0
vertex 25.5 19.0 20.0
endloop
endfacet
facet normal -0.0 -0.0 1.0
outer loop
vertex 8.50000000000002 -10.0 20.0
vertex 0.0 30.0 20.0
vertex 0.0 -10.0 20.0
endloop
endfacet
facet normal -0.0 -0.0 1.0
outer loop
vertex 0.0 30.0 20.0
vertex 8.50000000000002 -10.0 20.0
vertex 8.50000000000002 19.0 20.0
endloop
endfacet
facet normal -0.0 -0.0 1.0
outer loop
vertex 0.0 30.0 20.0
vertex 8.50000000000002 19.0 20.0
vertex 8.7044450422656 20.5529142706151 20.0
endloop
endfacet
facet normal -0.0 -0.0 1.0
outer loop
vertex 0.0 30.0 20.0
vertex 8.7044450422656 20.5529142706151 20.0
vertex 8.72148212912107 20.6823237931664 20.0
endloop
endfacet
facet normal -0.0 -0.0 1.0
outer loop
vertex 0.0 30.0 20.0
vertex 8.72148212912107 20.6823237931664 20.0
vertex 9.37083487540117 22.25 20.0
endloop
endfacet
facet normal -0.0 -0.0 1.0
outer loop
vertex 0.0 30.0 20.0
vertex 9.37083487540117 22.25 20.0
vertex 14.5 30.0 20.0
endloop
endfacet
facet normal -0.0 -0.0 1.0
outer loop
vertex 14.5 30.0 20.0
vertex 9.37083487540117 22.25 20.0
vertex 10.4038059222875 23.5961940777126 20.0
endloop
endfacet
facet normal -0.0 -0.0 1.0
outer loop
vertex 14.5 30.0 20.0
vertex 10.4038059222875 23.5961940777126 20.0
vertex 11.75 24.6291651245989 20.0
endloop
endfacet
facet normal -0.0 -0.0 1.0
outer loop
vertex 14.5 30.0 20.0
vertex 11.75 24.6291651245989 20.0
vertex 13.3176762068336 25.278517870879 20.0
endloop
endfacet
facet normal -0.0 -0.0 1.0
outer loop
vertex 14.5 30.0 20.0
vertex 13.3176762068336 25.278517870879 20.0
vertex 15.0 25.5 20.0
endloop
endfacet
facet normal -0.0 -0.0 1.0
outer loop
vertex 14.5 30.0 20.0
vertex 15.0 25.5 20.0
vertex 17.3470094961277 29.6251840891798 20.0
endloop
endfacet
facet normal -0.0 -0.0 1.0
outer loop
vertex 17.3470094961277 29.6251840891798 20.0
vertex 15.0 25.5 20.0
vertex 16.6823237931664 25.278517870879 20.0
endloop
endfacet
facet normal -0.0 -0.0 1.0
outer loop
vertex 17.3470094961277 29.6251840891798 20.0
vertex 16.6823237931664 25.278517870879 20.0
vertex 18.25 24.6291651245989 20.0
endloop
endfacet
facet normal -0.0 -0.0 1.0
outer loop
vertex 17.3470094961277 29.6251840891798 20.0
vertex 18.25 24.6291651245989 20.0
vertex 20.0 28.5262794416289 20.0
endloop
endfacet
facet normal -0.0 -0.0 1.0
outer loop
vertex 20.0 28.5262794416289 20.0
vertex 18.25 24.6291651245989 20.0
vertex 19.5961940777126 23.5961940777126 20.0
endloop
endfacet
facet normal -0.0 -0.0 1.0
outer loop
vertex 20.0 28.5262794416289 20.0
vertex 19.5961940777126 23.5961940777126 20.0
vertex 20.6291651245989 22.25 20.0
endloop
endfacet
facet normal -0.0 -0.0 1.0
outer loop
vertex 20.0 28.5262794416289 20.0
vertex 20.6291651245989 22.25 20.0
vertex 22.278174593052 26.7781745930521 20.0
endloop
endfacet
facet normal -0.0 -0.0 1.0
outer loop
vertex 22.278174593052 26.7781745930521 20.0
vertex 20.6291651245989 22.25 20.0
vertex 21.278517870879 20.6823237931664 20.0
endloop
endfacet
facet normal -0.0 -0.0 1.0
outer loop
vertex 22.278174593052 26.7781745930521 20.0
vertex 21.278517870879 20.6823237931664 20.0
vertex 21.5 19.0 20.0
endloop
endfacet
facet normal 0.130526192220051 0.99144486137381 -0.0
outer loop
vertex 14.5 30.0 20.0
vertex 17.3470094961277 29.6251840891798 0.0
vertex 14.5 30.0 0.0
endloop
endfacet
facet normal 0.130526192220051 0.99144486137381 -0.0
outer loop
vertex 17.3470094961277 29.6251840891798 0.0
vertex 14.5 30.0 20.0
vertex 17.3470094961277 29.6251840891798 20.0
endloop
endfacet
facet normal 0.382683432365089 0.923879532511287 -0.0
outer loop
vertex 17.3470094961277 29.6251840891798 20.0
vertex 20.0 28.5262794416289 0.0
vertex 17.3470094961277 29.6251840891798 0.0
endloop
endfacet
facet normal 0.382683432365089 0.923879532511287 -0.0
outer loop
vertex 20.0 28.5262794416289 0.0
vertex 17.3470094961277 29.6251840891798 20.0
vertex 20.0 28.5262794416289 20.0
endloop
endfacet
facet normal 0.60876142900872 0.793353340291236 -0.0
outer loop
vertex 20.0 28.5262794416289 20.0
vertex 22.278174593052 26.7781745930521 0.0
vertex 20.0 28.5262794416289 0.0
endloop
endfacet
facet normal 0.60876142900872 0.793353340291236 -0.0
outer loop
vertex 22.278174593052 26.7781745930521 0.0
vertex 20.0 28.5262794416289 20.0
vertex 22.278174593052 26.7781745930521 20.0
endloop
endfacet
facet normal 0.793353340291235 0.608761429008721 -0.0
outer loop
vertex 22.278174593052 26.7781745930521 0.0
vertex 24.0262794416288 24.5 20.0
vertex 24.0262794416288 24.5 0.0
endloop
endfacet
facet normal 0.793353340291235 0.608761429008721 -0.0
outer loop
vertex 24.0262794416288 24.5 20.0
vertex 22.278174593052 26.7781745930521 0.0
vertex 22.278174593052 26.7781745930521 20.0
endloop
endfacet
facet normal 0.923879532511285 0.382683432365093 -0.0
outer loop
vertex 24.0262794416288 24.5 0.0
vertex 25.1251840891798 21.8470094961278 20.0
vertex 25.1251840891798 21.8470094961278 0.0
endloop
endfacet
facet normal 0.923879532511285 0.382683432365093 -0.0
outer loop
vertex 25.1251840891798 21.8470094961278 20.0
vertex 24.0262794416288 24.5 0.0
vertex 24.0262794416288 24.5 20.0
endloop
endfacet
facet normal 0.991444861373811 0.130526192220049 -0.0
outer loop
vertex 25.1251840891798 21.8470094961278 0.0
vertex 25.5 19.0 20.0
vertex 25.5 19.0 0.0
endloop
endfacet
facet normal 0.991444861373811 0.130526192220049 -0.0
outer loop
vertex 25.5 19.0 20.0
vertex 25.1251840891798 21.8470094961278 0.0
vertex 25.1251840891798 21.8470094961278 20.0
endloop
endfacet
facet normal 0.0 0.382683432365091 -0.923879532511286
outer loop
vertex 5.50000000000002 4.48236190979496 16.9318516525781
vertex 5.63993296509579e-015 4.0 16.7320508075689
vertex 5.63993296509579e-015 4.48236190979496 16.9318516525781
endloop
endfacet
facet normal 0.0 0.382683432365091 -0.923879532511286
outer loop
vertex 5.63993296509579e-015 4.0 16.7320508075689
vertex 5.50000000000002 4.48236190979496 16.9318516525781
vertex 5.50000000000002 4.0 16.7320508075689
endloop
endfacet
facet normal 0.0 0.608761429008722 -0.793353340291234
outer loop
vertex 5.50000000000002 4.0 16.7320508075689
vertex 5.63993296509579e-015 3.58578643762691 16.4142135623731
vertex 5.63993296509579e-015 4.0 16.7320508075689
endloop
endfacet
facet normal 0.0 0.608761429008722 -0.793353340291234
outer loop
vertex 5.63993296509579e-015 3.58578643762691 16.4142135623731
vertex 5.50000000000002 4.0 16.7320508075689
vertex 5.50000000000002 3.58578643762691 16.4142135623731
endloop
endfacet
facet normal -0.0 0.793353340291236 -0.60876142900872
outer loop
vertex 5.63993296509579e-015 3.58578643762691 16.4142135623731
vertex 5.50000000000002 3.26794919243113 16.0
vertex 5.63993296509579e-015 3.26794919243113 16.0
endloop
endfacet
facet normal -0.0 0.793353340291236 -0.60876142900872
outer loop
vertex 5.50000000000002 3.26794919243113 16.0
vertex 5.63993296509579e-015 3.58578643762691 16.4142135623731
vertex 5.50000000000002 3.58578643762691 16.4142135623731
endloop
endfacet
facet normal -0.0 0.923879532511287 -0.382683432365089
outer loop
vertex 5.63993296509579e-015 3.26794919243113 16.0
vertex 5.50000000000002 3.06814834742187 15.517638090205
vertex 5.63993296509579e-015 3.06814834742187 15.517638090205
endloop
endfacet
facet normal -0.0 0.923879532511287 -0.382683432365089
outer loop
vertex 5.50000000000002 3.06814834742187 15.517638090205
vertex 5.63993296509579e-015 3.26794919243113 16.0
vertex 5.50000000000002 3.26794919243113 16.0
endloop
endfacet
facet normal -0.0 0.99144486137381 -0.130526192220052
outer loop
vertex 5.63993296509579e-015 3.06814834742187 15.517638090205
vertex 5.50000000000002 3.00000000000001 15.0
vertex 5.63993296509579e-015 3.00000000000001 15.0
endloop
endfacet
facet normal -0.0 0.99144486137381 -0.130526192220052
outer loop
vertex 5.50000000000002 3.00000000000001 15.0
vertex 5.63993296509579e-015 3.06814834742187 15.517638090205
vertex 5.50000000000002 3.06814834742187 15.517638090205
endloop
endfacet
facet normal -0.0 0.99144486137381 0.130526192220054
outer loop
vertex 5.63993296509579e-015 3.00000000000001 15.0
vertex 5.50000000000002 3.06814834742187 14.482361909795
vertex 5.63993296509579e-015 3.06814834742187 14.482361909795
endloop
endfacet
facet normal -0.0 0.99144486137381 0.130526192220054
outer loop
vertex 5.50000000000002 3.06814834742187 14.482361909795
vertex 5.63993296509579e-015 3.00000000000001 15.0
vertex 5.50000000000002 3.00000000000001 15.0
endloop
endfacet
facet normal -0.0 0.923879532511287 0.382683432365089
outer loop
vertex 5.63993296509579e-015 3.06814834742187 14.482361909795
vertex 5.50000000000002 3.26794919243113 14.0
vertex 5.63993296509579e-015 3.26794919243113 14.0
endloop
endfacet
facet normal -0.0 0.923879532511287 0.382683432365089
outer loop
vertex 5.50000000000002 3.26794919243113 14.0
vertex 5.63993296509579e-015 3.06814834742187 14.482361909795
vertex 5.50000000000002 3.06814834742187 14.482361909795
endloop
endfacet
facet normal -0.0 0.793353340291237 0.608761429008718
outer loop
vertex 5.63993296509579e-015 3.26794919243113 14.0
vertex 5.50000000000002 3.58578643762691 13.5857864376269
vertex 5.63993296509579e-015 3.58578643762691 13.5857864376269
endloop
endfacet
facet normal -0.0 0.793353340291237 0.608761429008718
outer loop
vertex 5.50000000000002 3.58578643762691 13.5857864376269
vertex 5.63993296509579e-015 3.26794919243113 14.0
vertex 5.50000000000002 3.26794919243113 14.0
endloop
endfacet
facet normal -0.0 0.608761429008719 0.793353340291236
outer loop
vertex 5.50000000000002 3.58578643762691 13.5857864376269
vertex 5.63993296509579e-015 4.00000000000001 13.2679491924311
vertex 5.63993296509579e-015 3.58578643762691 13.5857864376269
endloop
endfacet
facet normal -0.0 0.608761429008719 0.793353340291236
outer loop
vertex 5.63993296509579e-015 4.00000000000001 13.2679491924311
vertex 5.50000000000002 3.58578643762691 13.5857864376269
vertex 5.50000000000002 4.00000000000001 13.2679491924311
endloop
endfacet
facet normal -0.0 0.382683432365087 0.923879532511288
outer loop
vertex 5.50000000000002 4.00000000000001 13.2679491924311
vertex 5.63993296509579e-015 4.48236190979496 13.0681483474219
vertex 5.63993296509579e-015 4.00000000000001 13.2679491924311
endloop
endfacet
facet normal -0.0 0.382683432365087 0.923879532511288
outer loop
vertex 5.63993296509579e-015 4.48236190979496 13.0681483474219
vertex 5.50000000000002 4.00000000000001 13.2679491924311
vertex 5.50000000000002 4.48236190979496 13.0681483474219
endloop
endfacet
facet normal -0.0 0.130526192220051 0.99144486137381
outer loop
vertex 5.50000000000002 4.48236190979496 13.0681483474219
vertex 5.63993296509579e-015 5.00000000000001 13.0
vertex 5.63993296509579e-015 4.48236190979496 13.0681483474219
endloop
endfacet
facet normal -0.0 0.130526192220051 0.99144486137381
outer loop
vertex 5.63993296509579e-015 5.00000000000001 13.0
vertex 5.50000000000002 4.48236190979496 13.0681483474219
vertex 5.50000000000002 5.00000000000001 13.0
endloop
endfacet
facet normal -0.0 -0.130526192220051 0.99144486137381
outer loop
vertex 5.50000000000002 5.00000000000001 13.0
vertex 5.63993296509579e-015 5.51763809020505 13.0681483474219
vertex 5.63993296509579e-015 5.00000000000001 13.0
endloop
endfacet
facet normal -0.0 -0.130526192220051 0.99144486137381
outer loop
vertex 5.63993296509579e-015 5.51763809020505 13.0681483474219
vertex 5.50000000000002 5.00000000000001 13.0
vertex 5.50000000000002 5.51763809020505 13.0681483474219
endloop
endfacet
facet normal -0.0 -0.382683432365091 0.923879532511286
outer loop
vertex 5.50000000000002 5.51763809020505 13.0681483474219
vertex 5.63993296509579e-015 6.00000000000001 13.2679491924311
vertex 5.63993296509579e-015 5.51763809020505 13.0681483474219
endloop
endfacet
facet normal -0.0 -0.382683432365091 0.923879532511286
outer loop
vertex 5.63993296509579e-015 6.00000000000001 13.2679491924311
vertex 5.50000000000002 5.51763809020505 13.0681483474219
vertex 5.50000000000002 6.00000000000001 13.2679491924311
endloop
endfacet
facet normal -0.0 -0.608761429008724 0.793353340291233
outer loop
vertex 5.50000000000002 6.00000000000001 13.2679491924311
vertex 5.63993296509579e-015 6.4142135623731 13.5857864376269
vertex 5.63993296509579e-015 6.00000000000001 13.2679491924311
endloop
endfacet
facet normal -0.0 -0.608761429008724 0.793353340291233
outer loop
vertex 5.63993296509579e-015 6.4142135623731 13.5857864376269
vertex 5.50000000000002 6.00000000000001 13.2679491924311
vertex 5.50000000000002 6.4142135623731 13.5857864376269
endloop
endfacet
facet normal 0.0 -0.793353340291235 0.608761429008721
outer loop
vertex 5.50000000000002 6.73205080756888 14.0
vertex 5.63993296509579e-015 6.4142135623731 13.5857864376269
vertex 5.50000000000002 6.4142135623731 13.5857864376269
endloop
endfacet
facet normal 0.0 -0.793353340291235 0.608761429008721
outer loop
vertex 5.63993296509579e-015 6.4142135623731 13.5857864376269
vertex 5.50000000000002 6.73205080756888 14.0
vertex 5.63993296509579e-015 6.73205080756888 14.0
endloop
endfacet
facet normal 0.0 -0.923879532511286 0.382683432365091
outer loop
vertex 5.50000000000002 6.93185165257814 14.482361909795
vertex 5.63993296509579e-015 6.73205080756888 14.0
vertex 5.50000000000002 6.73205080756888 14.0
endloop
endfacet
facet normal 0.0 -0.923879532511286 0.382683432365091
outer loop
vertex 5.63993296509579e-015 6.73205080756888 14.0
vertex 5.50000000000002 6.93185165257814 14.482361909795
vertex 5.63993296509579e-015 6.93185165257814 14.482361909795
endloop
endfacet
facet normal 0.0 -0.99144486137381 0.130526192220052
outer loop
vertex 5.50000000000002 7.00000000000001 15.0
vertex 5.63993296509579e-015 6.93185165257814 14.482361909795
vertex 5.50000000000002 6.93185165257814 14.482361909795
endloop
endfacet
facet normal 0.0 -0.99144486137381 0.130526192220052
outer loop
vertex 5.63993296509579e-015 6.93185165257814 14.482361909795
vertex 5.50000000000002 7.00000000000001 15.0
vertex 5.63993296509579e-015 7.00000000000001 15.0
endloop
endfacet
facet normal 0.0 -0.99144486137381 -0.130526192220051
outer loop
vertex 5.50000000000002 6.93185165257814 15.517638090205
vertex 5.63993296509579e-015 7.00000000000001 15.0
vertex 5.50000000000002 7.00000000000001 15.0
endloop
endfacet
facet normal 0.0 -0.99144486137381 -0.130526192220051
outer loop
vertex 5.63993296509579e-015 7.00000000000001 15.0
vertex 5.50000000000002 6.93185165257814 15.517638090205
vertex 5.63993296509579e-015 6.93185165257814 15.517638090205
endloop
endfacet
facet normal 0.0 -0.923879532511286 -0.382683432365091
outer loop
vertex 5.50000000000002 6.73205080756888 16.0
vertex 5.63993296509579e-015 6.93185165257814 15.517638090205
vertex 5.50000000000002 6.93185165257814 15.517638090205
endloop
endfacet
facet normal 0.0 -0.923879532511286 -0.382683432365091
outer loop
vertex 5.63993296509579e-015 6.93185165257814 15.517638090205
vertex 5.50000000000002 6.73205080756888 16.0
vertex 5.63993296509579e-015 6.73205080756888 16.0
endloop
endfacet
facet normal 0.0 -0.793353340291235 -0.608761429008721
outer loop
vertex 5.50000000000002 6.4142135623731 16.4142135623731
vertex 5.63993296509579e-015 6.73205080756888 16.0
vertex 5.50000000000002 6.73205080756888 16.0
endloop
endfacet
facet normal 0.0 -0.793353340291235 -0.608761429008721
outer loop
vertex 5.63993296509579e-015 6.73205080756888 16.0
vertex 5.50000000000002 6.4142135623731 16.4142135623731
vertex 5.63993296509579e-015 6.4142135623731 16.4142135623731
endloop
endfacet
facet normal 0.0 -0.608761429008718 -0.793353340291237
outer loop
vertex 5.50000000000002 6.4142135623731 16.4142135623731
vertex 5.63993296509579e-015 6.00000000000001 16.7320508075689
vertex 5.63993296509579e-015 6.4142135623731 16.4142135623731
endloop
endfacet
facet normal 0.0 -0.608761429008718 -0.793353340291237
outer loop
vertex 5.63993296509579e-015 6.00000000000001 16.7320508075689
vertex 5.50000000000002 6.4142135623731 16.4142135623731
vertex 5.50000000000002 6.00000000000001 16.7320508075689
endloop
endfacet
facet normal 0.0 -0.382683432365091 -0.923879532511286
outer loop
vertex 5.50000000000002 6.00000000000001 16.7320508075689
vertex 5.63993296509579e-015 5.51763809020505 16.9318516525781
vertex 5.63993296509579e-015 6.00000000000001 16.7320508075689
endloop
endfacet
facet normal 0.0 -0.382683432365091 -0.923879532511286
outer loop
vertex 5.63993296509579e-015 5.51763809020505 16.9318516525781
vertex 5.50000000000002 6.00000000000001 16.7320508075689
vertex 5.50000000000002 5.51763809020505 16.9318516525781
endloop
endfacet
facet normal 0.0 -0.130526192220052 -0.99144486137381
outer loop
vertex 5.50000000000002 5.51763809020505 16.9318516525781
vertex 5.63993296509579e-015 5.00000000000001 17.0
vertex 5.63993296509579e-015 5.51763809020505 16.9318516525781
endloop
endfacet
facet normal 0.0 -0.130526192220052 -0.99144486137381
outer loop
vertex 5.63993296509579e-015 5.00000000000001 17.0
vertex 5.50000000000002 5.51763809020505 16.9318516525781
vertex 5.50000000000002 5.00000000000001 17.0
endloop
endfacet
facet normal 0.0 0.130526192220051 -0.99144486137381
outer loop
vertex 5.50000000000002 5.00000000000001 17.0
vertex 5.63993296509579e-015 4.48236190979496 16.9318516525781
vertex 5.63993296509579e-015 5.00000000000001 17.0
endloop
endfacet
facet normal 0.0 0.130526192220051 -0.99144486137381
outer loop
vertex 5.63993296509579e-015 4.48236190979496 16.9318516525781
vertex 5.50000000000002 5.00000000000001 17.0
vertex 5.50000000000002 4.48236190979496 16.9318516525781
endloop
endfacet
facet normal -0.0 0.793353340291238 -0.608761429008718
outer loop
vertex 5.63993296509579e-015 3.58578643762691 6.41421356237309
vertex 5.50000000000002 3.26794919243113 6.0
vertex 5.63993296509579e-015 3.26794919243113 6.0
endloop
endfacet
facet normal -0.0 0.793353340291238 -0.608761429008718
outer loop
vertex 5.50000000000002 3.26794919243113 6.0
vertex 5.63993296509579e-015 3.58578643762691 6.41421356237309
vertex 5.50000000000002 3.58578643762691 6.41421356237309
endloop
endfacet
facet normal -0.0 0.923879532511287 -0.38268343236509
outer loop
vertex 5.63993296509579e-015 3.26794919243113 6.0
vertex 5.50000000000002 3.06814834742187 5.51763809020504
vertex 5.63993296509579e-015 3.06814834742187 5.51763809020504
endloop
endfacet
facet normal -0.0 0.923879532511287 -0.38268343236509
outer loop
vertex 5.50000000000002 3.06814834742187 5.51763809020504
vertex 5.63993296509579e-015 3.26794919243113 6.0
vertex 5.50000000000002 3.26794919243113 6.0
endloop
endfacet
facet normal -0.0 0.99144486137381 -0.130526192220052
outer loop
vertex 5.63993296509579e-015 3.06814834742187 5.51763809020504
vertex 5.50000000000002 3.00000000000001 5.0
vertex 5.63993296509579e-015 3.00000000000001 5.0
endloop
endfacet
facet normal -0.0 0.99144486137381 -0.130526192220052
outer loop
vertex 5.50000000000002 3.00000000000001 5.0
vertex 5.63993296509579e-015 3.06814834742187 5.51763809020504
vertex 5.50000000000002 3.06814834742187 5.51763809020504
endloop
endfacet
facet normal -0.0 0.99144486137381 0.130526192220054
outer loop
vertex 5.63993296509579e-015 3.00000000000001 5.0
vertex 5.50000000000002 3.06814834742187 4.48236190979496
vertex 5.63993296509579e-015 3.06814834742187 4.48236190979496
endloop
endfacet
facet normal -0.0 0.99144486137381 0.130526192220054
outer loop
vertex 5.50000000000002 3.06814834742187 4.48236190979496
vertex 5.63993296509579e-015 3.00000000000001 5.0
vertex 5.50000000000002 3.00000000000001 5.0
endloop
endfacet
facet normal -0.0 0.923879532511287 0.38268343236509
outer loop
vertex 5.63993296509579e-015 3.06814834742187 4.48236190979496
vertex 5.50000000000002 3.26794919243113 4.0
vertex 5.63993296509579e-015 3.26794919243113 4.0
endloop
endfacet
facet normal -0.0 0.923879532511287 0.38268343236509
outer loop
vertex 5.50000000000002 3.26794919243113 4.0
vertex 5.63993296509579e-015 3.06814834742187 4.48236190979496
vertex 5.50000000000002 3.06814834742187 4.48236190979496
endloop
endfacet
facet normal -0.0 0.793353340291238 0.608761429008717
outer loop
vertex 5.63993296509579e-015 3.26794919243113 4.0
vertex 5.50000000000002 3.58578643762691 3.5857864376269
vertex 5.63993296509579e-015 3.58578643762691 3.5857864376269
endloop
endfacet
facet normal -0.0 0.793353340291238 0.608761429008717
outer loop
vertex 5.50000000000002 3.58578643762691 3.5857864376269
vertex 5.63993296509579e-015 3.26794919243113 4.0
vertex 5.50000000000002 3.26794919243113 4.0
endloop
endfacet
facet normal -0.0 0.608761429008718 0.793353340291237
outer loop
vertex 5.50000000000002 3.58578643762691 3.5857864376269
vertex 5.63993296509579e-015 4.00000000000001 3.26794919243112
vertex 5.63993296509579e-015 3.58578643762691 3.5857864376269
endloop
endfacet
facet normal -0.0 0.608761429008718 0.793353340291237
outer loop
vertex 5.63993296509579e-015 4.00000000000001 3.26794919243112
vertex 5.50000000000002 3.58578643762691 3.5857864376269
vertex 5.50000000000002 4.00000000000001 3.26794919243112
endloop
endfacet
facet normal -0.0 0.382683432365089 0.923879532511287
outer loop
vertex 5.50000000000002 4.00000000000001 3.26794919243112
vertex 5.63993296509579e-015 4.48236190979496 3.06814834742186
vertex 5.63993296509579e-015 4.00000000000001 3.26794919243112
endloop
endfacet
facet normal -0.0 0.382683432365089 0.923879532511287
outer loop
vertex 5.63993296509579e-015 4.48236190979496 3.06814834742186
vertex 5.50000000000002 4.00000000000001 3.26794919243112
vertex 5.50000000000002 4.48236190979496 3.06814834742186
endloop
endfacet
facet normal -0.0 0.13052619222005 0.991444861373811
outer loop
vertex 5.50000000000002 4.48236190979496 3.06814834742186
vertex 5.63993296509579e-015 5.00000000000001 3.0
vertex 5.63993296509579e-015 4.48236190979496 3.06814834742186
endloop
endfacet
facet normal -0.0 0.13052619222005 0.991444861373811
outer loop
vertex 5.63993296509579e-015 5.00000000000001 3.0
vertex 5.50000000000002 4.48236190979496 3.06814834742186
vertex 5.50000000000002 5.00000000000001 3.0
endloop
endfacet
facet normal -0.0 -0.130526192220051 0.99144486137381
outer loop
vertex 5.50000000000002 5.00000000000001 3.0
vertex 5.63993296509579e-015 5.51763809020505 3.06814834742186
vertex 5.63993296509579e-015 5.00000000000001 3.0
endloop
endfacet
facet normal -0.0 -0.130526192220051 0.99144486137381
outer loop
vertex 5.63993296509579e-015 5.51763809020505 3.06814834742186
vertex 5.50000000000002 5.00000000000001 3.0
vertex 5.50000000000002 5.51763809020505 3.06814834742186
endloop
endfacet
facet normal -0.0 -0.38268343236509 0.923879532511287
outer loop
vertex 5.50000000000002 5.51763809020505 3.06814834742186
vertex 5.63993296509579e-015 6.00000000000001 3.26794919243112
vertex 5.63993296509579e-015 5.51763809020505 3.06814834742186
endloop
endfacet
facet normal -0.0 -0.38268343236509 0.923879532511287
outer loop
vertex 5.63993296509579e-015 6.00000000000001 3.26794919243112
vertex 5.50000000000002 5.51763809020505 3.06814834742186
vertex 5.50000000000002 6.00000000000001 3.26794919243112
endloop
endfacet
facet normal -0.0 -0.60876142900872 0.793353340291236
outer loop
vertex 5.50000000000002 6.00000000000001 3.26794919243112
vertex 5.63993296509579e-015 6.4142135623731 3.58578643762691
vertex 5.63993296509579e-015 6.00000000000001 3.26794919243112
endloop
endfacet
facet normal -0.0 -0.60876142900872 0.793353340291236
outer loop
vertex 5.63993296509579e-015 6.4142135623731 3.58578643762691
vertex 5.50000000000002 6.00000000000001 3.26794919243112
vertex 5.50000000000002 6.4142135623731 3.58578643762691
endloop
endfacet
facet normal 0.0 -0.793353340291236 0.60876142900872
outer loop
vertex 5.50000000000002 6.73205080756889 4.0
vertex 5.63993296509579e-015 6.4142135623731 3.58578643762691
vertex 5.50000000000002 6.4142135623731 3.58578643762691
endloop
endfacet
facet normal 0.0 -0.793353340291236 0.60876142900872
outer loop
vertex 5.63993296509579e-015 6.4142135623731 3.58578643762691
vertex 5.50000000000002 6.73205080756889 4.0
vertex 5.63993296509579e-015 6.73205080756889 4.0
endloop
endfacet
facet normal 0.0 -0.923879532511286 0.382683432365092
outer loop
vertex 5.50000000000002 6.93185165257815 4.48236190979496
vertex 5.63993296509579e-015 6.73205080756889 4.0
vertex 5.50000000000002 6.73205080756889 4.0
endloop
endfacet
facet normal 0.0 -0.923879532511286 0.382683432365092
outer loop
vertex 5.63993296509579e-015 6.73205080756889 4.0
vertex 5.50000000000002 6.93185165257815 4.48236190979496
vertex 5.63993296509579e-015 6.93185165257815 4.48236190979496
endloop
endfacet
facet normal 0.0 -0.99144486137381 0.130526192220052
outer loop
vertex 5.50000000000002 7.00000000000001 5.0
vertex 5.63993296509579e-015 6.93185165257815 4.48236190979496
vertex 5.50000000000002 6.93185165257815 4.48236190979496
endloop
endfacet
facet normal 0.0 -0.99144486137381 0.130526192220052
outer loop
vertex 5.63993296509579e-015 6.93185165257815 4.48236190979496
vertex 5.50000000000002 7.00000000000001 5.0
vertex 5.63993296509579e-015 7.00000000000001 5.0
endloop
endfacet
facet normal 0.0 -0.99144486137381 -0.130526192220051
outer loop
vertex 5.50000000000002 6.93185165257815 5.51763809020504
vertex 5.63993296509579e-015 7.00000000000001 5.0
vertex 5.50000000000002 7.00000000000001 5.0
endloop
endfacet
facet normal 0.0 -0.99144486137381 -0.130526192220051
outer loop
vertex 5.63993296509579e-015 7.00000000000001 5.0
vertex 5.50000000000002 6.93185165257815 5.51763809020504
vertex 5.63993296509579e-015 6.93185165257815 5.51763809020504
endloop
endfacet
facet normal 0.0 -0.923879532511286 -0.382683432365091
outer loop
vertex 5.50000000000002 6.73205080756889 6.0
vertex 5.63993296509579e-015 6.93185165257815 5.51763809020504
vertex 5.50000000000002 6.93185165257815 5.51763809020504
endloop
endfacet
facet normal 0.0 -0.923879532511286 -0.382683432365091
outer loop
vertex 5.63993296509579e-015 6.93185165257815 5.51763809020504
vertex 5.50000000000002 6.73205080756889 6.0
vertex 5.63993296509579e-015 6.73205080756889 6.0
endloop
endfacet
facet normal 0.0 -0.793353340291234 -0.608761429008722
outer loop
vertex 5.50000000000002 6.4142135623731 6.41421356237309
vertex 5.63993296509579e-015 6.73205080756889 6.0
vertex 5.50000000000002 6.73205080756889 6.0
endloop
endfacet
facet normal 0.0 -0.793353340291234 -0.608761429008722
outer loop
vertex 5.63993296509579e-015 6.73205080756889 6.0
vertex 5.50000000000002 6.4142135623731 6.41421356237309
vertex 5.63993296509579e-015 6.4142135623731 6.41421356237309
endloop
endfacet
facet normal 0.0 -0.608761429008721 -0.793353340291235
outer loop
vertex 5.50000000000002 6.4142135623731 6.41421356237309
vertex 5.63993296509579e-015 6.00000000000001 6.73205080756888
vertex 5.63993296509579e-015 6.4142135623731 6.41421356237309
endloop
endfacet
facet normal 0.0 -0.608761429008721 -0.793353340291235
outer loop
vertex 5.63993296509579e-015 6.00000000000001 6.73205080756888
vertex 5.50000000000002 6.4142135623731 6.41421356237309
vertex 5.50000000000002 6.00000000000001 6.73205080756888
endloop
endfacet
facet normal 0.0 -0.382683432365089 -0.923879532511287
outer loop
vertex 5.50000000000002 6.00000000000001 6.73205080756888
vertex 5.63993296509579e-015 5.51763809020505 6.93185165257814
vertex 5.63993296509579e-015 6.00000000000001 6.73205080756888
endloop
endfacet
facet normal 0.0 -0.382683432365089 -0.923879532511287
outer loop
vertex 5.63993296509579e-015 5.51763809020505 6.93185165257814
vertex 5.50000000000002 6.00000000000001 6.73205080756888
vertex 5.50000000000002 5.51763809020505 6.93185165257814
endloop
endfacet
facet normal 0.0 -0.130526192220051 -0.99144486137381
outer loop
vertex 5.50000000000002 5.51763809020505 6.93185165257814
vertex 5.63993296509579e-015 5.00000000000001 7.0
vertex 5.63993296509579e-015 5.51763809020505 6.93185165257814
endloop
endfacet
facet normal 0.0 -0.130526192220051 -0.99144486137381
outer loop
vertex 5.63993296509579e-015 5.00000000000001 7.0
vertex 5.50000000000002 5.51763809020505 6.93185165257814
vertex 5.50000000000002 5.00000000000001 7.0
endloop
endfacet
facet normal 0.0 0.130526192220053 -0.99144486137381
outer loop
vertex 5.50000000000002 5.00000000000001 7.0
vertex 5.63993296509579e-015 4.48236190979496 6.93185165257813
vertex 5.63993296509579e-015 5.00000000000001 7.0
endloop
endfacet
facet normal 0.0 0.130526192220053 -0.99144486137381
outer loop
vertex 5.63993296509579e-015 4.48236190979496 6.93185165257813
vertex 5.50000000000002 5.00000000000001 7.0
vertex 5.50000000000002 4.48236190979496 6.93185165257813
endloop
endfacet
facet normal 0.0 0.382683432365089 -0.923879532511287
outer loop
vertex 5.50000000000002 4.48236190979496 6.93185165257813
vertex 5.63993296509579e-015 4.0 6.73205080756888
vertex 5.63993296509579e-015 4.48236190979496 6.93185165257813
endloop
endfacet
facet normal 0.0 0.382683432365089 -0.923879532511287
outer loop
vertex 5.63993296509579e-015 4.0 6.73205080756888
vertex 5.50000000000002 4.48236190979496 6.93185165257813
vertex 5.50000000000002 4.0 6.73205080756888
endloop
endfacet
facet normal 0.0 0.60876142900872 -0.793353340291236
outer loop
vertex 5.50000000000002 4.0 6.73205080756888
vertex 5.63993296509579e-015 3.58578643762691 6.41421356237309
vertex 5.63993296509579e-015 4.0 6.73205080756888
endloop
endfacet
facet normal 0.0 0.60876142900872 -0.793353340291236
outer loop
vertex 5.63993296509579e-015 3.58578643762691 6.41421356237309
vertex 5.50000000000002 4.0 6.73205080756888
vertex 5.50000000000002 3.58578643762691 6.41421356237309
endloop
endfacet
facet normal 1.0 -0.0 -0.0
outer loop
vertex 5.50000000000002 2.14211616751136 13.35
vertex 5.50000000000002 3.06814834742187 14.482361909795
vertex 5.50000000000002 3.00000000000001 15.0
endloop
endfacet
facet normal 1.0 -0.0 -0.0
outer loop
vertex 5.50000000000002 3.06814834742187 14.482361909795
vertex 5.50000000000002 2.14211616751136 13.35
vertex 5.50000000000002 3.26794919243113 14.0
endloop
endfacet
facet normal 1.0 -0.0 -0.0
outer loop
vertex 5.50000000000002 3.26794919243113 14.0
vertex 5.50000000000002 2.14211616751136 13.35
vertex 5.50000000000002 5.00000000000001 11.7
endloop
endfacet
facet normal 1.0 -0.0 -0.0
outer loop
vertex 5.50000000000002 3.26794919243113 14.0
vertex 5.50000000000002 5.00000000000001 11.7
vertex 5.50000000000002 3.58578643762691 13.5857864376269
endloop
endfacet
facet normal 1.0 -0.0 -0.0
outer loop
vertex 5.50000000000002 3.58578643762691 13.5857864376269
vertex 5.50000000000002 5.00000000000001 11.7
vertex 5.50000000000002 4.00000000000001 13.2679491924311
endloop
endfacet
facet normal 1.0 -0.0 -0.0
outer loop
vertex 5.50000000000002 4.00000000000001 13.2679491924311
vertex 5.50000000000002 5.00000000000001 11.7
vertex 5.50000000000002 4.48236190979496 13.0681483474219
endloop
endfacet
facet normal 1.0 -0.0 -0.0
outer loop
vertex 5.50000000000002 4.48236190979496 13.0681483474219
vertex 5.50000000000002 5.00000000000001 11.7
vertex 5.50000000000002 5.00000000000001 13.0
endloop
endfacet
facet normal 1.0 -0.0 -0.0
outer loop
vertex 5.50000000000002 5.00000000000001 13.0
vertex 5.50000000000002 5.00000000000001 11.7
vertex 5.50000000000002 7.85788383248866 13.35
endloop
endfacet
facet normal 1.0 -0.0 -0.0
outer loop
vertex 5.50000000000002 5.00000000000001 13.0
vertex 5.50000000000002 7.85788383248866 13.35
vertex 5.50000000000002 5.51763809020505 13.0681483474219
endloop
endfacet
facet normal 1.0 -0.0 -0.0
outer loop
vertex 5.50000000000002 5.51763809020505 13.0681483474219
vertex 5.50000000000002 7.85788383248866 13.35
vertex 5.50000000000002 6.00000000000001 13.2679491924311
endloop
endfacet
facet normal 1.0 -0.0 -0.0
outer loop
vertex 5.50000000000002 6.00000000000001 13.2679491924311
vertex 5.50000000000002 7.85788383248866 13.35
vertex 5.50000000000002 6.4142135623731 13.5857864376269
endloop
endfacet
facet normal 1.0 -0.0 -0.0
outer loop
vertex 5.50000000000002 6.4142135623731 13.5857864376269
vertex 5.50000000000002 7.85788383248866 13.35
vertex 5.50000000000002 6.73205080756888 14.0
endloop
endfacet
facet normal 1.0 -0.0 -0.0
outer loop
vertex 5.50000000000002 6.73205080756888 14.0
vertex 5.50000000000002 7.85788383248866 13.35
vertex 5.50000000000002 6.93185165257814 14.482361909795
endloop
endfacet
facet normal 1.0 -0.0 -0.0
outer loop
vertex 5.50000000000002 6.93185165257814 14.482361909795
vertex 5.50000000000002 7.85788383248866 13.35
vertex 5.50000000000002 7.00000000000001 15.0
endloop
endfacet
facet normal 1.0 -0.0 -0.0
outer loop
vertex 5.50000000000002 7.00000000000001 15.0
vertex 5.50000000000002 7.85788383248866 13.35
vertex 5.50000000000002 7.85788383248865 16.65
endloop
endfacet
facet normal 1.0 -0.0 -0.0
outer loop
vertex 5.50000000000002 2.14211616751136 16.65
vertex 5.50000000000002 3.26794919243113 16.0
vertex 5.50000000000002 5.00000000000001 18.3
endloop
endfacet
facet normal 1.0 -0.0 -0.0
outer loop
vertex 5.50000000000002 3.26794919243113 16.0
vertex 5.50000000000002 2.14211616751136 16.65
vertex 5.50000000000002 2.14211616751136 13.35
endloop
endfacet
facet normal 1.0 -0.0 -0.0
outer loop
vertex 5.50000000000002 3.26794919243113 16.0
vertex 5.50000000000002 2.14211616751136 13.35
vertex 5.50000000000002 3.06814834742187 15.517638090205
endloop
endfacet
facet normal 1.0 -0.0 -0.0
outer loop
vertex 5.50000000000002 3.06814834742187 15.517638090205
vertex 5.50000000000002 2.14211616751136 13.35
vertex 5.50000000000002 3.00000000000001 15.0
endloop
endfacet
facet normal 1.0 -0.0 -0.0
outer loop
vertex 5.50000000000002 5.00000000000001 18.3
vertex 5.50000000000002 3.26794919243113 16.0
vertex 5.50000000000002 3.58578643762691 16.4142135623731
endloop
endfacet
facet normal 1.0 -0.0 -0.0
outer loop
vertex 5.50000000000002 5.00000000000001 18.3
vertex 5.50000000000002 3.58578643762691 16.4142135623731
vertex 5.50000000000002 4.0 16.7320508075689
endloop
endfacet
facet normal 1.0 -0.0 -0.0
outer loop
vertex 5.50000000000002 5.00000000000001 18.3
vertex 5.50000000000002 4.0 16.7320508075689
vertex 5.50000000000002 4.48236190979496 16.9318516525781
endloop
endfacet
facet normal 1.0 -0.0 -0.0
outer loop
vertex 5.50000000000002 5.00000000000001 18.3
vertex 5.50000000000002 4.48236190979496 16.9318516525781
vertex 5.50000000000002 5.00000000000001 17.0
endloop
endfacet
facet normal 1.0 -0.0 -0.0
outer loop
vertex 5.50000000000002 5.00000000000001 18.3
vertex 5.50000000000002 5.00000000000001 17.0
vertex 5.50000000000002 5.51763809020505 16.9318516525781
endloop
endfacet
facet normal 1.0 -0.0 -0.0
outer loop
vertex 5.50000000000002 5.00000000000001 18.3
vertex 5.50000000000002 5.51763809020505 16.9318516525781
vertex 5.50000000000002 7.85788383248865 16.65
endloop
endfacet
facet normal 1.0 -0.0 -0.0
outer loop
vertex 5.50000000000002 7.85788383248865 16.65
vertex 5.50000000000002 5.51763809020505 16.9318516525781
vertex 5.50000000000002 6.00000000000001 16.7320508075689
endloop
endfacet
facet normal 1.0 -0.0 -0.0
outer loop
vertex 5.50000000000002 7.85788383248865 16.65
vertex 5.50000000000002 6.00000000000001 16.7320508075689
vertex 5.50000000000002 6.4142135623731 16.4142135623731
endloop
endfacet
facet normal 1.0 -0.0 -0.0
outer loop
vertex 5.50000000000002 7.85788383248865 16.65
vertex 5.50000000000002 6.4142135623731 16.4142135623731
vertex 5.50000000000002 6.73205080756888 16.0
endloop
endfacet
facet normal 1.0 -0.0 -0.0
outer loop
vertex 5.50000000000002 7.85788383248865 16.65
vertex 5.50000000000002 6.73205080756888 16.0
vertex 5.50000000000002 6.93185165257814 15.517638090205
endloop
endfacet
facet normal 1.0 -0.0 -0.0
outer loop
vertex 5.50000000000002 7.85788383248865 16.65
vertex 5.50000000000002 6.93185165257814 15.517638090205
vertex 5.50000000000002 7.00000000000001 15.0
endloop
endfacet
facet normal 0.0 0.5 -0.866025403784438
outer loop
vertex 8.50000000000002 5.00000000000001 18.3
vertex 5.50000000000002 2.14211616751136 16.65
vertex 5.50000000000002 5.00000000000001 18.3
endloop
endfacet
facet normal 0.0 0.5 -0.866025403784438
outer loop
vertex 5.50000000000002 2.14211616751136 16.65
vertex 8.50000000000002 5.00000000000001 18.3
vertex 8.50000000000002 2.14211616751136 16.65
endloop
endfacet
facet normal -0.0 1.0 4.27267648870894e-016
outer loop
vertex 5.50000000000002 2.14211616751136 16.65
vertex 8.50000000000002 2.14211616751136 13.35
vertex 5.50000000000002 2.14211616751136 13.35
endloop
endfacet
facet normal -0.0 1.0 4.27267648870894e-016
outer loop
vertex 8.50000000000002 2.14211616751136 13.35
vertex 5.50000000000002 2.14211616751136 16.65
vertex 8.50000000000002 2.14211616751136 16.65
endloop
endfacet
facet normal -0.0 0.499999999999999 0.866025403784439
outer loop
vertex 8.50000000000002 2.14211616751136 13.35
vertex 5.50000000000002 5.00000000000001 11.7
vertex 5.50000000000002 2.14211616751136 13.35
endloop
endfacet
facet normal -0.0 0.499999999999999 0.866025403784439
outer loop
vertex 5.50000000000002 5.00000000000001 11.7
vertex 8.50000000000002 2.14211616751136 13.35
vertex 8.50000000000002 5.00000000000001 11.7
endloop
endfacet
facet normal -0.0 -0.5 0.866025403784439
outer loop
vertex 8.50000000000002 5.00000000000001 11.7
vertex 5.50000000000002 7.85788383248866 13.35
vertex 5.50000000000002 5.00000000000001 11.7
endloop
endfacet
facet normal -0.0 -0.5 0.866025403784439
outer loop
vertex 5.50000000000002 7.85788383248866 13.35
vertex 8.50000000000002 5.00000000000001 11.7
vertex 8.50000000000002 7.85788383248866 13.35
endloop
endfacet
facet normal 0.0 -1.0 -8.54535297741787e-016
outer loop
vertex 8.50000000000002 7.85788383248865 16.65
vertex 5.50000000000002 7.85788383248866 13.35
vertex 8.50000000000002 7.85788383248866 13.35
endloop
endfacet
facet normal 0.0 -1.0 -8.54535297741787e-016
outer loop
vertex 5.50000000000002 7.85788383248866 13.35
vertex 8.50000000000002 7.85788383248865 16.65
vertex 5.50000000000002 7.85788383248865 16.65
endloop
endfacet
facet normal 0.0 -0.5 -0.866025403784438
outer loop
vertex 8.50000000000002 7.85788383248865 16.65
vertex 5.50000000000002 5.00000000000001 18.3
vertex 5.50000000000002 7.85788383248865 16.65
endloop
endfacet
facet normal 0.0 -0.5 -0.866025403784438
outer loop
vertex 5.50000000000002 5.00000000000001 18.3
vertex 8.50000000000002 7.85788383248865 16.65
vertex 8.50000000000002 5.00000000000001 18.3
endloop
endfacet
facet normal 1.0 -0.0 -0.0
outer loop
vertex 5.50000000000002 2.14211616751136 3.35
vertex 5.50000000000002 3.06814834742187 4.48236190979496
vertex 5.50000000000002 3.00000000000001 5.0
endloop
endfacet
facet normal 1.0 -0.0 -0.0
outer loop
vertex 5.50000000000002 3.06814834742187 4.48236190979496
vertex 5.50000000000002 2.14211616751136 3.35
vertex 5.50000000000002 3.26794919243113 4.0
endloop
endfacet
facet normal 1.0 -0.0 -0.0
outer loop
vertex 5.50000000000002 3.26794919243113 4.0
vertex 5.50000000000002 2.14211616751136 3.35
vertex 5.50000000000002 5.00000000000001 1.7
endloop
endfacet
facet normal 1.0 -0.0 -0.0
outer loop
vertex 5.50000000000002 3.26794919243113 4.0
vertex 5.50000000000002 5.00000000000001 1.7
vertex 5.50000000000002 3.58578643762691 3.5857864376269
endloop
endfacet
facet normal 1.0 -0.0 -0.0
outer loop
vertex 5.50000000000002 3.58578643762691 3.5857864376269
vertex 5.50000000000002 5.00000000000001 1.7
vertex 5.50000000000002 4.00000000000001 3.26794919243112
endloop
endfacet
facet normal 1.0 -0.0 -0.0
outer loop
vertex 5.50000000000002 4.00000000000001 3.26794919243112
vertex 5.50000000000002 5.00000000000001 1.7
vertex 5.50000000000002 4.48236190979496 3.06814834742186
endloop
endfacet
facet normal 1.0 -0.0 -0.0
outer loop
vertex 5.50000000000002 4.48236190979496 3.06814834742186
vertex 5.50000000000002 5.00000000000001 1.7
vertex 5.50000000000002 5.00000000000001 3.0
endloop
endfacet
facet normal 1.0 -0.0 -0.0
outer loop
vertex 5.50000000000002 5.00000000000001 3.0
vertex 5.50000000000002 5.00000000000001 1.7
vertex 5.50000000000002 7.85788383248866 3.35
endloop
endfacet
facet normal 1.0 -0.0 -0.0
outer loop
vertex 5.50000000000002 5.00000000000001 3.0
vertex 5.50000000000002 7.85788383248866 3.35
vertex 5.50000000000002 5.51763809020505 3.06814834742186
endloop
endfacet
facet normal 1.0 -0.0 -0.0
outer loop
vertex 5.50000000000002 5.51763809020505 3.06814834742186
vertex 5.50000000000002 7.85788383248866 3.35
vertex 5.50000000000002 6.00000000000001 3.26794919243112
endloop
endfacet
facet normal 1.0 -0.0 -0.0
outer loop
vertex 5.50000000000002 6.00000000000001 3.26794919243112
vertex 5.50000000000002 7.85788383248866 3.35
vertex 5.50000000000002 6.4142135623731 3.58578643762691
endloop
endfacet
facet normal 1.0 -0.0 -0.0
outer loop
vertex 5.50000000000002 6.4142135623731 3.58578643762691
vertex 5.50000000000002 7.85788383248866 3.35
vertex 5.50000000000002 6.73205080756889 4.0
endloop
endfacet
facet normal 1.0 -0.0 -0.0
outer loop
vertex 5.50000000000002 6.73205080756889 4.0
vertex 5.50000000000002 7.85788383248866 3.35
vertex 5.50000000000002 6.93185165257815 4.48236190979496
endloop
endfacet
facet normal 1.0 -0.0 -0.0
outer loop
vertex 5.50000000000002 6.93185165257815 4.48236190979496
vertex 5.50000000000002 7.85788383248866 3.35
vertex 5.50000000000002 7.00000000000001 5.0
endloop
endfacet
facet normal 1.0 -0.0 -0.0
outer loop
vertex 5.50000000000002 2.14211616751136 6.65
vertex 5.50000000000002 3.26794919243113 6.0
vertex 5.50000000000002 5.00000000000001 8.3
endloop
endfacet
facet normal 1.0 -0.0 -0.0
outer loop
vertex 5.50000000000002 3.26794919243113 6.0
vertex 5.50000000000002 2.14211616751136 6.65
vertex 5.50000000000002 2.14211616751136 3.35
endloop
endfacet
facet normal 1.0 -0.0 -0.0
outer loop
vertex 5.50000000000002 3.26794919243113 6.0
vertex 5.50000000000002 2.14211616751136 3.35
vertex 5.50000000000002 3.06814834742187 5.51763809020504
endloop
endfacet
facet normal 1.0 -0.0 -0.0
outer loop
vertex 5.50000000000002 3.06814834742187 5.51763809020504
vertex 5.50000000000002 2.14211616751136 3.35
vertex 5.50000000000002 3.00000000000001 5.0
endloop
endfacet
facet normal 1.0 -0.0 -0.0
outer loop
vertex 5.50000000000002 5.00000000000001 8.3
vertex 5.50000000000002 3.26794919243113 6.0
vertex 5.50000000000002 3.58578643762691 6.41421356237309
endloop
endfacet
facet normal 1.0 -0.0 -0.0
outer loop
vertex 5.50000000000002 5.00000000000001 8.3
vertex 5.50000000000002 3.58578643762691 6.41421356237309
vertex 5.50000000000002 4.0 6.73205080756888
endloop
endfacet
facet normal 1.0 -0.0 -0.0
outer loop
vertex 5.50000000000002 5.00000000000001 8.3
vertex 5.50000000000002 4.0 6.73205080756888
vertex 5.50000000000002 4.48236190979496 6.93185165257813
endloop
endfacet
facet normal 1.0 -0.0 -0.0
outer loop
vertex 5.50000000000002 5.00000000000001 8.3
vertex 5.50000000000002 4.48236190979496 6.93185165257813
vertex 5.50000000000002 5.00000000000001 7.0
endloop
endfacet
facet normal 1.0 -0.0 -0.0
outer loop
vertex 5.50000000000002 5.00000000000001 8.3
vertex 5.50000000000002 5.00000000000001 7.0
vertex 5.50000000000002 5.51763809020505 6.93185165257814
endloop
endfacet
facet normal 1.0 -0.0 -0.0
outer loop
vertex 5.50000000000002 5.00000000000001 8.3
vertex 5.50000000000002 5.51763809020505 6.93185165257814
vertex 5.50000000000002 7.85788383248866 6.65
endloop
endfacet
facet normal 1.0 -0.0 -0.0
outer loop
vertex 5.50000000000002 7.85788383248866 6.65
vertex 5.50000000000002 5.51763809020505 6.93185165257814
vertex 5.50000000000002 6.00000000000001 6.73205080756888
endloop
endfacet
facet normal 1.0 -0.0 -0.0
outer loop
vertex 5.50000000000002 7.85788383248866 6.65
vertex 5.50000000000002 6.00000000000001 6.73205080756888
vertex 5.50000000000002 6.4142135623731 6.41421356237309
endloop
endfacet
facet normal 1.0 -0.0 -0.0
outer loop
vertex 5.50000000000002 7.85788383248866 6.65
vertex 5.50000000000002 6.4142135623731 6.41421356237309
vertex 5.50000000000002 6.73205080756889 6.0
endloop
endfacet
facet normal 1.0 -0.0 -0.0
outer loop
vertex 5.50000000000002 7.85788383248866 6.65
vertex 5.50000000000002 6.73205080756889 6.0
vertex 5.50000000000002 6.93185165257815 5.51763809020504
endloop
endfacet
facet normal 1.0 -0.0 -0.0
outer loop
vertex 5.50000000000002 7.85788383248866 6.65
vertex 5.50000000000002 6.93185165257815 5.51763809020504
vertex 5.50000000000002 7.00000000000001 5.0
endloop
endfacet
facet normal 1.0 -0.0 -0.0
outer loop
vertex 5.50000000000002 7.85788383248866 6.65
vertex 5.50000000000002 7.00000000000001 5.0
vertex 5.50000000000002 7.85788383248866 3.35
endloop
endfacet
facet normal 0.0 0.5 -0.866025403784439
outer loop
vertex 8.50000000000002 5.00000000000001 8.3
vertex 5.50000000000002 2.14211616751136 6.65
vertex 5.50000000000002 5.00000000000001 8.3
endloop
endfacet
facet normal 0.0 0.5 -0.866025403784439
outer loop
vertex 5.50000000000002 2.14211616751136 6.65
vertex 8.50000000000002 5.00000000000001 8.3
vertex 8.50000000000002 2.14211616751136 6.65
endloop
endfacet
facet normal -0.0 1.0 8.54535297741787e-016
outer loop
vertex 5.50000000000002 2.14211616751136 6.65
vertex 8.50000000000002 2.14211616751136 3.35
vertex 5.50000000000002 2.14211616751136 3.35
endloop
endfacet
facet normal -0.0 1.0 8.54535297741787e-016
outer loop
vertex 8.50000000000002 2.14211616751136 3.35
vertex 5.50000000000002 2.14211616751136 6.65
vertex 8.50000000000002 2.14211616751136 6.65
endloop
endfacet
facet normal -0.0 0.5 0.866025403784439
outer loop
vertex 8.50000000000002 2.14211616751136 3.35
vertex 5.50000000000002 5.00000000000001 1.7
vertex 5.50000000000002 2.14211616751136 3.35
endloop
endfacet
facet normal -0.0 0.5 0.866025403784439
outer loop
vertex 5.50000000000002 5.00000000000001 1.7
vertex 8.50000000000002 2.14211616751136 3.35
vertex 8.50000000000002 5.00000000000001 1.7
endloop
endfacet
facet normal -0.0 -0.5 0.866025403784439
outer loop
vertex 8.50000000000002 5.00000000000001 1.7
vertex 5.50000000000002 7.85788383248866 3.35
vertex 5.50000000000002 5.00000000000001 1.7
endloop
endfacet
facet normal -0.0 -0.5 0.866025403784439
outer loop
vertex 5.50000000000002 7.85788383248866 3.35
vertex 8.50000000000002 5.00000000000001 1.7
vertex 8.50000000000002 7.85788383248866 3.35
endloop
endfacet
facet normal 0.0 -1.0 0.0
outer loop
vertex 8.50000000000002 7.85788383248866 6.65
vertex 5.50000000000002 7.85788383248866 3.35
vertex 8.50000000000002 7.85788383248866 3.35
endloop
endfacet
facet normal 0.0 -1.0 0.0
outer loop
vertex 5.50000000000002 7.85788383248866 3.35
vertex 8.50000000000002 7.85788383248866 6.65
vertex 5.50000000000002 7.85788383248866 6.65
endloop
endfacet
facet normal 0.0 -0.5 -0.866025403784439
outer loop
vertex 8.50000000000002 7.85788383248866 6.65
vertex 5.50000000000002 5.00000000000001 8.3
vertex 5.50000000000002 7.85788383248866 6.65
endloop
endfacet
facet normal 0.0 -0.5 -0.866025403784439
outer loop
vertex 5.50000000000002 5.00000000000001 8.3
vertex 8.50000000000002 7.85788383248866 6.65
vertex 8.50000000000002 5.00000000000001 8.3
endloop
endfacet
facet normal 0.0 0.0 -1.0
outer loop
vertex 0.0 30.0 0.0
vertex 8.72148212912107 20.6823237931664 0.0
vertex 0.0 -10.0 0.0
endloop
endfacet
facet normal 0.0 0.0 -1.0
outer loop
vertex 8.72148212912107 20.6823237931664 0.0
vertex 0.0 30.0 0.0
vertex 9.37083487540117 22.25 0.0
endloop
endfacet
facet normal 0.0 0.0 -1.0
outer loop
vertex 9.37083487540117 22.25 0.0
vertex 0.0 30.0 0.0
vertex 14.5 30.0 0.0
endloop
endfacet
facet normal 0.0 0.0 -1.0
outer loop
vertex 0.0 -10.0 0.0
vertex 8.72148212912107 20.6823237931664 0.0
vertex 8.7044450422656 20.5529142706151 0.0
endloop
endfacet
facet normal 0.0 0.0 -1.0
outer loop
vertex 0.0 -10.0 0.0
vertex 8.7044450422656 20.5529142706151 0.0
vertex 8.50000000000002 19.0 0.0
endloop
endfacet
facet normal 0.0 0.0 -1.0
outer loop
vertex 9.37083487540117 22.25 0.0
vertex 14.5 30.0 0.0
vertex 10.4038059222875 23.5961940777126 0.0
endloop
endfacet
facet normal 0.0 0.0 -1.0
outer loop
vertex 10.4038059222875 23.5961940777126 0.0
vertex 14.5 30.0 0.0
vertex 11.75 24.6291651245989 0.0
endloop
endfacet
facet normal 0.0 0.0 -1.0
outer loop
vertex 11.75 24.6291651245989 0.0
vertex 14.5 30.0 0.0
vertex 13.3176762068336 25.278517870879 0.0
endloop
endfacet
facet normal 0.0 0.0 -1.0
outer loop
vertex 13.3176762068336 25.278517870879 0.0
vertex 14.5 30.0 0.0
vertex 15.0 25.5 0.0
endloop
endfacet
facet normal 0.0 0.0 -1.0
outer loop
vertex 15.0 25.5 0.0
vertex 14.5 30.0 0.0
vertex 17.3470094961277 29.6251840891798 0.0
endloop
endfacet
facet normal 0.0 0.0 -1.0
outer loop
vertex 15.0 25.5 0.0
vertex 17.3470094961277 29.6251840891798 0.0
vertex 16.6823237931664 25.278517870879 0.0
endloop
endfacet
facet normal 0.0 0.0 -1.0
outer loop
vertex 16.6823237931664 25.278517870879 0.0
vertex 17.3470094961277 29.6251840891798 0.0
vertex 18.25 24.6291651245989 0.0
endloop
endfacet
facet normal 0.0 0.0 -1.0
outer loop
vertex 18.25 24.6291651245989 0.0
vertex 17.3470094961277 29.6251840891798 0.0
vertex 20.0 28.5262794416289 0.0
endloop
endfacet
facet normal 0.0 0.0 -1.0
outer loop
vertex 18.25 24.6291651245989 0.0
vertex 20.0 28.5262794416289 0.0
vertex 19.5961940777126 23.5961940777126 0.0
endloop
endfacet
facet normal 0.0 0.0 -1.0
outer loop
vertex 19.5961940777126 23.5961940777126 0.0
vertex 20.0 28.5262794416289 0.0
vertex 20.6291651245989 22.25 0.0
endloop
endfacet
facet normal 0.0 0.0 -1.0
outer loop
vertex 20.6291651245989 22.25 0.0
vertex 20.0 28.5262794416289 0.0
vertex 22.278174593052 26.7781745930521 0.0
endloop
endfacet
facet normal 0.0 0.0 -1.0
outer loop
vertex 20.6291651245989 22.25 0.0
vertex 22.278174593052 26.7781745930521 0.0
vertex 21.278517870879 20.6823237931664 0.0
endloop
endfacet
facet normal 0.0 0.0 -1.0
outer loop
vertex 21.278517870879 20.6823237931664 0.0
vertex 22.278174593052 26.7781745930521 0.0
vertex 21.5 19.0 0.0
endloop
endfacet
facet normal 0.0 0.0 -1.0
outer loop
vertex 21.5 19.0 0.0
vertex 22.278174593052 26.7781745930521 0.0
vertex 21.5 10.0 0.0
endloop
endfacet
facet normal 0.0 0.0 -1.0
outer loop
vertex 21.5 10.0 0.0
vertex 22.278174593052 26.7781745930521 0.0
vertex 25.5 10.0 0.0
endloop
endfacet
facet normal 0.0 0.0 -1.0
outer loop
vertex 25.5 10.0 0.0
vertex 22.278174593052 26.7781745930521 0.0
vertex 24.0262794416288 24.5 0.0
endloop
endfacet
facet normal 0.0 0.0 -1.0
outer loop
vertex 25.5 10.0 0.0
vertex 24.0262794416288 24.5 0.0
vertex 25.1251840891798 21.8470094961278 0.0
endloop
endfacet
facet normal 0.0 0.0 -1.0
outer loop
vertex 25.5 10.0 0.0
vertex 25.1251840891798 21.8470094961278 0.0
vertex 25.5 19.0 0.0
endloop
endfacet
facet normal 0.0 0.0 -1.0
outer loop
vertex 8.50000000000002 -10.0 0.0
vertex 0.0 -10.0 0.0
vertex 8.50000000000002 19.0 0.0
endloop
endfacet
facet normal 0.991444861373808 -0.130526192220072 -0.0
outer loop
vertex 8.72148212912107 20.6823237931664 0.0
vertex 8.7044450422656 20.5529142706151 20.0
vertex 8.7044450422656 20.5529142706151 0.0
endloop
endfacet
facet normal 0.991444861373808 -0.130526192220072 -0.0
outer loop
vertex 8.7044450422656 20.5529142706151 20.0
vertex 8.72148212912107 20.6823237931664 0.0
vertex 8.72148212912107 20.6823237931664 20.0
endloop
endfacet
facet normal 0.923879532511285 -0.382683432365094 -0.0
outer loop
vertex 9.37083487540117 22.25 0.0
vertex 8.72148212912107 20.6823237931664 20.0
vertex 8.72148212912107 20.6823237931664 0.0
endloop
endfacet
facet normal 0.923879532511285 -0.382683432365094 -0.0
outer loop
vertex 8.72148212912107 20.6823237931664 20.0
vertex 9.37083487540117 22.25 0.0
vertex 9.37083487540117 22.25 20.0
endloop
endfacet
facet normal 0.793353340291238 -0.608761429008717 -0.0
outer loop
vertex 10.4038059222875 23.5961940777126 0.0
vertex 9.37083487540117 22.25 20.0
vertex 9.37083487540117 22.25 0.0
endloop
endfacet
facet normal 0.793353340291238 -0.608761429008717 -0.0
outer loop
vertex 9.37083487540117 22.25 20.0
vertex 10.4038059222875 23.5961940777126 0.0
vertex 10.4038059222875 23.5961940777126 20.0
endloop
endfacet
facet normal 0.608761429008723 -0.793353340291233 0.0
outer loop
vertex 11.75 24.6291651245989 20.0
vertex 10.4038059222875 23.5961940777126 0.0
vertex 11.75 24.6291651245989 0.0
endloop
endfacet
facet normal 0.608761429008723 -0.793353340291233 0.0
outer loop
vertex 10.4038059222875 23.5961940777126 0.0
vertex 11.75 24.6291651245989 20.0
vertex 10.4038059222875 23.5961940777126 20.0
endloop
endfacet
facet normal 0.382683432365088 -0.923879532511288 0.0
outer loop
vertex 13.3176762068336 25.278517870879 20.0
vertex 11.75 24.6291651245989 0.0
vertex 13.3176762068336 25.278517870879 0.0
endloop
endfacet
facet normal 0.382683432365088 -0.923879532511288 0.0
outer loop
vertex 11.75 24.6291651245989 0.0
vertex 13.3176762068336 25.278517870879 20.0
vertex 11.75 24.6291651245989 20.0
endloop
endfacet
facet normal 0.130526192220054 -0.99144486137381 0.0
outer loop
vertex 15.0 25.5 20.0
vertex 13.3176762068336 25.278517870879 0.0
vertex 15.0 25.5 0.0
endloop
endfacet
facet normal 0.130526192220054 -0.99144486137381 0.0
outer loop
vertex 13.3176762068336 25.278517870879 0.0
vertex 15.0 25.5 20.0
vertex 13.3176762068336 25.278517870879 20.0
endloop
endfacet
facet normal -0.130526192220055 -0.99144486137381 0.0
outer loop
vertex 16.6823237931664 25.278517870879 20.0
vertex 15.0 25.5 0.0
vertex 16.6823237931664 25.278517870879 0.0
endloop
endfacet
facet normal -0.130526192220055 -0.99144486137381 0.0
outer loop
vertex 15.0 25.5 0.0
vertex 16.6823237931664 25.278517870879 20.0
vertex 15.0 25.5 20.0
endloop
endfacet
facet normal -0.382683432365095 -0.923879532511284 0.0
outer loop
vertex 18.25 24.6291651245989 20.0
vertex 16.6823237931664 25.278517870879 0.0
vertex 18.25 24.6291651245989 0.0
endloop
endfacet
facet normal -0.382683432365095 -0.923879532511284 0.0
outer loop
vertex 16.6823237931664 25.278517870879 0.0
vertex 18.25 24.6291651245989 20.0
vertex 16.6823237931664 25.278517870879 20.0
endloop
endfacet
facet normal -0.608761429008714 -0.79335334029124 0.0
outer loop
vertex 19.5961940777126 23.5961940777126 20.0
vertex 18.25 24.6291651245989 0.0
vertex 19.5961940777126 23.5961940777126 0.0
endloop
endfacet
facet normal -0.608761429008714 -0.79335334029124 0.0
outer loop
vertex 18.25 24.6291651245989 0.0
vertex 19.5961940777126 23.5961940777126 20.0
vertex 18.25 24.6291651245989 20.0
endloop
endfacet
facet normal -0.793353340291239 -0.608761429008715 0.0
outer loop
vertex 19.5961940777126 23.5961940777126 20.0
vertex 20.6291651245989 22.25 0.0
vertex 20.6291651245989 22.25 20.0
endloop
endfacet
facet normal -0.793353340291239 -0.608761429008715 0.0
outer loop
vertex 20.6291651245989 22.25 0.0
vertex 19.5961940777126 23.5961940777126 20.0
vertex 19.5961940777126 23.5961940777126 0.0
endloop
endfacet
facet normal -0.923879532511287 -0.382683432365089 0.0
outer loop
vertex 20.6291651245989 22.25 20.0
vertex 21.278517870879 20.6823237931664 0.0
vertex 21.278517870879 20.6823237931664 20.0
endloop
endfacet
facet normal -0.923879532511287 -0.382683432365089 0.0
outer loop
vertex 21.278517870879 20.6823237931664 0.0
vertex 20.6291651245989 22.25 20.0
vertex 20.6291651245989 22.25 0.0
endloop
endfacet
facet normal -0.99144486137381 -0.130526192220054 0.0
outer loop
vertex 21.278517870879 20.6823237931664 20.0
vertex 21.5 19.0 0.0
vertex 21.5 19.0 20.0
endloop
endfacet
facet normal -0.99144486137381 -0.130526192220054 0.0
outer loop
vertex 21.5 19.0 0.0
vertex 21.278517870879 20.6823237931664 20.0
vertex 21.278517870879 20.6823237931664 0.0
endloop
endfacet
facet normal -1.0 0.0 0.0
outer loop
vertex 21.5 19.0 20.0
vertex 21.5 10.0 0.0
vertex 21.5 10.0 20.0
endloop
endfacet
facet normal -1.0 0.0 0.0
outer loop
vertex 21.5 10.0 0.0
vertex 21.5 19.0 20.0
vertex 21.5 19.0 0.0
endloop
endfacet
endsolid RANGEMENT_PORTIQUE
