solid SUPPORT_ENDSTOP_Z
facet normal -1.0 0.0 0.0
outer loop
vertex 0.0 18.0 15.0
vertex 0.0 15.0 0.0
vertex 0.0 15.0 15.0
endloop
endfacet
facet normal -1.0 0.0 0.0
outer loop
vertex 0.0 15.0 0.0
vertex 0.0 18.0 15.0
vertex 0.0 18.0 0.0
endloop
endfacet
facet normal -0.0 1.0 -0.0
outer loop
vertex 0.0 18.0 0.0
vertex 8.0 18.0 5.5
vertex 54.9999999999999 18.0 0.0
endloop
endfacet
facet normal -0.0 1.0 -0.0
outer loop
vertex 8.0 18.0 5.5
vertex 0.0 18.0 0.0
vertex 7.48236190979495 18.0 5.56814834742187
endloop
endfacet
facet normal -0.0 1.0 -0.0
outer loop
vertex 7.48236190979495 18.0 5.56814834742187
vertex 0.0 18.0 0.0
vertex 7.0 18.0 5.76794919243113
endloop
endfacet
facet normal -0.0 1.0 -0.0
outer loop
vertex 7.0 18.0 5.76794919243113
vertex 0.0 18.0 0.0
vertex 6.5857864376269 18.0 6.08578643762691
endloop
endfacet
facet normal -0.0 1.0 -0.0
outer loop
vertex 6.5857864376269 18.0 6.08578643762691
vertex 0.0 18.0 0.0
vertex 6.26794919243113 18.0 6.5
endloop
endfacet
facet normal -0.0 1.0 -0.0
outer loop
vertex 6.26794919243113 18.0 6.5
vertex 0.0 18.0 0.0
vertex 0.0 18.0 15.0
endloop
endfacet
facet normal -0.0 1.0 -0.0
outer loop
vertex 6.26794919243113 18.0 6.5
vertex 0.0 18.0 15.0
vertex 6.06814834742188 18.0 6.98236190979496
endloop
endfacet
facet normal -0.0 1.0 -0.0
outer loop
vertex 6.06814834742188 18.0 6.98236190979496
vertex 0.0 18.0 15.0
vertex 6.0 18.0 7.5
endloop
endfacet
facet normal -0.0 1.0 -0.0
outer loop
vertex 6.0 18.0 7.5
vertex 0.0 18.0 15.0
vertex 6.06814834742188 18.0 8.01763809020504
endloop
endfacet
facet normal -0.0 1.0 -0.0
outer loop
vertex 6.06814834742188 18.0 8.01763809020504
vertex 0.0 18.0 15.0
vertex 6.26794919243113 18.0 8.5
endloop
endfacet
facet normal -0.0 1.0 -0.0
outer loop
vertex 6.26794919243113 18.0 8.5
vertex 0.0 18.0 15.0
vertex 6.5857864376269 18.0 8.9142135623731
endloop
endfacet
facet normal -0.0 1.0 -0.0
outer loop
vertex 6.5857864376269 18.0 8.9142135623731
vertex 0.0 18.0 15.0
vertex 7.0 18.0 9.23205080756888
endloop
endfacet
facet normal -0.0 1.0 -0.0
outer loop
vertex 7.0 18.0 9.23205080756888
vertex 0.0 18.0 15.0
vertex 7.48236190979495 18.0 9.43185165257814
endloop
endfacet
facet normal -0.0 1.0 -0.0
outer loop
vertex 7.48236190979495 18.0 9.43185165257814
vertex 0.0 18.0 15.0
vertex 8.0 18.0 9.5
endloop
endfacet
facet normal -0.0 1.0 -0.0
outer loop
vertex 54.9999999999999 18.0 0.0
vertex 8.51763809020504 18.0 5.56814834742187
vertex 54.9999999999999 18.0 15.0
endloop
endfacet
facet normal -0.0 1.0 -0.0
outer loop
vertex 8.51763809020504 18.0 5.56814834742187
vertex 54.9999999999999 18.0 0.0
vertex 8.0 18.0 5.5
endloop
endfacet
facet normal -0.0 1.0 -0.0
outer loop
vertex 54.9999999999999 18.0 15.0
vertex 8.51763809020504 18.0 5.56814834742187
vertex 8.99999999999999 18.0 5.76794919243113
endloop
endfacet
facet normal -0.0 1.0 -0.0
outer loop
vertex 54.9999999999999 18.0 15.0
vertex 8.99999999999999 18.0 5.76794919243113
vertex 9.4142135623731 18.0 6.08578643762691
endloop
endfacet
facet normal -0.0 1.0 -0.0
outer loop
vertex 54.9999999999999 18.0 15.0
vertex 9.4142135623731 18.0 6.08578643762691
vertex 9.73205080756889 18.0 6.5
endloop
endfacet
facet normal -0.0 1.0 -0.0
outer loop
vertex 54.9999999999999 18.0 15.0
vertex 9.73205080756889 18.0 6.5
vertex 9.93185165257814 18.0 6.98236190979496
endloop
endfacet
facet normal -0.0 1.0 -0.0
outer loop
vertex 54.9999999999999 18.0 15.0
vertex 9.93185165257814 18.0 6.98236190979496
vertex 9.99999999999999 18.0 7.5
endloop
endfacet
facet normal -0.0 1.0 -0.0
outer loop
vertex 54.9999999999999 18.0 15.0
vertex 9.99999999999999 18.0 7.5
vertex 9.93185165257814 18.0 8.01763809020504
endloop
endfacet
facet normal -0.0 1.0 -0.0
outer loop
vertex 54.9999999999999 18.0 15.0
vertex 9.93185165257814 18.0 8.01763809020504
vertex 9.73205080756889 18.0 8.5
endloop
endfacet
facet normal -0.0 1.0 -0.0
outer loop
vertex 54.9999999999999 18.0 15.0
vertex 9.73205080756889 18.0 8.5
vertex 9.4142135623731 18.0 8.9142135623731
endloop
endfacet
facet normal -0.0 1.0 -0.0
outer loop
vertex 54.9999999999999 18.0 15.0
vertex 9.4142135623731 18.0 8.9142135623731
vertex 8.99999999999999 18.0 9.23205080756888
endloop
endfacet
facet normal -0.0 1.0 -0.0
outer loop
vertex 54.9999999999999 18.0 15.0
vertex 8.99999999999999 18.0 9.23205080756888
vertex 8.51763809020504 18.0 9.43185165257814
endloop
endfacet
facet normal -0.0 1.0 -0.0
outer loop
vertex 54.9999999999999 18.0 15.0
vertex 8.51763809020504 18.0 9.43185165257814
vertex 8.0 18.0 9.5
endloop
endfacet
facet normal -0.0 1.0 -0.0
outer loop
vertex 54.9999999999999 18.0 15.0
vertex 8.0 18.0 9.5
vertex 0.0 18.0 15.0
endloop
endfacet
facet normal 1.0 -0.0 -0.0
outer loop
vertex 54.9999999999999 6.0 0.0
vertex 54.9999999999999 0.0 15.0
vertex 54.9999999999999 0.0 0.0
endloop
endfacet
facet normal 1.0 -0.0 -0.0
outer loop
vertex 54.9999999999999 0.0 15.0
vertex 54.9999999999999 6.0 0.0
vertex 54.9999999999999 6.0 15.0
endloop
endfacet
facet normal -0.0 -0.0 1.0
outer loop
vertex 54.9999999999999 0.0 15.0
vertex 0.0 3.0 15.0
vertex 0.0 0.0 15.0
endloop
endfacet
facet normal -0.0 -0.0 1.0
outer loop
vertex 0.0 3.0 15.0
vertex 54.9999999999999 0.0 15.0
vertex 15.0 3.0 15.0
endloop
endfacet
facet normal -0.0 -0.0 1.0
outer loop
vertex 15.0 3.0 15.0
vertex 54.9999999999999 0.0 15.0
vertex 16.5529142706151 3.20444504226559 15.0
endloop
endfacet
facet normal -0.0 -0.0 1.0
outer loop
vertex 16.5529142706151 3.20444504226559 15.0
vertex 54.9999999999999 0.0 15.0
vertex 18.0 3.80384757729337 15.0
endloop
endfacet
facet normal -0.0 -0.0 1.0
outer loop
vertex 18.0 3.80384757729337 15.0
vertex 54.9999999999999 0.0 15.0
vertex 19.2426406871193 4.75735931288071 15.0
endloop
endfacet
facet normal -0.0 -0.0 1.0
outer loop
vertex 19.2426406871193 4.75735931288071 15.0
vertex 54.9999999999999 0.0 15.0
vertex 20.1961524227066 6.0 15.0
endloop
endfacet
facet normal -0.0 -0.0 1.0
outer loop
vertex 20.1961524227066 6.0 15.0
vertex 54.9999999999999 0.0 15.0
vertex 25.0 6.0 15.0
endloop
endfacet
facet normal -0.0 -0.0 1.0
outer loop
vertex 20.1961524227066 6.0 15.0
vertex 25.0 6.0 15.0
vertex 20.7955549577344 7.44708572938487 15.0
endloop
endfacet
facet normal -0.0 -0.0 1.0
outer loop
vertex 20.7955549577344 7.44708572938487 15.0
vertex 25.0 6.0 15.0
vertex 21.0 9.0 15.0
endloop
endfacet
facet normal -0.0 -0.0 1.0
outer loop
vertex 25.0 6.0 15.0
vertex 54.9999999999999 0.0 15.0
vertex 54.9999999999999 6.0 15.0
endloop
endfacet
facet normal -0.0 -0.0 1.0
outer loop
vertex 15.0 15.0 15.0
vertex 0.0 18.0 15.0
vertex 0.0 15.0 15.0
endloop
endfacet
facet normal -0.0 -0.0 1.0
outer loop
vertex 0.0 18.0 15.0
vertex 15.0 15.0 15.0
vertex 54.9999999999999 18.0 15.0
endloop
endfacet
facet normal -0.0 -0.0 1.0
outer loop
vertex 54.9999999999999 18.0 15.0
vertex 15.0 15.0 15.0
vertex 16.5529142706151 14.7955549577344 15.0
endloop
endfacet
facet normal -0.0 -0.0 1.0
outer loop
vertex 54.9999999999999 18.0 15.0
vertex 16.5529142706151 14.7955549577344 15.0
vertex 18.0 14.1961524227066 15.0
endloop
endfacet
facet normal -0.0 -0.0 1.0
outer loop
vertex 54.9999999999999 18.0 15.0
vertex 18.0 14.1961524227066 15.0
vertex 19.2426406871193 13.2426406871193 15.0
endloop
endfacet
facet normal -0.0 -0.0 1.0
outer loop
vertex 54.9999999999999 18.0 15.0
vertex 19.2426406871193 13.2426406871193 15.0
vertex 20.1961524227066 12.0 15.0
endloop
endfacet
facet normal -0.0 -0.0 1.0
outer loop
vertex 54.9999999999999 18.0 15.0
vertex 20.1961524227066 12.0 15.0
vertex 25.0 12.0 15.0
endloop
endfacet
facet normal -0.0 -0.0 1.0
outer loop
vertex 25.0 12.0 15.0
vertex 20.1961524227066 12.0 15.0
vertex 20.7955549577344 10.5529142706151 15.0
endloop
endfacet
facet normal -0.0 -0.0 1.0
outer loop
vertex 25.0 12.0 15.0
vertex 20.7955549577344 10.5529142706151 15.0
vertex 21.0 9.0 15.0
endloop
endfacet
facet normal -0.0 -0.0 1.0
outer loop
vertex 25.0 12.0 15.0
vertex 21.0 9.0 15.0
vertex 25.0 6.0 15.0
endloop
endfacet
facet normal -0.0 -0.0 1.0
outer loop
vertex 54.9999999999999 18.0 15.0
vertex 25.0 12.0 15.0
vertex 54.9999999999999 12.0 15.0
endloop
endfacet
facet normal -0.130526192220053 -0.99144486137381 0.0
outer loop
vertex 16.5529142706151 14.7955549577344 15.0
vertex 15.0 15.0 0.0
vertex 16.5529142706151 14.7955549577344 0.0
endloop
endfacet
facet normal -0.130526192220053 -0.99144486137381 0.0
outer loop
vertex 15.0 15.0 0.0
vertex 16.5529142706151 14.7955549577344 15.0
vertex 15.0 15.0 15.0
endloop
endfacet
facet normal 0.0 -1.0 0.0
outer loop
vertex 15.0 15.0 0.0
vertex 8.99999999999999 15.0 5.76794919243113
vertex 0.0 15.0 0.0
endloop
endfacet
facet normal 0.0 -1.0 0.0
outer loop
vertex 8.99999999999999 15.0 5.76794919243113
vertex 15.0 15.0 0.0
vertex 9.4142135623731 15.0 6.08578643762691
endloop
endfacet
facet normal 0.0 -1.0 0.0
outer loop
vertex 9.4142135623731 15.0 6.08578643762691
vertex 15.0 15.0 0.0
vertex 9.73205080756889 15.0 6.5
endloop
endfacet
facet normal 0.0 -1.0 0.0
outer loop
vertex 9.73205080756889 15.0 6.5
vertex 15.0 15.0 0.0
vertex 15.0 15.0 15.0
endloop
endfacet
facet normal 0.0 -1.0 0.0
outer loop
vertex 0.0 15.0 0.0
vertex 8.99999999999999 15.0 5.76794919243113
vertex 8.51763809020504 15.0 5.56814834742187
endloop
endfacet
facet normal 0.0 -1.0 0.0
outer loop
vertex 0.0 15.0 0.0
vertex 8.51763809020504 15.0 5.56814834742187
vertex 8.0 15.0 5.5
endloop
endfacet
facet normal 0.0 -1.0 0.0
outer loop
vertex 9.73205080756889 15.0 6.5
vertex 15.0 15.0 15.0
vertex 9.93185165257814 15.0 6.98236190979496
endloop
endfacet
facet normal 0.0 -1.0 0.0
outer loop
vertex 9.93185165257814 15.0 6.98236190979496
vertex 15.0 15.0 15.0
vertex 9.99999999999999 15.0 7.5
endloop
endfacet
facet normal 0.0 -1.0 0.0
outer loop
vertex 9.99999999999999 15.0 7.5
vertex 15.0 15.0 15.0
vertex 9.93185165257814 15.0 8.01763809020504
endloop
endfacet
facet normal 0.0 -1.0 0.0
outer loop
vertex 9.93185165257814 15.0 8.01763809020504
vertex 15.0 15.0 15.0
vertex 9.73205080756889 15.0 8.5
endloop
endfacet
facet normal 0.0 -1.0 0.0
outer loop
vertex 9.73205080756889 15.0 8.5
vertex 15.0 15.0 15.0
vertex 9.4142135623731 15.0 8.9142135623731
endloop
endfacet
facet normal 0.0 -1.0 0.0
outer loop
vertex 9.4142135623731 15.0 8.9142135623731
vertex 15.0 15.0 15.0
vertex 8.99999999999999 15.0 9.23205080756888
endloop
endfacet
facet normal 0.0 -1.0 0.0
outer loop
vertex 8.99999999999999 15.0 9.23205080756888
vertex 15.0 15.0 15.0
vertex 8.51763809020504 15.0 9.43185165257814
endloop
endfacet
facet normal 0.0 -1.0 0.0
outer loop
vertex 8.51763809020504 15.0 9.43185165257814
vertex 15.0 15.0 15.0
vertex 8.0 15.0 9.5
endloop
endfacet
facet normal 0.0 -1.0 0.0
outer loop
vertex 0.0 15.0 0.0
vertex 6.26794919243113 15.0 6.5
vertex 0.0 15.0 15.0
endloop
endfacet
facet normal 0.0 -1.0 0.0
outer loop
vertex 6.26794919243113 15.0 6.5
vertex 0.0 15.0 0.0
vertex 6.5857864376269 15.0 6.08578643762691
endloop
endfacet
facet normal 0.0 -1.0 0.0
outer loop
vertex 6.5857864376269 15.0 6.08578643762691
vertex 0.0 15.0 0.0
vertex 7.0 15.0 5.76794919243113
endloop
endfacet
facet normal 0.0 -1.0 0.0
outer loop
vertex 7.0 15.0 5.76794919243113
vertex 0.0 15.0 0.0
vertex 7.48236190979495 15.0 5.56814834742187
endloop
endfacet
facet normal 0.0 -1.0 0.0
outer loop
vertex 7.48236190979495 15.0 5.56814834742187
vertex 0.0 15.0 0.0
vertex 8.0 15.0 5.5
endloop
endfacet
facet normal 0.0 -1.0 0.0
outer loop
vertex 0.0 15.0 15.0
vertex 6.26794919243113 15.0 6.5
vertex 6.06814834742188 15.0 6.98236190979496
endloop
endfacet
facet normal 0.0 -1.0 0.0
outer loop
vertex 0.0 15.0 15.0
vertex 6.06814834742188 15.0 6.98236190979496
vertex 6.0 15.0 7.5
endloop
endfacet
facet normal 0.0 -1.0 0.0
outer loop
vertex 0.0 15.0 15.0
vertex 6.0 15.0 7.5
vertex 6.06814834742188 15.0 8.01763809020504
endloop
endfacet
facet normal 0.0 -1.0 0.0
outer loop
vertex 0.0 15.0 15.0
vertex 6.06814834742188 15.0 8.01763809020504
vertex 6.26794919243113 15.0 8.5
endloop
endfacet
facet normal 0.0 -1.0 0.0
outer loop
vertex 0.0 15.0 15.0
vertex 6.26794919243113 15.0 8.5
vertex 6.5857864376269 15.0 8.9142135623731
endloop
endfacet
facet normal 0.0 -1.0 0.0
outer loop
vertex 0.0 15.0 15.0
vertex 6.5857864376269 15.0 8.9142135623731
vertex 7.0 15.0 9.23205080756888
endloop
endfacet
facet normal 0.0 -1.0 0.0
outer loop
vertex 0.0 15.0 15.0
vertex 7.0 15.0 9.23205080756888
vertex 7.48236190979495 15.0 9.43185165257814
endloop
endfacet
facet normal 0.0 -1.0 0.0
outer loop
vertex 0.0 15.0 15.0
vertex 7.48236190979495 15.0 9.43185165257814
vertex 8.0 15.0 9.5
endloop
endfacet
facet normal 0.0 -1.0 0.0
outer loop
vertex 0.0 15.0 15.0
vertex 8.0 15.0 9.5
vertex 15.0 15.0 15.0
endloop
endfacet
facet normal -0.0 1.0 -0.0
outer loop
vertex 0.0 3.0 0.0
vertex 7.0 3.0 5.76794919243112
vertex 15.0 3.0 0.0
endloop
endfacet
facet normal -0.0 1.0 -0.0
outer loop
vertex 7.0 3.0 5.76794919243112
vertex 0.0 3.0 0.0
vertex 6.5857864376269 3.0 6.08578643762691
endloop
endfacet
facet normal -0.0 1.0 -0.0
outer loop
vertex 6.5857864376269 3.0 6.08578643762691
vertex 0.0 3.0 0.0
vertex 6.26794919243113 3.0 6.5
endloop
endfacet
facet normal -0.0 1.0 -0.0
outer loop
vertex 6.26794919243113 3.0 6.5
vertex 0.0 3.0 0.0
vertex 0.0 3.0 15.0
endloop
endfacet
facet normal -0.0 1.0 -0.0
outer loop
vertex 15.0 3.0 0.0
vertex 7.0 3.0 5.76794919243112
vertex 7.48236190979495 3.0 5.56814834742186
endloop
endfacet
facet normal -0.0 1.0 -0.0
outer loop
vertex 15.0 3.0 0.0
vertex 7.48236190979495 3.0 5.56814834742186
vertex 8.0 3.0 5.5
endloop
endfacet
facet normal -0.0 1.0 -0.0
outer loop
vertex 6.26794919243113 3.0 6.5
vertex 0.0 3.0 15.0
vertex 6.06814834742188 3.0 6.98236190979496
endloop
endfacet
facet normal -0.0 1.0 -0.0
outer loop
vertex 6.06814834742188 3.0 6.98236190979496
vertex 0.0 3.0 15.0
vertex 6.0 3.0 7.5
endloop
endfacet
facet normal -0.0 1.0 -0.0
outer loop
vertex 6.0 3.0 7.5
vertex 0.0 3.0 15.0
vertex 6.06814834742188 3.0 8.01763809020504
endloop
endfacet
facet normal -0.0 1.0 -0.0
outer loop
vertex 6.06814834742188 3.0 8.01763809020504
vertex 0.0 3.0 15.0
vertex 6.26794919243113 3.0 8.5
endloop
endfacet
facet normal -0.0 1.0 -0.0
outer loop
vertex 6.26794919243113 3.0 8.5
vertex 0.0 3.0 15.0
vertex 6.5857864376269 3.0 8.91421356237309
endloop
endfacet
facet normal -0.0 1.0 -0.0
outer loop
vertex 6.5857864376269 3.0 8.91421356237309
vertex 0.0 3.0 15.0
vertex 7.0 3.0 9.23205080756888
endloop
endfacet
facet normal -0.0 1.0 -0.0
outer loop
vertex 7.0 3.0 9.23205080756888
vertex 0.0 3.0 15.0
vertex 7.48236190979495 3.0 9.43185165257814
endloop
endfacet
facet normal -0.0 1.0 -0.0
outer loop
vertex 7.48236190979495 3.0 9.43185165257814
vertex 0.0 3.0 15.0
vertex 8.0 3.0 9.5
endloop
endfacet
facet normal -0.0 1.0 -0.0
outer loop
vertex 15.0 3.0 0.0
vertex 9.73205080756889 3.0 6.5
vertex 15.0 3.0 15.0
endloop
endfacet
facet normal -0.0 1.0 -0.0
outer loop
vertex 9.73205080756889 3.0 6.5
vertex 15.0 3.0 0.0
vertex 9.4142135623731 3.0 6.08578643762691
endloop
endfacet
facet normal -0.0 1.0 -0.0
outer loop
vertex 9.4142135623731 3.0 6.08578643762691
vertex 15.0 3.0 0.0
vertex 8.99999999999999 3.0 5.76794919243112
endloop
endfacet
facet normal -0.0 1.0 -0.0
outer loop
vertex 8.99999999999999 3.0 5.76794919243112
vertex 15.0 3.0 0.0
vertex 8.51763809020504 3.0 5.56814834742186
endloop
endfacet
facet normal -0.0 1.0 -0.0
outer loop
vertex 8.51763809020504 3.0 5.56814834742186
vertex 15.0 3.0 0.0
vertex 8.0 3.0 5.5
endloop
endfacet
facet normal -0.0 1.0 -0.0
outer loop
vertex 15.0 3.0 15.0
vertex 9.73205080756889 3.0 6.5
vertex 9.93185165257814 3.0 6.98236190979496
endloop
endfacet
facet normal -0.0 1.0 -0.0
outer loop
vertex 15.0 3.0 15.0
vertex 9.93185165257814 3.0 6.98236190979496
vertex 9.99999999999999 3.0 7.5
endloop
endfacet
facet normal -0.0 1.0 -0.0
outer loop
vertex 15.0 3.0 15.0
vertex 9.99999999999999 3.0 7.5
vertex 9.93185165257814 3.0 8.01763809020504
endloop
endfacet
facet normal -0.0 1.0 -0.0
outer loop
vertex 15.0 3.0 15.0
vertex 9.93185165257814 3.0 8.01763809020504
vertex 9.73205080756889 3.0 8.5
endloop
endfacet
facet normal -0.0 1.0 -0.0
outer loop
vertex 15.0 3.0 15.0
vertex 9.73205080756889 3.0 8.5
vertex 9.4142135623731 3.0 8.91421356237309
endloop
endfacet
facet normal -0.0 1.0 -0.0
outer loop
vertex 15.0 3.0 15.0
vertex 9.4142135623731 3.0 8.91421356237309
vertex 8.99999999999999 3.0 9.23205080756888
endloop
endfacet
facet normal -0.0 1.0 -0.0
outer loop
vertex 15.0 3.0 15.0
vertex 8.99999999999999 3.0 9.23205080756888
vertex 8.51763809020504 3.0 9.43185165257814
endloop
endfacet
facet normal -0.0 1.0 -0.0
outer loop
vertex 15.0 3.0 15.0
vertex 8.51763809020504 3.0 9.43185165257814
vertex 8.0 3.0 9.5
endloop
endfacet
facet normal -0.0 1.0 -0.0
outer loop
vertex 15.0 3.0 15.0
vertex 8.0 3.0 9.5
vertex 0.0 3.0 15.0
endloop
endfacet
facet normal -0.130526192220053 0.99144486137381 -0.0
outer loop
vertex 15.0 3.0 15.0
vertex 16.5529142706151 3.20444504226559 0.0
vertex 15.0 3.0 0.0
endloop
endfacet
facet normal -0.130526192220053 0.99144486137381 -0.0
outer loop
vertex 16.5529142706151 3.20444504226559 0.0
vertex 15.0 3.0 15.0
vertex 16.5529142706151 3.20444504226559 15.0
endloop
endfacet
facet normal -0.382683432365089 0.923879532511287 -0.0
outer loop
vertex 16.5529142706151 3.20444504226559 15.0
vertex 18.0 3.80384757729337 0.0
vertex 16.5529142706151 3.20444504226559 0.0
endloop
endfacet
facet normal -0.382683432365089 0.923879532511287 -0.0
outer loop
vertex 18.0 3.80384757729337 0.0
vertex 16.5529142706151 3.20444504226559 15.0
vertex 18.0 3.80384757729337 15.0
endloop
endfacet
facet normal -0.608761429008723 0.793353340291233 -0.0
outer loop
vertex 18.0 3.80384757729337 15.0
vertex 19.2426406871193 4.75735931288071 0.0
vertex 18.0 3.80384757729337 0.0
endloop
endfacet
facet normal -0.608761429008723 0.793353340291233 -0.0
outer loop
vertex 19.2426406871193 4.75735931288071 0.0
vertex 18.0 3.80384757729337 15.0
vertex 19.2426406871193 4.75735931288071 15.0
endloop
endfacet
facet normal -0.793353340291233 0.608761429008723 0.0
outer loop
vertex 20.1961524227066 6.0 15.0
vertex 19.2426406871193 4.75735931288071 0.0
vertex 19.2426406871193 4.75735931288071 15.0
endloop
endfacet
facet normal -0.793353340291233 0.608761429008723 0.0
outer loop
vertex 19.2426406871193 4.75735931288071 0.0
vertex 20.1961524227066 6.0 15.0
vertex 20.1961524227066 6.0 0.0
endloop
endfacet
facet normal -0.923879532511285 0.382683432365094 0.0
outer loop
vertex 20.7955549577344 7.44708572938487 15.0
vertex 20.1961524227066 6.0 0.0
vertex 20.1961524227066 6.0 15.0
endloop
endfacet
facet normal -0.923879532511285 0.382683432365094 0.0
outer loop
vertex 20.1961524227066 6.0 0.0
vertex 20.7955549577344 7.44708572938487 15.0
vertex 20.7955549577344 7.44708572938487 0.0
endloop
endfacet
facet normal -0.991444861373811 0.130526192220045 0.0
outer loop
vertex 21.0 9.0 15.0
vertex 20.7955549577344 7.44708572938487 0.0
vertex 20.7955549577344 7.44708572938487 15.0
endloop
endfacet
facet normal -0.991444861373811 0.130526192220045 0.0
outer loop
vertex 20.7955549577344 7.44708572938487 0.0
vertex 21.0 9.0 15.0
vertex 21.0 9.0 0.0
endloop
endfacet
facet normal -0.991444861373811 -0.130526192220044 0.0
outer loop
vertex 20.7955549577344 10.5529142706151 15.0
vertex 21.0 9.0 0.0
vertex 21.0 9.0 15.0
endloop
endfacet
facet normal -0.991444861373811 -0.130526192220044 0.0
outer loop
vertex 21.0 9.0 0.0
vertex 20.7955549577344 10.5529142706151 15.0
vertex 20.7955549577344 10.5529142706151 0.0
endloop
endfacet
facet normal -0.923879532511285 -0.382683432365095 0.0
outer loop
vertex 20.1961524227066 12.0 15.0
vertex 20.7955549577344 10.5529142706151 0.0
vertex 20.7955549577344 10.5529142706151 15.0
endloop
endfacet
facet normal -0.923879532511285 -0.382683432365095 0.0
outer loop
vertex 20.7955549577344 10.5529142706151 0.0
vertex 20.1961524227066 12.0 15.0
vertex 20.1961524227066 12.0 0.0
endloop
endfacet
facet normal -0.793353340291233 -0.608761429008723 0.0
outer loop
vertex 19.2426406871193 13.2426406871193 15.0
vertex 20.1961524227066 12.0 0.0
vertex 20.1961524227066 12.0 15.0
endloop
endfacet
facet normal -0.793353340291233 -0.608761429008723 0.0
outer loop
vertex 20.1961524227066 12.0 0.0
vertex 19.2426406871193 13.2426406871193 15.0
vertex 19.2426406871193 13.2426406871193 0.0
endloop
endfacet
facet normal -0.608761429008724 -0.793353340291233 0.0
outer loop
vertex 19.2426406871193 13.2426406871193 15.0
vertex 18.0 14.1961524227066 0.0
vertex 19.2426406871193 13.2426406871193 0.0
endloop
endfacet
facet normal -0.608761429008724 -0.793353340291233 0.0
outer loop
vertex 18.0 14.1961524227066 0.0
vertex 19.2426406871193 13.2426406871193 15.0
vertex 18.0 14.1961524227066 15.0
endloop
endfacet
facet normal -0.382683432365087 -0.923879532511288 0.0
outer loop
vertex 18.0 14.1961524227066 15.0
vertex 16.5529142706151 14.7955549577344 0.0
vertex 18.0 14.1961524227066 0.0
endloop
endfacet
facet normal -0.382683432365087 -0.923879532511288 0.0
outer loop
vertex 16.5529142706151 14.7955549577344 0.0
vertex 18.0 14.1961524227066 15.0
vertex 16.5529142706151 14.7955549577344 15.0
endloop
endfacet
facet normal 0.0 -1.0 0.0
outer loop
vertex 54.9999999999999 12.0 0.0
vertex 50.517638090205 12.0 5.56814834742186
vertex 25.0 12.0 0.0
endloop
endfacet
facet normal 0.0 -1.0 0.0
outer loop
vertex 50.517638090205 12.0 5.56814834742186
vertex 54.9999999999999 12.0 0.0
vertex 50.9999999999999 12.0 5.76794919243112
endloop
endfacet
facet normal 0.0 -1.0 0.0
outer loop
vertex 50.9999999999999 12.0 5.76794919243112
vertex 54.9999999999999 12.0 0.0
vertex 51.414213562373 12.0 6.08578643762691
endloop
endfacet
facet normal 0.0 -1.0 0.0
outer loop
vertex 51.414213562373 12.0 6.08578643762691
vertex 54.9999999999999 12.0 0.0
vertex 51.7320508075688 12.0 6.5
endloop
endfacet
facet normal 0.0 -1.0 0.0
outer loop
vertex 51.7320508075688 12.0 6.5
vertex 54.9999999999999 12.0 0.0
vertex 51.9318516525781 12.0 6.98236190979496
endloop
endfacet
facet normal 0.0 -1.0 0.0
outer loop
vertex 51.9318516525781 12.0 6.98236190979496
vertex 54.9999999999999 12.0 0.0
vertex 54.9999999999999 12.0 15.0
endloop
endfacet
facet normal 0.0 -1.0 0.0
outer loop
vertex 25.0 12.0 0.0
vertex 50.517638090205 12.0 5.56814834742186
vertex 49.9999999999999 12.0 5.5
endloop
endfacet
facet normal 0.0 -1.0 0.0
outer loop
vertex 51.9318516525781 12.0 6.98236190979496
vertex 54.9999999999999 12.0 15.0
vertex 51.9999999999999 12.0 7.5
endloop
endfacet
facet normal 0.0 -1.0 0.0
outer loop
vertex 51.9999999999999 12.0 7.5
vertex 54.9999999999999 12.0 15.0
vertex 51.9318516525781 12.0 8.01763809020505
endloop
endfacet
facet normal 0.0 -1.0 0.0
outer loop
vertex 51.9318516525781 12.0 8.01763809020505
vertex 54.9999999999999 12.0 15.0
vertex 51.7320508075688 12.0 8.5
endloop
endfacet
facet normal 0.0 -1.0 0.0
outer loop
vertex 51.7320508075688 12.0 8.5
vertex 54.9999999999999 12.0 15.0
vertex 51.414213562373 12.0 8.9142135623731
endloop
endfacet
facet normal 0.0 -1.0 0.0
outer loop
vertex 51.414213562373 12.0 8.9142135623731
vertex 54.9999999999999 12.0 15.0
vertex 50.9999999999999 12.0 9.23205080756888
endloop
endfacet
facet normal 0.0 -1.0 0.0
outer loop
vertex 50.9999999999999 12.0 9.23205080756888
vertex 54.9999999999999 12.0 15.0
vertex 50.517638090205 12.0 9.43185165257814
endloop
endfacet
facet normal 0.0 -1.0 0.0
outer loop
vertex 50.517638090205 12.0 9.43185165257814
vertex 54.9999999999999 12.0 15.0
vertex 49.9999999999999 12.0 9.5
endloop
endfacet
facet normal 0.0 -1.0 0.0
outer loop
vertex 25.0 12.0 0.0
vertex 49.4823619097949 12.0 5.56814834742186
vertex 25.0 12.0 15.0
endloop
endfacet
facet normal 0.0 -1.0 0.0
outer loop
vertex 49.4823619097949 12.0 5.56814834742186
vertex 25.0 12.0 0.0
vertex 49.9999999999999 12.0 5.5
endloop
endfacet
facet normal 0.0 -1.0 0.0
outer loop
vertex 25.0 12.0 15.0
vertex 49.4823619097949 12.0 5.56814834742186
vertex 49.0 12.0 5.76794919243112
endloop
endfacet
facet normal 0.0 -1.0 0.0
outer loop
vertex 25.0 12.0 15.0
vertex 49.0 12.0 5.76794919243112
vertex 48.5857864376269 12.0 6.08578643762691
endloop
endfacet
facet normal 0.0 -1.0 0.0
outer loop
vertex 25.0 12.0 15.0
vertex 48.5857864376269 12.0 6.08578643762691
vertex 48.2679491924311 12.0 6.5
endloop
endfacet
facet normal 0.0 -1.0 0.0
outer loop
vertex 25.0 12.0 15.0
vertex 48.2679491924311 12.0 6.5
vertex 48.0681483474218 12.0 6.98236190979496
endloop
endfacet
facet normal 0.0 -1.0 0.0
outer loop
vertex 25.0 12.0 15.0
vertex 48.0681483474218 12.0 6.98236190979496
vertex 48.0 12.0 7.5
endloop
endfacet
facet normal 0.0 -1.0 0.0
outer loop
vertex 25.0 12.0 15.0
vertex 48.0 12.0 7.5
vertex 48.0681483474218 12.0 8.01763809020504
endloop
endfacet
facet normal 0.0 -1.0 0.0
outer loop
vertex 25.0 12.0 15.0
vertex 48.0681483474218 12.0 8.01763809020504
vertex 48.2679491924311 12.0 8.5
endloop
endfacet
facet normal 0.0 -1.0 0.0
outer loop
vertex 25.0 12.0 15.0
vertex 48.2679491924311 12.0 8.5
vertex 48.5857864376269 12.0 8.9142135623731
endloop
endfacet
facet normal 0.0 -1.0 0.0
outer loop
vertex 25.0 12.0 15.0
vertex 48.5857864376269 12.0 8.9142135623731
vertex 49.0 12.0 9.23205080756888
endloop
endfacet
facet normal 0.0 -1.0 0.0
outer loop
vertex 25.0 12.0 15.0
vertex 49.0 12.0 9.23205080756888
vertex 49.4823619097949 12.0 9.43185165257814
endloop
endfacet
facet normal 0.0 -1.0 0.0
outer loop
vertex 25.0 12.0 15.0
vertex 49.4823619097949 12.0 9.43185165257814
vertex 49.9999999999999 12.0 9.5
endloop
endfacet
facet normal 0.0 -1.0 0.0
outer loop
vertex 25.0 12.0 15.0
vertex 49.9999999999999 12.0 9.5
vertex 54.9999999999999 12.0 15.0
endloop
endfacet
facet normal 1.0 -0.0 -0.0
outer loop
vertex 25.0 12.0 0.0
vertex 25.0 6.0 15.0
vertex 25.0 6.0 0.0
endloop
endfacet
facet normal 1.0 -0.0 -0.0
outer loop
vertex 25.0 6.0 15.0
vertex 25.0 12.0 0.0
vertex 25.0 12.0 15.0
endloop
endfacet
facet normal -0.0 1.0 -0.0
outer loop
vertex 25.0 6.0 15.0
vertex 54.9999999999999 6.0 0.0
vertex 25.0 6.0 0.0
endloop
endfacet
facet normal -0.0 1.0 -0.0
outer loop
vertex 54.9999999999999 6.0 0.0
vertex 25.0 6.0 15.0
vertex 54.9999999999999 6.0 15.0
endloop
endfacet
facet normal 1.0 -0.0 -0.0
outer loop
vertex 54.9999999999999 18.0 0.0
vertex 54.9999999999999 12.0 15.0
vertex 54.9999999999999 12.0 0.0
endloop
endfacet
facet normal 1.0 -0.0 -0.0
outer loop
vertex 54.9999999999999 12.0 15.0
vertex 54.9999999999999 18.0 0.0
vertex 54.9999999999999 18.0 15.0
endloop
endfacet
facet normal 0.991444861373808 -0.0 -0.130526192220073
outer loop
vertex 6.0 18.0 7.5
vertex 6.06814834742188 15.0 8.01763809020504
vertex 6.0 15.0 7.5
endloop
endfacet
facet normal 0.991444861373808 -0.0 -0.130526192220073
outer loop
vertex 6.06814834742188 15.0 8.01763809020504
vertex 6.0 18.0 7.5
vertex 6.06814834742188 18.0 8.01763809020504
endloop
endfacet
facet normal 0.991444861373808 -0.0 0.130526192220073
outer loop
vertex 6.06814834742188 18.0 6.98236190979496
vertex 6.0 15.0 7.5
vertex 6.06814834742188 15.0 6.98236190979496
endloop
endfacet
facet normal 0.991444861373808 -0.0 0.130526192220073
outer loop
vertex 6.0 15.0 7.5
vertex 6.06814834742188 18.0 6.98236190979496
vertex 6.0 18.0 7.5
endloop
endfacet
facet normal 0.92387953251129 -0.0 0.382683432365082
outer loop
vertex 6.26794919243113 18.0 6.5
vertex 6.06814834742188 15.0 6.98236190979496
vertex 6.26794919243113 15.0 6.5
endloop
endfacet
facet normal 0.92387953251129 -0.0 0.382683432365082
outer loop
vertex 6.06814834742188 15.0 6.98236190979496
vertex 6.26794919243113 18.0 6.5
vertex 6.06814834742188 18.0 6.98236190979496
endloop
endfacet
facet normal 0.793353340291247 -0.0 0.608761429008705
outer loop
vertex 6.5857864376269 18.0 6.08578643762691
vertex 6.26794919243113 15.0 6.5
vertex 6.5857864376269 15.0 6.08578643762691
endloop
endfacet
facet normal 0.793353340291247 -0.0 0.608761429008705
outer loop
vertex 6.26794919243113 15.0 6.5
vertex 6.5857864376269 18.0 6.08578643762691
vertex 6.26794919243113 18.0 6.5
endloop
endfacet
facet normal 0.608761429008715 -0.0 0.793353340291239
outer loop
vertex 7.0 15.0 5.76794919243113
vertex 6.5857864376269 18.0 6.08578643762691
vertex 6.5857864376269 15.0 6.08578643762691
endloop
endfacet
facet normal 0.608761429008715 -0.0 0.793353340291239
outer loop
vertex 6.5857864376269 18.0 6.08578643762691
vertex 7.0 15.0 5.76794919243113
vertex 7.0 18.0 5.76794919243113
endloop
endfacet
facet normal 0.382683432365093 -0.0 0.923879532511286
outer loop
vertex 7.48236190979495 15.0 5.56814834742187
vertex 7.0 18.0 5.76794919243113
vertex 7.0 15.0 5.76794919243113
endloop
endfacet
facet normal 0.382683432365093 -0.0 0.923879532511286
outer loop
vertex 7.0 18.0 5.76794919243113
vertex 7.48236190979495 15.0 5.56814834742187
vertex 7.48236190979495 18.0 5.56814834742187
endloop
endfacet
facet normal 0.130526192220051 -0.0 0.99144486137381
outer loop
vertex 8.0 15.0 5.5
vertex 7.48236190979495 18.0 5.56814834742187
vertex 7.48236190979495 15.0 5.56814834742187
endloop
endfacet
facet normal 0.130526192220051 -0.0 0.99144486137381
outer loop
vertex 7.48236190979495 18.0 5.56814834742187
vertex 8.0 15.0 5.5
vertex 8.0 18.0 5.5
endloop
endfacet
facet normal -0.130526192220051 -0.0 0.99144486137381
outer loop
vertex 8.51763809020504 15.0 5.56814834742187
vertex 8.0 18.0 5.5
vertex 8.0 15.0 5.5
endloop
endfacet
facet normal -0.130526192220051 -0.0 0.99144486137381
outer loop
vertex 8.0 18.0 5.5
vertex 8.51763809020504 15.0 5.56814834742187
vertex 8.51763809020504 18.0 5.56814834742187
endloop
endfacet
facet normal -0.382683432365094 -0.0 0.923879532511285
outer loop
vertex 8.99999999999999 15.0 5.76794919243113
vertex 8.51763809020504 18.0 5.56814834742187
vertex 8.51763809020504 15.0 5.56814834742187
endloop
endfacet
facet normal -0.382683432365094 -0.0 0.923879532511285
outer loop
vertex 8.51763809020504 18.0 5.56814834742187
vertex 8.99999999999999 15.0 5.76794919243113
vertex 8.99999999999999 18.0 5.76794919243113
endloop
endfacet
facet normal -0.608761429008715 -0.0 0.793353340291239
outer loop
vertex 9.4142135623731 15.0 6.08578643762691
vertex 8.99999999999999 18.0 5.76794919243113
vertex 8.99999999999999 15.0 5.76794919243113
endloop
endfacet
facet normal -0.608761429008715 -0.0 0.793353340291239
outer loop
vertex 8.99999999999999 18.0 5.76794919243113
vertex 9.4142135623731 15.0 6.08578643762691
vertex 9.4142135623731 18.0 6.08578643762691
endloop
endfacet
facet normal -0.793353340291227 0.0 0.608761429008732
outer loop
vertex 9.73205080756889 18.0 6.5
vertex 9.4142135623731 15.0 6.08578643762691
vertex 9.73205080756889 15.0 6.5
endloop
endfacet
facet normal -0.793353340291227 0.0 0.608761429008732
outer loop
vertex 9.4142135623731 15.0 6.08578643762691
vertex 9.73205080756889 18.0 6.5
vertex 9.4142135623731 18.0 6.08578643762691
endloop
endfacet
facet normal -0.92387953251129 0.0 0.382683432365082
outer loop
vertex 9.93185165257814 18.0 6.98236190979496
vertex 9.73205080756889 15.0 6.5
vertex 9.93185165257814 15.0 6.98236190979496
endloop
endfacet
facet normal -0.92387953251129 0.0 0.382683432365082
outer loop
vertex 9.73205080756889 15.0 6.5
vertex 9.93185165257814 18.0 6.98236190979496
vertex 9.73205080756889 18.0 6.5
endloop
endfacet
facet normal -0.991444861373813 0.0 0.130526192220031
outer loop
vertex 9.99999999999999 18.0 7.5
vertex 9.93185165257814 15.0 6.98236190979496
vertex 9.99999999999999 15.0 7.5
endloop
endfacet
facet normal -0.991444861373813 0.0 0.130526192220031
outer loop
vertex 9.93185165257814 15.0 6.98236190979496
vertex 9.99999999999999 18.0 7.5
vertex 9.93185165257814 18.0 6.98236190979496
endloop
endfacet
facet normal -0.991444861373813 0.0 -0.130526192220031
outer loop
vertex 9.93185165257814 18.0 8.01763809020504
vertex 9.99999999999999 15.0 7.5
vertex 9.93185165257814 15.0 8.01763809020504
endloop
endfacet
facet normal -0.991444861373813 0.0 -0.130526192220031
outer loop
vertex 9.99999999999999 15.0 7.5
vertex 9.93185165257814 18.0 8.01763809020504
vertex 9.99999999999999 18.0 7.5
endloop
endfacet
facet normal -0.92387953251129 0.0 -0.382683432365082
outer loop
vertex 9.73205080756889 18.0 8.5
vertex 9.93185165257814 15.0 8.01763809020504
vertex 9.73205080756889 15.0 8.5
endloop
endfacet
facet normal -0.92387953251129 0.0 -0.382683432365082
outer loop
vertex 9.93185165257814 15.0 8.01763809020504
vertex 9.73205080756889 18.0 8.5
vertex 9.93185165257814 18.0 8.01763809020504
endloop
endfacet
facet normal -0.793353340291227 0.0 -0.608761429008732
outer loop
vertex 9.4142135623731 18.0 8.9142135623731
vertex 9.73205080756889 15.0 8.5
vertex 9.4142135623731 15.0 8.9142135623731
endloop
endfacet
facet normal -0.793353340291227 0.0 -0.608761429008732
outer loop
vertex 9.73205080756889 15.0 8.5
vertex 9.4142135623731 18.0 8.9142135623731
vertex 9.73205080756889 18.0 8.5
endloop
endfacet
facet normal -0.608761429008716 0.0 -0.793353340291239
outer loop
vertex 9.4142135623731 18.0 8.9142135623731
vertex 8.99999999999999 15.0 9.23205080756888
vertex 8.99999999999999 18.0 9.23205080756888
endloop
endfacet
facet normal -0.608761429008716 0.0 -0.793353340291239
outer loop
vertex 8.99999999999999 15.0 9.23205080756888
vertex 9.4142135623731 18.0 8.9142135623731
vertex 9.4142135623731 15.0 8.9142135623731
endloop
endfacet
facet normal -0.382683432365093 0.0 -0.923879532511286
outer loop
vertex 8.99999999999999 18.0 9.23205080756888
vertex 8.51763809020504 15.0 9.43185165257814
vertex 8.51763809020504 18.0 9.43185165257814
endloop
endfacet
facet normal -0.382683432365093 0.0 -0.923879532511286
outer loop
vertex 8.51763809020504 15.0 9.43185165257814
vertex 8.99999999999999 18.0 9.23205080756888
vertex 8.99999999999999 15.0 9.23205080756888
endloop
endfacet
facet normal -0.130526192220051 0.0 -0.99144486137381
outer loop
vertex 8.51763809020504 18.0 9.43185165257814
vertex 8.0 15.0 9.5
vertex 8.0 18.0 9.5
endloop
endfacet
facet normal -0.130526192220051 0.0 -0.99144486137381
outer loop
vertex 8.0 15.0 9.5
vertex 8.51763809020504 18.0 9.43185165257814
vertex 8.51763809020504 15.0 9.43185165257814
endloop
endfacet
facet normal 0.130526192220051 0.0 -0.99144486137381
outer loop
vertex 8.0 18.0 9.5
vertex 7.48236190979495 15.0 9.43185165257814
vertex 7.48236190979495 18.0 9.43185165257814
endloop
endfacet
facet normal 0.130526192220051 0.0 -0.99144486137381
outer loop
vertex 7.48236190979495 15.0 9.43185165257814
vertex 8.0 18.0 9.5
vertex 8.0 15.0 9.5
endloop
endfacet
facet normal 0.382683432365095 0.0 -0.923879532511285
outer loop
vertex 7.48236190979495 18.0 9.43185165257814
vertex 7.0 15.0 9.23205080756888
vertex 7.0 18.0 9.23205080756888
endloop
endfacet
facet normal 0.382683432365095 0.0 -0.923879532511285
outer loop
vertex 7.0 15.0 9.23205080756888
vertex 7.48236190979495 18.0 9.43185165257814
vertex 7.48236190979495 15.0 9.43185165257814
endloop
endfacet
facet normal 0.608761429008714 0.0 -0.79335334029124
outer loop
vertex 7.0 18.0 9.23205080756888
vertex 6.5857864376269 15.0 8.9142135623731
vertex 6.5857864376269 18.0 8.9142135623731
endloop
endfacet
facet normal 0.608761429008714 0.0 -0.79335334029124
outer loop
vertex 6.5857864376269 15.0 8.9142135623731
vertex 7.0 18.0 9.23205080756888
vertex 7.0 15.0 9.23205080756888
endloop
endfacet
facet normal 0.793353340291249 -0.0 -0.608761429008703
outer loop
vertex 6.26794919243113 18.0 8.5
vertex 6.5857864376269 15.0 8.9142135623731
vertex 6.26794919243113 15.0 8.5
endloop
endfacet
facet normal 0.793353340291249 -0.0 -0.608761429008703
outer loop
vertex 6.5857864376269 15.0 8.9142135623731
vertex 6.26794919243113 18.0 8.5
vertex 6.5857864376269 18.0 8.9142135623731
endloop
endfacet
facet normal 0.92387953251129 -0.0 -0.382683432365082
outer loop
vertex 6.06814834742188 18.0 8.01763809020504
vertex 6.26794919243113 15.0 8.5
vertex 6.06814834742188 15.0 8.01763809020504
endloop
endfacet
facet normal 0.92387953251129 -0.0 -0.382683432365082
outer loop
vertex 6.26794919243113 15.0 8.5
vertex 6.06814834742188 18.0 8.01763809020504
vertex 6.26794919243113 18.0 8.5
endloop
endfacet
facet normal -0.382683432365093 0.0 -0.923879532511286
outer loop
vertex 8.99999999999999 3.0 9.23205080756888
vertex 8.51763809020504 0.0 9.43185165257814
vertex 8.51763809020504 3.0 9.43185165257814
endloop
endfacet
facet normal -0.382683432365093 0.0 -0.923879532511286
outer loop
vertex 8.51763809020504 0.0 9.43185165257814
vertex 8.99999999999999 3.0 9.23205080756888
vertex 8.99999999999999 0.0 9.23205080756888
endloop
endfacet
facet normal -0.130526192220051 0.0 -0.99144486137381
outer loop
vertex 8.51763809020504 3.0 9.43185165257814
vertex 8.0 0.0 9.5
vertex 8.0 3.0 9.5
endloop
endfacet
facet normal -0.130526192220051 0.0 -0.99144486137381
outer loop
vertex 8.0 0.0 9.5
vertex 8.51763809020504 3.0 9.43185165257814
vertex 8.51763809020504 0.0 9.43185165257814
endloop
endfacet
facet normal 0.130526192220051 0.0 -0.99144486137381
outer loop
vertex 8.0 3.0 9.5
vertex 7.48236190979495 0.0 9.43185165257814
vertex 7.48236190979495 3.0 9.43185165257814
endloop
endfacet
facet normal 0.130526192220051 0.0 -0.99144486137381
outer loop
vertex 7.48236190979495 0.0 9.43185165257814
vertex 8.0 3.0 9.5
vertex 8.0 0.0 9.5
endloop
endfacet
facet normal 0.382683432365095 0.0 -0.923879532511285
outer loop
vertex 7.48236190979495 3.0 9.43185165257814
vertex 7.0 0.0 9.23205080756888
vertex 7.0 3.0 9.23205080756888
endloop
endfacet
facet normal 0.382683432365095 0.0 -0.923879532511285
outer loop
vertex 7.0 0.0 9.23205080756888
vertex 7.48236190979495 3.0 9.43185165257814
vertex 7.48236190979495 0.0 9.43185165257814
endloop
endfacet
facet normal 0.608761429008714 0.0 -0.79335334029124
outer loop
vertex 7.0 3.0 9.23205080756888
vertex 6.5857864376269 0.0 8.91421356237309
vertex 6.5857864376269 3.0 8.91421356237309
endloop
endfacet
facet normal 0.608761429008714 0.0 -0.79335334029124
outer loop
vertex 6.5857864376269 0.0 8.91421356237309
vertex 7.0 3.0 9.23205080756888
vertex 7.0 0.0 9.23205080756888
endloop
endfacet
facet normal 0.793353340291249 -0.0 -0.608761429008703
outer loop
vertex 6.26794919243113 3.0 8.5
vertex 6.5857864376269 0.0 8.91421356237309
vertex 6.26794919243113 0.0 8.5
endloop
endfacet
facet normal 0.793353340291249 -0.0 -0.608761429008703
outer loop
vertex 6.5857864376269 0.0 8.91421356237309
vertex 6.26794919243113 3.0 8.5
vertex 6.5857864376269 3.0 8.91421356237309
endloop
endfacet
facet normal 0.92387953251129 -0.0 -0.382683432365082
outer loop
vertex 6.06814834742188 3.0 8.01763809020504
vertex 6.26794919243113 0.0 8.5
vertex 6.06814834742188 0.0 8.01763809020504
endloop
endfacet
facet normal 0.92387953251129 -0.0 -0.382683432365082
outer loop
vertex 6.26794919243113 0.0 8.5
vertex 6.06814834742188 3.0 8.01763809020504
vertex 6.26794919243113 3.0 8.5
endloop
endfacet
facet normal 0.991444861373808 -0.0 -0.130526192220073
outer loop
vertex 6.0 3.0 7.5
vertex 6.06814834742188 0.0 8.01763809020504
vertex 6.0 0.0 7.5
endloop
endfacet
facet normal 0.991444861373808 -0.0 -0.130526192220073
outer loop
vertex 6.06814834742188 0.0 8.01763809020504
vertex 6.0 3.0 7.5
vertex 6.06814834742188 3.0 8.01763809020504
endloop
endfacet
facet normal 0.991444861373808 -0.0 0.130526192220073
outer loop
vertex 6.06814834742188 3.0 6.98236190979496
vertex 6.0 0.0 7.5
vertex 6.06814834742188 0.0 6.98236190979496
endloop
endfacet
facet normal 0.991444861373808 -0.0 0.130526192220073
outer loop
vertex 6.0 0.0 7.5
vertex 6.06814834742188 3.0 6.98236190979496
vertex 6.0 3.0 7.5
endloop
endfacet
facet normal 0.92387953251129 -0.0 0.382683432365082
outer loop
vertex 6.26794919243113 3.0 6.5
vertex 6.06814834742188 0.0 6.98236190979496
vertex 6.26794919243113 0.0 6.5
endloop
endfacet
facet normal 0.92387953251129 -0.0 0.382683432365082
outer loop
vertex 6.06814834742188 0.0 6.98236190979496
vertex 6.26794919243113 3.0 6.5
vertex 6.06814834742188 3.0 6.98236190979496
endloop
endfacet
facet normal 0.793353340291247 -0.0 0.608761429008705
outer loop
vertex 6.5857864376269 3.0 6.08578643762691
vertex 6.26794919243113 0.0 6.5
vertex 6.5857864376269 0.0 6.08578643762691
endloop
endfacet
facet normal 0.793353340291247 -0.0 0.608761429008705
outer loop
vertex 6.26794919243113 0.0 6.5
vertex 6.5857864376269 3.0 6.08578643762691
vertex 6.26794919243113 3.0 6.5
endloop
endfacet
facet normal 0.608761429008715 -0.0 0.793353340291239
outer loop
vertex 7.0 0.0 5.76794919243112
vertex 6.5857864376269 3.0 6.08578643762691
vertex 6.5857864376269 0.0 6.08578643762691
endloop
endfacet
facet normal 0.608761429008715 -0.0 0.793353340291239
outer loop
vertex 6.5857864376269 3.0 6.08578643762691
vertex 7.0 0.0 5.76794919243112
vertex 7.0 3.0 5.76794919243112
endloop
endfacet
facet normal 0.382683432365093 -0.0 0.923879532511286
outer loop
vertex 7.48236190979495 0.0 5.56814834742186
vertex 7.0 3.0 5.76794919243112
vertex 7.0 0.0 5.76794919243112
endloop
endfacet
facet normal 0.382683432365093 -0.0 0.923879532511286
outer loop
vertex 7.0 3.0 5.76794919243112
vertex 7.48236190979495 0.0 5.56814834742186
vertex 7.48236190979495 3.0 5.56814834742186
endloop
endfacet
facet normal 0.130526192220051 -0.0 0.99144486137381
outer loop
vertex 8.0 0.0 5.5
vertex 7.48236190979495 3.0 5.56814834742186
vertex 7.48236190979495 0.0 5.56814834742186
endloop
endfacet
facet normal 0.130526192220051 -0.0 0.99144486137381
outer loop
vertex 7.48236190979495 3.0 5.56814834742186
vertex 8.0 0.0 5.5
vertex 8.0 3.0 5.5
endloop
endfacet
facet normal -0.130526192220051 -0.0 0.99144486137381
outer loop
vertex 8.51763809020504 0.0 5.56814834742186
vertex 8.0 3.0 5.5
vertex 8.0 0.0 5.5
endloop
endfacet
facet normal -0.130526192220051 -0.0 0.99144486137381
outer loop
vertex 8.0 3.0 5.5
vertex 8.51763809020504 0.0 5.56814834742186
vertex 8.51763809020504 3.0 5.56814834742186
endloop
endfacet
facet normal -0.382683432365094 -0.0 0.923879532511285
outer loop
vertex 8.99999999999999 0.0 5.76794919243112
vertex 8.51763809020504 3.0 5.56814834742186
vertex 8.51763809020504 0.0 5.56814834742186
endloop
endfacet
facet normal -0.382683432365094 -0.0 0.923879532511285
outer loop
vertex 8.51763809020504 3.0 5.56814834742186
vertex 8.99999999999999 0.0 5.76794919243112
vertex 8.99999999999999 3.0 5.76794919243112
endloop
endfacet
facet normal -0.608761429008715 -0.0 0.793353340291239
outer loop
vertex 9.4142135623731 0.0 6.08578643762691
vertex 8.99999999999999 3.0 5.76794919243112
vertex 8.99999999999999 0.0 5.76794919243112
endloop
endfacet
facet normal -0.608761429008715 -0.0 0.793353340291239
outer loop
vertex 8.99999999999999 3.0 5.76794919243112
vertex 9.4142135623731 0.0 6.08578643762691
vertex 9.4142135623731 3.0 6.08578643762691
endloop
endfacet
facet normal -0.793353340291227 0.0 0.608761429008732
outer loop
vertex 9.73205080756889 3.0 6.5
vertex 9.4142135623731 0.0 6.08578643762691
vertex 9.73205080756889 0.0 6.5
endloop
endfacet
facet normal -0.793353340291227 0.0 0.608761429008732
outer loop
vertex 9.4142135623731 0.0 6.08578643762691
vertex 9.73205080756889 3.0 6.5
vertex 9.4142135623731 3.0 6.08578643762691
endloop
endfacet
facet normal -0.92387953251129 0.0 0.382683432365082
outer loop
vertex 9.93185165257814 3.0 6.98236190979496
vertex 9.73205080756889 0.0 6.5
vertex 9.93185165257814 0.0 6.98236190979496
endloop
endfacet
facet normal -0.92387953251129 0.0 0.382683432365082
outer loop
vertex 9.73205080756889 0.0 6.5
vertex 9.93185165257814 3.0 6.98236190979496
vertex 9.73205080756889 3.0 6.5
endloop
endfacet
facet normal -0.991444861373813 0.0 0.130526192220031
outer loop
vertex 9.99999999999999 3.0 7.5
vertex 9.93185165257814 0.0 6.98236190979496
vertex 9.99999999999999 0.0 7.5
endloop
endfacet
facet normal -0.991444861373813 0.0 0.130526192220031
outer loop
vertex 9.93185165257814 0.0 6.98236190979496
vertex 9.99999999999999 3.0 7.5
vertex 9.93185165257814 3.0 6.98236190979496
endloop
endfacet
facet normal -0.991444861373813 0.0 -0.130526192220031
outer loop
vertex 9.93185165257814 3.0 8.01763809020504
vertex 9.99999999999999 0.0 7.5
vertex 9.93185165257814 0.0 8.01763809020504
endloop
endfacet
facet normal -0.991444861373813 0.0 -0.130526192220031
outer loop
vertex 9.99999999999999 0.0 7.5
vertex 9.93185165257814 3.0 8.01763809020504
vertex 9.99999999999999 3.0 7.5
endloop
endfacet
facet normal -0.92387953251129 0.0 -0.382683432365082
outer loop
vertex 9.73205080756889 3.0 8.5
vertex 9.93185165257814 0.0 8.01763809020504
vertex 9.73205080756889 0.0 8.5
endloop
endfacet
facet normal -0.92387953251129 0.0 -0.382683432365082
outer loop
vertex 9.93185165257814 0.0 8.01763809020504
vertex 9.73205080756889 3.0 8.5
vertex 9.93185165257814 3.0 8.01763809020504
endloop
endfacet
facet normal -0.793353340291227 0.0 -0.608761429008732
outer loop
vertex 9.4142135623731 3.0 8.91421356237309
vertex 9.73205080756889 0.0 8.5
vertex 9.4142135623731 0.0 8.91421356237309
endloop
endfacet
facet normal -0.793353340291227 0.0 -0.608761429008732
outer loop
vertex 9.73205080756889 0.0 8.5
vertex 9.4142135623731 3.0 8.91421356237309
vertex 9.73205080756889 3.0 8.5
endloop
endfacet
facet normal -0.608761429008716 0.0 -0.793353340291239
outer loop
vertex 9.4142135623731 3.0 8.91421356237309
vertex 8.99999999999999 0.0 9.23205080756888
vertex 8.99999999999999 3.0 9.23205080756888
endloop
endfacet
facet normal -0.608761429008716 0.0 -0.793353340291239
outer loop
vertex 8.99999999999999 0.0 9.23205080756888
vertex 9.4142135623731 3.0 8.91421356237309
vertex 9.4142135623731 0.0 8.91421356237309
endloop
endfacet
facet normal 0.0 -1.0 0.0
outer loop
vertex 50.517638090205 15.0 5.56814834742186
vertex 49.4823619097949 15.0 5.56814834742186
vertex 49.9999999999999 15.0 5.5
endloop
endfacet
facet normal 0.0 -1.0 0.0
outer loop
vertex 49.4823619097949 15.0 5.56814834742186
vertex 50.517638090205 15.0 5.56814834742186
vertex 50.9999999999999 15.0 5.76794919243112
endloop
endfacet
facet normal 0.0 -1.0 0.0
outer loop
vertex 49.4823619097949 15.0 5.56814834742186
vertex 50.9999999999999 15.0 5.76794919243112
vertex 49.0 15.0 5.76794919243112
endloop
endfacet
facet normal 0.0 -1.0 0.0
outer loop
vertex 49.0 15.0 5.76794919243112
vertex 50.9999999999999 15.0 5.76794919243112
vertex 48.5857864376269 15.0 6.08578643762691
endloop
endfacet
facet normal 0.0 -1.0 0.0
outer loop
vertex 48.5857864376269 15.0 6.08578643762691
vertex 50.9999999999999 15.0 5.76794919243112
vertex 51.414213562373 15.0 6.08578643762691
endloop
endfacet
facet normal 0.0 -1.0 0.0
outer loop
vertex 48.5857864376269 15.0 6.08578643762691
vertex 51.414213562373 15.0 6.08578643762691
vertex 48.2679491924311 15.0 6.5
endloop
endfacet
facet normal 0.0 -1.0 0.0
outer loop
vertex 48.2679491924311 15.0 6.5
vertex 51.414213562373 15.0 6.08578643762691
vertex 51.7320508075688 15.0 6.5
endloop
endfacet
facet normal 0.0 -1.0 0.0
outer loop
vertex 48.2679491924311 15.0 6.5
vertex 51.7320508075688 15.0 6.5
vertex 48.0681483474218 15.0 6.98236190979496
endloop
endfacet
facet normal 0.0 -1.0 0.0
outer loop
vertex 48.0681483474218 15.0 6.98236190979496
vertex 51.7320508075688 15.0 6.5
vertex 51.9318516525781 15.0 6.98236190979496
endloop
endfacet
facet normal 0.0 -1.0 0.0
outer loop
vertex 48.0681483474218 15.0 6.98236190979496
vertex 51.9318516525781 15.0 6.98236190979496
vertex 48.0 15.0 7.5
endloop
endfacet
facet normal 0.0 -1.0 0.0
outer loop
vertex 48.0 15.0 7.5
vertex 51.9318516525781 15.0 6.98236190979496
vertex 51.9999999999999 15.0 7.5
endloop
endfacet
facet normal 0.0 -1.0 0.0
outer loop
vertex 48.0 15.0 7.5
vertex 51.9999999999999 15.0 7.5
vertex 51.9318516525781 15.0 8.01763809020505
endloop
endfacet
facet normal 0.0 -1.0 0.0
outer loop
vertex 48.0 15.0 7.5
vertex 51.9318516525781 15.0 8.01763809020505
vertex 48.0681483474218 15.0 8.01763809020504
endloop
endfacet
facet normal 0.0 -1.0 0.0
outer loop
vertex 48.0681483474218 15.0 8.01763809020504
vertex 51.9318516525781 15.0 8.01763809020505
vertex 48.2679491924311 15.0 8.5
endloop
endfacet
facet normal 0.0 -1.0 0.0
outer loop
vertex 48.2679491924311 15.0 8.5
vertex 51.9318516525781 15.0 8.01763809020505
vertex 51.7320508075688 15.0 8.5
endloop
endfacet
facet normal 0.0 -1.0 0.0
outer loop
vertex 48.2679491924311 15.0 8.5
vertex 51.7320508075688 15.0 8.5
vertex 48.5857864376269 15.0 8.9142135623731
endloop
endfacet
facet normal 0.0 -1.0 0.0
outer loop
vertex 48.5857864376269 15.0 8.9142135623731
vertex 51.7320508075688 15.0 8.5
vertex 51.414213562373 15.0 8.9142135623731
endloop
endfacet
facet normal 0.0 -1.0 0.0
outer loop
vertex 48.5857864376269 15.0 8.9142135623731
vertex 51.414213562373 15.0 8.9142135623731
vertex 49.0 15.0 9.23205080756888
endloop
endfacet
facet normal 0.0 -1.0 0.0
outer loop
vertex 49.0 15.0 9.23205080756888
vertex 51.414213562373 15.0 8.9142135623731
vertex 50.9999999999999 15.0 9.23205080756888
endloop
endfacet
facet normal 0.0 -1.0 0.0
outer loop
vertex 49.0 15.0 9.23205080756888
vertex 50.9999999999999 15.0 9.23205080756888
vertex 49.4823619097949 15.0 9.43185165257814
endloop
endfacet
facet normal 0.0 -1.0 0.0
outer loop
vertex 49.4823619097949 15.0 9.43185165257814
vertex 50.9999999999999 15.0 9.23205080756888
vertex 50.517638090205 15.0 9.43185165257814
endloop
endfacet
facet normal 0.0 -1.0 0.0
outer loop
vertex 49.4823619097949 15.0 9.43185165257814
vertex 50.517638090205 15.0 9.43185165257814
vertex 49.9999999999999 15.0 9.5
endloop
endfacet
facet normal -0.793353340291227 0.0 -0.608761429008732
outer loop
vertex 51.414213562373 15.0 8.9142135623731
vertex 51.7320508075688 12.0 8.5
vertex 51.414213562373 12.0 8.9142135623731
endloop
endfacet
facet normal -0.793353340291227 0.0 -0.608761429008732
outer loop
vertex 51.7320508075688 12.0 8.5
vertex 51.414213562373 15.0 8.9142135623731
vertex 51.7320508075688 15.0 8.5
endloop
endfacet
facet normal -0.608761429008716 0.0 -0.793353340291239
outer loop
vertex 51.414213562373 15.0 8.9142135623731
vertex 50.9999999999999 12.0 9.23205080756888
vertex 50.9999999999999 15.0 9.23205080756888
endloop
endfacet
facet normal -0.608761429008716 0.0 -0.793353340291239
outer loop
vertex 50.9999999999999 12.0 9.23205080756888
vertex 51.414213562373 15.0 8.9142135623731
vertex 51.414213562373 12.0 8.9142135623731
endloop
endfacet
facet normal -0.382683432365097 1.79510787261552e-018 -0.923879532511284
outer loop
vertex 50.9999999999999 15.0 9.23205080756888
vertex 50.517638090205 12.0 9.43185165257814
vertex 50.517638090205 15.0 9.43185165257814
endloop
endfacet
facet normal -0.382683432365097 1.79510787261552e-018 -0.923879532511284
outer loop
vertex 50.517638090205 12.0 9.43185165257814
vertex 50.9999999999999 15.0 9.23205080756888
vertex 50.9999999999999 12.0 9.23205080756888
endloop
endfacet
facet normal -0.130526192220052 -3.45990605563649e-031 -0.99144486137381
outer loop
vertex 50.517638090205 15.0 9.43185165257814
vertex 49.9999999999999 12.0 9.5
vertex 49.9999999999999 15.0 9.5
endloop
endfacet
facet normal -0.130526192220052 -3.45990605563649e-031 -0.99144486137381
outer loop
vertex 49.9999999999999 12.0 9.5
vertex 50.517638090205 15.0 9.43185165257814
vertex 50.517638090205 12.0 9.43185165257814
endloop
endfacet
facet normal 0.130526192220055 3.45990605563656e-031 -0.99144486137381
outer loop
vertex 49.9999999999999 15.0 9.5
vertex 49.4823619097949 12.0 9.43185165257814
vertex 49.4823619097949 15.0 9.43185165257814
endloop
endfacet
facet normal 0.130526192220055 3.45990605563656e-031 -0.99144486137381
outer loop
vertex 49.4823619097949 12.0 9.43185165257814
vertex 49.9999999999999 15.0 9.5
vertex 49.9999999999999 12.0 9.5
endloop
endfacet
facet normal 0.382683432365095 0.0 -0.923879532511285
outer loop
vertex 49.4823619097949 15.0 9.43185165257814
vertex 49.0 12.0 9.23205080756888
vertex 49.0 15.0 9.23205080756888
endloop
endfacet
facet normal 0.382683432365095 0.0 -0.923879532511285
outer loop
vertex 49.0 12.0 9.23205080756888
vertex 49.4823619097949 15.0 9.43185165257814
vertex 49.4823619097949 12.0 9.43185165257814
endloop
endfacet
facet normal 0.608761429008716 -3.08298815333789e-018 -0.793353340291239
outer loop
vertex 49.0 15.0 9.23205080756888
vertex 48.5857864376269 12.0 8.9142135623731
vertex 48.5857864376269 15.0 8.9142135623731
endloop
endfacet
facet normal 0.608761429008716 -3.08298815333789e-018 -0.793353340291239
outer loop
vertex 48.5857864376269 12.0 8.9142135623731
vertex 49.0 15.0 9.23205080756888
vertex 49.0 12.0 9.23205080756888
endloop
endfacet
facet normal 0.793353340291248 -0.0 -0.608761429008704
outer loop
vertex 48.2679491924311 15.0 8.5
vertex 48.5857864376269 12.0 8.9142135623731
vertex 48.2679491924311 12.0 8.5
endloop
endfacet
facet normal 0.793353340291248 -0.0 -0.608761429008704
outer loop
vertex 48.5857864376269 12.0 8.9142135623731
vertex 48.2679491924311 15.0 8.5
vertex 48.5857864376269 15.0 8.9142135623731
endloop
endfacet
facet normal 0.923879532511294 2.44896164888151e-030 -0.382683432365073
outer loop
vertex 48.0681483474218 15.0 8.01763809020504
vertex 48.2679491924311 12.0 8.5
vertex 48.0681483474218 12.0 8.01763809020504
endloop
endfacet
facet normal 0.923879532511294 2.44896164888151e-030 -0.382683432365073
outer loop
vertex 48.2679491924311 12.0 8.5
vertex 48.0681483474218 15.0 8.01763809020504
vertex 48.2679491924311 15.0 8.5
endloop
endfacet
facet normal 0.991444861373808 -1.01445518378289e-018 -0.130526192220073
outer loop
vertex 48.0 15.0 7.5
vertex 48.0681483474218 12.0 8.01763809020504
vertex 48.0 12.0 7.5
endloop
endfacet
facet normal 0.991444861373808 -1.01445518378289e-018 -0.130526192220073
outer loop
vertex 48.0681483474218 12.0 8.01763809020504
vertex 48.0 15.0 7.5
vertex 48.0681483474218 15.0 8.01763809020504
endloop
endfacet
facet normal 0.991444861373808 -0.0 0.130526192220073
outer loop
vertex 48.0681483474218 15.0 6.98236190979496
vertex 48.0 12.0 7.5
vertex 48.0681483474218 12.0 6.98236190979496
endloop
endfacet
facet normal 0.991444861373808 -0.0 0.130526192220073
outer loop
vertex 48.0 12.0 7.5
vertex 48.0681483474218 15.0 6.98236190979496
vertex 48.0 15.0 7.5
endloop
endfacet
facet normal 0.923879532511294 2.44896164888151e-030 0.382683432365073
outer loop
vertex 48.2679491924311 15.0 6.5
vertex 48.0681483474218 12.0 6.98236190979496
vertex 48.2679491924311 12.0 6.5
endloop
endfacet
facet normal 0.923879532511294 2.44896164888151e-030 0.382683432365073
outer loop
vertex 48.0681483474218 12.0 6.98236190979496
vertex 48.2679491924311 15.0 6.5
vertex 48.0681483474218 15.0 6.98236190979496
endloop
endfacet
facet normal 0.793353340291248 2.01708304559501e-031 0.608761429008704
outer loop
vertex 48.5857864376269 15.0 6.08578643762691
vertex 48.2679491924311 12.0 6.5
vertex 48.5857864376269 12.0 6.08578643762691
endloop
endfacet
facet normal 0.793353340291248 2.01708304559501e-031 0.608761429008704
outer loop
vertex 48.2679491924311 12.0 6.5
vertex 48.5857864376269 15.0 6.08578643762691
vertex 48.2679491924311 15.0 6.5
endloop
endfacet
facet normal 0.608761429008715 2.62871380414731e-031 0.793353340291239
outer loop
vertex 49.0 12.0 5.76794919243112
vertex 48.5857864376269 15.0 6.08578643762691
vertex 48.5857864376269 12.0 6.08578643762691
endloop
endfacet
facet normal 0.608761429008715 2.62871380414731e-031 0.793353340291239
outer loop
vertex 48.5857864376269 15.0 6.08578643762691
vertex 49.0 12.0 5.76794919243112
vertex 49.0 15.0 5.76794919243112
endloop
endfacet
facet normal 0.382683432365093 -1.79510787261451e-018 0.923879532511286
outer loop
vertex 49.4823619097949 12.0 5.56814834742186
vertex 49.0 15.0 5.76794919243112
vertex 49.0 12.0 5.76794919243112
endloop
endfacet
facet normal 0.382683432365093 -1.79510787261451e-018 0.923879532511286
outer loop
vertex 49.0 15.0 5.76794919243112
vertex 49.4823619097949 12.0 5.56814834742186
vertex 49.4823619097949 15.0 5.56814834742186
endloop
endfacet
facet normal 0.130526192220055 -3.45990605563656e-031 0.99144486137381
outer loop
vertex 49.9999999999999 12.0 5.5
vertex 49.4823619097949 15.0 5.56814834742186
vertex 49.4823619097949 12.0 5.56814834742186
endloop
endfacet
facet normal 0.130526192220055 -3.45990605563656e-031 0.99144486137381
outer loop
vertex 49.4823619097949 15.0 5.56814834742186
vertex 49.9999999999999 12.0 5.5
vertex 49.9999999999999 15.0 5.5
endloop
endfacet
facet normal -0.130526192220052 -3.45990605563649e-031 0.99144486137381
outer loop
vertex 50.517638090205 12.0 5.56814834742186
vertex 49.9999999999999 15.0 5.5
vertex 49.9999999999999 12.0 5.5
endloop
endfacet
facet normal -0.130526192220052 -3.45990605563649e-031 0.99144486137381
outer loop
vertex 49.9999999999999 15.0 5.5
vertex 50.517638090205 12.0 5.56814834742186
vertex 50.517638090205 15.0 5.56814834742186
endloop
endfacet
facet normal -0.382683432365098 -1.79510787261379e-018 0.923879532511284
outer loop
vertex 50.9999999999999 12.0 5.76794919243112
vertex 50.517638090205 15.0 5.56814834742186
vertex 50.517638090205 12.0 5.56814834742186
endloop
endfacet
facet normal -0.382683432365098 -1.79510787261379e-018 0.923879532511284
outer loop
vertex 50.517638090205 15.0 5.56814834742186
vertex 50.9999999999999 12.0 5.76794919243112
vertex 50.9999999999999 15.0 5.76794919243112
endloop
endfacet
facet normal -0.608761429008715 -2.62871380414731e-031 0.793353340291239
outer loop
vertex 51.414213562373 12.0 6.08578643762691
vertex 50.9999999999999 15.0 5.76794919243112
vertex 50.9999999999999 12.0 5.76794919243112
endloop
endfacet
facet normal -0.608761429008715 -2.62871380414731e-031 0.793353340291239
outer loop
vertex 50.9999999999999 15.0 5.76794919243112
vertex 51.414213562373 12.0 6.08578643762691
vertex 51.414213562373 15.0 6.08578643762691
endloop
endfacet
facet normal -0.793353340291228 -4.03416609119019e-031 0.60876142900873
outer loop
vertex 51.7320508075688 15.0 6.5
vertex 51.414213562373 12.0 6.08578643762691
vertex 51.7320508075688 12.0 6.5
endloop
endfacet
facet normal -0.793353340291228 -4.03416609119019e-031 0.60876142900873
outer loop
vertex 51.414213562373 12.0 6.08578643762691
vertex 51.7320508075688 15.0 6.5
vertex 51.414213562373 15.0 6.08578643762691
endloop
endfacet
facet normal -0.92387953251129 0.0 0.382683432365082
outer loop
vertex 51.9318516525781 15.0 6.98236190979496
vertex 51.7320508075688 12.0 6.5
vertex 51.9318516525781 12.0 6.98236190979496
endloop
endfacet
facet normal -0.92387953251129 0.0 0.382683432365082
outer loop
vertex 51.7320508075688 12.0 6.5
vertex 51.9318516525781 15.0 6.98236190979496
vertex 51.7320508075688 15.0 6.5
endloop
endfacet
facet normal -0.991444861373813 -1.01445518378256e-018 0.130526192220031
outer loop
vertex 51.9999999999999 15.0 7.5
vertex 51.9318516525781 12.0 6.98236190979496
vertex 51.9999999999999 12.0 7.5
endloop
endfacet
facet normal -0.991444861373813 -1.01445518378256e-018 0.130526192220031
outer loop
vertex 51.9318516525781 12.0 6.98236190979496
vertex 51.9999999999999 15.0 7.5
vertex 51.9318516525781 15.0 6.98236190979496
endloop
endfacet
facet normal -0.991444861373813 0.0 -0.13052619222003
outer loop
vertex 51.9318516525781 15.0 8.01763809020505
vertex 51.9999999999999 12.0 7.5
vertex 51.9318516525781 12.0 8.01763809020505
endloop
endfacet
facet normal -0.991444861373813 0.0 -0.13052619222003
outer loop
vertex 51.9999999999999 12.0 7.5
vertex 51.9318516525781 15.0 8.01763809020505
vertex 51.9999999999999 15.0 7.5
endloop
endfacet
facet normal -0.92387953251129 0.0 -0.382683432365082
outer loop
vertex 51.7320508075688 15.0 8.5
vertex 51.9318516525781 12.0 8.01763809020505
vertex 51.7320508075688 12.0 8.5
endloop
endfacet
facet normal -0.92387953251129 0.0 -0.382683432365082
outer loop
vertex 51.9318516525781 12.0 8.01763809020505
vertex 51.7320508075688 15.0 8.5
vertex 51.9318516525781 15.0 8.01763809020505
endloop
endfacet
facet normal 0.0 -1.0 0.0
outer loop
vertex 50.517638090205 3.0 5.56814834742186
vertex 49.4823619097949 3.0 5.56814834742186
vertex 49.9999999999999 3.0 5.5
endloop
endfacet
facet normal 0.0 -1.0 0.0
outer loop
vertex 49.4823619097949 3.0 5.56814834742186
vertex 50.517638090205 3.0 5.56814834742186
vertex 50.9999999999999 3.0 5.76794919243112
endloop
endfacet
facet normal 0.0 -1.0 0.0
outer loop
vertex 49.4823619097949 3.0 5.56814834742186
vertex 50.9999999999999 3.0 5.76794919243112
vertex 49.0 3.0 5.76794919243112
endloop
endfacet
facet normal 0.0 -1.0 0.0
outer loop
vertex 49.0 3.0 5.76794919243112
vertex 50.9999999999999 3.0 5.76794919243112
vertex 48.5857864376269 3.0 6.08578643762691
endloop
endfacet
facet normal 0.0 -1.0 0.0
outer loop
vertex 48.5857864376269 3.0 6.08578643762691
vertex 50.9999999999999 3.0 5.76794919243112
vertex 51.414213562373 3.0 6.08578643762691
endloop
endfacet
facet normal 0.0 -1.0 0.0
outer loop
vertex 48.5857864376269 3.0 6.08578643762691
vertex 51.414213562373 3.0 6.08578643762691
vertex 48.2679491924311 3.0 6.5
endloop
endfacet
facet normal 0.0 -1.0 0.0
outer loop
vertex 48.2679491924311 3.0 6.5
vertex 51.414213562373 3.0 6.08578643762691
vertex 51.7320508075688 3.0 6.5
endloop
endfacet
facet normal 0.0 -1.0 0.0
outer loop
vertex 48.2679491924311 3.0 6.5
vertex 51.7320508075688 3.0 6.5
vertex 48.0681483474218 3.0 6.98236190979496
endloop
endfacet
facet normal 0.0 -1.0 0.0
outer loop
vertex 48.0681483474218 3.0 6.98236190979496
vertex 51.7320508075688 3.0 6.5
vertex 51.9318516525781 3.0 6.98236190979496
endloop
endfacet
facet normal 0.0 -1.0 0.0
outer loop
vertex 48.0681483474218 3.0 6.98236190979496
vertex 51.9318516525781 3.0 6.98236190979496
vertex 48.0 3.0 7.5
endloop
endfacet
facet normal 0.0 -1.0 0.0
outer loop
vertex 48.0 3.0 7.5
vertex 51.9318516525781 3.0 6.98236190979496
vertex 51.9999999999999 3.0 7.5
endloop
endfacet
facet normal 0.0 -1.0 0.0
outer loop
vertex 48.0 3.0 7.5
vertex 51.9999999999999 3.0 7.5
vertex 51.9318516525781 3.0 8.01763809020504
endloop
endfacet
facet normal 0.0 -1.0 0.0
outer loop
vertex 48.0 3.0 7.5
vertex 51.9318516525781 3.0 8.01763809020504
vertex 48.0681483474218 3.0 8.01763809020504
endloop
endfacet
facet normal 0.0 -1.0 0.0
outer loop
vertex 48.0681483474218 3.0 8.01763809020504
vertex 51.9318516525781 3.0 8.01763809020504
vertex 48.2679491924311 3.0 8.5
endloop
endfacet
facet normal 0.0 -1.0 0.0
outer loop
vertex 48.2679491924311 3.0 8.5
vertex 51.9318516525781 3.0 8.01763809020504
vertex 51.7320508075688 3.0 8.5
endloop
endfacet
facet normal 0.0 -1.0 0.0
outer loop
vertex 48.2679491924311 3.0 8.5
vertex 51.7320508075688 3.0 8.5
vertex 48.5857864376269 3.0 8.91421356237309
endloop
endfacet
facet normal 0.0 -1.0 0.0
outer loop
vertex 48.5857864376269 3.0 8.91421356237309
vertex 51.7320508075688 3.0 8.5
vertex 51.414213562373 3.0 8.91421356237309
endloop
endfacet
facet normal 0.0 -1.0 0.0
outer loop
vertex 48.5857864376269 3.0 8.91421356237309
vertex 51.414213562373 3.0 8.91421356237309
vertex 50.9999999999999 3.0 9.23205080756888
endloop
endfacet
facet normal 0.0 -1.0 0.0
outer loop
vertex 48.5857864376269 3.0 8.91421356237309
vertex 50.9999999999999 3.0 9.23205080756888
vertex 49.0 3.0 9.23205080756888
endloop
endfacet
facet normal 0.0 -1.0 0.0
outer loop
vertex 49.0 3.0 9.23205080756888
vertex 50.9999999999999 3.0 9.23205080756888
vertex 49.4823619097949 3.0 9.43185165257814
endloop
endfacet
facet normal 0.0 -1.0 0.0
outer loop
vertex 49.4823619097949 3.0 9.43185165257814
vertex 50.9999999999999 3.0 9.23205080756888
vertex 50.517638090205 3.0 9.43185165257814
endloop
endfacet
facet normal 0.0 -1.0 0.0
outer loop
vertex 49.4823619097949 3.0 9.43185165257814
vertex 50.517638090205 3.0 9.43185165257814
vertex 49.9999999999999 3.0 9.5
endloop
endfacet
facet normal -0.608761429008716 0.0 -0.793353340291239
outer loop
vertex 51.414213562373 3.0 8.91421356237309
vertex 50.9999999999999 0.0 9.23205080756888
vertex 50.9999999999999 3.0 9.23205080756888
endloop
endfacet
facet normal -0.608761429008716 0.0 -0.793353340291239
outer loop
vertex 50.9999999999999 0.0 9.23205080756888
vertex 51.414213562373 3.0 8.91421356237309
vertex 51.414213562373 0.0 8.91421356237309
endloop
endfacet
facet normal -0.382683432365097 0.0 -0.923879532511284
outer loop
vertex 50.9999999999999 3.0 9.23205080756888
vertex 50.517638090205 0.0 9.43185165257814
vertex 50.517638090205 3.0 9.43185165257814
endloop
endfacet
facet normal -0.382683432365097 0.0 -0.923879532511284
outer loop
vertex 50.517638090205 0.0 9.43185165257814
vertex 50.9999999999999 3.0 9.23205080756888
vertex 50.9999999999999 0.0 9.23205080756888
endloop
endfacet
facet normal -0.130526192220052 0.0 -0.99144486137381
outer loop
vertex 50.517638090205 3.0 9.43185165257814
vertex 49.9999999999999 0.0 9.5
vertex 49.9999999999999 3.0 9.5
endloop
endfacet
facet normal -0.130526192220052 0.0 -0.99144486137381
outer loop
vertex 49.9999999999999 0.0 9.5
vertex 50.517638090205 3.0 9.43185165257814
vertex 50.517638090205 0.0 9.43185165257814
endloop
endfacet
facet normal 0.130526192220055 0.0 -0.99144486137381
outer loop
vertex 49.9999999999999 3.0 9.5
vertex 49.4823619097949 0.0 9.43185165257814
vertex 49.4823619097949 3.0 9.43185165257814
endloop
endfacet
facet normal 0.130526192220055 0.0 -0.99144486137381
outer loop
vertex 49.4823619097949 0.0 9.43185165257814
vertex 49.9999999999999 3.0 9.5
vertex 49.9999999999999 0.0 9.5
endloop
endfacet
facet normal 0.382683432365095 0.0 -0.923879532511285
outer loop
vertex 49.4823619097949 3.0 9.43185165257814
vertex 49.0 0.0 9.23205080756888
vertex 49.0 3.0 9.23205080756888
endloop
endfacet
facet normal 0.382683432365095 0.0 -0.923879532511285
outer loop
vertex 49.0 0.0 9.23205080756888
vertex 49.4823619097949 3.0 9.43185165257814
vertex 49.4823619097949 0.0 9.43185165257814
endloop
endfacet
facet normal 0.608761429008714 0.0 -0.79335334029124
outer loop
vertex 49.0 3.0 9.23205080756888
vertex 48.5857864376269 0.0 8.91421356237309
vertex 48.5857864376269 3.0 8.91421356237309
endloop
endfacet
facet normal 0.608761429008714 0.0 -0.79335334029124
outer loop
vertex 48.5857864376269 0.0 8.91421356237309
vertex 49.0 3.0 9.23205080756888
vertex 49.0 0.0 9.23205080756888
endloop
endfacet
facet normal 0.793353340291249 -0.0 -0.608761429008703
outer loop
vertex 48.2679491924311 3.0 8.5
vertex 48.5857864376269 0.0 8.91421356237309
vertex 48.2679491924311 0.0 8.5
endloop
endfacet
facet normal 0.793353340291249 -0.0 -0.608761429008703
outer loop
vertex 48.5857864376269 0.0 8.91421356237309
vertex 48.2679491924311 3.0 8.5
vertex 48.5857864376269 3.0 8.91421356237309
endloop
endfacet
facet normal 0.923879532511294 -0.0 -0.382683432365073
outer loop
vertex 48.0681483474218 3.0 8.01763809020504
vertex 48.2679491924311 0.0 8.5
vertex 48.0681483474218 0.0 8.01763809020504
endloop
endfacet
facet normal 0.923879532511294 -0.0 -0.382683432365073
outer loop
vertex 48.2679491924311 0.0 8.5
vertex 48.0681483474218 3.0 8.01763809020504
vertex 48.2679491924311 3.0 8.5
endloop
endfacet
facet normal 0.991444861373808 -0.0 -0.130526192220073
outer loop
vertex 48.0 3.0 7.5
vertex 48.0681483474218 0.0 8.01763809020504
vertex 48.0 0.0 7.5
endloop
endfacet
facet normal 0.991444861373808 -0.0 -0.130526192220073
outer loop
vertex 48.0681483474218 0.0 8.01763809020504
vertex 48.0 3.0 7.5
vertex 48.0681483474218 3.0 8.01763809020504
endloop
endfacet
facet normal 0.991444861373808 -0.0 0.130526192220073
outer loop
vertex 48.0681483474218 3.0 6.98236190979496
vertex 48.0 0.0 7.5
vertex 48.0681483474218 0.0 6.98236190979496
endloop
endfacet
facet normal 0.991444861373808 -0.0 0.130526192220073
outer loop
vertex 48.0 0.0 7.5
vertex 48.0681483474218 3.0 6.98236190979496
vertex 48.0 3.0 7.5
endloop
endfacet
facet normal 0.923879532511294 -0.0 0.382683432365073
outer loop
vertex 48.2679491924311 3.0 6.5
vertex 48.0681483474218 0.0 6.98236190979496
vertex 48.2679491924311 0.0 6.5
endloop
endfacet
facet normal 0.923879532511294 -0.0 0.382683432365073
outer loop
vertex 48.0681483474218 0.0 6.98236190979496
vertex 48.2679491924311 3.0 6.5
vertex 48.0681483474218 3.0 6.98236190979496
endloop
endfacet
facet normal 0.793353340291247 -0.0 0.608761429008705
outer loop
vertex 48.5857864376269 3.0 6.08578643762691
vertex 48.2679491924311 0.0 6.5
vertex 48.5857864376269 0.0 6.08578643762691
endloop
endfacet
facet normal 0.793353340291247 -0.0 0.608761429008705
outer loop
vertex 48.2679491924311 0.0 6.5
vertex 48.5857864376269 3.0 6.08578643762691
vertex 48.2679491924311 3.0 6.5
endloop
endfacet
facet normal 0.608761429008715 -0.0 0.793353340291239
outer loop
vertex 49.0 0.0 5.76794919243112
vertex 48.5857864376269 3.0 6.08578643762691
vertex 48.5857864376269 0.0 6.08578643762691
endloop
endfacet
facet normal 0.608761429008715 -0.0 0.793353340291239
outer loop
vertex 48.5857864376269 3.0 6.08578643762691
vertex 49.0 0.0 5.76794919243112
vertex 49.0 3.0 5.76794919243112
endloop
endfacet
facet normal 0.382683432365093 -0.0 0.923879532511286
outer loop
vertex 49.4823619097949 0.0 5.56814834742186
vertex 49.0 3.0 5.76794919243112
vertex 49.0 0.0 5.76794919243112
endloop
endfacet
facet normal 0.382683432365093 -0.0 0.923879532511286
outer loop
vertex 49.0 3.0 5.76794919243112
vertex 49.4823619097949 0.0 5.56814834742186
vertex 49.4823619097949 3.0 5.56814834742186
endloop
endfacet
facet normal 0.130526192220055 -0.0 0.99144486137381
outer loop
vertex 49.9999999999999 0.0 5.5
vertex 49.4823619097949 3.0 5.56814834742186
vertex 49.4823619097949 0.0 5.56814834742186
endloop
endfacet
facet normal 0.130526192220055 -0.0 0.99144486137381
outer loop
vertex 49.4823619097949 3.0 5.56814834742186
vertex 49.9999999999999 0.0 5.5
vertex 49.9999999999999 3.0 5.5
endloop
endfacet
facet normal -0.130526192220052 -0.0 0.99144486137381
outer loop
vertex 50.517638090205 0.0 5.56814834742186
vertex 49.9999999999999 3.0 5.5
vertex 49.9999999999999 0.0 5.5
endloop
endfacet
facet normal -0.130526192220052 -0.0 0.99144486137381
outer loop
vertex 49.9999999999999 3.0 5.5
vertex 50.517638090205 0.0 5.56814834742186
vertex 50.517638090205 3.0 5.56814834742186
endloop
endfacet
facet normal -0.382683432365098 -0.0 0.923879532511284
outer loop
vertex 50.9999999999999 0.0 5.76794919243112
vertex 50.517638090205 3.0 5.56814834742186
vertex 50.517638090205 0.0 5.56814834742186
endloop
endfacet
facet normal -0.382683432365098 -0.0 0.923879532511284
outer loop
vertex 50.517638090205 3.0 5.56814834742186
vertex 50.9999999999999 0.0 5.76794919243112
vertex 50.9999999999999 3.0 5.76794919243112
endloop
endfacet
facet normal -0.608761429008715 -0.0 0.793353340291239
outer loop
vertex 51.414213562373 0.0 6.08578643762691
vertex 50.9999999999999 3.0 5.76794919243112
vertex 50.9999999999999 0.0 5.76794919243112
endloop
endfacet
facet normal -0.608761429008715 -0.0 0.793353340291239
outer loop
vertex 50.9999999999999 3.0 5.76794919243112
vertex 51.414213562373 0.0 6.08578643762691
vertex 51.414213562373 3.0 6.08578643762691
endloop
endfacet
facet normal -0.793353340291227 0.0 0.608761429008732
outer loop
vertex 51.7320508075688 3.0 6.5
vertex 51.414213562373 0.0 6.08578643762691
vertex 51.7320508075688 0.0 6.5
endloop
endfacet
facet normal -0.793353340291227 0.0 0.608761429008732
outer loop
vertex 51.414213562373 0.0 6.08578643762691
vertex 51.7320508075688 3.0 6.5
vertex 51.414213562373 3.0 6.08578643762691
endloop
endfacet
facet normal -0.92387953251129 0.0 0.382683432365082
outer loop
vertex 51.9318516525781 3.0 6.98236190979496
vertex 51.7320508075688 0.0 6.5
vertex 51.9318516525781 0.0 6.98236190979496
endloop
endfacet
facet normal -0.92387953251129 0.0 0.382683432365082
outer loop
vertex 51.7320508075688 0.0 6.5
vertex 51.9318516525781 3.0 6.98236190979496
vertex 51.7320508075688 3.0 6.5
endloop
endfacet
facet normal -0.991444861373813 0.0 0.130526192220031
outer loop
vertex 51.9999999999999 3.0 7.5
vertex 51.9318516525781 0.0 6.98236190979496
vertex 51.9999999999999 0.0 7.5
endloop
endfacet
facet normal -0.991444861373813 0.0 0.130526192220031
outer loop
vertex 51.9318516525781 0.0 6.98236190979496
vertex 51.9999999999999 3.0 7.5
vertex 51.9318516525781 3.0 6.98236190979496
endloop
endfacet
facet normal -0.991444861373813 0.0 -0.130526192220031
outer loop
vertex 51.9318516525781 3.0 8.01763809020504
vertex 51.9999999999999 0.0 7.5
vertex 51.9318516525781 0.0 8.01763809020504
endloop
endfacet
facet normal -0.991444861373813 0.0 -0.130526192220031
outer loop
vertex 51.9999999999999 0.0 7.5
vertex 51.9318516525781 3.0 8.01763809020504
vertex 51.9999999999999 3.0 7.5
endloop
endfacet
facet normal -0.92387953251129 0.0 -0.382683432365082
outer loop
vertex 51.7320508075688 3.0 8.5
vertex 51.9318516525781 0.0 8.01763809020504
vertex 51.7320508075688 0.0 8.5
endloop
endfacet
facet normal -0.92387953251129 0.0 -0.382683432365082
outer loop
vertex 51.9318516525781 0.0 8.01763809020504
vertex 51.7320508075688 3.0 8.5
vertex 51.9318516525781 3.0 8.01763809020504
endloop
endfacet
facet normal -0.793353340291227 0.0 -0.608761429008732
outer loop
vertex 51.414213562373 3.0 8.91421356237309
vertex 51.7320508075688 0.0 8.5
vertex 51.414213562373 0.0 8.91421356237309
endloop
endfacet
facet normal -0.793353340291227 0.0 -0.608761429008732
outer loop
vertex 51.7320508075688 0.0 8.5
vertex 51.414213562373 3.0 8.91421356237309
vertex 51.7320508075688 3.0 8.5
endloop
endfacet
facet normal 0.0 0.0 -1.0
outer loop
vertex 54.9999999999999 18.0 0.0
vertex 0.0 15.0 0.0
vertex 0.0 18.0 0.0
endloop
endfacet
facet normal 0.0 0.0 -1.0
outer loop
vertex 0.0 15.0 0.0
vertex 54.9999999999999 18.0 0.0
vertex 15.0 15.0 0.0
endloop
endfacet
facet normal 0.0 0.0 -1.0
outer loop
vertex 15.0 15.0 0.0
vertex 54.9999999999999 18.0 0.0
vertex 16.5529142706151 14.7955549577344 0.0
endloop
endfacet
facet normal 0.0 0.0 -1.0
outer loop
vertex 16.5529142706151 14.7955549577344 0.0
vertex 54.9999999999999 18.0 0.0
vertex 18.0 14.1961524227066 0.0
endloop
endfacet
facet normal 0.0 0.0 -1.0
outer loop
vertex 18.0 14.1961524227066 0.0
vertex 54.9999999999999 18.0 0.0
vertex 19.2426406871193 13.2426406871193 0.0
endloop
endfacet
facet normal 0.0 0.0 -1.0
outer loop
vertex 19.2426406871193 13.2426406871193 0.0
vertex 54.9999999999999 18.0 0.0
vertex 20.1961524227066 12.0 0.0
endloop
endfacet
facet normal 0.0 0.0 -1.0
outer loop
vertex 20.1961524227066 12.0 0.0
vertex 54.9999999999999 18.0 0.0
vertex 25.0 12.0 0.0
endloop
endfacet
facet normal 0.0 0.0 -1.0
outer loop
vertex 20.1961524227066 12.0 0.0
vertex 25.0 12.0 0.0
vertex 20.7955549577344 10.5529142706151 0.0
endloop
endfacet
facet normal 0.0 0.0 -1.0
outer loop
vertex 20.7955549577344 10.5529142706151 0.0
vertex 25.0 12.0 0.0
vertex 21.0 9.0 0.0
endloop
endfacet
facet normal 0.0 0.0 -1.0
outer loop
vertex 25.0 12.0 0.0
vertex 54.9999999999999 18.0 0.0
vertex 54.9999999999999 12.0 0.0
endloop
endfacet
facet normal 0.0 0.0 -1.0
outer loop
vertex 15.0 3.0 0.0
vertex 0.0 0.0 0.0
vertex 0.0 3.0 0.0
endloop
endfacet
facet normal 0.0 0.0 -1.0
outer loop
vertex 0.0 0.0 0.0
vertex 15.0 3.0 0.0
vertex 54.9999999999999 0.0 0.0
endloop
endfacet
facet normal 0.0 0.0 -1.0
outer loop
vertex 54.9999999999999 0.0 0.0
vertex 15.0 3.0 0.0
vertex 16.5529142706151 3.20444504226559 0.0
endloop
endfacet
facet normal 0.0 0.0 -1.0
outer loop
vertex 54.9999999999999 0.0 0.0
vertex 16.5529142706151 3.20444504226559 0.0
vertex 18.0 3.80384757729337 0.0
endloop
endfacet
facet normal 0.0 0.0 -1.0
outer loop
vertex 54.9999999999999 0.0 0.0
vertex 18.0 3.80384757729337 0.0
vertex 19.2426406871193 4.75735931288071 0.0
endloop
endfacet
facet normal 0.0 0.0 -1.0
outer loop
vertex 54.9999999999999 0.0 0.0
vertex 19.2426406871193 4.75735931288071 0.0
vertex 20.1961524227066 6.0 0.0
endloop
endfacet
facet normal 0.0 0.0 -1.0
outer loop
vertex 54.9999999999999 0.0 0.0
vertex 20.1961524227066 6.0 0.0
vertex 25.0 6.0 0.0
endloop
endfacet
facet normal 0.0 0.0 -1.0
outer loop
vertex 25.0 6.0 0.0
vertex 20.1961524227066 6.0 0.0
vertex 20.7955549577344 7.44708572938487 0.0
endloop
endfacet
facet normal 0.0 0.0 -1.0
outer loop
vertex 25.0 6.0 0.0
vertex 20.7955549577344 7.44708572938487 0.0
vertex 21.0 9.0 0.0
endloop
endfacet
facet normal 0.0 0.0 -1.0
outer loop
vertex 25.0 6.0 0.0
vertex 21.0 9.0 0.0
vertex 25.0 12.0 0.0
endloop
endfacet
facet normal 0.0 0.0 -1.0
outer loop
vertex 54.9999999999999 0.0 0.0
vertex 25.0 6.0 0.0
vertex 54.9999999999999 6.0 0.0
endloop
endfacet
facet normal 0.0 -1.0 0.0
outer loop
vertex 54.9999999999999 0.0 0.0
vertex 49.9999999999999 0.0 5.5
vertex 0.0 0.0 0.0
endloop
endfacet
facet normal 0.0 -1.0 0.0
outer loop
vertex 49.9999999999999 0.0 5.5
vertex 54.9999999999999 0.0 0.0
vertex 50.517638090205 0.0 5.56814834742186
endloop
endfacet
facet normal 0.0 -1.0 0.0
outer loop
vertex 50.517638090205 0.0 5.56814834742186
vertex 54.9999999999999 0.0 0.0
vertex 50.9999999999999 0.0 5.76794919243112
endloop
endfacet
facet normal 0.0 -1.0 0.0
outer loop
vertex 50.9999999999999 0.0 5.76794919243112
vertex 54.9999999999999 0.0 0.0
vertex 51.414213562373 0.0 6.08578643762691
endloop
endfacet
facet normal 0.0 -1.0 0.0
outer loop
vertex 51.414213562373 0.0 6.08578643762691
vertex 54.9999999999999 0.0 0.0
vertex 51.7320508075688 0.0 6.5
endloop
endfacet
facet normal 0.0 -1.0 0.0
outer loop
vertex 51.7320508075688 0.0 6.5
vertex 54.9999999999999 0.0 0.0
vertex 51.9318516525781 0.0 6.98236190979496
endloop
endfacet
facet normal 0.0 -1.0 0.0
outer loop
vertex 51.9318516525781 0.0 6.98236190979496
vertex 54.9999999999999 0.0 0.0
vertex 54.9999999999999 0.0 15.0
endloop
endfacet
facet normal 0.0 -1.0 0.0
outer loop
vertex 51.9318516525781 0.0 6.98236190979496
vertex 54.9999999999999 0.0 15.0
vertex 51.9999999999999 0.0 7.5
endloop
endfacet
facet normal 0.0 -1.0 0.0
outer loop
vertex 51.9999999999999 0.0 7.5
vertex 54.9999999999999 0.0 15.0
vertex 51.9318516525781 0.0 8.01763809020504
endloop
endfacet
facet normal 0.0 -1.0 0.0
outer loop
vertex 51.9318516525781 0.0 8.01763809020504
vertex 54.9999999999999 0.0 15.0
vertex 51.7320508075688 0.0 8.5
endloop
endfacet
facet normal 0.0 -1.0 0.0
outer loop
vertex 51.7320508075688 0.0 8.5
vertex 54.9999999999999 0.0 15.0
vertex 51.414213562373 0.0 8.91421356237309
endloop
endfacet
facet normal 0.0 -1.0 0.0
outer loop
vertex 51.414213562373 0.0 8.91421356237309
vertex 54.9999999999999 0.0 15.0
vertex 50.9999999999999 0.0 9.23205080756888
endloop
endfacet
facet normal 0.0 -1.0 0.0
outer loop
vertex 50.9999999999999 0.0 9.23205080756888
vertex 54.9999999999999 0.0 15.0
vertex 50.517638090205 0.0 9.43185165257814
endloop
endfacet
facet normal 0.0 -1.0 0.0
outer loop
vertex 50.517638090205 0.0 9.43185165257814
vertex 54.9999999999999 0.0 15.0
vertex 49.9999999999999 0.0 9.5
endloop
endfacet
facet normal 0.0 -1.0 0.0
outer loop
vertex 49.9999999999999 0.0 9.5
vertex 54.9999999999999 0.0 15.0
vertex 8.0 0.0 9.5
endloop
endfacet
facet normal 0.0 -1.0 0.0
outer loop
vertex 0.0 0.0 0.0
vertex 6.26794919243113 0.0 6.5
vertex 0.0 0.0 15.0
endloop
endfacet
facet normal 0.0 -1.0 0.0
outer loop
vertex 6.26794919243113 0.0 6.5
vertex 0.0 0.0 0.0
vertex 6.5857864376269 0.0 6.08578643762691
endloop
endfacet
facet normal 0.0 -1.0 0.0
outer loop
vertex 6.5857864376269 0.0 6.08578643762691
vertex 0.0 0.0 0.0
vertex 7.0 0.0 5.76794919243112
endloop
endfacet
facet normal 0.0 -1.0 0.0
outer loop
vertex 7.0 0.0 5.76794919243112
vertex 0.0 0.0 0.0
vertex 7.48236190979495 0.0 5.56814834742186
endloop
endfacet
facet normal 0.0 -1.0 0.0
outer loop
vertex 7.48236190979495 0.0 5.56814834742186
vertex 0.0 0.0 0.0
vertex 8.0 0.0 5.5
endloop
endfacet
facet normal 0.0 -1.0 0.0
outer loop
vertex 8.0 0.0 5.5
vertex 0.0 0.0 0.0
vertex 49.9999999999999 0.0 5.5
endloop
endfacet
facet normal 0.0 -1.0 0.0
outer loop
vertex 0.0 0.0 15.0
vertex 6.26794919243113 0.0 6.5
vertex 6.06814834742188 0.0 6.98236190979496
endloop
endfacet
facet normal 0.0 -1.0 0.0
outer loop
vertex 0.0 0.0 15.0
vertex 6.06814834742188 0.0 6.98236190979496
vertex 6.0 0.0 7.5
endloop
endfacet
facet normal 0.0 -1.0 0.0
outer loop
vertex 0.0 0.0 15.0
vertex 6.0 0.0 7.5
vertex 6.06814834742188 0.0 8.01763809020504
endloop
endfacet
facet normal 0.0 -1.0 0.0
outer loop
vertex 0.0 0.0 15.0
vertex 6.06814834742188 0.0 8.01763809020504
vertex 6.26794919243113 0.0 8.5
endloop
endfacet
facet normal 0.0 -1.0 0.0
outer loop
vertex 0.0 0.0 15.0
vertex 6.26794919243113 0.0 8.5
vertex 6.5857864376269 0.0 8.91421356237309
endloop
endfacet
facet normal 0.0 -1.0 0.0
outer loop
vertex 0.0 0.0 15.0
vertex 6.5857864376269 0.0 8.91421356237309
vertex 7.0 0.0 9.23205080756888
endloop
endfacet
facet normal 0.0 -1.0 0.0
outer loop
vertex 0.0 0.0 15.0
vertex 7.0 0.0 9.23205080756888
vertex 7.48236190979495 0.0 9.43185165257814
endloop
endfacet
facet normal 0.0 -1.0 0.0
outer loop
vertex 0.0 0.0 15.0
vertex 7.48236190979495 0.0 9.43185165257814
vertex 8.0 0.0 9.5
endloop
endfacet
facet normal 0.0 -1.0 0.0
outer loop
vertex 0.0 0.0 15.0
vertex 8.0 0.0 9.5
vertex 54.9999999999999 0.0 15.0
endloop
endfacet
facet normal 0.0 -1.0 0.0
outer loop
vertex 49.4823619097949 0.0 5.56814834742186
vertex 8.0 0.0 5.5
vertex 49.9999999999999 0.0 5.5
endloop
endfacet
facet normal 0.0 -1.0 0.0
outer loop
vertex 8.0 0.0 5.5
vertex 49.4823619097949 0.0 5.56814834742186
vertex 8.51763809020504 0.0 5.56814834742186
endloop
endfacet
facet normal 0.0 -1.0 0.0
outer loop
vertex 8.51763809020504 0.0 5.56814834742186
vertex 49.4823619097949 0.0 5.56814834742186
vertex 49.0 0.0 5.76794919243112
endloop
endfacet
facet normal 0.0 -1.0 0.0
outer loop
vertex 8.51763809020504 0.0 5.56814834742186
vertex 49.0 0.0 5.76794919243112
vertex 8.99999999999999 0.0 5.76794919243112
endloop
endfacet
facet normal 0.0 -1.0 0.0
outer loop
vertex 8.99999999999999 0.0 5.76794919243112
vertex 49.0 0.0 5.76794919243112
vertex 48.5857864376269 0.0 6.08578643762691
endloop
endfacet
facet normal 0.0 -1.0 0.0
outer loop
vertex 8.99999999999999 0.0 5.76794919243112
vertex 48.5857864376269 0.0 6.08578643762691
vertex 9.4142135623731 0.0 6.08578643762691
endloop
endfacet
facet normal 0.0 -1.0 0.0
outer loop
vertex 9.4142135623731 0.0 6.08578643762691
vertex 48.5857864376269 0.0 6.08578643762691
vertex 48.2679491924311 0.0 6.5
endloop
endfacet
facet normal 0.0 -1.0 0.0
outer loop
vertex 9.4142135623731 0.0 6.08578643762691
vertex 48.2679491924311 0.0 6.5
vertex 9.73205080756889 0.0 6.5
endloop
endfacet
facet normal 0.0 -1.0 0.0
outer loop
vertex 9.73205080756889 0.0 6.5
vertex 48.2679491924311 0.0 6.5
vertex 48.0681483474218 0.0 6.98236190979496
endloop
endfacet
facet normal 0.0 -1.0 0.0
outer loop
vertex 9.73205080756889 0.0 6.5
vertex 48.0681483474218 0.0 6.98236190979496
vertex 9.93185165257814 0.0 6.98236190979496
endloop
endfacet
facet normal 0.0 -1.0 0.0
outer loop
vertex 9.93185165257814 0.0 6.98236190979496
vertex 48.0681483474218 0.0 6.98236190979496
vertex 48.0 0.0 7.5
endloop
endfacet
facet normal 0.0 -1.0 0.0
outer loop
vertex 9.93185165257814 0.0 6.98236190979496
vertex 48.0 0.0 7.5
vertex 9.99999999999999 0.0 7.5
endloop
endfacet
facet normal 0.0 -1.0 0.0
outer loop
vertex 9.99999999999999 0.0 7.5
vertex 48.0 0.0 7.5
vertex 48.0681483474218 0.0 8.01763809020504
endloop
endfacet
facet normal 0.0 -1.0 0.0
outer loop
vertex 9.99999999999999 0.0 7.5
vertex 48.0681483474218 0.0 8.01763809020504
vertex 9.93185165257814 0.0 8.01763809020504
endloop
endfacet
facet normal 0.0 -1.0 0.0
outer loop
vertex 9.93185165257814 0.0 8.01763809020504
vertex 48.0681483474218 0.0 8.01763809020504
vertex 48.2679491924311 0.0 8.5
endloop
endfacet
facet normal 0.0 -1.0 0.0
outer loop
vertex 9.93185165257814 0.0 8.01763809020504
vertex 48.2679491924311 0.0 8.5
vertex 9.73205080756889 0.0 8.5
endloop
endfacet
facet normal 0.0 -1.0 0.0
outer loop
vertex 9.73205080756889 0.0 8.5
vertex 48.2679491924311 0.0 8.5
vertex 48.5857864376269 0.0 8.91421356237309
endloop
endfacet
facet normal 0.0 -1.0 0.0
outer loop
vertex 9.73205080756889 0.0 8.5
vertex 48.5857864376269 0.0 8.91421356237309
vertex 9.4142135623731 0.0 8.91421356237309
endloop
endfacet
facet normal 0.0 -1.0 0.0
outer loop
vertex 9.4142135623731 0.0 8.91421356237309
vertex 48.5857864376269 0.0 8.91421356237309
vertex 49.0 0.0 9.23205080756888
endloop
endfacet
facet normal 0.0 -1.0 0.0
outer loop
vertex 9.4142135623731 0.0 8.91421356237309
vertex 49.0 0.0 9.23205080756888
vertex 8.99999999999999 0.0 9.23205080756888
endloop
endfacet
facet normal 0.0 -1.0 0.0
outer loop
vertex 8.99999999999999 0.0 9.23205080756888
vertex 49.0 0.0 9.23205080756888
vertex 49.4823619097949 0.0 9.43185165257814
endloop
endfacet
facet normal 0.0 -1.0 0.0
outer loop
vertex 8.99999999999999 0.0 9.23205080756888
vertex 49.4823619097949 0.0 9.43185165257814
vertex 8.51763809020504 0.0 9.43185165257814
endloop
endfacet
facet normal 0.0 -1.0 0.0
outer loop
vertex 8.51763809020504 0.0 9.43185165257814
vertex 49.4823619097949 0.0 9.43185165257814
vertex 49.9999999999999 0.0 9.5
endloop
endfacet
facet normal 0.0 -1.0 0.0
outer loop
vertex 8.51763809020504 0.0 9.43185165257814
vertex 49.9999999999999 0.0 9.5
vertex 8.0 0.0 9.5
endloop
endfacet
facet normal -1.0 0.0 0.0
outer loop
vertex 0.0 3.0 15.0
vertex 0.0 0.0 0.0
vertex 0.0 0.0 15.0
endloop
endfacet
facet normal -1.0 0.0 0.0
outer loop
vertex 0.0 0.0 0.0
vertex 0.0 3.0 15.0
vertex 0.0 3.0 0.0
endloop
endfacet
endsolid SUPPORT_ENDSTOP_Z
