solid OpenSCAD_Model
  facet normal -1 0 0
    outer loop
      vertex 0 0 0
      vertex 0 0 4
      vertex 0 15 0
    endloop
  endfacet
  facet normal -1 0 0
    outer loop
      vertex 0 15 0
      vertex 0 0 4
      vertex 0 15 4
    endloop
  endfacet
  facet normal 0 -1 0
    outer loop
      vertex 0 0 4
      vertex 0 0 0
      vertex 25 0 0
    endloop
  endfacet
  facet normal 0 -1 0
    outer loop
      vertex 15 0 2
      vertex 0 0 4
      vertex 25 0 0
    endloop
  endfacet
  facet normal 0 -1 0
    outer loop
      vertex 25 0 2
      vertex 15 0 2
      vertex 25 0 0
    endloop
  endfacet
  facet normal 0 -1 0
    outer loop
      vertex 15 0 2
      vertex 15 0 4
      vertex 0 0 4
    endloop
  endfacet
  facet normal 0 0 -1
    outer loop
      vertex 0 0 0
      vertex 0 15 0
      vertex 25 0 0
    endloop
  endfacet
  facet normal 0 0 -1
    outer loop
      vertex 25 0 0
      vertex 0 15 0
      vertex 25 15 0
    endloop
  endfacet
  facet normal 0 1 0
    outer loop
      vertex 0 15 0
      vertex 0 15 4
      vertex 25 15 0
    endloop
  endfacet
  facet normal 0 1 0
    outer loop
      vertex 15 15 2
      vertex 0 15 4
      vertex 15 15 4
    endloop
  endfacet
  facet normal 0 1 0
    outer loop
      vertex 25 15 0
      vertex 0 15 4
      vertex 15 15 2
    endloop
  endfacet
  facet normal 0 1 0
    outer loop
      vertex 25 15 2
      vertex 25 15 0
      vertex 15 15 2
    endloop
  endfacet
  facet normal 0 0 1
    outer loop
      vertex 0 15 4
      vertex 0 0 4
      vertex 15 0 4
    endloop
  endfacet
  facet normal 0 0 1
    outer loop
      vertex 15 15 4
      vertex 0 15 4
      vertex 15 0 4
    endloop
  endfacet
  facet normal 1 0 0
    outer loop
      vertex 15 15 2
      vertex 15 15 4
      vertex 15 0 4
    endloop
  endfacet
  facet normal 1 0 0
    outer loop
      vertex 15 0 2
      vertex 15 15 2
      vertex 15 0 4
    endloop
  endfacet
  facet normal 0 0 1
    outer loop
      vertex 25 0 2
      vertex 25 15 2
      vertex 15 15 2
    endloop
  endfacet
  facet normal 0 0 1
    outer loop
      vertex 15 0 2
      vertex 25 0 2
      vertex 15 15 2
    endloop
  endfacet
  facet normal 1 0 0
    outer loop
      vertex 25 0 2
      vertex 25 0 0
      vertex 25 15 0
    endloop
  endfacet
  facet normal 1 0 0
    outer loop
      vertex 25 15 2
      vertex 25 0 2
      vertex 25 15 0
    endloop
  endfacet
endsolid OpenSCAD_Model
