solid SUPPORT_ENDSTOP_Y
facet normal 5.95820890140537e-013 1.0 -2.45500225835728e-013
outer loop
vertex 11.9999999553263 29.9999999999935 3.0000001787597
vertex 20.000000000018 29.9999999999879 2.97937533150217e-007
vertex 12.000000000018 29.9999999999929 1.78759704647091e-007
endloop
endfacet
facet normal 5.95820890140537e-013 1.0 -2.45500225835728e-013
outer loop
vertex 20.000000000018 29.9999999999879 2.97937533150217e-007
vertex 11.9999999553263 29.9999999999935 3.0000001787597
vertex 17.9999999553263 29.9999999999902 3.00000026814307
endloop
endfacet
facet normal 5.95820890140537e-013 1.0 -2.45500225835728e-013
outer loop
vertex 20.000000000018 29.9999999999879 2.97937533150217e-007
vertex 17.9999999553263 29.9999999999902 3.00000026814307
vertex 19.9999998510457 29.9999999999903 10.0000002979375
endloop
endfacet
facet normal 5.95820890140537e-013 1.0 -2.45500225835728e-013
outer loop
vertex 19.9999998510457 29.9999999999903 10.0000002979375
vertex 17.9999999553263 29.9999999999902 3.00000026814307
vertex 17.9999998510457 29.999999999992 10.0000002681431
endloop
endfacet
facet normal 1.0 -5.99742474407974e-013 1.48972285541763e-008
outer loop
vertex 19.9999998957194 -1.03549169239159e-011 7.00000029794457
vertex 19.9999999553143 9.99999999998869 3.00000029794222
vertex 19.9999998957254 9.99999999998972 7.00000029794222
endloop
endfacet
facet normal 1.0 -5.99742474407974e-013 1.48972285541763e-008
outer loop
vertex 19.9999998510397 19.9999999999903 10.0000002979399
vertex 20.000000000018 29.9999999999879 2.97937533150217e-007
vertex 19.9999998510457 29.9999999999903 10.0000002979375
endloop
endfacet
facet normal 1.0 -5.99742474407974e-013 1.48972285541763e-008
outer loop
vertex 20.000000000018 29.9999999999879 2.97937533150217e-007
vertex 19.9999998510397 19.9999999999903 10.0000002979399
vertex 19.9999999553203 19.9999999999887 3.00000029793987
endloop
endfacet
facet normal 1.0 -5.99742474407974e-013 1.48972285541763e-008
outer loop
vertex 20.000000000018 29.9999999999879 2.97937533150217e-007
vertex 19.9999999553203 19.9999999999887 3.00000029793987
vertex 20.0 -1.20863763442003e-011 2.97944570376574e-007
endloop
endfacet
facet normal 1.0 -5.99742474407974e-013 1.48972285541763e-008
outer loop
vertex 20.0 -1.20863763442003e-011 2.97944570376574e-007
vertex 19.9999999553203 19.9999999999887 3.00000029793987
vertex 19.9999999553143 9.99999999998869 3.00000029794222
endloop
endfacet
facet normal 1.0 -5.99742474407974e-013 1.48972285541763e-008
outer loop
vertex 20.0 -1.20863763442003e-011 2.97944570376574e-007
vertex 19.9999999553143 9.99999999998869 3.00000029794222
vertex 19.9999998957194 -1.03549169239159e-011 7.00000029794457
endloop
endfacet
facet normal -1.0 5.99742474407974e-013 -1.48972285541763e-008
outer loop
vertex 1.80111259240334e-011 29.9999999999999 -7.03793134881892e-012
vertex -4.46796702080476e-008 20.0000000000007 2.9999999999953
vertex -1.48954278644808e-007 30.0000000000023 9.99999999999296
endloop
endfacet
facet normal -1.0 5.99742474407974e-013 -1.48972285541763e-008
outer loop
vertex -4.46796702080476e-008 20.0000000000007 2.9999999999953
vertex 1.80111259240334e-011 29.9999999999999 -7.03793134881892e-012
vertex 1.97397653778353e-014 0.0 -7.04991620636974e-016
endloop
endfacet
facet normal -1.0 5.99742474407974e-013 -1.48972285541763e-008
outer loop
vertex -4.46796702080476e-008 20.0000000000007 2.9999999999953
vertex 1.97397653778353e-014 0.0 -7.04991620636974e-016
vertex -4.4685668276756e-008 10.0000000000007 2.99999999999765
endloop
endfacet
facet normal -1.0 5.99742474407974e-013 -1.48972285541763e-008
outer loop
vertex -4.4685668276756e-008 10.0000000000007 2.99999999999765
vertex 1.97397653778353e-014 0.0 -7.04991620636974e-016
vertex -1.04280581125771e-007 1.73145942028441e-012 7.0
endloop
endfacet
facet normal -1.0 5.99742474407974e-013 -1.48972285541763e-008
outer loop
vertex -1.04280581125771e-007 1.73145942028441e-012 7.0
vertex -1.04274583057062e-007 10.0000000000017 6.99999999999765
vertex -4.4685668276756e-008 10.0000000000007 2.99999999999765
endloop
endfacet
facet normal -1.0 5.99742474407974e-013 -1.48972285541763e-008
outer loop
vertex -1.48960271073584e-007 20.0000000000023 9.99999999999531
vertex -1.48954278644808e-007 30.0000000000023 9.99999999999296
vertex -4.46796702080476e-008 20.0000000000007 2.9999999999953
endloop
endfacet
facet normal 6.04191057396708e-013 1.0 -2.34619543922972e-013
outer loop
vertex 1.80111259240334e-011 29.9999999999999 -7.03793134881892e-012
vertex 1.99999995532633 29.9999999999997 3.00000002978741
vertex 12.000000000018 29.9999999999929 1.78759704647091e-007
endloop
endfacet
facet normal 6.04191057396708e-013 1.0 -2.34619543922972e-013
outer loop
vertex 1.99999995532633 29.9999999999997 3.00000002978741
vertex 1.80111259240334e-011 29.9999999999999 -7.03793134881892e-012
vertex -1.48954278644808e-007 30.0000000000023 9.99999999999296
endloop
endfacet
facet normal 6.04191057396708e-013 1.0 -2.34619543922972e-013
outer loop
vertex 1.99999995532633 29.9999999999997 3.00000002978741
vertex -1.48954278644808e-007 30.0000000000023 9.99999999999296
vertex 1.99999985104573 30.0000000000014 10.0000000297874
endloop
endfacet
facet normal 6.04191057396708e-013 1.0 -2.34619543922972e-013
outer loop
vertex 11.9999999553263 29.9999999999935 3.0000001787597
vertex 12.000000000018 29.9999999999929 1.78759704647091e-007
vertex 1.99999995532633 29.9999999999997 3.00000002978741
endloop
endfacet
facet normal -1.48972285541763e-008 2.34576256249989e-013 1.0
outer loop
vertex 19.9999998957254 9.99999999998972 7.00000029794222
vertex 15.9659257220135 8.25881904509468 7.00000023784611
vertex 15.9999998957242 7.99999999999212 7.00000023835379
endloop
endfacet
facet normal -1.48972285541763e-008 2.34576256249989e-013 1.0
outer loop
vertex 15.9659257220135 8.25881904509468 7.00000023784611
vertex 19.9999998957254 9.99999999998972 7.00000029794222
vertex 15.866025299509 8.49999999999236 7.00000023635781
endloop
endfacet
facet normal -1.48972285541763e-008 2.34576256249989e-013 1.0
outer loop
vertex 15.866025299509 8.49999999999236 7.00000023635781
vertex 19.9999998957254 9.99999999998972 7.00000029794222
vertex 15.7071066769112 8.70710678117907 7.00000023399032
endloop
endfacet
facet normal -1.48972285541763e-008 2.34576256249989e-013 1.0
outer loop
vertex 15.7071066769112 8.70710678117907 7.00000023399032
vertex 19.9999998957254 9.99999999998972 7.00000029794222
vertex 15.4999998957247 8.86602540377681 7.00000023090498
endloop
endfacet
facet normal -1.48972285541763e-008 2.34576256249989e-013 1.0
outer loop
vertex 15.4999998957247 8.86602540377681 7.00000023090498
vertex 19.9999998957254 9.99999999998972 7.00000029794222
vertex 15.2588189408273 8.96592582628188 7.00000022731205
endloop
endfacet
facet normal -1.48972285541763e-008 2.34576256249989e-013 1.0
outer loop
vertex 15.2588189408273 8.96592582628188 7.00000022731205
vertex 19.9999998957254 9.99999999998972 7.00000029794222
vertex 11.9999998957254 9.99999999999452 7.0000001787644
endloop
endfacet
facet normal -1.48972285541763e-008 2.34576256249989e-013 1.0
outer loop
vertex 15.2588189408273 8.96592582628188 7.00000022731205
vertex 11.9999998957254 9.99999999999452 7.0000001787644
vertex 14.9999998957248 8.99999999999294 7.00000022345632
endloop
endfacet
facet normal -1.48972285541763e-008 2.34576256249989e-013 1.0
outer loop
vertex 14.9999998957248 8.99999999999294 7.00000022345632
vertex 11.9999998957254 9.99999999999452 7.0000001787644
vertex 14.7411808506223 8.96592582628191 7.00000021960067
endloop
endfacet
facet normal -1.48972285541763e-008 2.34576256249989e-013 1.0
outer loop
vertex 14.7411808506223 8.96592582628191 7.00000021960067
vertex 11.9999998957254 9.99999999999452 7.0000001787644
vertex 14.4999998957247 8.86602540377768 7.00000021600775
endloop
endfacet
facet normal -1.48972285541763e-008 2.34576256249989e-013 1.0
outer loop
vertex 14.4999998957247 8.86602540377768 7.00000021600775
vertex 11.9999998957254 9.99999999999452 7.0000001787644
vertex 14.2928931145381 8.70710678117965 7.00000021292245
endloop
endfacet
facet normal -1.48972285541763e-008 2.34576256249989e-013 1.0
outer loop
vertex 14.2928931145381 8.70710678117965 7.00000021292245
vertex 11.9999998957254 9.99999999999452 7.0000001787644
vertex 14.1339744919401 8.4999999999934 7.00000021055505
endloop
endfacet
facet normal -1.48972285541763e-008 2.34576256249989e-013 1.0
outer loop
vertex 14.1339744919401 8.4999999999934 7.00000021055505
vertex 11.9999998957254 9.99999999999452 7.0000001787644
vertex 14.0340740694353 8.25881904509602 7.00000020906687
endloop
endfacet
facet normal -1.48972285541763e-008 2.34576256249989e-013 1.0
outer loop
vertex 14.0340740694353 8.25881904509602 7.00000020906687
vertex 11.9999998957254 9.99999999999452 7.0000001787644
vertex 13.9999998957242 7.9999999999935 7.00000020855933
endloop
endfacet
facet normal -1.48972285541763e-008 2.34576256249989e-013 1.0
outer loop
vertex 19.9999998957254 9.99999999998972 7.00000029794222
vertex 11.9999998957194 -5.37485611573629e-012 7.00000017876674
vertex 19.9999998957194 -1.03549169239159e-011 7.00000029794457
endloop
endfacet
facet normal -1.48972285541763e-008 2.34576256249989e-013 1.0
outer loop
vertex 11.9999998957194 -5.37485611573629e-012 7.00000017876674
vertex 19.9999998957254 9.99999999998972 7.00000029794222
vertex 15.8660252995084 7.49999999999241 7.00000023635805
endloop
endfacet
facet normal -1.48972285541763e-008 2.34576256249989e-013 1.0
outer loop
vertex 15.8660252995084 7.49999999999241 7.00000023635805
vertex 19.9999998957254 9.99999999998972 7.00000029794222
vertex 15.9659257220131 7.74118095488961 7.00000023784623
endloop
endfacet
facet normal -1.48972285541763e-008 2.34576256249989e-013 1.0
outer loop
vertex 15.9659257220131 7.74118095488961 7.00000023784623
vertex 19.9999998957254 9.99999999998972 7.00000029794222
vertex 15.9999998957242 7.99999999999212 7.00000023835379
endloop
endfacet
facet normal -1.48972285541763e-008 2.34576256249989e-013 1.0
outer loop
vertex 11.9999998957194 -5.37485611573629e-012 7.00000017876674
vertex 15.8660252995084 7.49999999999241 7.00000023635805
vertex 15.7071066769103 7.29289321880597 7.00000023399068
endloop
endfacet
facet normal -1.48972285541763e-008 2.34576256249989e-013 1.0
outer loop
vertex 11.9999998957194 -5.37485611573629e-012 7.00000017876674
vertex 15.7071066769103 7.29289321880597 7.00000023399068
vertex 15.4999998957237 7.13397459620785 7.00000023090538
endloop
endfacet
facet normal -1.48972285541763e-008 2.34576256249989e-013 1.0
outer loop
vertex 11.9999998957194 -5.37485611573629e-012 7.00000017876674
vertex 15.4999998957237 7.13397459620785 7.00000023090538
vertex 15.2588189408262 7.03407417370371 7.00000022731246
endloop
endfacet
facet normal -1.48972285541763e-008 2.34576256249989e-013 1.0
outer loop
vertex 11.9999998957194 -5.37485611573629e-012 7.00000017876674
vertex 15.2588189408262 7.03407417370371 7.00000022731246
vertex 14.9999998957236 6.99999999999295 7.00000022345682
endloop
endfacet
facet normal -1.48972285541763e-008 2.34576256249989e-013 1.0
outer loop
vertex 11.9999998957194 -5.37485611573629e-012 7.00000017876674
vertex 14.9999998957236 6.99999999999295 7.00000022345682
vertex 14.7411808506211 7.03407417370375 7.00000021960109
endloop
endfacet
facet normal -1.48972285541763e-008 2.34576256249989e-013 1.0
outer loop
vertex 11.9999998957194 -5.37485611573629e-012 7.00000017876674
vertex 14.7411808506211 7.03407417370375 7.00000021960109
vertex 14.4999998957237 7.13397459620882 7.00000021600815
endloop
endfacet
facet normal -1.48972285541763e-008 2.34576256249989e-013 1.0
outer loop
vertex 11.9999998957194 -5.37485611573629e-012 7.00000017876674
vertex 14.4999998957237 7.13397459620882 7.00000021600815
vertex 14.2928931145373 7.29289321880655 7.00000021292282
endloop
endfacet
facet normal -1.48972285541763e-008 2.34576256249989e-013 1.0
outer loop
vertex 11.9999998957194 -5.37485611573629e-012 7.00000017876674
vertex 14.2928931145373 7.29289321880655 7.00000021292282
vertex 14.1339744919395 7.49999999999345 7.00000021055529
endloop
endfacet
facet normal -1.48972285541763e-008 2.34576256249989e-013 1.0
outer loop
vertex 11.9999998957194 -5.37485611573629e-012 7.00000017876674
vertex 14.1339744919395 7.49999999999345 7.00000021055529
vertex 14.034074069435 7.74118095489095 7.00000020906699
endloop
endfacet
facet normal -1.48972285541763e-008 2.34576256249989e-013 1.0
outer loop
vertex 11.9999998957194 -5.37485611573629e-012 7.00000017876674
vertex 14.034074069435 7.74118095489095 7.00000020906699
vertex 13.9999998957242 7.9999999999935 7.00000020855933
endloop
endfacet
facet normal -1.48972285541763e-008 2.34576256249989e-013 1.0
outer loop
vertex 11.9999998957194 -5.37485611573629e-012 7.00000017876674
vertex 13.9999998957242 7.9999999999935 7.00000020855933
vertex 11.9999998957224 4.99999999999439 7.00000017876557
endloop
endfacet
facet normal -1.48972285541763e-008 2.34576256249989e-013 1.0
outer loop
vertex 11.9999998957224 4.99999999999439 7.00000017876557
vertex 13.9999998957242 7.9999999999935 7.00000020855933
vertex 11.9999998957254 9.99999999999452 7.0000001787644
endloop
endfacet
facet normal -1.48972285541763e-008 2.34576256249989e-013 1.0
outer loop
vertex 17.9999998510457 29.999999999992 10.0000002681431
vertex 19.9999998510397 19.9999999999903 10.0000002979399
vertex 19.9999998510457 29.9999999999903 10.0000002979375
endloop
endfacet
facet normal -1.48972285541763e-008 2.34576256249989e-013 1.0
outer loop
vertex 19.9999998510397 19.9999999999903 10.0000002979399
vertex 17.9999998510457 29.999999999992 10.0000002681431
vertex 17.9999998510397 19.9999999999918 10.0000002681454
endloop
endfacet
facet normal -1.0 5.99742474407974e-013 -1.48972285541763e-008
outer loop
vertex 17.9999999553263 29.9999999999902 3.00000026814307
vertex 17.9999998510397 19.9999999999918 10.0000002681454
vertex 17.9999998510457 29.999999999992 10.0000002681431
endloop
endfacet
facet normal -1.0 5.99742474407974e-013 -1.48972285541763e-008
outer loop
vertex 17.9999998510397 19.9999999999918 10.0000002681454
vertex 17.9999999553263 29.9999999999902 3.00000026814307
vertex 17.9999999553203 19.9999999999901 3.00000026814542
endloop
endfacet
facet normal -6.00447469523147e-013 -1.0 2.34576247304985e-013
outer loop
vertex 19.9999998510397 19.9999999999903 10.0000002979399
vertex 17.9999999553203 19.9999999999901 3.00000026814542
vertex 19.9999999553203 19.9999999999887 3.00000029793987
endloop
endfacet
facet normal -6.00447469523147e-013 -1.0 2.34576247304985e-013
outer loop
vertex 17.9999999553203 19.9999999999901 3.00000026814542
vertex 19.9999998510397 19.9999999999903 10.0000002979399
vertex 17.9999998510397 19.9999999999918 10.0000002681454
endloop
endfacet
facet normal -1.48972285541763e-008 2.34576256249989e-013 1.0
outer loop
vertex -1.48954278644808e-007 30.0000000000023 9.99999999999296
vertex 1.99999985103973 20.0000000000013 10.0000000297898
vertex 1.99999985104573 30.0000000000014 10.0000000297874
endloop
endfacet
facet normal -1.48972285541763e-008 2.34576256249989e-013 1.0
outer loop
vertex 1.99999985103973 20.0000000000013 10.0000000297898
vertex -1.48954278644808e-007 30.0000000000023 9.99999999999296
vertex -1.48960271073584e-007 20.0000000000023 9.99999999999531
endloop
endfacet
facet normal -6.00447469523147e-013 -1.0 2.34576247304985e-013
outer loop
vertex 1.99999985103973 20.0000000000013 10.0000000297898
vertex -4.46796702080476e-008 20.0000000000007 2.9999999999953
vertex 1.99999995532033 19.9999999999996 3.00000002978976
endloop
endfacet
facet normal -6.00447469523147e-013 -1.0 2.34576247304985e-013
outer loop
vertex -4.46796702080476e-008 20.0000000000007 2.9999999999953
vertex 1.99999985103973 20.0000000000013 10.0000000297898
vertex -1.48960271073584e-007 20.0000000000023 9.99999999999531
endloop
endfacet
facet normal 1.0 -5.99742474407974e-013 1.48972285541763e-008
outer loop
vertex 1.99999985103973 20.0000000000013 10.0000000297898
vertex 1.99999995532633 29.9999999999997 3.00000002978741
vertex 1.99999985104573 30.0000000000014 10.0000000297874
endloop
endfacet
facet normal 1.0 -5.99742474407974e-013 1.48972285541763e-008
outer loop
vertex 1.99999995532633 29.9999999999997 3.00000002978741
vertex 1.99999985103973 20.0000000000013 10.0000000297898
vertex 1.99999995532033 19.9999999999996 3.00000002978976
endloop
endfacet
facet normal -1.0 5.99740128779025e-013 -1.48972285541763e-008
outer loop
vertex 12.000000000003 4.99999999999292 1.78765569119887e-007
vertex 11.9999999553233 24.9999999999935 3.00000017876087
vertex 12.000000000015 24.999999999993 1.78760878105644e-007
endloop
endfacet
facet normal -1.0 5.99740128779025e-013 -1.48972285541763e-008
outer loop
vertex 11.9999999553233 24.9999999999935 3.00000017876087
vertex 12.000000000003 4.99999999999292 1.78765569119887e-007
vertex 11.9999999553143 9.99999999999358 3.00000017876439
endloop
endfacet
facet normal -1.0 5.99740128779025e-013 -1.48972285541763e-008
outer loop
vertex 11.9999999553143 9.99999999999358 3.00000017876439
vertex 12.000000000003 4.99999999999292 1.78765569119887e-007
vertex 11.9999998957254 9.99999999999452 7.0000001787644
endloop
endfacet
facet normal -1.0 5.99740128779025e-013 -1.48972285541763e-008
outer loop
vertex 11.9999998957254 9.99999999999452 7.0000001787644
vertex 12.000000000003 4.99999999999292 1.78765569119887e-007
vertex 11.9999998957224 4.99999999999439 7.00000017876557
endloop
endfacet
facet normal -6.07291994411678e-013 -1.0 2.30663900565886e-013
outer loop
vertex 19.9999998957194 -1.03549169239159e-011 7.00000029794457
vertex 12.0 -6.92583768113764e-012 1.78766741873448e-007
vertex 20.0 -1.20863763442003e-011 2.97944570376574e-007
endloop
endfacet
facet normal -6.07291994411678e-013 -1.0 2.30663900565886e-013
outer loop
vertex 12.0 -6.92583768113764e-012 1.78766741873448e-007
vertex 19.9999998957194 -1.03549169239159e-011 7.00000029794457
vertex 11.9999998957194 -5.37485611573629e-012 7.00000017876674
endloop
endfacet
facet normal 1.0 -5.99742474407974e-013 1.48972285541763e-008
outer loop
vertex 7.99999989572242 4.99999999999715 7.00000011917666
vertex 7.99999995531434 9.99999999999607 3.00000011917548
vertex 7.99999989572542 9.9999999999971 7.00000011917548
endloop
endfacet
facet normal 1.0 -5.99742474407974e-013 1.48972285541763e-008
outer loop
vertex 7.99999995532333 24.9999999999961 3.00000011917196
vertex 8.00000000000303 4.99999999999542 1.19176655397069e-007
vertex 8.00000000001502 24.9999999999954 1.19171963325337e-007
endloop
endfacet
facet normal 1.0 -5.99742474407974e-013 1.48972285541763e-008
outer loop
vertex 8.00000000000303 4.99999999999542 1.19176655397069e-007
vertex 7.99999995532333 24.9999999999961 3.00000011917196
vertex 7.99999995531434 9.99999999999607 3.00000011917548
endloop
endfacet
facet normal 1.0 -5.99742474407974e-013 1.48972285541763e-008
outer loop
vertex 8.00000000000303 4.99999999999542 1.19176655397069e-007
vertex 7.99999995531434 9.99999999999607 3.00000011917548
vertex 7.99999989572242 4.99999999999715 7.00000011917666
endloop
endfacet
facet normal -6.01652061446582e-013 -1.0 2.30663900649906e-013
outer loop
vertex 11.9999998957194 -5.37485611573629e-012 7.00000017876674
vertex 1.97397653778353e-014 0.0 -7.04991620636974e-016
vertex 12.0 -6.92583768113764e-012 1.78766741873448e-007
endloop
endfacet
facet normal -6.01652061446582e-013 -1.0 2.30663900649906e-013
outer loop
vertex 1.97397653778353e-014 0.0 -7.04991620636974e-016
vertex 11.9999998957194 -5.37485611573629e-012 7.00000017876674
vertex -1.04280581125771e-007 1.73145942028441e-012 7.0
endloop
endfacet
facet normal 6.46771525167348e-013 1.0 -2.30663899977751e-013
outer loop
vertex 8.00000000000303 4.99999999999542 1.19176655397069e-007
vertex 11.9999998957224 4.99999999999439 7.00000017876557
vertex 12.000000000003 4.99999999999292 1.78765569119887e-007
endloop
endfacet
facet normal 6.46771525167348e-013 1.0 -2.30663899977751e-013
outer loop
vertex 11.9999998957224 4.99999999999439 7.00000017876557
vertex 8.00000000000303 4.99999999999542 1.19176655397069e-007
vertex 7.99999989572242 4.99999999999715 7.00000011917666
endloop
endfacet
facet normal -6.16941927817103e-013 -1.0 2.34576247059264e-013
outer loop
vertex 12.000000000015 24.999999999993 1.78760878105644e-007
vertex 7.99999995532333 24.9999999999961 3.00000011917196
vertex 8.00000000001502 24.9999999999954 1.19171963325337e-007
endloop
endfacet
facet normal -6.16941927817103e-013 -1.0 2.34576247059264e-013
outer loop
vertex 7.99999995532333 24.9999999999961 3.00000011917196
vertex 12.000000000015 24.999999999993 1.78760878105644e-007
vertex 11.9999999553233 24.9999999999935 3.00000017876087
endloop
endfacet
facet normal 1.48972285541763e-008 -2.34531292217491e-013 -1.0
outer loop
vertex 12.0 -6.92583768113764e-012 1.78766741873448e-007
vertex 12.000000000003 4.99999999999292 1.78765569119887e-007
vertex 20.0 -1.20863763442003e-011 2.97944570376574e-007
endloop
endfacet
facet normal 1.48972285541763e-008 -2.34531292217491e-013 -1.0
outer loop
vertex 12.000000000003 4.99999999999292 1.78765569119887e-007
vertex 12.0 -6.92583768113764e-012 1.78766741873448e-007
vertex 8.00000000000303 4.99999999999542 1.19176655397069e-007
endloop
endfacet
facet normal 1.48972285541763e-008 -2.34531292217491e-013 -1.0
outer loop
vertex 8.00000000000303 4.99999999999542 1.19176655397069e-007
vertex 12.0 -6.92583768113764e-012 1.78766741873448e-007
vertex 1.97397653778353e-014 0.0 -7.04991620636974e-016
endloop
endfacet
facet normal 1.48972285541763e-008 -2.34531292217491e-013 -1.0
outer loop
vertex 8.00000000000303 4.99999999999542 1.19176655397069e-007
vertex 1.97397653778353e-014 0.0 -7.04991620636974e-016
vertex 8.00000000001502 24.9999999999954 1.19171963325337e-007
endloop
endfacet
facet normal 1.48972285541763e-008 -2.34531292217491e-013 -1.0
outer loop
vertex 20.0 -1.20863763442003e-011 2.97944570376574e-007
vertex 12.000000000018 29.9999999999929 1.78759704647091e-007
vertex 20.000000000018 29.9999999999879 2.97937533150217e-007
endloop
endfacet
facet normal 1.48972285541763e-008 -2.34531292217491e-013 -1.0
outer loop
vertex 12.000000000018 29.9999999999929 1.78759704647091e-007
vertex 20.0 -1.20863763442003e-011 2.97944570376574e-007
vertex 12.000000000015 24.999999999993 1.78760878105644e-007
endloop
endfacet
facet normal 1.48972285541763e-008 -2.34531292217491e-013 -1.0
outer loop
vertex 12.000000000015 24.999999999993 1.78760878105644e-007
vertex 20.0 -1.20863763442003e-011 2.97944570376574e-007
vertex 12.000000000003 4.99999999999292 1.78765569119887e-007
endloop
endfacet
facet normal 1.48972285541763e-008 -2.34531292217491e-013 -1.0
outer loop
vertex 12.000000000018 29.9999999999929 1.78759704647091e-007
vertex 12.000000000015 24.999999999993 1.78760878105644e-007
vertex 8.00000000001502 24.9999999999954 1.19171963325337e-007
endloop
endfacet
facet normal 1.48972285541763e-008 -2.34531292217491e-013 -1.0
outer loop
vertex 12.000000000018 29.9999999999929 1.78759704647091e-007
vertex 8.00000000001502 24.9999999999954 1.19171963325337e-007
vertex 1.80111259240334e-011 29.9999999999999 -7.03793134881892e-012
endloop
endfacet
facet normal 1.48972285541763e-008 -2.34531292217491e-013 -1.0
outer loop
vertex 1.80111259240334e-011 29.9999999999999 -7.03793134881892e-012
vertex 8.00000000001502 24.9999999999954 1.19171963325337e-007
vertex 1.97397653778353e-014 0.0 -7.04991620636974e-016
endloop
endfacet
facet normal -1.48972285541763e-008 2.34576256249989e-013 1.0
outer loop
vertex 7.99999989572542 9.9999999999971 7.00000011917548
vertex 5.96592572201344 8.25881904510059 7.00000008887382
vertex 5.99999989572422 7.99999999999812 7.0000000893815
endloop
endfacet
facet normal -1.48972285541763e-008 2.34576256249989e-013 1.0
outer loop
vertex 5.96592572201344 8.25881904510059 7.00000008887382
vertex 7.99999989572542 9.9999999999971 7.00000011917548
vertex 5.86602529950896 8.49999999999836 7.00000008738553
endloop
endfacet
facet normal -1.48972285541763e-008 2.34576256249989e-013 1.0
outer loop
vertex 5.86602529950896 8.49999999999836 7.00000008738553
vertex 7.99999989572542 9.9999999999971 7.00000011917548
vertex 5.70710667691119 8.7071067811848 7.00000008501803
endloop
endfacet
facet normal -1.48972285541763e-008 2.34576256249989e-013 1.0
outer loop
vertex 5.70710667691119 8.7071067811848 7.00000008501803
vertex 7.99999989572542 9.9999999999971 7.00000011917548
vertex 5.49999989572474 8.86602540378299 7.00000008193269
endloop
endfacet
facet normal -1.48972285541763e-008 2.34576256249989e-013 1.0
outer loop
vertex 5.49999989572474 8.86602540378299 7.00000008193269
vertex 7.99999989572542 9.9999999999971 7.00000011917548
vertex 5.25881894082732 8.9659258262876 7.00000007833976
endloop
endfacet
facet normal -1.48972285541763e-008 2.34576256249989e-013 1.0
outer loop
vertex 5.25881894082732 8.9659258262876 7.00000007833976
vertex 7.99999989572542 9.9999999999971 7.00000011917548
vertex -1.04274583057062e-007 10.0000000000017 6.99999999999765
endloop
endfacet
facet normal -1.48972285541763e-008 2.34576256249989e-013 1.0
outer loop
vertex 5.25881894082732 8.9659258262876 7.00000007833976
vertex -1.04274583057062e-007 10.0000000000017 6.99999999999765
vertex 4.99999989572481 8.99999999999894 7.00000007448403
endloop
endfacet
facet normal -1.48972285541763e-008 2.34576256249989e-013 1.0
outer loop
vertex 4.99999989572481 8.99999999999894 7.00000007448403
vertex -1.04274583057062e-007 10.0000000000017 6.99999999999765
vertex 4.74118085062228 8.96592582628791 7.00000007062839
endloop
endfacet
facet normal -1.48972285541763e-008 2.34576256249989e-013 1.0
outer loop
vertex 4.74118085062228 8.96592582628791 7.00000007062839
vertex -1.04274583057062e-007 10.0000000000017 6.99999999999765
vertex 4.49999989572474 8.86602540378368 7.00000006703546
endloop
endfacet
facet normal -1.48972285541763e-008 2.34576256249989e-013 1.0
outer loop
vertex 4.49999989572474 8.86602540378368 7.00000006703546
vertex -1.04274583057062e-007 10.0000000000017 6.99999999999765
vertex 4.29289311453809 8.70710678118565 7.00000006395017
endloop
endfacet
facet normal -1.48972285541763e-008 2.34576256249989e-013 1.0
outer loop
vertex 4.29289311453809 8.70710678118565 7.00000006395017
vertex -1.04274583057062e-007 10.0000000000017 6.99999999999765
vertex 4.13397449194008 8.49999999999939 7.00000006158277
endloop
endfacet
facet normal -1.48972285541763e-008 2.34576256249989e-013 1.0
outer loop
vertex 4.13397449194008 8.49999999999939 7.00000006158277
vertex -1.04274583057062e-007 10.0000000000017 6.99999999999765
vertex 4.0340740694353 8.25881904510202 7.00000006009459
endloop
endfacet
facet normal -1.48972285541763e-008 2.34576256249989e-013 1.0
outer loop
vertex 4.0340740694353 8.25881904510202 7.00000006009459
vertex -1.04274583057062e-007 10.0000000000017 6.99999999999765
vertex 3.99999989572422 7.9999999999995 7.00000005958705
endloop
endfacet
facet normal -1.48972285541763e-008 2.34576256249989e-013 1.0
outer loop
vertex 7.99999989572242 4.99999999999715 7.00000011917666
vertex 11.9999998957194 -5.37485611573629e-012 7.00000017876674
vertex 11.9999998957224 4.99999999999439 7.00000017876557
endloop
endfacet
facet normal -1.48972285541763e-008 2.34576256249989e-013 1.0
outer loop
vertex 11.9999998957194 -5.37485611573629e-012 7.00000017876674
vertex 7.99999989572242 4.99999999999715 7.00000011917666
vertex -1.04280581125771e-007 1.73145942028441e-012 7.0
endloop
endfacet
facet normal -1.48972285541763e-008 2.34576256249989e-013 1.0
outer loop
vertex -1.04280581125771e-007 1.73145942028441e-012 7.0
vertex 7.99999989572242 4.99999999999715 7.00000011917666
vertex 7.99999989572542 9.9999999999971 7.00000011917548
endloop
endfacet
facet normal -1.48972285541763e-008 2.34576256249989e-013 1.0
outer loop
vertex -1.04280581125771e-007 1.73145942028441e-012 7.0
vertex 7.99999989572542 9.9999999999971 7.00000011917548
vertex 5.70710667691034 7.2928932188117 7.0000000850184
endloop
endfacet
facet normal -1.48972285541763e-008 2.34576256249989e-013 1.0
outer loop
vertex 5.70710667691034 7.2928932188117 7.0000000850184
vertex 7.99999989572542 9.9999999999971 7.00000011917548
vertex 5.86602529950835 7.4999999999984 7.00000008738576
endloop
endfacet
facet normal -1.48972285541763e-008 2.34576256249989e-013 1.0
outer loop
vertex 5.86602529950835 7.4999999999984 7.00000008738576
vertex 7.99999989572542 9.9999999999971 7.00000011917548
vertex 5.96592572201314 7.74118095489552 7.00000008887394
endloop
endfacet
facet normal -1.48972285541763e-008 2.34576256249989e-013 1.0
outer loop
vertex 5.96592572201314 7.74118095489552 7.00000008887394
vertex 7.99999989572542 9.9999999999971 7.00000011917548
vertex 5.99999989572422 7.99999999999812 7.0000000893815
endloop
endfacet
facet normal -1.48972285541763e-008 2.34576256249989e-013 1.0
outer loop
vertex -1.04280581125771e-007 1.73145942028441e-012 7.0
vertex 5.70710667691034 7.2928932188117 7.0000000850184
vertex 5.4999998957237 7.13397459621403 7.00000008193309
endloop
endfacet
facet normal -1.48972285541763e-008 2.34576256249989e-013 1.0
outer loop
vertex -1.04280581125771e-007 1.73145942028441e-012 7.0
vertex 5.4999998957237 7.13397459621403 7.00000008193309
vertex 5.25881894082616 7.03407417370944 7.00000007834018
endloop
endfacet
facet normal -1.48972285541763e-008 2.34576256249989e-013 1.0
outer loop
vertex -1.04280581125771e-007 1.73145942028441e-012 7.0
vertex 5.25881894082616 7.03407417370944 7.00000007834018
vertex 4.99999989572362 6.99999999999895 7.00000007448454
endloop
endfacet
facet normal -1.48972285541763e-008 2.34576256249989e-013 1.0
outer loop
vertex -1.04280581125771e-007 1.73145942028441e-012 7.0
vertex 4.99999989572362 6.99999999999895 7.00000007448454
vertex 4.74118085062112 7.03407417370975 7.00000007062881
endloop
endfacet
facet normal -1.48972285541763e-008 2.34576256249989e-013 1.0
outer loop
vertex -1.04280581125771e-007 1.73145942028441e-012 7.0
vertex 4.74118085062112 7.03407417370975 7.00000007062881
vertex 4.4999998957237 7.13397459621481 7.00000006703586
endloop
endfacet
facet normal -1.48972285541763e-008 2.34576256249989e-013 1.0
outer loop
vertex -1.04280581125771e-007 1.73145942028441e-012 7.0
vertex 4.4999998957237 7.13397459621481 7.00000006703586
vertex 4.29289311453725 7.29289321881255 7.00000006395053
endloop
endfacet
facet normal -1.48972285541763e-008 2.34576256249989e-013 1.0
outer loop
vertex -1.04280581125771e-007 1.73145942028441e-012 7.0
vertex 4.29289311453725 7.29289321881255 7.00000006395053
vertex 4.13397449193947 7.49999999999944 7.00000006158301
endloop
endfacet
facet normal -1.48972285541763e-008 2.34576256249989e-013 1.0
outer loop
vertex -1.04280581125771e-007 1.73145942028441e-012 7.0
vertex 4.13397449193947 7.49999999999944 7.00000006158301
vertex 4.034074069435 7.74118095489704 7.00000006009471
endloop
endfacet
facet normal -1.48972285541763e-008 2.34576256249989e-013 1.0
outer loop
vertex -1.04280581125771e-007 1.73145942028441e-012 7.0
vertex 4.034074069435 7.74118095489704 7.00000006009471
vertex 3.99999989572422 7.9999999999995 7.00000005958705
endloop
endfacet
facet normal -1.48972285541763e-008 2.34576256249989e-013 1.0
outer loop
vertex -1.04280581125771e-007 1.73145942028441e-012 7.0
vertex 3.99999989572422 7.9999999999995 7.00000005958705
vertex -1.04274583057062e-007 10.0000000000017 6.99999999999765
endloop
endfacet
facet normal -1.48972285541763e-008 2.34576256249989e-013 1.0
outer loop
vertex 11.9999999553263 29.9999999999935 3.0000001787597
vertex 17.9999999553203 19.9999999999901 3.00000026814542
vertex 17.9999999553263 29.9999999999902 3.00000026814307
endloop
endfacet
facet normal -1.48972285541763e-008 2.34576256249989e-013 1.0
outer loop
vertex 17.9999999553203 19.9999999999901 3.00000026814542
vertex 11.9999999553263 29.9999999999935 3.0000001787597
vertex 11.9999999553233 24.9999999999935 3.00000017876087
endloop
endfacet
facet normal -1.48972285541763e-008 2.34576256249989e-013 1.0
outer loop
vertex 17.9999999553203 19.9999999999901 3.00000026814542
vertex 19.9999999553143 9.99999999998869 3.00000029794222
vertex 19.9999999553203 19.9999999999887 3.00000029793987
endloop
endfacet
facet normal -1.48972285541763e-008 2.34576256249989e-013 1.0
outer loop
vertex 19.9999999553143 9.99999999998869 3.00000029794222
vertex 17.9999999553203 19.9999999999901 3.00000026814542
vertex 11.9999999553143 9.99999999999358 3.00000017876439
endloop
endfacet
facet normal -1.48972285541763e-008 2.34576256249989e-013 1.0
outer loop
vertex 11.9999999553143 9.99999999999358 3.00000017876439
vertex 17.9999999553203 19.9999999999901 3.00000026814542
vertex 11.9999999553233 24.9999999999935 3.00000017876087
endloop
endfacet
facet normal 5.9438219595672e-013 1.0 -2.34576247395341e-013
outer loop
vertex 11.9999998957254 9.99999999999452 7.0000001787644
vertex 19.9999999553143 9.99999999998869 3.00000029794222
vertex 11.9999999553143 9.99999999999358 3.00000017876439
endloop
endfacet
facet normal 5.9438219595672e-013 1.0 -2.34576247395341e-013
outer loop
vertex 19.9999999553143 9.99999999998869 3.00000029794222
vertex 11.9999998957254 9.99999999999452 7.0000001787644
vertex 19.9999998957254 9.99999999998972 7.00000029794222
endloop
endfacet
facet normal -1.48972285541763e-008 2.34576256249989e-013 1.0
outer loop
vertex 11.9999999553263 29.9999999999935 3.0000001787597
vertex 7.99999995532333 24.9999999999961 3.00000011917196
vertex 11.9999999553233 24.9999999999935 3.00000017876087
endloop
endfacet
facet normal -1.48972285541763e-008 2.34576256249989e-013 1.0
outer loop
vertex 7.99999995532333 24.9999999999961 3.00000011917196
vertex 11.9999999553263 29.9999999999935 3.0000001787597
vertex 1.99999995532633 29.9999999999997 3.00000002978741
endloop
endfacet
facet normal -1.48972285541763e-008 2.34576256249989e-013 1.0
outer loop
vertex 7.99999995532333 24.9999999999961 3.00000011917196
vertex -4.4685668276756e-008 10.0000000000007 2.99999999999765
vertex 7.99999995531434 9.99999999999607 3.00000011917548
endloop
endfacet
facet normal -1.48972285541763e-008 2.34576256249989e-013 1.0
outer loop
vertex -4.4685668276756e-008 10.0000000000007 2.99999999999765
vertex 7.99999995532333 24.9999999999961 3.00000011917196
vertex 1.99999995532033 19.9999999999996 3.00000002978976
endloop
endfacet
facet normal -1.48972285541763e-008 2.34576256249989e-013 1.0
outer loop
vertex 1.99999995532033 19.9999999999996 3.00000002978976
vertex 7.99999995532333 24.9999999999961 3.00000011917196
vertex 1.99999995532633 29.9999999999997 3.00000002978741
endloop
endfacet
facet normal -1.48972285541763e-008 2.34576256249989e-013 1.0
outer loop
vertex -4.4685668276756e-008 10.0000000000007 2.99999999999765
vertex 1.99999995532033 19.9999999999996 3.00000002978976
vertex -4.46796702080476e-008 20.0000000000007 2.9999999999953
endloop
endfacet
facet normal 5.9438219595672e-013 1.0 -2.34576247395341e-013
outer loop
vertex -1.04274583057062e-007 10.0000000000017 6.99999999999765
vertex 7.99999995531434 9.99999999999607 3.00000011917548
vertex -4.4685668276756e-008 10.0000000000007 2.99999999999765
endloop
endfacet
facet normal 5.9438219595672e-013 1.0 -2.34576247395341e-013
outer loop
vertex 7.99999995531434 9.99999999999607 3.00000011917548
vertex -1.04274583057062e-007 10.0000000000017 6.99999999999765
vertex 7.99999989572542 9.9999999999971 7.00000011917548
endloop
endfacet
facet normal -1.48972442218838e-008 2.50170301645282e-013 1.0
outer loop
vertex 5.48296279397158 8.12940952254974 8.00000008167906
vertex 5.48296279397138 7.87059047744725 8.00000008167912
vertex 5.49999988082694 7.99999999999848 8.0000000819329
endloop
endfacet
facet normal -1.48972442218838e-008 2.50170301645282e-013 1.0
outer loop
vertex 5.48296279397138 7.87059047744725 8.00000008167912
vertex 5.48296279397158 8.12940952254974 8.00000008167906
vertex 5.43301258271936 8.24999999999851 8.00000008093491
endloop
endfacet
facet normal -1.48972442218838e-008 2.50170301645282e-013 1.0
outer loop
vertex 5.48296279397138 7.87059047744725 8.00000008167912
vertex 5.43301258271936 8.24999999999851 8.00000008093491
vertex 5.43301258271898 7.74999999999856 8.00000008093503
endloop
endfacet
facet normal -1.48972442218838e-008 2.50170301645282e-013 1.0
outer loop
vertex 5.43301258271898 7.74999999999856 8.00000008093503
vertex 5.43301258271936 8.24999999999851 8.00000008093491
vertex 5.3535532714205 8.35355339059183 8.00000007975116
endloop
endfacet
facet normal -1.48972442218838e-008 2.50170301645282e-013 1.0
outer loop
vertex 5.43301258271898 7.74999999999856 8.00000008093503
vertex 5.3535532714205 8.35355339059183 8.00000007975116
vertex 5.35355327141996 7.64644660940535 8.00000007975133
endloop
endfacet
facet normal -1.48972442218838e-008 2.50170301645282e-013 1.0
outer loop
vertex 5.35355327141996 7.64644660940535 8.00000007975133
vertex 5.3535532714205 8.35355339059183 8.00000007975116
vertex 5.2499998808273 8.43301270189085 8.00000007820848
endloop
endfacet
facet normal -1.48972442218838e-008 2.50170301645282e-013 1.0
outer loop
vertex 5.35355327141996 7.64644660940535 8.00000007975133
vertex 5.2499998808273 8.43301270189085 8.00000007820848
vertex 5.24999988082664 7.5669872981065 8.00000007820869
endloop
endfacet
facet normal -1.48972442218838e-008 2.50170301645282e-013 1.0
outer loop
vertex 5.24999988082664 7.5669872981065 8.00000007820869
vertex 5.2499998808273 8.43301270189085 8.00000007820848
vertex 5.12940940337861 8.48296291314326 8.000000076412
endloop
endfacet
facet normal -1.48972442218838e-008 2.50170301645282e-013 1.0
outer loop
vertex 5.24999988082664 7.5669872981065 8.00000007820869
vertex 5.12940940337861 8.48296291314326 8.000000076412
vertex 5.12940940337787 7.51703708685428 8.00000007641224
endloop
endfacet
facet normal -1.48972442218838e-008 2.50170301645282e-013 1.0
outer loop
vertex 5.12940940337787 7.51703708685428 8.00000007641224
vertex 5.12940940337861 8.48296291314326 8.000000076412
vertex 4.99999988082737 8.49999999999881 8.00000007448415
endloop
endfacet
facet normal -1.48972442218838e-008 2.50170301645282e-013 1.0
outer loop
vertex 5.12940940337787 7.51703708685428 8.00000007641224
vertex 4.99999988082737 8.49999999999881 8.00000007448415
vertex 4.99999988082661 7.49999999999891 8.0000000744844
endloop
endfacet
facet normal -1.48972442218838e-008 2.50170301645282e-013 1.0
outer loop
vertex 4.99999988082661 7.49999999999891 8.0000000744844
vertex 4.99999988082737 8.49999999999881 8.00000007448415
vertex 4.87059035827611 8.48296291314345 8.00000007255631
endloop
endfacet
facet normal -1.48972442218838e-008 2.50170301645282e-013 1.0
outer loop
vertex 4.99999988082661 7.49999999999891 8.0000000744844
vertex 4.87059035827611 8.48296291314345 8.00000007255631
vertex 4.87059035827538 7.51703708685448 8.00000007255655
endloop
endfacet
facet normal -1.48972442218838e-008 2.50170301645282e-013 1.0
outer loop
vertex 4.87059035827538 7.51703708685448 8.00000007255655
vertex 4.87059035827611 8.48296291314345 8.00000007255631
vertex 4.74999988082735 8.43301270189123 8.00000007075985
endloop
endfacet
facet normal -1.48972442218838e-008 2.50170301645282e-013 1.0
outer loop
vertex 4.87059035827538 7.51703708685448 8.00000007255655
vertex 4.74999988082735 8.43301270189123 8.00000007075985
vertex 4.74999988082669 7.56698729810687 8.00000007076007
endloop
endfacet
facet normal -1.48972442218838e-008 2.50170301645282e-013 1.0
outer loop
vertex 4.74999988082669 7.56698729810687 8.00000007076007
vertex 4.74999988082735 8.43301270189123 8.00000007075985
vertex 4.64644649023402 8.35355339059237 8.00000006921722
endloop
endfacet
facet normal -1.48972442218838e-008 2.50170301645282e-013 1.0
outer loop
vertex 4.74999988082669 7.56698729810687 8.00000007076007
vertex 4.64644649023402 8.35355339059237 8.00000006921722
vertex 4.64644649023348 7.64644660940589 8.00000006921739
endloop
endfacet
facet normal -1.48972442218838e-008 2.50170301645282e-013 1.0
outer loop
vertex 4.64644649023348 7.64644660940589 8.00000006921739
vertex 4.64644649023402 8.35355339059237 8.00000006921722
vertex 4.566987178935 8.24999999999917 8.00000006803352
endloop
endfacet
facet normal -1.48972442218838e-008 2.50170301645282e-013 1.0
outer loop
vertex 4.64644649023348 7.64644660940589 8.00000006921739
vertex 4.566987178935 8.24999999999917 8.00000006803352
vertex 4.56698717893462 7.74999999999922 8.00000006803364
endloop
endfacet
facet normal -1.48972442218838e-008 2.50170301645282e-013 1.0
outer loop
vertex 4.56698717893462 7.74999999999922 8.00000006803364
vertex 4.566987178935 8.24999999999917 8.00000006803352
vertex 4.5170369676826 8.12940952255048 8.00000006728943
endloop
endfacet
facet normal -1.48972442218838e-008 2.50170301645282e-013 1.0
outer loop
vertex 4.56698717893462 7.74999999999922 8.00000006803364
vertex 4.5170369676826 8.12940952255048 8.00000006728943
vertex 4.51703696768241 7.87059047744798 8.00000006728949
endloop
endfacet
facet normal -1.48972442218838e-008 2.50170301645282e-013 1.0
outer loop
vertex 4.51703696768241 7.87059047744798 8.00000006728949
vertex 4.5170369676826 8.12940952255048 8.00000006728943
vertex 4.49999988082704 7.99999999999924 8.00000006703565
endloop
endfacet
facet normal 0.632455525371126 -0.632455532033886 0.44721360492193
outer loop
vertex 5.70710667691034 7.2928932188117 7.0000000850184
vertex 5.24999988082664 7.5669872981065 8.00000007820869
vertex 5.4999998957237 7.13397459621403 7.00000008193309
endloop
endfacet
facet normal 0.44721358883723 -0.774596669241679 0.447213602162347
outer loop
vertex 5.24999988082664 7.5669872981065 8.00000007820869
vertex 5.70710667691034 7.2928932188117 7.0000000850184
vertex 5.35355327141996 7.64644660940535 8.00000007975133
endloop
endfacet
facet normal 0.632455525371114 -0.632455532033897 0.44721360492193
outer loop
vertex 5.35355327141996 7.64644660940535 8.00000007975133
vertex 5.86602529950835 7.4999999999984 7.00000008738576
vertex 5.43301258271898 7.74999999999856 8.00000008093503
endloop
endfacet
facet normal 0.774596662579025 -0.447213595500274 0.447213607039357
outer loop
vertex 5.86602529950835 7.4999999999984 7.00000008738576
vertex 5.35355327141996 7.64644660940535 8.00000007975133
vertex 5.70710667691034 7.2928932188117 7.0000000850184
endloop
endfacet
facet normal 0.774596662578999 -0.447213595500319 0.447213607039357
outer loop
vertex 5.43301258271898 7.74999999999856 8.00000008093503
vertex 5.96592572201314 7.74118095489552 7.00000008887394
vertex 5.48296279397138 7.87059047744725 8.00000008167912
endloop
endfacet
facet normal 0.863950316859567 -0.231494791488912 0.447213608370495
outer loop
vertex 5.96592572201314 7.74118095489552 7.00000008887394
vertex 5.43301258271898 7.74999999999856 8.00000008093503
vertex 5.86602529950835 7.4999999999984 7.00000008738576
endloop
endfacet
facet normal 0.894427184337656 -4.45517949510324e-013 0.447213608824477
outer loop
vertex 5.49999988082694 7.99999999999848 8.0000000819329
vertex 5.96592572201314 7.74118095489552 7.00000008887394
vertex 5.99999989572422 7.99999999999812 7.0000000893815
endloop
endfacet
facet normal 0.863950316859567 -0.231494791488912 0.447213608370495
outer loop
vertex 5.96592572201314 7.74118095489552 7.00000008887394
vertex 5.49999988082694 7.99999999999848 8.0000000819329
vertex 5.48296279397138 7.87059047744725 8.00000008167912
endloop
endfacet
facet normal 0.863950316859915 0.23149479148777 0.447213608370414
outer loop
vertex 5.48296279397158 8.12940952254974 8.00000008167906
vertex 5.99999989572422 7.99999999999812 7.0000000893815
vertex 5.96592572201344 8.25881904510059 7.00000008887382
endloop
endfacet
facet normal 0.894427184337656 -4.18169262826462e-013 0.447213608824477
outer loop
vertex 5.99999989572422 7.99999999999812 7.0000000893815
vertex 5.48296279397158 8.12940952254974 8.00000008167906
vertex 5.49999988082694 7.99999999999848 8.0000000819329
endloop
endfacet
facet normal 0.774596662579469 0.447213595499569 0.447213607039294
outer loop
vertex 5.43301258271936 8.24999999999851 8.00000008093491
vertex 5.96592572201344 8.25881904510059 7.00000008887382
vertex 5.86602529950896 8.49999999999836 7.00000008738553
endloop
endfacet
facet normal 0.863950316859909 0.231494791487794 0.447213608370414
outer loop
vertex 5.96592572201344 8.25881904510059 7.00000008887382
vertex 5.43301258271936 8.24999999999851 8.00000008093491
vertex 5.48296279397158 8.12940952254974 8.00000008167906
endloop
endfacet
facet normal 0.632455525371829 0.632455532033324 0.447213604921729
outer loop
vertex 5.3535532714205 8.35355339059183 8.00000007975116
vertex 5.86602529950896 8.49999999999836 7.00000008738553
vertex 5.70710667691119 8.7071067811848 7.00000008501803
endloop
endfacet
facet normal 0.774596662579447 0.447213595499607 0.447213607039294
outer loop
vertex 5.86602529950896 8.49999999999836 7.00000008738553
vertex 5.3535532714205 8.35355339059183 8.00000007975116
vertex 5.43301258271936 8.24999999999851 8.00000008093491
endloop
endfacet
facet normal 0.447213588838167 0.774596669241244 0.447213602162162
outer loop
vertex 5.49999989572474 8.86602540378299 7.00000008193269
vertex 5.3535532714205 8.35355339059183 8.00000007975116
vertex 5.70710667691119 8.7071067811848 7.00000008501803
endloop
endfacet
facet normal 0.632455525371829 0.632455532033324 0.447213604921729
outer loop
vertex 5.3535532714205 8.35355339059183 8.00000007975116
vertex 5.49999989572474 8.86602540378299 7.00000008193269
vertex 5.2499998808273 8.43301270189085 8.00000007820848
endloop
endfacet
facet normal 0.231494784826726 0.863950323521871 0.447213598948513
outer loop
vertex 5.25881894082732 8.9659258262876 7.00000007833976
vertex 5.2499998808273 8.43301270189085 8.00000007820848
vertex 5.49999989572474 8.86602540378299 7.00000008193269
endloop
endfacet
facet normal 0.447213588838191 0.774596669241231 0.447213602162162
outer loop
vertex 5.2499998808273 8.43301270189085 8.00000007820848
vertex 5.25881894082732 8.9659258262876 7.00000007833976
vertex 5.12940940337861 8.48296291314326 8.000000076412
endloop
endfacet
facet normal -6.66167015497066e-009 0.894427190999917 0.447213595499957
outer loop
vertex 4.99999988082737 8.49999999999881 8.00000007448415
vertex 5.25881894082732 8.9659258262876 7.00000007833976
vertex 4.99999989572481 8.99999999999894 7.00000007448403
endloop
endfacet
facet normal 0.231494784826726 0.863950323521871 0.447213598948513
outer loop
vertex 5.25881894082732 8.9659258262876 7.00000007833976
vertex 4.99999988082737 8.49999999999881 8.00000007448415
vertex 5.12940940337861 8.48296291314326 8.000000076412
endloop
endfacet
facet normal -0.231494798150032 0.863950323522181 0.447213592051263
outer loop
vertex 4.74118085062228 8.96592582628791 7.00000007062839
vertex 4.99999988082737 8.49999999999881 8.00000007448415
vertex 4.99999989572481 8.99999999999894 7.00000007448403
endloop
endfacet
facet normal -6.66167015497066e-009 0.894427190999917 0.447213595499957
outer loop
vertex 4.99999988082737 8.49999999999881 8.00000007448415
vertex 4.74118085062228 8.96592582628791 7.00000007062839
vertex 4.87059035827611 8.48296291314345 8.00000007255631
endloop
endfacet
facet normal -0.447213602161655 0.774596669241796 0.447213588837719
outer loop
vertex 4.74999988082735 8.43301270189123 8.00000007075985
vertex 4.74118085062228 8.96592582628791 7.00000007062839
vertex 4.49999989572474 8.86602540378368 7.00000006703546
endloop
endfacet
facet normal -0.231494798150032 0.863950323522181 0.447213592051263
outer loop
vertex 4.74118085062228 8.96592582628791 7.00000007062839
vertex 4.74999988082735 8.43301270189123 8.00000007075985
vertex 4.87059035827611 8.48296291314345 8.00000007255631
endloop
endfacet
facet normal -0.632455538695571 0.632455532034059 0.447213586078074
outer loop
vertex 4.64644649023402 8.35355339059237 8.00000006921722
vertex 4.49999989572474 8.86602540378368 7.00000006703546
vertex 4.29289311453809 8.70710678118565 7.00000006395017
endloop
endfacet
facet normal -0.447213602161657 0.774596669241795 0.447213588837719
outer loop
vertex 4.49999989572474 8.86602540378368 7.00000006703546
vertex 4.64644649023402 8.35355339059237 8.00000006921722
vertex 4.74999988082735 8.43301270189123 8.00000007075985
endloop
endfacet
facet normal -0.774596675903304 0.447213595500683 0.447213583960622
outer loop
vertex 4.13397449194008 8.49999999999939 7.00000006158277
vertex 4.64644649023402 8.35355339059237 8.00000006921722
vertex 4.29289311453809 8.70710678118565 7.00000006395017
endloop
endfacet
facet normal -0.632455538695571 0.632455532034059 0.447213586078074
outer loop
vertex 4.64644649023402 8.35355339059237 8.00000006921722
vertex 4.13397449194008 8.49999999999939 7.00000006158277
vertex 4.566987178935 8.24999999999917 8.00000006803352
endloop
endfacet
facet normal -0.863950330184048 0.231494791489007 0.447213582629525
outer loop
vertex 4.0340740694353 8.25881904510202 7.00000006009459
vertex 4.566987178935 8.24999999999917 8.00000006803352
vertex 4.13397449194008 8.49999999999939 7.00000006158277
endloop
endfacet
facet normal -0.774596675903306 0.447213595500679 0.447213583960622
outer loop
vertex 4.566987178935 8.24999999999917 8.00000006803352
vertex 4.0340740694353 8.25881904510202 7.00000006009459
vertex 4.5170369676826 8.12940952255048 8.00000006728943
endloop
endfacet
facet normal -0.894427197662141 6.66342891908844e-013 0.447213582175509
outer loop
vertex 3.99999989572422 7.9999999999995 7.00000005958705
vertex 4.5170369676826 8.12940952255048 8.00000006728943
vertex 4.0340740694353 8.25881904510202 7.00000006009459
endloop
endfacet
facet normal -0.863950330184054 0.231494791488986 0.447213582629525
outer loop
vertex 4.5170369676826 8.12940952255048 8.00000006728943
vertex 3.99999989572422 7.9999999999995 7.00000005958705
vertex 4.49999988082704 7.99999999999924 8.00000006703565
endloop
endfacet
facet normal -0.863950330184414 -0.231494791487649 0.447213582629521
outer loop
vertex 4.034074069435 7.74118095489704 7.00000006009471
vertex 4.49999988082704 7.99999999999924 8.00000006703565
vertex 3.99999989572422 7.9999999999995 7.00000005958705
endloop
endfacet
facet normal -0.894427197662141 6.44196385639258e-013 0.447213582175508
outer loop
vertex 4.49999988082704 7.99999999999924 8.00000006703565
vertex 4.034074069435 7.74118095489704 7.00000006009471
vertex 4.51703696768241 7.87059047744798 8.00000006728949
endloop
endfacet
facet normal -0.863950330184414 -0.231494791487649 0.447213582629521
outer loop
vertex 4.034074069435 7.74118095489704 7.00000006009471
vertex 4.56698717893462 7.74999999999922 8.00000006803364
vertex 4.51703696768241 7.87059047744798 8.00000006728949
endloop
endfacet
facet normal -0.774596675904161 -0.447213595499153 0.447213583960667
outer loop
vertex 4.56698717893462 7.74999999999922 8.00000006803364
vertex 4.034074069435 7.74118095489704 7.00000006009471
vertex 4.13397449193947 7.49999999999944 7.00000006158301
endloop
endfacet
facet normal -0.774596675904167 -0.447213595499142 0.447213583960667
outer loop
vertex 4.13397449193947 7.49999999999944 7.00000006158301
vertex 4.64644649023348 7.64644660940589 8.00000006921739
vertex 4.56698717893462 7.74999999999922 8.00000006803364
endloop
endfacet
facet normal -0.632455538696264 -0.63245553203324 0.447213586078251
outer loop
vertex 4.64644649023348 7.64644660940589 8.00000006921739
vertex 4.13397449193947 7.49999999999944 7.00000006158301
vertex 4.29289311453725 7.29289321881255 7.00000006395053
endloop
endfacet
facet normal -0.447213602162757 -0.774596669241122 0.447213588837786
outer loop
vertex 4.74999988082669 7.56698729810687 8.00000007076007
vertex 4.29289311453725 7.29289321881255 7.00000006395053
vertex 4.4999998957237 7.13397459621481 7.00000006703586
endloop
endfacet
facet normal -0.632455538696262 -0.632455532033242 0.447213586078251
outer loop
vertex 4.29289311453725 7.29289321881255 7.00000006395053
vertex 4.74999988082669 7.56698729810687 8.00000007076007
vertex 4.64644649023348 7.64644660940589 8.00000006921739
endloop
endfacet
facet normal -0.231494798151127 -0.863950323521775 0.447213592051482
outer loop
vertex 4.87059035827538 7.51703708685448 8.00000007255655
vertex 4.4999998957237 7.13397459621481 7.00000006703586
vertex 4.74118085062112 7.03407417370975 7.00000007062881
endloop
endfacet
facet normal -0.447213602162756 -0.774596669241122 0.447213588837786
outer loop
vertex 4.4999998957237 7.13397459621481 7.00000006703586
vertex 4.87059035827538 7.51703708685448 8.00000007255655
vertex 4.74999988082669 7.56698729810687 8.00000007076007
endloop
endfacet
facet normal -6.66280106166485e-009 -0.894427190999875 0.44721359550004
outer loop
vertex 4.99999989572362 6.99999999999895 7.00000007448454
vertex 4.87059035827538 7.51703708685448 8.00000007255655
vertex 4.74118085062112 7.03407417370975 7.00000007062881
endloop
endfacet
facet normal -0.231494798151127 -0.863950323521775 0.447213592051482
outer loop
vertex 4.87059035827538 7.51703708685448 8.00000007255655
vertex 4.99999989572362 6.99999999999895 7.00000007448454
vertex 4.99999988082661 7.49999999999891 8.0000000744844
endloop
endfacet
facet normal 0.231494784825302 -0.863950323522126 0.447213598948759
outer loop
vertex 5.12940940337787 7.51703708685428 8.00000007641224
vertex 4.99999989572362 6.99999999999895 7.00000007448454
vertex 5.25881894082616 7.03407417370944 7.00000007834018
endloop
endfacet
facet normal -6.66280106166485e-009 -0.894427190999875 0.44721359550004
outer loop
vertex 4.99999989572362 6.99999999999895 7.00000007448454
vertex 5.12940940337787 7.51703708685428 8.00000007641224
vertex 4.99999988082661 7.49999999999891 8.0000000744844
endloop
endfacet
facet normal 0.447213588837247 -0.774596669241669 0.447213602162347
outer loop
vertex 5.4999998957237 7.13397459621403 7.00000008193309
vertex 5.12940940337787 7.51703708685428 8.00000007641224
vertex 5.25881894082616 7.03407417370944 7.00000007834018
endloop
endfacet
facet normal 0.231494784825302 -0.863950323522126 0.447213598948759
outer loop
vertex 5.12940940337787 7.51703708685428 8.00000007641224
vertex 5.4999998957237 7.13397459621403 7.00000008193309
vertex 5.24999988082664 7.5669872981065 8.00000007820869
endloop
endfacet
facet normal -1.48972442218838e-008 2.50170301623852e-013 1.0
outer loop
vertex 15.4829627939716 8.12940952254402 8.00000023065135
vertex 15.4829627939714 7.87059047744152 8.00000023065141
vertex 15.4999998808269 7.99999999999276 8.00000023090518
endloop
endfacet
facet normal -1.48972442218838e-008 2.50170301623852e-013 1.0
outer loop
vertex 15.4829627939714 7.87059047744152 8.00000023065141
vertex 15.4829627939716 8.12940952254402 8.00000023065135
vertex 15.4330125827194 8.24999999999278 8.0000002299072
endloop
endfacet
facet normal -1.48972442218838e-008 2.50170301623852e-013 1.0
outer loop
vertex 15.4829627939714 7.87059047744152 8.00000023065141
vertex 15.4330125827194 8.24999999999278 8.0000002299072
vertex 15.433012582719 7.74999999999283 8.00000022990732
endloop
endfacet
facet normal -1.48972442218838e-008 2.50170301623852e-013 1.0
outer loop
vertex 15.433012582719 7.74999999999283 8.00000022990732
vertex 15.4330125827194 8.24999999999278 8.0000002299072
vertex 15.3535532714205 8.35355339058611 8.00000022872344
endloop
endfacet
facet normal -1.48972442218838e-008 2.50170301623852e-013 1.0
outer loop
vertex 15.433012582719 7.74999999999283 8.00000022990732
vertex 15.3535532714205 8.35355339058611 8.00000022872344
vertex 15.35355327142 7.64644660939963 8.00000022872362
endloop
endfacet
facet normal -1.48972442218838e-008 2.50170301623852e-013 1.0
outer loop
vertex 15.35355327142 7.64644660939963 8.00000022872362
vertex 15.3535532714205 8.35355339058611 8.00000022872344
vertex 15.2499998808273 8.43301270188512 8.00000022718076
endloop
endfacet
facet normal -1.48972442218838e-008 2.50170301623852e-013 1.0
outer loop
vertex 15.35355327142 7.64644660939963 8.00000022872362
vertex 15.2499998808273 8.43301270188512 8.00000022718076
vertex 15.2499998808266 7.56698729810077 8.00000022718098
endloop
endfacet
facet normal -1.48972442218838e-008 2.50170301623852e-013 1.0
outer loop
vertex 15.2499998808266 7.56698729810077 8.00000022718098
vertex 15.2499998808273 8.43301270188512 8.00000022718076
vertex 15.1294094033786 8.48296291313753 8.00000022538429
endloop
endfacet
facet normal -1.48972442218838e-008 2.50170301623852e-013 1.0
outer loop
vertex 15.2499998808266 7.56698729810077 8.00000022718098
vertex 15.1294094033786 8.48296291313753 8.00000022538429
vertex 15.1294094033779 7.51703708684855 8.00000022538453
endloop
endfacet
facet normal -1.48972442218838e-008 2.50170301623852e-013 1.0
outer loop
vertex 15.1294094033779 7.51703708684855 8.00000022538453
vertex 15.1294094033786 8.48296291313753 8.00000022538429
vertex 14.9999998808274 8.49999999999309 8.00000022345644
endloop
endfacet
facet normal -1.48972442218838e-008 2.50170301623852e-013 1.0
outer loop
vertex 15.1294094033779 7.51703708684855 8.00000022538453
vertex 14.9999998808274 8.49999999999309 8.00000022345644
vertex 14.9999998808266 7.49999999999318 8.00000022345669
endloop
endfacet
facet normal -1.48972442218838e-008 2.50170301623852e-013 1.0
outer loop
vertex 14.9999998808266 7.49999999999318 8.00000022345669
vertex 14.9999998808274 8.49999999999309 8.00000022345644
vertex 14.8705903582761 8.48296291313772 8.0000002215286
endloop
endfacet
facet normal -1.48972442218838e-008 2.50170301623852e-013 1.0
outer loop
vertex 14.9999998808266 7.49999999999318 8.00000022345669
vertex 14.8705903582761 8.48296291313772 8.0000002215286
vertex 14.8705903582754 7.51703708684875 8.00000022152884
endloop
endfacet
facet normal -1.48972442218838e-008 2.50170301623852e-013 1.0
outer loop
vertex 14.8705903582754 7.51703708684875 8.00000022152884
vertex 14.8705903582761 8.48296291313772 8.0000002215286
vertex 14.7499998808274 8.4330127018855 8.00000021973214
endloop
endfacet
facet normal -1.48972442218838e-008 2.50170301623852e-013 1.0
outer loop
vertex 14.8705903582754 7.51703708684875 8.00000022152884
vertex 14.7499998808274 8.4330127018855 8.00000021973214
vertex 14.7499998808267 7.56698729810115 8.00000021973236
endloop
endfacet
facet normal -1.48972442218838e-008 2.50170301623852e-013 1.0
outer loop
vertex 14.7499998808267 7.56698729810115 8.00000021973236
vertex 14.7499998808274 8.4330127018855 8.00000021973214
vertex 14.646446490234 8.35355339058665 8.0000002181895
endloop
endfacet
facet normal -1.48972442218838e-008 2.50170301623852e-013 1.0
outer loop
vertex 14.7499998808267 7.56698729810115 8.00000021973236
vertex 14.646446490234 8.35355339058665 8.0000002181895
vertex 14.6464464902335 7.64644660940017 8.00000021818968
endloop
endfacet
facet normal -1.48972442218838e-008 2.50170301623852e-013 1.0
outer loop
vertex 14.6464464902335 7.64644660940017 8.00000021818968
vertex 14.646446490234 8.35355339058665 8.0000002181895
vertex 14.566987178935 8.24999999999344 8.00000021700581
endloop
endfacet
facet normal -1.48972442218838e-008 2.50170301623852e-013 1.0
outer loop
vertex 14.6464464902335 7.64644660940017 8.00000021818968
vertex 14.566987178935 8.24999999999344 8.00000021700581
vertex 14.5669871789346 7.74999999999349 8.00000021700593
endloop
endfacet
facet normal -1.48972442218838e-008 2.50170301623852e-013 1.0
outer loop
vertex 14.5669871789346 7.74999999999349 8.00000021700593
vertex 14.566987178935 8.24999999999344 8.00000021700581
vertex 14.5170369676826 8.12940952254475 8.00000021626171
endloop
endfacet
facet normal -1.48972442218838e-008 2.50170301623852e-013 1.0
outer loop
vertex 14.5669871789346 7.74999999999349 8.00000021700593
vertex 14.5170369676826 8.12940952254475 8.00000021626171
vertex 14.5170369676824 7.87059047744225 8.00000021626178
endloop
endfacet
facet normal -1.48972442218838e-008 2.50170301623852e-013 1.0
outer loop
vertex 14.5170369676824 7.87059047744225 8.00000021626178
vertex 14.5170369676826 8.12940952254475 8.00000021626171
vertex 14.499999880827 7.99999999999352 8.00000021600794
endloop
endfacet
facet normal 0.632455525371281 -0.63245553203369 0.447213604921986
outer loop
vertex 15.7071066769103 7.29289321880597 7.00000023399068
vertex 15.2499998808266 7.56698729810077 8.00000022718098
vertex 15.4999998957237 7.13397459620785 7.00000023090538
endloop
endfacet
facet normal 0.447213588837127 -0.774596669241626 0.447213602162542
outer loop
vertex 15.2499998808266 7.56698729810077 8.00000022718098
vertex 15.7071066769103 7.29289321880597 7.00000023399068
vertex 15.35355327142 7.64644660939963 8.00000022872362
endloop
endfacet
facet normal 0.632455525371279 -0.632455532033693 0.447213604921986
outer loop
vertex 15.35355327142 7.64644660939963 8.00000022872362
vertex 15.8660252995084 7.49999999999241 7.00000023635805
vertex 15.433012582719 7.74999999999283 8.00000022990732
endloop
endfacet
facet normal 0.774596662578904 -0.447213595500408 0.447213607039433
outer loop
vertex 15.8660252995084 7.49999999999241 7.00000023635805
vertex 15.35355327142 7.64644660939963 8.00000022872362
vertex 15.7071066769103 7.29289321880597 7.00000023399068
endloop
endfacet
facet normal 0.774596662578889 -0.447213595500434 0.447213607039433
outer loop
vertex 15.433012582719 7.74999999999283 8.00000022990732
vertex 15.9659257220131 7.74118095488961 7.00000023784623
vertex 15.4829627939714 7.87059047744152 8.00000023065141
endloop
endfacet
facet normal 0.863950316859558 -0.231494791488882 0.447213608370529
outer loop
vertex 15.9659257220131 7.74118095488961 7.00000023784623
vertex 15.433012582719 7.74999999999283 8.00000022990732
vertex 15.8660252995084 7.49999999999241 7.00000023635805
endloop
endfacet
facet normal 0.863950316859559 -0.231494791488877 0.447213608370529
outer loop
vertex 15.4829627939714 7.87059047744152 8.00000023065141
vertex 15.9999998957242 7.99999999999212 7.00000023835379
vertex 15.4999998808269 7.99999999999276 8.00000023090518
endloop
endfacet
facet normal 0.894427184337657 -4.71000507789368e-013 0.447213608824475
outer loop
vertex 15.9999998957242 7.99999999999212 7.00000023835379
vertex 15.4829627939714 7.87059047744152 8.00000023065141
vertex 15.9659257220131 7.74118095488961 7.00000023784623
endloop
endfacet
facet normal 0.863950316859923 0.231494791487821 0.447213608370373
outer loop
vertex 15.4829627939716 8.12940952254402 8.00000023065135
vertex 15.9999998957242 7.99999999999212 7.00000023835379
vertex 15.9659257220135 8.25881904509468 7.00000023784611
endloop
endfacet
facet normal 0.894427184337657 -4.71000507789368e-013 0.447213608824475
outer loop
vertex 15.9999998957242 7.99999999999212 7.00000023835379
vertex 15.4829627939716 8.12940952254402 8.00000023065135
vertex 15.4999998808269 7.99999999999276 8.00000023090518
endloop
endfacet
facet normal 0.774596662579586 0.447213595499444 0.447213607039216
outer loop
vertex 15.4330125827194 8.24999999999278 8.0000002299072
vertex 15.9659257220135 8.25881904509468 7.00000023784611
vertex 15.866025299509 8.49999999999236 7.00000023635781
endloop
endfacet
facet normal 0.863950316859922 0.231494791487822 0.447213608370373
outer loop
vertex 15.9659257220135 8.25881904509468 7.00000023784611
vertex 15.4330125827194 8.24999999999278 8.0000002299072
vertex 15.4829627939716 8.12940952254402 8.00000023065135
endloop
endfacet
facet normal 0.632455525371663 0.632455532033532 0.447213604921671
outer loop
vertex 15.3535532714205 8.35355339058611 8.00000022872344
vertex 15.866025299509 8.49999999999236 7.00000023635781
vertex 15.7071066769112 8.70710678117907 7.00000023399032
endloop
endfacet
facet normal 0.774596662579575 0.447213595499463 0.447213607039216
outer loop
vertex 15.866025299509 8.49999999999236 7.00000023635781
vertex 15.3535532714205 8.35355339058611 8.00000022872344
vertex 15.4330125827194 8.24999999999278 8.0000002299072
endloop
endfacet
facet normal 0.447213588838296 0.774596669241283 0.447213602161966
outer loop
vertex 15.4999998957247 8.86602540377681 7.00000023090498
vertex 15.3535532714205 8.35355339058611 8.00000022872344
vertex 15.7071066769112 8.70710678117907 7.00000023399032
endloop
endfacet
facet normal 0.632455525371663 0.632455532033532 0.447213604921671
outer loop
vertex 15.3535532714205 8.35355339058611 8.00000022872344
vertex 15.4999998957247 8.86602540377681 7.00000023090498
vertex 15.2499998808273 8.43301270188512 8.00000022718076
endloop
endfacet
facet normal 0.231494784826926 0.863950323521857 0.447213598948439
outer loop
vertex 15.2588189408273 8.96592582628188 7.00000022731205
vertex 15.2499998808273 8.43301270188512 8.00000022718076
vertex 15.4999998957247 8.86602540377681 7.00000023090498
endloop
endfacet
facet normal 0.447213588838297 0.774596669241283 0.447213602161966
outer loop
vertex 15.2499998808273 8.43301270188512 8.00000022718076
vertex 15.2588189408273 8.96592582628188 7.00000022731205
vertex 15.1294094033786 8.48296291313753 8.00000022538429
endloop
endfacet
facet normal -6.66204099871132e-009 0.894427191 0.44721359549979
outer loop
vertex 14.9999998808274 8.49999999999309 8.00000022345644
vertex 15.2588189408273 8.96592582628188 7.00000022731205
vertex 14.9999998957248 8.99999999999294 7.00000022345632
endloop
endfacet
facet normal 0.231494784826926 0.863950323521857 0.447213598948439
outer loop
vertex 15.2588189408273 8.96592582628188 7.00000022731205
vertex 14.9999998808274 8.49999999999309 8.00000022345644
vertex 15.1294094033786 8.48296291313753 8.00000022538429
endloop
endfacet
facet normal -0.231494798150055 0.863950323522273 0.447213592051075
outer loop
vertex 14.7411808506223 8.96592582628191 7.00000021960067
vertex 14.9999998808274 8.49999999999309 8.00000022345644
vertex 14.9999998957248 8.99999999999294 7.00000022345632
endloop
endfacet
facet normal -6.66204099871132e-009 0.894427191 0.44721359549979
outer loop
vertex 14.9999998808274 8.49999999999309 8.00000022345644
vertex 14.7411808506223 8.96592582628191 7.00000021960067
vertex 14.8705903582761 8.48296291313772 8.0000002215286
endloop
endfacet
facet normal -0.447213602161693 0.774596669241871 0.447213588837551
outer loop
vertex 14.7499998808274 8.4330127018855 8.00000021973214
vertex 14.7411808506223 8.96592582628191 7.00000021960067
vertex 14.4999998957247 8.86602540377768 7.00000021600775
endloop
endfacet
facet normal -0.231494798150055 0.863950323522273 0.447213592051075
outer loop
vertex 14.7411808506223 8.96592582628191 7.00000021960067
vertex 14.7499998808274 8.4330127018855 8.00000021973214
vertex 14.8705903582761 8.48296291313772 8.0000002215286
endloop
endfacet
facet normal -0.63245553869561 0.63245553203412 0.447213586077933
outer loop
vertex 14.646446490234 8.35355339058665 8.0000002181895
vertex 14.4999998957247 8.86602540377768 7.00000021600775
vertex 14.2928931145381 8.70710678117965 7.00000021292245
endloop
endfacet
facet normal -0.44721360216171 0.774596669241862 0.447213588837551
outer loop
vertex 14.4999998957247 8.86602540377768 7.00000021600775
vertex 14.646446490234 8.35355339058665 8.0000002181895
vertex 14.7499998808274 8.4330127018855 8.00000021973214
endloop
endfacet
facet normal -0.77459667590335 0.4472135955007 0.447213583960525
outer loop
vertex 14.1339744919401 8.4999999999934 7.00000021055505
vertex 14.646446490234 8.35355339058665 8.0000002181895
vertex 14.2928931145381 8.70710678117965 7.00000021292245
endloop
endfacet
facet normal -0.63245553869561 0.63245553203412 0.447213586077933
outer loop
vertex 14.646446490234 8.35355339058665 8.0000002181895
vertex 14.1339744919401 8.4999999999934 7.00000021055505
vertex 14.566987178935 8.24999999999344 8.00000021700581
endloop
endfacet
facet normal -0.863950330184078 0.231494791488993 0.447213582629475
outer loop
vertex 14.0340740694353 8.25881904509602 7.00000020906687
vertex 14.566987178935 8.24999999999344 8.00000021700581
vertex 14.1339744919401 8.4999999999934 7.00000021055505
endloop
endfacet
facet normal -0.774596675903336 0.447213595500723 0.447213583960525
outer loop
vertex 14.566987178935 8.24999999999344 8.00000021700581
vertex 14.0340740694353 8.25881904509602 7.00000020906687
vertex 14.5170369676826 8.12940952254475 8.00000021626171
endloop
endfacet
facet normal -0.89442719766214 6.68726673161105e-013 0.447213582175509
outer loop
vertex 13.9999998957242 7.9999999999935 7.00000020855933
vertex 14.5170369676826 8.12940952254475 8.00000021626171
vertex 14.0340740694353 8.25881904509602 7.00000020906687
endloop
endfacet
facet normal -0.863950330184075 0.231494791489005 0.447213582629475
outer loop
vertex 14.5170369676826 8.12940952254475 8.00000021626171
vertex 13.9999998957242 7.9999999999935 7.00000020855933
vertex 14.499999880827 7.99999999999352 8.00000021600794
endloop
endfacet
facet normal -0.89442719766214 6.68726673161105e-013 0.447213582175509
outer loop
vertex 13.9999998957242 7.9999999999935 7.00000020855933
vertex 14.5170369676824 7.87059047744225 8.00000021626178
vertex 14.499999880827 7.99999999999352 8.00000021600794
endloop
endfacet
facet normal -0.863950330184374 -0.231494791487683 0.447213582629582
outer loop
vertex 14.5170369676824 7.87059047744225 8.00000021626178
vertex 13.9999998957242 7.9999999999935 7.00000020855933
vertex 14.034074069435 7.74118095489095 7.00000020906699
endloop
endfacet
facet normal -0.863950330184369 -0.2314947914877 0.447213582629582
outer loop
vertex 14.034074069435 7.74118095489095 7.00000020906699
vertex 14.5669871789346 7.74999999999349 8.00000021700593
vertex 14.5170369676824 7.87059047744225 8.00000021626178
endloop
endfacet
facet normal -0.774596675904101 -0.447213595499162 0.447213583960762
outer loop
vertex 14.5669871789346 7.74999999999349 8.00000021700593
vertex 14.034074069435 7.74118095489095 7.00000020906699
vertex 14.1339744919395 7.49999999999345 7.00000021055529
endloop
endfacet
facet normal -0.774596675904093 -0.447213595499175 0.447213583960762
outer loop
vertex 14.1339744919395 7.49999999999345 7.00000021055529
vertex 14.6464464902335 7.64644660940017 8.00000021818968
vertex 14.5669871789346 7.74999999999349 8.00000021700593
endloop
endfacet
facet normal -0.632455538696232 -0.632455532033178 0.447213586078385
outer loop
vertex 14.6464464902335 7.64644660940017 8.00000021818968
vertex 14.1339744919395 7.49999999999345 7.00000021055529
vertex 14.2928931145373 7.29289321880655 7.00000021292282
endloop
endfacet
facet normal -0.447213602162725 -0.774596669241044 0.447213588837951
outer loop
vertex 14.7499998808267 7.56698729810115 8.00000021973236
vertex 14.2928931145373 7.29289321880655 7.00000021292282
vertex 14.4999998957237 7.13397459620882 7.00000021600815
endloop
endfacet
facet normal -0.632455538696211 -0.632455532033198 0.447213586078385
outer loop
vertex 14.2928931145373 7.29289321880655 7.00000021292282
vertex 14.7499998808267 7.56698729810115 8.00000021973236
vertex 14.6464464902335 7.64644660940017 8.00000021818968
endloop
endfacet
facet normal -0.23149479815111 -0.863950323521684 0.447213592051666
outer loop
vertex 14.8705903582754 7.51703708684875 8.00000022152884
vertex 14.4999998957237 7.13397459620882 7.00000021600815
vertex 14.7411808506211 7.03407417370375 7.00000021960109
endloop
endfacet
facet normal -0.447213602162709 -0.774596669241054 0.447213588837951
outer loop
vertex 14.4999998957237 7.13397459620882 7.00000021600815
vertex 14.8705903582754 7.51703708684875 8.00000022152884
vertex 14.7499998808267 7.56698729810115 8.00000021973236
endloop
endfacet
facet normal -6.66245088604921e-009 -0.894427190999794 0.447213595500202
outer loop
vertex 14.9999998957236 6.99999999999295 7.00000022345682
vertex 14.8705903582754 7.51703708684875 8.00000022152884
vertex 14.7411808506211 7.03407417370375 7.00000021960109
endloop
endfacet
facet normal -0.23149479815111 -0.863950323521684 0.447213592051666
outer loop
vertex 14.8705903582754 7.51703708684875 8.00000022152884
vertex 14.9999998957236 6.99999999999295 7.00000022345682
vertex 14.9999998808266 7.49999999999318 8.00000022345669
endloop
endfacet
facet normal 0.231494784825096 -0.863950323522143 0.447213598948832
outer loop
vertex 15.1294094033779 7.51703708684855 8.00000022538453
vertex 14.9999998957236 6.99999999999295 7.00000022345682
vertex 15.2588189408262 7.03407417370371 7.00000022731246
endloop
endfacet
facet normal -6.66245088604921e-009 -0.894427190999794 0.447213595500202
outer loop
vertex 14.9999998957236 6.99999999999295 7.00000022345682
vertex 15.1294094033779 7.51703708684855 8.00000022538453
vertex 14.9999998808266 7.49999999999318 8.00000022345669
endloop
endfacet
facet normal 0.44721358883712 -0.77459666924163 0.447213602162542
outer loop
vertex 15.4999998957237 7.13397459620785 7.00000023090538
vertex 15.1294094033779 7.51703708684855 8.00000022538453
vertex 15.2588189408262 7.03407417370371 7.00000022731246
endloop
endfacet
facet normal 0.231494784825096 -0.863950323522143 0.447213598948832
outer loop
vertex 15.1294094033779 7.51703708684855 8.00000022538453
vertex 15.4999998957237 7.13397459620785 7.00000023090538
vertex 15.2499998808266 7.56698729810077 8.00000022718098
endloop
endfacet
endsolid SUPPORT_ENDSTOP_Y
