solid TOP_Z
facet normal 4.51194637207664e-016 -1.0 -2.07731225147925e-034
outer loop
vertex 25.0 5.63993296509579e-015 35.0
vertex 12.5 0.0 1.7532433618537e-029
vertex 25.0 5.63993296509579e-015 1.7532433618537e-029
endloop
endfacet
facet normal 4.51194637207664e-016 -1.0 -2.07731225147925e-034
outer loop
vertex 12.5 0.0 1.7532433618537e-029
vertex 25.0 5.63993296509579e-015 35.0
vertex 12.5 0.0 35.0
endloop
endfacet
facet normal -1.0 0.0 0.0
outer loop
vertex -4.93494134445882e-015 67.5 35.0
vertex -4.93494134445882e-015 56.0 5.0
vertex -4.93494134445882e-015 56.0 35.0
endloop
endfacet
facet normal -1.0 0.0 0.0
outer loop
vertex -4.93494134445882e-015 24.0 35.0
vertex -4.93494134445882e-015 12.5 1.7532433618537e-029
vertex -4.93494134445882e-015 12.5 35.0
endloop
endfacet
facet normal -1.0 0.0 0.0
outer loop
vertex -4.93494134445882e-015 12.5 1.7532433618537e-029
vertex -4.93494134445882e-015 24.0 35.0
vertex -4.93494134445882e-015 24.0 5.0
endloop
endfacet
facet normal -1.0 0.0 0.0
outer loop
vertex -4.93494134445882e-015 12.5 1.7532433618537e-029
vertex -4.93494134445882e-015 24.0 5.0
vertex -4.93494134445882e-015 67.5 1.7532433618537e-029
endloop
endfacet
facet normal -1.0 0.0 0.0
outer loop
vertex -4.93494134445882e-015 67.5 1.7532433618537e-029
vertex -4.93494134445882e-015 24.0 5.0
vertex -4.93494134445882e-015 56.0 5.0
endloop
endfacet
facet normal -1.0 0.0 0.0
outer loop
vertex -4.93494134445882e-015 67.5 1.7532433618537e-029
vertex -4.93494134445882e-015 56.0 5.0
vertex -4.93494134445882e-015 67.5 35.0
endloop
endfacet
facet normal -0.0 1.0 -0.0
outer loop
vertex 12.5 80.0 35.0
vertex 25.0 80.0 1.7532433618537e-029
vertex 12.5 80.0 1.7532433618537e-029
endloop
endfacet
facet normal -0.0 1.0 -0.0
outer loop
vertex 25.0 80.0 1.7532433618537e-029
vertex 12.5 80.0 35.0
vertex 25.0 80.0 35.0
endloop
endfacet
facet normal 1.0 -0.0 -0.0
outer loop
vertex 25.0 80.0 1.7532433618537e-029
vertex 25.0 5.63993296509579e-015 35.0
vertex 25.0 5.63993296509579e-015 1.7532433618537e-029
endloop
endfacet
facet normal 1.0 -0.0 -0.0
outer loop
vertex 25.0 5.63993296509579e-015 35.0
vertex 25.0 80.0 1.7532433618537e-029
vertex 25.0 80.0 35.0
endloop
endfacet
facet normal 0.0 0.0 -1.0
outer loop
vertex 12.6703708685547 41.2940952255126 30.0
vertex 12.6703708685547 38.7059047744874 30.0
vertex 12.5 40.0 30.0
endloop
endfacet
facet normal 0.0 0.0 -1.0
outer loop
vertex 12.6703708685547 38.7059047744874 30.0
vertex 12.6703708685547 41.2940952255126 30.0
vertex 13.1698729810778 42.5 30.0
endloop
endfacet
facet normal 0.0 0.0 -1.0
outer loop
vertex 12.6703708685547 38.7059047744874 30.0
vertex 13.1698729810778 42.5 30.0
vertex 13.1698729810778 37.5 30.0
endloop
endfacet
facet normal 0.0 0.0 -1.0
outer loop
vertex 13.1698729810778 37.5 30.0
vertex 13.1698729810778 42.5 30.0
vertex 13.9644660940673 43.5355339059327 30.0
endloop
endfacet
facet normal 0.0 0.0 -1.0
outer loop
vertex 13.1698729810778 37.5 30.0
vertex 13.9644660940673 43.5355339059327 30.0
vertex 13.9644660940673 36.4644660940672 30.0
endloop
endfacet
facet normal 0.0 0.0 -1.0
outer loop
vertex 13.9644660940673 36.4644660940672 30.0
vertex 13.9644660940673 43.5355339059327 30.0
vertex 15.0 44.3301270189222 30.0
endloop
endfacet
facet normal 0.0 0.0 -1.0
outer loop
vertex 13.9644660940673 36.4644660940672 30.0
vertex 15.0 44.3301270189222 30.0
vertex 15.0 35.6698729810778 30.0
endloop
endfacet
facet normal 0.0 0.0 -1.0
outer loop
vertex 15.0 35.6698729810778 30.0
vertex 15.0 44.3301270189222 30.0
vertex 16.2059047744874 44.8296291314453 30.0
endloop
endfacet
facet normal 0.0 0.0 -1.0
outer loop
vertex 15.0 35.6698729810778 30.0
vertex 16.2059047744874 44.8296291314453 30.0
vertex 16.2059047744874 35.1703708685546 30.0
endloop
endfacet
facet normal 0.0 0.0 -1.0
outer loop
vertex 16.2059047744874 35.1703708685546 30.0
vertex 16.2059047744874 44.8296291314453 30.0
vertex 17.5 45.0 30.0
endloop
endfacet
facet normal 0.0 0.0 -1.0
outer loop
vertex 16.2059047744874 35.1703708685546 30.0
vertex 17.5 45.0 30.0
vertex 17.5 35.0 30.0
endloop
endfacet
facet normal 0.0 0.0 -1.0
outer loop
vertex 17.5 35.0 30.0
vertex 17.5 45.0 30.0
vertex 18.7940952255126 44.8296291314453 30.0
endloop
endfacet
facet normal 0.0 0.0 -1.0
outer loop
vertex 17.5 35.0 30.0
vertex 18.7940952255126 44.8296291314453 30.0
vertex 18.7940952255126 35.1703708685546 30.0
endloop
endfacet
facet normal 0.0 0.0 -1.0
outer loop
vertex 18.7940952255126 35.1703708685546 30.0
vertex 18.7940952255126 44.8296291314453 30.0
vertex 20.0 35.6698729810778 30.0
endloop
endfacet
facet normal 0.0 0.0 -1.0
outer loop
vertex 20.0 35.6698729810778 30.0
vertex 18.7940952255126 44.8296291314453 30.0
vertex 20.0 44.3301270189222 30.0
endloop
endfacet
facet normal 0.0 0.0 -1.0
outer loop
vertex 20.0 35.6698729810778 30.0
vertex 20.0 44.3301270189222 30.0
vertex 21.0355339059327 36.4644660940672 30.0
endloop
endfacet
facet normal 0.0 0.0 -1.0
outer loop
vertex 21.0355339059327 36.4644660940672 30.0
vertex 20.0 44.3301270189222 30.0
vertex 21.0355339059327 43.5355339059327 30.0
endloop
endfacet
facet normal 0.0 0.0 -1.0
outer loop
vertex 21.0355339059327 36.4644660940672 30.0
vertex 21.0355339059327 43.5355339059327 30.0
vertex 21.8301270189222 42.5 30.0
endloop
endfacet
facet normal 0.0 0.0 -1.0
outer loop
vertex 21.0355339059327 36.4644660940672 30.0
vertex 21.8301270189222 42.5 30.0
vertex 21.8301270189222 37.5 30.0
endloop
endfacet
facet normal 0.0 0.0 -1.0
outer loop
vertex 21.8301270189222 37.5 30.0
vertex 21.8301270189222 42.5 30.0
vertex 22.3296291314453 38.7059047744874 30.0
endloop
endfacet
facet normal 0.0 0.0 -1.0
outer loop
vertex 22.3296291314453 38.7059047744874 30.0
vertex 21.8301270189222 42.5 30.0
vertex 22.3296291314453 41.2940952255126 30.0
endloop
endfacet
facet normal 0.0 0.0 -1.0
outer loop
vertex 22.3296291314453 38.7059047744874 30.0
vertex 22.3296291314453 41.2940952255126 30.0
vertex 22.5 40.0 30.0
endloop
endfacet
facet normal -0.130526192220045 -0.991444861373811 0.0
outer loop
vertex 18.7940952255126 44.8296291314453 30.0
vertex 17.5 45.0 1.7532433618537e-029
vertex 18.7940952255126 44.8296291314453 1.7532433618537e-029
endloop
endfacet
facet normal -0.130526192220045 -0.991444861373811 0.0
outer loop
vertex 17.5 45.0 1.7532433618537e-029
vertex 18.7940952255126 44.8296291314453 30.0
vertex 17.5 45.0 30.0
endloop
endfacet
facet normal -0.38268343236509 -0.923879532511287 0.0
outer loop
vertex 20.0 44.3301270189222 30.0
vertex 18.7940952255126 44.8296291314453 1.7532433618537e-029
vertex 20.0 44.3301270189222 1.7532433618537e-029
endloop
endfacet
facet normal -0.38268343236509 -0.923879532511287 0.0
outer loop
vertex 18.7940952255126 44.8296291314453 1.7532433618537e-029
vertex 20.0 44.3301270189222 30.0
vertex 18.7940952255126 44.8296291314453 30.0
endloop
endfacet
facet normal -0.608761429008724 -0.793353340291233 0.0
outer loop
vertex 21.0355339059327 43.5355339059327 30.0
vertex 20.0 44.3301270189222 1.7532433618537e-029
vertex 21.0355339059327 43.5355339059327 1.7532433618537e-029
endloop
endfacet
facet normal -0.608761429008724 -0.793353340291233 0.0
outer loop
vertex 20.0 44.3301270189222 1.7532433618537e-029
vertex 21.0355339059327 43.5355339059327 30.0
vertex 20.0 44.3301270189222 30.0
endloop
endfacet
facet normal -0.793353340291235 -0.608761429008721 0.0
outer loop
vertex 21.0355339059327 43.5355339059327 30.0
vertex 21.8301270189222 42.5 1.7532433618537e-029
vertex 21.8301270189222 42.5 30.0
endloop
endfacet
facet normal -0.793353340291235 -0.608761429008721 0.0
outer loop
vertex 21.8301270189222 42.5 1.7532433618537e-029
vertex 21.0355339059327 43.5355339059327 30.0
vertex 21.0355339059327 43.5355339059327 1.7532433618537e-029
endloop
endfacet
facet normal -0.92387953251129 -0.382683432365083 0.0
outer loop
vertex 21.8301270189222 42.5 30.0
vertex 22.3296291314453 41.2940952255126 1.7532433618537e-029
vertex 22.3296291314453 41.2940952255126 30.0
endloop
endfacet
facet normal -0.92387953251129 -0.382683432365083 0.0
outer loop
vertex 22.3296291314453 41.2940952255126 1.7532433618537e-029
vertex 21.8301270189222 42.5 30.0
vertex 21.8301270189222 42.5 1.7532433618537e-029
endloop
endfacet
facet normal -0.99144486137381 -0.130526192220056 0.0
outer loop
vertex 22.3296291314453 41.2940952255126 30.0
vertex 22.5 40.0 1.7532433618537e-029
vertex 22.5 40.0 30.0
endloop
endfacet
facet normal -0.99144486137381 -0.130526192220056 0.0
outer loop
vertex 22.5 40.0 1.7532433618537e-029
vertex 22.3296291314453 41.2940952255126 30.0
vertex 22.3296291314453 41.2940952255126 1.7532433618537e-029
endloop
endfacet
facet normal -0.99144486137381 0.130526192220056 0.0
outer loop
vertex 22.5 40.0 30.0
vertex 22.3296291314453 38.7059047744874 1.7532433618537e-029
vertex 22.3296291314453 38.7059047744874 30.0
endloop
endfacet
facet normal -0.99144486137381 0.130526192220056 0.0
outer loop
vertex 22.3296291314453 38.7059047744874 1.7532433618537e-029
vertex 22.5 40.0 30.0
vertex 22.5 40.0 1.7532433618537e-029
endloop
endfacet
facet normal -0.923879532511284 0.382683432365098 0.0
outer loop
vertex 22.3296291314453 38.7059047744874 30.0
vertex 21.8301270189222 37.5 1.7532433618537e-029
vertex 21.8301270189222 37.5 30.0
endloop
endfacet
facet normal -0.923879532511284 0.382683432365098 0.0
outer loop
vertex 21.8301270189222 37.5 1.7532433618537e-029
vertex 22.3296291314453 38.7059047744874 30.0
vertex 22.3296291314453 38.7059047744874 1.7532433618537e-029
endloop
endfacet
facet normal -0.79335334029124 0.608761429008714 0.0
outer loop
vertex 21.8301270189222 37.5 30.0
vertex 21.0355339059327 36.4644660940672 1.7532433618537e-029
vertex 21.0355339059327 36.4644660940672 30.0
endloop
endfacet
facet normal -0.79335334029124 0.608761429008714 0.0
outer loop
vertex 21.0355339059327 36.4644660940672 1.7532433618537e-029
vertex 21.8301270189222 37.5 30.0
vertex 21.8301270189222 37.5 1.7532433618537e-029
endloop
endfacet
facet normal -0.608761429008715 0.793353340291239 -0.0
outer loop
vertex 20.0 35.6698729810778 30.0
vertex 21.0355339059327 36.4644660940672 1.7532433618537e-029
vertex 20.0 35.6698729810778 1.7532433618537e-029
endloop
endfacet
facet normal -0.608761429008715 0.793353340291239 -0.0
outer loop
vertex 21.0355339059327 36.4644660940672 1.7532433618537e-029
vertex 20.0 35.6698729810778 30.0
vertex 21.0355339059327 36.4644660940672 30.0
endloop
endfacet
facet normal -0.38268343236509 0.923879532511287 -0.0
outer loop
vertex 18.7940952255126 35.1703708685546 30.0
vertex 20.0 35.6698729810778 1.7532433618537e-029
vertex 18.7940952255126 35.1703708685546 1.7532433618537e-029
endloop
endfacet
facet normal -0.38268343236509 0.923879532511287 -0.0
outer loop
vertex 20.0 35.6698729810778 1.7532433618537e-029
vertex 18.7940952255126 35.1703708685546 30.0
vertex 20.0 35.6698729810778 30.0
endloop
endfacet
facet normal -0.130526192220056 0.99144486137381 -0.0
outer loop
vertex 17.5 35.0 30.0
vertex 18.7940952255126 35.1703708685546 1.7532433618537e-029
vertex 17.5 35.0 1.7532433618537e-029
endloop
endfacet
facet normal -0.130526192220056 0.99144486137381 -0.0
outer loop
vertex 18.7940952255126 35.1703708685546 1.7532433618537e-029
vertex 17.5 35.0 30.0
vertex 18.7940952255126 35.1703708685546 30.0
endloop
endfacet
facet normal 0.130526192220057 0.99144486137381 -0.0
outer loop
vertex 16.2059047744874 35.1703708685546 30.0
vertex 17.5 35.0 1.7532433618537e-029
vertex 16.2059047744874 35.1703708685546 1.7532433618537e-029
endloop
endfacet
facet normal 0.130526192220057 0.99144486137381 -0.0
outer loop
vertex 17.5 35.0 1.7532433618537e-029
vertex 16.2059047744874 35.1703708685546 30.0
vertex 17.5 35.0 30.0
endloop
endfacet
facet normal 0.382683432365092 0.923879532511286 -0.0
outer loop
vertex 15.0 35.6698729810778 30.0
vertex 16.2059047744874 35.1703708685546 1.7532433618537e-029
vertex 15.0 35.6698729810778 1.7532433618537e-029
endloop
endfacet
facet normal 0.382683432365092 0.923879532511286 -0.0
outer loop
vertex 16.2059047744874 35.1703708685546 1.7532433618537e-029
vertex 15.0 35.6698729810778 30.0
vertex 16.2059047744874 35.1703708685546 30.0
endloop
endfacet
facet normal 0.608761429008726 0.793353340291231 -0.0
outer loop
vertex 13.9644660940673 36.4644660940672 30.0
vertex 15.0 35.6698729810778 1.7532433618537e-029
vertex 13.9644660940673 36.4644660940672 1.7532433618537e-029
endloop
endfacet
facet normal 0.608761429008726 0.793353340291231 -0.0
outer loop
vertex 15.0 35.6698729810778 1.7532433618537e-029
vertex 13.9644660940673 36.4644660940672 30.0
vertex 15.0 35.6698729810778 30.0
endloop
endfacet
facet normal 0.793353340291234 0.608761429008722 -0.0
outer loop
vertex 13.1698729810778 37.5 1.7532433618537e-029
vertex 13.9644660940673 36.4644660940672 30.0
vertex 13.9644660940673 36.4644660940672 1.7532433618537e-029
endloop
endfacet
facet normal 0.793353340291234 0.608761429008722 -0.0
outer loop
vertex 13.9644660940673 36.4644660940672 30.0
vertex 13.1698729810778 37.5 1.7532433618537e-029
vertex 13.1698729810778 37.5 30.0
endloop
endfacet
facet normal 0.923879532511288 0.382683432365087 -0.0
outer loop
vertex 12.6703708685547 38.7059047744874 1.7532433618537e-029
vertex 13.1698729810778 37.5 30.0
vertex 13.1698729810778 37.5 1.7532433618537e-029
endloop
endfacet
facet normal 0.923879532511288 0.382683432365087 -0.0
outer loop
vertex 13.1698729810778 37.5 30.0
vertex 12.6703708685547 38.7059047744874 1.7532433618537e-029
vertex 12.6703708685547 38.7059047744874 30.0
endloop
endfacet
facet normal 0.99144486137381 0.130526192220056 -0.0
outer loop
vertex 12.5 40.0 1.7532433618537e-029
vertex 12.6703708685547 38.7059047744874 30.0
vertex 12.6703708685547 38.7059047744874 1.7532433618537e-029
endloop
endfacet
facet normal 0.99144486137381 0.130526192220056 -0.0
outer loop
vertex 12.6703708685547 38.7059047744874 30.0
vertex 12.5 40.0 1.7532433618537e-029
vertex 12.5 40.0 30.0
endloop
endfacet
facet normal 0.99144486137381 -0.130526192220055 -0.0
outer loop
vertex 12.6703708685547 41.2940952255126 1.7532433618537e-029
vertex 12.5 40.0 30.0
vertex 12.5 40.0 1.7532433618537e-029
endloop
endfacet
facet normal 0.99144486137381 -0.130526192220055 -0.0
outer loop
vertex 12.5 40.0 30.0
vertex 12.6703708685547 41.2940952255126 1.7532433618537e-029
vertex 12.6703708685547 41.2940952255126 30.0
endloop
endfacet
facet normal 0.923879532511288 -0.382683432365087 -0.0
outer loop
vertex 13.1698729810778 42.5 1.7532433618537e-029
vertex 12.6703708685547 41.2940952255126 30.0
vertex 12.6703708685547 41.2940952255126 1.7532433618537e-029
endloop
endfacet
facet normal 0.923879532511288 -0.382683432365087 -0.0
outer loop
vertex 12.6703708685547 41.2940952255126 30.0
vertex 13.1698729810778 42.5 1.7532433618537e-029
vertex 13.1698729810778 42.5 30.0
endloop
endfacet
facet normal 0.793353340291234 -0.608761429008722 -0.0
outer loop
vertex 13.9644660940673 43.5355339059327 1.7532433618537e-029
vertex 13.1698729810778 42.5 30.0
vertex 13.1698729810778 42.5 1.7532433618537e-029
endloop
endfacet
facet normal 0.793353340291234 -0.608761429008722 -0.0
outer loop
vertex 13.1698729810778 42.5 30.0
vertex 13.9644660940673 43.5355339059327 1.7532433618537e-029
vertex 13.9644660940673 43.5355339059327 30.0
endloop
endfacet
facet normal 0.608761429008726 -0.793353340291231 0.0
outer loop
vertex 15.0 44.3301270189222 30.0
vertex 13.9644660940673 43.5355339059327 1.7532433618537e-029
vertex 15.0 44.3301270189222 1.7532433618537e-029
endloop
endfacet
facet normal 0.608761429008726 -0.793353340291231 0.0
outer loop
vertex 13.9644660940673 43.5355339059327 1.7532433618537e-029
vertex 15.0 44.3301270189222 30.0
vertex 13.9644660940673 43.5355339059327 30.0
endloop
endfacet
facet normal 0.382683432365092 -0.923879532511286 0.0
outer loop
vertex 16.2059047744874 44.8296291314453 30.0
vertex 15.0 44.3301270189222 1.7532433618537e-029
vertex 16.2059047744874 44.8296291314453 1.7532433618537e-029
endloop
endfacet
facet normal 0.382683432365092 -0.923879532511286 0.0
outer loop
vertex 15.0 44.3301270189222 1.7532433618537e-029
vertex 16.2059047744874 44.8296291314453 30.0
vertex 15.0 44.3301270189222 30.0
endloop
endfacet
facet normal 0.130526192220048 -0.991444861373811 0.0
outer loop
vertex 17.5 45.0 30.0
vertex 16.2059047744874 44.8296291314453 1.7532433618537e-029
vertex 17.5 45.0 1.7532433618537e-029
endloop
endfacet
facet normal 0.130526192220048 -0.991444861373811 0.0
outer loop
vertex 16.2059047744874 44.8296291314453 1.7532433618537e-029
vertex 17.5 45.0 30.0
vertex 16.2059047744874 44.8296291314453 30.0
endloop
endfacet
facet normal -4.98180968557974e-017 1.21130076607032e-032 1.0
outer loop
vertex 12.5 0.0 35.0
vertex -4.93494134445882e-015 24.0 35.0
vertex -4.93494134445882e-015 12.5 35.0
endloop
endfacet
facet normal -4.98180968557974e-017 1.21130076607032e-032 1.0
outer loop
vertex -4.93494134445882e-015 24.0 35.0
vertex 12.5 0.0 35.0
vertex 4.5 19.0 35.0
endloop
endfacet
facet normal -4.98180968557974e-017 1.21130076607032e-032 1.0
outer loop
vertex 4.5 19.0 35.0
vertex 12.5 0.0 35.0
vertex 10.6 19.0 35.0
endloop
endfacet
facet normal -4.98180968557974e-017 1.21130076607032e-032 1.0
outer loop
vertex 10.6 19.0 35.0
vertex 12.5 0.0 35.0
vertex 10.6 61.0 35.0
endloop
endfacet
facet normal -4.98180968557974e-017 1.21130076607032e-032 1.0
outer loop
vertex 4.5 56.0 35.0
vertex -4.93494134445882e-015 67.5 35.0
vertex -4.93494134445882e-015 56.0 35.0
endloop
endfacet
facet normal -4.98180968557974e-017 1.21130076607032e-032 1.0
outer loop
vertex -4.93494134445882e-015 67.5 35.0
vertex 4.5 56.0 35.0
vertex 4.5 61.0 35.0
endloop
endfacet
facet normal -4.98180968557974e-017 1.21130076607032e-032 1.0
outer loop
vertex -4.93494134445882e-015 67.5 35.0
vertex 4.5 61.0 35.0
vertex 12.5 80.0 35.0
endloop
endfacet
facet normal -4.98180968557974e-017 1.21130076607032e-032 1.0
outer loop
vertex 12.5 80.0 35.0
vertex 4.5 61.0 35.0
vertex 10.6 61.0 35.0
endloop
endfacet
facet normal -4.98180968557974e-017 1.21130076607032e-032 1.0
outer loop
vertex 12.5 80.0 35.0
vertex 10.6 61.0 35.0
vertex 12.5 0.0 35.0
endloop
endfacet
facet normal -4.98180968557974e-017 1.21130076607032e-032 1.0
outer loop
vertex 12.5 80.0 35.0
vertex 12.5 0.0 35.0
vertex 25.0 5.63993296509579e-015 35.0
endloop
endfacet
facet normal -4.98180968557974e-017 1.21130076607032e-032 1.0
outer loop
vertex 12.5 80.0 35.0
vertex 25.0 5.63993296509579e-015 35.0
vertex 25.0 80.0 35.0
endloop
endfacet
facet normal -4.98180968557974e-017 1.21130076607032e-032 1.0
outer loop
vertex 4.5 24.0 35.0
vertex -4.93494134445882e-015 24.0 35.0
vertex 4.5 19.0 35.0
endloop
endfacet
facet normal -0.0 -0.0 1.0
outer loop
vertex 10.6 19.0 5.0
vertex 4.5 24.0 5.0
vertex 4.5 19.0 5.0
endloop
endfacet
facet normal -0.0 -0.0 1.0
outer loop
vertex 4.5 24.0 5.0
vertex 10.6 19.0 5.0
vertex 4.5 56.0 5.0
endloop
endfacet
facet normal -0.0 -0.0 1.0
outer loop
vertex 4.5 56.0 5.0
vertex 10.6 19.0 5.0
vertex 4.5 61.0 5.0
endloop
endfacet
facet normal -0.0 -0.0 1.0
outer loop
vertex 4.5 61.0 5.0
vertex 10.6 19.0 5.0
vertex 10.6 61.0 5.0
endloop
endfacet
facet normal -0.0 -0.0 1.0
outer loop
vertex 4.5 24.0 5.0
vertex -4.93494134445882e-015 56.0 5.0
vertex -4.93494134445882e-015 24.0 5.0
endloop
endfacet
facet normal -0.0 -0.0 1.0
outer loop
vertex -4.93494134445882e-015 56.0 5.0
vertex 4.5 24.0 5.0
vertex 4.5 56.0 5.0
endloop
endfacet
facet normal 0.0 1.0 0.0
outer loop
vertex -4.93494134445882e-015 24.0 35.0
vertex 4.5 24.0 5.0
vertex -4.93494134445882e-015 24.0 5.0
endloop
endfacet
facet normal 0.0 1.0 0.0
outer loop
vertex 4.5 24.0 5.0
vertex -4.93494134445882e-015 24.0 35.0
vertex 4.5 24.0 35.0
endloop
endfacet
facet normal 1.0 0.0 0.0
outer loop
vertex 4.5 24.0 5.0
vertex 4.5 19.0 35.0
vertex 4.5 19.0 5.0
endloop
endfacet
facet normal 1.0 0.0 0.0
outer loop
vertex 4.5 19.0 35.0
vertex 4.5 24.0 5.0
vertex 4.5 24.0 35.0
endloop
endfacet
facet normal -0.0 1.0 -0.0
outer loop
vertex 4.5 19.0 35.0
vertex 10.6 19.0 5.0
vertex 4.5 19.0 5.0
endloop
endfacet
facet normal -0.0 1.0 -0.0
outer loop
vertex 10.6 19.0 5.0
vertex 4.5 19.0 35.0
vertex 10.6 19.0 35.0
endloop
endfacet
facet normal -1.0 0.0 0.0
outer loop
vertex 10.6 61.0 35.0
vertex 10.6 19.0 5.0
vertex 10.6 19.0 35.0
endloop
endfacet
facet normal -1.0 0.0 0.0
outer loop
vertex 10.6 19.0 5.0
vertex 10.6 61.0 35.0
vertex 10.6 61.0 5.0
endloop
endfacet
facet normal 0.0 -1.0 0.0
outer loop
vertex 10.6 61.0 35.0
vertex 4.5 61.0 5.0
vertex 10.6 61.0 5.0
endloop
endfacet
facet normal 0.0 -1.0 0.0
outer loop
vertex 4.5 61.0 5.0
vertex 10.6 61.0 35.0
vertex 4.5 61.0 35.0
endloop
endfacet
facet normal 1.0 0.0 0.0
outer loop
vertex 4.5 61.0 5.0
vertex 4.5 56.0 35.0
vertex 4.5 56.0 5.0
endloop
endfacet
facet normal 1.0 0.0 0.0
outer loop
vertex 4.5 56.0 35.0
vertex 4.5 61.0 5.0
vertex 4.5 61.0 35.0
endloop
endfacet
facet normal 0.0 -1.0 0.0
outer loop
vertex 4.5 56.0 35.0
vertex -4.93494134445882e-015 56.0 5.0
vertex 4.5 56.0 5.0
endloop
endfacet
facet normal 0.0 -1.0 0.0
outer loop
vertex -4.93494134445882e-015 56.0 5.0
vertex 4.5 56.0 35.0
vertex -4.93494134445882e-015 56.0 35.0
endloop
endfacet
facet normal 0.0 0.0 -1.0
outer loop
vertex 12.5 40.0 1.7532433618537e-029
vertex 13.3176762068336 18.7785178708789 1.7532433618537e-029
vertex 11.75 18.1291651245988 1.7532433618537e-029
endloop
endfacet
facet normal 0.0 0.0 -1.0
outer loop
vertex 13.3176762068336 18.7785178708789 1.7532433618537e-029
vertex 12.5 40.0 1.7532433618537e-029
vertex 12.6703708685547 38.7059047744874 1.7532433618537e-029
endloop
endfacet
facet normal 0.0 0.0 -1.0
outer loop
vertex 13.3176762068336 18.7785178708789 1.7532433618537e-029
vertex 12.6703708685547 38.7059047744874 1.7532433618537e-029
vertex 13.1698729810778 37.5 1.7532433618537e-029
endloop
endfacet
facet normal 0.0 0.0 -1.0
outer loop
vertex 13.3176762068336 18.7785178708789 1.7532433618537e-029
vertex 13.1698729810778 37.5 1.7532433618537e-029
vertex 13.9644660940673 36.4644660940672 1.7532433618537e-029
endloop
endfacet
facet normal 0.0 0.0 -1.0
outer loop
vertex 13.3176762068336 18.7785178708789 1.7532433618537e-029
vertex 13.9644660940673 36.4644660940672 1.7532433618537e-029
vertex 15.0 19.0 1.7532433618537e-029
endloop
endfacet
facet normal 0.0 0.0 -1.0
outer loop
vertex 15.0 19.0 1.7532433618537e-029
vertex 13.9644660940673 36.4644660940672 1.7532433618537e-029
vertex 15.0 35.6698729810778 1.7532433618537e-029
endloop
endfacet
facet normal 0.0 0.0 -1.0
outer loop
vertex 15.0 19.0 1.7532433618537e-029
vertex 15.0 35.6698729810778 1.7532433618537e-029
vertex 16.2059047744874 35.1703708685546 1.7532433618537e-029
endloop
endfacet
facet normal 0.0 0.0 -1.0
outer loop
vertex 15.0 19.0 1.7532433618537e-029
vertex 16.2059047744874 35.1703708685546 1.7532433618537e-029
vertex 16.6823237931664 18.7785178708789 1.7532433618537e-029
endloop
endfacet
facet normal 0.0 0.0 -1.0
outer loop
vertex 16.6823237931664 18.7785178708789 1.7532433618537e-029
vertex 16.2059047744874 35.1703708685546 1.7532433618537e-029
vertex 17.5 35.0 1.7532433618537e-029
endloop
endfacet
facet normal 0.0 0.0 -1.0
outer loop
vertex 16.6823237931664 18.7785178708789 1.7532433618537e-029
vertex 17.5 35.0 1.7532433618537e-029
vertex 18.25 18.1291651245988 1.7532433618537e-029
endloop
endfacet
facet normal 0.0 0.0 -1.0
outer loop
vertex 18.25 18.1291651245988 1.7532433618537e-029
vertex 17.5 35.0 1.7532433618537e-029
vertex 18.7940952255126 35.1703708685546 1.7532433618537e-029
endloop
endfacet
facet normal 0.0 0.0 -1.0
outer loop
vertex 18.25 18.1291651245988 1.7532433618537e-029
vertex 18.7940952255126 35.1703708685546 1.7532433618537e-029
vertex 19.5961940777126 17.0961940777125 1.7532433618537e-029
endloop
endfacet
facet normal 0.0 0.0 -1.0
outer loop
vertex 19.5961940777126 17.0961940777125 1.7532433618537e-029
vertex 18.7940952255126 35.1703708685546 1.7532433618537e-029
vertex 20.0 35.6698729810778 1.7532433618537e-029
endloop
endfacet
facet normal 0.0 0.0 -1.0
outer loop
vertex 19.5961940777126 17.0961940777125 1.7532433618537e-029
vertex 20.0 35.6698729810778 1.7532433618537e-029
vertex 20.6291651245988 15.75 1.7532433618537e-029
endloop
endfacet
facet normal 0.0 0.0 -1.0
outer loop
vertex 20.6291651245988 15.75 1.7532433618537e-029
vertex 20.0 35.6698729810778 1.7532433618537e-029
vertex 21.0355339059327 36.4644660940672 1.7532433618537e-029
endloop
endfacet
facet normal 0.0 0.0 -1.0
outer loop
vertex 20.6291651245988 15.75 1.7532433618537e-029
vertex 21.0355339059327 36.4644660940672 1.7532433618537e-029
vertex 21.2785178708789 14.1823237931664 1.7532433618537e-029
endloop
endfacet
facet normal 0.0 0.0 -1.0
outer loop
vertex 21.2785178708789 14.1823237931664 1.7532433618537e-029
vertex 21.0355339059327 36.4644660940672 1.7532433618537e-029
vertex 21.8301270189222 37.5 1.7532433618537e-029
endloop
endfacet
facet normal 0.0 0.0 -1.0
outer loop
vertex 21.2785178708789 14.1823237931664 1.7532433618537e-029
vertex 21.8301270189222 37.5 1.7532433618537e-029
vertex 21.5 12.5 1.7532433618537e-029
endloop
endfacet
facet normal 0.0 0.0 -1.0
outer loop
vertex -4.93494134445882e-015 67.5 1.7532433618537e-029
vertex 8.72148212912105 69.1823237931664 1.7532433618537e-029
vertex -4.93494134445882e-015 12.5 1.7532433618537e-029
endloop
endfacet
facet normal 0.0 0.0 -1.0
outer loop
vertex 8.72148212912105 69.1823237931664 1.7532433618537e-029
vertex -4.93494134445882e-015 67.5 1.7532433618537e-029
vertex 12.5 80.0 1.7532433618537e-029
endloop
endfacet
facet normal 0.0 0.0 -1.0
outer loop
vertex -4.93494134445882e-015 12.5 1.7532433618537e-029
vertex 8.72148212912105 69.1823237931664 1.7532433618537e-029
vertex 8.49999999999999 67.5 1.7532433618537e-029
endloop
endfacet
facet normal 0.0 0.0 -1.0
outer loop
vertex 8.72148212912105 69.1823237931664 1.7532433618537e-029
vertex 12.5 80.0 1.7532433618537e-029
vertex 9.37083487540114 70.75 1.7532433618537e-029
endloop
endfacet
facet normal 0.0 0.0 -1.0
outer loop
vertex 9.37083487540114 70.75 1.7532433618537e-029
vertex 12.5 80.0 1.7532433618537e-029
vertex 10.4038059222874 72.0961940777126 1.7532433618537e-029
endloop
endfacet
facet normal 0.0 0.0 -1.0
outer loop
vertex 10.4038059222874 72.0961940777126 1.7532433618537e-029
vertex 12.5 80.0 1.7532433618537e-029
vertex 11.75 73.1291651245989 1.7532433618537e-029
endloop
endfacet
facet normal 0.0 0.0 -1.0
outer loop
vertex 11.75 73.1291651245989 1.7532433618537e-029
vertex 12.5 80.0 1.7532433618537e-029
vertex 13.3176762068336 73.7785178708789 1.7532433618537e-029
endloop
endfacet
facet normal 0.0 0.0 -1.0
outer loop
vertex 13.3176762068336 73.7785178708789 1.7532433618537e-029
vertex 12.5 80.0 1.7532433618537e-029
vertex 25.0 80.0 1.7532433618537e-029
endloop
endfacet
facet normal 0.0 0.0 -1.0
outer loop
vertex 13.3176762068336 73.7785178708789 1.7532433618537e-029
vertex 25.0 80.0 1.7532433618537e-029
vertex 15.0 74.0 1.7532433618537e-029
endloop
endfacet
facet normal 0.0 0.0 -1.0
outer loop
vertex 15.0 74.0 1.7532433618537e-029
vertex 25.0 80.0 1.7532433618537e-029
vertex 16.6823237931664 73.7785178708789 1.7532433618537e-029
endloop
endfacet
facet normal 0.0 0.0 -1.0
outer loop
vertex 16.6823237931664 73.7785178708789 1.7532433618537e-029
vertex 25.0 80.0 1.7532433618537e-029
vertex 18.25 73.1291651245989 1.7532433618537e-029
endloop
endfacet
facet normal 0.0 0.0 -1.0
outer loop
vertex 18.25 73.1291651245989 1.7532433618537e-029
vertex 25.0 80.0 1.7532433618537e-029
vertex 19.5961940777126 72.0961940777126 1.7532433618537e-029
endloop
endfacet
facet normal 0.0 0.0 -1.0
outer loop
vertex 19.5961940777126 72.0961940777126 1.7532433618537e-029
vertex 25.0 80.0 1.7532433618537e-029
vertex 20.6291651245988 70.75 1.7532433618537e-029
endloop
endfacet
facet normal 0.0 0.0 -1.0
outer loop
vertex 20.6291651245988 70.75 1.7532433618537e-029
vertex 25.0 80.0 1.7532433618537e-029
vertex 21.2785178708789 69.1823237931664 1.7532433618537e-029
endloop
endfacet
facet normal 0.0 0.0 -1.0
outer loop
vertex 21.2785178708789 69.1823237931664 1.7532433618537e-029
vertex 25.0 80.0 1.7532433618537e-029
vertex 21.5 67.5 1.7532433618537e-029
endloop
endfacet
facet normal 0.0 0.0 -1.0
outer loop
vertex 21.5 67.5 1.7532433618537e-029
vertex 25.0 80.0 1.7532433618537e-029
vertex 21.8301270189222 42.5 1.7532433618537e-029
endloop
endfacet
facet normal 0.0 0.0 -1.0
outer loop
vertex 21.8301270189222 42.5 1.7532433618537e-029
vertex 25.0 80.0 1.7532433618537e-029
vertex 22.3296291314453 41.2940952255126 1.7532433618537e-029
endloop
endfacet
facet normal 0.0 0.0 -1.0
outer loop
vertex 22.3296291314453 41.2940952255126 1.7532433618537e-029
vertex 25.0 80.0 1.7532433618537e-029
vertex 22.5 40.0 1.7532433618537e-029
endloop
endfacet
facet normal 0.0 0.0 -1.0
outer loop
vertex -4.93494134445882e-015 12.5 1.7532433618537e-029
vertex 8.72148212912105 10.8176762068336 1.7532433618537e-029
vertex 12.5 0.0 1.7532433618537e-029
endloop
endfacet
facet normal 0.0 0.0 -1.0
outer loop
vertex 8.72148212912105 10.8176762068336 1.7532433618537e-029
vertex -4.93494134445882e-015 12.5 1.7532433618537e-029
vertex 8.49999999999999 12.5 1.7532433618537e-029
endloop
endfacet
facet normal 0.0 0.0 -1.0
outer loop
vertex 8.49999999999999 12.5 1.7532433618537e-029
vertex -4.93494134445882e-015 12.5 1.7532433618537e-029
vertex 8.49999999999999 67.5 1.7532433618537e-029
endloop
endfacet
facet normal 0.0 0.0 -1.0
outer loop
vertex 12.5 0.0 1.7532433618537e-029
vertex 8.72148212912105 10.8176762068336 1.7532433618537e-029
vertex 9.37083487540114 9.24999999999999 1.7532433618537e-029
endloop
endfacet
facet normal 0.0 0.0 -1.0
outer loop
vertex 12.5 0.0 1.7532433618537e-029
vertex 9.37083487540114 9.24999999999999 1.7532433618537e-029
vertex 10.4038059222874 7.90380592228743 1.7532433618537e-029
endloop
endfacet
facet normal 0.0 0.0 -1.0
outer loop
vertex 12.5 0.0 1.7532433618537e-029
vertex 10.4038059222874 7.90380592228743 1.7532433618537e-029
vertex 11.75 6.87083487540114 1.7532433618537e-029
endloop
endfacet
facet normal 0.0 0.0 -1.0
outer loop
vertex 12.5 0.0 1.7532433618537e-029
vertex 11.75 6.87083487540114 1.7532433618537e-029
vertex 13.3176762068336 6.22148212912105 1.7532433618537e-029
endloop
endfacet
facet normal 0.0 0.0 -1.0
outer loop
vertex 12.5 0.0 1.7532433618537e-029
vertex 13.3176762068336 6.22148212912105 1.7532433618537e-029
vertex 25.0 5.63993296509579e-015 1.7532433618537e-029
endloop
endfacet
facet normal 0.0 0.0 -1.0
outer loop
vertex 25.0 5.63993296509579e-015 1.7532433618537e-029
vertex 13.3176762068336 6.22148212912105 1.7532433618537e-029
vertex 15.0 5.99999999999999 1.7532433618537e-029
endloop
endfacet
facet normal 0.0 0.0 -1.0
outer loop
vertex 25.0 5.63993296509579e-015 1.7532433618537e-029
vertex 15.0 5.99999999999999 1.7532433618537e-029
vertex 16.6823237931664 6.22148212912104 1.7532433618537e-029
endloop
endfacet
facet normal 0.0 0.0 -1.0
outer loop
vertex 25.0 5.63993296509579e-015 1.7532433618537e-029
vertex 16.6823237931664 6.22148212912104 1.7532433618537e-029
vertex 18.25 6.87083487540114 1.7532433618537e-029
endloop
endfacet
facet normal 0.0 0.0 -1.0
outer loop
vertex 25.0 5.63993296509579e-015 1.7532433618537e-029
vertex 18.25 6.87083487540114 1.7532433618537e-029
vertex 19.5961940777126 7.90380592228743 1.7532433618537e-029
endloop
endfacet
facet normal 0.0 0.0 -1.0
outer loop
vertex 25.0 5.63993296509579e-015 1.7532433618537e-029
vertex 19.5961940777126 7.90380592228743 1.7532433618537e-029
vertex 20.6291651245988 9.24999999999999 1.7532433618537e-029
endloop
endfacet
facet normal 0.0 0.0 -1.0
outer loop
vertex 25.0 5.63993296509579e-015 1.7532433618537e-029
vertex 20.6291651245988 9.24999999999999 1.7532433618537e-029
vertex 21.2785178708789 10.8176762068336 1.7532433618537e-029
endloop
endfacet
facet normal 0.0 0.0 -1.0
outer loop
vertex 25.0 5.63993296509579e-015 1.7532433618537e-029
vertex 21.2785178708789 10.8176762068336 1.7532433618537e-029
vertex 21.5 12.5 1.7532433618537e-029
endloop
endfacet
facet normal 0.0 0.0 -1.0
outer loop
vertex 25.0 5.63993296509579e-015 1.7532433618537e-029
vertex 21.5 12.5 1.7532433618537e-029
vertex 21.8301270189222 37.5 1.7532433618537e-029
endloop
endfacet
facet normal 0.0 0.0 -1.0
outer loop
vertex 25.0 5.63993296509579e-015 1.7532433618537e-029
vertex 21.8301270189222 37.5 1.7532433618537e-029
vertex 22.3296291314453 38.7059047744874 1.7532433618537e-029
endloop
endfacet
facet normal 0.0 0.0 -1.0
outer loop
vertex 25.0 5.63993296509579e-015 1.7532433618537e-029
vertex 22.3296291314453 38.7059047744874 1.7532433618537e-029
vertex 22.5 40.0 1.7532433618537e-029
endloop
endfacet
facet normal 0.0 0.0 -1.0
outer loop
vertex 25.0 5.63993296509579e-015 1.7532433618537e-029
vertex 22.5 40.0 1.7532433618537e-029
vertex 25.0 80.0 1.7532433618537e-029
endloop
endfacet
facet normal 0.0 0.0 -1.0
outer loop
vertex 8.72148212912104 65.8176762068336 1.7532433618537e-029
vertex 8.49999999999999 12.5 1.7532433618537e-029
vertex 8.49999999999999 67.5 1.7532433618537e-029
endloop
endfacet
facet normal 0.0 0.0 -1.0
outer loop
vertex 8.49999999999999 12.5 1.7532433618537e-029
vertex 8.72148212912104 65.8176762068336 1.7532433618537e-029
vertex 8.72148212912105 14.1823237931664 1.7532433618537e-029
endloop
endfacet
facet normal 0.0 0.0 -1.0
outer loop
vertex 8.72148212912105 14.1823237931664 1.7532433618537e-029
vertex 8.72148212912104 65.8176762068336 1.7532433618537e-029
vertex 9.37083487540114 64.25 1.7532433618537e-029
endloop
endfacet
facet normal 0.0 0.0 -1.0
outer loop
vertex 8.72148212912105 14.1823237931664 1.7532433618537e-029
vertex 9.37083487540114 64.25 1.7532433618537e-029
vertex 9.37083487540114 15.75 1.7532433618537e-029
endloop
endfacet
facet normal 0.0 0.0 -1.0
outer loop
vertex 9.37083487540114 15.75 1.7532433618537e-029
vertex 9.37083487540114 64.25 1.7532433618537e-029
vertex 10.4038059222874 62.9038059222874 1.7532433618537e-029
endloop
endfacet
facet normal 0.0 0.0 -1.0
outer loop
vertex 9.37083487540114 15.75 1.7532433618537e-029
vertex 10.4038059222874 62.9038059222874 1.7532433618537e-029
vertex 10.4038059222874 17.0961940777125 1.7532433618537e-029
endloop
endfacet
facet normal 0.0 0.0 -1.0
outer loop
vertex 10.4038059222874 17.0961940777125 1.7532433618537e-029
vertex 10.4038059222874 62.9038059222874 1.7532433618537e-029
vertex 11.75 61.8708348754012 1.7532433618537e-029
endloop
endfacet
facet normal 0.0 0.0 -1.0
outer loop
vertex 10.4038059222874 17.0961940777125 1.7532433618537e-029
vertex 11.75 61.8708348754012 1.7532433618537e-029
vertex 11.75 18.1291651245988 1.7532433618537e-029
endloop
endfacet
facet normal 0.0 0.0 -1.0
outer loop
vertex 11.75 18.1291651245988 1.7532433618537e-029
vertex 11.75 61.8708348754012 1.7532433618537e-029
vertex 12.5 40.0 1.7532433618537e-029
endloop
endfacet
facet normal 0.0 0.0 -1.0
outer loop
vertex 12.5 40.0 1.7532433618537e-029
vertex 11.75 61.8708348754012 1.7532433618537e-029
vertex 13.3176762068336 61.2214821291211 1.7532433618537e-029
endloop
endfacet
facet normal 0.0 0.0 -1.0
outer loop
vertex 12.5 40.0 1.7532433618537e-029
vertex 13.3176762068336 61.2214821291211 1.7532433618537e-029
vertex 12.6703708685547 41.2940952255126 1.7532433618537e-029
endloop
endfacet
facet normal 0.0 0.0 -1.0
outer loop
vertex 12.6703708685547 41.2940952255126 1.7532433618537e-029
vertex 13.3176762068336 61.2214821291211 1.7532433618537e-029
vertex 13.1698729810778 42.5 1.7532433618537e-029
endloop
endfacet
facet normal 0.0 0.0 -1.0
outer loop
vertex 13.1698729810778 42.5 1.7532433618537e-029
vertex 13.3176762068336 61.2214821291211 1.7532433618537e-029
vertex 13.9644660940673 43.5355339059327 1.7532433618537e-029
endloop
endfacet
facet normal 0.0 0.0 -1.0
outer loop
vertex 13.9644660940673 43.5355339059327 1.7532433618537e-029
vertex 13.3176762068336 61.2214821291211 1.7532433618537e-029
vertex 15.0 61.0 1.7532433618537e-029
endloop
endfacet
facet normal 0.0 0.0 -1.0
outer loop
vertex 13.9644660940673 43.5355339059327 1.7532433618537e-029
vertex 15.0 61.0 1.7532433618537e-029
vertex 15.0 44.3301270189222 1.7532433618537e-029
endloop
endfacet
facet normal 0.0 0.0 -1.0
outer loop
vertex 15.0 44.3301270189222 1.7532433618537e-029
vertex 15.0 61.0 1.7532433618537e-029
vertex 16.6823237931664 61.2214821291211 1.7532433618537e-029
endloop
endfacet
facet normal 0.0 0.0 -1.0
outer loop
vertex 15.0 44.3301270189222 1.7532433618537e-029
vertex 16.6823237931664 61.2214821291211 1.7532433618537e-029
vertex 16.2059047744874 44.8296291314453 1.7532433618537e-029
endloop
endfacet
facet normal 0.0 0.0 -1.0
outer loop
vertex 16.2059047744874 44.8296291314453 1.7532433618537e-029
vertex 16.6823237931664 61.2214821291211 1.7532433618537e-029
vertex 17.5 45.0 1.7532433618537e-029
endloop
endfacet
facet normal 0.0 0.0 -1.0
outer loop
vertex 17.5 45.0 1.7532433618537e-029
vertex 16.6823237931664 61.2214821291211 1.7532433618537e-029
vertex 18.25 61.8708348754012 1.7532433618537e-029
endloop
endfacet
facet normal 0.0 0.0 -1.0
outer loop
vertex 17.5 45.0 1.7532433618537e-029
vertex 18.25 61.8708348754012 1.7532433618537e-029
vertex 18.7940952255126 44.8296291314453 1.7532433618537e-029
endloop
endfacet
facet normal 0.0 0.0 -1.0
outer loop
vertex 18.7940952255126 44.8296291314453 1.7532433618537e-029
vertex 18.25 61.8708348754012 1.7532433618537e-029
vertex 19.5961940777126 62.9038059222874 1.7532433618537e-029
endloop
endfacet
facet normal 0.0 0.0 -1.0
outer loop
vertex 18.7940952255126 44.8296291314453 1.7532433618537e-029
vertex 19.5961940777126 62.9038059222874 1.7532433618537e-029
vertex 20.0 44.3301270189222 1.7532433618537e-029
endloop
endfacet
facet normal 0.0 0.0 -1.0
outer loop
vertex 20.0 44.3301270189222 1.7532433618537e-029
vertex 19.5961940777126 62.9038059222874 1.7532433618537e-029
vertex 20.6291651245988 64.25 1.7532433618537e-029
endloop
endfacet
facet normal 0.0 0.0 -1.0
outer loop
vertex 20.0 44.3301270189222 1.7532433618537e-029
vertex 20.6291651245988 64.25 1.7532433618537e-029
vertex 21.0355339059327 43.5355339059327 1.7532433618537e-029
endloop
endfacet
facet normal 0.0 0.0 -1.0
outer loop
vertex 21.0355339059327 43.5355339059327 1.7532433618537e-029
vertex 20.6291651245988 64.25 1.7532433618537e-029
vertex 21.2785178708789 65.8176762068336 1.7532433618537e-029
endloop
endfacet
facet normal 0.0 0.0 -1.0
outer loop
vertex 21.0355339059327 43.5355339059327 1.7532433618537e-029
vertex 21.2785178708789 65.8176762068336 1.7532433618537e-029
vertex 21.8301270189222 42.5 1.7532433618537e-029
endloop
endfacet
facet normal 0.0 0.0 -1.0
outer loop
vertex 21.8301270189222 42.5 1.7532433618537e-029
vertex 21.2785178708789 65.8176762068336 1.7532433618537e-029
vertex 21.5 67.5 1.7532433618537e-029
endloop
endfacet
facet normal -0.707106781186547 0.707106781186548 -0.0
outer loop
vertex -4.93494134445882e-015 67.5 35.0
vertex 12.5 80.0 1.7532433618537e-029
vertex -4.93494134445882e-015 67.5 1.7532433618537e-029
endloop
endfacet
facet normal -0.707106781186547 0.707106781186548 -0.0
outer loop
vertex 12.5 80.0 1.7532433618537e-029
vertex -4.93494134445882e-015 67.5 35.0
vertex 12.5 80.0 35.0
endloop
endfacet
facet normal -0.707106781186547 -0.707106781186548 0.0
outer loop
vertex 12.5 0.0 35.0
vertex -4.93494134445882e-015 12.5 1.7532433618537e-029
vertex 12.5 0.0 1.7532433618537e-029
endloop
endfacet
facet normal -0.707106781186547 -0.707106781186548 0.0
outer loop
vertex -4.93494134445882e-015 12.5 1.7532433618537e-029
vertex 12.5 0.0 35.0
vertex -4.93494134445882e-015 12.5 35.0
endloop
endfacet
facet normal 0.0 0.0 -1.0
outer loop
vertex 8.72148212912105 69.1823237931664 30.0
vertex 8.72148212912104 65.8176762068336 30.0
vertex 8.49999999999999 67.5 30.0
endloop
endfacet
facet normal 0.0 0.0 -1.0
outer loop
vertex 8.72148212912104 65.8176762068336 30.0
vertex 8.72148212912105 69.1823237931664 30.0
vertex 9.37083487540114 64.25 30.0
endloop
endfacet
facet normal 0.0 0.0 -1.0
outer loop
vertex 9.37083487540114 64.25 30.0
vertex 8.72148212912105 69.1823237931664 30.0
vertex 9.37083487540114 70.75 30.0
endloop
endfacet
facet normal 0.0 0.0 -1.0
outer loop
vertex 9.37083487540114 64.25 30.0
vertex 9.37083487540114 70.75 30.0
vertex 10.4038059222874 62.9038059222874 30.0
endloop
endfacet
facet normal 0.0 0.0 -1.0
outer loop
vertex 10.4038059222874 62.9038059222874 30.0
vertex 9.37083487540114 70.75 30.0
vertex 10.4038059222874 72.0961940777126 30.0
endloop
endfacet
facet normal 0.0 0.0 -1.0
outer loop
vertex 10.4038059222874 62.9038059222874 30.0
vertex 10.4038059222874 72.0961940777126 30.0
vertex 11.75 61.8708348754012 30.0
endloop
endfacet
facet normal 0.0 0.0 -1.0
outer loop
vertex 11.75 61.8708348754012 30.0
vertex 10.4038059222874 72.0961940777126 30.0
vertex 11.75 73.1291651245989 30.0
endloop
endfacet
facet normal 0.0 0.0 -1.0
outer loop
vertex 11.75 61.8708348754012 30.0
vertex 11.75 73.1291651245989 30.0
vertex 13.3176762068336 61.2214821291211 30.0
endloop
endfacet
facet normal 0.0 0.0 -1.0
outer loop
vertex 13.3176762068336 61.2214821291211 30.0
vertex 11.75 73.1291651245989 30.0
vertex 13.3176762068336 73.7785178708789 30.0
endloop
endfacet
facet normal 0.0 0.0 -1.0
outer loop
vertex 13.3176762068336 61.2214821291211 30.0
vertex 13.3176762068336 73.7785178708789 30.0
vertex 15.0 61.0 30.0
endloop
endfacet
facet normal 0.0 0.0 -1.0
outer loop
vertex 15.0 61.0 30.0
vertex 13.3176762068336 73.7785178708789 30.0
vertex 15.0 74.0 30.0
endloop
endfacet
facet normal 0.0 0.0 -1.0
outer loop
vertex 15.0 61.0 30.0
vertex 15.0 74.0 30.0
vertex 16.6823237931664 73.7785178708789 30.0
endloop
endfacet
facet normal 0.0 0.0 -1.0
outer loop
vertex 15.0 61.0 30.0
vertex 16.6823237931664 73.7785178708789 30.0
vertex 16.6823237931664 61.2214821291211 30.0
endloop
endfacet
facet normal 0.0 0.0 -1.0
outer loop
vertex 16.6823237931664 61.2214821291211 30.0
vertex 16.6823237931664 73.7785178708789 30.0
vertex 18.25 61.8708348754012 30.0
endloop
endfacet
facet normal 0.0 0.0 -1.0
outer loop
vertex 18.25 61.8708348754012 30.0
vertex 16.6823237931664 73.7785178708789 30.0
vertex 18.25 73.1291651245989 30.0
endloop
endfacet
facet normal 0.0 0.0 -1.0
outer loop
vertex 18.25 61.8708348754012 30.0
vertex 18.25 73.1291651245989 30.0
vertex 19.5961940777126 62.9038059222874 30.0
endloop
endfacet
facet normal 0.0 0.0 -1.0
outer loop
vertex 19.5961940777126 62.9038059222874 30.0
vertex 18.25 73.1291651245989 30.0
vertex 19.5961940777126 72.0961940777126 30.0
endloop
endfacet
facet normal 0.0 0.0 -1.0
outer loop
vertex 19.5961940777126 62.9038059222874 30.0
vertex 19.5961940777126 72.0961940777126 30.0
vertex 20.6291651245988 70.75 30.0
endloop
endfacet
facet normal 0.0 0.0 -1.0
outer loop
vertex 19.5961940777126 62.9038059222874 30.0
vertex 20.6291651245988 70.75 30.0
vertex 20.6291651245988 64.25 30.0
endloop
endfacet
facet normal 0.0 0.0 -1.0
outer loop
vertex 20.6291651245988 64.25 30.0
vertex 20.6291651245988 70.75 30.0
vertex 21.2785178708789 69.1823237931664 30.0
endloop
endfacet
facet normal 0.0 0.0 -1.0
outer loop
vertex 20.6291651245988 64.25 30.0
vertex 21.2785178708789 69.1823237931664 30.0
vertex 21.2785178708789 65.8176762068336 30.0
endloop
endfacet
facet normal 0.0 0.0 -1.0
outer loop
vertex 21.2785178708789 65.8176762068336 30.0
vertex 21.2785178708789 69.1823237931664 30.0
vertex 21.5 67.5 30.0
endloop
endfacet
facet normal 0.130526192220053 0.99144486137381 0.0
outer loop
vertex 13.3176762068336 61.2214821291211 30.0
vertex 15.0 61.0 1.7532433618537e-029
vertex 13.3176762068336 61.2214821291211 1.7532433618537e-029
endloop
endfacet
facet normal 0.130526192220053 0.99144486137381 0.0
outer loop
vertex 15.0 61.0 1.7532433618537e-029
vertex 13.3176762068336 61.2214821291211 30.0
vertex 15.0 61.0 30.0
endloop
endfacet
facet normal 0.382683432365088 0.923879532511287 0.0
outer loop
vertex 11.75 61.8708348754012 30.0
vertex 13.3176762068336 61.2214821291211 1.7532433618537e-029
vertex 11.75 61.8708348754012 1.7532433618537e-029
endloop
endfacet
facet normal 0.382683432365088 0.923879532511287 0.0
outer loop
vertex 13.3176762068336 61.2214821291211 1.7532433618537e-029
vertex 11.75 61.8708348754012 30.0
vertex 13.3176762068336 61.2214821291211 30.0
endloop
endfacet
facet normal 0.608761429008721 0.793353340291235 0.0
outer loop
vertex 10.4038059222874 62.9038059222874 30.0
vertex 11.75 61.8708348754012 1.7532433618537e-029
vertex 10.4038059222874 62.9038059222874 1.7532433618537e-029
endloop
endfacet
facet normal 0.608761429008721 0.793353340291235 0.0
outer loop
vertex 11.75 61.8708348754012 1.7532433618537e-029
vertex 10.4038059222874 62.9038059222874 30.0
vertex 11.75 61.8708348754012 30.0
endloop
endfacet
facet normal 0.793353340291236 0.60876142900872 0.0
outer loop
vertex 9.37083487540114 64.25 1.7532433618537e-029
vertex 10.4038059222874 62.9038059222874 30.0
vertex 10.4038059222874 62.9038059222874 1.7532433618537e-029
endloop
endfacet
facet normal 0.793353340291236 0.60876142900872 0.0
outer loop
vertex 10.4038059222874 62.9038059222874 30.0
vertex 9.37083487540114 64.25 1.7532433618537e-029
vertex 9.37083487540114 64.25 30.0
endloop
endfacet
facet normal 0.923879532511287 0.38268343236509 0.0
outer loop
vertex 8.72148212912104 65.8176762068336 1.7532433618537e-029
vertex 9.37083487540114 64.25 30.0
vertex 9.37083487540114 64.25 1.7532433618537e-029
endloop
endfacet
facet normal 0.923879532511287 0.38268343236509 0.0
outer loop
vertex 9.37083487540114 64.25 30.0
vertex 8.72148212912104 65.8176762068336 1.7532433618537e-029
vertex 8.72148212912104 65.8176762068336 30.0
endloop
endfacet
facet normal 0.99144486137381 0.130526192220051 0.0
outer loop
vertex 8.49999999999999 67.5 1.7532433618537e-029
vertex 8.72148212912104 65.8176762068336 30.0
vertex 8.72148212912104 65.8176762068336 1.7532433618537e-029
endloop
endfacet
facet normal 0.99144486137381 0.130526192220051 0.0
outer loop
vertex 8.72148212912104 65.8176762068336 30.0
vertex 8.49999999999999 67.5 1.7532433618537e-029
vertex 8.49999999999999 67.5 30.0
endloop
endfacet
facet normal 0.99144486137381 -0.130526192220051 -0.0
outer loop
vertex 8.72148212912105 69.1823237931664 1.7532433618537e-029
vertex 8.49999999999999 67.5 30.0
vertex 8.49999999999999 67.5 1.7532433618537e-029
endloop
endfacet
facet normal 0.99144486137381 -0.130526192220051 -0.0
outer loop
vertex 8.49999999999999 67.5 30.0
vertex 8.72148212912105 69.1823237931664 1.7532433618537e-029
vertex 8.72148212912105 69.1823237931664 30.0
endloop
endfacet
facet normal 0.923879532511286 -0.382683432365091 -0.0
outer loop
vertex 9.37083487540114 70.75 1.7532433618537e-029
vertex 8.72148212912105 69.1823237931664 30.0
vertex 8.72148212912105 69.1823237931664 1.7532433618537e-029
endloop
endfacet
facet normal 0.923879532511286 -0.382683432365091 -0.0
outer loop
vertex 8.72148212912105 69.1823237931664 30.0
vertex 9.37083487540114 70.75 1.7532433618537e-029
vertex 9.37083487540114 70.75 30.0
endloop
endfacet
facet normal 0.793353340291234 -0.608761429008722 -0.0
outer loop
vertex 10.4038059222874 72.0961940777126 1.7532433618537e-029
vertex 9.37083487540114 70.75 30.0
vertex 9.37083487540114 70.75 1.7532433618537e-029
endloop
endfacet
facet normal 0.793353340291234 -0.608761429008722 -0.0
outer loop
vertex 9.37083487540114 70.75 30.0
vertex 10.4038059222874 72.0961940777126 1.7532433618537e-029
vertex 10.4038059222874 72.0961940777126 30.0
endloop
endfacet
facet normal 0.608761429008721 -0.793353340291235 -0.0
outer loop
vertex 11.75 73.1291651245989 30.0
vertex 10.4038059222874 72.0961940777126 1.7532433618537e-029
vertex 11.75 73.1291651245989 1.7532433618537e-029
endloop
endfacet
facet normal 0.608761429008721 -0.793353340291235 -0.0
outer loop
vertex 10.4038059222874 72.0961940777126 1.7532433618537e-029
vertex 11.75 73.1291651245989 30.0
vertex 10.4038059222874 72.0961940777126 30.0
endloop
endfacet
facet normal 0.382683432365087 -0.923879532511288 -0.0
outer loop
vertex 13.3176762068336 73.7785178708789 30.0
vertex 11.75 73.1291651245989 1.7532433618537e-029
vertex 13.3176762068336 73.7785178708789 1.7532433618537e-029
endloop
endfacet
facet normal 0.382683432365087 -0.923879532511288 -0.0
outer loop
vertex 11.75 73.1291651245989 1.7532433618537e-029
vertex 13.3176762068336 73.7785178708789 30.0
vertex 11.75 73.1291651245989 30.0
endloop
endfacet
facet normal 0.130526192220054 -0.99144486137381 -0.0
outer loop
vertex 15.0 74.0 30.0
vertex 13.3176762068336 73.7785178708789 1.7532433618537e-029
vertex 15.0 74.0 1.7532433618537e-029
endloop
endfacet
facet normal 0.130526192220054 -0.99144486137381 -0.0
outer loop
vertex 13.3176762068336 73.7785178708789 1.7532433618537e-029
vertex 15.0 74.0 30.0
vertex 13.3176762068336 73.7785178708789 30.0
endloop
endfacet
facet normal -0.130526192220053 -0.99144486137381 -0.0
outer loop
vertex 16.6823237931664 73.7785178708789 30.0
vertex 15.0 74.0 1.7532433618537e-029
vertex 16.6823237931664 73.7785178708789 1.7532433618537e-029
endloop
endfacet
facet normal -0.130526192220053 -0.99144486137381 -0.0
outer loop
vertex 15.0 74.0 1.7532433618537e-029
vertex 16.6823237931664 73.7785178708789 30.0
vertex 15.0 74.0 30.0
endloop
endfacet
facet normal -0.382683432365087 -0.923879532511288 -0.0
outer loop
vertex 18.25 73.1291651245989 30.0
vertex 16.6823237931664 73.7785178708789 1.7532433618537e-029
vertex 18.25 73.1291651245989 1.7532433618537e-029
endloop
endfacet
facet normal -0.382683432365087 -0.923879532511288 -0.0
outer loop
vertex 16.6823237931664 73.7785178708789 1.7532433618537e-029
vertex 18.25 73.1291651245989 30.0
vertex 16.6823237931664 73.7785178708789 30.0
endloop
endfacet
facet normal -0.608761429008721 -0.793353340291235 -0.0
outer loop
vertex 19.5961940777126 72.0961940777126 30.0
vertex 18.25 73.1291651245989 1.7532433618537e-029
vertex 19.5961940777126 72.0961940777126 1.7532433618537e-029
endloop
endfacet
facet normal -0.608761429008721 -0.793353340291235 -0.0
outer loop
vertex 18.25 73.1291651245989 1.7532433618537e-029
vertex 19.5961940777126 72.0961940777126 30.0
vertex 18.25 73.1291651245989 30.0
endloop
endfacet
facet normal -0.793353340291236 -0.608761429008719 -0.0
outer loop
vertex 19.5961940777126 72.0961940777126 30.0
vertex 20.6291651245988 70.75 1.7532433618537e-029
vertex 20.6291651245988 70.75 30.0
endloop
endfacet
facet normal -0.793353340291236 -0.608761429008719 -0.0
outer loop
vertex 20.6291651245988 70.75 1.7532433618537e-029
vertex 19.5961940777126 72.0961940777126 30.0
vertex 19.5961940777126 72.0961940777126 1.7532433618537e-029
endloop
endfacet
facet normal -0.923879532511287 -0.38268343236509 -0.0
outer loop
vertex 20.6291651245988 70.75 30.0
vertex 21.2785178708789 69.1823237931664 1.7532433618537e-029
vertex 21.2785178708789 69.1823237931664 30.0
endloop
endfacet
facet normal -0.923879532511287 -0.38268343236509 -0.0
outer loop
vertex 21.2785178708789 69.1823237931664 1.7532433618537e-029
vertex 20.6291651245988 70.75 30.0
vertex 20.6291651245988 70.75 1.7532433618537e-029
endloop
endfacet
facet normal -0.99144486137381 -0.130526192220052 -0.0
outer loop
vertex 21.2785178708789 69.1823237931664 30.0
vertex 21.5 67.5 1.7532433618537e-029
vertex 21.5 67.5 30.0
endloop
endfacet
facet normal -0.99144486137381 -0.130526192220052 -0.0
outer loop
vertex 21.5 67.5 1.7532433618537e-029
vertex 21.2785178708789 69.1823237931664 30.0
vertex 21.2785178708789 69.1823237931664 1.7532433618537e-029
endloop
endfacet
facet normal -0.99144486137381 0.130526192220052 -0.0
outer loop
vertex 21.5 67.5 30.0
vertex 21.2785178708789 65.8176762068336 1.7532433618537e-029
vertex 21.2785178708789 65.8176762068336 30.0
endloop
endfacet
facet normal -0.99144486137381 0.130526192220052 -0.0
outer loop
vertex 21.2785178708789 65.8176762068336 1.7532433618537e-029
vertex 21.5 67.5 30.0
vertex 21.5 67.5 1.7532433618537e-029
endloop
endfacet
facet normal -0.923879532511288 0.382683432365087 -0.0
outer loop
vertex 21.2785178708789 65.8176762068336 30.0
vertex 20.6291651245988 64.25 1.7532433618537e-029
vertex 20.6291651245988 64.25 30.0
endloop
endfacet
facet normal -0.923879532511288 0.382683432365087 -0.0
outer loop
vertex 20.6291651245988 64.25 1.7532433618537e-029
vertex 21.2785178708789 65.8176762068336 30.0
vertex 21.2785178708789 65.8176762068336 1.7532433618537e-029
endloop
endfacet
facet normal -0.793353340291234 0.608761429008722 -0.0
outer loop
vertex 20.6291651245988 64.25 30.0
vertex 19.5961940777126 62.9038059222874 1.7532433618537e-029
vertex 19.5961940777126 62.9038059222874 30.0
endloop
endfacet
facet normal -0.793353340291234 0.608761429008722 -0.0
outer loop
vertex 19.5961940777126 62.9038059222874 1.7532433618537e-029
vertex 20.6291651245988 64.25 30.0
vertex 20.6291651245988 64.25 1.7532433618537e-029
endloop
endfacet
facet normal -0.608761429008721 0.793353340291235 -0.0
outer loop
vertex 18.25 61.8708348754012 30.0
vertex 19.5961940777126 62.9038059222874 1.7532433618537e-029
vertex 18.25 61.8708348754012 1.7532433618537e-029
endloop
endfacet
facet normal -0.608761429008721 0.793353340291235 -0.0
outer loop
vertex 19.5961940777126 62.9038059222874 1.7532433618537e-029
vertex 18.25 61.8708348754012 30.0
vertex 19.5961940777126 62.9038059222874 30.0
endloop
endfacet
facet normal -0.382683432365087 0.923879532511288 -0.0
outer loop
vertex 16.6823237931664 61.2214821291211 30.0
vertex 18.25 61.8708348754012 1.7532433618537e-029
vertex 16.6823237931664 61.2214821291211 1.7532433618537e-029
endloop
endfacet
facet normal -0.382683432365087 0.923879532511288 -0.0
outer loop
vertex 18.25 61.8708348754012 1.7532433618537e-029
vertex 16.6823237931664 61.2214821291211 30.0
vertex 18.25 61.8708348754012 30.0
endloop
endfacet
facet normal -0.130526192220053 0.99144486137381 -0.0
outer loop
vertex 15.0 61.0 30.0
vertex 16.6823237931664 61.2214821291211 1.7532433618537e-029
vertex 15.0 61.0 1.7532433618537e-029
endloop
endfacet
facet normal -0.130526192220053 0.99144486137381 -0.0
outer loop
vertex 16.6823237931664 61.2214821291211 1.7532433618537e-029
vertex 15.0 61.0 30.0
vertex 16.6823237931664 61.2214821291211 30.0
endloop
endfacet
facet normal 0.0 0.0 -1.0
outer loop
vertex 8.72148212912105 14.1823237931664 30.0
vertex 8.72148212912105 10.8176762068336 30.0
vertex 8.49999999999999 12.5 30.0
endloop
endfacet
facet normal 0.0 0.0 -1.0
outer loop
vertex 8.72148212912105 10.8176762068336 30.0
vertex 8.72148212912105 14.1823237931664 30.0
vertex 9.37083487540114 15.75 30.0
endloop
endfacet
facet normal 0.0 0.0 -1.0
outer loop
vertex 8.72148212912105 10.8176762068336 30.0
vertex 9.37083487540114 15.75 30.0
vertex 9.37083487540114 9.24999999999999 30.0
endloop
endfacet
facet normal 0.0 0.0 -1.0
outer loop
vertex 9.37083487540114 9.24999999999999 30.0
vertex 9.37083487540114 15.75 30.0
vertex 10.4038059222874 7.90380592228743 30.0
endloop
endfacet
facet normal 0.0 0.0 -1.0
outer loop
vertex 10.4038059222874 7.90380592228743 30.0
vertex 9.37083487540114 15.75 30.0
vertex 10.4038059222874 17.0961940777125 30.0
endloop
endfacet
facet normal 0.0 0.0 -1.0
outer loop
vertex 10.4038059222874 7.90380592228743 30.0
vertex 10.4038059222874 17.0961940777125 30.0
vertex 11.75 6.87083487540114 30.0
endloop
endfacet
facet normal 0.0 0.0 -1.0
outer loop
vertex 11.75 6.87083487540114 30.0
vertex 10.4038059222874 17.0961940777125 30.0
vertex 11.75 18.1291651245988 30.0
endloop
endfacet
facet normal 0.0 0.0 -1.0
outer loop
vertex 11.75 6.87083487540114 30.0
vertex 11.75 18.1291651245988 30.0
vertex 13.3176762068336 6.22148212912105 30.0
endloop
endfacet
facet normal 0.0 0.0 -1.0
outer loop
vertex 13.3176762068336 6.22148212912105 30.0
vertex 11.75 18.1291651245988 30.0
vertex 13.3176762068336 18.7785178708789 30.0
endloop
endfacet
facet normal 0.0 0.0 -1.0
outer loop
vertex 13.3176762068336 6.22148212912105 30.0
vertex 13.3176762068336 18.7785178708789 30.0
vertex 15.0 5.99999999999999 30.0
endloop
endfacet
facet normal 0.0 0.0 -1.0
outer loop
vertex 15.0 5.99999999999999 30.0
vertex 13.3176762068336 18.7785178708789 30.0
vertex 15.0 19.0 30.0
endloop
endfacet
facet normal 0.0 0.0 -1.0
outer loop
vertex 15.0 5.99999999999999 30.0
vertex 15.0 19.0 30.0
vertex 16.6823237931664 18.7785178708789 30.0
endloop
endfacet
facet normal 0.0 0.0 -1.0
outer loop
vertex 15.0 5.99999999999999 30.0
vertex 16.6823237931664 18.7785178708789 30.0
vertex 16.6823237931664 6.22148212912104 30.0
endloop
endfacet
facet normal 0.0 0.0 -1.0
outer loop
vertex 16.6823237931664 6.22148212912104 30.0
vertex 16.6823237931664 18.7785178708789 30.0
vertex 18.25 6.87083487540114 30.0
endloop
endfacet
facet normal 0.0 0.0 -1.0
outer loop
vertex 18.25 6.87083487540114 30.0
vertex 16.6823237931664 18.7785178708789 30.0
vertex 18.25 18.1291651245988 30.0
endloop
endfacet
facet normal 0.0 0.0 -1.0
outer loop
vertex 18.25 6.87083487540114 30.0
vertex 18.25 18.1291651245988 30.0
vertex 19.5961940777126 7.90380592228743 30.0
endloop
endfacet
facet normal 0.0 0.0 -1.0
outer loop
vertex 19.5961940777126 7.90380592228743 30.0
vertex 18.25 18.1291651245988 30.0
vertex 19.5961940777126 17.0961940777125 30.0
endloop
endfacet
facet normal 0.0 0.0 -1.0
outer loop
vertex 19.5961940777126 7.90380592228743 30.0
vertex 19.5961940777126 17.0961940777125 30.0
vertex 20.6291651245988 9.24999999999999 30.0
endloop
endfacet
facet normal 0.0 0.0 -1.0
outer loop
vertex 20.6291651245988 9.24999999999999 30.0
vertex 19.5961940777126 17.0961940777125 30.0
vertex 20.6291651245988 15.75 30.0
endloop
endfacet
facet normal 0.0 0.0 -1.0
outer loop
vertex 20.6291651245988 9.24999999999999 30.0
vertex 20.6291651245988 15.75 30.0
vertex 21.2785178708789 10.8176762068336 30.0
endloop
endfacet
facet normal 0.0 0.0 -1.0
outer loop
vertex 21.2785178708789 10.8176762068336 30.0
vertex 20.6291651245988 15.75 30.0
vertex 21.2785178708789 14.1823237931664 30.0
endloop
endfacet
facet normal 0.0 0.0 -1.0
outer loop
vertex 21.2785178708789 10.8176762068336 30.0
vertex 21.2785178708789 14.1823237931664 30.0
vertex 21.5 12.5 30.0
endloop
endfacet
facet normal -0.382683432365091 -0.923879532511286 -0.0
outer loop
vertex 18.25 18.1291651245988 30.0
vertex 16.6823237931664 18.7785178708789 1.7532433618537e-029
vertex 18.25 18.1291651245988 1.7532433618537e-029
endloop
endfacet
facet normal -0.382683432365091 -0.923879532511286 -0.0
outer loop
vertex 16.6823237931664 18.7785178708789 1.7532433618537e-029
vertex 18.25 18.1291651245988 30.0
vertex 16.6823237931664 18.7785178708789 30.0
endloop
endfacet
facet normal -0.608761429008721 -0.793353340291235 -0.0
outer loop
vertex 19.5961940777126 17.0961940777125 30.0
vertex 18.25 18.1291651245988 1.7532433618537e-029
vertex 19.5961940777126 17.0961940777125 1.7532433618537e-029
endloop
endfacet
facet normal -0.608761429008721 -0.793353340291235 -0.0
outer loop
vertex 18.25 18.1291651245988 1.7532433618537e-029
vertex 19.5961940777126 17.0961940777125 30.0
vertex 18.25 18.1291651245988 30.0
endloop
endfacet
facet normal -0.793353340291236 -0.60876142900872 -0.0
outer loop
vertex 19.5961940777126 17.0961940777125 30.0
vertex 20.6291651245988 15.75 1.7532433618537e-029
vertex 20.6291651245988 15.75 30.0
endloop
endfacet
facet normal -0.793353340291236 -0.60876142900872 -0.0
outer loop
vertex 20.6291651245988 15.75 1.7532433618537e-029
vertex 19.5961940777126 17.0961940777125 30.0
vertex 19.5961940777126 17.0961940777125 1.7532433618537e-029
endloop
endfacet
facet normal -0.923879532511287 -0.38268343236509 -0.0
outer loop
vertex 20.6291651245988 15.75 30.0
vertex 21.2785178708789 14.1823237931664 1.7532433618537e-029
vertex 21.2785178708789 14.1823237931664 30.0
endloop
endfacet
facet normal -0.923879532511287 -0.38268343236509 -0.0
outer loop
vertex 21.2785178708789 14.1823237931664 1.7532433618537e-029
vertex 20.6291651245988 15.75 30.0
vertex 20.6291651245988 15.75 1.7532433618537e-029
endloop
endfacet
facet normal -0.99144486137381 -0.13052619222005 -0.0
outer loop
vertex 21.2785178708789 14.1823237931664 30.0
vertex 21.5 12.5 1.7532433618537e-029
vertex 21.5 12.5 30.0
endloop
endfacet
facet normal -0.99144486137381 -0.13052619222005 -0.0
outer loop
vertex 21.5 12.5 1.7532433618537e-029
vertex 21.2785178708789 14.1823237931664 30.0
vertex 21.2785178708789 14.1823237931664 1.7532433618537e-029
endloop
endfacet
facet normal -0.99144486137381 0.130526192220052 -0.0
outer loop
vertex 21.5 12.5 30.0
vertex 21.2785178708789 10.8176762068336 1.7532433618537e-029
vertex 21.2785178708789 10.8176762068336 30.0
endloop
endfacet
facet normal -0.99144486137381 0.130526192220052 -0.0
outer loop
vertex 21.2785178708789 10.8176762068336 1.7532433618537e-029
vertex 21.5 12.5 30.0
vertex 21.5 12.5 1.7532433618537e-029
endloop
endfacet
facet normal -0.923879532511287 0.38268343236509 -0.0
outer loop
vertex 21.2785178708789 10.8176762068336 30.0
vertex 20.6291651245988 9.24999999999999 1.7532433618537e-029
vertex 20.6291651245988 9.24999999999999 30.0
endloop
endfacet
facet normal -0.923879532511287 0.38268343236509 -0.0
outer loop
vertex 20.6291651245988 9.24999999999999 1.7532433618537e-029
vertex 21.2785178708789 10.8176762068336 30.0
vertex 21.2785178708789 10.8176762068336 1.7532433618537e-029
endloop
endfacet
facet normal -0.793353340291235 0.60876142900872 -0.0
outer loop
vertex 20.6291651245988 9.24999999999999 30.0
vertex 19.5961940777126 7.90380592228743 1.7532433618537e-029
vertex 19.5961940777126 7.90380592228743 30.0
endloop
endfacet
facet normal -0.793353340291235 0.60876142900872 -0.0
outer loop
vertex 19.5961940777126 7.90380592228743 1.7532433618537e-029
vertex 20.6291651245988 9.24999999999999 30.0
vertex 20.6291651245988 9.24999999999999 1.7532433618537e-029
endloop
endfacet
facet normal -0.608761429008721 0.793353340291235 -0.0
outer loop
vertex 18.25 6.87083487540114 30.0
vertex 19.5961940777126 7.90380592228743 1.7532433618537e-029
vertex 18.25 6.87083487540114 1.7532433618537e-029
endloop
endfacet
facet normal -0.608761429008721 0.793353340291235 -0.0
outer loop
vertex 19.5961940777126 7.90380592228743 1.7532433618537e-029
vertex 18.25 6.87083487540114 30.0
vertex 19.5961940777126 7.90380592228743 30.0
endloop
endfacet
facet normal -0.382683432365089 0.923879532511287 -0.0
outer loop
vertex 16.6823237931664 6.22148212912104 30.0
vertex 18.25 6.87083487540114 1.7532433618537e-029
vertex 16.6823237931664 6.22148212912104 1.7532433618537e-029
endloop
endfacet
facet normal -0.382683432365089 0.923879532511287 -0.0
outer loop
vertex 18.25 6.87083487540114 1.7532433618537e-029
vertex 16.6823237931664 6.22148212912104 30.0
vertex 18.25 6.87083487540114 30.0
endloop
endfacet
facet normal -0.130526192220051 0.99144486137381 -0.0
outer loop
vertex 15.0 5.99999999999999 30.0
vertex 16.6823237931664 6.22148212912104 1.7532433618537e-029
vertex 15.0 5.99999999999999 1.7532433618537e-029
endloop
endfacet
facet normal -0.130526192220051 0.99144486137381 -0.0
outer loop
vertex 16.6823237931664 6.22148212912104 1.7532433618537e-029
vertex 15.0 5.99999999999999 30.0
vertex 16.6823237931664 6.22148212912104 30.0
endloop
endfacet
facet normal 0.130526192220052 0.99144486137381 0.0
outer loop
vertex 13.3176762068336 6.22148212912105 30.0
vertex 15.0 5.99999999999999 1.7532433618537e-029
vertex 13.3176762068336 6.22148212912105 1.7532433618537e-029
endloop
endfacet
facet normal 0.130526192220052 0.99144486137381 0.0
outer loop
vertex 15.0 5.99999999999999 1.7532433618537e-029
vertex 13.3176762068336 6.22148212912105 30.0
vertex 15.0 5.99999999999999 30.0
endloop
endfacet
facet normal 0.38268343236509 0.923879532511287 0.0
outer loop
vertex 11.75 6.87083487540114 30.0
vertex 13.3176762068336 6.22148212912105 1.7532433618537e-029
vertex 11.75 6.87083487540114 1.7532433618537e-029
endloop
endfacet
facet normal 0.38268343236509 0.923879532511287 0.0
outer loop
vertex 13.3176762068336 6.22148212912105 1.7532433618537e-029
vertex 11.75 6.87083487540114 30.0
vertex 13.3176762068336 6.22148212912105 30.0
endloop
endfacet
facet normal 0.60876142900872 0.793353340291236 0.0
outer loop
vertex 10.4038059222874 7.90380592228743 30.0
vertex 11.75 6.87083487540114 1.7532433618537e-029
vertex 10.4038059222874 7.90380592228743 1.7532433618537e-029
endloop
endfacet
facet normal 0.60876142900872 0.793353340291236 0.0
outer loop
vertex 11.75 6.87083487540114 1.7532433618537e-029
vertex 10.4038059222874 7.90380592228743 30.0
vertex 11.75 6.87083487540114 30.0
endloop
endfacet
facet normal 0.793353340291235 0.608761429008721 0.0
outer loop
vertex 9.37083487540114 9.24999999999999 1.7532433618537e-029
vertex 10.4038059222874 7.90380592228743 30.0
vertex 10.4038059222874 7.90380592228743 1.7532433618537e-029
endloop
endfacet
facet normal 0.793353340291235 0.608761429008721 0.0
outer loop
vertex 10.4038059222874 7.90380592228743 30.0
vertex 9.37083487540114 9.24999999999999 1.7532433618537e-029
vertex 9.37083487540114 9.24999999999999 30.0
endloop
endfacet
facet normal 0.923879532511287 0.382683432365089 0.0
outer loop
vertex 8.72148212912105 10.8176762068336 1.7532433618537e-029
vertex 9.37083487540114 9.24999999999999 30.0
vertex 9.37083487540114 9.24999999999999 1.7532433618537e-029
endloop
endfacet
facet normal 0.923879532511287 0.382683432365089 0.0
outer loop
vertex 9.37083487540114 9.24999999999999 30.0
vertex 8.72148212912105 10.8176762068336 1.7532433618537e-029
vertex 8.72148212912105 10.8176762068336 30.0
endloop
endfacet
facet normal 0.99144486137381 0.130526192220052 0.0
outer loop
vertex 8.49999999999999 12.5 1.7532433618537e-029
vertex 8.72148212912105 10.8176762068336 30.0
vertex 8.72148212912105 10.8176762068336 1.7532433618537e-029
endloop
endfacet
facet normal 0.99144486137381 0.130526192220052 0.0
outer loop
vertex 8.72148212912105 10.8176762068336 30.0
vertex 8.49999999999999 12.5 1.7532433618537e-029
vertex 8.49999999999999 12.5 30.0
endloop
endfacet
facet normal 0.99144486137381 -0.130526192220051 -0.0
outer loop
vertex 8.72148212912105 14.1823237931664 1.7532433618537e-029
vertex 8.49999999999999 12.5 30.0
vertex 8.49999999999999 12.5 1.7532433618537e-029
endloop
endfacet
facet normal 0.99144486137381 -0.130526192220051 -0.0
outer loop
vertex 8.49999999999999 12.5 30.0
vertex 8.72148212912105 14.1823237931664 1.7532433618537e-029
vertex 8.72148212912105 14.1823237931664 30.0
endloop
endfacet
facet normal 0.923879532511286 -0.382683432365091 -0.0
outer loop
vertex 9.37083487540114 15.75 1.7532433618537e-029
vertex 8.72148212912105 14.1823237931664 30.0
vertex 8.72148212912105 14.1823237931664 1.7532433618537e-029
endloop
endfacet
facet normal 0.923879532511286 -0.382683432365091 -0.0
outer loop
vertex 8.72148212912105 14.1823237931664 30.0
vertex 9.37083487540114 15.75 1.7532433618537e-029
vertex 9.37083487540114 15.75 30.0
endloop
endfacet
facet normal 0.793353340291235 -0.608761429008721 -0.0
outer loop
vertex 10.4038059222874 17.0961940777125 1.7532433618537e-029
vertex 9.37083487540114 15.75 30.0
vertex 9.37083487540114 15.75 1.7532433618537e-029
endloop
endfacet
facet normal 0.793353340291235 -0.608761429008721 -0.0
outer loop
vertex 9.37083487540114 15.75 30.0
vertex 10.4038059222874 17.0961940777125 1.7532433618537e-029
vertex 10.4038059222874 17.0961940777125 30.0
endloop
endfacet
facet normal 0.60876142900872 -0.793353340291236 -0.0
outer loop
vertex 11.75 18.1291651245988 30.0
vertex 10.4038059222874 17.0961940777125 1.7532433618537e-029
vertex 11.75 18.1291651245988 1.7532433618537e-029
endloop
endfacet
facet normal 0.60876142900872 -0.793353340291236 -0.0
outer loop
vertex 10.4038059222874 17.0961940777125 1.7532433618537e-029
vertex 11.75 18.1291651245988 30.0
vertex 10.4038059222874 17.0961940777125 30.0
endloop
endfacet
facet normal 0.382683432365091 -0.923879532511287 -0.0
outer loop
vertex 13.3176762068336 18.7785178708789 30.0
vertex 11.75 18.1291651245988 1.7532433618537e-029
vertex 13.3176762068336 18.7785178708789 1.7532433618537e-029
endloop
endfacet
facet normal 0.382683432365091 -0.923879532511287 -0.0
outer loop
vertex 11.75 18.1291651245988 1.7532433618537e-029
vertex 13.3176762068336 18.7785178708789 30.0
vertex 11.75 18.1291651245988 30.0
endloop
endfacet
facet normal 0.13052619222005 -0.991444861373811 -0.0
outer loop
vertex 15.0 19.0 30.0
vertex 13.3176762068336 18.7785178708789 1.7532433618537e-029
vertex 15.0 19.0 1.7532433618537e-029
endloop
endfacet
facet normal 0.13052619222005 -0.991444861373811 -0.0
outer loop
vertex 13.3176762068336 18.7785178708789 1.7532433618537e-029
vertex 15.0 19.0 30.0
vertex 13.3176762068336 18.7785178708789 30.0
endloop
endfacet
facet normal -0.130526192220051 -0.99144486137381 -0.0
outer loop
vertex 16.6823237931664 18.7785178708789 30.0
vertex 15.0 19.0 1.7532433618537e-029
vertex 16.6823237931664 18.7785178708789 1.7532433618537e-029
endloop
endfacet
facet normal -0.130526192220051 -0.99144486137381 -0.0
outer loop
vertex 15.0 19.0 1.7532433618537e-029
vertex 16.6823237931664 18.7785178708789 30.0
vertex 15.0 19.0 30.0
endloop
endfacet
endsolid TOP_Z
