solid TOP_Z
facet normal 0.850969301604527 0.525215429825423 -0.0
outer loop
vertex 65.9192287089371 23.4876517390088 0.0
vertex 68.0126304721885 20.0958613701618 35.0
vertex 68.0126304721885 20.0958613701618 0.0
endloop
endfacet
facet normal 0.850969301604527 0.525215429825423 -0.0
outer loop
vertex 68.0126304721885 20.0958613701618 35.0
vertex 65.9192287089371 23.4876517390088 0.0
vertex 65.9192287089371 23.4876517390088 35.0
endloop
endfacet
facet normal 0.899388104010749 0.437151047538433 0.0
outer loop
vertex 64.1768336425387 27.0724295956099 0.0
vertex 65.9192287089371 23.4876517390088 35.0
vertex 65.9192287089371 23.4876517390088 0.0
endloop
endfacet
facet normal 0.899388104010749 0.437151047538433 0.0
outer loop
vertex 65.9192287089371 23.4876517390088 35.0
vertex 64.1768336425387 27.0724295956099 0.0
vertex 64.1768336425387 27.0724295956099 35.0
endloop
endfacet
facet normal -2.37488302352478e-047 2.40702252276999e-032 1.0
outer loop
vertex 49.2185352466759 47.4254905016072 35.0
vertex 49.0126304721885 67.5958613701618 35.0
vertex 48.0126304721885 46.925988389084 35.0
endloop
endfacet
facet normal -2.37488302352478e-047 2.40702252276999e-032 1.0
outer loop
vertex 49.0126304721885 67.5958613701618 35.0
vertex 49.2185352466759 47.4254905016072 35.0
vertex 49.2341126013095 65.9135375769954 35.0
endloop
endfacet
facet normal -2.37488302352478e-047 2.40702252276999e-032 1.0
outer loop
vertex 49.2341126013095 65.9135375769954 35.0
vertex 49.2185352466759 47.4254905016072 35.0
vertex 50.5126304721885 47.5958613701618 35.0
endloop
endfacet
facet normal -2.37488302352478e-047 2.40702252276999e-032 1.0
outer loop
vertex 49.2341126013095 65.9135375769954 35.0
vertex 50.5126304721885 47.5958613701618 35.0
vertex 49.8834653475896 64.3458613701618 35.0
endloop
endfacet
facet normal -2.37488302352478e-047 2.40702252276999e-032 1.0
outer loop
vertex 49.8834653475896 64.3458613701618 35.0
vertex 50.5126304721885 47.5958613701618 35.0
vertex 50.9164363944759 62.9996672924493 35.0
endloop
endfacet
facet normal -2.37488302352478e-047 2.40702252276999e-032 1.0
outer loop
vertex 50.9164363944759 62.9996672924493 35.0
vertex 50.5126304721885 47.5958613701618 35.0
vertex 51.8067256977011 47.4254905016072 35.0
endloop
endfacet
facet normal -2.37488302352478e-047 2.40702252276999e-032 1.0
outer loop
vertex 50.9164363944759 62.9996672924493 35.0
vertex 51.8067256977011 47.4254905016072 35.0
vertex 52.2626304721885 61.966696245563 35.0
endloop
endfacet
facet normal -2.37488302352478e-047 2.40702252276999e-032 1.0
outer loop
vertex 52.2626304721885 61.966696245563 35.0
vertex 51.8067256977011 47.4254905016072 35.0
vertex 53.0126304721885 46.925988389084 35.0
endloop
endfacet
facet normal -2.37488302352478e-047 2.40702252276999e-032 1.0
outer loop
vertex 52.2626304721885 61.966696245563 35.0
vertex 53.0126304721885 46.925988389084 35.0
vertex 53.8303066790221 61.3173434992829 35.0
endloop
endfacet
facet normal -2.37488302352478e-047 2.40702252276999e-032 1.0
outer loop
vertex 53.8303066790221 61.3173434992829 35.0
vertex 53.0126304721885 46.925988389084 35.0
vertex 54.0481643781212 46.1313952760946 35.0
endloop
endfacet
facet normal -2.37488302352478e-047 2.40702252276999e-032 1.0
outer loop
vertex 53.8303066790221 61.3173434992829 35.0
vertex 54.0481643781212 46.1313952760946 35.0
vertex 55.5126304721885 61.0958613701618 35.0
endloop
endfacet
facet normal -2.37488302352478e-047 2.40702252276999e-032 1.0
outer loop
vertex 55.5126304721885 61.0958613701618 35.0
vertex 54.0481643781212 46.1313952760946 35.0
vertex 54.8427574911107 45.0958613701618 35.0
endloop
endfacet
facet normal -2.37488302352478e-047 2.40702252276999e-032 1.0
outer loop
vertex 55.5126304721885 61.0958613701618 35.0
vertex 54.8427574911107 45.0958613701618 35.0
vertex 55.3422596036338 43.8899565956744 35.0
endloop
endfacet
facet normal -2.37488302352478e-047 2.40702252276999e-032 1.0
outer loop
vertex 55.5126304721885 61.0958613701618 35.0
vertex 55.3422596036338 43.8899565956744 35.0
vertex 55.5126304721885 42.5958613701618 35.0
endloop
endfacet
facet normal -2.37488302352478e-047 2.40702252276999e-032 1.0
outer loop
vertex 43.0126304721885 2.59586137016182 35.0
vertex 45.5126304721885 42.5958613701618 35.0
vertex 43.0126304721885 82.5958613701618 35.0
endloop
endfacet
facet normal -2.37488302352478e-047 2.40702252276999e-032 1.0
outer loop
vertex 45.5126304721885 42.5958613701618 35.0
vertex 43.0126304721885 2.59586137016182 35.0
vertex 45.6830013407431 41.3017661446492 35.0
endloop
endfacet
facet normal -2.37488302352478e-047 2.40702252276999e-032 1.0
outer loop
vertex 45.6830013407431 41.3017661446492 35.0
vertex 43.0126304721885 2.59586137016182 35.0
vertex 49.2341126013095 15.9135375769954 35.0
endloop
endfacet
facet normal -2.37488302352478e-047 2.40702252276999e-032 1.0
outer loop
vertex 49.2341126013095 15.9135375769954 35.0
vertex 43.0126304721885 2.59586137016182 35.0
vertex 49.8834653475896 14.3458613701618 35.0
endloop
endfacet
facet normal -2.37488302352478e-047 2.40702252276999e-032 1.0
outer loop
vertex 49.8834653475896 14.3458613701618 35.0
vertex 43.0126304721885 2.59586137016182 35.0
vertex 55.5126304721885 2.59586137016182 35.0
endloop
endfacet
facet normal -2.37488302352478e-047 2.40702252276999e-032 1.0
outer loop
vertex 45.6830013407431 41.3017661446492 35.0
vertex 49.2341126013095 15.9135375769954 35.0
vertex 49.0126304721885 17.5958613701618 35.0
endloop
endfacet
facet normal -2.37488302352478e-047 2.40702252276999e-032 1.0
outer loop
vertex 45.6830013407431 41.3017661446492 35.0
vertex 49.0126304721885 17.5958613701618 35.0
vertex 46.1825034532663 40.0958613701618 35.0
endloop
endfacet
facet normal -2.37488302352478e-047 2.40702252276999e-032 1.0
outer loop
vertex 46.1825034532663 40.0958613701618 35.0
vertex 49.0126304721885 17.5958613701618 35.0
vertex 46.9770965662557 39.0603274642291 35.0
endloop
endfacet
facet normal -2.37488302352478e-047 2.40702252276999e-032 1.0
outer loop
vertex 46.9770965662557 39.0603274642291 35.0
vertex 49.0126304721885 17.5958613701618 35.0
vertex 48.0126304721885 38.2657343512396 35.0
endloop
endfacet
facet normal -2.37488302352478e-047 2.40702252276999e-032 1.0
outer loop
vertex 49.8834653475896 14.3458613701618 35.0
vertex 55.5126304721885 2.59586137016182 35.0
vertex 50.9164363944759 12.9996672924493 35.0
endloop
endfacet
facet normal -2.37488302352478e-047 2.40702252276999e-032 1.0
outer loop
vertex 50.9164363944759 12.9996672924493 35.0
vertex 55.5126304721885 2.59586137016182 35.0
vertex 52.2626304721885 11.966696245563 35.0
endloop
endfacet
facet normal -2.37488302352478e-047 2.40702252276999e-032 1.0
outer loop
vertex 52.2626304721885 11.966696245563 35.0
vertex 55.5126304721885 2.59586137016182 35.0
vertex 53.8303066790221 11.3173434992829 35.0
endloop
endfacet
facet normal -2.37488302352478e-047 2.40702252276999e-032 1.0
outer loop
vertex 53.8303066790221 11.3173434992829 35.0
vertex 55.5126304721885 2.59586137016182 35.0
vertex 55.5126304721885 11.0958613701618 35.0
endloop
endfacet
facet normal -2.37488302352478e-047 2.40702252276999e-032 1.0
outer loop
vertex 55.5126304721885 11.0958613701618 35.0
vertex 55.5126304721885 2.59586137016182 35.0
vertex 57.1949542653549 11.3173434992829 35.0
endloop
endfacet
facet normal -2.37488302352478e-047 2.40702252276999e-032 1.0
outer loop
vertex 57.1949542653549 11.3173434992829 35.0
vertex 55.5126304721885 2.59586137016182 35.0
vertex 68.0126304721885 15.0958613701618 35.0
endloop
endfacet
facet normal -2.37488302352478e-047 2.40702252276999e-032 1.0
outer loop
vertex 57.1949542653549 11.3173434992829 35.0
vertex 68.0126304721885 15.0958613701618 35.0
vertex 58.7626304721885 11.966696245563 35.0
endloop
endfacet
facet normal -2.37488302352478e-047 2.40702252276999e-032 1.0
outer loop
vertex 58.7626304721885 11.966696245563 35.0
vertex 68.0126304721885 15.0958613701618 35.0
vertex 60.108824549901 12.9996672924493 35.0
endloop
endfacet
facet normal -2.37488302352478e-047 2.40702252276999e-032 1.0
outer loop
vertex 60.108824549901 12.9996672924493 35.0
vertex 68.0126304721885 15.0958613701618 35.0
vertex 61.1417955967873 14.3458613701618 35.0
endloop
endfacet
facet normal -2.37488302352478e-047 2.40702252276999e-032 1.0
outer loop
vertex 61.1417955967873 14.3458613701618 35.0
vertex 68.0126304721885 15.0958613701618 35.0
vertex 61.7911483430674 15.9135375769954 35.0
endloop
endfacet
facet normal -2.37488302352478e-047 2.40702252276999e-032 1.0
outer loop
vertex 61.7911483430674 15.9135375769954 35.0
vertex 68.0126304721885 15.0958613701618 35.0
vertex 62.0126304721885 17.5958613701618 35.0
endloop
endfacet
facet normal -2.37488302352478e-047 2.40702252276999e-032 1.0
outer loop
vertex 62.0126304721885 17.5958613701618 35.0
vertex 68.0126304721885 15.0958613701618 35.0
vertex 62.8030429680693 30.8139897022136 35.0
endloop
endfacet
facet normal -2.37488302352478e-047 2.40702252276999e-032 1.0
outer loop
vertex 62.8030429680693 30.8139897022136 35.0
vertex 68.0126304721885 15.0958613701618 35.0
vertex 64.1768336425387 27.0724295956099 35.0
endloop
endfacet
facet normal -2.37488302352478e-047 2.40702252276999e-032 1.0
outer loop
vertex 64.1768336425387 27.0724295956099 35.0
vertex 68.0126304721885 15.0958613701618 35.0
vertex 65.9192287089371 23.4876517390088 35.0
endloop
endfacet
facet normal -2.37488302352478e-047 2.40702252276999e-032 1.0
outer loop
vertex 65.9192287089371 23.4876517390088 35.0
vertex 68.0126304721885 15.0958613701618 35.0
vertex 68.0126304721885 20.0958613701618 35.0
endloop
endfacet
facet normal -2.37488302352478e-047 2.40702252276999e-032 1.0
outer loop
vertex 49.0126304721885 17.5958613701618 35.0
vertex 49.2185352466759 37.7662322387165 35.0
vertex 48.0126304721885 38.2657343512396 35.0
endloop
endfacet
facet normal -2.37488302352478e-047 2.40702252276999e-032 1.0
outer loop
vertex 49.2185352466759 37.7662322387165 35.0
vertex 49.0126304721885 17.5958613701618 35.0
vertex 49.2341126013095 19.2781851633282 35.0
endloop
endfacet
facet normal -2.37488302352478e-047 2.40702252276999e-032 1.0
outer loop
vertex 49.2185352466759 37.7662322387165 35.0
vertex 49.2341126013095 19.2781851633282 35.0
vertex 50.5126304721885 37.5958613701618 35.0
endloop
endfacet
facet normal -2.37488302352478e-047 2.40702252276999e-032 1.0
outer loop
vertex 50.5126304721885 37.5958613701618 35.0
vertex 49.2341126013095 19.2781851633282 35.0
vertex 49.8834653475896 20.8458613701618 35.0
endloop
endfacet
facet normal -2.37488302352478e-047 2.40702252276999e-032 1.0
outer loop
vertex 50.5126304721885 37.5958613701618 35.0
vertex 49.8834653475896 20.8458613701618 35.0
vertex 50.9164363944759 22.1920554478744 35.0
endloop
endfacet
facet normal -2.37488302352478e-047 2.40702252276999e-032 1.0
outer loop
vertex 50.5126304721885 37.5958613701618 35.0
vertex 50.9164363944759 22.1920554478744 35.0
vertex 51.8067256977011 37.7662322387165 35.0
endloop
endfacet
facet normal -2.37488302352478e-047 2.40702252276999e-032 1.0
outer loop
vertex 51.8067256977011 37.7662322387165 35.0
vertex 50.9164363944759 22.1920554478744 35.0
vertex 52.2626304721885 23.2250264947607 35.0
endloop
endfacet
facet normal -2.37488302352478e-047 2.40702252276999e-032 1.0
outer loop
vertex 51.8067256977011 37.7662322387165 35.0
vertex 52.2626304721885 23.2250264947607 35.0
vertex 53.0126304721885 38.2657343512396 35.0
endloop
endfacet
facet normal -2.37488302352478e-047 2.40702252276999e-032 1.0
outer loop
vertex 53.0126304721885 38.2657343512396 35.0
vertex 52.2626304721885 23.2250264947607 35.0
vertex 53.8303066790221 23.8743792410408 35.0
endloop
endfacet
facet normal -2.37488302352478e-047 2.40702252276999e-032 1.0
outer loop
vertex 53.0126304721885 38.2657343512396 35.0
vertex 53.8303066790221 23.8743792410408 35.0
vertex 54.0481643781212 39.0603274642291 35.0
endloop
endfacet
facet normal -2.37488302352478e-047 2.40702252276999e-032 1.0
outer loop
vertex 54.0481643781212 39.0603274642291 35.0
vertex 53.8303066790221 23.8743792410408 35.0
vertex 55.5126304721885 24.0958613701618 35.0
endloop
endfacet
facet normal -2.37488302352478e-047 2.40702252276999e-032 1.0
outer loop
vertex 54.0481643781212 39.0603274642291 35.0
vertex 55.5126304721885 24.0958613701618 35.0
vertex 54.8427574911107 40.0958613701618 35.0
endloop
endfacet
facet normal -2.37488302352478e-047 2.40702252276999e-032 1.0
outer loop
vertex 54.8427574911107 40.0958613701618 35.0
vertex 55.5126304721885 24.0958613701618 35.0
vertex 55.3422596036338 41.3017661446492 35.0
endloop
endfacet
facet normal -2.37488302352478e-047 2.40702252276999e-032 1.0
outer loop
vertex 55.3422596036338 41.3017661446492 35.0
vertex 55.5126304721885 24.0958613701618 35.0
vertex 55.5126304721885 42.5958613701618 35.0
endloop
endfacet
facet normal -2.37488302352478e-047 2.40702252276999e-032 1.0
outer loop
vertex 55.5126304721885 42.5958613701618 35.0
vertex 55.5126304721885 24.0958613701618 35.0
vertex 57.1949542653549 23.8743792410408 35.0
endloop
endfacet
facet normal -2.37488302352478e-047 2.40702252276999e-032 1.0
outer loop
vertex 55.5126304721885 42.5958613701618 35.0
vertex 57.1949542653549 23.8743792410408 35.0
vertex 55.5126304721885 61.0958613701618 35.0
endloop
endfacet
facet normal -2.37488302352478e-047 2.40702252276999e-032 1.0
outer loop
vertex 55.5126304721885 61.0958613701618 35.0
vertex 57.1949542653549 23.8743792410408 35.0
vertex 57.1949542653549 61.3173434992829 35.0
endloop
endfacet
facet normal -2.37488302352478e-047 2.40702252276999e-032 1.0
outer loop
vertex 57.1949542653549 61.3173434992829 35.0
vertex 57.1949542653549 23.8743792410408 35.0
vertex 58.7626304721885 23.2250264947607 35.0
endloop
endfacet
facet normal -2.37488302352478e-047 2.40702252276999e-032 1.0
outer loop
vertex 57.1949542653549 61.3173434992829 35.0
vertex 58.7626304721885 23.2250264947607 35.0
vertex 58.7626304721885 61.966696245563 35.0
endloop
endfacet
facet normal -2.37488302352478e-047 2.40702252276999e-032 1.0
outer loop
vertex 58.7626304721885 61.966696245563 35.0
vertex 58.7626304721885 23.2250264947607 35.0
vertex 60.108824549901 22.1920554478744 35.0
endloop
endfacet
facet normal -2.37488302352478e-047 2.40702252276999e-032 1.0
outer loop
vertex 58.7626304721885 61.966696245563 35.0
vertex 60.108824549901 22.1920554478744 35.0
vertex 60.108824549901 62.9996672924493 35.0
endloop
endfacet
facet normal -2.37488302352478e-047 2.40702252276999e-032 1.0
outer loop
vertex 60.108824549901 62.9996672924493 35.0
vertex 60.108824549901 22.1920554478744 35.0
vertex 61.1417955967873 20.8458613701618 35.0
endloop
endfacet
facet normal -2.37488302352478e-047 2.40702252276999e-032 1.0
outer loop
vertex 60.108824549901 62.9996672924493 35.0
vertex 61.1417955967873 20.8458613701618 35.0
vertex 61.0126304721885 42.5958613701618 35.0
endloop
endfacet
facet normal -2.37488302352478e-047 2.40702252276999e-032 1.0
outer loop
vertex 61.0126304721885 42.5958613701618 35.0
vertex 61.1417955967873 20.8458613701618 35.0
vertex 61.2129114446155 38.6151000886139 35.0
endloop
endfacet
facet normal -2.37488302352478e-047 2.40702252276999e-032 1.0
outer loop
vertex 61.2129114446155 38.6151000886139 35.0
vertex 61.1417955967873 20.8458613701618 35.0
vertex 61.7911483430674 19.2781851633282 35.0
endloop
endfacet
facet normal -2.37488302352478e-047 2.40702252276999e-032 1.0
outer loop
vertex 61.2129114446155 38.6151000886139 35.0
vertex 61.7911483430674 19.2781851633282 35.0
vertex 61.8117315809841 34.6745433648924 35.0
endloop
endfacet
facet normal -2.37488302352478e-047 2.40702252276999e-032 1.0
outer loop
vertex 61.8117315809841 34.6745433648924 35.0
vertex 61.7911483430674 19.2781851633282 35.0
vertex 62.0126304721885 17.5958613701618 35.0
endloop
endfacet
facet normal -2.37488302352478e-047 2.40702252276999e-032 1.0
outer loop
vertex 61.8117315809841 34.6745433648924 35.0
vertex 62.0126304721885 17.5958613701618 35.0
vertex 62.8030429680693 30.8139897022136 35.0
endloop
endfacet
facet normal -2.37488302352478e-047 2.40702252276999e-032 1.0
outer loop
vertex 61.0126304721885 42.5958613701618 35.0
vertex 61.1417955967873 64.3458613701618 35.0
vertex 60.108824549901 62.9996672924493 35.0
endloop
endfacet
facet normal -2.37488302352478e-047 2.40702252276999e-032 1.0
outer loop
vertex 61.1417955967873 64.3458613701618 35.0
vertex 61.0126304721885 42.5958613701618 35.0
vertex 61.2129114446155 46.5766226517097 35.0
endloop
endfacet
facet normal -2.37488302352478e-047 2.40702252276999e-032 1.0
outer loop
vertex 61.1417955967873 64.3458613701618 35.0
vertex 61.2129114446155 46.5766226517097 35.0
vertex 61.7911483430674 65.9135375769954 35.0
endloop
endfacet
facet normal -2.37488302352478e-047 2.40702252276999e-032 1.0
outer loop
vertex 61.7911483430674 65.9135375769954 35.0
vertex 61.2129114446155 46.5766226517097 35.0
vertex 61.8117315809841 50.5171793754312 35.0
endloop
endfacet
facet normal -2.37488302352478e-047 2.40702252276999e-032 1.0
outer loop
vertex 61.7911483430674 65.9135375769954 35.0
vertex 61.8117315809841 50.5171793754312 35.0
vertex 62.0126304721885 67.5958613701618 35.0
endloop
endfacet
facet normal -2.37488302352478e-047 2.40702252276999e-032 1.0
outer loop
vertex 62.0126304721885 67.5958613701618 35.0
vertex 61.8117315809841 50.5171793754312 35.0
vertex 62.8030429680693 54.37773303811 35.0
endloop
endfacet
facet normal -2.37488302352478e-047 2.40702252276999e-032 1.0
outer loop
vertex 43.0126304721885 82.5958613701618 35.0
vertex 49.8834653475896 70.8458613701618 35.0
vertex 55.5126304721885 82.5958613701618 35.0
endloop
endfacet
facet normal -2.37488302352478e-047 2.40702252276999e-032 1.0
outer loop
vertex 49.8834653475896 70.8458613701618 35.0
vertex 43.0126304721885 82.5958613701618 35.0
vertex 49.2341126013095 69.2781851633282 35.0
endloop
endfacet
facet normal -2.37488302352478e-047 2.40702252276999e-032 1.0
outer loop
vertex 49.2341126013095 69.2781851633282 35.0
vertex 43.0126304721885 82.5958613701618 35.0
vertex 45.6830013407431 43.8899565956744 35.0
endloop
endfacet
facet normal -2.37488302352478e-047 2.40702252276999e-032 1.0
outer loop
vertex 45.6830013407431 43.8899565956744 35.0
vertex 43.0126304721885 82.5958613701618 35.0
vertex 45.5126304721885 42.5958613701618 35.0
endloop
endfacet
facet normal -2.37488302352478e-047 2.40702252276999e-032 1.0
outer loop
vertex 49.2341126013095 69.2781851633282 35.0
vertex 45.6830013407431 43.8899565956744 35.0
vertex 49.0126304721885 67.5958613701618 35.0
endloop
endfacet
facet normal -2.37488302352478e-047 2.40702252276999e-032 1.0
outer loop
vertex 49.0126304721885 67.5958613701618 35.0
vertex 45.6830013407431 43.8899565956744 35.0
vertex 46.1825034532663 45.0958613701618 35.0
endloop
endfacet
facet normal -2.37488302352478e-047 2.40702252276999e-032 1.0
outer loop
vertex 49.0126304721885 67.5958613701618 35.0
vertex 46.1825034532663 45.0958613701618 35.0
vertex 46.9770965662557 46.1313952760946 35.0
endloop
endfacet
facet normal -2.37488302352478e-047 2.40702252276999e-032 1.0
outer loop
vertex 49.0126304721885 67.5958613701618 35.0
vertex 46.9770965662557 46.1313952760946 35.0
vertex 48.0126304721885 46.925988389084 35.0
endloop
endfacet
facet normal -2.37488302352478e-047 2.40702252276999e-032 1.0
outer loop
vertex 55.5126304721885 82.5958613701618 35.0
vertex 49.8834653475896 70.8458613701618 35.0
vertex 50.9164363944759 72.1920554478744 35.0
endloop
endfacet
facet normal -2.37488302352478e-047 2.40702252276999e-032 1.0
outer loop
vertex 55.5126304721885 82.5958613701618 35.0
vertex 50.9164363944759 72.1920554478744 35.0
vertex 52.2626304721885 73.2250264947607 35.0
endloop
endfacet
facet normal -2.37488302352478e-047 2.40702252276999e-032 1.0
outer loop
vertex 55.5126304721885 82.5958613701618 35.0
vertex 52.2626304721885 73.2250264947607 35.0
vertex 53.8303066790221 73.8743792410408 35.0
endloop
endfacet
facet normal -2.37488302352478e-047 2.40702252276999e-032 1.0
outer loop
vertex 55.5126304721885 82.5958613701618 35.0
vertex 53.8303066790221 73.8743792410408 35.0
vertex 55.5126304721885 74.0958613701618 35.0
endloop
endfacet
facet normal -2.37488302352478e-047 2.40702252276999e-032 1.0
outer loop
vertex 55.5126304721885 82.5958613701618 35.0
vertex 55.5126304721885 74.0958613701618 35.0
vertex 57.1949542653549 73.8743792410408 35.0
endloop
endfacet
facet normal -2.37488302352478e-047 2.40702252276999e-032 1.0
outer loop
vertex 55.5126304721885 82.5958613701618 35.0
vertex 57.1949542653549 73.8743792410408 35.0
vertex 68.0126304721885 70.0958613701618 35.0
endloop
endfacet
facet normal -2.37488302352478e-047 2.40702252276999e-032 1.0
outer loop
vertex 68.0126304721885 70.0958613701618 35.0
vertex 57.1949542653549 73.8743792410408 35.0
vertex 58.7626304721885 73.2250264947607 35.0
endloop
endfacet
facet normal -2.37488302352478e-047 2.40702252276999e-032 1.0
outer loop
vertex 68.0126304721885 70.0958613701618 35.0
vertex 58.7626304721885 73.2250264947607 35.0
vertex 60.108824549901 72.1920554478744 35.0
endloop
endfacet
facet normal -2.37488302352478e-047 2.40702252276999e-032 1.0
outer loop
vertex 68.0126304721885 70.0958613701618 35.0
vertex 60.108824549901 72.1920554478744 35.0
vertex 61.1417955967873 70.8458613701618 35.0
endloop
endfacet
facet normal -2.37488302352478e-047 2.40702252276999e-032 1.0
outer loop
vertex 68.0126304721885 70.0958613701618 35.0
vertex 61.1417955967873 70.8458613701618 35.0
vertex 61.7911483430674 69.2781851633282 35.0
endloop
endfacet
facet normal -2.37488302352478e-047 2.40702252276999e-032 1.0
outer loop
vertex 68.0126304721885 70.0958613701618 35.0
vertex 61.7911483430674 69.2781851633282 35.0
vertex 62.0126304721885 67.5958613701618 35.0
endloop
endfacet
facet normal -2.37488302352478e-047 2.40702252276999e-032 1.0
outer loop
vertex 68.0126304721885 70.0958613701618 35.0
vertex 62.0126304721885 67.5958613701618 35.0
vertex 62.8030429680693 54.37773303811 35.0
endloop
endfacet
facet normal -2.37488302352478e-047 2.40702252276999e-032 1.0
outer loop
vertex 68.0126304721885 70.0958613701618 35.0
vertex 62.8030429680693 54.37773303811 35.0
vertex 64.1768336425387 58.1192931447137 35.0
endloop
endfacet
facet normal -2.37488302352478e-047 2.40702252276999e-032 1.0
outer loop
vertex 68.0126304721885 70.0958613701618 35.0
vertex 64.1768336425387 58.1192931447137 35.0
vertex 65.9192287089371 61.7040710013148 35.0
endloop
endfacet
facet normal -2.37488302352478e-047 2.40702252276999e-032 1.0
outer loop
vertex 68.0126304721885 70.0958613701618 35.0
vertex 65.9192287089371 61.7040710013148 35.0
vertex 68.0126304721885 65.0958613701618 35.0
endloop
endfacet
facet normal 1.0 2.25597318603832e-015 -0.0
outer loop
vertex 68.0126304721885 70.0958613701618 0.0
vertex 68.0126304721885 65.0958613701618 35.0
vertex 68.0126304721885 65.0958613701618 0.0
endloop
endfacet
facet normal 1.0 2.25597318603832e-015 -0.0
outer loop
vertex 68.0126304721885 65.0958613701618 35.0
vertex 68.0126304721885 70.0958613701618 0.0
vertex 68.0126304721885 70.0958613701618 35.0
endloop
endfacet
facet normal -0.923879532511288 0.382683432365087 -0.0
outer loop
vertex 61.7911483430674 15.9135375769954 35.0
vertex 61.1417955967873 14.3458613701618 5.0
vertex 61.1417955967873 14.3458613701618 35.0
endloop
endfacet
facet normal -0.923879532511288 0.382683432365087 -0.0
outer loop
vertex 61.1417955967873 14.3458613701618 5.0
vertex 61.7911483430674 15.9135375769954 35.0
vertex 61.7911483430674 15.9135375769954 5.0
endloop
endfacet
facet normal -0.793353340291235 0.608761429008721 -0.0
outer loop
vertex 61.1417955967873 14.3458613701618 35.0
vertex 60.108824549901 12.9996672924493 5.0
vertex 60.108824549901 12.9996672924493 35.0
endloop
endfacet
facet normal -0.793353340291235 0.608761429008721 -0.0
outer loop
vertex 60.108824549901 12.9996672924493 5.0
vertex 61.1417955967873 14.3458613701618 35.0
vertex 61.1417955967873 14.3458613701618 5.0
endloop
endfacet
facet normal 0.99144486137381 -0.130526192220052 -0.0
outer loop
vertex 45.6830013407431 43.8899565956744 5.0
vertex 45.5126304721885 42.5958613701618 35.0
vertex 45.5126304721885 42.5958613701618 5.0
endloop
endfacet
facet normal 0.99144486137381 -0.130526192220052 -0.0
outer loop
vertex 45.5126304721885 42.5958613701618 35.0
vertex 45.6830013407431 43.8899565956744 5.0
vertex 45.6830013407431 43.8899565956744 35.0
endloop
endfacet
facet normal 0.923879532511287 -0.38268343236509 -0.0
outer loop
vertex 46.1825034532663 45.0958613701618 5.0
vertex 45.6830013407431 43.8899565956744 35.0
vertex 45.6830013407431 43.8899565956744 5.0
endloop
endfacet
facet normal 0.923879532511287 -0.38268343236509 -0.0
outer loop
vertex 45.6830013407431 43.8899565956744 35.0
vertex 46.1825034532663 45.0958613701618 5.0
vertex 46.1825034532663 45.0958613701618 35.0
endloop
endfacet
facet normal 0.793353340291236 -0.60876142900872 -0.0
outer loop
vertex 46.9770965662557 46.1313952760946 5.0
vertex 46.1825034532663 45.0958613701618 35.0
vertex 46.1825034532663 45.0958613701618 5.0
endloop
endfacet
facet normal 0.793353340291236 -0.60876142900872 -0.0
outer loop
vertex 46.1825034532663 45.0958613701618 35.0
vertex 46.9770965662557 46.1313952760946 5.0
vertex 46.9770965662557 46.1313952760946 35.0
endloop
endfacet
facet normal 0.608761429008722 -0.793353340291234 -0.0
outer loop
vertex 48.0126304721885 46.925988389084 35.0
vertex 46.9770965662557 46.1313952760946 5.0
vertex 48.0126304721885 46.925988389084 5.0
endloop
endfacet
facet normal 0.608761429008722 -0.793353340291234 -0.0
outer loop
vertex 46.9770965662557 46.1313952760946 5.0
vertex 48.0126304721885 46.925988389084 35.0
vertex 46.9770965662557 46.1313952760946 35.0
endloop
endfacet
facet normal 0.38268343236509 -0.923879532511287 -0.0
outer loop
vertex 49.2185352466759 47.4254905016072 35.0
vertex 48.0126304721885 46.925988389084 5.0
vertex 49.2185352466759 47.4254905016072 5.0
endloop
endfacet
facet normal 0.38268343236509 -0.923879532511287 -0.0
outer loop
vertex 48.0126304721885 46.925988389084 5.0
vertex 49.2185352466759 47.4254905016072 35.0
vertex 48.0126304721885 46.925988389084 35.0
endloop
endfacet
facet normal -0.60876142900872 0.793353340291236 -0.0
outer loop
vertex 53.0126304721885 38.2657343512396 35.0
vertex 54.0481643781212 39.0603274642291 5.0
vertex 53.0126304721885 38.2657343512396 5.0
endloop
endfacet
facet normal -0.60876142900872 0.793353340291236 -0.0
outer loop
vertex 54.0481643781212 39.0603274642291 5.0
vertex 53.0126304721885 38.2657343512396 35.0
vertex 54.0481643781212 39.0603274642291 35.0
endloop
endfacet
facet normal -0.38268343236509 0.923879532511287 -0.0
outer loop
vertex 51.8067256977011 37.7662322387165 35.0
vertex 53.0126304721885 38.2657343512396 5.0
vertex 51.8067256977011 37.7662322387165 5.0
endloop
endfacet
facet normal -0.38268343236509 0.923879532511287 -0.0
outer loop
vertex 53.0126304721885 38.2657343512396 5.0
vertex 51.8067256977011 37.7662322387165 35.0
vertex 53.0126304721885 38.2657343512396 35.0
endloop
endfacet
facet normal -0.130526192220051 0.99144486137381 -0.0
outer loop
vertex 50.5126304721885 37.5958613701618 35.0
vertex 51.8067256977011 37.7662322387165 5.0
vertex 50.5126304721885 37.5958613701618 5.0
endloop
endfacet
facet normal -0.130526192220051 0.99144486137381 -0.0
outer loop
vertex 51.8067256977011 37.7662322387165 5.0
vertex 50.5126304721885 37.5958613701618 35.0
vertex 51.8067256977011 37.7662322387165 35.0
endloop
endfacet
facet normal 0.130526192220052 0.99144486137381 0.0
outer loop
vertex 49.2185352466759 37.7662322387165 35.0
vertex 50.5126304721885 37.5958613701618 5.0
vertex 49.2185352466759 37.7662322387165 5.0
endloop
endfacet
facet normal 0.130526192220052 0.99144486137381 0.0
outer loop
vertex 50.5126304721885 37.5958613701618 5.0
vertex 49.2185352466759 37.7662322387165 35.0
vertex 50.5126304721885 37.5958613701618 35.0
endloop
endfacet
facet normal 0.38268343236509 0.923879532511287 0.0
outer loop
vertex 48.0126304721885 38.2657343512396 35.0
vertex 49.2185352466759 37.7662322387165 5.0
vertex 48.0126304721885 38.2657343512396 5.0
endloop
endfacet
facet normal 0.38268343236509 0.923879532511287 0.0
outer loop
vertex 49.2185352466759 37.7662322387165 5.0
vertex 48.0126304721885 38.2657343512396 35.0
vertex 49.2185352466759 37.7662322387165 35.0
endloop
endfacet
facet normal 0.60876142900872 0.793353340291236 0.0
outer loop
vertex 46.9770965662557 39.0603274642291 35.0
vertex 48.0126304721885 38.2657343512396 5.0
vertex 46.9770965662557 39.0603274642291 5.0
endloop
endfacet
facet normal 0.60876142900872 0.793353340291236 0.0
outer loop
vertex 48.0126304721885 38.2657343512396 5.0
vertex 46.9770965662557 39.0603274642291 35.0
vertex 48.0126304721885 38.2657343512396 35.0
endloop
endfacet
facet normal -0.608761429008722 0.793353340291234 -0.0
outer loop
vertex 58.7626304721885 11.966696245563 35.0
vertex 60.108824549901 12.9996672924493 5.0
vertex 58.7626304721885 11.966696245563 5.0
endloop
endfacet
facet normal -0.608761429008722 0.793353340291234 -0.0
outer loop
vertex 60.108824549901 12.9996672924493 5.0
vertex 58.7626304721885 11.966696245563 35.0
vertex 60.108824549901 12.9996672924493 35.0
endloop
endfacet
facet normal 0.707106781186547 -0.707106781186547 0.0
outer loop
vertex 68.0126304721885 15.0958613701618 0.0
vertex 55.5126304721885 2.59586137016182 35.0
vertex 55.5126304721885 2.59586137016182 0.0
endloop
endfacet
facet normal 0.707106781186547 -0.707106781186547 0.0
outer loop
vertex 55.5126304721885 2.59586137016182 35.0
vertex 68.0126304721885 15.0958613701618 0.0
vertex 68.0126304721885 15.0958613701618 35.0
endloop
endfacet
facet normal 0.793353340291234 0.608761429008722 0.0
outer loop
vertex 46.1825034532663 40.0958613701618 5.0
vertex 46.9770965662557 39.0603274642291 35.0
vertex 46.9770965662557 39.0603274642291 5.0
endloop
endfacet
facet normal 0.793353340291234 0.608761429008722 0.0
outer loop
vertex 46.9770965662557 39.0603274642291 35.0
vertex 46.1825034532663 40.0958613701618 5.0
vertex 46.1825034532663 40.0958613701618 35.0
endloop
endfacet
facet normal 0.923879532511287 0.382683432365089 0.0
outer loop
vertex 45.6830013407431 41.3017661446492 5.0
vertex 46.1825034532663 40.0958613701618 35.0
vertex 46.1825034532663 40.0958613701618 5.0
endloop
endfacet
facet normal 0.923879532511287 0.382683432365089 0.0
outer loop
vertex 46.1825034532663 40.0958613701618 35.0
vertex 45.6830013407431 41.3017661446492 5.0
vertex 45.6830013407431 41.3017661446492 35.0
endloop
endfacet
facet normal 0.99144486137381 0.130526192220052 0.0
outer loop
vertex 45.5126304721885 42.5958613701618 5.0
vertex 45.6830013407431 41.3017661446492 35.0
vertex 45.6830013407431 41.3017661446492 5.0
endloop
endfacet
facet normal 0.99144486137381 0.130526192220052 0.0
outer loop
vertex 45.6830013407431 41.3017661446492 35.0
vertex 45.5126304721885 42.5958613701618 5.0
vertex 45.5126304721885 42.5958613701618 35.0
endloop
endfacet
facet normal 0.0 0.0 1.0
outer loop
vertex 45.6830013407431 41.3017661446492 5.0
vertex 45.6830013407431 43.8899565956744 5.0
vertex 45.5126304721885 42.5958613701618 5.0
endloop
endfacet
facet normal 0.0 0.0 1.0
outer loop
vertex 45.6830013407431 43.8899565956744 5.0
vertex 45.6830013407431 41.3017661446492 5.0
vertex 46.1825034532663 40.0958613701618 5.0
endloop
endfacet
facet normal 0.0 0.0 1.0
outer loop
vertex 45.6830013407431 43.8899565956744 5.0
vertex 46.1825034532663 40.0958613701618 5.0
vertex 46.1825034532663 45.0958613701618 5.0
endloop
endfacet
facet normal 0.0 0.0 1.0
outer loop
vertex 46.1825034532663 45.0958613701618 5.0
vertex 46.1825034532663 40.0958613701618 5.0
vertex 46.9770965662557 39.0603274642291 5.0
endloop
endfacet
facet normal 0.0 0.0 1.0
outer loop
vertex 46.1825034532663 45.0958613701618 5.0
vertex 46.9770965662557 39.0603274642291 5.0
vertex 46.9770965662557 46.1313952760946 5.0
endloop
endfacet
facet normal 0.0 0.0 1.0
outer loop
vertex 46.9770965662557 46.1313952760946 5.0
vertex 46.9770965662557 39.0603274642291 5.0
vertex 48.0126304721885 38.2657343512396 5.0
endloop
endfacet
facet normal 0.0 0.0 1.0
outer loop
vertex 46.9770965662557 46.1313952760946 5.0
vertex 48.0126304721885 38.2657343512396 5.0
vertex 48.0126304721885 46.925988389084 5.0
endloop
endfacet
facet normal 0.0 0.0 1.0
outer loop
vertex 48.0126304721885 46.925988389084 5.0
vertex 48.0126304721885 38.2657343512396 5.0
vertex 49.2185352466759 47.4254905016072 5.0
endloop
endfacet
facet normal 0.0 0.0 1.0
outer loop
vertex 49.2185352466759 47.4254905016072 5.0
vertex 48.0126304721885 38.2657343512396 5.0
vertex 49.2185352466759 37.7662322387165 5.0
endloop
endfacet
facet normal 0.0 0.0 1.0
outer loop
vertex 49.2185352466759 47.4254905016072 5.0
vertex 49.2185352466759 37.7662322387165 5.0
vertex 50.5126304721885 47.5958613701618 5.0
endloop
endfacet
facet normal 0.0 0.0 1.0
outer loop
vertex 50.5126304721885 47.5958613701618 5.0
vertex 49.2185352466759 37.7662322387165 5.0
vertex 50.5126304721885 37.5958613701618 5.0
endloop
endfacet
facet normal 0.0 0.0 1.0
outer loop
vertex 50.5126304721885 47.5958613701618 5.0
vertex 50.5126304721885 37.5958613701618 5.0
vertex 51.8067256977011 37.7662322387165 5.0
endloop
endfacet
facet normal 0.0 0.0 1.0
outer loop
vertex 50.5126304721885 47.5958613701618 5.0
vertex 51.8067256977011 37.7662322387165 5.0
vertex 51.8067256977011 47.4254905016072 5.0
endloop
endfacet
facet normal 0.0 0.0 1.0
outer loop
vertex 51.8067256977011 47.4254905016072 5.0
vertex 51.8067256977011 37.7662322387165 5.0
vertex 53.0126304721885 46.925988389084 5.0
endloop
endfacet
facet normal 0.0 0.0 1.0
outer loop
vertex 53.0126304721885 46.925988389084 5.0
vertex 51.8067256977011 37.7662322387165 5.0
vertex 53.0126304721885 38.2657343512396 5.0
endloop
endfacet
facet normal 0.0 0.0 1.0
outer loop
vertex 53.0126304721885 46.925988389084 5.0
vertex 53.0126304721885 38.2657343512396 5.0
vertex 54.0481643781212 46.1313952760946 5.0
endloop
endfacet
facet normal 0.0 0.0 1.0
outer loop
vertex 54.0481643781212 46.1313952760946 5.0
vertex 53.0126304721885 38.2657343512396 5.0
vertex 54.0481643781212 39.0603274642291 5.0
endloop
endfacet
facet normal 0.0 0.0 1.0
outer loop
vertex 54.0481643781212 46.1313952760946 5.0
vertex 54.0481643781212 39.0603274642291 5.0
vertex 54.8427574911107 45.0958613701618 5.0
endloop
endfacet
facet normal 0.0 0.0 1.0
outer loop
vertex 54.8427574911107 45.0958613701618 5.0
vertex 54.0481643781212 39.0603274642291 5.0
vertex 54.8427574911107 40.0958613701618 5.0
endloop
endfacet
facet normal 0.0 0.0 1.0
outer loop
vertex 54.8427574911107 45.0958613701618 5.0
vertex 54.8427574911107 40.0958613701618 5.0
vertex 55.3422596036338 41.3017661446492 5.0
endloop
endfacet
facet normal 0.0 0.0 1.0
outer loop
vertex 54.8427574911107 45.0958613701618 5.0
vertex 55.3422596036338 41.3017661446492 5.0
vertex 55.3422596036338 43.8899565956744 5.0
endloop
endfacet
facet normal 0.0 0.0 1.0
outer loop
vertex 55.3422596036338 43.8899565956744 5.0
vertex 55.3422596036338 41.3017661446492 5.0
vertex 55.5126304721885 42.5958613701618 5.0
endloop
endfacet
facet normal 0.130526192220051 -0.99144486137381 -0.0
outer loop
vertex 50.5126304721885 47.5958613701618 35.0
vertex 49.2185352466759 47.4254905016072 5.0
vertex 50.5126304721885 47.5958613701618 5.0
endloop
endfacet
facet normal 0.130526192220051 -0.99144486137381 -0.0
outer loop
vertex 49.2185352466759 47.4254905016072 5.0
vertex 50.5126304721885 47.5958613701618 35.0
vertex 49.2185352466759 47.4254905016072 35.0
endloop
endfacet
facet normal -0.130526192220052 -0.99144486137381 -0.0
outer loop
vertex 51.8067256977011 47.4254905016072 35.0
vertex 50.5126304721885 47.5958613701618 5.0
vertex 51.8067256977011 47.4254905016072 5.0
endloop
endfacet
facet normal -0.130526192220052 -0.99144486137381 -0.0
outer loop
vertex 50.5126304721885 47.5958613701618 5.0
vertex 51.8067256977011 47.4254905016072 35.0
vertex 50.5126304721885 47.5958613701618 35.0
endloop
endfacet
facet normal -0.38268343236509 -0.923879532511287 -0.0
outer loop
vertex 53.0126304721885 46.925988389084 35.0
vertex 51.8067256977011 47.4254905016072 5.0
vertex 53.0126304721885 46.925988389084 5.0
endloop
endfacet
facet normal -0.38268343236509 -0.923879532511287 -0.0
outer loop
vertex 51.8067256977011 47.4254905016072 5.0
vertex 53.0126304721885 46.925988389084 35.0
vertex 51.8067256977011 47.4254905016072 35.0
endloop
endfacet
facet normal -0.60876142900872 -0.793353340291236 -0.0
outer loop
vertex 54.0481643781212 46.1313952760946 35.0
vertex 53.0126304721885 46.925988389084 5.0
vertex 54.0481643781212 46.1313952760946 5.0
endloop
endfacet
facet normal -0.60876142900872 -0.793353340291236 -0.0
outer loop
vertex 53.0126304721885 46.925988389084 5.0
vertex 54.0481643781212 46.1313952760946 35.0
vertex 53.0126304721885 46.925988389084 35.0
endloop
endfacet
facet normal -0.793353340291234 -0.608761429008722 -0.0
outer loop
vertex 54.0481643781212 46.1313952760946 35.0
vertex 54.8427574911107 45.0958613701618 5.0
vertex 54.8427574911107 45.0958613701618 35.0
endloop
endfacet
facet normal -0.793353340291234 -0.608761429008722 -0.0
outer loop
vertex 54.8427574911107 45.0958613701618 5.0
vertex 54.0481643781212 46.1313952760946 35.0
vertex 54.0481643781212 46.1313952760946 5.0
endloop
endfacet
facet normal -0.923879532511287 -0.38268343236509 -0.0
outer loop
vertex 54.8427574911107 45.0958613701618 35.0
vertex 55.3422596036338 43.8899565956744 5.0
vertex 55.3422596036338 43.8899565956744 35.0
endloop
endfacet
facet normal -0.923879532511287 -0.38268343236509 -0.0
outer loop
vertex 55.3422596036338 43.8899565956744 5.0
vertex 54.8427574911107 45.0958613701618 35.0
vertex 54.8427574911107 45.0958613701618 5.0
endloop
endfacet
facet normal -0.99144486137381 -0.130526192220056 -0.0
outer loop
vertex 55.3422596036338 43.8899565956744 35.0
vertex 55.5126304721885 42.5958613701618 5.0
vertex 55.5126304721885 42.5958613701618 35.0
endloop
endfacet
facet normal -0.99144486137381 -0.130526192220056 -0.0
outer loop
vertex 55.5126304721885 42.5958613701618 5.0
vertex 55.3422596036338 43.8899565956744 35.0
vertex 55.3422596036338 43.8899565956744 5.0
endloop
endfacet
facet normal -0.382683432365088 0.923879532511287 -0.0
outer loop
vertex 57.1949542653549 11.3173434992829 35.0
vertex 58.7626304721885 11.966696245563 5.0
vertex 57.1949542653549 11.3173434992829 5.0
endloop
endfacet
facet normal -0.382683432365088 0.923879532511287 -0.0
outer loop
vertex 58.7626304721885 11.966696245563 5.0
vertex 57.1949542653549 11.3173434992829 35.0
vertex 58.7626304721885 11.966696245563 35.0
endloop
endfacet
facet normal -0.130526192220052 0.99144486137381 -0.0
outer loop
vertex 55.5126304721885 11.0958613701618 35.0
vertex 57.1949542653549 11.3173434992829 5.0
vertex 55.5126304721885 11.0958613701618 5.0
endloop
endfacet
facet normal -0.130526192220052 0.99144486137381 -0.0
outer loop
vertex 57.1949542653549 11.3173434992829 5.0
vertex 55.5126304721885 11.0958613701618 35.0
vertex 57.1949542653549 11.3173434992829 35.0
endloop
endfacet
facet normal 0.382683432365091 -0.923879532511286 -0.0
outer loop
vertex 53.8303066790221 23.8743792410408 35.0
vertex 52.2626304721885 23.2250264947607 5.0
vertex 53.8303066790221 23.8743792410408 5.0
endloop
endfacet
facet normal 0.382683432365091 -0.923879532511286 -0.0
outer loop
vertex 52.2626304721885 23.2250264947607 5.0
vertex 53.8303066790221 23.8743792410408 35.0
vertex 52.2626304721885 23.2250264947607 35.0
endloop
endfacet
facet normal 0.130526192220051 -0.99144486137381 -0.0
outer loop
vertex 55.5126304721885 24.0958613701618 35.0
vertex 53.8303066790221 23.8743792410408 5.0
vertex 55.5126304721885 24.0958613701618 5.0
endloop
endfacet
facet normal 0.130526192220051 -0.99144486137381 -0.0
outer loop
vertex 53.8303066790221 23.8743792410408 5.0
vertex 55.5126304721885 24.0958613701618 35.0
vertex 53.8303066790221 23.8743792410408 35.0
endloop
endfacet
facet normal -0.130526192220052 -0.99144486137381 -0.0
outer loop
vertex 57.1949542653549 23.8743792410408 35.0
vertex 55.5126304721885 24.0958613701618 5.0
vertex 57.1949542653549 23.8743792410408 5.0
endloop
endfacet
facet normal -0.130526192220052 -0.99144486137381 -0.0
outer loop
vertex 55.5126304721885 24.0958613701618 5.0
vertex 57.1949542653549 23.8743792410408 35.0
vertex 55.5126304721885 24.0958613701618 35.0
endloop
endfacet
facet normal -0.382683432365088 -0.923879532511287 -0.0
outer loop
vertex 58.7626304721885 23.2250264947607 35.0
vertex 57.1949542653549 23.8743792410408 5.0
vertex 58.7626304721885 23.2250264947607 5.0
endloop
endfacet
facet normal -0.382683432365088 -0.923879532511287 -0.0
outer loop
vertex 57.1949542653549 23.8743792410408 5.0
vertex 58.7626304721885 23.2250264947607 35.0
vertex 57.1949542653549 23.8743792410408 35.0
endloop
endfacet
facet normal -0.60876142900872 -0.793353340291236 -0.0
outer loop
vertex 60.108824549901 22.1920554478744 35.0
vertex 58.7626304721885 23.2250264947607 5.0
vertex 60.108824549901 22.1920554478744 5.0
endloop
endfacet
facet normal -0.60876142900872 -0.793353340291236 -0.0
outer loop
vertex 58.7626304721885 23.2250264947607 5.0
vertex 60.108824549901 22.1920554478744 35.0
vertex 58.7626304721885 23.2250264947607 35.0
endloop
endfacet
facet normal -0.793353340291235 -0.608761429008721 -0.0
outer loop
vertex 60.108824549901 22.1920554478744 35.0
vertex 61.1417955967873 20.8458613701618 5.0
vertex 61.1417955967873 20.8458613701618 35.0
endloop
endfacet
facet normal -0.793353340291235 -0.608761429008721 -0.0
outer loop
vertex 61.1417955967873 20.8458613701618 5.0
vertex 60.108824549901 22.1920554478744 35.0
vertex 60.108824549901 22.1920554478744 5.0
endloop
endfacet
facet normal -0.923879532511287 -0.382683432365088 -0.0
outer loop
vertex 61.1417955967873 20.8458613701618 35.0
vertex 61.7911483430674 19.2781851633282 5.0
vertex 61.7911483430674 19.2781851633282 35.0
endloop
endfacet
facet normal -0.923879532511287 -0.382683432365088 -0.0
outer loop
vertex 61.7911483430674 19.2781851633282 5.0
vertex 61.1417955967873 20.8458613701618 35.0
vertex 61.1417955967873 20.8458613701618 5.0
endloop
endfacet
facet normal -0.99144486137381 -0.130526192220053 -0.0
outer loop
vertex 61.7911483430674 19.2781851633282 35.0
vertex 62.0126304721885 17.5958613701618 5.0
vertex 62.0126304721885 17.5958613701618 35.0
endloop
endfacet
facet normal -0.99144486137381 -0.130526192220053 -0.0
outer loop
vertex 62.0126304721885 17.5958613701618 5.0
vertex 61.7911483430674 19.2781851633282 35.0
vertex 61.7911483430674 19.2781851633282 5.0
endloop
endfacet
facet normal -0.99144486137381 0.130526192220053 -0.0
outer loop
vertex 62.0126304721885 17.5958613701618 35.0
vertex 61.7911483430674 15.9135375769954 5.0
vertex 61.7911483430674 15.9135375769954 35.0
endloop
endfacet
facet normal -0.99144486137381 0.130526192220053 -0.0
outer loop
vertex 61.7911483430674 15.9135375769954 5.0
vertex 62.0126304721885 17.5958613701618 35.0
vertex 62.0126304721885 17.5958613701618 5.0
endloop
endfacet
facet normal 0.0 0.0 1.0
outer loop
vertex 49.2341126013095 15.9135375769954 5.0
vertex 49.2341126013095 19.2781851633282 5.0
vertex 49.0126304721885 17.5958613701618 5.0
endloop
endfacet
facet normal 0.0 0.0 1.0
outer loop
vertex 49.2341126013095 19.2781851633282 5.0
vertex 49.2341126013095 15.9135375769954 5.0
vertex 49.8834653475896 20.8458613701618 5.0
endloop
endfacet
facet normal 0.0 0.0 1.0
outer loop
vertex 49.8834653475896 20.8458613701618 5.0
vertex 49.2341126013095 15.9135375769954 5.0
vertex 49.8834653475896 14.3458613701618 5.0
endloop
endfacet
facet normal 0.0 0.0 1.0
outer loop
vertex 49.8834653475896 20.8458613701618 5.0
vertex 49.8834653475896 14.3458613701618 5.0
vertex 50.9164363944759 12.9996672924493 5.0
endloop
endfacet
facet normal 0.0 0.0 1.0
outer loop
vertex 49.8834653475896 20.8458613701618 5.0
vertex 50.9164363944759 12.9996672924493 5.0
vertex 50.9164363944759 22.1920554478744 5.0
endloop
endfacet
facet normal 0.0 0.0 1.0
outer loop
vertex 50.9164363944759 22.1920554478744 5.0
vertex 50.9164363944759 12.9996672924493 5.0
vertex 52.2626304721885 11.966696245563 5.0
endloop
endfacet
facet normal 0.0 0.0 1.0
outer loop
vertex 50.9164363944759 22.1920554478744 5.0
vertex 52.2626304721885 11.966696245563 5.0
vertex 52.2626304721885 23.2250264947607 5.0
endloop
endfacet
facet normal 0.0 0.0 1.0
outer loop
vertex 52.2626304721885 23.2250264947607 5.0
vertex 52.2626304721885 11.966696245563 5.0
vertex 53.8303066790221 23.8743792410408 5.0
endloop
endfacet
facet normal 0.0 0.0 1.0
outer loop
vertex 53.8303066790221 23.8743792410408 5.0
vertex 52.2626304721885 11.966696245563 5.0
vertex 53.8303066790221 11.3173434992829 5.0
endloop
endfacet
facet normal 0.0 0.0 1.0
outer loop
vertex 53.8303066790221 23.8743792410408 5.0
vertex 53.8303066790221 11.3173434992829 5.0
vertex 55.5126304721885 24.0958613701618 5.0
endloop
endfacet
facet normal 0.0 0.0 1.0
outer loop
vertex 55.5126304721885 24.0958613701618 5.0
vertex 53.8303066790221 11.3173434992829 5.0
vertex 55.5126304721885 11.0958613701618 5.0
endloop
endfacet
facet normal 0.0 0.0 1.0
outer loop
vertex 55.5126304721885 24.0958613701618 5.0
vertex 55.5126304721885 11.0958613701618 5.0
vertex 57.1949542653549 11.3173434992829 5.0
endloop
endfacet
facet normal 0.0 0.0 1.0
outer loop
vertex 55.5126304721885 24.0958613701618 5.0
vertex 57.1949542653549 11.3173434992829 5.0
vertex 57.1949542653549 23.8743792410408 5.0
endloop
endfacet
facet normal 0.0 0.0 1.0
outer loop
vertex 57.1949542653549 23.8743792410408 5.0
vertex 57.1949542653549 11.3173434992829 5.0
vertex 58.7626304721885 11.966696245563 5.0
endloop
endfacet
facet normal 0.0 0.0 1.0
outer loop
vertex 57.1949542653549 23.8743792410408 5.0
vertex 58.7626304721885 11.966696245563 5.0
vertex 58.7626304721885 23.2250264947607 5.0
endloop
endfacet
facet normal 0.0 0.0 1.0
outer loop
vertex 58.7626304721885 23.2250264947607 5.0
vertex 58.7626304721885 11.966696245563 5.0
vertex 60.108824549901 22.1920554478744 5.0
endloop
endfacet
facet normal 0.0 0.0 1.0
outer loop
vertex 60.108824549901 22.1920554478744 5.0
vertex 58.7626304721885 11.966696245563 5.0
vertex 60.108824549901 12.9996672924493 5.0
endloop
endfacet
facet normal 0.0 0.0 1.0
outer loop
vertex 60.108824549901 22.1920554478744 5.0
vertex 60.108824549901 12.9996672924493 5.0
vertex 61.1417955967873 14.3458613701618 5.0
endloop
endfacet
facet normal 0.0 0.0 1.0
outer loop
vertex 60.108824549901 22.1920554478744 5.0
vertex 61.1417955967873 14.3458613701618 5.0
vertex 61.1417955967873 20.8458613701618 5.0
endloop
endfacet
facet normal 0.0 0.0 1.0
outer loop
vertex 61.1417955967873 20.8458613701618 5.0
vertex 61.1417955967873 14.3458613701618 5.0
vertex 61.7911483430674 15.9135375769954 5.0
endloop
endfacet
facet normal 0.0 0.0 1.0
outer loop
vertex 61.1417955967873 20.8458613701618 5.0
vertex 61.7911483430674 15.9135375769954 5.0
vertex 61.7911483430674 19.2781851633282 5.0
endloop
endfacet
facet normal 0.0 0.0 1.0
outer loop
vertex 61.7911483430674 19.2781851633282 5.0
vertex 61.7911483430674 15.9135375769954 5.0
vertex 62.0126304721885 17.5958613701618 5.0
endloop
endfacet
facet normal 0.130526192220052 0.99144486137381 0.0
outer loop
vertex 53.8303066790221 11.3173434992829 35.0
vertex 55.5126304721885 11.0958613701618 5.0
vertex 53.8303066790221 11.3173434992829 5.0
endloop
endfacet
facet normal 0.130526192220052 0.99144486137381 0.0
outer loop
vertex 55.5126304721885 11.0958613701618 5.0
vertex 53.8303066790221 11.3173434992829 35.0
vertex 55.5126304721885 11.0958613701618 35.0
endloop
endfacet
facet normal 0.38268343236509 0.923879532511287 0.0
outer loop
vertex 52.2626304721885 11.966696245563 35.0
vertex 53.8303066790221 11.3173434992829 5.0
vertex 52.2626304721885 11.966696245563 5.0
endloop
endfacet
facet normal 0.38268343236509 0.923879532511287 0.0
outer loop
vertex 53.8303066790221 11.3173434992829 5.0
vertex 52.2626304721885 11.966696245563 35.0
vertex 53.8303066790221 11.3173434992829 35.0
endloop
endfacet
facet normal 0.608761429008719 0.793353340291236 0.0
outer loop
vertex 50.9164363944759 12.9996672924493 35.0
vertex 52.2626304721885 11.966696245563 5.0
vertex 50.9164363944759 12.9996672924493 5.0
endloop
endfacet
facet normal 0.608761429008719 0.793353340291236 0.0
outer loop
vertex 52.2626304721885 11.966696245563 5.0
vertex 50.9164363944759 12.9996672924493 35.0
vertex 52.2626304721885 11.966696245563 35.0
endloop
endfacet
facet normal 0.793353340291235 0.608761429008721 0.0
outer loop
vertex 49.8834653475896 14.3458613701618 5.0
vertex 50.9164363944759 12.9996672924493 35.0
vertex 50.9164363944759 12.9996672924493 5.0
endloop
endfacet
facet normal 0.793353340291235 0.608761429008721 0.0
outer loop
vertex 50.9164363944759 12.9996672924493 35.0
vertex 49.8834653475896 14.3458613701618 5.0
vertex 49.8834653475896 14.3458613701618 35.0
endloop
endfacet
facet normal 0.923879532511288 0.382683432365087 0.0
outer loop
vertex 49.2341126013095 15.9135375769954 5.0
vertex 49.8834653475896 14.3458613701618 35.0
vertex 49.8834653475896 14.3458613701618 5.0
endloop
endfacet
facet normal 0.923879532511288 0.382683432365087 0.0
outer loop
vertex 49.8834653475896 14.3458613701618 35.0
vertex 49.2341126013095 15.9135375769954 5.0
vertex 49.2341126013095 15.9135375769954 35.0
endloop
endfacet
facet normal 0.99144486137381 0.130526192220053 0.0
outer loop
vertex 49.0126304721885 17.5958613701618 5.0
vertex 49.2341126013095 15.9135375769954 35.0
vertex 49.2341126013095 15.9135375769954 5.0
endloop
endfacet
facet normal 0.99144486137381 0.130526192220053 0.0
outer loop
vertex 49.2341126013095 15.9135375769954 35.0
vertex 49.0126304721885 17.5958613701618 5.0
vertex 49.0126304721885 17.5958613701618 35.0
endloop
endfacet
facet normal 0.991444861373811 -0.13052619222005 -0.0
outer loop
vertex 49.2341126013095 19.2781851633282 5.0
vertex 49.0126304721885 17.5958613701618 35.0
vertex 49.0126304721885 17.5958613701618 5.0
endloop
endfacet
facet normal 0.991444861373811 -0.13052619222005 -0.0
outer loop
vertex 49.0126304721885 17.5958613701618 35.0
vertex 49.2341126013095 19.2781851633282 5.0
vertex 49.2341126013095 19.2781851633282 35.0
endloop
endfacet
facet normal 0.923879532511287 -0.38268343236509 -0.0
outer loop
vertex 49.8834653475896 20.8458613701618 5.0
vertex 49.2341126013095 19.2781851633282 35.0
vertex 49.2341126013095 19.2781851633282 5.0
endloop
endfacet
facet normal 0.923879532511287 -0.38268343236509 -0.0
outer loop
vertex 49.2341126013095 19.2781851633282 35.0
vertex 49.8834653475896 20.8458613701618 5.0
vertex 49.8834653475896 20.8458613701618 35.0
endloop
endfacet
facet normal 0.793353340291235 -0.608761429008721 -0.0
outer loop
vertex 50.9164363944759 22.1920554478744 5.0
vertex 49.8834653475896 20.8458613701618 35.0
vertex 49.8834653475896 20.8458613701618 5.0
endloop
endfacet
facet normal 0.793353340291235 -0.608761429008721 -0.0
outer loop
vertex 49.8834653475896 20.8458613701618 35.0
vertex 50.9164363944759 22.1920554478744 5.0
vertex 50.9164363944759 22.1920554478744 35.0
endloop
endfacet
facet normal -0.991444861373811 0.130526192220048 -0.0
outer loop
vertex 55.5126304721885 42.5958613701618 35.0
vertex 55.3422596036338 41.3017661446492 5.0
vertex 55.3422596036338 41.3017661446492 35.0
endloop
endfacet
facet normal -0.991444861373811 0.130526192220048 -0.0
outer loop
vertex 55.3422596036338 41.3017661446492 5.0
vertex 55.5126304721885 42.5958613701618 35.0
vertex 55.5126304721885 42.5958613701618 5.0
endloop
endfacet
facet normal -0.923879532511284 0.382683432365098 -0.0
outer loop
vertex 55.3422596036338 41.3017661446492 35.0
vertex 54.8427574911107 40.0958613701618 5.0
vertex 54.8427574911107 40.0958613701618 35.0
endloop
endfacet
facet normal -0.923879532511284 0.382683432365098 -0.0
outer loop
vertex 54.8427574911107 40.0958613701618 5.0
vertex 55.3422596036338 41.3017661446492 35.0
vertex 55.3422596036338 41.3017661446492 5.0
endloop
endfacet
facet normal -0.79335334029124 0.608761429008714 -0.0
outer loop
vertex 54.8427574911107 40.0958613701618 35.0
vertex 54.0481643781212 39.0603274642291 5.0
vertex 54.0481643781212 39.0603274642291 35.0
endloop
endfacet
facet normal -0.79335334029124 0.608761429008714 -0.0
outer loop
vertex 54.0481643781212 39.0603274642291 5.0
vertex 54.8427574911107 40.0958613701618 35.0
vertex 54.8427574911107 40.0958613701618 5.0
endloop
endfacet
facet normal 0.608761429008722 -0.793353340291234 -0.0
outer loop
vertex 52.2626304721885 23.2250264947607 35.0
vertex 50.9164363944759 22.1920554478744 5.0
vertex 52.2626304721885 23.2250264947607 5.0
endloop
endfacet
facet normal 0.608761429008722 -0.793353340291234 -0.0
outer loop
vertex 50.9164363944759 22.1920554478744 5.0
vertex 52.2626304721885 23.2250264947607 35.0
vertex 50.9164363944759 22.1920554478744 35.0
endloop
endfacet
facet normal -0.99144486137381 -0.130526192220053 -0.0
outer loop
vertex 61.7911483430674 69.2781851633282 35.0
vertex 62.0126304721885 67.5958613701618 5.0
vertex 62.0126304721885 67.5958613701618 35.0
endloop
endfacet
facet normal -0.99144486137381 -0.130526192220053 -0.0
outer loop
vertex 62.0126304721885 67.5958613701618 5.0
vertex 61.7911483430674 69.2781851633282 35.0
vertex 61.7911483430674 69.2781851633282 5.0
endloop
endfacet
facet normal -0.99144486137381 0.130526192220054 -0.0
outer loop
vertex 62.0126304721885 67.5958613701618 35.0
vertex 61.7911483430674 65.9135375769954 5.0
vertex 61.7911483430674 65.9135375769954 35.0
endloop
endfacet
facet normal -0.99144486137381 0.130526192220054 -0.0
outer loop
vertex 61.7911483430674 65.9135375769954 5.0
vertex 62.0126304721885 67.5958613701618 35.0
vertex 62.0126304721885 67.5958613701618 5.0
endloop
endfacet
facet normal -0.923879532511287 0.382683432365088 -0.0
outer loop
vertex 61.7911483430674 65.9135375769954 35.0
vertex 61.1417955967873 64.3458613701618 5.0
vertex 61.1417955967873 64.3458613701618 35.0
endloop
endfacet
facet normal -0.923879532511287 0.382683432365088 -0.0
outer loop
vertex 61.1417955967873 64.3458613701618 5.0
vertex 61.7911483430674 65.9135375769954 35.0
vertex 61.7911483430674 65.9135375769954 5.0
endloop
endfacet
facet normal -0.793353340291236 0.608761429008719 -0.0
outer loop
vertex 61.1417955967873 64.3458613701618 35.0
vertex 60.108824549901 62.9996672924493 5.0
vertex 60.108824549901 62.9996672924493 35.0
endloop
endfacet
facet normal -0.793353340291236 0.608761429008719 -0.0
outer loop
vertex 60.108824549901 62.9996672924493 5.0
vertex 61.1417955967873 64.3458613701618 35.0
vertex 61.1417955967873 64.3458613701618 5.0
endloop
endfacet
facet normal -0.608761429008722 0.793353340291234 -0.0
outer loop
vertex 58.7626304721885 61.966696245563 35.0
vertex 60.108824549901 62.9996672924493 5.0
vertex 58.7626304721885 61.966696245563 5.0
endloop
endfacet
facet normal -0.608761429008722 0.793353340291234 -0.0
outer loop
vertex 60.108824549901 62.9996672924493 5.0
vertex 58.7626304721885 61.966696245563 35.0
vertex 60.108824549901 62.9996672924493 35.0
endloop
endfacet
facet normal 0.793353340291236 -0.608761429008719 -0.0
outer loop
vertex 50.9164363944759 72.1920554478744 5.0
vertex 49.8834653475896 70.8458613701618 35.0
vertex 49.8834653475896 70.8458613701618 5.0
endloop
endfacet
facet normal 0.793353340291236 -0.608761429008719 -0.0
outer loop
vertex 49.8834653475896 70.8458613701618 35.0
vertex 50.9164363944759 72.1920554478744 5.0
vertex 50.9164363944759 72.1920554478744 35.0
endloop
endfacet
facet normal 0.608761429008722 -0.793353340291234 -0.0
outer loop
vertex 52.2626304721885 73.2250264947607 35.0
vertex 50.9164363944759 72.1920554478744 5.0
vertex 52.2626304721885 73.2250264947607 5.0
endloop
endfacet
facet normal 0.608761429008722 -0.793353340291234 -0.0
outer loop
vertex 50.9164363944759 72.1920554478744 5.0
vertex 52.2626304721885 73.2250264947607 35.0
vertex 50.9164363944759 72.1920554478744 35.0
endloop
endfacet
facet normal 0.382683432365088 -0.923879532511287 -0.0
outer loop
vertex 53.8303066790221 73.8743792410408 35.0
vertex 52.2626304721885 73.2250264947607 5.0
vertex 53.8303066790221 73.8743792410408 5.0
endloop
endfacet
facet normal 0.382683432365088 -0.923879532511287 -0.0
outer loop
vertex 52.2626304721885 73.2250264947607 5.0
vertex 53.8303066790221 73.8743792410408 35.0
vertex 52.2626304721885 73.2250264947607 35.0
endloop
endfacet
facet normal 0.130526192220053 -0.99144486137381 -0.0
outer loop
vertex 55.5126304721885 74.0958613701618 35.0
vertex 53.8303066790221 73.8743792410408 5.0
vertex 55.5126304721885 74.0958613701618 5.0
endloop
endfacet
facet normal 0.130526192220053 -0.99144486137381 -0.0
outer loop
vertex 53.8303066790221 73.8743792410408 5.0
vertex 55.5126304721885 74.0958613701618 35.0
vertex 53.8303066790221 73.8743792410408 35.0
endloop
endfacet
facet normal -0.130526192220054 -0.99144486137381 -0.0
outer loop
vertex 57.1949542653549 73.8743792410408 35.0
vertex 55.5126304721885 74.0958613701618 5.0
vertex 57.1949542653549 73.8743792410408 5.0
endloop
endfacet
facet normal -0.130526192220054 -0.99144486137381 -0.0
outer loop
vertex 55.5126304721885 74.0958613701618 5.0
vertex 57.1949542653549 73.8743792410408 35.0
vertex 55.5126304721885 74.0958613701618 35.0
endloop
endfacet
facet normal -0.382683432365088 -0.923879532511287 -0.0
outer loop
vertex 58.7626304721885 73.2250264947607 35.0
vertex 57.1949542653549 73.8743792410408 5.0
vertex 58.7626304721885 73.2250264947607 5.0
endloop
endfacet
facet normal -0.382683432365088 -0.923879532511287 -0.0
outer loop
vertex 57.1949542653549 73.8743792410408 5.0
vertex 58.7626304721885 73.2250264947607 35.0
vertex 57.1949542653549 73.8743792410408 35.0
endloop
endfacet
facet normal -0.608761429008719 -0.793353340291236 -0.0
outer loop
vertex 60.108824549901 72.1920554478744 35.0
vertex 58.7626304721885 73.2250264947607 5.0
vertex 60.108824549901 72.1920554478744 5.0
endloop
endfacet
facet normal -0.608761429008719 -0.793353340291236 -0.0
outer loop
vertex 58.7626304721885 73.2250264947607 5.0
vertex 60.108824549901 72.1920554478744 35.0
vertex 58.7626304721885 73.2250264947607 35.0
endloop
endfacet
facet normal -0.793353340291234 -0.608761429008722 -0.0
outer loop
vertex 60.108824549901 72.1920554478744 35.0
vertex 61.1417955967873 70.8458613701618 5.0
vertex 61.1417955967873 70.8458613701618 35.0
endloop
endfacet
facet normal -0.793353340291234 -0.608761429008722 -0.0
outer loop
vertex 61.1417955967873 70.8458613701618 5.0
vertex 60.108824549901 72.1920554478744 35.0
vertex 60.108824549901 72.1920554478744 5.0
endloop
endfacet
facet normal -0.923879532511287 -0.382683432365088 -0.0
outer loop
vertex 61.1417955967873 70.8458613701618 35.0
vertex 61.7911483430674 69.2781851633282 5.0
vertex 61.7911483430674 69.2781851633282 35.0
endloop
endfacet
facet normal -0.923879532511287 -0.382683432365088 -0.0
outer loop
vertex 61.7911483430674 69.2781851633282 5.0
vertex 61.1417955967873 70.8458613701618 35.0
vertex 61.1417955967873 70.8458613701618 5.0
endloop
endfacet
facet normal 0.0 0.0 1.0
outer loop
vertex 49.2341126013095 65.9135375769954 5.0
vertex 49.2341126013095 69.2781851633282 5.0
vertex 49.0126304721885 67.5958613701618 5.0
endloop
endfacet
facet normal 0.0 0.0 1.0
outer loop
vertex 49.2341126013095 69.2781851633282 5.0
vertex 49.2341126013095 65.9135375769954 5.0
vertex 49.8834653475896 70.8458613701618 5.0
endloop
endfacet
facet normal 0.0 0.0 1.0
outer loop
vertex 49.8834653475896 70.8458613701618 5.0
vertex 49.2341126013095 65.9135375769954 5.0
vertex 49.8834653475896 64.3458613701618 5.0
endloop
endfacet
facet normal 0.0 0.0 1.0
outer loop
vertex 49.8834653475896 70.8458613701618 5.0
vertex 49.8834653475896 64.3458613701618 5.0
vertex 50.9164363944759 62.9996672924493 5.0
endloop
endfacet
facet normal 0.0 0.0 1.0
outer loop
vertex 49.8834653475896 70.8458613701618 5.0
vertex 50.9164363944759 62.9996672924493 5.0
vertex 50.9164363944759 72.1920554478744 5.0
endloop
endfacet
facet normal 0.0 0.0 1.0
outer loop
vertex 50.9164363944759 72.1920554478744 5.0
vertex 50.9164363944759 62.9996672924493 5.0
vertex 52.2626304721885 61.966696245563 5.0
endloop
endfacet
facet normal 0.0 0.0 1.0
outer loop
vertex 50.9164363944759 72.1920554478744 5.0
vertex 52.2626304721885 61.966696245563 5.0
vertex 52.2626304721885 73.2250264947607 5.0
endloop
endfacet
facet normal 0.0 0.0 1.0
outer loop
vertex 52.2626304721885 73.2250264947607 5.0
vertex 52.2626304721885 61.966696245563 5.0
vertex 53.8303066790221 73.8743792410408 5.0
endloop
endfacet
facet normal 0.0 0.0 1.0
outer loop
vertex 53.8303066790221 73.8743792410408 5.0
vertex 52.2626304721885 61.966696245563 5.0
vertex 53.8303066790221 61.3173434992829 5.0
endloop
endfacet
facet normal 0.0 0.0 1.0
outer loop
vertex 53.8303066790221 73.8743792410408 5.0
vertex 53.8303066790221 61.3173434992829 5.0
vertex 55.5126304721885 74.0958613701618 5.0
endloop
endfacet
facet normal 0.0 0.0 1.0
outer loop
vertex 55.5126304721885 74.0958613701618 5.0
vertex 53.8303066790221 61.3173434992829 5.0
vertex 55.5126304721885 61.0958613701618 5.0
endloop
endfacet
facet normal 0.0 0.0 1.0
outer loop
vertex 55.5126304721885 74.0958613701618 5.0
vertex 55.5126304721885 61.0958613701618 5.0
vertex 57.1949542653549 61.3173434992829 5.0
endloop
endfacet
facet normal 0.0 0.0 1.0
outer loop
vertex 55.5126304721885 74.0958613701618 5.0
vertex 57.1949542653549 61.3173434992829 5.0
vertex 57.1949542653549 73.8743792410408 5.0
endloop
endfacet
facet normal 0.0 0.0 1.0
outer loop
vertex 57.1949542653549 73.8743792410408 5.0
vertex 57.1949542653549 61.3173434992829 5.0
vertex 58.7626304721885 61.966696245563 5.0
endloop
endfacet
facet normal 0.0 0.0 1.0
outer loop
vertex 57.1949542653549 73.8743792410408 5.0
vertex 58.7626304721885 61.966696245563 5.0
vertex 58.7626304721885 73.2250264947607 5.0
endloop
endfacet
facet normal 0.0 0.0 1.0
outer loop
vertex 58.7626304721885 73.2250264947607 5.0
vertex 58.7626304721885 61.966696245563 5.0
vertex 60.108824549901 72.1920554478744 5.0
endloop
endfacet
facet normal 0.0 0.0 1.0
outer loop
vertex 60.108824549901 72.1920554478744 5.0
vertex 58.7626304721885 61.966696245563 5.0
vertex 60.108824549901 62.9996672924493 5.0
endloop
endfacet
facet normal 0.0 0.0 1.0
outer loop
vertex 60.108824549901 72.1920554478744 5.0
vertex 60.108824549901 62.9996672924493 5.0
vertex 61.1417955967873 64.3458613701618 5.0
endloop
endfacet
facet normal 0.0 0.0 1.0
outer loop
vertex 60.108824549901 72.1920554478744 5.0
vertex 61.1417955967873 64.3458613701618 5.0
vertex 61.1417955967873 70.8458613701618 5.0
endloop
endfacet
facet normal 0.0 0.0 1.0
outer loop
vertex 61.1417955967873 70.8458613701618 5.0
vertex 61.1417955967873 64.3458613701618 5.0
vertex 61.7911483430674 65.9135375769954 5.0
endloop
endfacet
facet normal 0.0 0.0 1.0
outer loop
vertex 61.1417955967873 70.8458613701618 5.0
vertex 61.7911483430674 65.9135375769954 5.0
vertex 61.7911483430674 69.2781851633282 5.0
endloop
endfacet
facet normal 0.0 0.0 1.0
outer loop
vertex 61.7911483430674 69.2781851633282 5.0
vertex 61.7911483430674 65.9135375769954 5.0
vertex 62.0126304721885 67.5958613701618 5.0
endloop
endfacet
facet normal -0.382683432365086 0.923879532511288 -0.0
outer loop
vertex 57.1949542653549 61.3173434992829 35.0
vertex 58.7626304721885 61.966696245563 5.0
vertex 57.1949542653549 61.3173434992829 5.0
endloop
endfacet
facet normal -0.382683432365086 0.923879532511288 -0.0
outer loop
vertex 58.7626304721885 61.966696245563 5.0
vertex 57.1949542653549 61.3173434992829 35.0
vertex 58.7626304721885 61.966696245563 35.0
endloop
endfacet
facet normal -0.130526192220054 0.99144486137381 -0.0
outer loop
vertex 55.5126304721885 61.0958613701618 35.0
vertex 57.1949542653549 61.3173434992829 5.0
vertex 55.5126304721885 61.0958613701618 5.0
endloop
endfacet
facet normal -0.130526192220054 0.99144486137381 -0.0
outer loop
vertex 57.1949542653549 61.3173434992829 5.0
vertex 55.5126304721885 61.0958613701618 35.0
vertex 57.1949542653549 61.3173434992829 35.0
endloop
endfacet
facet normal 0.130526192220054 0.99144486137381 0.0
outer loop
vertex 53.8303066790221 61.3173434992829 35.0
vertex 55.5126304721885 61.0958613701618 5.0
vertex 53.8303066790221 61.3173434992829 5.0
endloop
endfacet
facet normal 0.130526192220054 0.99144486137381 0.0
outer loop
vertex 55.5126304721885 61.0958613701618 5.0
vertex 53.8303066790221 61.3173434992829 35.0
vertex 55.5126304721885 61.0958613701618 35.0
endloop
endfacet
facet normal 0.382683432365088 0.923879532511287 0.0
outer loop
vertex 52.2626304721885 61.966696245563 35.0
vertex 53.8303066790221 61.3173434992829 5.0
vertex 52.2626304721885 61.966696245563 5.0
endloop
endfacet
facet normal 0.382683432365088 0.923879532511287 0.0
outer loop
vertex 53.8303066790221 61.3173434992829 5.0
vertex 52.2626304721885 61.966696245563 35.0
vertex 53.8303066790221 61.3173434992829 35.0
endloop
endfacet
facet normal 0.608761429008719 0.793353340291236 0.0
outer loop
vertex 50.9164363944759 62.9996672924493 35.0
vertex 52.2626304721885 61.966696245563 5.0
vertex 50.9164363944759 62.9996672924493 5.0
endloop
endfacet
facet normal 0.608761429008719 0.793353340291236 0.0
outer loop
vertex 52.2626304721885 61.966696245563 5.0
vertex 50.9164363944759 62.9996672924493 35.0
vertex 52.2626304721885 61.966696245563 35.0
endloop
endfacet
facet normal 0.707106781186547 0.707106781186547 -0.0
outer loop
vertex 55.5126304721885 82.5958613701618 0.0
vertex 68.0126304721885 70.0958613701618 35.0
vertex 68.0126304721885 70.0958613701618 0.0
endloop
endfacet
facet normal 0.707106781186547 0.707106781186547 -0.0
outer loop
vertex 68.0126304721885 70.0958613701618 35.0
vertex 55.5126304721885 82.5958613701618 0.0
vertex 55.5126304721885 82.5958613701618 35.0
endloop
endfacet
facet normal 0.793353340291234 0.608761429008722 0.0
outer loop
vertex 49.8834653475896 64.3458613701618 5.0
vertex 50.9164363944759 62.9996672924493 35.0
vertex 50.9164363944759 62.9996672924493 5.0
endloop
endfacet
facet normal 0.793353340291234 0.608761429008722 0.0
outer loop
vertex 50.9164363944759 62.9996672924493 35.0
vertex 49.8834653475896 64.3458613701618 5.0
vertex 49.8834653475896 64.3458613701618 35.0
endloop
endfacet
facet normal 0.923879532511288 0.382683432365086 0.0
outer loop
vertex 49.2341126013095 65.9135375769954 5.0
vertex 49.8834653475896 64.3458613701618 35.0
vertex 49.8834653475896 64.3458613701618 5.0
endloop
endfacet
facet normal 0.923879532511288 0.382683432365086 0.0
outer loop
vertex 49.8834653475896 64.3458613701618 35.0
vertex 49.2341126013095 65.9135375769954 5.0
vertex 49.2341126013095 65.9135375769954 35.0
endloop
endfacet
facet normal 0.99144486137381 0.130526192220054 0.0
outer loop
vertex 49.0126304721885 67.5958613701618 5.0
vertex 49.2341126013095 65.9135375769954 35.0
vertex 49.2341126013095 65.9135375769954 5.0
endloop
endfacet
facet normal 0.99144486137381 0.130526192220054 0.0
outer loop
vertex 49.2341126013095 65.9135375769954 35.0
vertex 49.0126304721885 67.5958613701618 5.0
vertex 49.0126304721885 67.5958613701618 35.0
endloop
endfacet
facet normal 0.991444861373811 -0.13052619222005 -0.0
outer loop
vertex 49.2341126013095 69.2781851633282 5.0
vertex 49.0126304721885 67.5958613701618 35.0
vertex 49.0126304721885 67.5958613701618 5.0
endloop
endfacet
facet normal 0.991444861373811 -0.13052619222005 -0.0
outer loop
vertex 49.0126304721885 67.5958613701618 35.0
vertex 49.2341126013095 69.2781851633282 5.0
vertex 49.2341126013095 69.2781851633282 35.0
endloop
endfacet
facet normal 0.923879532511286 -0.382683432365091 -0.0
outer loop
vertex 49.8834653475896 70.8458613701618 5.0
vertex 49.2341126013095 69.2781851633282 35.0
vertex 49.2341126013095 69.2781851633282 5.0
endloop
endfacet
facet normal 0.923879532511286 -0.382683432365091 -0.0
outer loop
vertex 49.2341126013095 69.2781851633282 35.0
vertex 49.8834653475896 70.8458613701618 5.0
vertex 49.8834653475896 70.8458613701618 35.0
endloop
endfacet
facet normal 1.0 2.25597318603832e-015 -0.0
outer loop
vertex 68.0126304721885 20.0958613701618 0.0
vertex 68.0126304721885 15.0958613701618 35.0
vertex 68.0126304721885 15.0958613701618 0.0
endloop
endfacet
facet normal 1.0 2.25597318603832e-015 -0.0
outer loop
vertex 68.0126304721885 15.0958613701618 35.0
vertex 68.0126304721885 20.0958613701618 0.0
vertex 68.0126304721885 20.0958613701618 35.0
endloop
endfacet
facet normal -0.0 1.0 -0.0
outer loop
vertex 43.0126304721885 82.5958613701618 35.0
vertex 55.5126304721885 82.5958613701618 0.0
vertex 43.0126304721885 82.5958613701618 0.0
endloop
endfacet
facet normal -0.0 1.0 -0.0
outer loop
vertex 55.5126304721885 82.5958613701618 0.0
vertex 43.0126304721885 82.5958613701618 35.0
vertex 55.5126304721885 82.5958613701618 35.0
endloop
endfacet
facet normal 0.0 0.0 -1.0
outer loop
vertex 55.5126304721885 82.5958613701618 0.0
vertex 43.0126304721885 2.59586137016182 0.0
vertex 43.0126304721885 82.5958613701618 0.0
endloop
endfacet
facet normal 0.0 0.0 -1.0
outer loop
vertex 43.0126304721885 2.59586137016182 0.0
vertex 55.5126304721885 82.5958613701618 0.0
vertex 55.5126304721885 2.59586137016182 0.0
endloop
endfacet
facet normal 0.0 0.0 -1.0
outer loop
vertex 55.5126304721885 2.59586137016182 0.0
vertex 55.5126304721885 82.5958613701618 0.0
vertex 61.2129114446155 46.5766226517097 0.0
endloop
endfacet
facet normal 0.0 0.0 -1.0
outer loop
vertex 61.2129114446155 46.5766226517097 0.0
vertex 55.5126304721885 82.5958613701618 0.0
vertex 61.8117315809841 50.5171793754312 0.0
endloop
endfacet
facet normal 0.0 0.0 -1.0
outer loop
vertex 61.8117315809841 50.5171793754312 0.0
vertex 55.5126304721885 82.5958613701618 0.0
vertex 62.8030429680693 54.37773303811 0.0
endloop
endfacet
facet normal 0.0 0.0 -1.0
outer loop
vertex 62.8030429680693 54.37773303811 0.0
vertex 55.5126304721885 82.5958613701618 0.0
vertex 68.0126304721885 70.0958613701618 0.0
endloop
endfacet
facet normal 0.0 0.0 -1.0
outer loop
vertex 55.5126304721885 2.59586137016182 0.0
vertex 61.2129114446155 46.5766226517097 0.0
vertex 61.0126304721885 42.5958613701618 0.0
endloop
endfacet
facet normal 0.0 0.0 -1.0
outer loop
vertex 62.8030429680693 54.37773303811 0.0
vertex 68.0126304721885 70.0958613701618 0.0
vertex 64.1768336425387 58.1192931447137 0.0
endloop
endfacet
facet normal 0.0 0.0 -1.0
outer loop
vertex 64.1768336425387 58.1192931447137 0.0
vertex 68.0126304721885 70.0958613701618 0.0
vertex 65.9192287089371 61.7040710013148 0.0
endloop
endfacet
facet normal 0.0 0.0 -1.0
outer loop
vertex 65.9192287089371 61.7040710013148 0.0
vertex 68.0126304721885 70.0958613701618 0.0
vertex 68.0126304721885 65.0958613701618 0.0
endloop
endfacet
facet normal 0.0 0.0 -1.0
outer loop
vertex 55.5126304721885 2.59586137016182 0.0
vertex 62.8030429680693 30.8139897022136 0.0
vertex 68.0126304721885 15.0958613701618 0.0
endloop
endfacet
facet normal 0.0 0.0 -1.0
outer loop
vertex 62.8030429680693 30.8139897022136 0.0
vertex 55.5126304721885 2.59586137016182 0.0
vertex 61.8117315809841 34.6745433648924 0.0
endloop
endfacet
facet normal 0.0 0.0 -1.0
outer loop
vertex 61.8117315809841 34.6745433648924 0.0
vertex 55.5126304721885 2.59586137016182 0.0
vertex 61.2129114446155 38.6151000886139 0.0
endloop
endfacet
facet normal 0.0 0.0 -1.0
outer loop
vertex 61.2129114446155 38.6151000886139 0.0
vertex 55.5126304721885 2.59586137016182 0.0
vertex 61.0126304721885 42.5958613701618 0.0
endloop
endfacet
facet normal 0.0 0.0 -1.0
outer loop
vertex 68.0126304721885 15.0958613701618 0.0
vertex 62.8030429680693 30.8139897022136 0.0
vertex 64.1768336425387 27.0724295956099 0.0
endloop
endfacet
facet normal 0.0 0.0 -1.0
outer loop
vertex 68.0126304721885 15.0958613701618 0.0
vertex 64.1768336425387 27.0724295956099 0.0
vertex 65.9192287089371 23.4876517390088 0.0
endloop
endfacet
facet normal 0.0 0.0 -1.0
outer loop
vertex 68.0126304721885 15.0958613701618 0.0
vertex 65.9192287089371 23.4876517390088 0.0
vertex 68.0126304721885 20.0958613701618 0.0
endloop
endfacet
facet normal 0.0 -1.0 0.0
outer loop
vertex 55.5126304721885 2.59586137016182 35.0
vertex 43.0126304721885 2.59586137016182 0.0
vertex 55.5126304721885 2.59586137016182 0.0
endloop
endfacet
facet normal 0.0 -1.0 0.0
outer loop
vertex 43.0126304721885 2.59586137016182 0.0
vertex 55.5126304721885 2.59586137016182 35.0
vertex 43.0126304721885 2.59586137016182 35.0
endloop
endfacet
facet normal -1.0 0.0 0.0
outer loop
vertex 43.0126304721885 82.5958613701618 35.0
vertex 43.0126304721885 2.59586137016182 0.0
vertex 43.0126304721885 2.59586137016182 35.0
endloop
endfacet
facet normal -1.0 0.0 0.0
outer loop
vertex 43.0126304721885 2.59586137016182 0.0
vertex 43.0126304721885 82.5958613701618 35.0
vertex 43.0126304721885 82.5958613701618 0.0
endloop
endfacet
facet normal 0.938723342123959 -0.344671563886005 -0.0
outer loop
vertex 64.1768336425387 58.1192931447137 0.0
vertex 62.8030429680693 54.37773303811 35.0
vertex 62.8030429680693 54.37773303811 0.0
endloop
endfacet
facet normal 0.938723342123959 -0.344671563886005 -0.0
outer loop
vertex 62.8030429680693 54.37773303811 35.0
vertex 64.1768336425387 58.1192931447137 0.0
vertex 64.1768336425387 58.1192931447137 35.0
endloop
endfacet
facet normal 0.899388104010749 -0.437151047538434 -0.0
outer loop
vertex 65.9192287089371 61.7040710013148 0.0
vertex 64.1768336425387 58.1192931447137 35.0
vertex 64.1768336425387 58.1192931447137 0.0
endloop
endfacet
facet normal 0.899388104010749 -0.437151047538434 -0.0
outer loop
vertex 64.1768336425387 58.1192931447137 35.0
vertex 65.9192287089371 61.7040710013148 0.0
vertex 65.9192287089371 61.7040710013148 35.0
endloop
endfacet
facet normal 0.850969301604526 -0.525215429825424 -0.0
outer loop
vertex 68.0126304721885 65.0958613701618 0.0
vertex 65.9192287089371 61.7040710013148 35.0
vertex 65.9192287089371 61.7040710013148 0.0
endloop
endfacet
facet normal 0.850969301604526 -0.525215429825424 -0.0
outer loop
vertex 65.9192287089371 61.7040710013148 35.0
vertex 68.0126304721885 65.0958613701618 0.0
vertex 68.0126304721885 65.0958613701618 35.0
endloop
endfacet
facet normal 0.93872334212396 0.344671563886003 0.0
outer loop
vertex 62.8030429680693 30.8139897022136 0.0
vertex 64.1768336425387 27.0724295956099 35.0
vertex 64.1768336425387 27.0724295956099 0.0
endloop
endfacet
facet normal 0.93872334212396 0.344671563886003 0.0
outer loop
vertex 64.1768336425387 27.0724295956099 35.0
vertex 62.8030429680693 30.8139897022136 0.0
vertex 62.8030429680693 30.8139897022136 35.0
endloop
endfacet
facet normal 0.968577741216158 0.248710995375368 0.0
outer loop
vertex 61.8117315809841 34.6745433648924 0.0
vertex 62.8030429680693 30.8139897022136 35.0
vertex 62.8030429680693 30.8139897022136 0.0
endloop
endfacet
facet normal 0.968577741216158 0.248710995375368 0.0
outer loop
vertex 62.8030429680693 30.8139897022136 35.0
vertex 61.8117315809841 34.6745433648924 0.0
vertex 61.8117315809841 34.6745433648924 35.0
endloop
endfacet
facet normal 0.988649780339526 0.150238516481651 0.0
outer loop
vertex 61.2129114446155 38.6151000886139 0.0
vertex 61.8117315809841 34.6745433648924 35.0
vertex 61.8117315809841 34.6745433648924 0.0
endloop
endfacet
facet normal 0.988649780339526 0.150238516481651 0.0
outer loop
vertex 61.8117315809841 34.6745433648924 35.0
vertex 61.2129114446155 38.6151000886139 0.0
vertex 61.2129114446155 38.6151000886139 35.0
endloop
endfacet
facet normal 0.998736737602302 0.0502486712611439 0.0
outer loop
vertex 61.0126304721885 42.5958613701618 0.0
vertex 61.2129114446155 38.6151000886139 35.0
vertex 61.2129114446155 38.6151000886139 0.0
endloop
endfacet
facet normal 0.998736737602302 0.0502486712611439 0.0
outer loop
vertex 61.2129114446155 38.6151000886139 35.0
vertex 61.0126304721885 42.5958613701618 0.0
vertex 61.0126304721885 42.5958613701618 35.0
endloop
endfacet
facet normal 0.998736737602302 -0.0502486712611438 -0.0
outer loop
vertex 61.2129114446155 46.5766226517097 0.0
vertex 61.0126304721885 42.5958613701618 35.0
vertex 61.0126304721885 42.5958613701618 0.0
endloop
endfacet
facet normal 0.998736737602302 -0.0502486712611438 -0.0
outer loop
vertex 61.0126304721885 42.5958613701618 35.0
vertex 61.2129114446155 46.5766226517097 0.0
vertex 61.2129114446155 46.5766226517097 35.0
endloop
endfacet
facet normal 0.988649780339525 -0.150238516481654 -0.0
outer loop
vertex 61.8117315809841 50.5171793754312 0.0
vertex 61.2129114446155 46.5766226517097 35.0
vertex 61.2129114446155 46.5766226517097 0.0
endloop
endfacet
facet normal 0.988649780339525 -0.150238516481654 -0.0
outer loop
vertex 61.2129114446155 46.5766226517097 35.0
vertex 61.8117315809841 50.5171793754312 0.0
vertex 61.8117315809841 50.5171793754312 35.0
endloop
endfacet
facet normal 0.968577741216158 -0.248710995375365 -0.0
outer loop
vertex 62.8030429680693 54.37773303811 0.0
vertex 61.8117315809841 50.5171793754312 35.0
vertex 61.8117315809841 50.5171793754312 0.0
endloop
endfacet
facet normal 0.968577741216158 -0.248710995375365 -0.0
outer loop
vertex 61.8117315809841 50.5171793754312 35.0
vertex 62.8030429680693 54.37773303811 0.0
vertex 62.8030429680693 54.37773303811 35.0
endloop
endfacet
endsolid TOP_Z
